<svg xmlns="http://www.w3.org/2000/svg" width="219.66" height="199.87" viewBox="0 0 219.66 199.87"><title>OJ104440668</title><rect x="43.72" y="30.35" width="51.33" height="27.47" fill="#fff"/><rect x="116.6" y="41.68" width="51.33" height="27.47" fill="#fff"/><rect y="23.24" width="51.33" height="27.47" fill="#fff"/><rect x="3.86" y="25.04" width="21.81" height="11.93" fill="#fff"/><rect x="36.19" y="108.3" width="65.04" height="24.1" fill="#fff"/><rect x="3.86" y="101.84" width="23.68" height="18.51" fill="#fff"/><rect x="2.36" y="171.94" width="21.43" height="15.96" fill="#fff"/><rect x="37.7" y="184.94" width="73.25" height="11.98" fill="#fff"/><rect x="131.31" y="187.9" width="73.25" height="11.98" fill="#fff"/><rect x="38.82" y="179.92" width="37.97" height="7.98" fill="#fff"/><rect x="157.63" y="142.03" width="37.97" height="7.98" fill="#fff"/><rect x="156.12" y="120.36" width="37.97" height="7.98" fill="#fff"/><rect x="175.11" y="106.77" width="44.55" height="39.24" fill="#fff"/><rect x="125.55" y="25.78" width="91.66" height="49.9" fill="#fff"/><path d="M211.09,79h-20.5a1.09,1.09,0,0,0-1.09,1.1V96.88a1.09,1.09,0,0,0,1.09,1.1h5.28a3.29,3.29,0,0,0,3.21,2.27,3.38,3.38,0,0,0,0-6.75,3.29,3.29,0,0,0-3.21,2.27h-4.19v-12H210v12h-3.45a7.61,7.61,0,0,0-7.46-6.56,8.25,8.25,0,0,0-3.64.92l1,2a5.27,5.27,0,0,1,2.55-.67,5.46,5.46,0,0,1,0,10.91,5.27,5.27,0,0,1-2.55-.67l-1,2a7.51,7.51,0,0,0,3.64.92A7.61,7.61,0,0,0,206.54,98h4.55a1.09,1.09,0,0,0,1.09-1.1V80.13A1.14,1.14,0,0,0,211.09,79Z" transform="translate(-0.94 -0.44)" fill="#008bfd" fill-rule="evenodd"/><path d="M73.65,106H59.44V77.6H73.65v7.67h.76V76.83H58.68v29.91H74.41v-2.32h-.76Z" transform="translate(-0.94 -0.44)" fill="#0078d7" fill-rule="evenodd"/><path d="M72.88,78.39H60.24V83H72.88ZM63.3,80.31h6.53v.76H63.3Zm6.59,1.84H63.27v-.76h6.62Z" transform="translate(-0.94 -0.44)" fill="#0078d7" fill-rule="evenodd"/><path d="M60.21,83.74V86.8h8.6V85.27h4.08V83.74Z" transform="translate(-0.94 -0.44)" fill="#0078d7" fill-rule="evenodd"/><rect x="59.27" y="87.13" width="8.6" height="2.68" fill="#0078d7"/><path d="M60.21,105.21H72.86v-.8H68.78V91h-8.6v14.17Zm1.53-2.74H64v1.21H61.74Z" transform="translate(-0.94 -0.44)" fill="#0078d7" fill-rule="evenodd"/><path d="M83.43,102.15H81v-1.87H78.46v1.87H76a1.32,1.32,0,0,0-1.31,1.15h10A1.29,1.29,0,0,0,83.43,102.15Z" transform="translate(-0.94 -0.44)" fill="#0078d7" fill-rule="evenodd"/><path d="M88.27,88.17H71.17a.65.65,0,0,0-.67.61V98.91a.65.65,0,0,0,.67.6h17.1a.64.64,0,0,0,.67-.6V88.78A.63.63,0,0,0,88.27,88.17Zm-1,9.84H72.19V89.7H87.25Z" transform="translate(-0.94 -0.44)" fill="#0078d7" fill-rule="evenodd"/><path d="M83.63,95.52V92.08l-3.51-1.84L76.62,92v3.54l3.5,1.81Zm-4.4-2.29.89-.45.86.45-.86.48Zm0-1.15.86-.44.86.44-.86.48Zm1.91,4.53-1,.51v-.93l1-.51Zm0-1.18-1,.51V95l1-.51Zm0-1.12-1,.51V93.9l1-.51Zm-.82-1.65.86-.45.89.45-.86.44Zm2,3.34-.95.51v-.92l.95-.51Zm0-1.18-.95.51v-.92l.95-.51Zm0-1.14-.95.51v-.9l.95-.51Zm1.05,1.75-.86.44V95l.86-.45Zm0-1.15-.86.45V93.8l.86-.44Zm0-1.14-.86.44v-.92l.86-.45Zm-.19-1.06-.89.45-.89-.45.86-.44Zm-1.11-.57-.89.45-.86-.45.86-.44Zm-2-1.05.86.45-.86.44-.89-.44ZM79,91.07l.86.44L79,92l-.86-.45Zm-1.08.57.89.44-.89.45-.9-.45Zm-.26,4.27-.86-.45v-.92l.86.44Zm0-1.18-.86-.45v-.92l.86.44Zm0-1.15-.86-.44v-.9l.86.45Zm1.18,2.93-1-.51v-.92l1,.51Zm0-1.18-1-.51V93.9l1,.51Zm0-1.14-1-.51v-.9l1,.51Zm-.7-1.53.89-.45.86.45-.89.48ZM80,97.12l-1-.51v-.89l1,.5ZM80,96l-1-.51v-.92l1,.51Zm0-1.15-1-.51v-.92l1,.51Z" transform="translate(-0.94 -0.44)" fill="#0078d7" fill-rule="evenodd"/><path d="M84.06,154.79H63.56a1.09,1.09,0,0,0-1.09,1.1v16.75a1.09,1.09,0,0,0,1.09,1.1h5.28A3.29,3.29,0,0,0,72.05,176a3.38,3.38,0,0,0,0-6.75,3.29,3.29,0,0,0-3.21,2.27H64.65v-12H83v12H79.51A7.61,7.61,0,0,0,72.05,165a8.25,8.25,0,0,0-3.64.92l1,2a5.27,5.27,0,0,1,2.55-.67,5.46,5.46,0,0,1,0,10.91,5.27,5.27,0,0,1-2.55-.67l-1,2a7.51,7.51,0,0,0,3.64.92,7.61,7.61,0,0,0,7.46-6.56h4.55a1.09,1.09,0,0,0,1.09-1.1V155.89A1.14,1.14,0,0,0,84.06,154.79Z" transform="translate(-0.94 -0.44)" fill="#008bfd" fill-rule="evenodd"/><path d="M17.37,21.09H10.65a.59.59,0,0,1-.61-.57V14.08H12V12.31H24.4a.59.59,0,0,1,.62.57V13a6.4,6.4,0,0,1,1,.33v-.42a1.53,1.53,0,0,0-1.58-1.46h-13l-2.34,2.2v6.9A1.51,1.51,0,0,0,10.65,22h7.28A5.8,5.8,0,0,1,17.37,21.09Z" transform="translate(-0.94 -0.44)" fill="gray" fill-rule="evenodd"/><path d="M26,23.3l2.34,3.26L26.16,26l-.61,1.64-2.34-2.88-1.75,2.88-.8-1.74-2.17.54L20.63,23s.58.92,2.69.92S26,23.3,26,23.3Z" transform="translate(-0.94 -0.44)" fill="gray" fill-rule="evenodd"/><path d="M24.19,22.71a3.58,3.58,0,0,1-3.71-3.41,3.58,3.58,0,0,1,3.71-3.42,3.58,3.58,0,0,1,3.72,3.42A3.58,3.58,0,0,1,24.19,22.71Zm0-6.06A2.78,2.78,0,0,0,21.3,19.3a2.91,2.91,0,0,0,5.79,0A2.79,2.79,0,0,0,24.19,16.65Z" transform="translate(-0.94 -0.44)" fill="gray" fill-rule="evenodd"/><path d="M24.19,24.52a5.48,5.48,0,0,1-5.7-5.22,5.48,5.48,0,0,1,5.7-5.23,5.48,5.48,0,0,1,5.69,5.23A5.47,5.47,0,0,1,24.19,24.52Zm0-9.69a4.7,4.7,0,0,0-4.88,4.47,4.69,4.69,0,0,0,4.88,4.46,4.68,4.68,0,0,0,4.87-4.46A4.69,4.69,0,0,0,24.19,14.83Z" transform="translate(-0.94 -0.44)" fill="gray" fill-rule="evenodd"/><path d="M17.54,98.67H10.82a.59.59,0,0,1-.61-.57V91.66h1.94V89.89H24.57a.59.59,0,0,1,.62.57v.09a6.4,6.4,0,0,1,1,.33v-.42A1.53,1.53,0,0,0,24.57,89h-13L9.25,91.2v6.9a1.51,1.51,0,0,0,1.57,1.46H18.1A5.8,5.8,0,0,1,17.54,98.67Z" transform="translate(-0.94 -0.44)" fill="gray" fill-rule="evenodd"/><path d="M26.16,100.89l2.34,3.26-2.17-.54-.61,1.64-2.34-2.88-1.75,2.88-.8-1.74-2.17.54,2.14-3.42s.58.92,2.69.92S26.16,100.89,26.16,100.89Z" transform="translate(-0.94 -0.44)" fill="gray" fill-rule="evenodd"/><path d="M24.35,100.29a3.43,3.43,0,1,1,0-6.83,3.43,3.43,0,1,1,0,6.83Zm0-6.06a2.66,2.66,0,1,0,2.9,2.65A2.78,2.78,0,0,0,24.35,94.23Z" transform="translate(-0.94 -0.44)" fill="gray" fill-rule="evenodd"/><path d="M24.36,102.1a5.24,5.24,0,1,1,0-10.45,5.24,5.24,0,1,1,0,10.45Zm0-9.69a4.48,4.48,0,1,0,0,8.93,4.48,4.48,0,1,0,0-8.93Z" transform="translate(-0.94 -0.44)" fill="gray" fill-rule="evenodd"/><path d="M17.54,168.78H10.82a.59.59,0,0,1-.61-.57v-6.44h1.94V160H24.57a.59.59,0,0,1,.62.57v.09a6.4,6.4,0,0,1,1,.33v-.42a1.53,1.53,0,0,0-1.58-1.46h-13l-2.34,2.2v6.9a1.51,1.51,0,0,0,1.57,1.46H18.1A5.8,5.8,0,0,1,17.54,168.78Z" transform="translate(-0.94 -0.44)" fill="gray" fill-rule="evenodd"/><path d="M26.16,171l2.34,3.26-2.17-.54-.61,1.64-2.34-2.88-1.75,2.88-.8-1.74-2.17.54,2.14-3.42s.58.92,2.69.92S26.16,171,26.16,171Z" transform="translate(-0.94 -0.44)" fill="gray" fill-rule="evenodd"/><path d="M24.35,170.4a3.43,3.43,0,1,1,0-6.83,3.43,3.43,0,1,1,0,6.83Zm0-6.06a2.66,2.66,0,1,0,2.9,2.65A2.78,2.78,0,0,0,24.35,164.34Z" transform="translate(-0.94 -0.44)" fill="gray" fill-rule="evenodd"/><path d="M24.36,172.21a5.24,5.24,0,1,1,0-10.45,5.24,5.24,0,1,1,0,10.45Zm0-9.69a4.48,4.48,0,1,0,0,8.93,4.48,4.48,0,1,0,0-8.93Z" transform="translate(-0.94 -0.44)" fill="gray" fill-rule="evenodd"/><path d="M181.12,88c0,.08,0,.15.08.22a9.46,9.46,0,0,1,.7,2.77h-1.26c-.36,0-.81,0-1.31,0q-23.16,0-46.31,0c-16.48,0-27.75-11.24-27.75-27.68,0-13.52,0-27,0-40.55,0-4.62-3.18-8.5-7.48-8.85a50.47,50.47,0,0,0-10.28.1.7.7,0,0,0,0,1c2.54.56,5.1.21,7.64.24,5.83.08,8.66,2.88,8.66,8.73,0,13.6-.13,27.19,0,40.78.14,11.42,5.6,19.71,15.68,25,.62.33,1.36.49,1.83,1.21-9.81,0-19.57,0-29.32,0-.91,0-2-.38-2.64.65l0,.17c.69,1,1.73.66,2.65.67q14.13,0,28.27,0h2.52c-.74.48-.91.62-1.11.72-11.32,5.41-16.81,14.45-16.79,26.94,0,12.3,0,24.6,0,36.9,0,5.82-3.78,9.57-9.58,9.68-3.28.06-6.55.07-9.82.1-.83.15-.8.71-.63,1.33a.41.41,0,0,0,.56.19c3,0,5.92-.05,8.88-.06,7.94,0,12.24-4.33,12.25-12.35V119.42c0-15.62,11.3-27,26.88-27h48.54a9.57,9.57,0,0,1-.68,3.19v0l8.08-4C186.4,90.43,184.24,88.85,181.12,88Z" transform="translate(-0.94 -0.44)" fill="#505050"/><path d="M66.68,17.18a16.47,16.47,0,0,1-2-2.35,18.32,18.32,0,0,0-1.66,6.89c.11.16.11.28.23.44a13.4,13.4,0,0,0,2,2.05A14.18,14.18,0,0,1,66.68,17.18Z" transform="translate(-0.94 -0.44)" fill="#008bfd" fill-rule="evenodd"/><path d="M71.29,7.75a21,21,0,0,0-3.33,3,16.41,16.41,0,0,0-1.61,2,15,15,0,0,0,1.9,2.47,16.84,16.84,0,0,1,2.2-2.57,27.32,27.32,0,0,1,3.13-2.6C72.78,9.31,72,8.54,71.29,7.75Z" transform="translate(-0.94 -0.44)" fill="#008bfd" fill-rule="evenodd"/><path d="M82.76,7A12.55,12.55,0,0,0,81,5.12a12.55,12.55,0,0,0-8,1.54c.76.84,1.51,1.62,2.24,2.36C79.63,6.59,82.76,7,82.76,7Z" transform="translate(-0.94 -0.44)" fill="#008bfd" fill-rule="evenodd"/><path d="M65.16,24.21a18.83,18.83,0,0,1,1.19-2.06,9.86,9.86,0,0,1-1.6-6.8A13.19,13.19,0,0,0,63.46,17C63.08,18.57,63.06,21.12,65.16,24.21Z" transform="translate(-0.94 -0.44)" fill="#008bfd" fill-rule="evenodd"/><path d="M70.52,17.36a21.57,21.57,0,0,1-2.27-2.13,13.68,13.68,0,0,0-1.14,1.95,23.54,23.54,0,0,0,2.09,1.91,19.18,19.18,0,0,0,12.56,4.38,9,9,0,0,0,1.54-1.94C82.07,21.79,76.81,22.47,70.52,17.36Z" transform="translate(-0.94 -0.44)" fill="#008bfd" fill-rule="evenodd"/><path d="M65.16,14.83a16.24,16.24,0,0,0,2,2.35,14.7,14.7,0,0,1,1.14-1.95,15,15,0,0,1-1.9-2.47A16.34,16.34,0,0,0,65.16,14.83Z" transform="translate(-0.94 -0.44)" fill="#008bfd" fill-rule="evenodd"/><path d="M73.58,10.07a98.21,98.21,0,0,0,11.15,8.82,9.82,9.82,0,0,0,.33-1.05A96.8,96.8,0,0,1,75.23,9,16,16,0,0,0,73.58,10.07Z" transform="translate(-0.94 -0.44)" fill="#008bfd" fill-rule="evenodd"/><path d="M73,6.65q-1.65-1.77-3.36-3.79A10.05,10.05,0,0,0,68,3.52a26.74,26.74,0,0,0,3.24,4.22A15.69,15.69,0,0,1,73,6.65Z" transform="translate(-0.94 -0.44)" fill="#008bfd" fill-rule="evenodd"/><path d="M73.06,6.62a18.74,18.74,0,0,0-1.87,1.19c.72.78,1.45,1.59,2.25,2.35.57-.4,1.34-.89,1.87-1.19C74.57,8.24,73.82,7.46,73.06,6.62Z" transform="translate(-0.94 -0.44)" fill="#008bfd" fill-rule="evenodd"/><path d="M72.86,6.51a14.89,14.89,0,0,0-1.67,1.13c.72.79,1.74,1.81,2.54,2.57.57-.4,1-.81,1.58-1.11C74.57,8.37,73.61,7.35,72.86,6.51Z" transform="translate(-0.94 -0.44)" fill="#008bfd" fill-rule="evenodd"/><path d="M78.92,13.07a2.7,2.7,0,0,0-.48,3.7,2.55,2.55,0,0,0,3.63.5,2.71,2.71,0,0,0,.48-3.71A2.54,2.54,0,0,0,78.92,13.07Z" transform="translate(-0.94 -0.44)" fill="#008bfd" fill-rule="evenodd"/><path d="M64,19.68a2.52,2.52,0,0,0-.45,3.44,2.37,2.37,0,0,0,3.36.45,2.49,2.49,0,0,0,.44-3.43A2.35,2.35,0,0,0,64,19.68Z" transform="translate(-0.94 -0.44)" fill="#008bfd" fill-rule="evenodd"/><path d="M64.61,11.87a3.79,3.79,0,0,0-.68,5.21,3.58,3.58,0,0,0,5.1.7,3.8,3.8,0,0,0,.67-5.23A3.58,3.58,0,0,0,64.61,11.87Z" transform="translate(-0.94 -0.44)" fill="#008bfd" fill-rule="evenodd"/><path d="M80.65,24.41a11.81,11.81,0,0,1-16.84-2.29A12.55,12.55,0,0,1,66.05,4.83a11.72,11.72,0,0,1,7.29-2.54,11.89,11.89,0,0,1,9.55,4.84A12.54,12.54,0,0,1,80.65,24.41ZM84.31,6A13.57,13.57,0,0,0,65,3.36,14.45,14.45,0,0,0,62.4,23.24a13.65,13.65,0,0,0,11,5.55,13.45,13.45,0,0,0,8.39-2.92A14.44,14.44,0,0,0,84.31,6Z" transform="translate(-0.94 -0.44)" fill="#008bfd" fill-rule="evenodd"/><path d="M12.58,31.36a4,4,0,0,1-.28.61A9.12,9.12,0,0,1,11.67,33a9.75,9.75,0,0,1,.86,1.15l-.36.41a5.7,5.7,0,0,0-.75-1.11v4.27H10.9V34a15.11,15.11,0,0,1-1.13,1l-.35-.42a8.65,8.65,0,0,0,2.64-3.27H9.61v-.52h3Zm-.83-1-.47.24a7.87,7.87,0,0,0-.84-1.4l.47-.26A7.18,7.18,0,0,1,11.75,30.36Zm5.94-.44A16.45,16.45,0,0,1,15,35.71V36.8a.27.27,0,0,0,.12.23,2.69,2.69,0,0,0,.9.08,1.42,1.42,0,0,0,.72-.1.78.78,0,0,0,.19-.43,6.17,6.17,0,0,0,.06-1l.52.2a3.55,3.55,0,0,1-.12,1.11,1,1,0,0,1-.38.59,2.24,2.24,0,0,1-1,.15,3.12,3.12,0,0,1-1.25-.15.57.57,0,0,1-.27-.56v-.65a12.57,12.57,0,0,1-1.81,1.53l-.37-.41a10.26,10.26,0,0,0,2.18-1.92V31.3H15v3.51a14.89,14.89,0,0,0,2.21-5Zm-3.84,2.44a11.52,11.52,0,0,1-.79,3.12l-.5-.17a11.87,11.87,0,0,0,.8-3.07Zm2.47-1.59-.4.36a9.15,9.15,0,0,0-1.72-1.74l.34-.37A11.39,11.39,0,0,1,16.32,30.77Zm1.9,4.45-.52.19A11.38,11.38,0,0,0,17,32.94l.46-.19A11.64,11.64,0,0,1,18.22,35.22Z" transform="translate(-0.94 -0.44)"/><path d="M26.29,31.34a11.6,11.6,0,0,1-3.56,2.72.17.17,0,0,0,.14.17,5.49,5.49,0,0,0,1.16.06,6.24,6.24,0,0,0,1.37-.09q.3-.09.36-1.14l.49.24a2.31,2.31,0,0,1-.22,1,.76.76,0,0,1-.45.42,4.45,4.45,0,0,1-1.11.08,14.93,14.93,0,0,1-1.76-.05.67.67,0,0,1-.48-.41c-.85.38-1.68.72-2.48,1l-.25-.42a25.46,25.46,0,0,0,2.68-1.1V31h.53v2.56A9.9,9.9,0,0,0,25.91,31Zm-4.45.38a11.79,11.79,0,0,1-2,2l-.36-.38a10.69,10.69,0,0,0,1.92-1.87Zm5.95.08h-.5V30.3H20.41v1.5h-.52v-2h3.75a2.77,2.77,0,0,0-.29-.69l.46-.17a6.18,6.18,0,0,1,.37.86h3.61Zm-.66,6h-.52v-.26H20.5V35.47H21V37H23.5V35H24v2h2.6V35.47h.52Zm-2.54-6-.41.27a8.09,8.09,0,0,0-1-1.22l.44-.27A6.79,6.79,0,0,1,24.59,31.83Zm3.56,2-.39.34a11.39,11.39,0,0,0-1.59-1.84l.38-.32A12.17,12.17,0,0,1,28.15,33.86Z" transform="translate(-0.94 -0.44)"/><path d="M12.58,107.63a4,4,0,0,1-.28.61,9.12,9.12,0,0,1-.63,1.05,8.59,8.59,0,0,1,.85,1.15l-.35.41a6,6,0,0,0-.75-1.11V114H10.9v-3.74a13.23,13.23,0,0,1-1.13,1l-.36-.42a8.59,8.59,0,0,0,2.65-3.27H9.6v-.52h3Zm-.83-1-.48.24a7.26,7.26,0,0,0-.83-1.4l.47-.26A7.18,7.18,0,0,1,11.75,106.63Zm5.94-.44A16.62,16.62,0,0,1,15,112v1.09a.27.27,0,0,0,.12.23,2.69,2.69,0,0,0,.9.08,1.42,1.42,0,0,0,.72-.1.78.78,0,0,0,.19-.43,6.17,6.17,0,0,0,.06-1l.52.2a3.55,3.55,0,0,1-.12,1.11,1,1,0,0,1-.38.59,2.24,2.24,0,0,1-1,.15,3.12,3.12,0,0,1-1.25-.15.57.57,0,0,1-.27-.56v-.65a12.57,12.57,0,0,1-1.81,1.53l-.37-.41a10.26,10.26,0,0,0,2.18-1.92v-4.18H15v3.51a14.89,14.89,0,0,0,2.21-5Zm-3.84,2.44a11.52,11.52,0,0,1-.79,3.12l-.5-.17a11.46,11.46,0,0,0,.79-3.07ZM16.32,107l-.4.36a9.2,9.2,0,0,0-1.73-1.74l.35-.37A11.39,11.39,0,0,1,16.32,107Zm1.9,4.45-.52.19a11.38,11.38,0,0,0-.69-2.47l.46-.19A11.64,11.64,0,0,1,18.22,111.49Z" transform="translate(-0.94 -0.44)"/><path d="M26.28,107.61a11.44,11.44,0,0,1-3.55,2.72.17.17,0,0,0,.14.17,5.49,5.49,0,0,0,1.16.06,6.24,6.24,0,0,0,1.37-.09c.19-.06.32-.44.36-1.14l.49.24a2.31,2.31,0,0,1-.22,1,.76.76,0,0,1-.45.42,4.45,4.45,0,0,1-1.11.08,14.93,14.93,0,0,1-1.76-.05.67.67,0,0,1-.48-.41c-.85.38-1.68.72-2.48,1l-.25-.42a25.46,25.46,0,0,0,2.68-1.1v-2.83h.53v2.56a10,10,0,0,0,3.2-2.51Zm-4.44.38a11.79,11.79,0,0,1-2,2l-.36-.38a10.69,10.69,0,0,0,1.92-1.87Zm5.95.08h-.5v-1.5H20.41v1.5h-.52v-2h3.75a2.77,2.77,0,0,0-.29-.69l.46-.17a6.18,6.18,0,0,1,.37.86h3.61Zm-.66,6h-.52v-.26H20.5v-2.05H21v1.57H23.5v-2H24v2h2.6v-1.57h.52Zm-2.54-6-.41.27a8.09,8.09,0,0,0-1-1.22l.44-.27A6.79,6.79,0,0,1,24.59,108.1Zm3.56,2-.39.34a11.39,11.39,0,0,0-1.59-1.84l.38-.32A12.69,12.69,0,0,1,28.15,110.13Z" transform="translate(-0.94 -0.44)"/><path d="M12.58,180.43a3.8,3.8,0,0,1-.28.62,8.21,8.21,0,0,1-.63,1,9.78,9.78,0,0,1,.86,1.16l-.36.41a6,6,0,0,0-.75-1.12v4.28H10.9v-3.74c-.45.45-.83.8-1.13,1l-.35-.42a8.68,8.68,0,0,0,2.64-3.28H9.61v-.51h3Zm-.83-1-.47.24a7.53,7.53,0,0,0-.84-1.4l.47-.26A6.9,6.9,0,0,1,11.75,179.44Zm5.94-.45A16.45,16.45,0,0,1,15,184.78v1.09a.29.29,0,0,0,.12.24,2.69,2.69,0,0,0,.9.08,1.55,1.55,0,0,0,.72-.1.78.78,0,0,0,.19-.43,6.17,6.17,0,0,0,.06-1l.52.2a3.55,3.55,0,0,1-.12,1.11,1,1,0,0,1-.38.58,2.24,2.24,0,0,1-1,.15,3.18,3.18,0,0,1-1.25-.14.57.57,0,0,1-.27-.56v-.65a12.48,12.48,0,0,1-1.81,1.52l-.37-.41a9.94,9.94,0,0,0,2.18-1.91v-4.18H15v3.51a14.89,14.89,0,0,0,2.21-5Zm-3.84,2.45a11.71,11.71,0,0,1-.79,3.12l-.5-.18a11.69,11.69,0,0,0,.8-3.06Zm2.47-1.6-.4.36a9.39,9.39,0,0,0-1.72-1.73l.34-.37A11.39,11.39,0,0,1,16.32,179.84Zm1.9,4.46-.52.19A11.22,11.22,0,0,0,17,182l.46-.19A11.47,11.47,0,0,1,18.22,184.3Z" transform="translate(-0.94 -0.44)"/><path d="M26.29,180.41a11.3,11.3,0,0,1-3.56,2.72.17.17,0,0,0,.14.18,5.9,5.9,0,0,0,1.16.05,7.3,7.3,0,0,0,1.37-.08c.2-.06.32-.44.36-1.15l.49.25a2.31,2.31,0,0,1-.22,1,.76.76,0,0,1-.45.42,4.45,4.45,0,0,1-1.11.08c-1,0-1.56,0-1.76,0a.66.66,0,0,1-.48-.42c-.85.39-1.68.72-2.48,1L19.5,184a23.56,23.56,0,0,0,2.68-1.09V180h.53v2.57a9.9,9.9,0,0,0,3.2-2.51Zm-4.45.39a11.35,11.35,0,0,1-2,1.95l-.36-.37a10.69,10.69,0,0,0,1.92-1.87Zm5.95.07h-.5v-1.5H20.41v1.5h-.52v-2h3.75a3,3,0,0,0-.29-.7l.46-.16a6.18,6.18,0,0,1,.37.86h3.61Zm-.66,6h-.52v-.26H20.5v-2H21v1.57H23.5v-2H24v2h2.6v-1.57h.52Zm-2.54-6-.41.27a8.09,8.09,0,0,0-1-1.22l.44-.27A6.79,6.79,0,0,1,24.59,180.91Zm3.56,2-.39.35a11,11,0,0,0-1.59-1.84l.38-.32A12.69,12.69,0,0,1,28.15,182.93Z" transform="translate(-0.94 -0.44)"/><path d="M41.68,190.53a13,13,0,0,1-.61,2.78l-.51-.22a9.77,9.77,0,0,0,.63-2.7Zm2-.65H42.56v4.94H42v-4.94H40.63v-.51H42v-3.29h.52v3.29H43.7Zm-2-1.35-.49.22A8.7,8.7,0,0,0,40.7,187l.44-.22A9.55,9.55,0,0,1,41.71,188.53ZM43.92,187a12.09,12.09,0,0,1-.55,1.87l-.49-.22a8.54,8.54,0,0,0,.57-1.84Zm.15,5.39-.48.24a10.16,10.16,0,0,0-.63-1.94l.43-.23A11.11,11.11,0,0,1,44.07,192.36Zm4.77,1.79a.55.55,0,0,1-.24.49,1.93,1.93,0,0,1-1,.17l-.54,0-.17-.51c.25,0,.54,0,.88,0a1,1,0,0,0,.44-.07.21.21,0,0,0,.1-.19v-.8H44.86a4.24,4.24,0,0,1-.83,1.58l-.45-.34a3.72,3.72,0,0,0,.9-2.71v-1.52h4.36Zm.46-4.49H44.06v-.49h2.37v-.7h-2V188h2v-.68H44.28v-.49h2.15v-.77h.51v.77h2.17v.49H46.94V188h1.94v.46H46.94v.7H49.3Zm-1,3.08V192H45a6.91,6.91,0,0,1,0,.76Zm0-1.26v-.73H45v.73Z" transform="translate(-0.94 -0.44)"/><path d="M59.27,194.65H50.59v-.43h4.13v-1.86H53.34c-.06.12-.16.28-.29.49a9.47,9.47,0,0,1,1.36.7l-.26.39a10.45,10.45,0,0,0-1.42-.75,3.1,3.1,0,0,1-1.25.72l-.32-.33a3.07,3.07,0,0,0,1.69-1.22H50.91v-.44H59v.44H57.73a2.07,2.07,0,0,1-.27.45,14.3,14.3,0,0,1,1.29.67l-.26.38a9.2,9.2,0,0,0-1.32-.68,3.52,3.52,0,0,1-1.29.75l-.28-.35a2.9,2.9,0,0,0,1.65-1.22h-2v1.86h4.05Zm-.2-5.3h-.48V187.8H55.2v1.91h-.49V187.8H51.29v1.54h-.48v-2h3.9v-.64H51.13v-.43h7.64v.43H55.2v.64h3.87Zm-5.78,2.15H51.16V190h2.13Zm-.45-.41v-.66H51.61v.66Zm1.42-1.7c-.77.12-1.57.21-2.42.27l-.16-.4a15.89,15.89,0,0,0,2.41-.26Zm0-1-.16.42a17.49,17.49,0,0,0-2.32-.29l.19-.41A15.26,15.26,0,0,1,54.26,188.39ZM56,191.5H53.87V190H56Zm-.46-.41v-.66H54.32v.66Zm2.57-2.66a18.5,18.5,0,0,1-2.31.38l-.18-.41a14.17,14.17,0,0,0,2.27-.34Zm0,1-.17.4a17.8,17.8,0,0,0-2.36-.42l.18-.4A22.32,22.32,0,0,1,58.19,189.41Zm.53,2.09H56.6V190h2.12Zm-.44-.41v-.66H57v.66Z" transform="translate(-0.94 -0.44)"/><path d="M72.3,186.76l-2.14,7.56h-1l-1.58-5.57a3.26,3.26,0,0,1-.12-.77h0a3.19,3.19,0,0,1-.14.76l-1.58,5.58h-1l-2.23-7.56h.92l1.64,5.85a3.37,3.37,0,0,1,.13.75h0a3.92,3.92,0,0,1,.16-.75l1.69-5.85h.78l1.64,5.89a4.55,4.55,0,0,1,.12.7h0a3.43,3.43,0,0,1,.15-.72l1.57-5.87Z" transform="translate(-0.94 -0.44)"/><path d="M77.37,191.82H73.54a2.08,2.08,0,0,0,.5,1.43,1.68,1.68,0,0,0,1.28.5,2.72,2.72,0,0,0,1.69-.61v.78a3.1,3.1,0,0,1-1.88.53,2.27,2.27,0,0,1-1.78-.74,3,3,0,0,1-.65-2.08,3,3,0,0,1,.7-2,2.26,2.26,0,0,1,1.77-.81,2,2,0,0,1,1.62.69,2.82,2.82,0,0,1,.58,1.9Zm-.84-.72a1.75,1.75,0,0,0-.36-1.18,1.26,1.26,0,0,0-1-.42,1.47,1.47,0,0,0-1,.42,2,2,0,0,0-.57,1.18Z" transform="translate(-0.94 -0.44)"/><path d="M79.52,193.53v.79H78.7v-8h.82v3.55h0a2,2,0,0,1,1.87-1.09,2,2,0,0,1,1.63.73,3,3,0,0,1,.59,1.94,3.36,3.36,0,0,1-.66,2.17,2.24,2.24,0,0,1-1.81.82,1.79,1.79,0,0,1-1.62-.92Zm0-1.4a1.62,1.62,0,0,0,.45,1.16,1.52,1.52,0,0,0,1.12.46,1.46,1.46,0,0,0,1.25-.61,2.84,2.84,0,0,0,.46-1.7,2.18,2.18,0,0,0-.43-1.43,1.38,1.38,0,0,0-1.15-.52A1.56,1.56,0,0,0,80,190a1.91,1.91,0,0,0-.48,1.34Z" transform="translate(-0.94 -0.44)"/><path d="M93.44,194.32h-.92l-.82-2.15H88.46l-.77,2.15h-.93l2.91-7.56h.85Zm-2-2.91-1.22-3.27a3.47,3.47,0,0,1-.11-.49h0a3.17,3.17,0,0,1-.12.49l-1.2,3.27Z" transform="translate(-0.94 -0.44)"/><path d="M95.4,191.45v2.87h-.83v-7.56h2a2.7,2.7,0,0,1,1.86.59,2.1,2.1,0,0,1,.66,1.66,2.25,2.25,0,0,1-.78,1.79,2.72,2.72,0,0,1-1.94.65Zm0-3.93v3.15h.95a2.13,2.13,0,0,0,1.42-.42,1.48,1.48,0,0,0,.49-1.2q0-1.53-1.8-1.53Z" transform="translate(-0.94 -0.44)"/><path d="M101.41,194.32h-.83v-7.56h.83Z" transform="translate(-0.94 -0.44)"/><path d="M183.16,116.13a13.65,13.65,0,0,1-.61,2.78l-.51-.22a10.54,10.54,0,0,0,.63-2.7Zm2-.65H184v4.94h-.52v-4.94h-1.41V115h1.41v-3.29H184V115h1.14Zm-2-1.35-.49.22a9.67,9.67,0,0,0-.52-1.72l.44-.22A9.83,9.83,0,0,1,183.19,114.13Zm2.21-1.56a11.78,11.78,0,0,1-.55,1.87l-.49-.22a8.54,8.54,0,0,0,.57-1.84Zm.15,5.39-.48.24a10.16,10.16,0,0,0-.63-1.94l.43-.23A12.35,12.35,0,0,1,185.55,118Zm4.77,1.79a.58.58,0,0,1-.24.5,2,2,0,0,1-1,.16l-.54,0-.17-.51q.36,0,.87,0a.89.89,0,0,0,.45-.07.21.21,0,0,0,.1-.19v-.8h-3.47a4.31,4.31,0,0,1-.83,1.58l-.45-.34a3.71,3.71,0,0,0,.9-2.71v-1.51h4.36Zm.46-4.49h-5.24v-.49h2.37v-.7h-2v-.46h2v-.68h-2.15v-.49h2.15v-.77h.51v.77h2.17v.49h-2.17v.68h1.94v.46h-1.94v.7h2.36Zm-1,3.08v-.76h-3.33a6.91,6.91,0,0,1,0,.76Zm0-1.26v-.73h-3.33v.73Z" transform="translate(-0.94 -0.44)"/><path d="M200.75,120.25h-8.68v-.42h4.13V118h-1.38c-.06.12-.16.28-.29.49a11.33,11.33,0,0,1,1.36.7l-.26.39a10.45,10.45,0,0,0-1.42-.75,3.17,3.17,0,0,1-1.25.72l-.32-.33a3.05,3.05,0,0,0,1.69-1.22h-1.94v-.44h8.07V118h-1.25a2.07,2.07,0,0,1-.27.45c.54.26,1,.48,1.29.67l-.26.38a10.26,10.26,0,0,0-1.32-.67,3.64,3.64,0,0,1-1.29.74l-.28-.35a2.86,2.86,0,0,0,1.65-1.22h-2v1.87h4.05Zm-.2-5.3h-.48V113.4h-3.39v1.91h-.49V113.4h-3.42v1.54h-.48v-2h3.9v-.64h-3.58v-.42h7.64v.42h-3.57V113h3.87Zm-5.78,2.15h-2.13v-1.5h2.13Zm-.45-.41V116h-1.23v.66Zm1.42-1.7c-.77.12-1.58.21-2.42.27l-.16-.4a16,16,0,0,0,2.41-.26Zm0-1-.16.42a16.11,16.11,0,0,0-2.32-.3l.19-.41A15.39,15.39,0,0,1,195.74,114Zm1.77,3.1h-2.16v-1.5h2.16Zm-.46-.41V116H195.8v.66Zm2.57-2.66a20.71,20.71,0,0,1-2.31.39l-.18-.42a13.27,13.27,0,0,0,2.27-.34Zm0,1-.17.4a18.1,18.1,0,0,0-2.36-.42l.18-.4C198.31,114.73,199.09,114.87,199.67,115Zm.53,2.09h-2.12v-1.5h2.12Zm-.44-.41V116h-1.24v.66Z" transform="translate(-0.94 -0.44)"/><path d="M210.68,119.92h-.92l-.82-2.15h-3.25l-.76,2.15H204l2.91-7.56h.84Zm-2-2.91-1.21-3.26a4.13,4.13,0,0,1-.11-.5h0a2.51,2.51,0,0,1-.13.5L206,117Z" transform="translate(-0.94 -0.44)"/><path d="M212.64,117.05v2.87h-.83v-7.56h2a2.7,2.7,0,0,1,1.85.59,2.08,2.08,0,0,1,.67,1.66,2.29,2.29,0,0,1-.78,1.8,2.72,2.72,0,0,1-1.94.64Zm0-3.92v3.15h.94a2.14,2.14,0,0,0,1.43-.43,1.52,1.52,0,0,0,.49-1.2c0-1-.6-1.52-1.8-1.52Z" transform="translate(-0.94 -0.44)"/><path d="M218.65,119.92h-.83v-7.56h.83Z" transform="translate(-0.94 -0.44)"/><path d="M189.79,124.89h-7.38v2.88a13,13,0,0,1-.79,4.71l-.43-.36a12.15,12.15,0,0,0,.72-4.34v-3.36h3.74c-.13-.21-.26-.43-.4-.64l.52-.12a3.47,3.47,0,0,1,.45.76h3.57Zm-5.68,5.38a7.12,7.12,0,0,1-1.18,1.92l-.39-.34a6,6,0,0,0,1.09-1.79Zm.56-5a6.5,6.5,0,0,1-.62,1.35v3.13h-.5V127.3a6.11,6.11,0,0,1-.62.72l-.33-.39a6.88,6.88,0,0,0,1.62-2.57Zm5,4.39h-4.44v-2.5c-.17.21-.39.48-.68.8l-.3-.42a9.18,9.18,0,0,0,1.66-2.44l.44.17a5.9,5.9,0,0,1-.35.72h1.5a5,5,0,0,0-.38-.68l.49-.14a4.6,4.6,0,0,1,.44.82h1.59v.46h-1.84V127h1.7v.46h-1.7v.63h1.7v.46h-1.7v.62h1.87Zm-1.3,1.52a1.78,1.78,0,0,1-.18.77.68.68,0,0,1-.44.35,8,8,0,0,1-1.47.08,5.36,5.36,0,0,1-1-.06.64.64,0,0,1-.37-.24,1,1,0,0,1-.12-.55v-1.44h.5v1.47c0,.16.05.26.14.29a4.63,4.63,0,0,0,1,.05,7.42,7.42,0,0,0,1.11,0,.41.41,0,0,0,.27-.21,1.58,1.58,0,0,0,.09-.66ZM187.32,127v-.58h-1.57V127Zm0,1.09v-.63h-1.58v.63Zm0,1.08v-.62h-1.58v.62Zm-.1,1.79-.44.28a6.39,6.39,0,0,0-.87-1l.44-.29A7.14,7.14,0,0,1,187.23,131Zm2.71.88-.43.26a10,10,0,0,0-1.21-1.77l.44-.27A10.69,10.69,0,0,1,189.94,131.84Z" transform="translate(-0.94 -0.44)"/><path d="M199.44,131.71a.61.61,0,0,1-.29.57,3.23,3.23,0,0,1-1.31.16h-.44l-.16-.55c.24,0,.49,0,.72,0a3,3,0,0,0,.83-.06.19.19,0,0,0,.12-.19v-2.41h-2.83v2.93h-.54v-2.93h-2.85a6.78,6.78,0,0,1-1,3.15l-.47-.33a6.27,6.27,0,0,0,1-3.6v-4.59h7.24Zm-3.9-5.47v-1.82h-2.8v1.82Zm0,2.49v-1.94h-2.8v1.94Zm3.37-2.49v-1.82h-2.83v1.82Zm0,2.49v-1.94h-2.83v1.94Z" transform="translate(-0.94 -0.44)"/><path d="M204.6,128.65l-.36.4a7.12,7.12,0,0,0-.86-1.25v4.63h-.52v-4.65a14,14,0,0,1-1.35,2.47l-.35-.41a13.76,13.76,0,0,0,1.67-3.2h-1.62v-.5h1.65v-1.48l-1.22.23-.27-.5a10.6,10.6,0,0,0,2.89-.68l.31.45c-.49.17-.89.3-1.19.38v1.6h1.19v.5h-1.19v.41A8.73,8.73,0,0,1,204.6,128.65Zm5.3,3.54h-5.63v-.49h2.57v-1.53h-2.22v-.5h2.22v-1.45c-1.07.07-1.73.11-2,.11l-.24-.51a22.13,22.13,0,0,0,4.76-.53l.34.45c-.67.16-1.46.3-2.35.42v1.51h2.15v.5h-2.15v1.53h2.53Zm-.64-5.48H205V124h4.29Zm-.53-.5v-1.73H205.5v1.73Z" transform="translate(-0.94 -0.44)"/><path d="M219.9,130.28c-.3,1.5-.72,2.25-1.28,2.25a.74.74,0,0,1-.39-.12,2.33,2.33,0,0,1-.53-.61,5.46,5.46,0,0,1-.62-1.21,8.51,8.51,0,0,1-.41-2c-.09-.88-.15-1.76-.19-2.63h-5.23v-.54h5.19c0-.74,0-1.31,0-1.72h.52c0,.79,0,1.37,0,1.72h2.91v.54H217c0,.7.11,1.63.25,2.8a6.21,6.21,0,0,0,.71,2.52c.34.5.57.76.68.76s.33-.24.48-.72a6.72,6.72,0,0,0,.29-1.28Zm-3.7.39c-1.62.41-3.14.75-4.56,1l-.13-.52,2.05-.36v-2.91h-1.77v-.54h4.13v.54h-1.85v2.78c.78-.16,1.49-.33,2.13-.5Zm3.23-5.77-.44.3a6.4,6.4,0,0,0-1.12-1.06l.43-.34A5.65,5.65,0,0,1,219.43,124.9Z" transform="translate(-0.94 -0.44)"/><path d="M51.27,115.57a13.8,13.8,0,0,1-.61,2.78l-.51-.22a10.17,10.17,0,0,0,.62-2.7Zm2-.65H52.15v4.94h-.53v-4.94h-1.4v-.51h1.4v-3.29h.53v3.29h1.13Zm-2-1.35-.5.22a8.59,8.59,0,0,0-.51-1.72l.44-.22A10.1,10.1,0,0,1,51.3,113.57ZM53.5,112a12.19,12.19,0,0,1-.54,1.87l-.5-.22a8.15,8.15,0,0,0,.58-1.84Zm.16,5.39-.48.24a9.93,9.93,0,0,0-.63-1.94l.43-.23A12,12,0,0,1,53.66,117.4Zm4.77,1.79a.55.55,0,0,1-.25.49,1.88,1.88,0,0,1-1,.17l-.55,0-.16-.51.87,0a1,1,0,0,0,.44-.06.22.22,0,0,0,.1-.19v-.8H54.45a4.55,4.55,0,0,1-.83,1.58l-.45-.34a3.74,3.74,0,0,0,.9-2.71V115.3h4.36Zm.46-4.49H53.65v-.49H56v-.7H54v-.46h2v-.68H53.87v-.49H56v-.77h.52v.77h2.16v.49H56.53v.68h1.94v.46H56.53v.7h2.36Zm-1,3.08V117H54.58a5.1,5.1,0,0,1,0,.76Zm0-1.26v-.73H54.58v.73Z" transform="translate(-0.94 -0.44)"/><path d="M68.86,119.69H60.17v-.43h4.14V117.4H62.93l-.29.49a10,10,0,0,1,1.36.7l-.27.39a9.68,9.68,0,0,0-1.41-.75,3.17,3.17,0,0,1-1.25.72l-.32-.33a3.1,3.1,0,0,0,1.69-1.22H60.5V117h8.07v.44H67.32a1.78,1.78,0,0,1-.28.45,14.3,14.3,0,0,1,1.29.67l-.26.38a9.66,9.66,0,0,0-1.31-.68,3.52,3.52,0,0,1-1.29.75l-.29-.35a2.84,2.84,0,0,0,1.65-1.22h-2v1.86h4Zm-.2-5.3h-.48v-1.55h-3.4v1.91H64.3v-1.91H60.88v1.54h-.49v-2H64.3v-.64H60.72v-.43h7.64v.43H64.78v.64h3.88Zm-5.79,2.15H60.75V115h2.12Zm-.44-.41v-.66H61.19v.66Zm1.42-1.7q-1.16.18-2.43.27l-.15-.4a19.34,19.34,0,0,0,2.41-.26Zm0-1-.16.42a17.7,17.7,0,0,0-2.32-.29l.19-.41A15.41,15.41,0,0,1,63.85,113.43Zm1.76,3.11H63.46V115h2.15Zm-.46-.41v-.66H63.9v.66Zm2.58-2.66a19,19,0,0,1-2.32.38l-.17-.41a14.05,14.05,0,0,0,2.26-.34Zm0,1-.17.4a15.26,15.26,0,0,0-2.36-.42l.18-.4A20.38,20.38,0,0,1,67.78,114.45Zm.52,2.09H66.19V115H68.3Zm-.44-.41v-.66H66.62v.66Z" transform="translate(-0.94 -0.44)"/><path d="M73.42,118.05a11.52,11.52,0,0,1-3,1.6l-.29-.48A10.38,10.38,0,0,0,73,117.71Zm5.49-.82H74.76v2.65h-.51v-2.65h-4.1v-.47h4.1V116h-3v-3H74v-1.86h.52v.63h3.54v.49H74.52V113H77.7v3H74.76v.76h4.15Zm-1.7-3v-.74H71.8v.74Zm0,1.3v-.8H71.8v.8Zm1.72,3.75-.36.42a15.69,15.69,0,0,0-3-1.53l.35-.45A19.06,19.06,0,0,1,78.93,119.27Z" transform="translate(-0.94 -0.44)"/><path d="M88.85,111.87H84.92c-.22.51-.43.95-.62,1.3h3.87v6.67h-.52v-.6H81.39v.6h-.53v-6.67h2.83a5.73,5.73,0,0,0,.64-1.3H80.16v-.5h8.69Zm-6,6.84v-5H81.39v5Zm2.9-3.78v-1.24H83.35v1.24Zm0,1.85v-1.34H83.35v1.34Zm0,1.93v-1.44H83.35v1.44Zm1.94,0v-5H86.22v5Z" transform="translate(-0.94 -0.44)"/><path d="M98.75,112.33H91.38v2.88a12.84,12.84,0,0,1-.8,4.71l-.43-.36a12,12,0,0,0,.73-4.34v-3.36h3.74c-.13-.22-.27-.43-.4-.64l.51-.12a3.25,3.25,0,0,1,.45.76h3.57Zm-5.68,5.38a7.1,7.1,0,0,1-1.17,1.92l-.39-.34a6.07,6.07,0,0,0,1.09-1.79Zm.57-5A7,7,0,0,1,93,114v3.13h-.5v-2.42a7.25,7.25,0,0,1-.62.72l-.33-.39a7.23,7.23,0,0,0,1.62-2.57Zm5,4.39H94.21v-2.5c-.17.21-.4.47-.69.8l-.29-.42a9.34,9.34,0,0,0,1.66-2.44l.44.17a6,6,0,0,1-.36.72h1.51a4.47,4.47,0,0,0-.38-.68l.49-.14a3.81,3.81,0,0,1,.43.82h1.6v.46H96.78v.58h1.7v.46h-1.7v.63h1.7V116h-1.7v.62h1.87Zm-1.3,1.52a2,2,0,0,1-.18.77.69.69,0,0,1-.44.34,6.82,6.82,0,0,1-1.47.09,5.56,5.56,0,0,1-1.05-.06.61.61,0,0,1-.36-.25,1,1,0,0,1-.13-.54V117.5h.51V119c0,.16,0,.25.14.29a5.48,5.48,0,0,0,1,0,7,7,0,0,0,1.11,0,.39.39,0,0,0,.26-.21,1.56,1.56,0,0,0,.09-.65Zm-1.06-4.15v-.58H94.72v.58Zm0,1.09v-.63H94.72v.63Zm0,1.08V116H94.72v.62Zm-.11,1.79-.43.28a6.39,6.39,0,0,0-.87-1l.44-.29A6.52,6.52,0,0,1,96.19,118.4Zm2.71.88-.42.26a9.19,9.19,0,0,0-1.22-1.77l.44-.27A9.27,9.27,0,0,1,98.9,119.28Z" transform="translate(-0.94 -0.44)"/><path d="M68.41,131.15a.58.58,0,0,1-.29.56,3.21,3.21,0,0,1-1.31.17h-.44l-.17-.55.73,0a3,3,0,0,0,.83-.06.19.19,0,0,0,.11-.19v-2.41H65.05v2.93h-.54v-2.93H61.65a6.67,6.67,0,0,1-1,3.15l-.47-.33a6.25,6.25,0,0,0,1-3.6v-4.59h7.24Zm-3.9-5.47v-1.82h-2.8v1.82Zm0,2.49v-1.94h-2.8v1.94Zm3.36-2.49v-1.82H65.05v1.82Zm0,2.49v-1.94H65.05v1.94Z" transform="translate(-0.94 -0.44)"/><path d="M73.57,128.09l-.36.4a6.76,6.76,0,0,0-.86-1.25v4.63h-.53v-4.65a14.45,14.45,0,0,1-1.34,2.47l-.35-.41a14,14,0,0,0,1.67-3.2H70.17v-.5h1.65V124.1l-1.22.23-.26-.5a11,11,0,0,0,2.89-.69l.3.46-1.18.38v1.6h1.18v.5H72.35v.41A9.22,9.22,0,0,1,73.57,128.09Zm5.3,3.54H73.24v-.49H75.8v-1.53H73.59v-.5H75.8v-1.45l-2,.11-.24-.51a22.86,22.86,0,0,0,4.76-.53l.34.45c-.68.15-1.46.29-2.35.42v1.51h2.14v.5H76.34v1.53h2.53Zm-.64-5.48h-4.3v-2.73h4.3Zm-.54-.51v-1.72H74.47v1.72Z" transform="translate(-0.94 -0.44)"/><path d="M88.87,129.72c-.3,1.5-.73,2.25-1.28,2.25a.67.67,0,0,1-.39-.13,2.32,2.32,0,0,1-.54-.61,5.92,5.92,0,0,1-.61-1.21,8.51,8.51,0,0,1-.41-2c-.09-.88-.15-1.75-.19-2.62H80.22v-.54H85.4c0-.74,0-1.32,0-1.72h.53c0,.79,0,1.36,0,1.72h2.91v.54H86q0,1,.24,2.79a5.94,5.94,0,0,0,.72,2.52c.34.51.56.76.68.76s.32-.24.48-.72a6.64,6.64,0,0,0,.29-1.27Zm-3.71.39c-1.61.41-3.13.74-4.56,1l-.12-.52c.54-.09,1.22-.21,2-.37v-2.9H80.76v-.54h4.13v.54H83v2.78c.78-.17,1.49-.34,2.12-.51Zm3.24-5.77-.44.3a5.78,5.78,0,0,0-1.13-1.06l.43-.34A5.17,5.17,0,0,1,88.4,124.34Z" transform="translate(-0.94 -0.44)"/><path d="M52.15,37a13.55,13.55,0,0,1-.61,2.77L51,39.56a10.52,10.52,0,0,0,.63-2.71Zm2-.65H53v4.93h-.52V36.35H51.1v-.52h1.41V32.54H53v3.29h1.14Zm-2-1.36-.49.22a9.59,9.59,0,0,0-.52-1.71l.44-.22A9.41,9.41,0,0,1,52.18,35Zm2.21-1.55a12.42,12.42,0,0,1-.55,1.87l-.49-.22a8.72,8.72,0,0,0,.57-1.84Zm.15,5.39-.48.24a10,10,0,0,0-.63-2l.43-.23A12.46,12.46,0,0,1,54.54,38.83Zm4.77,1.78a.57.57,0,0,1-.24.5,2,2,0,0,1-1,.16,5.15,5.15,0,0,1-.55,0l-.16-.5.87,0a1,1,0,0,0,.44-.06.22.22,0,0,0,.1-.19v-.8H55.33a4.34,4.34,0,0,1-.83,1.57L54.05,41a3.74,3.74,0,0,0,.9-2.71V36.73h4.36Zm.46-4.48H54.53v-.5H56.9v-.69h-2v-.46h2v-.69H54.75v-.48H56.9v-.78h.51v.78h2.17v.48H57.41v.69h1.94v.46H57.41v.69h2.36Zm-1,3.07v-.75H55.46a6.63,6.63,0,0,1,0,.75Zm0-1.26v-.72H55.46v.72Z" transform="translate(-0.94 -0.44)"/><path d="M69.74,41.12H61.06v-.43h4.13V38.83H63.81l-.29.49a11.39,11.39,0,0,1,1.36.69l-.27.39a8.87,8.87,0,0,0-1.41-.74,3.17,3.17,0,0,1-1.25.72L61.63,40a3.09,3.09,0,0,0,1.69-1.21H61.38v-.45h8.07v.45H68.2a2.07,2.07,0,0,1-.27.45,12.83,12.83,0,0,1,1.28.67l-.25.38a10.38,10.38,0,0,0-1.32-.68,3.52,3.52,0,0,1-1.29.75L66.06,40a2.88,2.88,0,0,0,1.66-1.21h-2v1.86h4Zm-.2-5.31h-.48V34.27h-3.4v1.91h-.48V34.27H61.76v1.54h-.49v-2h3.91V33.2H61.6v-.43h7.64v.43H65.66v.64h3.88ZM63.76,38H61.63v-1.5h2.13Zm-.45-.41v-.66H62.08v.66Zm1.42-1.7c-.77.12-1.58.22-2.42.28l-.16-.4a17.57,17.57,0,0,0,2.41-.27Zm0-1-.16.42a17.65,17.65,0,0,0-2.32-.3l.19-.41A17,17,0,0,1,64.73,34.86ZM66.49,38H64.34v-1.5h2.15ZM66,37.55v-.66H64.79v.66Zm2.57-2.65a21.18,21.18,0,0,1-2.32.38l-.17-.41a14.05,14.05,0,0,0,2.26-.34Zm0,1-.17.4a18.1,18.1,0,0,0-2.36-.42l.18-.4C67.3,35.59,68.08,35.73,68.66,35.87ZM69.19,38H67.07v-1.5h2.12Zm-.44-.41v-.66H67.51v.66Z" transform="translate(-0.94 -0.44)"/><path d="M82.77,33.22l-2.14,7.57h-1l-1.57-5.58a3.77,3.77,0,0,1-.13-.76h0a3.68,3.68,0,0,1-.14.75L76.2,40.79h-1L73,33.22h.92l1.64,5.85a3.43,3.43,0,0,1,.12.76h0a5,5,0,0,1,.16-.76l1.69-5.85h.79L80,39.12a5.58,5.58,0,0,1,.13.7h0a3.34,3.34,0,0,1,.14-.72l1.58-5.88Z" transform="translate(-0.94 -0.44)"/><path d="M87.84,38.29H84a2.14,2.14,0,0,0,.49,1.43,1.68,1.68,0,0,0,1.29.49,2.62,2.62,0,0,0,1.68-.61v.79a3.07,3.07,0,0,1-1.87.52,2.24,2.24,0,0,1-1.78-.73,3,3,0,0,1-.66-2.08,3,3,0,0,1,.71-2,2.27,2.27,0,0,1,1.77-.8,2,2,0,0,1,1.62.68,2.9,2.9,0,0,1,.58,1.91ZM87,37.57a1.86,1.86,0,0,0-.37-1.19,1.26,1.26,0,0,0-1-.42,1.45,1.45,0,0,0-1,.43A2,2,0,0,0,84,37.57Z" transform="translate(-0.94 -0.44)"/><path d="M90,40v.8h-.81v-8H90v3.55h0a2,2,0,0,1,1.87-1.08A2,2,0,0,1,93.5,36a2.94,2.94,0,0,1,.6,1.94,3.26,3.26,0,0,1-.67,2.16,2.19,2.19,0,0,1-1.8.82A1.75,1.75,0,0,1,90,40Zm0-1.4a1.58,1.58,0,0,0,.46,1.16,1.57,1.57,0,0,0,2.37-.15,2.82,2.82,0,0,0,.45-1.7,2.2,2.2,0,0,0-.42-1.42A1.42,1.42,0,0,0,91.69,36a1.6,1.6,0,0,0-1.23.53A1.91,1.91,0,0,0,90,37.82Z" transform="translate(-0.94 -0.44)"/><path d="M61.75,45.75H54.38v2.89a12.84,12.84,0,0,1-.8,4.71L53.15,53a12,12,0,0,0,.73-4.34V45.29h3.74c-.13-.22-.27-.43-.4-.64l.51-.13a3.55,3.55,0,0,1,.45.77h3.57Zm-5.68,5.39a7.2,7.2,0,0,1-1.17,1.91l-.39-.33a6.21,6.21,0,0,0,1.09-1.79Zm.57-5A6.69,6.69,0,0,1,56,47.45v3.13h-.5V48.17a7.34,7.34,0,0,1-.62.71l-.33-.39a7.12,7.12,0,0,0,1.62-2.56Zm5,4.39H57.21V48l-.69.8-.29-.42a9.34,9.34,0,0,0,1.66-2.44l.44.17a5.27,5.27,0,0,1-.36.71h1.51a5.1,5.1,0,0,0-.38-.67l.49-.15a4.36,4.36,0,0,1,.43.82h1.6v.47H59.78v.57h1.7v.47h-1.7V49h1.7v.46h-1.7V50h1.87ZM60.35,52a2,2,0,0,1-.18.78.69.69,0,0,1-.44.34,6.82,6.82,0,0,1-1.47.09,5.56,5.56,0,0,1-1-.06.61.61,0,0,1-.36-.25,1,1,0,0,1-.13-.54V50.93h.51V52.4c0,.15,0,.25.14.29a5.48,5.48,0,0,0,1,.05,7,7,0,0,0,1.11-.05.39.39,0,0,0,.26-.21,1.58,1.58,0,0,0,.09-.66Zm-1.06-4.15v-.57H57.72v.57Zm0,1.1v-.63H57.72V49Zm0,1.08v-.62H57.72V50Zm-.11,1.78-.43.29a6,6,0,0,0-.87-1l.44-.3A7,7,0,0,1,59.19,51.82Zm2.71.89-.42.26a9.6,9.6,0,0,0-1.22-1.78l.44-.26A9.27,9.27,0,0,1,61.9,52.71Z" transform="translate(-0.94 -0.44)"/><path d="M71.41,52.58a.59.59,0,0,1-.29.56,3.26,3.26,0,0,1-1.31.16h-.44l-.17-.54.73,0a3,3,0,0,0,.83-.06.2.2,0,0,0,.11-.19V50.11H68.05V53h-.54V50.11H64.65a6.59,6.59,0,0,1-1,3.15l-.47-.32a6.26,6.26,0,0,0,1-3.61V44.74h7.24Zm-3.9-5.47V45.29h-2.8v1.82Zm0,2.49v-2h-2.8v2Zm3.36-2.49V45.29H68.05v1.82Zm0,2.49v-2H68.05v2Z" transform="translate(-0.94 -0.44)"/><path d="M76.57,49.51l-.36.4a7.51,7.51,0,0,0-.86-1.25v4.63h-.53V48.65a14.45,14.45,0,0,1-1.34,2.47l-.35-.41a14,14,0,0,0,1.67-3.2H73.17V47h1.65V45.52l-1.22.23-.26-.49a11,11,0,0,0,2.89-.69l.3.46-1.18.38V47h1.18v.51H75.35v.41A9.24,9.24,0,0,1,76.57,49.51Zm5.3,3.54H76.24v-.48H78.8V51H76.59v-.51H78.8V49.08l-2,.12-.24-.52a22.26,22.26,0,0,0,4.76-.52l.34.45c-.68.15-1.46.29-2.35.42v1.5h2.14V51H79.34v1.53h2.53Zm-.64-5.47h-4.3V44.85h4.3Zm-.54-.51V45.34H77.47v1.73Z" transform="translate(-0.94 -0.44)"/><path d="M91.87,51.15c-.3,1.5-.73,2.25-1.28,2.25a.75.75,0,0,1-.39-.13,2.51,2.51,0,0,1-.54-.61,5.92,5.92,0,0,1-.61-1.21,8.51,8.51,0,0,1-.41-2c-.09-.88-.15-1.76-.19-2.63H83.22v-.53H88.4c0-.74,0-1.32,0-1.73h.53c0,.79,0,1.37,0,1.73h2.91v.53H89c0,.7.1,1.63.24,2.8a6,6,0,0,0,.72,2.52c.34.51.56.76.68.76s.32-.24.48-.72a6.64,6.64,0,0,0,.29-1.27Zm-3.71.39c-1.61.41-3.13.74-4.56,1L83.48,52c.54-.08,1.22-.21,2-.36v-2.9H83.76v-.54h4.13v.54H86v2.78c.78-.17,1.49-.34,2.12-.51Zm3.24-5.78-.44.31A5.78,5.78,0,0,0,89.83,45l.43-.34A5.32,5.32,0,0,1,91.4,45.76Z" transform="translate(-0.94 -0.44)"/><path d="M131,60.32a.61.61,0,0,1-.29.57,3.23,3.23,0,0,1-1.31.16H129l-.16-.55.72,0a3,3,0,0,0,.83-.06.2.2,0,0,0,.12-.19V57.86h-2.83v2.93h-.54V57.86h-2.85a6.78,6.78,0,0,1-1,3.15l-.47-.33a6.27,6.27,0,0,0,1-3.6V52.49H131Zm-3.9-5.47V53h-2.8v1.82Zm0,2.49V55.4h-2.8v1.94Zm3.37-2.49V53h-2.83v1.82Zm0,2.49V55.4h-2.83v1.94Z" transform="translate(-0.94 -0.44)" fill="#00b0f0"/><path d="M141.07,52.82a32.73,32.73,0,0,1-6.43.7v1.32h6.41v3.22h-6.51a5.28,5.28,0,0,1-1.42,3.06l-.38-.45a4,4,0,0,0,1.09-1.79,15,15,0,0,0,.28-3.54V53a31.64,31.64,0,0,0,6.66-.68Zm-.56,4.7V55.37h-5.86c0,.38,0,1.1-.05,2.15Z" transform="translate(-0.94 -0.44)" fill="#00b0f0"/><path d="M145.91,54.37h-.71l.37.34c-.06,1-.24,2.62-.56,4.76.17,0,.42-.13.75-.26l0,.54a25.83,25.83,0,0,1-2.94.86l-.11-.53a4.92,4.92,0,0,0,.78-.18,43.52,43.52,0,0,0-.35-5.22l.39-.31h-.69v-.5h1.3a10.83,10.83,0,0,0-.49-1.4l.47-.17a11.5,11.5,0,0,1,.53,1.57h1.24Zm-.83,0h-1.43a50.2,50.2,0,0,1,.37,5.4l.44-.13A42.89,42.89,0,0,0,145.08,54.37Zm6.4,1.65h-2.63c-.13.37-.26.74-.41,1.11h2.66v3.24c0,.46-.28.68-.85.68H150l-.13-.5.35,0q.39,0,.39-.33V57.62h-.95V60.7h-.5V57.62h-1V60.7h-.49V57.62h-1v3.45h-.49V57.13h1.65A8.16,8.16,0,0,0,148.3,56h-2.45v-.48h5.63ZM151,54.54h-4.55V52.78h.51v1.28h1.46V52.34h.5v1.72h1.56V52.78H151Z" transform="translate(-0.94 -0.44)" fill="#00b0f0"/><path d="M155.88,53.81h-3.09V53.3h1.34a6.05,6.05,0,0,0-.4-.92l.45-.17a5.78,5.78,0,0,1,.48,1.09h1.22Zm-.19,1.45H153v-.5h2.68Zm0,1.42H153v-.5h2.68Zm-.19,4.09H155v-.54h-1.32V61h-.5V57.65h2.32Zm-.5-1V58.16h-1.32v1.57Zm2-1.94a10,10,0,0,1-.77,2.43l-.46-.2a9.4,9.4,0,0,0,.73-2.35Zm4.13-5.27c0,.74-.07,1.45-.13,2.15a9.47,9.47,0,0,1-.15,1.23.89.89,0,0,1-.23.35,1.06,1.06,0,0,1-.45.23,3.6,3.6,0,0,1-1,0L159,56l.69,0a.68.68,0,0,0,.66-.29,11.55,11.55,0,0,0,.25-2.7h-1.35a3.91,3.91,0,0,1-2.85,3.87l-.3-.41a4.25,4.25,0,0,0,1.84-1.16,6.13,6.13,0,0,0-1.25-1.07l.33-.35a6.63,6.63,0,0,1,1.21,1,4.31,4.31,0,0,0,.5-1.88h-2.48v-.51Zm-1,6.54a4.52,4.52,0,0,1-.2,1.36.7.7,0,0,1-.36.39,3,3,0,0,1-.93.09,1.64,1.64,0,0,1-.9-.18.79.79,0,0,1-.24-.67V57.66h.5V60.1a.26.26,0,0,0,.13.23,1.67,1.67,0,0,0,.73.09c.31,0,.5-.06.59-.18a4.19,4.19,0,0,0,.21-1.31Zm-.62-1.13-.36.35A8.31,8.31,0,0,0,158,56.93l.33-.36A6.77,6.77,0,0,1,159.5,57.93Zm2,2-.48.22a11.15,11.15,0,0,0-.76-2.32l.43-.19A12.07,12.07,0,0,1,161.48,59.88Z" transform="translate(-0.94 -0.44)" fill="#00b0f0"/><path d="M165.8,53.79h-3v-.47h1.42a6,6,0,0,0-.37-.92l.43-.17a8.8,8.8,0,0,1,.42,1.09h1.12Zm-.24,1.41H163v-.47h2.53Zm0,1.54H163v-.49h2.53Zm-.05,4.07H165v-.59h-1.42V61h-.51V57.69h2.44ZM165,59.73V58.2h-1.42v1.53ZM168.43,53a5,5,0,0,1-.55,1.24,7.4,7.4,0,0,1-1.72,2.1l-.38-.33A9,9,0,0,0,167,54.72a6.54,6.54,0,0,0-.88-.75l.33-.32a9.37,9.37,0,0,1,.83.66,6.18,6.18,0,0,0,.63-1.31h-1.79v-.46h2.29Zm2.93,7.81h-5.47v-.47h1.61a12.13,12.13,0,0,0-.48-1.45l.36-.32h-.81V56.49h4v2.08h-.7l.37.32a12.3,12.3,0,0,1-.54,1.45h1.68ZM170,58.09V57h-2.94v1.12Zm-.23-2.33h-2.44V55.3h2.44Zm-.06,2.81h-2.31a15,15,0,0,1,.6,1.77h1.13A9.36,9.36,0,0,0,169.74,58.57Zm1.75-2.66-.33.41a6.53,6.53,0,0,1-2.43-3.75l.43-.27c.12.41.21.72.29.93a5,5,0,0,0,.84-.78l.33.31a7.61,7.61,0,0,1-1,.92,5.5,5.5,0,0,0,.34.63,5.26,5.26,0,0,0,.91-.92l.35.28a5.7,5.7,0,0,1-1,1A5.89,5.89,0,0,0,171.49,55.91Z" transform="translate(-0.94 -0.44)" fill="#00b0f0"/><path d="M174.71,57.83a17.91,17.91,0,0,1-1.53,3.25l-.44-.36a15.3,15.3,0,0,0,1.49-3.17Zm0-1.52-.37.39a9.29,9.29,0,0,0-1.57-1.32l.32-.41A10.88,10.88,0,0,1,174.69,56.31Zm.18-2.68-.35.42A9.92,9.92,0,0,0,173,52.67l.35-.41A13.56,13.56,0,0,1,174.87,53.63Zm1.53,3.21a8.68,8.68,0,0,1-.3,2.65,3.27,3.27,0,0,1-1.27,1.56l-.41-.39a2.85,2.85,0,0,0,1-1.07,5.51,5.51,0,0,0,.43-2.75Zm5.11-.41-.44.34a8.35,8.35,0,0,0-.6-.81c-2,.23-3.67.4-5.12.5l-.13-.52a5.39,5.39,0,0,0,2-2.1h-2.09v-.52h2.39c.13-.24.28-.6.47-1.07l.54.14c-.06.17-.2.48-.41.93h3.21v.52h-3.48a6.42,6.42,0,0,1-1.67,2c1.28-.08,2.57-.19,3.87-.35a8.05,8.05,0,0,0-.89-.86l.41-.35A12.16,12.16,0,0,1,181.51,56.43Zm-3.42,4.62h-.52V56.84h.52Zm3.38-.12h-1.33c-.5,0-.75-.23-.75-.71V56.84h.51v3.31q0,.27.3.27h1.27Z" transform="translate(-0.94 -0.44)" fill="#00b0f0"/><path d="M186.18,57.26l-.36.4a7.12,7.12,0,0,0-.86-1.25V61h-.52V56.39a13.39,13.39,0,0,1-1.35,2.47l-.35-.41a13.76,13.76,0,0,0,1.67-3.2h-1.62v-.5h1.65V53.27l-1.22.23L183,53a10.22,10.22,0,0,0,2.89-.69l.31.46c-.49.17-.89.3-1.19.38v1.6h1.19v.5H185v.41A8.73,8.73,0,0,1,186.18,57.26Zm5.3,3.54h-5.63v-.49h2.57V58.78H186.2v-.5h2.22V56.83c-1.07.07-1.73.11-2,.11l-.24-.51A22.13,22.13,0,0,0,191,55.9l.34.45a23.69,23.69,0,0,1-2.35.42v1.51h2.15v.5H189v1.53h2.53Zm-.64-5.48h-4.29V52.59h4.29Zm-.53-.51V53.09h-3.23v1.72Z" transform="translate(-0.94 -0.44)" fill="#00b0f0"/></svg>