<?xml version="1.0" encoding="utf-8"?>
<!-- Generator: Adobe Illustrator 23.0.3, SVG Export Plug-In . SVG Version: 6.00 Build 0)  -->
<svg version="1.1" xmlns="http://www.w3.org/2000/svg" xmlns:xlink="http://www.w3.org/1999/xlink" x="0px" y="0px"
	 viewBox="0 0 266.8 200.3" style="enable-background:new 0 0 266.8 200.3;" xml:space="preserve">
<style type="text/css">
	.st0{fill-rule:evenodd;clip-rule:evenodd;fill:#008BFD;}
	.st1{fill-rule:evenodd;clip-rule:evenodd;fill:#0078D7;}
	.st2{fill-rule:evenodd;clip-rule:evenodd;fill:#808080;}
	.st3{fill-rule:evenodd;clip-rule:evenodd;fill:#505050;}
	.st4{fill:none;}
	.st5{enable-background:new    ;}
	.st6{fill:#00B0F0;}
	.st7{fill:#505050;}
	.st8{display:none;}
	.st9{display:inline;}
</style>
<g id="Shapes" xmlns:ev="http://www.w3.org/2001/xml-events" xmlns:v="http://schemas.microsoft.com/visio/2003/SVGExtensions/">
	<g id="group1278-2">
		<g id="shape1279-3">
			<path class="st0" d="M79.6,24.4c-2.2,1.7-4.8,2.5-7.3,2.5c-3.6,0-7.2-1.7-9.6-4.8c-4-5.4-3-13.1,2.2-17.3
				c2.2-1.7,4.8-2.5,7.3-2.5c3.6,0,7.2,1.7,9.6,4.8C85.9,12.5,84.9,20.3,79.6,24.4z M83.2,6c-2.7-3.6-6.8-5.6-11-5.6
				c-2.9,0-5.9,1-8.4,2.9c-6,4.8-7.2,13.7-2.5,19.9c2.7,3.6,6.8,5.6,11,5.6c2.9,0,5.9-0.9,8.4-2.9C86.7,21.1,87.9,12.2,83.2,6z"/>
		</g>
	</g>
	<g id="group1280-5" transform="translate(4.95554,-4.39536)">
		<g id="group1281-6" transform="translate(0.341805,-0.176482)">
			<g id="group1282-7" transform="translate(0.437248,3.12639E-13)">
				<g id="shape1283-8">
					<path class="st0" d="M60.3,21.8c-0.8-0.8-1.4-1.6-2-2.4c-1.2,2.4-1.6,4.9-1.7,6.9c0.1,0.2,0.1,0.3,0.2,0.4
						c0.6,0.8,1.3,1.5,2,2.1C58.8,27.2,59,24.5,60.3,21.8z"/>
				</g>
			</g>
			<g id="shape1284-10" transform="translate(3.29213,-8.97695)">
				<path class="st0" d="M61.6,21.3c-1.1,0.8-2.2,1.7-3.3,3c-0.6,0.7-1.2,1.4-1.6,2.1c0.5,0.8,1.1,1.6,1.9,2.5
					c0.6-0.9,1.3-1.7,2.2-2.6c1.1-1.1,2.2-1.9,3.1-2.6C63.1,22.9,62.3,22.1,61.6,21.3z"/>
			</g>
			<g id="group1285-12" transform="translate(9.93516,-15.1958)">
				<g id="shape1286-13">
					<path class="st0" d="M66.5,26.7c-0.5-0.7-1.1-1.3-1.7-1.8c-1.9-0.3-4.7-0.3-8,1.5c0.8,0.8,1.5,1.6,2.2,2.4
						C63.3,26.4,66.5,26.7,66.5,26.7z"/>
				</g>
			</g>
			<g id="group1287-15" transform="translate(1.10162E-13,-9.38012)">
				<g id="shape1288-16">
					<path class="st0" d="M58.8,28.8c0.3-0.7,0.7-1.4,1.2-2.1c-1.9-3.1-1.8-5.6-1.6-6.8c-0.5,0.5-0.9,1-1.3,1.6
						C56.7,23.1,56.7,25.7,58.8,28.8z"/>
				</g>
			</g>
			<g id="group1289-18" transform="translate(4.05148,-0.740211)">
				<g id="shape1290-19">
					<path class="st0" d="M60.1,22.7c-0.9-0.7-1.6-1.4-2.3-2.1c-0.5,0.7-0.8,1.3-1.1,1.9c0.6,0.6,1.3,1.3,2.1,1.9
						c4.9,4,9.8,4.4,12.6,4.4c0.2,0,1-1.2,1.5-1.9C71.7,27.1,66.4,27.8,60.1,22.7z"/>
				</g>
			</g>
			<g id="group1291-21" transform="translate(2.10339,-7.03041)">
				<g id="shape1292-22">
					<path class="st0" d="M56.7,26.4c0.5,0.8,1.2,1.5,2,2.4c0.3-0.6,0.7-1.3,1.1-1.9c-0.8-0.9-1.4-1.7-1.9-2.5
						C57.4,25.1,57,25.8,56.7,26.4z"/>
				</g>
			</g>
			<g id="group1293-24" transform="translate(10.5195,-5.3233)">
				<g id="shape1294-25">
					<path class="st0" d="M56.7,20c4.5,4.3,9.8,7.9,11.1,8.8c0.1-0.4,0.2-0.7,0.3-1.1c-1.4-1.1-5.3-4.2-9.8-8.8
						C57.8,19.2,57.3,19.6,56.7,20z"/>
				</g>
			</g>
			<g id="group1295-27" transform="translate(4.98729,-16.4714)">
				<g id="shape1296-28">
					<path class="st0" d="M61.6,27.7c-1.1-1.2-2.2-2.4-3.4-3.8c-0.5,0.2-1.1,0.4-1.6,0.7c0.8,1.4,2,2.8,3.2,4.2
						C60.5,28.4,61.1,28,61.6,27.7z"/>
				</g>
			</g>
			<g id="shape1297-30" transform="translate(8.13763,-14.0503)">
				<path class="st0" d="M58.6,25.2c-0.6,0.3-1.3,0.8-1.9,1.2c0.7,0.8,1.5,1.6,2.3,2.4c0.6-0.4,1.3-0.9,1.9-1.2
					C60.1,26.9,59.3,26.1,58.6,25.2z"/>
			</g>
			<g id="shape1298-32" transform="translate(8.1369,-14.0039)">
				<path class="st0" d="M58.4,25.1c-0.6,0.3-1.1,0.7-1.7,1.1c0.7,0.8,1.7,1.8,2.5,2.6c0.6-0.4,1-0.8,1.6-1.1
					C60.1,26.9,59.1,25.9,58.4,25.1z"/>
			</g>
		</g>
		<g id="group1299-34" transform="translate(14.8617,-6.23662)">
			<g id="shape1300-35">
				<path class="st0" d="M58,23.7c-1.1,0.9-1.3,2.6-0.5,3.7c0.9,1.2,2.5,1.4,3.6,0.5c1.1-0.9,1.3-2.6,0.5-3.7
					C60.8,23,59.2,22.8,58,23.7z"/>
			</g>
		</g>
		<g id="group1301-37" transform="translate(9.65099,-2.27374E-13)">
			<g id="shape1302-38">
				<path class="st0" d="M57.9,24.1c-1,0.8-1.2,2.4-0.5,3.4c0.8,1.1,2.3,1.3,3.4,0.4c1-0.8,1.2-2.4,0.4-3.4
					C60.5,23.5,59,23.3,57.9,24.1z"/>
			</g>
		</g>
		<g id="group1303-40" transform="translate(0,-5.36433)">
			<g id="shape1304-41">
				<path class="st0" d="M58.6,21.6c-1.6,1.3-1.9,3.6-0.7,5.2c1.2,1.6,3.5,1.9,5.1,0.7c1.6-1.3,1.9-3.6,0.7-5.2
					C62.5,20.7,60.2,20.4,58.6,21.6z"/>
			</g>
		</g>
	</g>
	<path class="st0" d="M254.7,79h-20.5c-0.6,0-1.1,0.5-1.1,1.1v16.8c0,0.6,0.5,1.1,1.1,1.1h5.3c0.4,1.3,1.7,2.3,3.2,2.3
		c1.8,0,3.3-1.5,3.3-3.4s-1.5-3.4-3.3-3.4c-1.5,0-2.8,0.9-3.2,2.3h-4.2v-12h18.3v12h-3.5c-0.5-3.7-3.7-6.6-7.5-6.6
		c-1.3,0-2.6,0.4-3.6,0.9l1,2c0.7-0.4,1.7-0.7,2.6-0.7c2.9,0,5.4,2.5,5.4,5.5c0,3-2.4,5.4-5.4,5.4c-0.9,0-1.8-0.2-2.6-0.7l-1,2
		c1.1,0.6,2.4,0.9,3.6,0.9c3.8,0,7-2.9,7.5-6.6h4.6c0.6,0,1.1-0.5,1.1-1.1V80.1C255.7,79.6,255.3,79,254.7,79z"/>
	<g id="shape1318-51">
		<path class="st1" d="M72.6,106H58.4V77.6h14.2v7.7h0.8v-8.4H57.6v29.9h15.7v-2.3h-0.8V106z"/>
	</g>
	<g id="shape1319-53" transform="translate(1.5606,-23.7593)">
		<path class="st1" d="M70.3,102.1H57.6v4.6h12.6V102.1z M60.7,104.1h6.5v0.8h-6.5V104.1z M67.3,105.9L67.3,105.9h-6.5h-0.1v-0.8
			h0.1h6.4h0.1V105.9z"/>
	</g>
	<g id="shape1320-55" transform="translate(1.52875,-19.9374)">
		<path class="st1" d="M57.6,103.7v3.1h8.6v-1.5h4.1v-1.5H57.6z"/>
	</g>
	<g id="shape1321-57" transform="translate(1.52875,-16.4978)">
		<rect x="57.6" y="104.1" class="st1" width="8.6" height="2.7"/>
	</g>
	<g id="shape1322-59" transform="translate(1.4969,-1.52875)">
		<path class="st1" d="M57.7,106.7h12.6v-0.8h-4.1V92.6h-8.6L57.7,106.7L57.7,106.7z M59.2,104h2.3v1.2h-2.3V104z"/>
	</g>
	<g id="shape1323-61" transform="translate(16.02,-3.43969)">
		<path class="st1" d="M66.4,105.6h-2.5v-1.9h-2.5v1.9h-2.5c-0.7,0-1.3,0.6-1.3,1.2h10C67.7,106.2,67,105.6,66.4,105.6z"/>
	</g>
	<g id="shape1324-63" transform="translate(11.816,-7.22971)">
		<path class="st1" d="M75.4,95.4H58.3c-0.3,0-0.7,0.3-0.7,0.6v10.1c0,0.3,0.3,0.6,0.7,0.6h17.1c0.3,0,0.7-0.3,0.7-0.6V96
			C76.1,95.7,75.8,95.4,75.4,95.4z M74.4,105.2H59.3v-8.3h15.1V105.2z"/>
	</g>
	<g id="shape1325-65" transform="translate(17.931,-9.36359)">
		<path class="st1" d="M64.6,104.9v-3.4l-3.5-1.8l-3.5,1.8v3.5l3.5,1.8L64.6,104.9z M60.2,102.6l0.9-0.4l0.9,0.4l-0.9,0.5
			L60.2,102.6z M60.3,101.4l0.9-0.4l0.9,0.4l-0.9,0.5L60.3,101.4z M62.2,106l-1,0.5v-0.9l1-0.5V106z M62.2,104.8l-1,0.5v-0.9l1-0.5
			V104.8z M62.2,103.7l-1,0.5v-0.9l1-0.5V103.7z M61.4,102l0.9-0.4l0.9,0.4l-0.9,0.4L61.4,102z M63.4,105.4l-1,0.5V105l1-0.5V105.4z
			 M63.4,104.2l-1,0.5v-0.9l1-0.5V104.2z M63.4,103l-1,0.5v-0.9l1-0.5V103z M64.4,104.8l-0.9,0.4v-0.9l0.9-0.5V104.8z M64.4,103.6
			l-0.9,0.4v-0.9l0.9-0.4V103.6z M64.4,102.5l-0.9,0.4V102l0.9-0.4V102.5z M64.2,101.4l-0.9,0.5l-0.9-0.5l0.9-0.4L64.2,101.4z
			 M63.1,100.9l-0.9,0.4l-0.9-0.4l0.9-0.4L63.1,100.9z M61.1,99.8l0.9,0.4l-0.9,0.4l-0.9-0.4L61.1,99.8z M60,100.4l0.9,0.4l-0.9,0.4
			l-0.9-0.4L60,100.4z M58.9,101l0.9,0.4l-0.9,0.5l-0.9-0.5L58.9,101z M58.7,105.3l-0.9-0.4v-0.9l0.9,0.4V105.3z M58.7,104.1
			l-0.9-0.4v-0.9l0.9,0.4V104.1z M58.7,102.9l-0.9-0.4v-0.9l0.9,0.4V102.9z M59.9,105.9l-1-0.5v-0.9l1,0.5V105.9z M59.9,104.7
			l-1-0.5v-0.9l1,0.5V104.7z M59.9,103.6l-1-0.5v-0.9l1,0.5V103.6z M59.2,102l0.9-0.4l0.9,0.4l-0.9,0.5L59.2,102z M61,106.5l-1-0.5
			v-0.9l1,0.5V106.5z M61,105.3l-1-0.5v-0.9l1,0.5V105.3z M61,104.2l-1-0.5v-0.9l1,0.5V104.2z"/>
	</g>
	<g id="shape1338-71" transform="translate(-9.29257E-14,-5.02924)">
		<path class="st2" d="M16.3,21.5H9.6c-0.3,0-0.6-0.3-0.6-0.6v-6.4h1.9v-1.8h12.4c0.3,0,0.6,0.3,0.6,0.6v0.1c0.3,0.1,0.6,0.2,1,0.3
			v-0.4c0-0.8-0.7-1.5-1.6-1.5h-13L8,14v6.9c0,0.8,0.7,1.5,1.6,1.5h7.3C16.7,22.1,16.5,21.8,16.3,21.5z"/>
	</g>
	<g id="group1339-73" transform="translate(8.44762,0)">
		<g id="group1340-74" transform="translate(0.737786,0)">
			<g id="shape1341-75">
				<path class="st2" d="M15.5,18l2.3,3.3l-2.2-0.5l-0.6,1.6l-2.3-2.9L11,22.4l-0.8-1.7L8,21.2l2.1-3.4c0,0,0.6,0.9,2.7,0.9
					C14.9,18.7,15.5,18,15.5,18z"/>
			</g>
		</g>
		<g id="group1342-77" transform="translate(1.9839,-4.95422)">
			<g id="shape1343-78">
				<path class="st2" d="M11.7,22.4c-2,0-3.7-1.5-3.7-3.4c0-1.9,1.7-3.4,3.7-3.4c2.1,0,3.7,1.5,3.7,3.4
					C15.4,20.9,13.8,22.4,11.7,22.4z M11.7,16.3c-1.6,0-2.9,1.2-2.9,2.6s1.3,2.6,2.9,2.6c1.6,0,2.9-1.2,2.9-2.6S13.3,16.3,11.7,16.3
					z"/>
			</g>
		</g>
		<g id="group1344-80" transform="translate(0,-3.14179)">
			<g id="shape1345-81">
				<path class="st2" d="M13.7,22.4c-3.1,0-5.7-2.3-5.7-5.2c0-2.9,2.6-5.2,5.7-5.2s5.7,2.3,5.7,5.2C19.4,20.1,16.9,22.4,13.7,22.4z
					 M13.7,12.7c-2.7,0-4.9,2-4.9,4.5c0,2.5,2.2,4.5,4.9,4.5s4.9-2,4.9-4.5C18.6,14.7,16.4,12.7,13.7,12.7z"/>
			</g>
		</g>
	</g>
	<path class="st0" d="M83,154.8H62.5c-0.6,0-1.1,0.5-1.1,1.1v16.8c0,0.6,0.5,1.1,1.1,1.1h5.3c0.4,1.3,1.7,2.3,3.2,2.3
		c1.8,0,3.3-1.5,3.3-3.4s-1.5-3.4-3.3-3.4c-1.5,0-2.8,0.9-3.2,2.3h-4.2v-12h18.3v12h-3.4c-0.5-3.7-3.7-6.6-7.5-6.6
		c-1.3,0-2.6,0.4-3.6,0.9l1,2c0.7-0.4,1.7-0.7,2.5-0.7c2.9,0,5.4,2.5,5.4,5.5c0,3-2.4,5.4-5.4,5.4c-0.9,0-1.8-0.2-2.5-0.7l-1,2
		c1.1,0.6,2.4,0.9,3.6,0.9c3.8,0,7-2.9,7.5-6.6H83c0.6,0,1.1-0.5,1.1-1.1v-16.8C84.1,155.3,83.6,154.8,83,154.8z"/>
	<g id="shape1386-100" transform="translate(-9.29257E-14,-5.02924)">
		<path class="st2" d="M16.3,98.7H9.6c-0.3,0-0.6-0.3-0.6-0.6v-6.4h1.9v-1.8h12.4c0.3,0,0.6,0.3,0.6,0.6v0.1c0.3,0.1,0.6,0.2,1,0.3
			v-0.4c0-0.8-0.7-1.5-1.6-1.5h-13L8,91.2v6.9c0,0.8,0.7,1.5,1.6,1.5h7.3C16.7,99.3,16.5,99,16.3,98.7z"/>
	</g>
	<g id="group1387-102" transform="translate(8.44762,0)">
		<g id="group1388-103" transform="translate(0.737786,0)">
			<g id="shape1389-104">
				<path class="st2" d="M15.5,95.2l2.3,3.3l-2.2-0.5l-0.6,1.6l-2.3-2.9L11,99.6l-0.8-1.7L8,98.4l2.1-3.4c0,0,0.6,0.9,2.7,0.9
					C14.9,95.9,15.5,95.2,15.5,95.2z"/>
			</g>
		</g>
		<g id="group1390-106" transform="translate(1.9839,-4.95422)">
			<g id="shape1391-107">
				<path class="st2" d="M11.7,99.6c-2,0-3.7-1.5-3.7-3.4c0-1.9,1.7-3.4,3.7-3.4c2.1,0,3.7,1.5,3.7,3.4
					C15.4,98.1,13.8,99.6,11.7,99.6z M11.7,93.5c-1.6,0-2.9,1.2-2.9,2.6s1.3,2.6,2.9,2.6c1.6,0,2.9-1.2,2.9-2.6S13.3,93.5,11.7,93.5
					z"/>
			</g>
		</g>
		<g id="group1392-109" transform="translate(0,-3.14179)">
			<g id="shape1393-110">
				<path class="st2" d="M13.7,99.6c-3.1,0-5.7-2.3-5.7-5.2c0-2.9,2.6-5.2,5.7-5.2s5.7,2.3,5.7,5.2C19.4,97.2,16.9,99.6,13.7,99.6z
					 M13.7,89.9c-2.7,0-4.9,2-4.9,4.5c0,2.5,2.2,4.5,4.9,4.5s4.9-2,4.9-4.5C18.6,91.9,16.4,89.9,13.7,89.9z"/>
			</g>
		</g>
	</g>
	<g id="shape1417-115" transform="translate(-9.29257E-14,-5.02924)">
		<path class="st2" d="M16.3,169.5H9.6c-0.3,0-0.6-0.3-0.6-0.6v-6.4h1.9v-1.8h12.4c0.3,0,0.6,0.3,0.6,0.6v0.1c0.3,0.1,0.6,0.2,1,0.3
			v-0.4c0-0.8-0.7-1.5-1.6-1.5h-13L8,162v6.9c0,0.8,0.7,1.5,1.6,1.5h7.3C16.7,170.1,16.5,169.8,16.3,169.5z"/>
	</g>
	<g id="group1418-117" transform="translate(8.44762,0)">
		<g id="group1419-118" transform="translate(0.737786,0)">
			<g id="shape1420-119">
				<path class="st2" d="M15.5,166l2.3,3.3l-2.2-0.5l-0.6,1.6l-2.3-2.9l-1.8,2.9l-0.8-1.7L8,169.2l2.1-3.4c0,0,0.6,0.9,2.7,0.9
					C14.9,166.7,15.5,166,15.5,166z"/>
			</g>
		</g>
		<g id="group1421-121" transform="translate(1.9839,-4.95422)">
			<g id="shape1422-122">
				<path class="st2" d="M11.7,170.4c-2,0-3.7-1.5-3.7-3.4c0-1.9,1.7-3.4,3.7-3.4c2.1,0,3.7,1.5,3.7,3.4
					C15.4,168.8,13.8,170.4,11.7,170.4z M11.7,164.3c-1.6,0-2.9,1.2-2.9,2.6s1.3,2.6,2.9,2.6c1.6,0,2.9-1.2,2.9-2.6
					S13.3,164.3,11.7,164.3z"/>
			</g>
		</g>
		<g id="group1423-124" transform="translate(0,-3.14179)">
			<g id="shape1424-125">
				<path class="st2" d="M13.7,170.4c-3.1,0-5.7-2.3-5.7-5.2c0-2.9,2.6-5.2,5.7-5.2s5.7,2.3,5.7,5.2C19.4,168,16.9,170.4,13.7,170.4
					z M13.7,160.7c-2.7,0-4.9,2-4.9,4.5c0,2.5,2.2,4.5,4.9,4.5s4.9-2,4.9-4.5C18.6,162.7,16.4,160.7,13.7,160.7z"/>
			</g>
		</g>
	</g>
	<rect x="151" y="63" class="st4" width="80.5" height="20"/>
</g>
<g id="Txt" xmlns:ev="http://www.w3.org/2001/xml-events" xmlns:v="http://schemas.microsoft.com/visio/2003/SVGExtensions/">
	<g class="st5">
		<path d="M64.1,38c-0.1,1-0.3,1.9-0.6,2.8l-0.5-0.2c0.3-0.7,0.5-1.6,0.6-2.7L64.1,38z M66.1,37.3h-1.1v4.9h-0.5v-4.9H63v-0.5h1.4
			v-3.3h0.5v3.3h1.1V37.3z M64.1,36l-0.5,0.2c-0.1-0.5-0.3-1.1-0.5-1.7l0.4-0.2C63.7,34.7,63.9,35.3,64.1,36z M66.3,34.4
			c-0.1,0.5-0.3,1.1-0.5,1.9l-0.5-0.2c0.2-0.5,0.4-1.1,0.6-1.8L66.3,34.4z M66.5,39.8L66,40.1c-0.1-0.6-0.3-1.3-0.6-1.9l0.4-0.2
			C66.1,38.5,66.3,39.2,66.5,39.8z M71.2,41.6c0,0.2-0.1,0.4-0.2,0.5s-0.5,0.2-1,0.2c-0.2,0-0.4,0-0.5,0l-0.2-0.5c0.2,0,0.5,0,0.9,0
			c0.2,0,0.4,0,0.4-0.1s0.1-0.1,0.1-0.2v-0.8h-3.5c-0.2,0.6-0.5,1.2-0.8,1.6L66,42c0.6-0.6,0.9-1.5,0.9-2.7v-1.5h4.4V41.6z
			 M71.7,37.1h-5.2v-0.5h2.4v-0.7h-2v-0.5h2v-0.7h-2.1v-0.5h2.1v-0.8h0.5v0.8h2.2v0.5h-2.2v0.7h1.9v0.5h-1.9v0.7h2.4V37.1z
			 M70.7,40.2v-0.8h-3.3c0,0.2,0,0.5,0,0.8H70.7z M70.7,38.9v-0.7h-3.3v0.7H70.7z"/>
		<path d="M81.7,42.1H73v-0.4h4.1v-1.9h-1.4c-0.1,0.1-0.2,0.3-0.3,0.5c0.5,0.2,1,0.5,1.4,0.7l-0.3,0.4c-0.3-0.2-0.8-0.5-1.4-0.7
			c-0.3,0.3-0.7,0.5-1.3,0.7L73.5,41c0.8-0.3,1.3-0.7,1.7-1.2h-1.9v-0.4h8.1v0.4h-1.3C80,40,80,40.1,79.8,40.3
			c0.5,0.3,1,0.5,1.3,0.7l-0.3,0.4c-0.4-0.3-0.9-0.5-1.3-0.7c-0.4,0.3-0.8,0.6-1.3,0.7L78,41c0.7-0.2,1.3-0.6,1.7-1.2h-2v1.9h4V42.1
			z M81.5,36.8H81v-1.5h-3.4v1.9h-0.5v-1.9h-3.4v1.5h-0.5v-2h3.9v-0.6h-3.6v-0.4h7.6v0.4h-3.6v0.6h3.9V36.8z M75.7,39h-2.1v-1.5h2.1
			V39z M75.2,38.6v-0.7H74v0.7H75.2z M76.6,36.9c-0.8,0.1-1.6,0.2-2.4,0.3l-0.2-0.4c0.9,0,1.7-0.1,2.4-0.3L76.6,36.9z M76.6,35.9
			l-0.2,0.4C75.8,36.1,75,36,74.2,36l0.2-0.4C75,35.6,75.8,35.7,76.6,35.9z M78.4,39h-2.2v-1.5h2.2V39z M78,38.6v-0.7h-1.3v0.7H78z
			 M80.5,35.9c-0.6,0.1-1.4,0.3-2.3,0.4L78,35.9c0.7,0,1.5-0.2,2.3-0.3L80.5,35.9z M80.6,36.9l-0.2,0.4c-0.8-0.2-1.6-0.3-2.4-0.4
			l0.2-0.4C79.2,36.6,80,36.7,80.6,36.9z M81.1,39H79v-1.5h2.1V39z M80.7,38.6v-0.7h-1.2v0.7H80.7z"/>
		<path d="M50.1,46.2l-2.1,7.6h-1l-1.6-5.6c-0.1-0.2-0.1-0.5-0.1-0.8h0c0,0.3-0.1,0.5-0.1,0.8l-1.6,5.6h-1l-2.2-7.6h0.9l1.6,5.8
			c0.1,0.3,0.1,0.5,0.1,0.8h0c0-0.2,0.1-0.4,0.2-0.8l1.7-5.8h0.8l1.6,5.9c0.1,0.2,0.1,0.4,0.1,0.7h0c0-0.2,0.1-0.4,0.1-0.7l1.6-5.9
			H50.1z"/>
		<path d="M55.1,51.3h-3.8c0,0.6,0.2,1.1,0.5,1.4s0.7,0.5,1.3,0.5c0.6,0,1.2-0.2,1.7-0.6v0.8c-0.5,0.4-1.1,0.5-1.9,0.5
			c-0.8,0-1.3-0.2-1.8-0.7s-0.7-1.2-0.7-2.1c0-0.8,0.2-1.5,0.7-2s1.1-0.8,1.8-0.8c0.7,0,1.2,0.2,1.6,0.7s0.6,1.1,0.6,1.9V51.3z
			 M54.3,50.6c0-0.5-0.1-0.9-0.4-1.2c-0.2-0.3-0.6-0.4-1-0.4c-0.4,0-0.7,0.1-1,0.4s-0.5,0.7-0.6,1.2H54.3z"/>
		<path d="M57.3,53v0.8h-0.8v-8h0.8v3.5h0c0.4-0.7,1-1.1,1.9-1.1c0.7,0,1.2,0.2,1.6,0.7s0.6,1.1,0.6,1.9c0,0.9-0.2,1.6-0.7,2.2
			c-0.4,0.5-1,0.8-1.8,0.8C58.2,53.9,57.7,53.6,57.3,53L57.3,53z M57.3,51.6c0,0.5,0.2,0.8,0.5,1.2s0.7,0.5,1.1,0.5
			c0.5,0,0.9-0.2,1.3-0.6s0.5-1,0.5-1.7c0-0.6-0.1-1.1-0.4-1.4C59.9,49.1,59.5,49,59,49c-0.5,0-0.9,0.2-1.2,0.5
			c-0.3,0.4-0.5,0.8-0.5,1.3V51.6z"/>
		<path d="M73.7,46.8h-7.4v2.9c0,1.8-0.3,3.4-0.8,4.7L65.1,54c0.5-1.3,0.7-2.7,0.7-4.3v-3.4h3.7c-0.1-0.2-0.3-0.4-0.4-0.6l0.5-0.1
			c0.2,0.2,0.3,0.5,0.4,0.8h3.6V46.8z M68,52.1c-0.3,0.7-0.7,1.4-1.2,1.9l-0.4-0.3c0.4-0.5,0.8-1.1,1.1-1.8L68,52.1z M68.6,47.1
			c-0.1,0.4-0.3,0.8-0.6,1.3v3.1h-0.5v-2.4c-0.1,0.2-0.3,0.4-0.6,0.7l-0.3-0.4c0.8-0.8,1.3-1.7,1.6-2.6L68.6,47.1z M73.6,51.5h-4.4
			V49c-0.2,0.2-0.4,0.5-0.7,0.8l-0.3-0.4c0.8-0.9,1.3-1.7,1.7-2.4l0.4,0.2c-0.1,0.2-0.2,0.5-0.4,0.7h1.5c0-0.1-0.2-0.4-0.4-0.7
			l0.5-0.1c0.1,0.2,0.3,0.5,0.4,0.8h1.6v0.5h-1.8v0.6h1.7v0.5h-1.7V50h1.7v0.5h-1.7V51h1.9V51.5z M72.3,53c0,0.3-0.1,0.6-0.2,0.8
			s-0.2,0.3-0.4,0.3s-0.7,0.1-1.5,0.1c-0.5,0-0.9,0-1-0.1s-0.3-0.1-0.4-0.2c-0.1-0.1-0.1-0.3-0.1-0.5v-1.4h0.5v1.5
			c0,0.2,0,0.3,0.1,0.3s0.4,0.1,1,0.1c0.6,0,1,0,1.1,0c0.1,0,0.2-0.1,0.3-0.2c0.1-0.1,0.1-0.3,0.1-0.7L72.3,53z M71.2,48.9v-0.6
			h-1.6v0.6H71.2z M71.2,50v-0.6h-1.6V50H71.2z M71.2,51v-0.6h-1.6V51H71.2z M71.1,52.8l-0.4,0.3c-0.3-0.4-0.6-0.8-0.9-1l0.4-0.3
			C70.5,52.1,70.8,52.4,71.1,52.8z M73.8,53.7L73.4,54c-0.4-0.7-0.8-1.3-1.2-1.8l0.4-0.3C73.1,52.5,73.5,53.1,73.8,53.7z"/>
		<path d="M83.3,53.6c0,0.3-0.1,0.5-0.3,0.6s-0.6,0.2-1.3,0.2c-0.2,0-0.3,0-0.4,0l-0.2-0.5c0.2,0,0.5,0,0.7,0c0.5,0,0.8,0,0.8-0.1
			s0.1-0.1,0.1-0.2v-2.4H80V54h-0.5v-2.9h-2.9c-0.2,1.4-0.5,2.4-1,3.1l-0.5-0.3c0.7-1,1-2.2,1-3.6v-4.6h7.2V53.6z M79.4,48.1v-1.8
			h-2.8v1.8H79.4z M79.4,50.6v-1.9h-2.8v1.9H79.4z M82.8,48.1v-1.8H80v1.8H82.8z M82.8,50.6v-1.9H80v1.9H82.8z"/>
		<path d="M88.5,50.5l-0.4,0.4c-0.2-0.4-0.5-0.9-0.9-1.3v4.6h-0.5v-4.6c-0.5,1.1-0.9,1.9-1.3,2.5L85,51.7c0.7-0.9,1.2-2,1.7-3.2
			h-1.6V48h1.7v-1.5l-1.2,0.2l-0.3-0.5c1.2-0.1,2.1-0.4,2.9-0.7l0.3,0.5c-0.5,0.2-0.9,0.3-1.2,0.4V48h1.2v0.5h-1.2v0.4
			C87.9,49.6,88.3,50.1,88.5,50.5z M93.8,54.1h-5.6v-0.5h2.6V52h-2.2v-0.5h2.2v-1.5c-1.1,0.1-1.7,0.1-2,0.1l-0.2-0.5
			c1.8,0,3.4-0.2,4.8-0.5l0.3,0.4c-0.7,0.2-1.5,0.3-2.3,0.4v1.5h2.1V52h-2.1v1.5h2.5V54.1z M93.1,48.6h-4.3v-2.7h4.3V48.6z
			 M92.6,48.1v-1.7h-3.2v1.7H92.6z"/>
		<path d="M103.8,52.1c-0.3,1.5-0.7,2.3-1.3,2.3c-0.1,0-0.3,0-0.4-0.1s-0.3-0.3-0.5-0.6s-0.4-0.7-0.6-1.2c-0.2-0.5-0.3-1.2-0.4-2
			c-0.1-0.9-0.2-1.8-0.2-2.6h-5.2v-0.5h5.2c0-0.7,0-1.3,0-1.7h0.5c0,0.8,0,1.4,0,1.7h2.9v0.5h-2.9c0,0.7,0.1,1.6,0.2,2.8
			s0.4,2,0.7,2.5c0.3,0.5,0.6,0.8,0.7,0.8c0.2,0,0.3-0.2,0.5-0.7c0.2-0.5,0.3-0.9,0.3-1.3L103.8,52.1z M100.1,52.5
			c-1.6,0.4-3.1,0.7-4.6,1L95.4,53c0.5-0.1,1.2-0.2,2.1-0.4v-2.9h-1.8v-0.5h4.1v0.5H98v2.8c0.8-0.2,1.5-0.3,2.1-0.5V52.5z
			 M103.3,46.8l-0.4,0.3c-0.4-0.4-0.8-0.8-1.1-1.1l0.4-0.3C102.5,45.9,102.9,46.3,103.3,46.8z"/>
	</g>
	<g class="st5">
		<rect x="221.9" y="108.6" class="st4" width="44.2" height="41.3"/>
		<path d="M235.8,113.8c-0.1,1-0.3,1.9-0.6,2.8l-0.5-0.2c0.3-0.7,0.5-1.6,0.6-2.7L235.8,113.8z M237.8,113.1h-1.1v4.9h-0.5v-4.9
			h-1.4v-0.5h1.4v-3.3h0.5v3.3h1.1V113.1z M235.8,111.8l-0.5,0.2c-0.1-0.5-0.3-1.1-0.5-1.7l0.4-0.2
			C235.4,110.5,235.6,111,235.8,111.8z M238,110.2c-0.1,0.5-0.3,1.1-0.5,1.9l-0.5-0.2c0.2-0.5,0.4-1.1,0.6-1.8L238,110.2z
			 M238.2,115.6l-0.5,0.2c-0.1-0.6-0.3-1.3-0.6-1.9l0.4-0.2C237.8,114.3,238,114.9,238.2,115.6z M242.9,117.4c0,0.2-0.1,0.4-0.2,0.5
			s-0.5,0.2-1,0.2c-0.2,0-0.4,0-0.5,0l-0.2-0.5c0.2,0,0.5,0,0.9,0c0.2,0,0.4,0,0.4-0.1c0.1,0,0.1-0.1,0.1-0.2v-0.8h-3.5
			c-0.2,0.6-0.5,1.2-0.8,1.6l-0.4-0.3c0.6-0.6,0.9-1.5,0.9-2.7v-1.5h4.4V117.4z M243.4,112.9h-5.2v-0.5h2.4v-0.7h-2v-0.5h2v-0.7
			h-2.1v-0.5h2.1v-0.8h0.5v0.8h2.2v0.5H241v0.7h1.9v0.5H241v0.7h2.4V112.9z M242.4,116v-0.8h-3.3c0,0.2,0,0.5,0,0.8H242.4z
			 M242.4,114.7V114h-3.3v0.7H242.4z"/>
		<path d="M253.4,117.9h-8.7v-0.4h4.1v-1.9h-1.4c-0.1,0.1-0.2,0.3-0.3,0.5c0.5,0.2,1,0.5,1.4,0.7l-0.3,0.4c-0.3-0.2-0.8-0.5-1.4-0.7
			c-0.3,0.3-0.7,0.5-1.3,0.7l-0.3-0.3c0.8-0.3,1.3-0.7,1.7-1.2H245v-0.4h8.1v0.4h-1.3c-0.1,0.2-0.2,0.3-0.3,0.4
			c0.5,0.3,1,0.5,1.3,0.7l-0.3,0.4c-0.4-0.3-0.9-0.5-1.3-0.7c-0.4,0.3-0.8,0.6-1.3,0.7l-0.3-0.4c0.7-0.2,1.3-0.6,1.7-1.2h-2v1.9h4
			V117.9z M253.2,112.6h-0.5V111h-3.4v1.9h-0.5V111h-3.4v1.5h-0.5v-2h3.9V110h-3.6v-0.4h7.6v0.4h-3.6v0.6h3.9V112.6z M247.4,114.7
			h-2.1v-1.5h2.1V114.7z M246.9,114.3v-0.7h-1.2v0.7H246.9z M248.3,112.6c-0.8,0.1-1.6,0.2-2.4,0.3l-0.2-0.4c0.9,0,1.7-0.1,2.4-0.3
			L248.3,112.6z M248.3,111.6l-0.2,0.4c-0.7-0.1-1.5-0.2-2.3-0.3l0.2-0.4C246.7,111.4,247.5,111.5,248.3,111.6z M250.1,114.7H248
			v-1.5h2.2V114.7z M249.7,114.3v-0.7h-1.3v0.7H249.7z M252.2,111.7c-0.6,0.1-1.4,0.3-2.3,0.4l-0.2-0.4c0.7,0,1.5-0.2,2.3-0.3
			L252.2,111.7z M252.3,112.6l-0.2,0.4c-0.8-0.2-1.6-0.3-2.4-0.4l0.2-0.4C250.9,112.3,251.7,112.5,252.3,112.6z M252.8,114.7h-2.1
			v-1.5h2.1V114.7z M252.4,114.3v-0.7h-1.2v0.7H252.4z"/>
		<path d="M231.6,129.5h-0.9l-0.8-2.1h-3.2l-0.8,2.1H225l2.9-7.6h0.8L231.6,129.5z M229.6,126.6l-1.2-3.3c0-0.1-0.1-0.3-0.1-0.5h0
			c0,0.2-0.1,0.4-0.1,0.5l-1.2,3.3H229.6z"/>
		<path d="M233.6,126.7v2.9h-0.8V122h2c0.8,0,1.4,0.2,1.9,0.6c0.4,0.4,0.7,0.9,0.7,1.7c0,0.7-0.3,1.3-0.8,1.8
			c-0.5,0.5-1.2,0.7-1.9,0.6H233.6z M233.6,122.7v3.1h0.9c0.6,0,1.1-0.1,1.4-0.4c0.3-0.3,0.5-0.7,0.5-1.2c0-1-0.6-1.5-1.8-1.5H233.6
			z"/>
		<path d="M239.6,129.5h-0.8V122h0.8V129.5z"/>
		<path d="M252.4,122.5H245v2.9c0,1.8-0.3,3.4-0.8,4.7l-0.4-0.4c0.5-1.3,0.7-2.7,0.7-4.3V122h3.7c-0.1-0.2-0.3-0.4-0.4-0.6l0.5-0.1
			c0.2,0.2,0.3,0.5,0.4,0.8h3.6V122.5z M246.7,127.9c-0.3,0.7-0.7,1.4-1.2,1.9l-0.4-0.3c0.4-0.5,0.8-1.1,1.1-1.8L246.7,127.9z
			 M247.3,122.9c-0.1,0.4-0.3,0.8-0.6,1.3v3.1h-0.5v-2.4c-0.1,0.2-0.3,0.4-0.6,0.7l-0.3-0.4c0.8-0.8,1.3-1.7,1.6-2.6L247.3,122.9z
			 M252.3,127.3h-4.4v-2.5c-0.2,0.2-0.4,0.5-0.7,0.8l-0.3-0.4c0.8-0.9,1.3-1.7,1.7-2.4l0.4,0.2c-0.1,0.2-0.2,0.5-0.4,0.7h1.5
			c0-0.1-0.2-0.4-0.4-0.7l0.5-0.1c0.1,0.2,0.3,0.5,0.4,0.8h1.6v0.5h-1.8v0.6h1.7v0.5h-1.7v0.6h1.7v0.5h-1.7v0.6h1.9V127.3z
			 M251,128.8c0,0.3-0.1,0.6-0.2,0.8c-0.1,0.2-0.2,0.3-0.4,0.3s-0.7,0.1-1.5,0.1c-0.5,0-0.9,0-1-0.1s-0.3-0.1-0.4-0.2
			c-0.1-0.1-0.1-0.3-0.1-0.5v-1.4h0.5v1.5c0,0.2,0,0.3,0.1,0.3s0.4,0.1,1,0.1c0.6,0,1,0,1.1,0c0.1,0,0.2-0.1,0.3-0.2
			c0.1-0.1,0.1-0.3,0.1-0.7L251,128.8z M249.9,124.6V124h-1.6v0.6H249.9z M249.9,125.7v-0.6h-1.6v0.6H249.9z M249.9,126.8v-0.6h-1.6
			v0.6H249.9z M249.8,128.6l-0.4,0.3c-0.3-0.4-0.6-0.8-0.9-1l0.4-0.3C249.3,127.8,249.6,128.2,249.8,128.6z M252.5,129.5l-0.4,0.3
			c-0.4-0.7-0.8-1.3-1.2-1.8l0.4-0.3C251.8,128.2,252.2,128.8,252.5,129.5z"/>
		<path d="M262,129.3c0,0.3-0.1,0.5-0.3,0.6c-0.2,0.1-0.6,0.2-1.3,0.2c-0.2,0-0.3,0-0.4,0l-0.2-0.5c0.2,0,0.5,0,0.7,0
			c0.5,0,0.8,0,0.8-0.1s0.1-0.1,0.1-0.2v-2.4h-2.8v2.9h-0.5v-2.9h-2.9c-0.2,1.4-0.5,2.4-1,3.1l-0.5-0.3c0.7-1,1-2.2,1-3.6v-4.6h7.2
			V129.3z M258.1,123.9V122h-2.8v1.8H258.1z M258.1,126.4v-1.9h-2.8v1.9H258.1z M261.5,123.9V122h-2.8v1.8H261.5z M261.5,126.4v-1.9
			h-2.8v1.9H261.5z"/>
		<path d="M238.1,138.3l-0.4,0.4c-0.2-0.4-0.5-0.9-0.9-1.3v4.6h-0.5v-4.6c-0.5,1.1-0.9,1.9-1.3,2.5l-0.4-0.4c0.7-0.9,1.2-2,1.7-3.2
			h-1.6v-0.5h1.7v-1.5l-1.2,0.2l-0.3-0.5c1.2-0.1,2.1-0.4,2.9-0.7l0.3,0.5c-0.5,0.2-0.9,0.3-1.2,0.4v1.6h1.2v0.5h-1.2v0.4
			C237.5,137.3,237.9,137.9,238.1,138.3z M243.4,141.8h-5.6v-0.5h2.6v-1.5h-2.2v-0.5h2.2v-1.5c-1.1,0.1-1.7,0.1-2,0.1l-0.2-0.5
			c1.8,0,3.4-0.2,4.8-0.5l0.3,0.4c-0.7,0.2-1.5,0.3-2.3,0.4v1.5h2.1v0.5h-2.1v1.5h2.5V141.8z M242.7,136.3h-4.3v-2.7h4.3V136.3z
			 M242.2,135.8v-1.7H239v1.7H242.2z"/>
		<path d="M253.4,139.9c-0.3,1.5-0.7,2.3-1.3,2.3c-0.1,0-0.3,0-0.4-0.1c-0.1-0.1-0.3-0.3-0.5-0.6c-0.2-0.3-0.4-0.7-0.6-1.2
			c-0.2-0.5-0.3-1.2-0.4-2c-0.1-0.9-0.2-1.8-0.2-2.6h-5.2V135h5.2c0-0.7,0-1.3,0-1.7h0.5c0,0.8,0,1.4,0,1.7h2.9v0.5h-2.9
			c0,0.7,0.1,1.6,0.2,2.8c0.1,1.2,0.4,2,0.7,2.5c0.3,0.5,0.6,0.8,0.7,0.8c0.2,0,0.3-0.2,0.5-0.7c0.2-0.5,0.3-0.9,0.3-1.3
			L253.4,139.9z M249.7,140.3c-1.6,0.4-3.1,0.7-4.6,1l-0.1-0.5c0.5-0.1,1.2-0.2,2.1-0.4v-2.9h-1.8V137h4.1v0.5h-1.9v2.8
			c0.8-0.2,1.5-0.3,2.1-0.5V140.3z M252.9,134.5l-0.4,0.3c-0.4-0.4-0.8-0.8-1.1-1.1l0.4-0.3C252.1,133.6,252.5,134,252.9,134.5z"/>
	</g>
	<g id="shape1317-67">
		<g class="st5">
			<path d="M64.3,113.3c-0.1,1-0.3,1.9-0.6,2.8l-0.5-0.2c0.3-0.7,0.5-1.6,0.6-2.7L64.3,113.3z M66.3,112.7h-1.1v4.9h-0.5v-4.9h-1.4
				v-0.5h1.4v-3.3h0.5v3.3h1.1V112.7z M64.3,111.3l-0.5,0.2c-0.1-0.5-0.3-1.1-0.5-1.7l0.4-0.2C64,110,64.1,110.6,64.3,111.3z
				 M66.5,109.8c-0.1,0.5-0.3,1.1-0.5,1.9l-0.5-0.2c0.2-0.5,0.4-1.1,0.6-1.8L66.5,109.8z M66.7,115.1l-0.5,0.2
				c-0.1-0.6-0.3-1.3-0.6-1.9l0.4-0.2C66.3,113.8,66.5,114.5,66.7,115.1z M71.5,116.9c0,0.2-0.1,0.4-0.2,0.5s-0.5,0.2-1,0.2
				c-0.2,0-0.4,0-0.5,0l-0.2-0.5c0.2,0,0.5,0,0.9,0c0.2,0,0.4,0,0.4-0.1c0.1,0,0.1-0.1,0.1-0.2V116h-3.5c-0.2,0.6-0.5,1.2-0.8,1.6
				l-0.4-0.3c0.6-0.6,0.9-1.5,0.9-2.7V113h4.4V116.9z M71.9,112.4h-5.2v-0.5H69v-0.7h-2v-0.5h2v-0.7h-2.1v-0.5H69v-0.8h0.5v0.8h2.2
				v0.5h-2.2v0.7h1.9v0.5h-1.9v0.7h2.4V112.4z M70.9,115.5v-0.8h-3.3c0,0.2,0,0.5,0,0.8H70.9z M70.9,114.3v-0.7h-3.3v0.7H70.9z"/>
			<path d="M81.9,117.4h-8.7V117h4.1v-1.9H76c-0.1,0.1-0.2,0.3-0.3,0.5c0.5,0.2,1,0.5,1.4,0.7l-0.3,0.4c-0.3-0.2-0.8-0.5-1.4-0.7
				c-0.3,0.3-0.7,0.5-1.3,0.7l-0.3-0.3c0.8-0.3,1.3-0.7,1.7-1.2h-1.9v-0.4h8.1v0.4h-1.3c-0.1,0.2-0.2,0.3-0.3,0.4
				c0.5,0.3,1,0.5,1.3,0.7l-0.3,0.4c-0.4-0.3-0.9-0.5-1.3-0.7c-0.4,0.3-0.8,0.6-1.3,0.7l-0.3-0.4c0.7-0.2,1.3-0.6,1.7-1.2h-2v1.9h4
				V117.4z M81.7,112.1h-0.5v-1.5h-3.4v1.9h-0.5v-1.9h-3.4v1.5h-0.5v-2h3.9v-0.6h-3.6v-0.4h7.6v0.4h-3.6v0.6h3.9V112.1z M75.9,114.3
				h-2.1v-1.5h2.1V114.3z M75.5,113.9v-0.7h-1.2v0.7H75.5z M76.9,112.2c-0.8,0.1-1.6,0.2-2.4,0.3l-0.2-0.4c0.9,0,1.7-0.1,2.4-0.3
				L76.9,112.2z M76.9,111.2l-0.2,0.4c-0.7-0.1-1.5-0.2-2.3-0.3l0.2-0.4C75.3,110.9,76,111,76.9,111.2z M78.6,114.3h-2.2v-1.5h2.2
				V114.3z M78.2,113.9v-0.7h-1.3v0.7H78.2z M80.8,111.2c-0.6,0.1-1.4,0.3-2.3,0.4l-0.2-0.4c0.7,0,1.5-0.2,2.3-0.3L80.8,111.2z
				 M80.8,112.2l-0.2,0.4c-0.8-0.2-1.6-0.3-2.4-0.4l0.2-0.4C79.4,111.9,80.2,112,80.8,112.2z M81.3,114.3h-2.1v-1.5h2.1V114.3z
				 M80.9,113.9v-0.7h-1.2v0.7H80.9z"/>
			<path d="M41.4,127.8c-1.1,0.8-2.1,1.3-3,1.6l-0.3-0.5c0.9-0.3,1.9-0.8,2.8-1.5L41.4,127.8z M46.9,127h-4.2v2.6h-0.5V127h-4.1
				v-0.5h4.1v-0.8h-3v-3H42v-1.9h0.5v0.6h3.5v0.5h-3.5v0.7h3.2v3h-2.9v0.8h4.2V127z M45.2,124v-0.7h-5.4v0.7H45.2z M45.2,125.3v-0.8
				h-5.4v0.8H45.2z M47,129l-0.4,0.4c-0.9-0.6-1.9-1.1-3-1.5l0.3-0.4C45,127.9,46,128.4,47,129z"/>
			<path d="M56.9,121.6h-3.9c-0.2,0.5-0.4,1-0.6,1.3h3.9v6.7h-0.5V129h-6.3v0.6h-0.5v-6.7h2.8c0.3-0.5,0.5-0.9,0.6-1.3h-4.2v-0.5
				h8.7V121.6z M50.8,128.4v-5h-1.4v5H50.8z M53.7,124.7v-1.2h-2.4v1.2H53.7z M53.7,126.5v-1.3h-2.4v1.3H53.7z M53.7,128.4V127h-2.4
				v1.4H53.7z M55.7,128.4v-5h-1.4v5H55.7z"/>
			<path d="M66.9,129.4h-8.7v-0.5h4.1v-1.4h-3.5V127h3.5v-1h0.5v1h3.4v0.5h-3.4v1.4h4.1V129.4z M63.5,123.8h-1.4v2.3h-0.5v-2.3h-1.3
				c-0.1,1-0.6,1.8-1.4,2.5l-0.4-0.4c0.8-0.7,1.3-1.4,1.3-2.2h-1.5v-0.5h1.5c0-0.6,0-1.1,0-1.6h-1.3v-0.5h4.8v0.5h-1.3v1.6h1.4
				V123.8z M61.6,123.3v-1.6h-1.3c0,0.4,0,0.9-0.1,1.6H61.6z M64.7,124.7h-0.5v-3.3h0.5V124.7z M66.4,125.5c0,0.2-0.1,0.3-0.2,0.5
				s-0.2,0.2-0.4,0.2c-0.1,0-0.4,0.1-0.8,0.1c-0.2,0-0.4,0-0.7,0l-0.2-0.5c0.3,0,0.6,0,0.9,0c0.3,0,0.5,0,0.5,0
				c0.1,0,0.1-0.1,0.2-0.2c0-0.1,0.1-0.2,0.1-0.3v-4.4h0.5V125.5z"/>
			<path d="M76.8,122.1h-7.4v2.9c0,1.8-0.3,3.4-0.8,4.7l-0.4-0.4c0.5-1.3,0.7-2.7,0.7-4.3v-3.4h3.7c-0.1-0.2-0.3-0.4-0.4-0.6
				l0.5-0.1c0.2,0.2,0.3,0.5,0.4,0.8h3.6V122.1z M71.1,127.4c-0.3,0.7-0.7,1.4-1.2,1.9l-0.4-0.3c0.4-0.5,0.8-1.1,1.1-1.8L71.1,127.4
				z M71.7,122.4c-0.1,0.4-0.3,0.8-0.6,1.3v3.1h-0.5v-2.4c-0.1,0.2-0.3,0.4-0.6,0.7l-0.3-0.4c0.8-0.8,1.3-1.7,1.6-2.6L71.7,122.4z
				 M76.7,126.8h-4.4v-2.5c-0.2,0.2-0.4,0.5-0.7,0.8l-0.3-0.4c0.8-0.9,1.3-1.7,1.7-2.4l0.4,0.2c-0.1,0.2-0.2,0.5-0.4,0.7h1.5
				c0-0.1-0.2-0.4-0.4-0.7l0.5-0.1c0.1,0.2,0.3,0.5,0.4,0.8h1.6v0.5h-1.8v0.6h1.7v0.5h-1.7v0.6h1.7v0.5h-1.7v0.6h1.9V126.8z
				 M75.4,128.3c0,0.3-0.1,0.6-0.2,0.8c-0.1,0.2-0.2,0.3-0.4,0.3s-0.7,0.1-1.5,0.1c-0.5,0-0.9,0-1-0.1s-0.3-0.1-0.4-0.2
				c-0.1-0.1-0.1-0.3-0.1-0.5v-1.4h0.5v1.5c0,0.2,0,0.3,0.1,0.3s0.4,0.1,1,0.1c0.6,0,1,0,1.1,0c0.1,0,0.2-0.1,0.3-0.2
				c0.1-0.1,0.1-0.3,0.1-0.7L75.4,128.3z M74.3,124.2v-0.6h-1.6v0.6H74.3z M74.3,125.3v-0.6h-1.6v0.6H74.3z M74.3,126.3v-0.6h-1.6
				v0.6H74.3z M74.2,128.1l-0.4,0.3c-0.3-0.4-0.6-0.8-0.9-1l0.4-0.3C73.7,127.4,73.9,127.7,74.2,128.1z M76.9,129l-0.4,0.3
				c-0.4-0.7-0.8-1.3-1.2-1.8l0.4-0.3C76.2,127.8,76.6,128.4,76.9,129z"/>
			<path d="M86.4,128.9c0,0.3-0.1,0.5-0.3,0.6c-0.2,0.1-0.6,0.2-1.3,0.2c-0.2,0-0.3,0-0.4,0l-0.2-0.5c0.2,0,0.5,0,0.7,0
				c0.5,0,0.8,0,0.8-0.1s0.1-0.1,0.1-0.2v-2.4h-2.8v2.9h-0.5v-2.9h-2.9c-0.2,1.4-0.5,2.4-1,3.1l-0.5-0.3c0.7-1,1-2.2,1-3.6v-4.6h7.2
				V128.9z M82.5,123.4v-1.8h-2.8v1.8H82.5z M82.5,125.9V124h-2.8v1.9H82.5z M85.9,123.4v-1.8h-2.8v1.8H85.9z M85.9,125.9V124h-2.8
				v1.9H85.9z"/>
			<path d="M91.6,125.8l-0.4,0.4c-0.2-0.4-0.5-0.9-0.9-1.3v4.6h-0.5V125c-0.5,1.1-0.9,1.9-1.3,2.5l-0.4-0.4c0.7-0.9,1.2-2,1.7-3.2
				h-1.6v-0.5h1.7v-1.5l-1.2,0.2l-0.3-0.5c1.2-0.1,2.1-0.4,2.9-0.7l0.3,0.5c-0.5,0.2-0.9,0.3-1.2,0.4v1.6h1.2v0.5h-1.2v0.4
				C91,124.9,91.4,125.4,91.6,125.8z M96.9,129.4h-5.6v-0.5h2.6v-1.5h-2.2v-0.5h2.2v-1.5c-1.1,0.1-1.7,0.1-2,0.1l-0.2-0.5
				c1.8,0,3.4-0.2,4.8-0.5l0.3,0.4c-0.7,0.2-1.5,0.3-2.3,0.4v1.5h2.1v0.5h-2.1v1.5h2.5V129.4z M96.3,123.9H92v-2.7h4.3V123.9z
				 M95.7,123.4v-1.7h-3.2v1.7H95.7z"/>
			<path d="M106.9,127.5c-0.3,1.5-0.7,2.3-1.3,2.3c-0.1,0-0.3,0-0.4-0.1c-0.1-0.1-0.3-0.3-0.5-0.6c-0.2-0.3-0.4-0.7-0.6-1.2
				c-0.2-0.5-0.3-1.2-0.4-2c-0.1-0.9-0.2-1.8-0.2-2.6h-5.2v-0.5h5.2c0-0.7,0-1.3,0-1.7h0.5c0,0.8,0,1.4,0,1.7h2.9v0.5H104
				c0,0.7,0.1,1.6,0.2,2.8c0.1,1.2,0.4,2,0.7,2.5c0.3,0.5,0.6,0.8,0.7,0.8c0.2,0,0.3-0.2,0.5-0.7c0.2-0.5,0.3-0.9,0.3-1.3
				L106.9,127.5z M103.2,127.8c-1.6,0.4-3.1,0.7-4.6,1l-0.1-0.5c0.5-0.1,1.2-0.2,2.1-0.4v-2.9h-1.8v-0.5h4.1v0.5h-1.9v2.8
				c0.8-0.2,1.5-0.3,2.1-0.5V127.8z M106.4,122.1l-0.4,0.3c-0.4-0.4-0.8-0.8-1.1-1.1l0.4-0.3C105.6,121.2,106,121.6,106.4,122.1z"/>
		</g>
	</g>
	<g id="shape1337-83">
		<g class="st5">
			<path d="M9.9,29.5c0,0-0.1,0.2-0.3,0.6c-0.2,0.4-0.4,0.7-0.6,1c0.4,0.4,0.6,0.8,0.9,1.2l-0.4,0.4c-0.2-0.3-0.4-0.7-0.8-1.1v4.3
				H8.2v-3.7c-0.5,0.5-0.8,0.8-1.1,1l-0.4-0.4c1.2-1,2.1-2.1,2.6-3.3H6.9V29h3V29.5z M9.1,28.5l-0.5,0.2c-0.2-0.5-0.5-0.9-0.8-1.4
				l0.5-0.3C8.6,27.5,8.8,28,9.1,28.5z M15,28.1c-0.8,2.6-1.7,4.6-2.7,5.8v1.1c0,0.1,0,0.2,0.1,0.2s0.4,0.1,0.9,0.1
				c0.4,0,0.6,0,0.7-0.1s0.1-0.2,0.2-0.4c0-0.2,0.1-0.6,0.1-1l0.5,0.2c0,0.4,0,0.8-0.1,1.1s-0.2,0.5-0.4,0.6c-0.2,0.1-0.5,0.1-1,0.1
				c-0.7,0-1.1,0-1.3-0.1s-0.3-0.3-0.3-0.6v-0.6c-0.6,0.6-1.2,1.1-1.8,1.5l-0.4-0.4c0.8-0.5,1.6-1.2,2.2-1.9v-4.2h0.5V33
				c0.8-1,1.6-2.7,2.2-5L15,28.1z M11.2,30.5c-0.1,1.1-0.4,2.2-0.8,3.1l-0.5-0.2c0.4-1,0.7-2,0.8-3.1L11.2,30.5z M13.7,28.9
				l-0.4,0.4c-0.5-0.7-1.1-1.2-1.7-1.7l0.3-0.4C12.6,27.8,13.2,28.4,13.7,28.9z M15.6,33.4L15,33.6c-0.1-0.8-0.3-1.6-0.7-2.5
				l0.5-0.2C15.1,31.7,15.4,32.5,15.6,33.4z"/>
			<path d="M23.6,29.5c-0.9,1.1-2.1,2-3.6,2.7c0,0.1,0,0.1,0.1,0.2s0.5,0.1,1.2,0.1c0.7,0,1.2,0,1.4-0.1c0.2-0.1,0.3-0.4,0.4-1.1
				l0.5,0.2c0,0.4-0.1,0.7-0.2,1c-0.1,0.2-0.3,0.4-0.5,0.4s-0.5,0.1-1.1,0.1c-1,0-1.6,0-1.8-0.1c-0.2,0-0.4-0.2-0.5-0.4
				c-0.9,0.4-1.7,0.7-2.5,1L16.8,33c1-0.4,1.9-0.7,2.7-1.1v-2.8H20v2.6c1.3-0.7,2.4-1.5,3.2-2.5L23.6,29.5z M19.2,29.9
				c-0.6,0.8-1.3,1.4-2,2l-0.4-0.4c0.6-0.4,1.3-1.1,1.9-1.9L19.2,29.9z M25.1,29.9h-0.5v-1.5h-6.9v1.5h-0.5v-2H21
				c-0.1-0.2-0.2-0.4-0.3-0.7l0.5-0.2c0.1,0.3,0.3,0.5,0.4,0.9h3.6V29.9z M24.5,35.9h-0.5v-0.3h-6.1v-2.1h0.5v1.6h2.5v-2h0.5v2h2.6
				v-1.6h0.5V35.9z M21.9,30l-0.4,0.3c-0.3-0.5-0.6-0.9-1-1.2l0.4-0.3C21.3,29.1,21.6,29.5,21.9,30z M25.5,32l-0.4,0.3
				c-0.4-0.6-0.9-1.2-1.6-1.8l0.4-0.3C24.6,30.9,25.1,31.5,25.5,32z"/>
			<v:paragraph  v:horizAlign="1"></v:paragraph>
			<v:tabList></v:tabList>
		</g>
	</g>
	<g class="st5">
		<path d="M42.8,189.5c-0.1,1-0.3,1.9-0.6,2.8l-0.5-0.2c0.3-0.7,0.5-1.6,0.6-2.7L42.8,189.5z M44.8,188.9h-1.1v4.9h-0.5v-4.9h-1.4
			v-0.5h1.4v-3.3h0.5v3.3h1.1V188.9z M42.8,187.5l-0.5,0.2c-0.1-0.5-0.3-1.1-0.5-1.7l0.4-0.2C42.4,186.2,42.6,186.8,42.8,187.5z
			 M45,185.9c-0.1,0.5-0.3,1.1-0.5,1.9l-0.5-0.2c0.2-0.5,0.4-1.1,0.6-1.8L45,185.9z M45.1,191.3l-0.5,0.2c-0.1-0.6-0.3-1.3-0.6-1.9
			l0.4-0.2C44.8,190,45,190.7,45.1,191.3z M49.9,193.1c0,0.2-0.1,0.4-0.2,0.5s-0.5,0.2-1,0.2c-0.2,0-0.4,0-0.5,0l-0.2-0.5
			c0.2,0,0.5,0,0.9,0c0.2,0,0.4,0,0.4-0.1s0.1-0.1,0.1-0.2v-0.8h-3.5c-0.2,0.6-0.5,1.2-0.8,1.6l-0.4-0.3c0.6-0.6,0.9-1.5,0.9-2.7
			v-1.5h4.4V193.1z M50.4,188.6h-5.2v-0.5h2.4v-0.7h-2V187h2v-0.7h-2.1v-0.5h2.1V185H48v0.8h2.2v0.5H48v0.7H50v0.5H48v0.7h2.4V188.6
			z M49.4,191.7V191h-3.3c0,0.2,0,0.5,0,0.8H49.4z M49.4,190.5v-0.7h-3.3v0.7H49.4z"/>
		<path d="M60.3,193.6h-8.7v-0.4h4.1v-1.9h-1.4c-0.1,0.1-0.2,0.3-0.3,0.5c0.5,0.2,1,0.5,1.4,0.7l-0.3,0.4c-0.3-0.2-0.8-0.5-1.4-0.7
			c-0.3,0.3-0.7,0.5-1.3,0.7l-0.3-0.3c0.8-0.3,1.3-0.7,1.7-1.2H52v-0.4h8.1v0.4h-1.3c-0.1,0.2-0.2,0.3-0.3,0.4
			c0.5,0.3,1,0.5,1.3,0.7l-0.3,0.4c-0.4-0.3-0.9-0.5-1.3-0.7c-0.4,0.3-0.8,0.6-1.3,0.7l-0.3-0.4c0.7-0.2,1.3-0.6,1.7-1.2h-2v1.9h4
			V193.6z M60.1,188.3h-0.5v-1.5h-3.4v1.9h-0.5v-1.9h-3.4v1.5h-0.5v-2h3.9v-0.6h-3.6v-0.4h7.6v0.4h-3.6v0.6h3.9V188.3z M54.4,190.5
			h-2.1V189h2.1V190.5z M53.9,190.1v-0.7h-1.2v0.7H53.9z M55.3,188.4c-0.8,0.1-1.6,0.2-2.4,0.3l-0.2-0.4c0.9,0,1.7-0.1,2.4-0.3
			L55.3,188.4z M55.3,187.4l-0.2,0.4c-0.7-0.1-1.5-0.2-2.3-0.3l0.2-0.4C53.7,187.1,54.5,187.2,55.3,187.4z M57.1,190.5h-2.2V189h2.2
			V190.5z M56.6,190.1v-0.7h-1.3v0.7H56.6z M59.2,187.4c-0.6,0.1-1.4,0.3-2.3,0.4l-0.2-0.4c0.7,0,1.5-0.2,2.3-0.3L59.2,187.4z
			 M59.3,188.4l-0.2,0.4c-0.8-0.2-1.6-0.3-2.4-0.4l0.2-0.4C57.9,188.1,58.7,188.2,59.3,188.4z M59.8,190.5h-2.1V189h2.1V190.5z
			 M59.4,190.1v-0.7h-1.2v0.7H59.4z"/>
		<path d="M73.4,185.7l-2.1,7.6h-1l-1.6-5.6c-0.1-0.2-0.1-0.5-0.1-0.8h0c0,0.3-0.1,0.5-0.1,0.8l-1.6,5.6h-1l-2.2-7.6h0.9l1.6,5.8
			c0.1,0.3,0.1,0.5,0.1,0.8h0c0-0.2,0.1-0.4,0.2-0.8l1.7-5.8H69l1.6,5.9c0.1,0.2,0.1,0.4,0.1,0.7h0c0-0.2,0.1-0.4,0.1-0.7l1.6-5.9
			H73.4z"/>
		<path d="M78.4,190.8h-3.8c0,0.6,0.2,1.1,0.5,1.4s0.7,0.5,1.3,0.5c0.6,0,1.2-0.2,1.7-0.6v0.8c-0.5,0.4-1.1,0.5-1.9,0.5
			c-0.8,0-1.3-0.2-1.8-0.7s-0.7-1.2-0.7-2.1c0-0.8,0.2-1.5,0.7-2s1.1-0.8,1.8-0.8c0.7,0,1.2,0.2,1.6,0.7s0.6,1.1,0.6,1.9V190.8z
			 M77.6,190.1c0-0.5-0.1-0.9-0.4-1.2c-0.2-0.3-0.6-0.4-1-0.4c-0.4,0-0.7,0.1-1,0.4s-0.5,0.7-0.6,1.2H77.6z"/>
		<path d="M80.6,192.5v0.8h-0.8v-8h0.8v3.5h0c0.4-0.7,1-1.1,1.9-1.1c0.7,0,1.2,0.2,1.6,0.7s0.6,1.1,0.6,1.9c0,0.9-0.2,1.6-0.7,2.2
			c-0.4,0.5-1,0.8-1.8,0.8C81.5,193.4,81,193.1,80.6,192.5L80.6,192.5z M80.6,191.1c0,0.5,0.2,0.8,0.5,1.2s0.7,0.5,1.1,0.5
			c0.5,0,0.9-0.2,1.3-0.6s0.5-1,0.5-1.7c0-0.6-0.1-1.1-0.4-1.4c-0.3-0.3-0.7-0.5-1.1-0.5c-0.5,0-0.9,0.2-1.2,0.5
			c-0.3,0.4-0.5,0.8-0.5,1.3V191.1z"/>
		<path d="M94.5,193.3h-0.9l-0.8-2.1h-3.2l-0.8,2.1h-0.9l2.9-7.6h0.8L94.5,193.3z M92.5,190.4l-1.2-3.3c0-0.1-0.1-0.3-0.1-0.5h0
			c0,0.2-0.1,0.4-0.1,0.5l-1.2,3.3H92.5z"/>
		<path d="M96.5,190.4v2.9h-0.8v-7.6h2c0.8,0,1.4,0.2,1.9,0.6s0.7,0.9,0.7,1.7c0,0.7-0.3,1.3-0.8,1.8s-1.2,0.7-1.9,0.6H96.5z
			 M96.5,186.5v3.1h0.9c0.6,0,1.1-0.1,1.4-0.4c0.3-0.3,0.5-0.7,0.5-1.2c0-1-0.6-1.5-1.8-1.5H96.5z"/>
		<path d="M102.5,193.3h-0.8v-7.6h0.8V193.3z"/>
		<v:paragraph  v:horizAlign="1"></v:paragraph>
		<v:tabList></v:tabList>
	</g>
	<g id="shape1385-112">
		<g class="st5">
			<path d="M9.9,106.7c0,0-0.1,0.2-0.3,0.6c-0.2,0.4-0.4,0.7-0.6,1c0.4,0.4,0.6,0.8,0.9,1.2l-0.4,0.4c-0.2-0.3-0.4-0.7-0.8-1.1v4.3
				H8.2v-3.7c-0.5,0.5-0.8,0.8-1.1,1l-0.4-0.4c1.2-1,2.1-2.1,2.6-3.3H6.9v-0.5h3V106.7z M9.1,105.7l-0.5,0.2
				c-0.2-0.5-0.5-0.9-0.8-1.4l0.5-0.3C8.6,104.7,8.8,105.2,9.1,105.7z M15,105.2c-0.8,2.6-1.7,4.6-2.7,5.8v1.1c0,0.1,0,0.2,0.1,0.2
				s0.4,0.1,0.9,0.1c0.4,0,0.6,0,0.7-0.1s0.1-0.2,0.2-0.4c0-0.2,0.1-0.6,0.1-1l0.5,0.2c0,0.4,0,0.8-0.1,1.1s-0.2,0.5-0.4,0.6
				c-0.2,0.1-0.5,0.1-1,0.1c-0.7,0-1.1,0-1.3-0.1s-0.3-0.3-0.3-0.6v-0.6c-0.6,0.6-1.2,1.1-1.8,1.5l-0.4-0.4c0.8-0.5,1.6-1.2,2.2-1.9
				v-4.2h0.5v3.5c0.8-1,1.6-2.7,2.2-5L15,105.2z M11.2,107.7c-0.1,1.1-0.4,2.2-0.8,3.1l-0.5-0.2c0.4-1,0.7-2,0.8-3.1L11.2,107.7z
				 M13.7,106.1l-0.4,0.4c-0.5-0.7-1.1-1.2-1.7-1.7l0.3-0.4C12.6,105,13.2,105.6,13.7,106.1z M15.6,110.5l-0.5,0.2
				c-0.1-0.8-0.3-1.6-0.7-2.5l0.5-0.2C15.1,108.9,15.4,109.7,15.6,110.5z"/>
			<path d="M23.6,106.7c-0.9,1.1-2.1,2-3.6,2.7c0,0.1,0,0.1,0.1,0.2s0.5,0.1,1.2,0.1c0.7,0,1.2,0,1.4-0.1c0.2-0.1,0.3-0.4,0.4-1.1
				l0.5,0.2c0,0.4-0.1,0.7-0.2,1c-0.1,0.2-0.3,0.4-0.5,0.4s-0.5,0.1-1.1,0.1c-1,0-1.6,0-1.8-0.1c-0.2,0-0.4-0.2-0.5-0.4
				c-0.9,0.4-1.7,0.7-2.5,1l-0.2-0.4c1-0.4,1.9-0.7,2.7-1.1v-2.8H20v2.6c1.3-0.7,2.4-1.5,3.2-2.5L23.6,106.7z M19.2,107
				c-0.6,0.8-1.3,1.4-2,2l-0.4-0.4c0.6-0.4,1.3-1.1,1.9-1.9L19.2,107z M25.1,107.1h-0.5v-1.5h-6.9v1.5h-0.5v-2H21
				c-0.1-0.2-0.2-0.4-0.3-0.7l0.5-0.2c0.1,0.3,0.3,0.5,0.4,0.9h3.6V107.1z M24.5,113.1h-0.5v-0.3h-6.1v-2.1h0.5v1.6h2.5v-2h0.5v2
				h2.6v-1.6h0.5V113.1z M21.9,107.2l-0.4,0.3c-0.3-0.5-0.6-0.9-1-1.2l0.4-0.3C21.3,106.2,21.6,106.6,21.9,107.2z M25.5,109.2
				l-0.4,0.3c-0.4-0.6-0.9-1.2-1.6-1.8l0.4-0.3C24.6,108.1,25.1,108.7,25.5,109.2z"/>
			<v:paragraph  v:horizAlign="1"></v:paragraph>
			<v:tabList></v:tabList>
		</g>
	</g>
	<g id="shape1416-127">
		<g class="st5">
			<path d="M9.9,177.5c0,0-0.1,0.2-0.3,0.6c-0.2,0.4-0.4,0.7-0.6,1c0.4,0.4,0.6,0.8,0.9,1.2l-0.4,0.4c-0.2-0.3-0.4-0.7-0.8-1.1v4.3
				H8.2v-3.7c-0.5,0.5-0.8,0.8-1.1,1l-0.4-0.4c1.2-1,2.1-2.1,2.6-3.3H6.9V177h3V177.5z M9.1,176.5l-0.5,0.2
				c-0.2-0.5-0.5-0.9-0.8-1.4l0.5-0.3C8.6,175.5,8.8,176,9.1,176.5z M15,176c-0.8,2.6-1.7,4.6-2.7,5.8v1.1c0,0.1,0,0.2,0.1,0.2
				s0.4,0.1,0.9,0.1c0.4,0,0.6,0,0.7-0.1s0.1-0.2,0.2-0.4c0-0.2,0.1-0.6,0.1-1l0.5,0.2c0,0.4,0,0.8-0.1,1.1s-0.2,0.5-0.4,0.6
				c-0.2,0.1-0.5,0.1-1,0.1c-0.7,0-1.1,0-1.3-0.1s-0.3-0.3-0.3-0.6v-0.6c-0.6,0.6-1.2,1.1-1.8,1.5l-0.4-0.4c0.8-0.5,1.6-1.2,2.2-1.9
				v-4.2h0.5v3.5c0.8-1,1.6-2.7,2.2-5L15,176z M11.2,178.5c-0.1,1.1-0.4,2.2-0.8,3.1l-0.5-0.2c0.4-1,0.7-2,0.8-3.1L11.2,178.5z
				 M13.7,176.9l-0.4,0.4c-0.5-0.7-1.1-1.2-1.7-1.7l0.3-0.4C12.6,175.8,13.2,176.3,13.7,176.9z M15.6,181.3l-0.5,0.2
				c-0.1-0.8-0.3-1.6-0.7-2.5l0.5-0.2C15.1,179.7,15.4,180.5,15.6,181.3z"/>
			<path d="M23.6,177.4c-0.9,1.1-2.1,2-3.6,2.7c0,0.1,0,0.1,0.1,0.2s0.5,0.1,1.2,0.1c0.7,0,1.2,0,1.4-0.1c0.2-0.1,0.3-0.4,0.4-1.1
				l0.5,0.2c0,0.4-0.1,0.7-0.2,1c-0.1,0.2-0.3,0.4-0.5,0.4s-0.5,0.1-1.1,0.1c-1,0-1.6,0-1.8-0.1c-0.2,0-0.4-0.2-0.5-0.4
				c-0.9,0.4-1.7,0.7-2.5,1l-0.2-0.4c1-0.4,1.9-0.7,2.7-1.1v-2.8H20v2.6c1.3-0.7,2.4-1.5,3.2-2.5L23.6,177.4z M19.2,177.8
				c-0.6,0.8-1.3,1.4-2,2l-0.4-0.4c0.6-0.4,1.3-1.1,1.9-1.9L19.2,177.8z M25.1,177.9h-0.5v-1.5h-6.9v1.5h-0.5v-2H21
				c-0.1-0.2-0.2-0.4-0.3-0.7l0.5-0.2c0.1,0.3,0.3,0.5,0.4,0.9h3.6V177.9z M24.5,183.9h-0.5v-0.3h-6.1v-2.1h0.5v1.6h2.5v-2h0.5v2
				h2.6v-1.6h0.5V183.9z M21.9,177.9l-0.4,0.3c-0.3-0.5-0.6-0.9-1-1.2l0.4-0.3C21.3,177,21.6,177.4,21.9,177.9z M25.5,180l-0.4,0.3
				c-0.4-0.6-0.9-1.2-1.6-1.8l0.4-0.3C24.6,178.9,25.1,179.5,25.5,180z"/>
			<v:paragraph  v:horizAlign="1"></v:paragraph>
			<v:tabList></v:tabList>
		</g>
	</g>
	<g class="st5">
		<path class="st6" d="M175.2,69.8c0,0.3-0.1,0.5-0.3,0.6c-0.2,0.1-0.6,0.2-1.3,0.2c-0.2,0-0.3,0-0.4,0L173,70c0.2,0,0.5,0,0.7,0
			c0.5,0,0.8,0,0.8-0.1s0.1-0.1,0.1-0.2v-2.4h-2.8v2.9h-0.5v-2.9h-2.9c-0.2,1.4-0.5,2.4-1,3.1l-0.5-0.3c0.7-1,1-2.2,1-3.6V62h7.2
			V69.8z M171.3,64.3v-1.8h-2.8v1.8H171.3z M171.3,66.8v-1.9h-2.8v1.9H171.3z M174.6,64.3v-1.8h-2.8v1.8H174.6z M174.6,66.8v-1.9
			h-2.8v1.9H174.6z"/>
		<path class="st6" d="M185.2,62.3c-2.3,0.5-4.5,0.7-6.4,0.7v1.3h6.4v3.2h-6.5c-0.2,1.3-0.7,2.3-1.4,3.1l-0.4-0.4
			c0.5-0.5,0.9-1.1,1.1-1.8c0.2-0.7,0.3-1.9,0.3-3.5v-2.3c2.2,0,4.4-0.2,6.7-0.7L185.2,62.3z M184.7,67v-2.2h-5.9c0,0.4,0,1.1,0,2.2
			H184.7z"/>
		<path class="st6" d="M190.1,63.8h-0.7l0.4,0.3c-0.1,1-0.2,2.6-0.6,4.8c0.2,0,0.4-0.1,0.8-0.3l0,0.5c-0.7,0.3-1.6,0.5-2.9,0.9
			l-0.1-0.5c0.3,0,0.5-0.1,0.8-0.2c0-1.6-0.1-3.3-0.4-5.2l0.4-0.3H187v-0.5h1.3c-0.1-0.4-0.3-0.9-0.5-1.4l0.5-0.2
			c0.2,0.5,0.4,1,0.5,1.6h1.2V63.8z M189.2,63.8h-1.4c0.2,1.9,0.4,3.7,0.4,5.4c0.2,0,0.3-0.1,0.4-0.1
			C189,66.8,189.2,65.1,189.2,63.8z M195.6,65.5H193c-0.1,0.4-0.3,0.7-0.4,1.1h2.7v3.2c0,0.5-0.3,0.7-0.8,0.7c-0.1,0-0.2,0-0.3,0
			L194,70c0.1,0,0.3,0,0.3,0c0.3,0,0.4-0.1,0.4-0.3v-2.6h-1v3.1h-0.5v-3.1h-1v3.1h-0.5v-3.1h-1v3.5h-0.5v-3.9h1.7
			c0.2-0.4,0.3-0.7,0.4-1.1H190V65h5.6V65.5z M195.1,64h-4.6v-1.8h0.5v1.3h1.5v-1.7h0.5v1.7h1.6v-1.3h0.5V64z"/>
		<path class="st6" d="M200,63.3h-3.1v-0.5h1.3c-0.1-0.3-0.3-0.7-0.4-0.9l0.4-0.2c0.2,0.4,0.4,0.8,0.5,1.1h1.2V63.3z M199.8,64.7
			h-2.7v-0.5h2.7V64.7z M199.8,66.2h-2.7v-0.5h2.7V66.2z M199.7,70.2h-0.5v-0.5h-1.3v0.8h-0.5v-3.4h2.3V70.2z M199.2,69.2v-1.6h-1.3
			v1.6H199.2z M201.1,67.3c-0.2,1.1-0.5,1.9-0.8,2.4l-0.5-0.2c0.3-0.7,0.6-1.5,0.7-2.4L201.1,67.3z M205.3,62c0,0.7-0.1,1.5-0.1,2.1
			c-0.1,0.7-0.1,1.1-0.2,1.2c0,0.1-0.1,0.2-0.2,0.3c-0.1,0.1-0.3,0.2-0.5,0.2c-0.2,0.1-0.5,0.1-1,0l-0.2-0.5c0.3,0,0.5,0,0.7,0
			c0.3,0,0.6-0.1,0.7-0.3c0.1-0.2,0.2-1.1,0.2-2.7h-1.4c-0.1,2-1.1,3.3-2.8,3.9l-0.3-0.4c0.8-0.3,1.4-0.7,1.8-1.2
			c-0.3-0.4-0.7-0.7-1.3-1.1l0.3-0.4c0.4,0.3,0.8,0.6,1.2,1c0.3-0.5,0.5-1.2,0.5-1.9h-2.5V62H205.3z M204.3,68.5
			c0,0.7-0.1,1.2-0.2,1.4c-0.1,0.2-0.2,0.3-0.4,0.4c-0.2,0.1-0.5,0.1-0.9,0.1c-0.4,0-0.7-0.1-0.9-0.2c-0.2-0.1-0.2-0.3-0.2-0.7v-2.4
			h0.5v2.4c0,0.1,0,0.2,0.1,0.2c0.1,0.1,0.3,0.1,0.7,0.1c0.3,0,0.5-0.1,0.6-0.2c0.1-0.1,0.2-0.6,0.2-1.3L204.3,68.5z M203.7,67.4
			l-0.4,0.3c-0.3-0.5-0.7-1-1.1-1.3l0.3-0.4C203,66.5,203.4,67,203.7,67.4z M205.6,69.3l-0.5,0.2c-0.1-0.7-0.4-1.5-0.8-2.3l0.4-0.2
			C205.2,67.9,205.5,68.7,205.6,69.3z"/>
		<path class="st6" d="M210,63.3h-3v-0.5h1.4c-0.1-0.2-0.2-0.5-0.4-0.9l0.4-0.2c0.2,0.4,0.3,0.8,0.4,1.1h1.1V63.3z M209.7,64.7h-2.5
			v-0.5h2.5V64.7z M209.7,66.2h-2.5v-0.5h2.5V66.2z M209.7,70.3h-0.5v-0.6h-1.4v0.8h-0.5v-3.3h2.4V70.3z M209.2,69.2v-1.5h-1.4v1.5
			H209.2z M212.6,62.5c0,0.1-0.2,0.5-0.5,1.2c-0.4,0.7-0.9,1.4-1.7,2.1l-0.4-0.3c0.5-0.5,1-0.9,1.2-1.3c-0.3-0.3-0.6-0.5-0.9-0.7
			l0.3-0.3c0.2,0.2,0.5,0.4,0.8,0.7c0.3-0.5,0.5-0.9,0.6-1.3h-1.8V62h2.3V62.5z M215.5,70.3H210v-0.5h1.6c-0.1-0.3-0.2-0.8-0.5-1.5
			l0.4-0.3h-0.8V66h4V68H214l0.4,0.3c-0.2,0.6-0.4,1.1-0.5,1.5h1.7V70.3z M214.2,67.6v-1.1h-2.9v1.1H214.2z M214,65.2h-2.4v-0.5h2.4
			V65.2z M213.9,68h-2.3c0.2,0.5,0.4,1.1,0.6,1.8h1.1C213.5,69.4,213.7,68.8,213.9,68z M215.7,65.4l-0.3,0.4c-1.3-1-2.1-2.3-2.4-3.8
			l0.4-0.3c0.1,0.4,0.2,0.7,0.3,0.9c0.3-0.2,0.6-0.5,0.8-0.8l0.3,0.3c-0.2,0.3-0.5,0.6-1,0.9c0.1,0.3,0.2,0.5,0.3,0.6
			c0.3-0.2,0.6-0.5,0.9-0.9l0.4,0.3c-0.3,0.4-0.6,0.7-1,1C214.8,64.6,215.2,65,215.7,65.4z"/>
		<path class="st6" d="M183.9,79.3c-0.4,1.1-0.9,2.1-1.5,3.3l-0.4-0.4c0.6-0.9,1.1-2,1.5-3.2L183.9,79.3z M183.8,77.8l-0.4,0.4
			c-0.5-0.5-1-0.9-1.6-1.3l0.3-0.4C182.9,76.9,183.4,77.4,183.8,77.8z M184,75.1l-0.3,0.4c-0.6-0.7-1.1-1.1-1.5-1.4l0.3-0.4
			C183.1,74.2,183.6,74.7,184,75.1z M185.6,78.3c0,1.2-0.1,2.1-0.3,2.6c-0.2,0.6-0.6,1.1-1.3,1.6l-0.4-0.4c0.4-0.2,0.7-0.6,1-1.1
			c0.3-0.5,0.4-1.4,0.4-2.7H185.6z M190.7,77.9l-0.4,0.3c-0.2-0.3-0.4-0.5-0.6-0.8c-2,0.2-3.7,0.4-5.1,0.5l-0.1-0.5
			c0.8-0.4,1.4-1.1,2-2.1h-2.1v-0.5h2.4c0.1-0.2,0.3-0.6,0.5-1.1l0.5,0.1c-0.1,0.2-0.2,0.5-0.4,0.9h3.2v0.5H187
			c-0.5,0.9-1.1,1.6-1.7,2c1.3-0.1,2.6-0.2,3.9-0.4c-0.3-0.3-0.6-0.6-0.9-0.9l0.4-0.4C189.5,76.4,190.1,77.2,190.7,77.9z
			 M187.3,82.5h-0.5v-4.2h0.5V82.5z M190.6,82.4h-1.3c-0.5,0-0.8-0.2-0.8-0.7v-3.4h0.5v3.3c0,0.2,0.1,0.3,0.3,0.3h1.3V82.4z"/>
		<path class="st6" d="M195.3,78.7l-0.4,0.4c-0.2-0.4-0.5-0.9-0.9-1.3v4.6h-0.5v-4.6c-0.5,1.1-0.9,1.9-1.3,2.5l-0.4-0.4
			c0.7-0.9,1.2-2,1.7-3.2h-1.6v-0.5h1.7v-1.5l-1.2,0.2l-0.3-0.5c1.2-0.1,2.1-0.4,2.9-0.7l0.3,0.5c-0.5,0.2-0.9,0.3-1.2,0.4v1.6h1.2
			v0.5h-1.2v0.4C194.7,77.8,195.1,78.3,195.3,78.7z M200.6,82.3H195v-0.5h2.6v-1.5h-2.2v-0.5h2.2v-1.5c-1.1,0.1-1.7,0.1-2,0.1
			l-0.2-0.5c1.8,0,3.4-0.2,4.8-0.5l0.3,0.4c-0.7,0.2-1.5,0.3-2.3,0.4v1.5h2.1v0.5h-2.1v1.5h2.5V82.3z M200,76.8h-4.3v-2.7h4.3V76.8z
			 M199.5,76.3v-1.7h-3.2v1.7H199.5z"/>
	</g>
	<g id="Arrow">
		<path class="st7" d="M227.8,92.6c-0.7,0-3.4,0-3.9,0c-18.4,0-36.9,0.2-55.3-0.1c-11.8-0.2-23.8,8.4-26.2,21.7
			c-0.3,1.7-0.4,3.5-0.4,5.2c0,6.8,0,13.6,0,20.4c0,14.1-8.6,24.9-22.4,27.9c-1.8,0.4-3.8,0.5-5.7,0.5c-9.4,0-18.9,0-28.3,0
			c-0.2,0,0,0-0.3,0c-0.4,0-0.9-0.2-0.9-0.6c0-0.6,0.6-0.7,1.1-0.7c0.9,0,0.4,0,0.9,0c9.8,0,19.6,0.1,29.4-0.1
			c12.1-0.2,22.9-10.1,24.6-22.1c0.3-2,0.3-4,0.4-6c0.1-7.2-0.2-14.4,0.2-21.6c0.6-11.2,6.6-19.1,16.7-23.8c0.5-0.2,0.9-0.4,1.4-0.9
			c-0.5,0-1,0-1.6,0c-22.2,0-46.2,0-68.5-0.1c0,0-0.7,0-0.7-0.5c0-0.6,0.8-0.6,0.8-0.6c22.2,0,46.1-0.1,68.3-0.1c0.5,0,1.1,0,1.9,0
			c-0.4-0.3-0.6-0.5-0.8-0.6c-11.8-5-17.5-14.2-17.7-26.8c-0.1-7.8,0-15.7-0.1-23.5c-0.2-12.3-10.8-23.8-23.2-24.6
			c-7.8-0.5-15.7-0.3-23.5-0.3c-2,0-4,0-6,0c-0.4,0-1.5,0-1.5-0.6c-0.1-0.7,1.2-0.7,1.7-0.7c6.5,0,13,0,19.5,0c4.7,0,9.4-0.2,14,1
			c10.5,2.7,19,12.2,20.1,22.9c0.4,4.3,0.3,8.7,0.3,13c0,4.5,0,9,0,13.5c0.1,13.5,9.1,24.1,22.3,26.4c0.7,0.1,1.5,0.1,2.2,0.1
			c19.1,0,38.3,0,57.4,0c0.4,0,3.1,0,3.8-0.1"/>
	</g>
	<g>
		<path class="st7" d="M225.8,91.8c0-2-0.8-3.1-1.4-4.3c2.8,1.5,5.5,2.9,8.2,4.3c-2.7,1.4-5.4,2.8-8.2,4.3
			C225,94.6,225.8,93.6,225.8,91.8z"/>
	</g>
</g>
<g id="Src" xmlns:ev="http://www.w3.org/2001/xml-events" xmlns:v="http://schemas.microsoft.com/visio/2003/SVGExtensions/" class="st8">
	
		<g id="target_1_" xmlns:ev="http://www.w3.org/2001/xml-events" xmlns:v="http://schemas.microsoft.com/visio/2003/SVGExtensions/" class="st9">
		<g>
			<g id="group1277-1" transform="translate(56.698,-171.515)">
				<g id="group1278-2_1_">
					<g id="shape1279-3_1_">
						<path class="st0" d="M22.9,195.9c-2.2,1.7-4.8,2.5-7.3,2.5c-3.6,0-7.2-1.7-9.6-4.8c-4-5.4-3-13.1,2.2-17.3
							c2.2-1.7,4.8-2.5,7.3-2.5c3.6,0,7.2,1.7,9.5,4.8C29.2,184,28.2,191.8,22.9,195.9z M26.5,177.5c-2.7-3.6-6.8-5.6-11-5.6
							c-2.9,0-5.9,1-8.4,2.9c-6,4.8-7.2,13.7-2.6,19.9c2.7,3.6,6.8,5.6,11,5.6c2.9,0,5.9-0.9,8.4-2.9
							C30,192.6,31.2,183.7,26.5,177.5z"/>
					</g>
				</g>
				<g id="group1280-5_1_" transform="translate(4.95554,-4.39536)">
					<g id="group1281-6_1_" transform="translate(0.341805,-0.176482)">
						<g id="group1282-7_1_" transform="translate(0.437248,3.12639E-13)">
							<g id="shape1283-8_1_">
								<path class="st0" d="M3.6,193.3c-0.8-0.8-1.4-1.6-2-2.4c-1.1,2.4-1.6,4.9-1.7,6.9c0.1,0.2,0.1,0.3,0.2,0.4
									c0.6,0.8,1.3,1.5,2,2.1C2.1,198.7,2.3,196,3.6,193.3z"/>
							</g>
						</g>
						<g id="shape1284-10_1_" transform="translate(3.29213,-8.97695)">
							<path class="st0" d="M4.9,192.8c-1.1,0.8-2.2,1.7-3.3,3c-0.6,0.7-1.1,1.4-1.6,2.1c0.5,0.8,1.1,1.6,1.9,2.5
								c0.6-0.9,1.3-1.7,2.2-2.6c1.1-1.1,2.2-1.9,3.1-2.6C6.4,194.4,5.7,193.6,4.9,192.8z"/>
						</g>
						<g id="group1285-12_1_" transform="translate(9.93516,-15.1958)">
							<g id="shape1286-13_1_">
								<path class="st0" d="M9.8,198.2c-0.5-0.7-1.1-1.3-1.7-1.8c-1.9-0.3-4.7-0.3-8,1.5c0.8,0.8,1.5,1.6,2.2,2.4
									C6.6,197.9,9.8,198.2,9.8,198.2z"/>
							</g>
						</g>
						<g id="group1287-15_1_" transform="translate(1.10162E-13,-9.38012)">
							<g id="shape1288-16_1_">
								<path class="st0" d="M2.1,200.3c0.3-0.7,0.7-1.4,1.2-2.1c-1.9-3.1-1.8-5.6-1.6-6.8c-0.5,0.5-0.9,1-1.3,1.6
									C0,194.7,0,197.2,2.1,200.3z"/>
							</g>
						</g>
						<g id="group1289-18_1_" transform="translate(4.05148,-0.740211)">
							<g id="shape1290-19_1_">
								<path class="st0" d="M3.4,194.2c-0.9-0.7-1.6-1.4-2.3-2.1c-0.5,0.7-0.8,1.3-1.1,1.9c0.6,0.6,1.3,1.3,2.1,1.9
									c4.9,4,9.8,4.4,12.6,4.4c0.2,0,1-1.2,1.5-1.9C15,198.6,9.7,199.3,3.4,194.2z"/>
							</g>
						</g>
						<g id="group1291-21_1_" transform="translate(2.10339,-7.03041)">
							<g id="shape1292-22_1_">
								<path class="st0" d="M0,198c0.5,0.8,1.1,1.5,2,2.4c0.3-0.6,0.7-1.3,1.1-1.9c-0.8-0.9-1.4-1.7-1.9-2.5
									C0.7,196.6,0.3,197.3,0,198z"/>
							</g>
						</g>
						<g id="group1293-24_1_" transform="translate(10.5195,-5.3233)">
							<g id="shape1294-25_1_">
								<path class="st0" d="M0,191.5c4.5,4.3,9.8,7.9,11.1,8.8c0.1-0.4,0.2-0.7,0.3-1.1c-1.4-1.1-5.3-4.2-9.8-8.8
									C1.1,190.7,0.6,191.1,0,191.5z"/>
							</g>
						</g>
						<g id="group1295-27_1_" transform="translate(4.98729,-16.4714)">
							<g id="shape1296-28_1_">
								<path class="st0" d="M4.9,199.2c-1.1-1.2-2.2-2.4-3.4-3.8c-0.6,0.2-1.1,0.4-1.6,0.7c0.8,1.4,2,2.8,3.2,4.2
									C3.8,199.9,4.4,199.5,4.9,199.2z"/>
							</g>
						</g>
						<g id="shape1297-30_1_" transform="translate(8.13763,-14.0503)">
							<path class="st0" d="M1.9,196.8c-0.6,0.3-1.3,0.8-1.9,1.2c0.7,0.8,1.5,1.6,2.3,2.4c0.6-0.4,1.3-0.9,1.9-1.2
								C3.4,198.4,2.6,197.6,1.9,196.8z"/>
						</g>
						<g id="shape1298-32_1_" transform="translate(8.1369,-14.0039)">
							<path class="st0" d="M1.7,196.6c-0.6,0.3-1.1,0.7-1.7,1.1c0.7,0.8,1.7,1.8,2.5,2.6c0.6-0.4,1-0.8,1.6-1.1
								C3.4,198.5,2.4,197.4,1.7,196.6z"/>
						</g>
					</g>
					<g id="group1299-34_1_" transform="translate(14.8617,-6.23662)">
						<g id="shape1300-35_1_">
							<path class="st0" d="M1.3,195.2c-1.1,0.9-1.3,2.6-0.5,3.7c0.9,1.2,2.5,1.4,3.6,0.5s1.3-2.6,0.5-3.7S2.5,194.3,1.3,195.2z"/>
						</g>
					</g>
					<g id="group1301-37_1_" transform="translate(9.65099,-2.27374E-13)">
						<g id="shape1302-38_1_">
							<path class="st0" d="M1.2,195.6c-1,0.8-1.2,2.4-0.4,3.4c0.8,1.1,2.3,1.3,3.4,0.4c1-0.8,1.2-2.4,0.4-3.4S2.3,194.8,1.2,195.6z
								"/>
						</g>
					</g>
					<g id="group1303-40_1_" transform="translate(0,-5.36433)">
						<g id="shape1304-41_1_">
							<path class="st0" d="M1.9,193.1c-1.6,1.3-1.9,3.6-0.7,5.2c1.2,1.6,3.5,1.9,5.1,0.7s1.9-3.6,0.7-5.2
								C5.8,192.2,3.5,191.9,1.9,193.1z"/>
						</g>
					</g>
				</g>
				<g class="st5">
					<path d="M1,209v0.5c0.4,0.3,1.2,1.4,1.4,1.7L2,211.7c-0.2-0.3-0.6-1-1-1.4v3.9H0.3v-4c-0.4,1-0.9,2-1.3,2.6
						c-0.1-0.2-0.3-0.5-0.4-0.6c0.6-0.7,1.2-2,1.6-3.1h-1.4v-0.6h1.6v-3.5l0.8,0.1c0,0.1-0.1,0.1-0.2,0.1v3.3h1.4v0.6H1z
						 M-0.6,205.6c0.3,0.7,0.5,1.6,0.6,2.2l-0.5,0.1c0-0.6-0.2-1.5-0.5-2.2L-0.6,205.6z M2.7,205.7c0,0.1-0.1,0.1-0.2,0.1
						c-0.2,0.6-0.5,1.5-0.8,2.1c-0.1,0-0.4-0.1-0.5-0.2c0.3-0.6,0.6-1.6,0.7-2.2L2.7,205.7z M5.5,208.3H8v0.6H2.6v-0.6h2.2v-0.7H3
						v-0.5h1.8v-0.7H2.7v-0.5h2.1v-1l0.9,0c0,0.1-0.1,0.1-0.2,0.1v0.8h2.2v0.5H5.5v0.7h1.9v0.5H5.5V208.3z M7.3,209.5v3.9
						c0,0.7-0.3,0.7-1.7,0.7c0-0.2-0.1-0.4-0.2-0.5c0.3,0,0.6,0,0.7,0c0.4,0,0.5,0,0.5-0.2v-0.8H3.7v1.5H3.1v-4.6H7.3z M6.6,210.1
						H3.7v0.7h2.9V210.1z M3.7,212.1h2.9v-0.7H3.7V212.1z"/>
					<path d="M13.7,213.4h4.2v0.5H8.8v-0.5H13v-2H9.5v-0.5h7.8v0.5h-3.6V213.4z M9.7,206.7v1.2H9.1v-1.6H13v-0.5H9.7v-0.5H17v0.5
						h-3.4v0.5h4v1.6H17v-1.2h-3.4v1.9H13v-1.9H9.7z M12.3,213.3c-0.3-0.2-0.8-0.6-1.2-0.8c-0.3,0.3-0.7,0.6-1.1,0.9
						c-0.1-0.1-0.2-0.3-0.3-0.4c0.7-0.3,1.3-0.9,1.6-1.6l0.6,0.2c0,0.1-0.1,0.1-0.2,0.1c-0.1,0.2-0.2,0.3-0.3,0.5
						c0.4,0.2,0.9,0.5,1.2,0.8L12.3,213.3z M9.8,210.5v-1.6h2v1.6H9.8z M12.5,208.1v0.4H10v-0.4H12.5z M10.2,207.2h2.2v0.4h-2.2
						V207.2z M10.3,209.3v0.8h0.9v-0.8H10.3z M14.3,208.9v1.6h-2v-1.6H14.3z M13.8,210.1v-0.8h-0.9v0.8H13.8z M16.7,213.4
						c-0.3-0.3-0.9-0.6-1.4-0.8c-0.3,0.4-0.6,0.6-1,0.8c-0.1-0.1-0.2-0.3-0.3-0.4c0.6-0.3,1.1-0.8,1.3-1.5l0.7,0.1
						c0,0-0.1,0.1-0.2,0.1c0,0.2-0.1,0.3-0.2,0.5c0.5,0.2,1.1,0.5,1.4,0.8L16.7,213.4z M14.2,207.2h2.3v0.4h-2.3V207.2z M16.8,208.1
						v0.4h-2.6v-0.4H16.8z M17,208.9v1.6h-2v-1.6H17z M16.5,210.1v-0.8h-1v0.8H16.5z"/>
				</g>
				<g class="st5">
					<path d="M3.7,225.1c0,0,0,0.1-0.1,0.1c0,0-0.1,0-0.1,0.1c0,0-0.1,0-0.2,0s-0.1,0-0.2,0c-0.1,0-0.2,0-0.3,0s-0.1,0-0.2,0
						c0,0-0.1,0-0.1-0.1c0,0,0-0.1-0.1-0.1l-1.3-4.8h0l-1.2,4.8c0,0,0,0.1,0,0.1c0,0-0.1,0-0.1,0.1c0,0-0.1,0-0.2,0s-0.2,0-0.3,0
						c-0.1,0-0.2,0-0.3,0s-0.1,0-0.2,0c0,0-0.1,0-0.1-0.1c0,0,0-0.1-0.1-0.1l-1.7-5.8c0-0.1,0-0.1,0-0.2s0-0.1,0-0.1s0.1,0,0.1,0
						s0.1,0,0.2,0c0.1,0,0.2,0,0.2,0c0.1,0,0.1,0,0.1,0s0.1,0,0.1,0.1s0,0.1,0,0.1l1.4,5.3h0l1.3-5.3c0,0,0-0.1,0-0.1
						c0,0,0,0,0.1-0.1s0.1,0,0.1,0s0.1,0,0.2,0c0.1,0,0.2,0,0.2,0s0.1,0,0.1,0s0.1,0,0.1,0.1c0,0,0,0.1,0,0.1l1.5,5.3h0l1.4-5.3
						c0,0,0-0.1,0-0.1c0,0,0,0,0.1-0.1s0.1,0,0.1,0s0.1,0,0.2,0c0.1,0,0.2,0,0.2,0c0.1,0,0.1,0,0.1,0s0,0.1,0,0.1s0,0.1,0,0.2
						L3.7,225.1z"/>
					<path d="M9.8,222.8c0,0.1,0,0.2-0.1,0.3c-0.1,0.1-0.1,0.1-0.2,0.1H6.6c0,0.2,0,0.5,0.1,0.7c0,0.2,0.1,0.4,0.2,0.5
						c0.1,0.1,0.3,0.2,0.4,0.3c0.2,0.1,0.4,0.1,0.7,0.1c0.2,0,0.4,0,0.6-0.1c0.2,0,0.3-0.1,0.4-0.1c0.1,0,0.2-0.1,0.3-0.1
						c0.1,0,0.1-0.1,0.2-0.1c0,0,0,0,0.1,0c0,0,0,0,0,0.1s0,0.1,0,0.1c0,0,0,0.1,0,0.1c0,0,0,0.1,0,0.1c0,0,0,0.1,0,0.1
						c0,0,0,0,0,0.1s0,0,0,0.1c0,0-0.1,0-0.2,0.1c-0.1,0-0.2,0.1-0.3,0.1s-0.3,0.1-0.5,0.1c-0.2,0-0.4,0-0.6,0
						c-0.4,0-0.7-0.1-0.9-0.2s-0.5-0.3-0.7-0.4S6,224.3,5.9,224s-0.1-0.6-0.1-1c0-0.4,0-0.7,0.1-1c0.1-0.3,0.2-0.6,0.4-0.8
						c0.2-0.2,0.4-0.4,0.7-0.5c0.3-0.1,0.6-0.2,0.9-0.2c0.3,0,0.6,0.1,0.9,0.2s0.4,0.3,0.6,0.4c0.2,0.2,0.3,0.4,0.3,0.7
						c0.1,0.3,0.1,0.5,0.1,0.8V222.8z M9,222.6c0-0.4-0.1-0.8-0.3-1c-0.2-0.2-0.5-0.4-0.9-0.4c-0.2,0-0.4,0-0.5,0.1
						c-0.2,0.1-0.3,0.2-0.4,0.3s-0.2,0.3-0.2,0.4c-0.1,0.2-0.1,0.3-0.1,0.5H9z"/>
					<path d="M15.1,222.9c0,0.4,0,0.7-0.1,1c-0.1,0.3-0.2,0.6-0.4,0.8s-0.4,0.4-0.6,0.5s-0.5,0.2-0.8,0.2c-0.1,0-0.3,0-0.4,0
						c-0.1,0-0.2-0.1-0.3-0.1s-0.2-0.1-0.3-0.2s-0.2-0.2-0.4-0.3v0.5c0,0,0,0,0,0.1s0,0-0.1,0c0,0-0.1,0-0.1,0s-0.1,0-0.2,0
						c-0.1,0-0.1,0-0.2,0s-0.1,0-0.1,0c0,0,0,0-0.1,0s0,0,0-0.1v-6.5c0,0,0,0,0-0.1s0,0,0.1,0s0.1,0,0.1,0s0.1,0,0.2,0
						c0.1,0,0.1,0,0.2,0s0.1,0,0.1,0s0.1,0,0.1,0s0,0,0,0.1v2.6c0.1-0.1,0.3-0.2,0.4-0.3s0.2-0.2,0.4-0.2c0.1-0.1,0.2-0.1,0.4-0.1
						s0.2,0,0.4,0c0.3,0,0.6,0.1,0.8,0.2s0.4,0.3,0.6,0.5c0.1,0.2,0.2,0.5,0.3,0.7S15.1,222.6,15.1,222.9z M14.2,223
						c0-0.2,0-0.4-0.1-0.7c0-0.2-0.1-0.4-0.2-0.6s-0.2-0.3-0.3-0.4c-0.1-0.1-0.3-0.1-0.5-0.1c-0.1,0-0.2,0-0.3,0
						c-0.1,0-0.2,0.1-0.3,0.1c-0.1,0.1-0.2,0.2-0.3,0.3c-0.1,0.1-0.2,0.2-0.4,0.4v1.8c0.2,0.3,0.4,0.5,0.6,0.6
						c0.2,0.1,0.4,0.2,0.6,0.2c0.2,0,0.4,0,0.5-0.1c0.1-0.1,0.3-0.2,0.4-0.4c0.1-0.2,0.2-0.3,0.2-0.5
						C14.2,223.4,14.2,223.2,14.2,223z"/>
					<path d="M19.5,220.8c0.7-0.6,1.4-1.5,1.9-2.5l0.7,0.3c0,0.1-0.1,0.1-0.2,0.1c-0.2,0.4-0.4,0.7-0.7,1.1c0.2,0,0.3,0.1,0.3,0.1
						c0,0.1-0.1,0.1-0.2,0.1v3.1h-0.6v-2.7c-0.3,0.3-0.6,0.7-0.9,0.9c-0.1-0.1-0.2-0.3-0.3-0.4c0,1.6-0.1,3.7-0.9,5.2
						c-0.1-0.1-0.4-0.3-0.5-0.4c0.7-1.5,0.8-3.5,0.8-5v-3.1h3.9v-0.8l0.9,0.1c0,0.1-0.1,0.1-0.2,0.1v0.6h3.9v0.6h-7.9V220.8z
						 M21.3,223.9c-0.2,0.7-0.6,1.5-1.2,2l-0.5-0.3c0.6-0.4,0.9-1.1,1.1-1.8L21.3,223.9z M22.6,222.9v-2.5c-0.2,0.3-0.4,0.5-0.6,0.7
						c-0.1-0.1-0.3-0.3-0.4-0.4c0.6-0.6,1.2-1.5,1.6-2.4l0.7,0.2c0,0.1-0.1,0.1-0.2,0.1c-0.1,0.2-0.2,0.4-0.3,0.6h1.2
						c0.2-0.3,0.3-0.6,0.4-0.9l0.7,0.2c0,0.1-0.1,0.1-0.2,0.1c-0.1,0.2-0.2,0.4-0.3,0.6H27v0.5h-1.9v0.6h1.7v0.4h-1.7v0.6h1.7v0.4
						h-1.7v0.6h2.1v0.5H22.6z M22.5,225.2c0,0.2,0.1,0.3,0.5,0.3h1.6c0.3,0,0.4-0.1,0.4-0.9c0.1,0.1,0.4,0.2,0.6,0.2
						c-0.1,1-0.3,1.2-1,1.2H23c-0.9,0-1.1-0.2-1.1-0.8v-1.5l0.8,0.1c0,0.1-0.1,0.1-0.2,0.1V225.2z M22.8,222.9
						c0.6,0.3,1.4,0.7,1.7,1l-0.4,0.4c-0.4-0.3-1.1-0.8-1.7-1.1L22.8,222.9z M24.5,220.3v-0.6h-1.3v0.6H24.5z M24.5,221.3v-0.6h-1.3
						v0.6H24.5z M24.5,222.4v-0.6h-1.3v0.6H24.5z M26.8,225.9c-0.3-0.6-0.9-1.4-1.5-2l0.5-0.3c0.6,0.6,1.3,1.4,1.5,2L26.8,225.9z"/>
					<path d="M36.7,217.6v7.6c0,0.9-0.4,0.9-2.3,0.9c0-0.2-0.1-0.5-0.2-0.7c0.4,0,0.7,0,1,0c0.8,0,0.9,0,0.9-0.3V223h-2.9v3h-0.6v-3
						h-2.6c-0.1,1.1-0.5,2.3-1.3,3.2c-0.1-0.1-0.4-0.4-0.5-0.4c1.1-1.3,1.2-3.1,1.2-4.5v-3.7H36.7z M30,221.3c0,0.4,0,0.7,0,1.1h2.6
						v-1.7H30V221.3z M32.5,218.2H30v1.8h2.5V218.2z M36,220v-1.8h-2.9v1.8H36z M33.1,222.4H36v-1.7h-2.9V222.4z"/>
					<path d="M40.5,221.1c0.3,0.3,1.2,1.3,1.4,1.5l-0.4,0.5c-0.2-0.3-0.7-0.9-1-1.4v4.4h-0.7v-4.7c-0.4,1.1-0.9,2.2-1.4,2.9
						c-0.1-0.2-0.2-0.4-0.4-0.6c0.6-0.7,1.2-2.1,1.6-3.3h-1.5v-0.6h1.6v-1.7c-0.5,0.1-1,0.3-1.5,0.4c0-0.1-0.1-0.4-0.2-0.5
						c1.2-0.3,2.5-0.7,3.2-1.1l0.6,0.5c0,0-0.1,0-0.1,0c0,0-0.1,0-0.1,0c-0.3,0.2-0.8,0.4-1.3,0.5v1.9h1.4v0.6h-1.4V221.1z
						 M44.9,225.3h2.6v0.6h-5.8v-0.6h2.6v-1.4h-2v-0.6h2V222H42v-0.6h5.2v0.6h-2.3v1.3h2.1v0.6h-2.1V225.3z M46.8,217.3v3.2h-4.5
						v-3.2H46.8z M46.2,220v-2H43v2H46.2z"/>
					<path d="M57.3,219.4h-3c0.3,3.2,1,6,2.1,6c0.3,0,0.4-0.6,0.5-1.9c0.2,0.2,0.4,0.3,0.6,0.4c-0.1,1.8-0.4,2.3-1.1,2.3
						c-1.6,0-2.5-3.1-2.8-6.7h-5.3v-0.7h5.3c0-0.6,0-1.2-0.1-1.9l0.9,0c0,0.1-0.1,0.1-0.2,0.2c0,0.6,0,1.1,0,1.7h3V219.4z
						 M51.2,221.7v3c0.7-0.2,1.5-0.3,2.2-0.5l0.1,0.6c-1.7,0.4-3.5,0.9-4.7,1.1c0,0.1-0.1,0.1-0.1,0.2l-0.3-0.8
						c0.6-0.1,1.3-0.3,2.2-0.4v-3.1h-1.9V221h4.5v0.6H51.2z M55.4,216.9c0.5,0.4,1.2,0.9,1.5,1.2l-0.5,0.4c-0.3-0.4-0.9-0.9-1.5-1.3
						L55.4,216.9z"/>
				</g>
			</g>
			<g id="shape1305-46" transform="translate(233.067,-95.7592)">
				<path class="st0" d="M21.6,174.8H1.1c-0.6,0-1.1,0.5-1.1,1.1v16.8c0,0.6,0.5,1.1,1.1,1.1h5.3c0.4,1.3,1.7,2.3,3.2,2.3
					c1.8,0,3.3-1.5,3.3-3.4s-1.5-3.4-3.3-3.4c-1.5,0-2.8,0.9-3.2,2.3H2.2v-12h18.3v12H17c-0.5-3.7-3.7-6.6-7.5-6.6
					c-1.3,0-2.5,0.4-3.6,0.9l1,2c0.7-0.4,1.7-0.7,2.6-0.7c2.9,0,5.4,2.5,5.4,5.5s-2.4,5.4-5.4,5.4c-0.9,0-1.8-0.2-2.6-0.7l-1,2
					c1.1,0.6,2.4,0.9,3.6,0.9c3.8,0,7-2.9,7.5-6.6h4.5c0.6,0,1.1-0.5,1.1-1.1v-16.8C22.7,175.3,22.2,174.8,21.6,174.8z"/>
				<g class="st5">
					<path d="M-3.3,209v0.5c0.4,0.3,1.2,1.4,1.4,1.7l-0.4,0.5c-0.2-0.3-0.6-1-1-1.4v3.9h-0.6v-4c-0.4,1-0.9,2-1.3,2.6
						c-0.1-0.2-0.3-0.5-0.4-0.6c0.6-0.7,1.2-2,1.6-3.1h-1.4v-0.6h1.6v-3.5l0.8,0.1c0,0.1-0.1,0.1-0.2,0.1v3.3h1.4v0.6H-3.3z
						 M-4.9,205.6c0.3,0.7,0.5,1.6,0.6,2.2l-0.5,0.1c0-0.6-0.2-1.5-0.5-2.2L-4.9,205.6z M-1.6,205.7c0,0.1-0.1,0.1-0.2,0.1
						c-0.2,0.6-0.5,1.5-0.8,2.1c-0.1,0-0.4-0.1-0.5-0.2c0.3-0.6,0.6-1.6,0.7-2.2L-1.6,205.7z M1.2,208.3h2.5v0.6h-5.3v-0.6h2.2v-0.7
						h-1.8v-0.5h1.8v-0.7h-2.1v-0.5h2.1v-1l0.9,0c0,0.1-0.1,0.1-0.2,0.1v0.8h2.2v0.5H1.2v0.7h1.9v0.5H1.2V208.3z M3,209.5v3.9
						c0,0.7-0.3,0.7-1.7,0.7c0-0.2-0.1-0.4-0.2-0.5c0.3,0,0.6,0,0.8,0c0.4,0,0.5,0,0.5-0.2v-0.8h-2.9v1.5h-0.6v-4.6H3z M2.4,210.1
						h-2.9v0.7h2.9V210.1z M-0.5,212.1h2.9v-0.7h-2.9V212.1z"/>
					<path d="M9.4,213.4h4.2v0.5H4.6v-0.5h4.2v-2H5.2v-0.5H13v0.5H9.4V213.4z M5.4,206.7v1.2H4.9v-1.6h3.9v-0.5H5.5v-0.5h7.3v0.5
						H9.4v0.5h4v1.6h-0.6v-1.2H9.4v1.9H8.8v-1.9H5.4z M8.1,213.4c-0.3-0.2-0.8-0.6-1.2-0.8c-0.3,0.3-0.7,0.6-1.1,0.9
						c-0.1-0.1-0.2-0.3-0.3-0.4c0.7-0.3,1.3-0.9,1.6-1.6l0.7,0.2c0,0.1-0.1,0.1-0.2,0.1c-0.1,0.2-0.2,0.3-0.3,0.5
						c0.4,0.2,0.9,0.5,1.2,0.8L8.1,213.4z M5.5,210.5v-1.6h2v1.6H5.5z M8.2,208.1v0.4H5.7v-0.4H8.2z M6,207.2h2.2v0.4H6V207.2z
						 M6,209.3v0.8h0.9v-0.8H6z M10.1,208.9v1.6h-2v-1.6H10.1z M9.6,210.1v-0.8H8.6v0.8H9.6z M12.4,213.4c-0.3-0.3-0.9-0.6-1.4-0.8
						c-0.3,0.4-0.6,0.6-1,0.8c-0.1-0.1-0.2-0.3-0.3-0.4c0.6-0.3,1.1-0.8,1.3-1.5l0.7,0.1c0,0-0.1,0.1-0.2,0.1c0,0.2-0.1,0.3-0.2,0.5
						c0.5,0.2,1.1,0.5,1.4,0.8L12.4,213.4z M9.9,207.2h2.3v0.4H9.9V207.2z M12.5,208.1v0.4H9.9v-0.4H12.5z M12.7,208.9v1.6h-2v-1.6
						H12.7z M12.2,210.1v-0.8h-1v0.8H12.2z"/>
				</g>
				<g class="st5">
					<path d="M0.9,225c0,0.1,0,0.1,0,0.2c0,0,0,0.1,0,0.1c0,0-0.1,0-0.1,0c-0.1,0-0.1,0-0.2,0c-0.1,0-0.2,0-0.2,0
						c-0.1,0-0.1,0-0.1,0c0,0-0.1,0-0.1,0s0,0,0-0.1l-0.5-1.5h-2.6l-0.5,1.5c0,0,0,0.1,0,0.1c0,0,0,0-0.1,0.1c0,0-0.1,0-0.1,0
						c-0.1,0-0.1,0-0.2,0c-0.1,0-0.2,0-0.2,0c-0.1,0-0.1,0-0.1,0s0-0.1,0-0.1c0,0,0-0.1,0-0.2l2.1-5.9c0,0,0-0.1,0.1-0.1
						c0,0,0.1,0,0.1-0.1c0,0,0.1,0,0.2,0c0.1,0,0.1,0,0.2,0c0.1,0,0.2,0,0.3,0c0.1,0,0.1,0,0.2,0c0,0,0.1,0,0.1,0.1
						c0,0,0,0.1,0.1,0.1L0.9,225z M-1.8,219.8L-1.8,219.8l-1.1,3.1h2.2L-1.8,219.8z"/>
					<path d="M5.8,220.8c0,0.3-0.1,0.6-0.2,0.9c-0.1,0.3-0.3,0.5-0.4,0.6c-0.2,0.2-0.4,0.3-0.7,0.4c-0.3,0.1-0.6,0.1-1,0.1H2.8v2.3
						c0,0,0,0,0,0.1s0,0-0.1,0c0,0-0.1,0-0.1,0c-0.1,0-0.1,0-0.2,0c-0.1,0-0.1,0-0.2,0c-0.1,0-0.1,0-0.1,0c0,0-0.1,0-0.1,0
						c0,0,0,0,0-0.1v-5.8c0-0.1,0-0.2,0.1-0.3c0.1-0.1,0.1-0.1,0.2-0.1h1.4c0.1,0,0.3,0,0.4,0c0.1,0,0.3,0,0.4,0.1
						c0.2,0,0.3,0.1,0.5,0.2c0.2,0.1,0.3,0.2,0.5,0.4c0.1,0.1,0.2,0.3,0.3,0.5C5.8,220.4,5.8,220.6,5.8,220.8z M4.9,220.9
						c0-0.3,0-0.5-0.1-0.6c-0.1-0.2-0.2-0.3-0.4-0.4s-0.3-0.1-0.4-0.2c-0.2,0-0.3,0-0.4,0H2.8v2.5h0.8c0.3,0,0.5,0,0.6-0.1
						c0.2-0.1,0.3-0.2,0.4-0.3c0.1-0.1,0.2-0.3,0.3-0.4C4.9,221.3,4.9,221.1,4.9,220.9z"/>
					<path d="M8,225.2C8,225.2,7.9,225.2,8,225.2c0,0.1-0.1,0.1-0.1,0.1c0,0-0.1,0-0.1,0c-0.1,0-0.1,0-0.2,0c-0.1,0-0.1,0-0.2,0
						c-0.1,0-0.1,0-0.1,0c0,0-0.1,0-0.1,0c0,0,0,0,0-0.1v-6.1c0,0,0,0,0-0.1s0,0,0.1,0c0,0,0.1,0,0.1,0c0.1,0,0.1,0,0.2,0
						c0.1,0,0.1,0,0.2,0c0.1,0,0.1,0,0.1,0c0,0,0.1,0,0.1,0c0,0,0,0,0,0.1V225.2z"/>
					<path d="M12.7,220.8c0.7-0.6,1.4-1.5,1.9-2.5l0.7,0.3c0,0.1-0.1,0.1-0.2,0.1c-0.2,0.4-0.4,0.7-0.7,1.1c0.2,0,0.3,0.1,0.3,0.1
						c0,0.1-0.1,0.1-0.2,0.1v3.1H14v-2.7c-0.3,0.3-0.6,0.7-0.9,0.9c-0.1-0.1-0.2-0.3-0.3-0.4c0,1.6-0.2,3.7-0.9,5.2
						c-0.1-0.1-0.4-0.3-0.5-0.4c0.7-1.5,0.8-3.5,0.8-5v-3.1H16v-0.8l0.9,0.1c0,0.1-0.1,0.1-0.2,0.1v0.6h3.9v0.6h-7.9V220.8z
						 M14.6,223.9c-0.2,0.7-0.6,1.5-1.2,2l-0.5-0.3c0.6-0.4,0.9-1.1,1.1-1.8L14.6,223.9z M15.8,222.9v-2.5c-0.2,0.3-0.4,0.5-0.6,0.7
						c-0.1-0.1-0.3-0.3-0.4-0.4c0.6-0.6,1.2-1.5,1.6-2.4l0.7,0.2c0,0.1-0.1,0.1-0.2,0.1c-0.1,0.2-0.2,0.4-0.3,0.6h1.2
						c0.2-0.3,0.3-0.6,0.4-0.9l0.7,0.2c0,0.1-0.1,0.1-0.2,0.1c-0.1,0.2-0.2,0.4-0.3,0.6h1.9v0.5h-1.9v0.6H20v0.4h-1.7v0.6H20v0.4
						h-1.7v0.6h2.1v0.5H15.8z M15.8,225.2c0,0.2,0.1,0.3,0.5,0.3h1.6c0.3,0,0.4-0.1,0.5-0.9c0.1,0.1,0.4,0.2,0.6,0.2
						c-0.1,1-0.3,1.2-1,1.2h-1.7c-0.9,0-1.1-0.2-1.1-0.8v-1.5l0.8,0.1c0,0.1-0.1,0.1-0.2,0.1V225.2z M16.1,222.9
						c0.6,0.3,1.4,0.7,1.7,1l-0.4,0.4c-0.4-0.3-1.1-0.8-1.7-1.1L16.1,222.9z M17.7,220.3v-0.6h-1.3v0.6H17.7z M17.7,221.3v-0.6h-1.3
						v0.6H17.7z M17.7,222.4v-0.6h-1.3v0.6H17.7z M20.1,225.9c-0.3-0.6-0.9-1.4-1.5-2l0.5-0.3c0.6,0.6,1.3,1.4,1.5,2L20.1,225.9z"/>
					<path d="M30,217.6v7.6c0,0.9-0.4,0.9-2.3,0.9c0-0.2-0.1-0.5-0.2-0.7c0.4,0,0.7,0,1,0c0.8,0,0.9,0,0.9-0.3V223h-2.9v3h-0.7v-3
						h-2.6c-0.2,1.1-0.5,2.3-1.3,3.2c-0.1-0.1-0.4-0.4-0.5-0.4c1.1-1.3,1.2-3.1,1.2-4.5v-3.7H30z M23.2,221.3c0,0.4,0,0.7,0,1.1h2.6
						v-1.7h-2.5V221.3z M25.8,218.2h-2.5v1.8h2.5V218.2z M29.3,220v-1.8h-2.9v1.8H29.3z M26.4,222.4h2.9v-1.7h-2.9V222.4z"/>
					<path d="M33.8,221.1c0.3,0.3,1.2,1.3,1.4,1.5l-0.4,0.5c-0.2-0.3-0.7-0.9-1-1.4v4.4h-0.7v-4.7c-0.4,1.1-0.9,2.2-1.4,2.9
						c-0.1-0.2-0.3-0.4-0.4-0.6c0.6-0.7,1.2-2.1,1.6-3.3h-1.5v-0.6h1.6v-1.7c-0.5,0.1-1,0.3-1.5,0.4c0-0.1-0.1-0.4-0.2-0.5
						c1.2-0.3,2.5-0.7,3.2-1.1l0.6,0.5c0,0-0.1,0-0.1,0c0,0-0.1,0-0.1,0c-0.3,0.2-0.8,0.4-1.3,0.5v1.9h1.4v0.6h-1.4V221.1z
						 M38.1,225.3h2.6v0.6h-5.8v-0.6h2.6v-1.4h-2v-0.6h2V222h-2.2v-0.6h5.2v0.6h-2.3v1.3h2.1v0.6h-2.1V225.3z M40.1,217.3v3.2h-4.5
						v-3.2H40.1z M39.4,220v-2h-3.2v2H39.4z"/>
				</g>
			</g>
			<g id="group1317-50" transform="translate(57.6226,-93.562)">
				<g id="shape1318-51_1_">
					<path class="st1" d="M15,199.5H0.8v-28.4H15v7.7h0.8v-8.4H0v29.9h15.7V198H15V199.5z"/>
				</g>
				<g id="shape1319-53_1_" transform="translate(1.5606,-23.7593)">
					<path class="st1" d="M12.6,195.7H0v4.6h12.6V195.7z M3.1,197.6h6.5v0.8H3.1V197.6z M9.6,199.5L9.6,199.5H3.1H3v-0.8h0.1h6.4
						h0.1V199.5z"/>
				</g>
				<g id="shape1320-55_1_" transform="translate(1.52875,-19.9374)">
					<path class="st1" d="M0,197.2v3.1h8.6v-1.5h4.1v-1.5H0V197.2z"/>
				</g>
				<g id="shape1321-57_1_" transform="translate(1.52875,-16.4978)">
					<rect x="0" y="197.6" class="st1" width="8.6" height="2.7"/>
				</g>
				<g id="shape1322-59_1_" transform="translate(1.4969,-1.52875)">
					<path class="st1" d="M0,200.3h12.6v-0.8h-4v-13.4H0V200.3L0,200.3z M1.6,197.6h2.3v1.2H1.6V197.6z"/>
				</g>
				<g id="shape1323-61_1_" transform="translate(16.02,-3.43969)">
					<path class="st1" d="M8.7,199.2H6.3v-1.9H3.8v1.9H1.3c-0.7,0-1.3,0.6-1.3,1.2h10C10.1,199.7,9.4,199.2,8.7,199.2z"/>
				</g>
				<g id="shape1324-63_1_" transform="translate(11.816,-7.22971)">
					<path class="st1" d="M17.8,189H0.7c-0.3,0-0.7,0.3-0.7,0.6v10.1c0,0.3,0.3,0.6,0.7,0.6h17.1c0.4,0,0.7-0.3,0.7-0.6v-10.1
						C18.4,189.2,18.1,189,17.8,189z M16.8,198.8H1.7v-8.3h15.1L16.8,198.8z"/>
				</g>
				<g id="shape1325-65_1_" transform="translate(17.931,-9.36359)">
					<path class="st1" d="M7,198.5V195l-3.5-1.8L0,195v3.5l3.5,1.8L7,198.5z M2.6,196.2l0.9-0.4l0.9,0.4l-0.9,0.5L2.6,196.2z
						 M2.6,195l0.9-0.4l0.9,0.4l-0.9,0.5L2.6,195z M4.5,199.5l-1,0.5v-0.9l1-0.5V199.5z M4.5,198.4l-1,0.5V198l1-0.5V198.4z
						 M4.5,197.2l-1,0.5v-0.9l1-0.5V197.2z M3.7,195.6l0.9-0.4l0.9,0.4L4.6,196L3.7,195.6z M5.7,198.9l-0.9,0.5v-0.9l0.9-0.5V198.9z
						 M5.7,197.8l-0.9,0.5v-0.9l0.9-0.5V197.8z M5.7,196.6l-0.9,0.5v-0.9l0.9-0.5V196.6z M6.8,198.4l-0.9,0.4v-0.9l0.9-0.5V198.4z
						 M6.8,197.2l-0.9,0.4v-0.9l0.9-0.4V197.2z M6.8,196.1l-0.9,0.4v-0.9l0.9-0.4V196.1z M6.6,195l-0.9,0.5L4.8,195l0.9-0.4L6.6,195
						z M5.5,194.4l-0.9,0.4l-0.9-0.4l0.9-0.4L5.5,194.4z M3.5,193.4l0.9,0.4l-0.9,0.4l-0.9-0.4L3.5,193.4z M2.4,194l0.9,0.4
						l-0.9,0.4l-0.9-0.4L2.4,194z M1.3,194.6l0.9,0.4l-0.9,0.5L0.4,195L1.3,194.6z M1,198.8l-0.9-0.4v-0.9l0.9,0.4V198.8z M1,197.7
						l-0.9-0.4v-0.9l0.9,0.4V197.7z M1,196.5l-0.9-0.4v-0.9l0.9,0.4V196.5z M2.2,199.4l-1-0.5V198l1,0.5V199.4z M2.2,198.3l-1-0.5
						v-0.9l1,0.5V198.3z M2.2,197.1l-1-0.5v-0.9l1,0.5V197.1z M1.5,195.6l0.9-0.4l0.9,0.4l-0.9,0.5L1.5,195.6z M3.4,200.1l-1-0.5
						v-0.9l1,0.5V200.1z M3.4,198.9l-1-0.5v-0.9l1,0.5V198.9z M3.4,197.8l-1-0.5v-0.9l1,0.5V197.8z"/>
				</g>
				<g id="shape1317-67_1_">
					<g class="st5">
						<path d="M0.3,206.4v0.5c0.4,0.3,1.2,1.4,1.4,1.7l-0.4,0.5c-0.2-0.3-0.6-1-1-1.4v3.9h-0.6v-4c-0.4,1-0.9,2-1.3,2.6
							c-0.1-0.2-0.3-0.5-0.4-0.6c0.6-0.7,1.2-2,1.6-3.1h-1.4v-0.6h1.6v-3.5l0.8,0.1c0,0.1-0.1,0.1-0.2,0.1v3.3h1.4v0.6H0.3z
							 M-1.3,202.9c0.3,0.7,0.5,1.6,0.6,2.2l-0.5,0.1c0-0.6-0.2-1.5-0.5-2.2L-1.3,202.9z M2,203.1c0,0.1-0.1,0.1-0.2,0.1
							c-0.2,0.6-0.5,1.5-0.8,2.1c-0.1,0-0.4-0.1-0.5-0.2c0.3-0.6,0.6-1.6,0.7-2.2L2,203.1z M4.8,205.7h2.5v0.6H1.9v-0.6h2.2V205H2.3
							v-0.5h1.8v-0.7H2v-0.5h2.1v-1l0.9,0c0,0.1-0.1,0.1-0.2,0.1v0.8H7v0.5H4.8v0.7h1.9v0.5H4.8V205.7z M6.6,206.9v3.9
							c0,0.7-0.3,0.7-1.7,0.7c0-0.2-0.1-0.4-0.2-0.5c0.3,0,0.6,0,0.7,0c0.4,0,0.5,0,0.5-0.2V210H3v1.5H2.4v-4.6H6.6z M5.9,207.4H3
							v0.7h2.9V207.4z M3,209.4h2.9v-0.7H3V209.4z"/>
						<path d="M13,210.8h4.2v0.5H8.1v-0.5h4.2v-2H8.8v-0.5h7.8v0.5H13V210.8z M9,204.1v1.2H8.4v-1.6h3.9v-0.5H9v-0.5h7.3v0.5H13v0.5
							h4v1.6h-0.6v-1.2H13v1.9h-0.6v-1.9H9z M11.6,210.7c-0.3-0.2-0.8-0.6-1.2-0.8c-0.3,0.3-0.7,0.6-1.1,0.9
							c-0.1-0.1-0.2-0.3-0.3-0.4c0.7-0.3,1.3-0.9,1.6-1.6l0.6,0.2c0,0.1-0.1,0.1-0.2,0.1c-0.1,0.2-0.2,0.3-0.3,0.5
							c0.4,0.2,0.9,0.5,1.2,0.8L11.6,210.7z M9.1,207.9v-1.6h2v1.6H9.1z M11.8,205.4v0.4H9.3v-0.4H11.8z M9.5,204.6h2.2v0.4H9.5
							V204.6z M9.6,206.7v0.8h0.9v-0.8H9.6z M13.7,206.3v1.6h-2v-1.6H13.7z M13.1,207.5v-0.8h-0.9v0.8H13.1z M16,210.7
							c-0.3-0.3-0.9-0.6-1.4-0.8c-0.3,0.4-0.6,0.6-1,0.8c-0.1-0.1-0.2-0.3-0.3-0.4c0.6-0.3,1.1-0.8,1.3-1.5l0.7,0.1
							c0,0-0.1,0.1-0.2,0.1c0,0.2-0.1,0.3-0.2,0.5c0.5,0.2,1.1,0.5,1.4,0.8L16,210.7z M13.5,204.6h2.3v0.4h-2.3V204.6z M16.1,205.4
							v0.4h-2.6v-0.4H16.1z M16.3,206.3v1.6h-2v-1.6H16.3z M15.8,207.5v-0.8h-1v0.8H15.8z"/>
					</g>
					<g class="st5">
						<path d="M-1.6,220.8h-3.6c0.9,0.9,2.3,1.6,3.7,1.9c-0.2,0.1-0.3,0.4-0.4,0.6c-1.4-0.4-3-1.3-3.9-2.4v2.6h-0.7v-2.6
							c-0.9,1.1-2.5,2-3.9,2.5c-0.1-0.2-0.3-0.4-0.4-0.5c1.3-0.4,2.8-1.1,3.7-2h-3.5v-0.6h4.1v-0.8h-2.9v-3.2h2.8v-2l0.9,0.1
							c0,0.1-0.1,0.1-0.2,0.1v0.6H-2v0.6h-3.9v0.7h3v3.2h-2.7c0,0-0.1,0.1-0.2,0.1v0.7h4.2V220.8z M-8.7,216.8v0.8h5.1v-0.8H-8.7z
							 M-8.7,218.1v0.8h5.1v-0.8H-8.7z"/>
						<path d="M8.4,215.6H4.2c0,0,0,0-0.1,0c-0.1,0.4-0.2,0.9-0.4,1.3h4.1v6.6H7.2V223H0.6v0.5h-0.7v-6.6h3.2
							c0.1-0.4,0.2-0.9,0.3-1.3h-4v-0.6h8.9V215.6z M0.6,217.5v4.8h1.7v-4.8H0.6z M4.8,218.7v-1.2h-2v1.2H4.8z M4.8,220.5v-1.2h-2
							v1.2H4.8z M2.9,221.1v1.3h2v-1.3H2.9z M7.2,222.3v-4.8H5.5v4.8H7.2z"/>
						<path d="M12.5,217.4h-1.4c-0.1,0.8-0.5,1.7-1.4,2.4c-0.1-0.1-0.3-0.4-0.5-0.5c0.8-0.5,1.1-1.2,1.3-1.9H9.3v-0.6h1.2v-1.5H9.6
							v-0.6H14v0.6h-0.9v1.5h1.1v0.6h-1.1v2.2h-0.6V217.4z M14.2,222.6h4.3v0.6H9.3v-0.6h4.2v-1.4h-3.2v-0.6h3.2v-1.3l0.9,0.1
							c0,0.1-0.1,0.1-0.2,0.1v1.1h3.2v0.6h-3.2V222.6z M11.1,215.2v1.5h1.3v-1.5H11.1z M15.7,214.8c0,0.1-0.1,0.1-0.2,0.1v3.3h-0.6
							v-3.5L15.7,214.8z M18.2,214.3c0,0.1-0.1,0.1-0.2,0.1v4.5c0,0.7-0.4,0.8-1.8,0.8c0-0.2-0.1-0.4-0.2-0.6c0.2,0,0.4,0,0.6,0
							c0.7,0,0.7,0,0.7-0.2v-4.7L18.2,214.3z"/>
						<path d="M20.6,218.2c0.7-0.6,1.4-1.5,1.9-2.5l0.7,0.3c0,0.1-0.1,0.1-0.2,0.1c-0.2,0.4-0.4,0.7-0.7,1.1c0.2,0,0.3,0.1,0.3,0.1
							c0,0.1-0.1,0.1-0.2,0.1v3.1h-0.6v-2.7c-0.3,0.3-0.6,0.7-0.9,0.9c-0.1-0.1-0.2-0.3-0.3-0.4c0,1.6-0.1,3.7-0.9,5.2
							c-0.1-0.1-0.4-0.3-0.5-0.4c0.7-1.5,0.8-3.5,0.8-5V215h3.9v-0.8l0.9,0.1c0,0.1-0.1,0.1-0.2,0.1v0.6h3.9v0.6h-7.9V218.2z
							 M22.4,221.3c-0.2,0.7-0.6,1.5-1.2,2l-0.5-0.3c0.6-0.4,0.9-1.1,1.1-1.8L22.4,221.3z M23.7,220.2v-2.5
							c-0.2,0.3-0.4,0.5-0.6,0.7c-0.1-0.1-0.3-0.3-0.4-0.4c0.6-0.6,1.2-1.5,1.6-2.4l0.7,0.2c0,0.1-0.1,0.1-0.2,0.1
							c-0.1,0.2-0.2,0.4-0.3,0.6h1.2c0.2-0.3,0.3-0.6,0.4-0.9l0.7,0.2c0,0.1-0.1,0.1-0.2,0.1c-0.1,0.2-0.2,0.4-0.3,0.6h1.9v0.5h-1.9
							v0.6h1.7v0.4h-1.7v0.6h1.7v0.4h-1.7v0.6h2.1v0.5H23.7z M23.6,222.6c0,0.2,0.1,0.3,0.5,0.3h1.6c0.3,0,0.4-0.1,0.4-0.9
							c0.1,0.1,0.4,0.2,0.6,0.2c-0.1,1-0.3,1.2-1,1.2h-1.7c-0.9,0-1.1-0.2-1.1-0.8v-1.5l0.8,0.1c0,0.1-0.1,0.1-0.2,0.1V222.6z
							 M23.9,220.3c0.6,0.3,1.4,0.7,1.7,1l-0.4,0.4c-0.4-0.3-1.1-0.8-1.7-1.1L23.9,220.3z M25.6,217.7v-0.6h-1.3v0.6H25.6z
							 M25.6,218.7v-0.6h-1.3v0.6H25.6z M25.6,219.7v-0.6h-1.3v0.6H25.6z M27.9,223.3c-0.3-0.6-0.9-1.4-1.5-2L27,221
							c0.6,0.6,1.3,1.4,1.5,2L27.9,223.3z"/>
						<path d="M37.8,214.9v7.6c0,0.9-0.4,0.9-2.3,0.9c0-0.2-0.1-0.5-0.2-0.7c0.4,0,0.7,0,1,0c0.8,0,0.9,0,0.9-0.3v-2.2h-2.9v3h-0.6
							v-3h-2.6c-0.1,1.1-0.5,2.3-1.3,3.2c-0.1-0.1-0.4-0.4-0.5-0.4c1.1-1.3,1.2-3.1,1.2-4.5v-3.7H37.8z M31,218.6c0,0.4,0,0.7,0,1.1
							h2.6V218H31V218.6z M33.6,215.6H31v1.8h2.5V215.6z M37.1,217.4v-1.8h-2.9v1.8H37.1z M34.2,219.7h2.9V218h-2.9V219.7z"/>
						<path d="M41.6,218.4c0.3,0.3,1.2,1.3,1.4,1.5l-0.4,0.5c-0.2-0.3-0.7-0.9-1-1.4v4.4h-0.7v-4.7c-0.4,1.1-0.9,2.2-1.4,2.9
							c-0.1-0.2-0.2-0.4-0.4-0.6c0.6-0.7,1.2-2.1,1.6-3.3h-1.5v-0.6h1.6v-1.7c-0.5,0.1-1,0.3-1.5,0.4c0-0.1-0.1-0.4-0.2-0.5
							c1.2-0.3,2.5-0.7,3.2-1.1l0.6,0.5c0,0-0.1,0-0.1,0c0,0-0.1,0-0.1,0c-0.3,0.2-0.8,0.4-1.3,0.5v1.9H43v0.6h-1.4V218.4z
							 M46,222.6h2.6v0.6h-5.8v-0.6h2.6v-1.4h-2v-0.6h2v-1.3h-2.2v-0.6h5.2v0.6H46v1.3H48v0.6H46V222.6z M47.9,214.7v3.2h-4.5v-3.2
							H47.9z M47.2,217.3v-2H44v2H47.2z"/>
						<path d="M58.4,216.8h-3c0.3,3.2,1,6,2.1,6c0.3,0,0.4-0.6,0.5-1.9c0.2,0.2,0.4,0.3,0.6,0.4c-0.1,1.8-0.4,2.3-1.1,2.3
							c-1.6,0-2.5-3.1-2.8-6.7h-5.3v-0.7h5.3c0-0.6,0-1.2-0.1-1.9l0.9,0c0,0.1-0.1,0.1-0.2,0.2c0,0.6,0,1.1,0,1.7h3V216.8z
							 M52.3,219v3c0.7-0.2,1.5-0.3,2.2-0.5l0.1,0.6c-1.7,0.4-3.5,0.9-4.7,1.1c0,0.1-0.1,0.1-0.1,0.2l-0.3-0.8
							c0.6-0.1,1.3-0.3,2.2-0.4V219h-1.9v-0.6h4.5v0.6H52.3z M56.5,214.3c0.5,0.4,1.2,0.9,1.5,1.2l-0.5,0.4
							c-0.3-0.4-0.9-0.9-1.5-1.3L56.5,214.3z"/>
					</g>
				</g>
			</g>
			<g id="group1337-70" transform="translate(8.01629,-177.893)">
				<g id="shape1338-71_1_" transform="translate(-9.29257E-14,-5.02924)">
					<path class="st2" d="M8.3,199.4H1.6c-0.3,0-0.6-0.3-0.6-0.6v-6.4h1.9v-1.8h12.4c0.3,0,0.6,0.3,0.6,0.6v0.1
						c0.3,0.1,0.7,0.2,1,0.3v-0.4c0-0.8-0.7-1.5-1.6-1.5h-13L0,191.9v6.9c0,0.8,0.7,1.5,1.6,1.5h7.3C8.6,200,8.4,199.7,8.3,199.4z"
						/>
				</g>
				<g id="group1339-73_1_" transform="translate(8.44762,0)">
					<g id="group1340-74_1_" transform="translate(0.737786,0)">
						<g id="shape1341-75_1_">
							<path class="st2" d="M7.5,195.9l2.3,3.3l-2.2-0.5L7,200.3l-2.3-2.9L3,200.3l-0.8-1.7L0,199.1l2.1-3.4c0,0,0.6,0.9,2.7,0.9
								S7.5,195.9,7.5,195.9z"/>
						</g>
					</g>
					<g id="group1342-77_1_" transform="translate(1.9839,-4.95422)">
						<g id="shape1343-78_1_">
							<path class="st2" d="M3.7,200.3c-2,0-3.7-1.5-3.7-3.4s1.7-3.4,3.7-3.4c2.1,0,3.7,1.5,3.7,3.4S5.8,200.3,3.7,200.3z
								 M3.7,194.2c-1.6,0-2.9,1.2-2.9,2.6s1.3,2.6,2.9,2.6s2.9-1.2,2.9-2.6S5.3,194.2,3.7,194.2z"/>
						</g>
					</g>
					<g id="group1344-80_1_" transform="translate(0,-3.14179)">
						<g id="shape1345-81_1_">
							<path class="st2" d="M5.7,200.3c-3.1,0-5.7-2.3-5.7-5.2s2.6-5.2,5.7-5.2s5.7,2.3,5.7,5.2S8.8,200.3,5.7,200.3z M5.7,190.6
								c-2.7,0-4.9,2-4.9,4.5s2.2,4.5,4.9,4.5s4.9-2,4.9-4.5S8.4,190.6,5.7,190.6z"/>
						</g>
					</g>
				</g>
				<g id="shape1337-83_1_">
					<g class="st5">
						<path d="M-1.7,210.2c0,1-0.1,2.2-0.4,3.2c-0.1-0.1-0.3-0.3-0.5-0.3c0.3-0.8,0.4-1.9,0.4-2.8v-1.2l0.7,0c0,0.1-0.1,0.1-0.2,0.1
							V210.2z M1.3,208.2h-1.6v5.9h-0.6v-5.9h-1.6v-0.6h3.8V208.2z M1,205.3v0.6h-3.1v-0.6H1z M1.2,209c0,0.1-0.1,0.1-0.2,0.1v3.6
							H0.5v-3.7L1.2,209z M3.6,213c0,0.4,0.1,0.4,0.4,0.4h1.1c0.3,0,0.4-0.2,0.4-1.4c0.1,0.1,0.4,0.2,0.6,0.3
							c-0.1,1.3-0.3,1.7-0.9,1.7H4c-0.8,0-1-0.2-1-1v-0.3c-0.5,0.5-1,1-1.6,1.4c-0.1-0.1-0.3-0.3-0.5-0.4c0.8-0.5,1.5-1.2,2.1-2
							v-4.5l0.8,0.1c0,0.1-0.1,0.1-0.2,0.1v3.5c0.9-1.4,1.6-3.1,2.1-5l0.8,0.2c0,0.1-0.1,0.1-0.2,0.1c-0.6,2.2-1.5,4.2-2.7,5.8V213z
							 M2.5,209c-0.1,1.1-0.3,2.3-0.7,3.1l-0.5-0.2c0.4-0.7,0.6-1.9,0.7-2.9L2.5,209z M3,204.9c0.8,0.4,1.7,1,2.1,1.4l-0.4,0.5
							c-0.4-0.5-1.3-1.1-2.1-1.5L3,204.9z M6.2,211.9c-0.1-0.8-0.4-2.1-0.8-3l0.6-0.2c0.4,1,0.8,2.2,0.9,3L6.2,211.9z"/>
						<path d="M13.4,209.9c0.5,0,0.5-0.1,0.6-1.1c0.1,0.1,0.4,0.2,0.6,0.2c-0.1,1.1-0.3,1.4-1.1,1.4h-2c-0.5,0-0.8,0-1-0.2
							c-0.8,0.4-1.7,0.7-2.6,0.9c-0.1-0.1-0.3-0.4-0.4-0.5c0.9-0.2,1.8-0.5,2.7-0.9v-2.2l0.8,0c0,0.1,0,0.1-0.2,0.1v1.7
							c1.3-0.7,2.4-1.5,3.2-2.5l0.7,0.3c0,0-0.1,0.1-0.2,0.1c0,0,0,0-0.1,0c-0.8,1-2,1.9-3.3,2.6c0.1,0,0.1,0,0.3,0H13.4z
							 M7.5,209.7c0.7-0.4,1.2-1.1,1.4-1.8l0.6,0.2c-0.2,0.8-0.6,1.6-1.4,2L7.5,209.7z M8.7,206.5v1.4H8v-2h3.7v-1l0.9,0.1
							c0,0.1-0.1,0.1-0.2,0.1v0.8h3.8v2h-0.7v-1.4H8.7z M14.9,213.1v-1.8l0.9,0.1c0,0.1-0.1,0.1-0.2,0.1v2.7h-0.7v-0.4H9.4v0.4H8.8
							v-2.9l0.9,0.1c0,0.1-0.1,0.1-0.2,0.1v1.6h2.3v-2.4l0.9,0.1c0,0.1-0.1,0.1-0.2,0.1v2.2H14.9z M11,206.6
							c0.6,0.3,1.4,0.8,1.8,1.1l-0.4,0.4c-0.4-0.4-1.1-0.8-1.7-1.1L11,206.6z M16.3,210.3c-0.3-0.6-1.1-1.4-1.9-2l0.5-0.4
							c0.7,0.6,1.5,1.4,1.9,2L16.3,210.3z"/>
					</g>
				</g>
			</g>
			<g id="shape1346-85" transform="translate(87.0703,-185.688)">
			</g>
			<g id="shape1348-91" transform="translate(89.0646,-101.429)">
			</g>
			<g id="shape1350-96" transform="translate(61.4123,-20.0036)">
				<path class="st0" d="M21.6,174.8H1.1c-0.6,0-1.1,0.5-1.1,1.1v16.8c0,0.6,0.5,1.1,1.1,1.1h5.3c0.4,1.3,1.7,2.3,3.2,2.3
					c1.8,0,3.3-1.5,3.3-3.4s-1.5-3.4-3.3-3.4c-1.5,0-2.8,0.9-3.2,2.3H2.2v-12h18.3v12H17c-0.5-3.7-3.7-6.6-7.5-6.6
					c-1.3,0-2.5,0.4-3.6,0.9l1,2c0.7-0.4,1.7-0.7,2.6-0.7c2.9,0,5.4,2.5,5.4,5.5s-2.4,5.4-5.4,5.4c-0.9,0-1.8-0.2-2.6-0.7l-1,2
					c1.1,0.6,2.4,0.9,3.6,0.9c3.8,0,7-2.9,7.5-6.6h4.5c0.6,0,1.1-0.5,1.1-1.1v-16.8C22.7,175.3,22.2,174.8,21.6,174.8z"/>
				<g class="st5">
					<path d="M-21.8,209v0.5c0.4,0.3,1.2,1.4,1.4,1.7l-0.4,0.5c-0.2-0.3-0.6-1-1-1.4v3.9h-0.6v-4c-0.4,1-0.9,2-1.3,2.6
						c-0.1-0.2-0.3-0.5-0.4-0.6c0.6-0.7,1.2-2,1.6-3.1H-24v-0.6h1.6v-3.5l0.8,0.1c0,0.1-0.1,0.1-0.2,0.1v3.3h1.4v0.6H-21.8z
						 M-23.4,205.6c0.3,0.7,0.5,1.6,0.6,2.2l-0.5,0.1c0-0.6-0.2-1.5-0.5-2.2L-23.4,205.6z M-20.2,205.7c0,0.1-0.1,0.1-0.2,0.1
						c-0.2,0.6-0.5,1.5-0.8,2.1c-0.1,0-0.4-0.1-0.5-0.2c0.3-0.6,0.6-1.6,0.7-2.2L-20.2,205.7z M-17.3,208.3h2.5v0.6h-5.3v-0.6h2.2
						v-0.7h-1.8v-0.5h1.8v-0.7h-2.1v-0.5h2.1v-1l0.9,0c0,0.1-0.1,0.1-0.2,0.1v0.8h2.2v0.5h-2.2v0.7h1.9v0.5h-1.9V208.3z
						 M-15.5,209.5v3.9c0,0.7-0.3,0.7-1.7,0.7c0-0.2-0.1-0.4-0.2-0.5c0.3,0,0.6,0,0.7,0c0.4,0,0.5,0,0.5-0.2v-0.8h-2.9v1.5h-0.6
						v-4.6H-15.5z M-16.2,210.1h-2.9v0.7h2.9V210.1z M-19.1,212.1h2.9v-0.7h-2.9V212.1z"/>
					<path d="M-9.2,213.4h4.2v0.5H-14v-0.5h4.2v-2h-3.5v-0.5h7.8v0.5h-3.6V213.4z M-13.1,206.7v1.2h-0.6v-1.6h3.9v-0.5h-3.3v-0.5
						h7.3v0.5h-3.4v0.5h4v1.6h-0.6v-1.2h-3.4v1.9h-0.6v-1.9H-13.1z M-10.5,213.4c-0.3-0.2-0.8-0.6-1.2-0.8c-0.3,0.3-0.7,0.6-1.1,0.9
						c-0.1-0.1-0.2-0.3-0.3-0.4c0.7-0.3,1.3-0.9,1.6-1.6l0.6,0.2c0,0.1-0.1,0.1-0.2,0.1c-0.1,0.2-0.2,0.3-0.3,0.5
						c0.4,0.2,0.9,0.5,1.2,0.8L-10.5,213.4z M-13.1,210.5v-1.6h2v1.6H-13.1z M-10.3,208.1v0.4h-2.5v-0.4H-10.3z M-12.6,207.2h2.2
						v0.4h-2.2V207.2z M-12.5,209.3v0.8h0.9v-0.8H-12.5z M-8.5,208.9v1.6h-2v-1.6H-8.5z M-9,210.1v-0.8h-0.9v0.8H-9z M-6.1,213.4
						c-0.3-0.3-0.9-0.6-1.4-0.8c-0.3,0.4-0.6,0.6-1,0.8c-0.1-0.1-0.2-0.3-0.3-0.4c0.6-0.3,1.1-0.8,1.3-1.5l0.7,0.1
						c0,0-0.1,0.1-0.2,0.1c0,0.2-0.1,0.3-0.2,0.5c0.5,0.2,1.1,0.5,1.4,0.8L-6.1,213.4z M-8.6,207.2h2.3v0.4h-2.3V207.2z M-6,208.1
						v0.4h-2.6v-0.4H-6z M-5.8,208.9v1.6h-2v-1.6H-5.8z M-6.3,210.1v-0.8h-1v0.8H-6.3z"/>
					<path d="M4.7,213.1c0,0,0,0.1-0.1,0.1c0,0-0.1,0-0.1,0.1c0,0-0.1,0-0.2,0s-0.1,0-0.2,0c-0.1,0-0.2,0-0.3,0s-0.1,0-0.2,0
						c0,0-0.1,0-0.1-0.1c0,0,0-0.1-0.1-0.1l-1.3-4.8h0L1,213.1c0,0,0,0.1,0,0.1c0,0-0.1,0-0.1,0.1c0,0-0.1,0-0.2,0s-0.2,0-0.3,0
						c-0.1,0-0.2,0-0.3,0s-0.1,0-0.2,0c0,0-0.1,0-0.1-0.1c0,0,0-0.1-0.1-0.1l-1.7-5.8c0-0.1,0-0.1,0-0.2s0-0.1,0-0.1s0.1,0,0.1,0
						s0.1,0,0.2,0c0.1,0,0.2,0,0.2,0c0.1,0,0.1,0,0.1,0S-1,207-1,207s0,0.1,0,0.1l1.4,5.3h0l1.3-5.3c0,0,0-0.1,0-0.1
						c0,0,0,0,0.1-0.1s0.1,0,0.1,0c0.1,0,0.1,0,0.2,0c0.1,0,0.2,0,0.2,0s0.1,0,0.1,0s0.1,0,0.1,0.1c0,0,0,0.1,0,0.1l1.5,5.3h0
						l1.4-5.3c0,0,0-0.1,0-0.1c0,0,0,0,0.1-0.1s0.1,0,0.1,0s0.1,0,0.2,0c0.1,0,0.2,0,0.2,0c0.1,0,0.1,0,0.1,0s0,0.1,0,0.1
						s0,0.1,0,0.2L4.7,213.1z"/>
					<path d="M10.8,210.8c0,0.1,0,0.2-0.1,0.3c-0.1,0.1-0.1,0.1-0.2,0.1H7.6c0,0.2,0,0.5,0.1,0.7c0,0.2,0.1,0.4,0.2,0.5
						c0.1,0.1,0.3,0.2,0.4,0.3c0.2,0.1,0.4,0.1,0.7,0.1c0.2,0,0.4,0,0.6-0.1c0.2,0,0.3-0.1,0.4-0.1c0.1,0,0.2-0.1,0.3-0.1
						c0.1,0,0.1-0.1,0.2-0.1c0,0,0,0,0.1,0c0,0,0,0,0,0.1s0,0.1,0,0.1c0,0,0,0.1,0,0.1c0,0,0,0.1,0,0.1c0,0,0,0.1,0,0.1
						c0,0,0,0,0,0.1s0,0,0,0.1c0,0-0.1,0-0.2,0.1c-0.1,0-0.2,0.1-0.3,0.1s-0.3,0.1-0.5,0.1c-0.2,0-0.4,0-0.6,0
						c-0.4,0-0.7-0.1-0.9-0.2s-0.5-0.3-0.7-0.4S7,212.3,6.9,212s-0.1-0.6-0.1-1c0-0.4,0-0.7,0.1-1c0.1-0.3,0.2-0.6,0.4-0.8
						c0.2-0.2,0.4-0.4,0.7-0.5c0.3-0.1,0.6-0.2,0.9-0.2c0.3,0,0.6,0.1,0.9,0.2s0.4,0.3,0.6,0.4c0.2,0.2,0.3,0.4,0.3,0.7
						c0.1,0.3,0.1,0.5,0.1,0.8V210.8z M10,210.6c0-0.4-0.1-0.8-0.3-1c-0.2-0.2-0.5-0.4-0.9-0.4c-0.2,0-0.4,0-0.5,0.1
						c-0.2,0.1-0.3,0.2-0.4,0.3s-0.2,0.3-0.2,0.4c-0.1,0.2-0.1,0.3-0.1,0.5H10z"/>
					<path d="M16.1,210.9c0,0.4,0,0.7-0.1,1c-0.1,0.3-0.2,0.6-0.4,0.8s-0.4,0.4-0.6,0.5s-0.5,0.2-0.8,0.2c-0.1,0-0.3,0-0.4,0
						c-0.1,0-0.2-0.1-0.3-0.1s-0.2-0.1-0.3-0.2s-0.2-0.2-0.4-0.3v0.5c0,0,0,0,0,0.1s0,0-0.1,0c0,0-0.1,0-0.1,0s-0.1,0-0.2,0
						c-0.1,0-0.1,0-0.2,0s-0.1,0-0.1,0c0,0,0,0-0.1,0s0,0,0-0.1v-6.5c0,0,0,0,0-0.1s0,0,0.1,0s0.1,0,0.1,0s0.1,0,0.2,0
						c0.1,0,0.1,0,0.2,0s0.1,0,0.1,0s0.1,0,0.1,0s0,0,0,0.1v2.6c0.1-0.1,0.3-0.2,0.4-0.3s0.2-0.2,0.4-0.2c0.1-0.1,0.2-0.1,0.4-0.1
						s0.2,0,0.4,0c0.3,0,0.6,0.1,0.8,0.2s0.4,0.3,0.6,0.5c0.1,0.2,0.2,0.5,0.3,0.7S16.1,210.6,16.1,210.9z M15.3,211
						c0-0.2,0-0.4-0.1-0.7c0-0.2-0.1-0.4-0.2-0.6s-0.2-0.3-0.3-0.4c-0.1-0.1-0.3-0.1-0.5-0.1c-0.1,0-0.2,0-0.3,0
						c-0.1,0-0.2,0.1-0.3,0.1c-0.1,0.1-0.2,0.2-0.3,0.3c-0.1,0.1-0.2,0.2-0.4,0.4v1.8c0.2,0.3,0.4,0.5,0.6,0.6
						c0.2,0.1,0.4,0.2,0.6,0.2c0.2,0,0.4,0,0.5-0.1c0.1-0.1,0.3-0.2,0.4-0.4c0.1-0.2,0.2-0.3,0.2-0.5
						C15.3,211.4,15.3,211.2,15.3,211z"/>
					<path d="M24.4,213c0,0.1,0,0.1,0,0.2c0,0,0,0.1,0,0.1s-0.1,0-0.1,0s-0.1,0-0.2,0s-0.2,0-0.2,0c-0.1,0-0.1,0-0.1,0
						c0,0-0.1,0-0.1,0s0,0,0-0.1l-0.5-1.5h-2.6l-0.5,1.5c0,0,0,0.1,0,0.1c0,0,0,0-0.1,0.1c0,0-0.1,0-0.1,0s-0.1,0-0.2,0
						c-0.1,0-0.2,0-0.2,0c-0.1,0-0.1,0-0.1,0s0-0.1,0-0.1c0,0,0-0.1,0-0.2l2.1-5.9c0,0,0-0.1,0.1-0.1s0.1,0,0.1-0.1s0.1,0,0.2,0
						c0.1,0,0.1,0,0.2,0c0.1,0,0.2,0,0.3,0c0.1,0,0.1,0,0.2,0s0.1,0,0.1,0.1c0,0,0,0.1,0.1,0.1L24.4,213z M21.7,207.8L21.7,207.8
						l-1.1,3.1h2.2L21.7,207.8z"/>
					<path d="M29.3,208.8c0,0.3-0.1,0.6-0.2,0.9s-0.3,0.5-0.4,0.6s-0.4,0.3-0.7,0.4s-0.6,0.1-1,0.1h-0.7v2.3c0,0,0,0,0,0.1
						s0,0-0.1,0c0,0-0.1,0-0.1,0c-0.1,0-0.1,0-0.2,0s-0.1,0-0.2,0c-0.1,0-0.1,0-0.1,0c0,0-0.1,0-0.1,0s0,0,0-0.1v-5.8
						c0-0.1,0-0.2,0.1-0.3s0.1-0.1,0.2-0.1h1.4c0.1,0,0.3,0,0.4,0c0.1,0,0.3,0,0.4,0.1c0.2,0,0.3,0.1,0.5,0.2
						c0.2,0.1,0.3,0.2,0.5,0.4s0.2,0.3,0.3,0.5C29.3,208.4,29.3,208.6,29.3,208.8z M28.5,208.9c0-0.3,0-0.5-0.1-0.6
						s-0.2-0.3-0.4-0.4s-0.3-0.1-0.4-0.2s-0.3,0-0.4,0h-0.8v2.5h0.8c0.3,0,0.5,0,0.6-0.1s0.3-0.2,0.4-0.3c0.1-0.1,0.2-0.3,0.3-0.4
						C28.4,209.3,28.5,209.1,28.5,208.9z"/>
					<path d="M31.5,213.2C31.5,213.2,31.5,213.2,31.5,213.2c0,0.1-0.1,0.1-0.1,0.1c0,0-0.1,0-0.1,0c-0.1,0-0.1,0-0.2,0
						c-0.1,0-0.1,0-0.2,0c-0.1,0-0.1,0-0.1,0c0,0-0.1,0-0.1,0s0,0,0-0.1v-6.1c0,0,0,0,0-0.1s0,0,0.1,0c0,0,0.1,0,0.1,0
						c0.1,0,0.1,0,0.2,0c0.1,0,0.1,0,0.2,0c0.1,0,0.1,0,0.1,0c0,0,0.1,0,0.1,0s0,0,0,0.1V213.2z"/>
				</g>
			</g>
			<g id="group1385-99" transform="translate(8.01629,-100.72)">
				<g id="shape1386-100_1_" transform="translate(-9.29257E-14,-5.02924)">
					<path class="st2" d="M8.3,199.4H1.6c-0.3,0-0.6-0.3-0.6-0.6v-6.4h1.9v-1.8h12.4c0.3,0,0.6,0.3,0.6,0.6v0.1
						c0.3,0.1,0.7,0.2,1,0.3v-0.4c0-0.8-0.7-1.5-1.6-1.5h-13L0,191.9v6.9c0,0.8,0.7,1.5,1.6,1.5h7.3C8.6,200,8.4,199.7,8.3,199.4z"
						/>
				</g>
				<g id="group1387-102_1_" transform="translate(8.44762,0)">
					<g id="group1388-103_1_" transform="translate(0.737786,0)">
						<g id="shape1389-104_1_">
							<path class="st2" d="M7.5,195.9l2.3,3.3l-2.2-0.5L7,200.3l-2.3-2.9L3,200.3l-0.8-1.7L0,199.1l2.1-3.4c0,0,0.6,0.9,2.7,0.9
								S7.5,195.9,7.5,195.9z"/>
						</g>
					</g>
					<g id="group1390-106_1_" transform="translate(1.9839,-4.95422)">
						<g id="shape1391-107_1_">
							<path class="st2" d="M3.7,200.3c-2,0-3.7-1.5-3.7-3.4s1.7-3.4,3.7-3.4c2.1,0,3.7,1.5,3.7,3.4S5.8,200.3,3.7,200.3z
								 M3.7,194.2c-1.6,0-2.9,1.2-2.9,2.6s1.3,2.6,2.9,2.6s2.9-1.2,2.9-2.6S5.3,194.2,3.7,194.2z"/>
						</g>
					</g>
					<g id="group1392-109_1_" transform="translate(0,-3.14179)">
						<g id="shape1393-110_1_">
							<path class="st2" d="M5.7,200.3c-3.1,0-5.7-2.3-5.7-5.2s2.6-5.2,5.7-5.2s5.7,2.3,5.7,5.2S8.8,200.3,5.7,200.3z M5.7,190.6
								c-2.7,0-4.9,2-4.9,4.5s2.2,4.5,4.9,4.5s4.9-2,4.9-4.5S8.4,190.6,5.7,190.6z"/>
						</g>
					</g>
				</g>
				<g id="shape1385-112_1_">
					<g class="st5">
						<path d="M-1.7,210.2c0,1-0.1,2.2-0.4,3.2c-0.1-0.1-0.3-0.3-0.5-0.3c0.3-0.8,0.4-1.9,0.4-2.8v-1.2l0.7,0c0,0.1-0.1,0.1-0.2,0.1
							V210.2z M1.3,208.2h-1.6v5.9h-0.6v-5.9h-1.6v-0.6h3.8V208.2z M1,205.3v0.6h-3.1v-0.6H1z M1.2,209c0,0.1-0.1,0.1-0.2,0.1v3.6
							H0.5v-3.7L1.2,209z M3.6,213c0,0.4,0.1,0.4,0.4,0.4h1.1c0.3,0,0.4-0.2,0.4-1.4c0.1,0.1,0.4,0.2,0.6,0.3
							c-0.1,1.3-0.3,1.7-0.9,1.7H4c-0.8,0-1-0.2-1-1v-0.3c-0.5,0.5-1,1-1.6,1.4c-0.1-0.1-0.3-0.3-0.5-0.4c0.8-0.5,1.5-1.2,2.1-2
							v-4.5l0.8,0.1c0,0.1-0.1,0.1-0.2,0.1v3.5c0.9-1.4,1.6-3.1,2.1-5l0.8,0.2c0,0.1-0.1,0.1-0.2,0.1c-0.6,2.2-1.5,4.2-2.7,5.8V213z
							 M2.5,209c-0.1,1.1-0.3,2.3-0.7,3.1l-0.5-0.2c0.4-0.7,0.6-1.9,0.7-2.9L2.5,209z M3,204.9c0.8,0.4,1.7,1,2.1,1.4l-0.4,0.5
							c-0.4-0.5-1.3-1.1-2.1-1.5L3,204.9z M6.2,211.9c-0.1-0.8-0.4-2.1-0.8-3l0.6-0.2c0.4,1,0.8,2.2,0.9,3L6.2,211.9z"/>
						<path d="M13.4,209.9c0.5,0,0.5-0.1,0.6-1.1c0.1,0.1,0.4,0.2,0.6,0.2c-0.1,1.1-0.3,1.4-1.1,1.4h-2c-0.5,0-0.8,0-1-0.2
							c-0.8,0.4-1.7,0.7-2.6,0.9c-0.1-0.1-0.3-0.4-0.4-0.5c0.9-0.2,1.8-0.5,2.7-0.9v-2.2l0.8,0c0,0.1,0,0.1-0.2,0.1v1.7
							c1.3-0.7,2.4-1.5,3.2-2.5l0.7,0.3c0,0-0.1,0.1-0.2,0.1c0,0,0,0-0.1,0c-0.8,1-2,1.9-3.3,2.6c0.1,0,0.1,0,0.3,0H13.4z
							 M7.5,209.7c0.7-0.4,1.2-1.1,1.4-1.8l0.6,0.2c-0.2,0.8-0.6,1.6-1.4,2L7.5,209.7z M8.7,206.5v1.4H8v-2h3.7v-1l0.9,0.1
							c0,0.1-0.1,0.1-0.2,0.1v0.8h3.8v2h-0.7v-1.4H8.7z M14.9,213.1v-1.8l0.9,0.1c0,0.1-0.1,0.1-0.2,0.1v2.7h-0.7v-0.4H9.4v0.4H8.8
							v-2.9l0.9,0.1c0,0.1-0.1,0.1-0.2,0.1v1.6h2.3v-2.4l0.9,0.1c0,0.1-0.1,0.1-0.2,0.1v2.2H14.9z M11,206.6
							c0.6,0.3,1.4,0.8,1.8,1.1l-0.4,0.4c-0.4-0.4-1.1-0.8-1.7-1.1L11,206.6z M16.3,210.3c-0.3-0.6-1.1-1.4-1.9-2l0.5-0.4
							c0.7,0.6,1.5,1.4,1.9,2L16.3,210.3z"/>
					</g>
				</g>
			</g>
			<g id="group1416-114" transform="translate(8.01629,-29.9249)">
				<g id="shape1417-115_1_" transform="translate(-9.29257E-14,-5.02924)">
					<path class="st2" d="M8.3,199.4H1.6c-0.3,0-0.6-0.3-0.6-0.6v-6.4h1.9v-1.8h12.4c0.3,0,0.6,0.3,0.6,0.6v0.1
						c0.3,0.1,0.7,0.2,1,0.3v-0.4c0-0.8-0.7-1.5-1.6-1.5h-13L0,191.9v6.9c0,0.8,0.7,1.5,1.6,1.5h7.3C8.6,200,8.4,199.7,8.3,199.4z"
						/>
				</g>
				<g id="group1418-117_1_" transform="translate(8.44762,0)">
					<g id="group1419-118_1_" transform="translate(0.737786,0)">
						<g id="shape1420-119_1_">
							<path class="st2" d="M7.5,195.9l2.3,3.3l-2.2-0.5L7,200.3l-2.3-2.9L3,200.3l-0.8-1.7L0,199.1l2.1-3.4c0,0,0.6,0.9,2.7,0.9
								S7.5,195.9,7.5,195.9z"/>
						</g>
					</g>
					<g id="group1421-121_1_" transform="translate(1.9839,-4.95422)">
						<g id="shape1422-122_1_">
							<path class="st2" d="M3.7,200.3c-2,0-3.7-1.5-3.7-3.4s1.7-3.4,3.7-3.4c2.1,0,3.7,1.5,3.7,3.4S5.8,200.3,3.7,200.3z
								 M3.7,194.2c-1.6,0-2.9,1.2-2.9,2.6s1.3,2.6,2.9,2.6s2.9-1.2,2.9-2.6S5.3,194.2,3.7,194.2z"/>
						</g>
					</g>
					<g id="group1423-124_1_" transform="translate(0,-3.14179)">
						<g id="shape1424-125_1_">
							<path class="st2" d="M5.7,200.3c-3.1,0-5.7-2.3-5.7-5.2s2.6-5.2,5.7-5.2s5.7,2.3,5.7,5.2S8.8,200.3,5.7,200.3z M5.7,190.6
								c-2.7,0-4.9,2-4.9,4.5s2.2,4.5,4.9,4.5s4.9-2,4.9-4.5S8.4,190.6,5.7,190.6z"/>
						</g>
					</g>
				</g>
				<g id="shape1416-127_1_">
					<g class="st5">
						<path d="M-1.7,210.2c0,1-0.1,2.2-0.4,3.2c-0.1-0.1-0.3-0.3-0.5-0.3c0.3-0.8,0.4-1.9,0.4-2.8v-1.2l0.7,0c0,0.1-0.1,0.1-0.2,0.1
							V210.2z M1.3,208.2h-1.6v5.9h-0.6v-5.9h-1.6v-0.6h3.8V208.2z M1,205.3v0.6h-3.1v-0.6H1z M1.2,209c0,0.1-0.1,0.1-0.2,0.1v3.6
							H0.5v-3.7L1.2,209z M3.6,213c0,0.4,0.1,0.4,0.4,0.4h1.1c0.3,0,0.4-0.2,0.4-1.4c0.1,0.1,0.4,0.2,0.6,0.3
							c-0.1,1.3-0.3,1.7-0.9,1.7H4c-0.8,0-1-0.2-1-1v-0.3c-0.5,0.5-1,1-1.6,1.4c-0.1-0.1-0.3-0.3-0.5-0.4c0.8-0.5,1.5-1.2,2.1-2
							v-4.5l0.8,0.1c0,0.1-0.1,0.1-0.2,0.1v3.5c0.9-1.4,1.6-3.1,2.1-5l0.8,0.2c0,0.1-0.1,0.1-0.2,0.1c-0.6,2.2-1.5,4.2-2.7,5.8V213z
							 M2.5,209c-0.1,1.1-0.3,2.3-0.7,3.1l-0.5-0.2c0.4-0.7,0.6-1.9,0.7-2.9L2.5,209z M3,204.9c0.8,0.4,1.7,1,2.1,1.4l-0.4,0.5
							c-0.4-0.5-1.3-1.1-2.1-1.5L3,204.9z M6.2,211.9c-0.1-0.8-0.4-2.1-0.8-3l0.6-0.2c0.4,1,0.8,2.2,0.9,3L6.2,211.9z"/>
						<path d="M13.4,209.9c0.5,0,0.5-0.1,0.6-1.1c0.1,0.1,0.4,0.2,0.6,0.2c-0.1,1.1-0.3,1.4-1.1,1.4h-2c-0.5,0-0.8,0-1-0.2
							c-0.8,0.4-1.7,0.7-2.6,0.9c-0.1-0.1-0.3-0.4-0.4-0.5c0.9-0.2,1.8-0.5,2.7-0.9v-2.2l0.8,0c0,0.1,0,0.1-0.2,0.1v1.7
							c1.3-0.7,2.4-1.5,3.2-2.5l0.7,0.3c0,0-0.1,0.1-0.2,0.1c0,0,0,0-0.1,0c-0.8,1-2,1.9-3.3,2.6c0.1,0,0.1,0,0.3,0H13.4z
							 M7.5,209.7c0.7-0.4,1.2-1.1,1.4-1.8l0.6,0.2c-0.2,0.8-0.6,1.6-1.4,2L7.5,209.7z M8.7,206.5v1.4H8v-2h3.7v-1l0.9,0.1
							c0,0.1-0.1,0.1-0.2,0.1v0.8h3.8v2h-0.7v-1.4H8.7z M14.9,213.1v-1.8l0.9,0.1c0,0.1-0.1,0.1-0.2,0.1v2.7h-0.7v-0.4H9.4v0.4H8.8
							v-2.9l0.9,0.1c0,0.1-0.1,0.1-0.2,0.1v1.6h2.3v-2.4l0.9,0.1c0,0.1-0.1,0.1-0.2,0.1v2.2H14.9z M11,206.6
							c0.6,0.3,1.4,0.8,1.8,1.1l-0.4,0.4c-0.4-0.4-1.1-0.8-1.7-1.1L11,206.6z M16.3,210.3c-0.3-0.6-1.1-1.4-1.9-2l0.5-0.4
							c0.7,0.6,1.5,1.4,1.9,2L16.3,210.3z"/>
					</g>
				</g>
			</g>
			<g id="shape1507-129" transform="translate(84.521,-32.7595)">
			</g>
			<g id="shape1658-134" transform="translate(151.019,-117.302)">
				<rect x="0" y="180.3" class="st4" width="80.5" height="20"/>
				<g class="st5">
					<path class="st6" d="M13.3,179.6v7.6c0,0.9-0.4,0.9-2.3,0.9c0-0.2-0.1-0.5-0.2-0.7c0.4,0,0.7,0,1,0c0.8,0,0.9,0,0.9-0.3V185
						H9.8v3H9.1v-3H6.5c-0.2,1.1-0.5,2.3-1.3,3.2c-0.1-0.1-0.4-0.4-0.5-0.4c1.1-1.3,1.2-3.1,1.2-4.5v-3.7H13.3z M6.6,183.3
						c0,0.4,0,0.7,0,1.1h2.6v-1.7H6.6V183.3z M9.1,180.2H6.6v1.8h2.5V180.2z M12.7,182v-1.8H9.8v1.8H12.7z M9.8,184.4h2.9v-1.7H9.8
						V184.4z"/>
					<path class="st6" d="M16.9,181.5h6v4h-0.7v-0.5h-5.4c-0.2,1.1-0.5,2.3-1.5,3.2c-0.1-0.2-0.3-0.4-0.5-0.5
						c1.3-1.3,1.4-3.1,1.4-4.5v-3.3l0.5,0.2c1.9-0.3,4-0.7,5.2-1.1l0.6,0.5c0,0-0.1,0-0.1,0c0,0-0.1,0-0.1,0
						c-1.3,0.4-3.5,0.8-5.5,1.1V181.5z M16.9,183.2c0,0.3,0,0.7,0,1.1h5.3v-2.1h-5.3V183.2z"/>
					<path class="st6" d="M28,182.1c0,0.1-0.1,0.1-0.2,0.1c-0.1,1-0.4,2.5-0.6,3.4l1.1-0.2c0,0.3,0,0.4,0.1,0.6
						c-1.2,0.3-2.4,0.6-3.2,0.8c0,0.1-0.1,0.1-0.1,0.1l-0.2-0.8c0.6-0.1,1.3-0.2,2.1-0.4l-0.2-0.1c0.2-1,0.5-2.6,0.6-3.7L28,182.1z
						 M28.1,180.9v0.6h-3.2v-0.6h1.3V179l0.8,0c0,0.1-0.1,0.1-0.2,0.1v1.7H28.1z M25.7,182c0.2,1.1,0.4,2.4,0.4,3.3l-0.6,0.1
						c0-0.9-0.2-2.3-0.4-3.3L25.7,182z M34.1,183.2h-2.7c-0.1,0.3-0.2,0.7-0.3,1h2.6v3.3c0,0.6-0.3,0.6-1.2,0.6
						c0-0.2-0.1-0.4-0.2-0.5c0.7,0,0.7,0,0.7-0.1v-2.7h-1v3.2h-0.5v-3.2h-1v3.2h-0.5v-3.2h-0.9v3.3h-0.6v-3.9h1.9
						c0.1-0.3,0.2-0.7,0.2-1h-2.5v-0.6h5.9V183.2z M33.8,179.4c0,0.1-0.1,0.1-0.2,0.1v2.2h-4.8v-2.4l0.8,0c0,0.1-0.1,0.1-0.2,0.1
						v1.6h1.4v-2.3l0.8,0c0,0.1-0.1,0.1-0.2,0.1v2.1h1.5v-1.8L33.8,179.4z"/>
					<path class="st6" d="M38.4,180.6v0.6h-3.6v-0.6H38.4z M38.1,184.6v2.9h-2.3v0.5h-0.6v-3.4H38.1z M38.1,181.9v0.5h-2.9v-0.5
						H38.1z M35.2,183.8v-0.5h2.9v0.5H35.2z M38,179.2v0.5h-2.8v-0.5H38z M37.5,185.2h-1.7v1.8h1.7V185.2z M39.6,185.2
						c-0.1,0.9-0.3,1.8-0.9,2.4l-0.5-0.3c0.5-0.5,0.7-1.4,0.8-2.2L39.6,185.2z M41.3,179.8c-0.1,0.4-0.2,0.9-0.3,1.3
						c0.5,0.2,0.9,0.5,1.2,0.7l-0.3,0.5c-0.3-0.2-0.7-0.4-1.1-0.7c-0.4,0.8-0.9,1.4-1.9,1.9c-0.1-0.1-0.3-0.4-0.4-0.5
						c0.9-0.4,1.4-1,1.7-1.7c-0.5-0.2-0.9-0.4-1.3-0.6l0.3-0.5c0.4,0.1,0.8,0.3,1.2,0.5c0.1-0.3,0.2-0.7,0.3-1.1H39v-0.6h4.2l0.3,0
						l0.4,0c-0.1,0.4-0.1,3.4-0.5,3.8c-0.2,0.3-0.5,0.3-1,0.3c-0.3,0-0.6,0-0.9,0c0-0.2-0.1-0.4-0.2-0.6c0.5,0,0.8,0,1.2,0
						c0.1,0,0.2,0,0.3-0.1c0.2-0.2,0.3-0.9,0.3-2.9H41.3z M40.7,187.1c0,0.2,0,0.3,0.3,0.3h1c0.3,0,0.3-0.1,0.3-1.1
						c0.1,0.1,0.4,0.2,0.6,0.2c-0.1,1.2-0.2,1.5-0.8,1.5h-1.1c-0.7,0-0.9-0.2-0.9-0.9v-2.4l0.8,0.1c0,0.1-0.1,0.1-0.2,0.1V187.1z
						 M41.9,185.1c-0.4-0.4-1.1-1-1.8-1.4l0.4-0.4c0.6,0.4,1.4,0.9,1.8,1.4L41.9,185.1z M43.6,187.5c-0.1-0.7-0.6-1.7-1.1-2.4
						l0.5-0.2c0.5,0.7,1,1.7,1.2,2.4L43.6,187.5z"/>
					<path class="st6" d="M48.2,180.6v0.6h-3.4v-0.6H48.2z M47.9,184.6v2.9h-2.1v0.5h-0.6v-3.4H47.9z M45.2,182.5v-0.5h2.7v0.5H45.2
						z M45.2,183.8v-0.5h2.7v0.5H45.2z M47.9,179.2v0.5h-2.6v-0.5H47.9z M47.3,185.2h-1.6v1.8h1.6V185.2z M49.7,182.4V182
						c-0.4,0.5-0.8,0.9-1.3,1.2c-0.1-0.1-0.3-0.4-0.4-0.5c0.5-0.3,0.9-0.7,1.3-1.2c-0.2-0.3-0.6-0.7-0.9-0.9l0.4-0.4
						c0.3,0.2,0.7,0.5,0.9,0.8c0.2-0.3,0.4-0.7,0.5-1.1h-1.6v-0.5h1.9l0.1,0l0.4,0.2c0,0,0,0.1-0.1,0.1c-0.2,0.9-0.6,1.7-1.1,2.3
						h2.7c-0.6-0.8-1-1.8-1.3-2.8l0.5-0.1c0.1,0.4,0.2,0.8,0.4,1.1c0.3-0.3,0.7-0.6,0.9-0.8l0.5,0.4c0,0-0.1,0.1-0.2,0
						c-0.3,0.2-0.7,0.5-1,0.8c0.1,0.2,0.2,0.4,0.4,0.6c0.3-0.3,0.7-0.6,1-0.9l0.5,0.5c0,0-0.1,0-0.2,0c-0.2,0.2-0.6,0.5-1,0.7
						c0.4,0.4,0.8,0.8,1.2,1c-0.1,0.1-0.3,0.3-0.4,0.5c-0.5-0.3-0.9-0.6-1.2-1.1v0.5H49.7z M52,187.3c-0.1,0-0.3-0.1-0.4-0.1
						c0.2-0.4,0.5-1.1,0.6-1.6l0.8,0.2c0,0.1-0.1,0.1-0.2,0.1c-0.2,0.4-0.4,1-0.6,1.4h2v0.6h-5.9v-0.6h1.8c-0.1-0.4-0.3-1.1-0.5-1.6
						l0.6-0.2c0.3,0.5,0.5,1.1,0.5,1.6l-0.6,0.2H52z M49,185.4v-2.4h4.1v2.4H49z M49.6,183.6v1.2h2.9v-1.2H49.6z"/>
				</g>
				<g class="st5">
					<path class="st6" d="M32,193.7c0.7,0.3,1.5,0.7,1.9,1l-0.4,0.6c-0.4-0.3-1.2-0.8-1.8-1.1L32,193.7z M32,199.6
						c0.5-0.8,1.3-2.1,1.8-3.3l0.5,0.4c-0.5,1.1-1.2,2.3-1.6,3.1c0,0,0.1,0.1,0.1,0.1s0,0.1,0,0.1L32,199.6z M32.6,191
						c0.6,0.3,1.4,0.7,1.8,1.1l-0.4,0.5c-0.4-0.4-1.2-0.9-1.8-1.2L32.6,191z M36,196.7c0,1.1-0.2,2.4-1.5,3.4
						c-0.1-0.2-0.3-0.4-0.5-0.5c1.3-0.9,1.4-2,1.4-3v-1.1l0.8,0c0,0.1-0.1,0.1-0.2,0.1V196.7z M34.6,194.6l1.2,0
						c0.3-0.5,0.7-1.2,0.9-1.7h-2.2v-0.6h2.7v-1.3l0.9,0c0,0.1-0.1,0.1-0.2,0.1v1.1h3.1v0.6h-3.4c0,0.1-0.1,0.1-0.2,0.1
						c-0.2,0.5-0.6,1.1-0.9,1.6c0.9,0,1.9-0.1,2.9-0.1c-0.3-0.3-0.6-0.6-0.9-0.9l0.5-0.3c0.7,0.6,1.5,1.5,1.9,2.1l-0.5,0.3
						c-0.1-0.2-0.3-0.5-0.5-0.7c-1.8,0.1-3.7,0.2-4.9,0.3c0,0.1-0.1,0.1-0.1,0.1L34.6,194.6z M37.2,199.7v-4l0.8,0.1
						c0,0.1-0.1,0.1-0.2,0.1v3.8H37.2z M39.6,199c0,0.4,0,0.4,0.2,0.4h0.3c0.3,0,0.3-0.1,0.3-0.3c0-0.2,0-0.5,0-1
						c0.1,0.1,0.3,0.2,0.5,0.3c0,1.2,0,1.6-0.8,1.6h-0.5c-0.7,0-0.7-0.5-0.7-1v-3.3l0.8,0c0,0.1-0.1,0.1-0.2,0.1V199z"/>
					<path class="st6" d="M44.1,195.1c0.3,0.3,1.2,1.3,1.4,1.5l-0.4,0.5c-0.2-0.3-0.7-0.9-1-1.4v4.4h-0.7v-4.7
						c-0.4,1.1-0.9,2.2-1.4,2.9c-0.1-0.2-0.3-0.4-0.4-0.6c0.6-0.7,1.2-2.1,1.6-3.3h-1.5v-0.6h1.6v-1.7c-0.5,0.1-1,0.3-1.5,0.4
						c0-0.1-0.1-0.4-0.2-0.5c1.2-0.3,2.5-0.7,3.2-1.1l0.6,0.5c0,0-0.1,0-0.1,0c0,0-0.1,0-0.1,0c-0.3,0.2-0.8,0.4-1.3,0.5v1.9h1.4
						v0.6h-1.4V195.1z M48.4,199.3H51v0.6h-5.8v-0.6h2.6v-1.4h-2v-0.6h2V196h-2.2v-0.6h5.2v0.6h-2.3v1.3h2.1v0.6h-2.1V199.3z
						 M50.4,191.3v3.2h-4.5v-3.2H50.4z M49.7,194v-2h-3.2v2H49.7z"/>
				</g>
			</g>
		</g>
	</g>
</g>
</svg>
