<svg xmlns="http://www.w3.org/2000/svg" viewBox="0 0 204.71 66.15"><defs><style>.cls-1{fill:#007efd;}.cls-2,.cls-3{fill:#008bfd;}.cls-3{stroke:gray;stroke-linecap:round;stroke-linejoin:round;stroke-width:0.75px;}.cls-4{fill:#fff;}.cls-5{fill:#505050;}.cls-6{fill:#00b0f0;}</style></defs><title>OJ104546516</title><g id="shapes"><g id="group1195-2"><g id="shape1200-7"><path class="cls-1" d="M69.66,9.34H63.58c-.23,0-.38.15-.38.46V12a.35.35,0,0,0,.38.37H67v3.39c0,.23.15.38.45.38h2.18a.35.35,0,0,0,.37-.38v-6A.35.35,0,0,0,69.66,9.34Zm-17.19,21H49V27c0-.22-.15-.37-.45-.37H46.4A.35.35,0,0,0,46,27v6a.36.36,0,0,0,.38.38h6.07c.23,0,.38-.15.38-.45V30.72A.36.36,0,0,0,52.47,30.34Zm13.58-3.69a.9.9,0,0,0-.45.08l-2.32-4.07a2.77,2.77,0,0,0-1.88-4.81,3,3,0,0,0-1.12.22L57.8,14.61a2,2,0,0,0,.53-1.5A2.33,2.33,0,1,0,56,15.44a2.38,2.38,0,0,0,.75-.15l2.48,3.54a2.82,2.82,0,0,0-.68,1.43l-7.2.6a1.78,1.78,0,0,0-1.65-1,1.88,1.88,0,0,0,0,3.76,1.92,1.92,0,0,0,1.87-1.58l7.06-.6a3.74,3.74,0,0,0,.67,1.2L57.5,25.6h-.22a1.88,1.88,0,1,0,1.87,1.88,2.13,2.13,0,0,0-.52-1.35l1.72-2.86a4,4,0,0,0,1,.15,3.38,3.38,0,0,0,.82-.15l2.33,4.06a2.34,2.34,0,0,0-.68,1.58,2.18,2.18,0,1,0,2.25-2.26Z"/></g></g><g id="group1201-12"><g id="group1202-13"><g id="group1203-14"><g id="group1204-15"><g id="shape1205-16"><path class="cls-2" d="M7.85,13.61a4.49,4.49,0,0,0-3,5.66c.66,2.56,3,4.22,5.27,3.67a4.5,4.5,0,0,0,3-5.67C12.57,14.61,10.16,12.94,7.85,13.61Z"/></g></g><g id="group1206-18"><g id="shape1207-19"><path class="cls-2" d="M12.79,23.63c-.44,0-.88.78-1.54,1.11s-1.32.89-3.18,0S6,23.08,4.44,23.08.38,25.85.38,30H16a12.14,12.14,0,0,0-1.1-4.22C13.77,23.63,13.23,23.63,12.79,23.63Z"/></g></g></g></g><g id="group1208-21"><g id="shape1209-22"><path class="cls-3" d="M14.19,18.69H10.07a.71.71,0,0,0-.65.66V22.2a.73.73,0,0,0,.76.66h.76V28a1,1,0,0,0,1,1.1,1,1,0,0,0,1-1h.21v-.65c0-.22.33-.33.33-.33V26.8c-.33-.11-.54-.33-.54-.44V26l.21-.22a3.55,3.55,0,0,0,.33-.54,2.4,2.4,0,0,1-.33-.55c-.1-.11-.1-.33-.21-.44v-.22a2.51,2.51,0,0,1,.76-1.1h.54a.7.7,0,0,0,.65-.65v-3A.63.63,0,0,0,14.19,18.69ZM11.8,28.22c0,.22,0,.33-.21.33s-.22-.22-.22-.33V23.4c0-.22.11-.33.22-.33s.21.22.21.33Zm.33-7.78a.69.69,0,0,1-.65-.65.7.7,0,0,1,.65-.66.71.71,0,0,1,.65.66A.62.62,0,0,1,12.13,20.44Z"/></g><g id="shape1210-24"><path class="cls-4" d="M11.57,28.53a.24.24,0,0,1-.22-.22v-5a.22.22,0,1,1,.44,0v5.11C11.79,28.53,11.68,28.53,11.57,28.53Z"/></g><g id="shape1211-26"><ellipse class="cls-4" cx="12.14" cy="19.77" rx="0.66" ry="0.67"/></g></g></g><path class="cls-2" d="M191.76,8.21h-20.5a1.09,1.09,0,0,0-1.09,1.1V26.05a1.1,1.1,0,0,0,1.09,1.11h5.28a3.29,3.29,0,0,0,3.21,2.27,3.38,3.38,0,0,0,0-6.75A3.29,3.29,0,0,0,176.54,25h-4.19V13h18.31V25h-3.45a7.61,7.61,0,0,0-7.46-6.56,8.25,8.25,0,0,0-3.64.92l1,2a5.27,5.27,0,0,1,2.55-.67,5.46,5.46,0,0,1,0,10.91,5.27,5.27,0,0,1-2.55-.67l-1,2a7.51,7.51,0,0,0,3.64.92,7.61,7.61,0,0,0,7.46-6.56h4.55a1.1,1.1,0,0,0,1.09-1.11V9.31A1.14,1.14,0,0,0,191.76,8.21Z"/><g id="shape1213-31"><g id="lend5"><path class="cls-5" d="M161.69,17l8.05,4-8,4a9,9,0,0,0,0-8"/></g></g></g><g id="text"><path class="cls-6" d="M89.63,10.57H85.14a5.65,5.65,0,0,1-1.39,1.18v1.6a16,16,0,0,0,2-.54l.18.44a19.4,19.4,0,0,1-2.67.73l-.2-.45q.21-.09.21-.24V12a9.25,9.25,0,0,1-2,.83l-.29-.47a7.8,7.8,0,0,0,3.53-1.8H81v-.5h4.26a2.4,2.4,0,0,0-.31-.6l.52-.16a7.65,7.65,0,0,1,.38.76h3.82Zm-5.25-.92h-.51V8.09H82.68a2.73,2.73,0,0,1-1.09,1.79l-.39-.37a2.06,2.06,0,0,0,1-1.42H81V7.61h2.9V6.87H81.68V5.48h.53v.91h1.66V5.26h.51Zm5.25-2.78H87.51V8.45h1.91v.48H85.07V8.45H87V6.87H84.84V6.4H87V5.25h.52V6.4h2.13Zm.06,6.68-.3.49a6.14,6.14,0,0,1-3.58-2.71l.47-.21a4.51,4.51,0,0,0,.91,1.13,6.53,6.53,0,0,0,1.58-1.11l.37.33a7,7,0,0,1-1.5,1.11A7,7,0,0,0,89.69,13.55Z"/><path class="cls-6" d="M99.61,13.75H91v-.44h1.17V9.09h2.33l.25-.71H91V7.92h3.84l.19-.66H91.43V5.47H99.1V7.26H95.6l-.2.66h4.06v.46H95.24L95,9.09h3.41v4.22h1.19Zm-5.8-6.9V5.9H91.94v.95Zm4.1,3.28V9.51H92.65v.62Zm0,1v-.62H92.65v.62Zm0,1.09v-.69H92.65v.69Zm0,1.06v-.64H92.65v.64Zm-1.7-6.46V5.9H94.33v.95Zm2.37,0V5.9H96.73v.95Z"/><path class="cls-6" d="M104.33,10.19l-.36.4a7,7,0,0,0-.86-1.25V14h-.52V9.33a13.73,13.73,0,0,1-1.35,2.47l-.35-.41a13.58,13.58,0,0,0,1.67-3.2h-1.62V7.68h1.65V6.21l-1.22.22-.27-.49A10.85,10.85,0,0,0,104,5.25l.31.46-1.19.38V7.68h1.19v.51h-1.19V8.6A9.1,9.1,0,0,1,104.33,10.19Zm5.3,3.54H104v-.48h2.57V11.72h-2.22v-.5h2.22V9.76l-2,.12-.24-.52a22.18,22.18,0,0,0,4.76-.52l.34.45c-.67.15-1.45.29-2.35.42v1.51h2.15v.5H107.1v1.53h2.53ZM109,8.26H104.7V5.53H109Zm-.53-.51V6h-3.23V7.75Z"/><path class="cls-6" d="M119.63,11.83c-.29,1.5-.72,2.25-1.28,2.25A.75.75,0,0,1,118,14a2.78,2.78,0,0,1-.53-.61,5.92,5.92,0,0,1-.62-1.21,8.59,8.59,0,0,1-.4-2c-.09-.88-.16-1.76-.2-2.62H111V6.93h5.19c0-.74,0-1.32,0-1.73h.52c0,.8,0,1.37,0,1.73h2.91v.54h-2.89c0,.69.11,1.62.25,2.79a6,6,0,0,0,.72,2.52c.33.51.56.76.68.76s.32-.24.47-.72a6,6,0,0,0,.29-1.27Zm-3.7.39c-1.62.41-3.14.74-4.56,1l-.13-.53c.54-.08,1.23-.21,2.05-.36V9.43h-1.77V8.89h4.13v.54H113.8v2.78q1.17-.26,2.13-.51Zm3.23-5.78-.44.31a5.75,5.75,0,0,0-1.12-1.06l.43-.34A5.31,5.31,0,0,1,119.16,6.44Z"/><path class="cls-6" d="M124.29,6.21h-1.37a11.16,11.16,0,0,1-.68,2.47H124v4.14h-.54v-.44h-1.1v.69h-.52V9.51a8.07,8.07,0,0,1-.58.91l-.39-.4a8.3,8.3,0,0,0,1.53-3.81H121.1v-.5h3.19Zm-.82,5.67V9.16h-1.1v2.72Zm1.8-.66a10.94,10.94,0,0,1-.59,2.5l-.47-.18a9.57,9.57,0,0,0,.58-2.4ZM129.45,6h-2V7h1.69v.48h-1.69v1h1.7V9h-1.7V10.1h1.93a22.35,22.35,0,0,1-.12,2.33,3.1,3.1,0,0,1-.27,1.12.78.78,0,0,1-.41.33,4.33,4.33,0,0,1-1.13.09l-.17-.49a5.58,5.58,0,0,0,1,0,.67.67,0,0,0,.26-.19A3.51,3.51,0,0,0,128.8,12c.06-.72.09-1.21.08-1.45h-4.09V5.49h4.66ZM127,7V6h-1.65V7Zm0,1.51v-1h-1.65v1Zm0,1.63V9h-1.65V10.1Zm-.63,3.32-.5.08c0-.17,0-.33,0-.5a10.46,10.46,0,0,0-.14-1.67l.47-.07A13.22,13.22,0,0,1,126.33,13.42Zm1.15-.62L127,13a6.74,6.74,0,0,0-.38-1.62l.46-.12A8.28,8.28,0,0,1,127.48,12.8Zm.93-.4-.45.18a7.43,7.43,0,0,0-.39-1.34l.42-.14A6.39,6.39,0,0,1,128.41,12.4Z"/><path class="cls-6" d="M132.87,10.77A17.94,17.94,0,0,1,131.33,14l-.44-.36a15.55,15.55,0,0,0,1.49-3.17Zm0-1.52-.37.39a9.41,9.41,0,0,0-1.57-1.33l.32-.41A10.88,10.88,0,0,1,132.84,9.25ZM133,6.57l-.35.42A10.09,10.09,0,0,0,131.2,5.6l.34-.41A12.71,12.71,0,0,1,133,6.57Zm1.53,3.2a8.74,8.74,0,0,1-.29,2.65A3.27,3.27,0,0,1,133,14l-.41-.38a3.07,3.07,0,0,0,1-1.08A5.63,5.63,0,0,0,134,9.77Zm5.11-.41-.44.35a6.46,6.46,0,0,0-.6-.81c-2,.22-3.67.39-5.12.49l-.13-.51a5.39,5.39,0,0,0,2-2.1H133.3V6.25h2.39a8.77,8.77,0,0,0,.47-1.07l.54.15c-.06.16-.2.47-.41.92h3.21v.53H136a6.54,6.54,0,0,1-1.67,2c1.28-.08,2.57-.2,3.87-.35a6.59,6.59,0,0,0-.89-.86l.41-.35A11.76,11.76,0,0,1,139.66,9.36ZM136.24,14h-.52V9.77h.52Zm3.38-.11h-1.33c-.5,0-.75-.24-.75-.71V9.77h.51v3.32c0,.17.1.26.3.26h1.27Z"/><path class="cls-6" d="M144.33,10.19l-.36.4a7,7,0,0,0-.86-1.25V14h-.52V9.33a13.73,13.73,0,0,1-1.35,2.47l-.35-.41a13.58,13.58,0,0,0,1.67-3.2h-1.62V7.68h1.65V6.21l-1.22.22-.27-.49A10.85,10.85,0,0,0,144,5.25l.31.46-1.19.38V7.68h1.19v.51h-1.19V8.6A9.1,9.1,0,0,1,144.33,10.19Zm5.3,3.54H144v-.48h2.57V11.72h-2.22v-.5h2.22V9.76l-2,.12-.24-.52a22.35,22.35,0,0,0,4.77-.52l.33.45c-.67.15-1.45.29-2.35.42v1.51h2.15v.5H147.1v1.53h2.53ZM149,8.26H144.7V5.53H149Zm-.53-.51V6h-3.23V7.75Z"/><path d="M35.52,45.93a12.65,12.65,0,0,1-1.44,2.12l-.41-.32a10.49,10.49,0,0,0,1.41-2Zm6.86-.61H33.69v-.5h1.49V43.11H33.89V42.6h1.29V41.39h.51V42.6H37V41.39h.52V42.6h1.3V41.39h.49V42.6h1.34V41.39h.49V42.6h1.07v.51H41.11v1.71h1.27ZM42,41H35.2a6.47,6.47,0,0,1-1,.88l-.4-.36A10,10,0,0,0,36,39.3l.52.19c-.24.33-.51.66-.8,1H42ZM37,44.82V43.11H35.69v1.71ZM37.38,48l-.51.1a9.74,9.74,0,0,0-.32-2.19l.51-.11A10.81,10.81,0,0,1,37.38,48Zm1.41-3.13V43.11h-1.3v1.71Zm1.09,3.06-.48.19a13.31,13.31,0,0,0-.78-2.16l.47-.18A11.48,11.48,0,0,1,39.88,47.88Zm.74-3.06V43.11H39.28v1.71Zm1.76,3-.46.24A11.87,11.87,0,0,0,40.69,46l.47-.24A13,13,0,0,1,42.38,47.82Z"/><path d="M45.24,44.83A19.7,19.7,0,0,1,44,48l-.45-.28a19.44,19.44,0,0,0,1.21-3.16Zm.18-1.76-.35.39a11.87,11.87,0,0,0-1.38-1.27l.34-.4A17.59,17.59,0,0,1,45.42,43.07Zm.07-2.53-.39.36a10.47,10.47,0,0,0-1.28-1.23l.35-.36A9.27,9.27,0,0,1,45.49,40.54Zm4.38,3.17-.27.44a9.09,9.09,0,0,0-2-1,6,6,0,0,1-.82.74h2.15v.48h-.87v.74h1.56v.47H48.06v1.65c.4-.06,1-.17,1.75-.33l0,.46c-1.47.3-2.84.53-4.11.68l-.1-.44,2-.27V45.58H45.94v-.47h1.63v-.74h-1v-.32l-.89.57-.32-.39a6.91,6.91,0,0,0,2.2-1.83l.51.18-.15.18A17,17,0,0,1,49.87,43.71Zm-2.22-1.85-.43.18a.68.68,0,0,0,0-.17c-.35.22-.76.44-1.24.68l-.22-.43a.42.42,0,0,0,.13-.28v-1.9a10.17,10.17,0,0,0,1.34-.6l.32.34a6.62,6.62,0,0,1-1.18.56v1.61a7.66,7.66,0,0,0,.67-.39,2.27,2.27,0,0,0-.2-.46l.39-.21A4.77,4.77,0,0,1,47.65,41.86Zm-.53,5-.39.25a5.89,5.89,0,0,0-.56-.9l.37-.27A7,7,0,0,1,47.12,46.85Zm2.54-7.3a8.88,8.88,0,0,1-.16,2.55.86.86,0,0,1-.78.3l-.14-.49h.17a.49.49,0,0,0,.27-.06.25.25,0,0,0,.1-.16c0-.07,0-.29.05-.67s0-.72,0-1h-.53a7.36,7.36,0,0,1-.5,2.33l-.43-.2A6.52,6.52,0,0,0,48.19,40h-.48v-.45Zm-.25,6.52a4.42,4.42,0,0,1-.51.81l-.4-.2a4.73,4.73,0,0,0,.49-.8Zm1.35.16h-.5V40h.5Zm1.35,1.14c0,.46-.27.69-.79.69l-.76,0-.16-.51.48,0a2.42,2.42,0,0,0,.62,0c.08,0,.12-.13.12-.28V39.33h.49Z"/><path d="M62.21,46.48A3.18,3.18,0,0,1,62,47.64a.69.69,0,0,1-.35.29,6.33,6.33,0,0,1-1.38.08,7.16,7.16,0,0,1-1.07,0,.66.66,0,0,1-.38-.23.72.72,0,0,1-.16-.49v-.71H57.38a2.28,2.28,0,0,1-.48.82,2.25,2.25,0,0,1-1.13.5,8.92,8.92,0,0,1-1.91.21l-.18-.45a8.78,8.78,0,0,0,2.21-.25,1.3,1.3,0,0,0,1-.83H55.35v-3.1H60.7v3.1H59.1v.73a.23.23,0,0,0,.18.23,5.18,5.18,0,0,0,1.07.06,5.6,5.6,0,0,0,1,0,.44.44,0,0,0,.27-.28,3.44,3.44,0,0,0,.14-.89ZM57.94,40H56.43v.56h1.16v1.36H56.43v.63h1.43v.41H54.15V39.55h3.79Zm-2,.56V40h-1.3v.56Zm1.18,1v-.57H54.66v.57Zm-1.18,1v-.63h-1.3v.63Zm4.23,1.82v-.49H55.85v.49Zm0,.89v-.49H55.85v.49Zm0,.9v-.5H55.85v.5Zm1.94-5.85H58.93a6,6,0,0,1-.71.89l-.42-.25A5.56,5.56,0,0,0,59,39.28l.42.16-.21.42h3Zm-.22,2.67H58.28V41.51h3.64Zm-2.54-.37v-.68h-.65v.68Zm2.33-1.48H59V40.7h2.69Zm-1.26,1.48v-.68h-.66v.68Zm1,0v-.68h-.61v.68Z"/><path d="M72.43,45.11l-.27.48-.62-.23v2.71h-.49v-.56h-2v.56h-.51V45h2.22a7.75,7.75,0,0,1-2.17-1.54H67.43a6.68,6.68,0,0,1-2,1.54h2.07v3.07H67v-.56H65v.56h-.53V45.4a3.63,3.63,0,0,1-.61.2l-.22-.46a7.44,7.44,0,0,0,3.13-1.68H63.7V43h3.49a6.58,6.58,0,0,0,.6-.92l.46.14a2.74,2.74,0,0,1-.44.78h4.48v.48H69.35A7.52,7.52,0,0,0,72.43,45.11Zm-5.07-3.19h-2.9V39.55h2.9Zm-.51-.48V40H65v1.41ZM67,47V45.48H65V47Zm4.61-5.08H68.62V39.55h2.94ZM71.05,47V45.48h-2V47Zm0-5.56V40h-1.9v1.41ZM71,42.5l-.29.39a5.51,5.51,0,0,0-.85-.39l.25-.41A4.18,4.18,0,0,1,71,42.5Z"/><path d="M82.25,40.52H74.88V43.4a12.8,12.8,0,0,1-.8,4.71l-.43-.36a11.93,11.93,0,0,0,.73-4.34V40.05h3.74l-.4-.64.51-.12a3.47,3.47,0,0,1,.45.76h3.57ZM76.57,45.9a7.1,7.1,0,0,1-1.17,1.92L75,47.48a6,6,0,0,0,1.09-1.79Zm.57-5a6.5,6.5,0,0,1-.62,1.35v3.13H76V42.93a7.25,7.25,0,0,1-.62.72l-.33-.39a7.15,7.15,0,0,0,1.62-2.57Zm5,4.39H77.71v-2.5c-.17.21-.4.48-.69.8l-.29-.42a9.18,9.18,0,0,0,1.66-2.44l.44.17a6,6,0,0,1-.36.72H80a5,5,0,0,0-.38-.68l.48-.14a3.6,3.6,0,0,1,.44.82h1.6v.46H80.28v.58H82v.46H80.28v.63H82v.46H80.28v.62h1.87Zm-1.3,1.52a2.12,2.12,0,0,1-.18.77.7.7,0,0,1-.44.35,8,8,0,0,1-1.47.08,5.56,5.56,0,0,1-1.05-.06.64.64,0,0,1-.36-.24,1,1,0,0,1-.13-.55V45.69h.51v1.47c0,.16,0,.26.14.29a4.63,4.63,0,0,0,1,0,7.61,7.61,0,0,0,1.11,0,.39.39,0,0,0,.26-.21,1.58,1.58,0,0,0,.09-.66Zm-1.06-4.15v-.58H78.21v.58Zm0,1.09v-.63H78.21v.63Zm0,1.08v-.62H78.21v.62Zm-.11,1.79-.44.28a5.91,5.91,0,0,0-.86-1l.44-.29A6.52,6.52,0,0,1,79.69,46.59Zm2.71.88-.43.26A8.74,8.74,0,0,0,80.76,46l.44-.27A9.59,9.59,0,0,1,82.4,47.47Z"/><path d="M51.91,59.34a.61.61,0,0,1-.29.57,3.26,3.26,0,0,1-1.31.16h-.44l-.17-.55.73,0a3,3,0,0,0,.83-.06.2.2,0,0,0,.11-.19V56.88H48.55v2.93H48V56.88H45.15a6.67,6.67,0,0,1-1,3.15l-.47-.33a6.2,6.2,0,0,0,1-3.6V51.51h7.24ZM48,53.87V52.05H45.21v1.82Zm0,2.49V54.42H45.21v1.94Zm3.37-2.49V52.05H48.55v1.82Zm0,2.49V54.42H48.55v1.94Z"/><path d="M57.07,56.28l-.36.4a6.76,6.76,0,0,0-.86-1.25v4.63h-.53V55.41A14.07,14.07,0,0,1,54,57.88l-.35-.41a13.37,13.37,0,0,0,1.66-3.2H53.67v-.5h1.65V52.29l-1.22.23-.27-.5a10.29,10.29,0,0,0,2.9-.69l.3.46c-.49.17-.88.3-1.18.38v1.6H57v.5H55.85v.41A9.22,9.22,0,0,1,57.07,56.28Zm5.3,3.54H56.74v-.49H59.3V57.8H57.09v-.5H59.3V55.85c-1.06.07-1.72.11-2,.11l-.24-.51a22.2,22.2,0,0,0,4.76-.53l.33.45q-1,.24-2.34.42V57.3H62v.5H59.84v1.53h2.53Zm-.64-5.48h-4.3V51.61h4.3Zm-.54-.51V52.11H58v1.72Z"/><path d="M72.37,57.91c-.3,1.5-.73,2.25-1.28,2.25A.74.74,0,0,1,70.7,60a2.73,2.73,0,0,1-.54-.61,5.92,5.92,0,0,1-.61-1.21,8.51,8.51,0,0,1-.41-2c-.09-.88-.15-1.76-.19-2.63H63.72V53H68.9c0-.74,0-1.31,0-1.72h.53c0,.79,0,1.37,0,1.72h2.91v.54H69.45c0,.69.1,1.63.24,2.8a6,6,0,0,0,.72,2.52c.34.5.56.76.68.76s.32-.24.48-.72a6.72,6.72,0,0,0,.29-1.28Zm-3.71.39c-1.61.41-3.13.75-4.56,1L64,58.78c.54-.09,1.22-.21,2.05-.37v-2.9H64.25V55h4.14v.54H66.54v2.78c.78-.16,1.49-.33,2.12-.51Zm3.24-5.77-.44.3a6.1,6.1,0,0,0-1.13-1.06l.43-.34A5.41,5.41,0,0,1,71.9,52.53Z"/><path d="M180.42,46.72h-.92l-.82-2.15h-3.24l-.77,2.15h-.93l2.91-7.57h.85Zm-2-2.91-1.22-3.27a3.71,3.71,0,0,1-.11-.5h0a3.35,3.35,0,0,1-.12.5l-1.2,3.27Z"/><path d="M182.38,43.84v2.88h-.83V39.15h2a2.75,2.75,0,0,1,1.86.59,2.13,2.13,0,0,1,.67,1.66,2.27,2.27,0,0,1-.79,1.8,2.67,2.67,0,0,1-1.94.64Zm0-3.92v3.15h1a2.13,2.13,0,0,0,1.42-.42,1.52,1.52,0,0,0,.49-1.21c0-1-.6-1.52-1.8-1.52Z"/><path d="M188.39,46.72h-.83V39.15h.83Z"/><path d="M170.78,51.68H163.4v2.89a12.84,12.84,0,0,1-.79,4.71l-.43-.36a12.19,12.19,0,0,0,.72-4.34V51.22h3.74c-.13-.22-.26-.43-.4-.64l.52-.13a3.55,3.55,0,0,1,.45.77h3.57Zm-5.68,5.39A7.06,7.06,0,0,1,163.92,59l-.39-.33a6.07,6.07,0,0,0,1.09-1.79Zm.56-5a6.69,6.69,0,0,1-.62,1.34v3.13h-.5V54.1a5.42,5.42,0,0,1-.62.71l-.33-.39a6.85,6.85,0,0,0,1.62-2.56Zm5,4.39h-4.44v-2.5c-.16.2-.39.47-.68.8l-.3-.42a9.34,9.34,0,0,0,1.66-2.44l.44.17a5.17,5.17,0,0,1-.35.71h1.5a4.12,4.12,0,0,0-.38-.67l.49-.15a4.33,4.33,0,0,1,.44.82h1.59v.47H168.8v.57h1.7v.47h-1.7v.63h1.7v.46h-1.7V56h1.87Zm-1.3,1.51a1.87,1.87,0,0,1-.18.78.67.67,0,0,1-.43.34,7,7,0,0,1-1.47.09,5.42,5.42,0,0,1-1-.06.56.56,0,0,1-.36-.25.92.92,0,0,1-.13-.54V56.86h.5v1.47c0,.16.05.25.14.29a5.48,5.48,0,0,0,1,.05,6.78,6.78,0,0,0,1.11-.05.41.41,0,0,0,.27-.21,1.58,1.58,0,0,0,.09-.66Zm-1.06-4.15v-.57h-1.57v.57Zm0,1.1v-.63h-1.58v.63Zm0,1.08v-.62h-1.58V56Zm-.1,1.78-.44.29a6,6,0,0,0-.87-1l.44-.3A7.71,7.71,0,0,1,168.22,57.75Zm2.71.89-.43.26a10.08,10.08,0,0,0-1.21-1.78l.44-.26A10.29,10.29,0,0,1,170.93,58.64Z"/><path d="M180.43,58.51a.58.58,0,0,1-.29.56,3.23,3.23,0,0,1-1.31.16h-.44l-.16-.54.72,0a3,3,0,0,0,.83-.06.2.2,0,0,0,.12-.19V56.05h-2.83V59h-.54V56.05h-2.85a6.59,6.59,0,0,1-1,3.14l-.47-.32a6.33,6.33,0,0,0,1-3.61V50.67h7.24ZM176.53,53V51.22h-2.8V53Zm0,2.49v-2h-2.8v2ZM179.9,53V51.22h-2.83V53Zm0,2.49v-2h-2.83v2Z"/><path d="M185.59,55.44l-.36.4a7.51,7.51,0,0,0-.86-1.25v4.63h-.52V54.58a13.73,13.73,0,0,1-1.35,2.47l-.35-.41a14,14,0,0,0,1.67-3.2H182.2v-.51h1.65V51.46l-1.22.22-.27-.49a10.85,10.85,0,0,0,2.89-.69l.31.46-1.19.38v1.59h1.19v.51h-1.19v.41A9.1,9.1,0,0,1,185.59,55.44Zm5.3,3.54h-5.63V58.5h2.57V57h-2.22v-.5h2.22V55l-2,.12-.24-.52a22.18,22.18,0,0,0,4.76-.52l.34.45c-.67.15-1.45.29-2.35.42v1.51h2.15V57h-2.15V58.5h2.53Zm-.64-5.47H186V50.78h4.29Zm-.53-.51V51.27h-3.23V53Z"/><path d="M200.89,57.08c-.3,1.5-.72,2.25-1.28,2.25a.67.67,0,0,1-.39-.13,2.34,2.34,0,0,1-.53-.61,5.46,5.46,0,0,1-.62-1.21,8.11,8.11,0,0,1-.4-2c-.09-.88-.16-1.76-.2-2.62h-5.23v-.54h5.19c0-.74,0-1.32,0-1.73h.52c0,.8,0,1.37,0,1.73h2.91v.54H198c0,.69.11,1.62.25,2.79a6.21,6.21,0,0,0,.71,2.52c.34.51.57.76.69.76s.32-.24.47-.72a6,6,0,0,0,.29-1.27Zm-3.7.39c-1.62.41-3.14.74-4.56,1l-.13-.53c.54-.08,1.23-.21,2.05-.36v-2.9h-1.77v-.54h4.13v.54h-1.85v2.78q1.17-.26,2.13-.51Zm3.23-5.78L200,52a6,6,0,0,0-1.12-1.06l.43-.34A5.56,5.56,0,0,1,200.42,51.69Z"/><rect class="cls-5" x="64.49" y="19.99" width="99.53" height="1.75" rx="0.76"/></g></svg>