<svg xmlns="http://www.w3.org/2000/svg" viewBox="0 0 204.71 69.22"><defs><style>.cls-1,.cls-3{fill:#008bfd;}.cls-2{fill:#505050;}.cls-3{stroke:gray;stroke-linecap:round;stroke-linejoin:round;stroke-width:0.75px;}.cls-4{fill:#fff;}.cls-5{fill:#00b0f0;}</style></defs><title>OJ104546510</title><g id="shapes"><g id="group1071-4"><g id="group1072-5"><g id="shape1073-6"><path class="cls-1" d="M66,32.83a11.78,11.78,0,0,1-16.84-2.29,12.56,12.56,0,0,1,2.24-17.29,11.82,11.82,0,0,1,16.84,2.3A12.54,12.54,0,0,1,66,32.83Zm3.66-18.41a13.57,13.57,0,0,0-19.36-2.63,14.43,14.43,0,0,0-2.55,19.87A13.55,13.55,0,0,0,67.13,34.3,14.45,14.45,0,0,0,69.69,14.42Z"/></g></g><g id="group1074-8"><g id="group1075-9"><g id="group1076-10"><g id="shape1077-11"><path class="cls-1" d="M52.06,25.61a17,17,0,0,1-2-2.35,18.28,18.28,0,0,0-1.66,6.88c.11.16.11.29.23.45a13.4,13.4,0,0,0,2,2.05A14.14,14.14,0,0,1,52.06,25.61Z"/></g></g><g id="shape1078-13"><path class="cls-1" d="M56.67,16.17a21,21,0,0,0-3.33,3,15.71,15.71,0,0,0-1.61,2.05,15.93,15.93,0,0,0,1.9,2.47,15.93,15.93,0,0,1,2.2-2.57A26.31,26.31,0,0,1,59,18.5C58.16,17.73,57.38,17,56.67,16.17Z"/></g><g id="group1079-15"><g id="shape1080-16"><path class="cls-1" d="M68.14,15.37a12.47,12.47,0,0,0-1.73-1.82,12.55,12.55,0,0,0-8,1.54c.76.83,1.51,1.62,2.24,2.36C65,15,68.14,15.37,68.14,15.37Z"/></g></g><g id="group1081-18"><g id="shape1082-19"><path class="cls-1" d="M50.54,32.64a19.94,19.94,0,0,1,1.19-2.07,9.83,9.83,0,0,1-1.6-6.79,13.9,13.9,0,0,0-1.29,1.6C48.46,27,48.44,29.55,50.54,32.64Z"/></g></g><g id="group1083-21"><g id="shape1084-22"><path class="cls-1" d="M55.9,25.79a22.67,22.67,0,0,1-2.27-2.13,13.15,13.15,0,0,0-1.14,1.95,25.16,25.16,0,0,0,2.09,1.9A19.15,19.15,0,0,0,67.14,31.9,9.13,9.13,0,0,0,68.68,30C67.45,30.21,62.19,30.9,55.9,25.79Z"/></g></g><g id="group1085-24"><g id="shape1086-25"><path class="cls-1" d="M50.54,23.26a16.8,16.8,0,0,0,2,2.35,14.09,14.09,0,0,1,1.14-1.95,15.93,15.93,0,0,1-1.9-2.47A15.67,15.67,0,0,0,50.54,23.26Z"/></g></g><g id="group1087-27"><g id="shape1088-28"><path class="cls-1" d="M59,18.49a98.68,98.68,0,0,0,11.15,8.83,10.76,10.76,0,0,0,.33-1.06,95,95,0,0,1-9.83-8.81A17.67,17.67,0,0,0,59,18.49Z"/></g></g><g id="group1089-30"><g id="shape1090-31"><path class="cls-1" d="M58.38,15.08c-1.1-1.18-2.22-2.44-3.36-3.8a11.09,11.09,0,0,0-1.59.66,26.8,26.8,0,0,0,3.24,4.23A15.69,15.69,0,0,1,58.38,15.08Z"/></g></g><g id="shape1091-33"><path class="cls-1" d="M58.45,15a18.74,18.74,0,0,0-1.87,1.19c.72.79,1.45,1.59,2.25,2.36.57-.41,1.34-.89,1.87-1.19C60,16.67,59.21,15.88,58.45,15Z"/></g><g id="shape1092-35"><path class="cls-1" d="M58.25,14.94a14.89,14.89,0,0,0-1.67,1.13c.72.78,1.74,1.8,2.54,2.57a18.53,18.53,0,0,1,1.58-1.11C60,16.8,59,15.78,58.25,14.94Z"/></g></g><g id="group1093-37"><g id="shape1094-38"><path class="cls-1" d="M64.3,21.49a2.71,2.71,0,0,0-.48,3.71,2.55,2.55,0,0,0,3.63.5A2.72,2.72,0,0,0,67.93,22,2.55,2.55,0,0,0,64.3,21.49Z"/></g></g><g id="group1095-40"><g id="shape1096-41"><path class="cls-1" d="M49.34,28.11a2.51,2.51,0,0,0-.45,3.43,2.37,2.37,0,0,0,3.36.46,2.49,2.49,0,0,0,.44-3.43A2.35,2.35,0,0,0,49.34,28.11Z"/></g></g><g id="group1097-43"><g id="shape1098-44"><path class="cls-1" d="M50,20.3a3.79,3.79,0,0,0-.68,5.21,3.57,3.57,0,0,0,5.1.69A3.8,3.8,0,0,0,55.08,21,3.58,3.58,0,0,0,50,20.3Z"/></g></g></g></g><g id="shape1099-49"><path class="cls-1" d="M191.76,10.11h-20.5a1.1,1.1,0,0,0-1.09,1.11V28a1.09,1.09,0,0,0,1.09,1.1h5.28a3.29,3.29,0,0,0,3.21,2.27,3.37,3.37,0,0,0,0-6.74,3.29,3.29,0,0,0-3.21,2.27h-4.19v-12h18.31v12h-3.45a7.61,7.61,0,0,0-7.46-6.57,8.25,8.25,0,0,0-3.64.92l1,2a5.28,5.28,0,0,1,2.55-.68,5.46,5.46,0,0,1,0,10.92,5.28,5.28,0,0,1-2.55-.68l-1,2a7.51,7.51,0,0,0,3.64.92,7.61,7.61,0,0,0,7.46-6.57h4.55a1.09,1.09,0,0,0,1.09-1.1V11.22A1.14,1.14,0,0,0,191.76,10.11Z"/></g><g id="shape1100-52"><g id="lend5"><path class="cls-2" d="M161.69,18.87l8.05,4-8,4a9,9,0,0,0,0-8"/></g></g><g id="group1101-58"><g id="group1102-59"><g id="group1103-60"><g id="group1104-61"><g id="shape1105-62"><path class="cls-1" d="M7.85,15.21a4.49,4.49,0,0,0-3,5.66c.66,2.55,3,4.22,5.27,3.66a4.49,4.49,0,0,0,3-5.66C12.57,16.2,10.16,14.54,7.85,15.21Z"/></g></g><g id="group1106-64"><g id="shape1107-65"><path class="cls-1" d="M12.79,25.22c-.44,0-.88.78-1.54,1.11s-1.32.89-3.18,0S6,24.66,4.44,24.66.38,27.44.38,31.55H16a12.09,12.09,0,0,0-1.1-4.22C13.77,25.22,13.23,25.22,12.79,25.22Z"/></g></g></g></g><g id="group1108-67"><g id="shape1109-68"><path class="cls-3" d="M14.19,20.28H10.07a.71.71,0,0,0-.65.65v2.85a.73.73,0,0,0,.76.66h.76v5.15a1,1,0,0,0,1,1.1,1,1,0,0,0,1-1h.21V29c0-.22.33-.33.33-.33v-.33c-.33-.1-.54-.32-.54-.43v-.33l.21-.22a3.53,3.53,0,0,0,.33-.55,2.4,2.4,0,0,1-.33-.55c-.1-.11-.1-.33-.21-.44v-.21a2.51,2.51,0,0,1,.76-1.1h.54a.71.71,0,0,0,.65-.66v-3A.63.63,0,0,0,14.19,20.28ZM11.8,29.81c0,.22,0,.33-.21.33s-.22-.22-.22-.33V25c0-.22.11-.33.22-.33s.21.22.21.33ZM12.13,22a.66.66,0,0,1,0-1.32.71.71,0,0,1,.65.66A.63.63,0,0,1,12.13,22Z"/></g><g id="shape1110-70"><path class="cls-4" d="M11.57,30.12a.25.25,0,0,1-.22-.23v-5a.22.22,0,1,1,.44,0V30C11.79,30.12,11.68,30.12,11.57,30.12Z"/></g><g id="shape1111-72"><ellipse class="cls-4" cx="12.14" cy="21.35" rx="0.66" ry="0.67"/></g></g></g></g><g id="text"><path d="M179.17,48.63h-.92l-.82-2.15h-3.24l-.77,2.15h-.93l2.91-7.57h.85Zm-2-2.91-1.21-3.27a3.71,3.71,0,0,1-.11-.5h0a2.33,2.33,0,0,1-.13.5l-1.19,3.27Z"/><path d="M181.13,45.76v2.87h-.83V41.06h2a2.7,2.7,0,0,1,1.86.6,2.1,2.1,0,0,1,.66,1.66,2.25,2.25,0,0,1-.78,1.79,2.72,2.72,0,0,1-1.94.65Zm0-3.93V45h1a2.13,2.13,0,0,0,1.42-.42,1.49,1.49,0,0,0,.49-1.21c0-1-.6-1.52-1.8-1.52Z"/><path d="M187.14,48.63h-.83V41.06h.83Z"/><path d="M170.78,53.6H163.4v2.88a12.84,12.84,0,0,1-.79,4.71l-.43-.36a12.19,12.19,0,0,0,.72-4.34V53.13h3.74c-.13-.22-.26-.43-.4-.64l.52-.12a3.25,3.25,0,0,1,.45.76h3.57ZM165.1,59a7.12,7.12,0,0,1-1.18,1.92l-.39-.34a6.07,6.07,0,0,0,1.09-1.79Zm.56-5A7,7,0,0,1,165,55.3v3.13h-.5V56a6.11,6.11,0,0,1-.62.72l-.33-.39a7,7,0,0,0,1.62-2.57Zm5,4.39h-4.44v-2.5c-.16.21-.39.47-.68.8l-.3-.42a9.18,9.18,0,0,0,1.66-2.44l.44.17a5.9,5.9,0,0,1-.35.72h1.5a4.08,4.08,0,0,0-.38-.68l.49-.14a3.78,3.78,0,0,1,.44.82h1.59v.46H168.8v.58h1.7v.46h-1.7v.63h1.7v.46h-1.7v.62h1.87Zm-1.3,1.52a1.85,1.85,0,0,1-.18.77.67.67,0,0,1-.43.34,7,7,0,0,1-1.47.09,5.42,5.42,0,0,1-1-.06.56.56,0,0,1-.36-.25.9.9,0,0,1-.13-.54V58.77h.5v1.47c0,.16.05.25.14.29a5.48,5.48,0,0,0,1,0,6.78,6.78,0,0,0,1.11,0,.41.41,0,0,0,.27-.21,1.56,1.56,0,0,0,.09-.65Zm-1.06-4.15v-.58h-1.57v.58Zm0,1.09v-.63h-1.58v.63Zm0,1.08v-.62h-1.58v.62Zm-.1,1.79-.44.28a6.39,6.39,0,0,0-.87-1l.44-.29A7.14,7.14,0,0,1,168.22,59.67Zm2.71.88-.43.26A9.63,9.63,0,0,0,169.29,59l.44-.27A10.29,10.29,0,0,1,170.93,60.55Z"/><path d="M180.43,60.42a.58.58,0,0,1-.29.56,3.17,3.17,0,0,1-1.31.17h-.44l-.16-.55.72,0a3,3,0,0,0,.83-.06.2.2,0,0,0,.12-.19V58h-2.83v2.93h-.54V58h-2.85a6.78,6.78,0,0,1-1,3.15l-.47-.33a6.32,6.32,0,0,0,1-3.6V52.59h7.24ZM176.53,55V53.13h-2.8V55Zm0,2.49V55.5h-2.8v1.94ZM179.9,55V53.13h-2.83V55Zm0,2.49V55.5h-2.83v1.94Z"/><path d="M185.59,57.36l-.36.4a6.76,6.76,0,0,0-.86-1.25v4.63h-.52V56.49A13.73,13.73,0,0,1,182.5,59l-.35-.41a14,14,0,0,0,1.67-3.2H182.2v-.5h1.65V53.37l-1.22.23-.27-.5a10.85,10.85,0,0,0,2.89-.69l.31.46c-.49.17-.89.29-1.19.38v1.6h1.19v.5h-1.19v.41A8.73,8.73,0,0,1,185.59,57.36Zm5.3,3.54h-5.63v-.49h2.57V58.88h-2.22v-.5h2.22V56.93c-1.07.07-1.73.1-2,.11l-.24-.51a22.78,22.78,0,0,0,4.76-.53l.34.45c-.67.15-1.45.29-2.35.42v1.51h2.15v.5h-2.15v1.53h2.53Zm-.64-5.48H186V52.69h4.29Zm-.53-.51V53.19h-3.23v1.72Z"/><path d="M200.89,59c-.3,1.5-.72,2.25-1.28,2.25a.67.67,0,0,1-.39-.13,2.34,2.34,0,0,1-.53-.61,5.25,5.25,0,0,1-.62-1.21,8.11,8.11,0,0,1-.4-2c-.09-.88-.16-1.75-.2-2.62h-5.23v-.54h5.19c0-.74,0-1.32,0-1.72h.52c0,.79,0,1.36,0,1.72h2.91v.54H198c0,.69.11,1.62.25,2.8a6.1,6.1,0,0,0,.71,2.51c.34.51.57.76.69.76s.32-.24.47-.71a6.17,6.17,0,0,0,.29-1.28Zm-3.7.39c-1.62.41-3.14.74-4.56,1l-.13-.52c.54-.09,1.23-.21,2.05-.37v-2.9h-1.77v-.54h4.13v.54h-1.85v2.78q1.17-.25,2.13-.51Zm3.23-5.77-.44.3a6,6,0,0,0-1.12-1.06l.43-.34A5.38,5.38,0,0,1,200.42,53.61Z"/><path d="M37.76,49.87H33.68v1.39h-.52V49.87H29.08v-.48h4.08v-.81h-3V45.42h6.63v3.16H33.68v.81h4.08ZM33,44.74H29.79v-2H33Zm-.5-.51v-1H30.32v1Zm.68,2.48V45.9H30.63v.81Zm0,1.38v-.9H30.63v.9Zm3.07-1.38V45.9H33.68v.81Zm0,1.38v-.9H33.68v.9Zm.85-3.35H33.91v-2h3.17Zm-.52-.49v-1H34.41v1Z"/><path d="M47.76,43.3h-4a10,10,0,0,1-.43,1.08h3.33V49.3H42.28l.3.31a12.13,12.13,0,0,1-3,1.7l-.35-.45a10,10,0,0,0,2.9-1.56h-2V44.38h2.59a6.18,6.18,0,0,0,.43-1.08H39.07v-.51h8.69Zm-1.62,2.47v-.88H40.71v.88Zm0,1.49v-1H40.71v1Zm0,1.53v-1H40.71v1Zm1.45,2-.28.49a11.39,11.39,0,0,0-3-1.25l.26-.45A16.15,16.15,0,0,1,47.59,50.81Z"/><path d="M57.64,43.75H50.26v2.88a12.84,12.84,0,0,1-.79,4.71L49,51a12.15,12.15,0,0,0,.73-4.34V43.28h3.74c-.13-.22-.27-.43-.41-.64l.52-.12a3.25,3.25,0,0,1,.45.76h3.57ZM52,49.13a7.36,7.36,0,0,1-1.17,1.92l-.39-.34a6.05,6.05,0,0,0,1.08-1.79Zm.56-5a6.23,6.23,0,0,1-.62,1.35v3.13h-.49V46.16a7.25,7.25,0,0,1-.62.72l-.34-.39a7,7,0,0,0,1.62-2.57Zm5,4.39H53.1V46c-.17.21-.4.47-.69.8l-.3-.42a9,9,0,0,0,1.66-2.44l.44.17a5.9,5.9,0,0,1-.35.72h1.51a4.38,4.38,0,0,0-.39-.68l.49-.14a3.39,3.39,0,0,1,.44.82H57.5v.46H55.66v.58h1.7v.46h-1.7V47h1.7v.46h-1.7V48h1.87ZM56.23,50a2,2,0,0,1-.17.77.77.77,0,0,1-.44.35,8.12,8.12,0,0,1-1.47.08,5.56,5.56,0,0,1-1-.06.56.56,0,0,1-.36-.25.9.9,0,0,1-.13-.54V48.92h.5v1.47c0,.16,0,.25.14.29a5.63,5.63,0,0,0,1,0,7,7,0,0,0,1.11,0,.41.41,0,0,0,.26-.21,1.56,1.56,0,0,0,.09-.65Zm-1-4.15v-.58H53.6v.58Zm0,1.09v-.63H53.6V47Zm0,1.08v-.62H53.6V48Zm-.11,1.79-.44.28a5.52,5.52,0,0,0-.87-1l.44-.29A6.06,6.06,0,0,1,55.08,49.82Zm2.71.88-.43.26a9.16,9.16,0,0,0-1.21-1.77l.44-.27A9.27,9.27,0,0,1,57.79,50.7Z"/><path d="M67.29,50.57a.56.56,0,0,1-.29.56,3.12,3.12,0,0,1-1.3.17h-.45l-.16-.55.72,0a3,3,0,0,0,.84-.06.2.2,0,0,0,.11-.19V48.11H63.94V51h-.55V48.11H60.54a6.67,6.67,0,0,1-1,3.15L59,50.93a6.24,6.24,0,0,0,1-3.6V42.74h7.24Zm-3.9-5.47V43.28H60.6V45.1Zm0,2.49V45.65H60.6v1.94Zm3.37-2.49V43.28H63.94V45.1Zm0,2.49V45.65H63.94v1.94Z"/><path d="M72.46,47.51l-.37.4a6.31,6.31,0,0,0-.86-1.25v4.63h-.52V46.64a13.73,13.73,0,0,1-1.35,2.47L69,48.7a13.58,13.58,0,0,0,1.67-3.2H69.06V45h1.65V43.52l-1.22.23-.27-.5a10.85,10.85,0,0,0,2.89-.69l.31.46c-.49.17-.88.29-1.19.38V45h1.19v.5H71.23v.41A9.4,9.4,0,0,1,72.46,47.51Zm5.29,3.54H72.12v-.49h2.57V49H72.48v-.5h2.21V47.08c-1.07.07-1.72.1-2,.11l-.23-.51a22.94,22.94,0,0,0,4.76-.53l.33.45c-.67.16-1.45.29-2.35.42v1.51h2.15V49H75.22v1.53h2.53Zm-.64-5.48H72.82V42.84h4.29Zm-.53-.51V43.34H73.35v1.72Z"/><path d="M87.75,49.14c-.29,1.5-.72,2.25-1.28,2.25a.62.62,0,0,1-.38-.13,2.32,2.32,0,0,1-.54-.61,5.24,5.24,0,0,1-.61-1.21,8,8,0,0,1-.41-2c-.09-.88-.16-1.75-.19-2.62H79.11v-.54h5.18c0-.74,0-1.32,0-1.72h.52c0,.79,0,1.36,0,1.72h2.91v.54H84.83c0,.69.11,1.62.25,2.8a5.93,5.93,0,0,0,.72,2.51c.34.51.56.76.68.76s.32-.24.48-.71a6.9,6.9,0,0,0,.29-1.28Zm-3.7.39c-1.62.41-3.14.74-4.56,1L79.36,50c.54-.09,1.23-.21,2.06-.37v-2.9H79.64V46.2h4.13v.54H81.92v2.78q1.17-.26,2.13-.51Zm3.23-5.77-.43.3A6.07,6.07,0,0,0,85.72,43l.43-.34A5.4,5.4,0,0,1,87.28,43.76Z"/><path class="cls-5" d="M101.72,5.88c0,.1-.27.89-.8,2.39a4.08,4.08,0,0,1,.74,2.21,1.25,1.25,0,0,1-.25.83c-.16.2-.55.29-1.16.26l-.17-.56a4.06,4.06,0,0,0,.51,0c.25,0,.41-.05.47-.14a1,1,0,0,0,.09-.51,3.46,3.46,0,0,0-.76-2.07c.39-1.08.66-1.89.8-2.45H99.81v8h-.5V5.37h2.41Zm1.14,6.21a6.12,6.12,0,0,1-1.19,1.47l-.42-.33a5.9,5.9,0,0,0,1.19-1.43Zm4.64-3.44H102V8.2h2.54V7.73h-2.07V7.28H107v.45h-2V8.2h2.5Zm.2,1.85h-.82v1h-4.44V11h3.93V10.5H102v-.44h4.41v-.5h-3.93V9.1h4.44v1h.82Zm-.54-4.92a21.44,21.44,0,0,1-4.67.58l-.19-.49a19.33,19.33,0,0,0,4.58-.52Zm-3.54,1.29-.43.28a2.72,2.72,0,0,0-.62-.59l.44-.27A4.07,4.07,0,0,1,103.62,6.87Zm2.51,5.79a1.42,1.42,0,0,1-.34.93.86.86,0,0,1-.5.17l-1.5,0a.64.64,0,0,1-.43-.15.63.63,0,0,1-.17-.47V11.83h.51V13a.21.21,0,0,0,.13.22,2.32,2.32,0,0,0,.71.06,3.15,3.15,0,0,0,.84-.06.28.28,0,0,0,.17-.22l.09-.54Zm-.92-.15-.41.32a4.5,4.5,0,0,0-.67-.81l.38-.32A3.93,3.93,0,0,1,105.21,12.51ZM105.07,7l-.47.16a2.37,2.37,0,0,0-.35-.74l.45-.16A2.33,2.33,0,0,1,105.07,7Zm1.84-.57a3.4,3.4,0,0,1-.75.67l-.39-.3a4.29,4.29,0,0,0,.77-.65Zm.74,6.85-.47.3A5.8,5.8,0,0,0,106.06,12l.42-.29A7.32,7.32,0,0,1,107.65,13.23Z"/><path class="cls-5" d="M117.76,7.72l-.27.48a11.63,11.63,0,0,1-4.18-2.44,11.47,11.47,0,0,1-4.16,2.42l-.31-.48a9.63,9.63,0,0,0,4.38-2.62l.6.15-.13.15A9.69,9.69,0,0,0,117.76,7.72Zm-1.15,6.18h-.54v-.47h-5.5v.47H110V10.76h3.67A22.23,22.23,0,0,0,115.62,9h-5.33V8.46h6V9a21.45,21.45,0,0,1-1.83,1.78h2.11Zm-.54-1V11.29h-5.5V12.9Zm-1.26-5.35h-3V7h3Z"/><path class="cls-5" d="M120.91,10.68a18.23,18.23,0,0,1-1.53,3.25l-.44-.36a15.83,15.83,0,0,0,1.49-3.17Zm0-1.52-.37.39A9.29,9.29,0,0,0,119,8.23l.32-.41A10.3,10.3,0,0,1,120.89,9.16Zm.18-2.68-.35.42a9.92,9.92,0,0,0-1.48-1.38l.35-.41A12.64,12.64,0,0,1,121.07,6.48Zm1.53,3.21a8.56,8.56,0,0,1-.3,2.64A3.31,3.31,0,0,1,121,13.9l-.41-.39a2.93,2.93,0,0,0,1-1.07,5.53,5.53,0,0,0,.43-2.75Zm5.11-.41-.44.34a8.35,8.35,0,0,0-.6-.81c-2,.23-3.67.39-5.12.5l-.13-.52a5.46,5.46,0,0,0,2-2.1h-2.09V6.17h2.39c.12-.24.28-.6.47-1.07l.54.14c-.06.17-.2.48-.41.93h3.21v.52h-3.48a6.42,6.42,0,0,1-1.67,2c1.28-.08,2.57-.2,3.87-.35a7.23,7.23,0,0,0-.89-.86l.41-.35A11.81,11.81,0,0,1,127.71,9.28Zm-3.42,4.62h-.52V9.69h.52Zm3.38-.12h-1.33c-.5,0-.75-.24-.75-.71V9.69h.51V13q0,.27.3.27h1.27Z"/><path class="cls-5" d="M132.38,10.11l-.36.4a6.76,6.76,0,0,0-.86-1.25v4.63h-.52V9.24a13.73,13.73,0,0,1-1.35,2.47l-.35-.41a13.76,13.76,0,0,0,1.67-3.2H129V7.6h1.65V6.12l-1.22.23-.27-.5A11,11,0,0,0,132,5.16l.31.46c-.49.17-.89.29-1.19.38V7.6h1.19v.5h-1.19v.41A9.22,9.22,0,0,1,132.38,10.11Zm5.3,3.54h-5.63v-.49h2.57V11.63H132.4v-.5h2.22V9.68c-1.07.07-1.73.1-2,.11l-.24-.51a22.13,22.13,0,0,0,4.76-.53l.34.45c-.67.16-1.46.3-2.35.42v1.51h2.15v.5h-2.15v1.53h2.53ZM137,8.17h-4.29V5.44H137Zm-.53-.51V5.94h-3.23V7.66Z"/><rect class="cls-2" x="72.98" y="21.99" width="90.64" height="1.75" rx="0.76"/></g></svg>