<?xml version="1.0" encoding="utf-8"?>
<!-- Generator: Adobe Illustrator 23.0.3, SVG Export Plug-In . SVG Version: 6.00 Build 0)  -->
<svg version="1.1" xmlns="http://www.w3.org/2000/svg" xmlns:xlink="http://www.w3.org/1999/xlink" x="0px" y="0px"
	 viewBox="0 0 247.3 64.5" style="enable-background:new 0 0 247.3 64.5;" xml:space="preserve">
<style type="text/css">
	.st0{fill-rule:evenodd;clip-rule:evenodd;fill:#008BFD;}
	
		.st1{fill-rule:evenodd;clip-rule:evenodd;fill:#008BFD;stroke:#808080;stroke-width:0.75;stroke-linecap:round;stroke-linejoin:round;stroke-miterlimit:3;}
	.st2{fill-rule:evenodd;clip-rule:evenodd;fill:#FFFFFF;}
	.st3{enable-background:new    ;}
	.st4{fill:none;}
	.st5{display:none;}
	.st6{display:inline;enable-background:new    ;}
	.st7{fill:#00B0F0;}
	.st8{fill:#505050;}
	.st9{display:inline;}
	.st10{fill-rule:evenodd;clip-rule:evenodd;fill:#505050;}
</style>
<g id="shapes" xmlns:ev="http://www.w3.org/2001/xml-events" xmlns:v="http://schemas.microsoft.com/visio/2003/SVGExtensions/">
	<g id="group1549-1_1_" transform="translate(43.141,-20.0036)">
		<g id="group1550-2_1_">
			<g id="shape1551-3_1_">
				<path class="st0" d="M22.9,60.1c-2.2,1.7-4.8,2.5-7.3,2.5c-3.6,0-7.2-1.7-9.6-4.8c-4-5.4-3-13.1,2.2-17.3
					c2.2-1.7,4.8-2.5,7.3-2.5c3.6,0,7.2,1.7,9.5,4.8C29.2,48.3,28.2,56,22.9,60.1z M26.5,41.7c-2.7-3.6-6.8-5.5-11-5.5
					c-2.9,0-5.9,1-8.4,2.9C1.1,43.9,0,52.8,4.6,59c2.7,3.6,6.8,5.5,11,5.5c2.9,0,5.9-0.9,8.4-2.9C30,56.8,31.2,48,26.5,41.7z"/>
			</g>
		</g>
		<g id="group1552-5_1_" transform="translate(4.95554,-4.39536)">
			<g id="group1553-6_1_" transform="translate(0.341805,-0.176482)">
				<g id="group1554-7_1_" transform="translate(0.437248,3.2685E-13)">
					<g id="shape1555-8_1_">
						<path class="st0" d="M3.6,57.5c-0.8-0.8-1.4-1.6-2-2.3C0.5,57.6,0.1,60.1,0,62c0.1,0.2,0.1,0.3,0.2,0.4c0.6,0.8,1.3,1.5,2,2
							C2.1,62.9,2.3,60.3,3.6,57.5z"/>
					</g>
				</g>
				<g id="shape1556-10_1_" transform="translate(3.29213,-8.97695)">
					<path class="st0" d="M4.9,57c-1.1,0.8-2.2,1.8-3.3,3C1,60.7,0.5,61.4,0,62.1c0.5,0.8,1.1,1.6,1.9,2.5c0.6-0.9,1.3-1.7,2.2-2.6
						c1.1-1.1,2.2-1.9,3.1-2.6C6.4,58.6,5.7,57.8,4.9,57z"/>
				</g>
				<g id="group1557-12_1_" transform="translate(9.93516,-15.1958)">
					<g id="shape1558-13_1_">
						<path class="st0" d="M9.8,62.5c-0.5-0.7-1.1-1.3-1.7-1.8c-1.9-0.3-4.7-0.3-8,1.5c0.8,0.8,1.5,1.6,2.2,2.4
							C6.6,62.1,9.8,62.5,9.8,62.5z"/>
					</g>
				</g>
				<g id="group1559-15_1_" transform="translate(1.10162E-13,-9.38012)">
					<g id="shape1560-16_1_">
						<path class="st0" d="M2.1,64.5c0.3-0.7,0.7-1.4,1.2-2.1c-1.9-3.1-1.8-5.6-1.6-6.8c-0.5,0.5-0.9,1-1.3,1.6
							C0,58.9,0,61.4,2.1,64.5z"/>
					</g>
				</g>
				<g id="group1561-18_1_" transform="translate(4.05148,-0.740211)">
					<g id="shape1562-19_1_">
						<path class="st0" d="M3.4,58.4c-0.9-0.7-1.6-1.4-2.3-2.1c-0.5,0.7-0.8,1.3-1.1,2c0.6,0.6,1.3,1.3,2.1,1.9
							c4.9,4,9.8,4.4,12.6,4.4c0.2,0,1-1.2,1.5-1.9C15,62.8,9.7,63.5,3.4,58.4z"/>
					</g>
				</g>
				<g id="group1563-21_1_" transform="translate(2.10339,-7.03041)">
					<g id="shape1564-22_1_">
						<path class="st0" d="M0,62.2c0.5,0.8,1.1,1.5,2,2.4c0.3-0.6,0.7-1.3,1.1-2c-0.8-0.8-1.4-1.7-1.9-2.5C0.7,60.8,0.3,61.5,0,62.2
							z"/>
					</g>
				</g>
				<g id="group1565-24_1_" transform="translate(10.5195,-5.3233)">
					<g id="shape1566-25_1_">
						<path class="st0" d="M0,55.7c4.5,4.3,9.8,7.9,11.1,8.8c0.1-0.3,0.2-0.7,0.3-1c-1.4-1.1-5.3-4.2-9.8-8.8
							C1.1,55,0.6,55.3,0,55.7z"/>
					</g>
				</g>
				<g id="group1567-27_1_" transform="translate(4.98729,-16.4714)">
					<g id="shape1568-28_1_">
						<path class="st0" d="M4.9,63.4c-1.1-1.2-2.2-2.4-3.4-3.8C1,59.8,0.5,60,0,60.3c0.8,1.4,2,2.8,3.2,4.2
							C3.8,64.1,4.4,63.7,4.9,63.4z"/>
					</g>
				</g>
				<g id="shape1569-30_1_" transform="translate(8.13763,-14.0503)">
					<path class="st0" d="M1.9,61c-0.6,0.3-1.3,0.8-1.9,1.2c0.7,0.8,1.5,1.6,2.3,2.4c0.6-0.4,1.3-0.9,1.9-1.2
						C3.4,62.6,2.6,61.8,1.9,61z"/>
				</g>
				<g id="shape1570-32_1_" transform="translate(8.1369,-14.0039)">
					<path class="st0" d="M1.7,60.8C1.1,61.1,0.6,61.5,0,62c0.7,0.8,1.7,1.8,2.5,2.6c0.6-0.4,1-0.8,1.6-1.1
						C3.4,62.7,2.4,61.7,1.7,60.8z"/>
				</g>
			</g>
			<g id="group1571-34_1_" transform="translate(14.8617,-6.23662)">
				<g id="shape1572-35_1_">
					<path class="st0" d="M1.3,59.4C0.2,60.3,0,62,0.9,63.1c0.9,1.2,2.5,1.4,3.6,0.5c1.1-0.9,1.3-2.5,0.5-3.7
						C4.1,58.8,2.5,58.5,1.3,59.4z"/>
				</g>
			</g>
			<g id="group1573-37_1_" transform="translate(9.65099,-2.13163E-13)">
				<g id="shape1574-38_1_">
					<path class="st0" d="M1.2,59.8c-1,0.8-1.2,2.4-0.4,3.4c0.8,1.1,2.3,1.3,3.4,0.5c1-0.8,1.2-2.4,0.4-3.4
						C3.8,59.2,2.3,59,1.2,59.8z"/>
				</g>
			</g>
			<g id="group1575-40_1_" transform="translate(0,-5.36433)">
				<g id="shape1576-41_1_">
					<path class="st0" d="M1.9,57.4c-1.6,1.3-1.9,3.6-0.7,5.2c1.2,1.6,3.5,2,5.1,0.7S8.2,59.7,7,58C5.8,56.4,3.5,56.1,1.9,57.4z"/>
				</g>
			</g>
		</g>
	</g>
	<g id="shape1578-49_1_" transform="translate(214.796,-21.421)">
		<path class="st0" d="M21.6,39H1.1C0.5,39,0,39.5,0,40.1v16.7C0,57.5,0.5,58,1.1,58h5.3c0.4,1.4,1.7,2.3,3.2,2.3
			c1.8,0,3.3-1.5,3.3-3.4s-1.5-3.4-3.3-3.4c-1.5,0-2.8,0.9-3.2,2.3H2.2v-12h18.3v12H17c-0.5-3.7-3.7-6.6-7.5-6.6
			c-1.3,0-2.5,0.4-3.6,0.9l1,2c0.7-0.4,1.7-0.7,2.6-0.7c2.9,0,5.4,2.4,5.4,5.5c0,3-2.4,5.5-5.4,5.5c-0.9,0-1.8-0.3-2.6-0.7l-1,2
			c1.1,0.6,2.4,0.9,3.6,0.9c3.8,0,7-2.9,7.5-6.6h4.5c0.6,0,1.1-0.5,1.1-1.1V40.1C22.7,39.6,22.2,39,21.6,39z"/>
	</g>
	<g id="group1580-58_1_" transform="translate(0.375,-25.6729)">
		<g id="group1581-59_1_">
			<g id="group1582-60_1_">
				<g id="group1583-61_1_" transform="translate(3.8518,-6.4617)">
					<g id="shape1584-62_1_">
						<path class="st0" d="M3.6,54.6c-2.3,0.6-3.6,3.1-3,5.7c0.7,2.6,3,4.2,5.3,3.7c2.3-0.6,3.6-3.1,3-5.7C8.3,55.6,5.9,54,3.6,54.6
							z"/>
					</g>
				</g>
				<g id="group1585-64_1_">
					<g id="shape1586-65_1_">
						<path class="st0" d="M12.4,58.2c-0.4,0-0.9,0.8-1.5,1.1c-0.7,0.3-1.3,0.9-3.2,0c-1.9-0.9-2.1-1.7-3.6-1.7
							c-1.5,0-4.1,2.8-4.1,6.9h15.6c0,0-0.2-2.8-1.1-4.2C13.4,58.2,12.9,58.2,12.4,58.2z"/>
					</g>
				</g>
			</g>
		</g>
		<g id="group1587-67_1_" transform="translate(9.0485,-0.85947)">
			<g id="shape1588-68_1_">
				<path class="st1" d="M4.8,54.1H0.7c-0.3,0-0.6,0.3-0.6,0.7v2.8c0,0.3,0.3,0.7,0.8,0.7h0.8v5.2c0,0.6,0.4,1.1,1,1.1s1-0.4,1-1
					c0.1,0,0.2,0,0.2,0s0-0.5,0-0.7c0-0.2,0.3-0.3,0.3-0.3v-0.3c-0.3-0.1-0.5-0.3-0.5-0.4v-0.3c0.1-0.1,0.2-0.2,0.2-0.2
					C3.8,61.1,4,60.7,4,60.7s-0.3-0.4-0.3-0.5c-0.1-0.1-0.1-0.3-0.2-0.4v-0.2c0.1-0.5,0.8-1.1,0.8-1.1h0.5c0.3,0,0.7-0.3,0.7-0.7v-3
					C5.4,54.4,5.2,54.1,4.8,54.1z M2.4,63.7c0,0.2,0,0.3-0.2,0.3C2,64,2,63.8,2,63.7v-4.8c0-0.2,0.1-0.3,0.2-0.3
					c0.2,0,0.2,0.2,0.2,0.3V63.7z M2.7,55.9c-0.3,0-0.7-0.3-0.7-0.7c0-0.3,0.3-0.7,0.7-0.7c0.3,0,0.6,0.3,0.6,0.7
					C3.4,55.5,3.1,55.9,2.7,55.9z"/>
			</g>
			<g id="shape1589-70_1_" transform="translate(1.92482,-0.570755)">
				<path class="st2" d="M0.2,64.5c-0.1,0-0.2-0.1-0.2-0.2v-5c0-0.1,0.1-0.2,0.2-0.2s0.2,0.1,0.2,0.2v5.1
					C0.4,64.5,0.3,64.5,0.2,64.5z"/>
			</g>
			<g id="shape1590-72_1_" transform="translate(2.05993,-8.66317)">
				<ellipse class="st2" cx="0.7" cy="63.9" rx="0.7" ry="0.7"/>
			</g>
		</g>
	</g>
</g>
<g id="txt" xmlns:ev="http://www.w3.org/2001/xml-events" xmlns:v="http://schemas.microsoft.com/visio/2003/SVGExtensions/">
	<g id="group1549-1_2_" transform="translate(43.141,-20.0036)">
		<g id="shape1549-43_2_">
			<g class="st3">
				<path d="M-5.3,70l-2.1,7.6h-1L-10,72c-0.1-0.2-0.1-0.5-0.1-0.8h0c0,0.3-0.1,0.5-0.1,0.8l-1.6,5.6h-1l-2.2-7.6h0.9l1.6,5.8
					c0.1,0.3,0.1,0.5,0.1,0.8h0c0-0.2,0.1-0.4,0.2-0.8l1.7-5.8h0.8l1.6,5.9C-8.1,76-8,76.3-8,76.6h0c0-0.2,0.1-0.4,0.1-0.7l1.6-5.9
					H-5.3z"/>
				<path d="M-0.3,75h-3.8c0,0.6,0.2,1.1,0.5,1.4S-2.9,77-2.3,77c0.6,0,1.2-0.2,1.7-0.6v0.8c-0.5,0.4-1.1,0.5-1.9,0.5
					c-0.8,0-1.3-0.2-1.8-0.7S-5,75.7-5,74.8c0-0.8,0.2-1.5,0.7-2S-3.2,72-2.5,72c0.7,0,1.2,0.2,1.6,0.7s0.6,1.1,0.6,1.9V75z
					 M-1.1,74.3c0-0.5-0.1-0.9-0.4-1.2c-0.2-0.3-0.6-0.4-1-0.4c-0.4,0-0.7,0.1-1,0.4s-0.5,0.7-0.6,1.2H-1.1z"/>
				<path d="M1.9,76.7v0.8H1v-8h0.8v3.5h0c0.4-0.7,1-1.1,1.9-1.1c0.7,0,1.2,0.2,1.6,0.7S6,73.9,6,74.7c0,0.9-0.2,1.6-0.7,2.2
					c-0.4,0.5-1,0.8-1.8,0.8C2.8,77.7,2.3,77.4,1.9,76.7L1.9,76.7z M1.9,75.3c0,0.5,0.2,0.8,0.5,1.2S3,77,3.4,77
					c0.5,0,0.9-0.2,1.3-0.6s0.5-1,0.5-1.7c0-0.6-0.1-1.1-0.4-1.4c-0.3-0.3-0.7-0.5-1.1-0.5c-0.5,0-0.9,0.2-1.2,0.5
					C2,73.6,1.9,74,1.9,74.6V75.3z"/>
				<path d="M18.3,70.5h-7.4v2.9c0,1.8-0.3,3.4-0.8,4.7l-0.4-0.4c0.5-1.3,0.7-2.7,0.7-4.3V70h3.7c-0.1-0.2-0.3-0.4-0.4-0.6l0.5-0.1
					c0.2,0.2,0.3,0.5,0.4,0.8h3.6V70.5z M12.6,75.9c-0.3,0.7-0.7,1.4-1.2,1.9L11,77.5c0.4-0.5,0.8-1.1,1.1-1.8L12.6,75.9z
					 M13.1,70.9c-0.1,0.4-0.3,0.8-0.6,1.3v3.1H12v-2.4c-0.1,0.2-0.3,0.4-0.6,0.7l-0.3-0.4c0.8-0.8,1.3-1.7,1.6-2.6L13.1,70.9z
					 M18.1,75.2h-4.4v-2.5c-0.2,0.2-0.4,0.5-0.7,0.8l-0.3-0.4c0.8-0.9,1.3-1.7,1.7-2.4l0.4,0.2c-0.1,0.2-0.2,0.5-0.4,0.7H16
					c0-0.1-0.2-0.4-0.4-0.7l0.5-0.1c0.1,0.2,0.3,0.5,0.4,0.8h1.6V72h-1.8v0.6H18v0.5h-1.7v0.6H18v0.5h-1.7v0.6h1.9V75.2z M16.8,76.8
					c0,0.3-0.1,0.6-0.2,0.8s-0.2,0.3-0.4,0.3S15.5,78,14.8,78c-0.5,0-0.9,0-1-0.1s-0.3-0.1-0.4-0.2c-0.1-0.1-0.1-0.3-0.1-0.5v-1.4
					h0.5v1.5c0,0.2,0,0.3,0.1,0.3s0.4,0.1,1,0.1c0.6,0,1,0,1.1,0c0.1,0,0.2-0.1,0.3-0.2c0.1-0.1,0.1-0.3,0.1-0.7L16.8,76.8z
					 M15.8,72.6V72h-1.6v0.6H15.8z M15.8,73.7v-0.6h-1.6v0.6H15.8z M15.8,74.8v-0.6h-1.6v0.6H15.8z M15.7,76.6l-0.4,0.3
					c-0.3-0.4-0.6-0.8-0.9-1l0.4-0.3C15.1,75.8,15.4,76.2,15.7,76.6z M18.4,77.5L18,77.7c-0.4-0.7-0.8-1.3-1.2-1.8l0.4-0.3
					C17.7,76.2,18.1,76.8,18.4,77.5z"/>
				<path d="M27.9,77.3c0,0.3-0.1,0.5-0.3,0.6S27,78,26.3,78c-0.2,0-0.3,0-0.4,0l-0.2-0.5c0.2,0,0.5,0,0.7,0c0.5,0,0.8,0,0.8-0.1
					s0.1-0.1,0.1-0.2v-2.4h-2.8v2.9H24v-2.9h-2.9c-0.2,1.4-0.5,2.4-1,3.1l-0.5-0.3c0.7-1,1-2.2,1-3.6v-4.6h7.2V77.3z M24,71.9V70
					h-2.8v1.8H24z M24,74.3v-1.9h-2.8v1.9H24z M27.4,71.9V70h-2.8v1.8H27.4z M27.4,74.3v-1.9h-2.8v1.9H27.4z"/>
				<path d="M33.1,74.3l-0.4,0.4c-0.2-0.4-0.5-0.9-0.9-1.3V78h-0.5v-4.6c-0.5,1.1-0.9,1.9-1.3,2.5l-0.4-0.4c0.7-0.9,1.2-2,1.7-3.2
					h-1.6v-0.5h1.7v-1.5l-1.2,0.2L29.8,70c1.2-0.1,2.1-0.4,2.9-0.7l0.3,0.5c-0.5,0.2-0.9,0.3-1.2,0.4v1.6H33v0.5h-1.2v0.4
					C32.5,73.3,32.9,73.9,33.1,74.3z M38.4,77.8h-5.6v-0.5h2.6v-1.5h-2.2v-0.5h2.2v-1.5c-1.1,0.1-1.7,0.1-2,0.1l-0.2-0.5
					c1.8,0,3.4-0.2,4.8-0.5l0.3,0.4c-0.7,0.2-1.5,0.3-2.3,0.4v1.5H38v0.5h-2.1v1.5h2.5V77.8z M37.7,72.3h-4.3v-2.7h4.3V72.3z
					 M37.2,71.8v-1.7H34v1.7H37.2z"/>
				<path d="M48.4,75.9c-0.3,1.5-0.7,2.3-1.3,2.3c-0.1,0-0.3,0-0.4-0.1s-0.3-0.3-0.5-0.6s-0.4-0.7-0.6-1.2c-0.2-0.5-0.3-1.2-0.4-2
					c-0.1-0.9-0.2-1.8-0.2-2.6h-5.2V71h5.2c0-0.7,0-1.3,0-1.7h0.5c0,0.8,0,1.4,0,1.7h2.9v0.5h-2.9c0,0.7,0.1,1.6,0.2,2.8
					s0.4,2,0.7,2.5c0.3,0.5,0.6,0.8,0.7,0.8c0.2,0,0.3-0.2,0.5-0.7c0.2-0.5,0.3-0.9,0.3-1.3L48.4,75.9z M44.7,76.3
					c-1.6,0.4-3.1,0.7-4.6,1L40,76.8c0.5-0.1,1.2-0.2,2.1-0.4v-2.9h-1.8v-0.5h4.1v0.5h-1.9v2.8c0.8-0.2,1.5-0.3,2.1-0.5V76.3z
					 M47.9,70.5l-0.4,0.3c-0.4-0.4-0.8-0.8-1.1-1.1l0.4-0.3C47.1,69.6,47.5,70,47.9,70.5z"/>
				<v:paragraph  v:horizAlign="1"></v:paragraph>
				<v:tabList></v:tabList>
			</g>
		</g>
	</g>
	<g id="shape1578-49_2_" transform="translate(214.796,-21.421)">
		<g class="st3">
			<rect x="-6.2" y="64.5" class="st4" width="34.6" height="26.6"/>
			<path d="M3.8,73c0,0.1,0,0.1,0,0.2c0,0,0,0.1,0,0.1s-0.1,0-0.1,0c-0.1,0-0.1,0-0.2,0s-0.2,0-0.2,0c-0.1,0-0.1,0-0.1,0
				c0,0-0.1,0-0.1,0c0,0,0,0,0-0.1l-0.5-1.5h-2.6l-0.5,1.5c0,0,0,0.1,0,0.1c0,0,0,0-0.1,0.1c0,0-0.1,0-0.1,0c-0.1,0-0.1,0-0.2,0
				c-0.1,0-0.2,0-0.2,0c-0.1,0-0.1,0-0.1,0c0,0,0-0.1,0-0.1c0,0,0-0.1,0-0.2l2.1-5.9c0,0,0-0.1,0.1-0.1c0,0,0.1,0,0.1-0.1
				c0,0,0.1,0,0.2,0c0.1,0,0.1,0,0.2,0c0.1,0,0.2,0,0.3,0s0.1,0,0.2,0s0.1,0,0.1,0.1s0,0.1,0.1,0.1L3.8,73z M1.1,67.8L1.1,67.8L0,71
				h2.2L1.1,67.8z"/>
			<path d="M8.7,68.9c0,0.3-0.1,0.6-0.2,0.9s-0.3,0.5-0.4,0.6c-0.2,0.2-0.4,0.3-0.7,0.4c-0.3,0.1-0.6,0.1-1,0.1H5.7v2.3
				c0,0,0,0,0,0.1c0,0,0,0-0.1,0c0,0-0.1,0-0.1,0c-0.1,0-0.1,0-0.2,0s-0.1,0-0.2,0c-0.1,0-0.1,0-0.1,0c0,0-0.1,0-0.1,0s0,0,0-0.1
				v-5.8c0-0.1,0-0.2,0.1-0.3S5.1,67,5.2,67h1.4c0.1,0,0.3,0,0.4,0c0.1,0,0.3,0,0.4,0.1c0.2,0,0.3,0.1,0.5,0.2
				c0.2,0.1,0.3,0.2,0.5,0.4s0.2,0.3,0.3,0.5C8.7,68.4,8.7,68.6,8.7,68.9z M7.8,68.9c0-0.3,0-0.5-0.1-0.6c-0.1-0.2-0.2-0.3-0.4-0.4
				c-0.1-0.1-0.3-0.1-0.4-0.2c-0.2,0-0.3,0-0.4,0H5.7v2.5h0.8c0.3,0,0.5,0,0.6-0.1c0.2-0.1,0.3-0.2,0.4-0.3c0.1-0.1,0.2-0.3,0.3-0.4
				S7.8,69.1,7.8,68.9z"/>
			<path d="M10.8,73.2C10.8,73.2,10.8,73.2,10.8,73.2c0,0.1-0.1,0.1-0.1,0.1c0,0-0.1,0-0.1,0c-0.1,0-0.1,0-0.2,0c-0.1,0-0.1,0-0.2,0
				c-0.1,0-0.1,0-0.1,0c0,0-0.1,0-0.1,0s0,0,0-0.1v-6.1c0,0,0,0,0-0.1c0,0,0,0,0.1,0c0,0,0.1,0,0.1,0c0.1,0,0.1,0,0.2,0
				c0.1,0,0.1,0,0.2,0c0.1,0,0.1,0,0.1,0c0,0,0.1,0,0.1,0s0,0,0,0.1V73.2z"/>
			<path d="M15.6,68.9c0.7-0.6,1.4-1.5,1.9-2.5l0.7,0.3c0,0.1-0.1,0.1-0.2,0.1c-0.2,0.4-0.4,0.7-0.7,1.1c0.2,0,0.3,0.1,0.3,0.1
				c0,0.1-0.1,0.1-0.2,0.1v3.1h-0.6v-2.7c-0.3,0.3-0.6,0.7-0.9,0.9c-0.1-0.1-0.2-0.3-0.3-0.4c0,1.6-0.1,3.7-0.9,5.2
				c-0.1-0.1-0.4-0.3-0.5-0.4c0.7-1.5,0.8-3.5,0.8-5v-3.1h3.9v-0.8l0.9,0.1c0,0.1-0.1,0.1-0.2,0.1v0.6h3.9v0.6h-7.9V68.9z M17.5,72
				c-0.2,0.7-0.6,1.5-1.2,2l-0.5-0.3c0.6-0.4,0.9-1.1,1.1-1.8L17.5,72z M18.7,70.9v-2.5c-0.2,0.3-0.4,0.5-0.6,0.7
				c-0.1-0.1-0.3-0.3-0.4-0.4c0.6-0.6,1.2-1.5,1.6-2.4l0.7,0.2c0,0.1-0.1,0.1-0.2,0.1c-0.1,0.2-0.2,0.4-0.3,0.6h1.2
				c0.2-0.3,0.3-0.6,0.4-0.9l0.7,0.2c0,0.1-0.1,0.1-0.2,0.1c-0.1,0.2-0.2,0.4-0.3,0.6h1.9v0.5h-1.9v0.6h1.7v0.4h-1.7v0.6h1.7v0.4
				h-1.7v0.6h2.1v0.5H18.7z M18.7,73.3c0,0.2,0.1,0.3,0.5,0.3h1.6c0.3,0,0.4-0.1,0.4-0.9c0.1,0.1,0.4,0.2,0.6,0.2
				c-0.1,1-0.3,1.2-1,1.2h-1.7c-0.9,0-1.1-0.2-1.1-0.8v-1.5l0.8,0.1c0,0.1-0.1,0.1-0.2,0.1V73.3z M19,71c0.6,0.3,1.4,0.7,1.7,1
				l-0.4,0.4c-0.4-0.3-1.1-0.8-1.7-1.1L19,71z M20.6,68.3v-0.6h-1.3v0.6H20.6z M20.6,69.4v-0.6h-1.3v0.6H20.6z M20.6,70.4v-0.6h-1.3
				v0.6H20.6z M23,73.9c-0.3-0.6-0.9-1.4-1.5-2l0.5-0.3c0.6,0.6,1.3,1.4,1.5,2L23,73.9z"/>
			<path d="M5,75.6v7.6c0,0.9-0.4,0.9-2.3,0.9c0-0.2-0.1-0.5-0.2-0.7c0.4,0,0.7,0,1,0c0.8,0,0.9,0,0.9-0.3V81H1.4v3H0.8v-3h-2.6
				c-0.1,1.1-0.5,2.3-1.3,3.2c-0.1-0.1-0.4-0.4-0.5-0.4c1.1-1.3,1.2-3.1,1.2-4.5v-3.7H5z M-1.7,79.3c0,0.4,0,0.7,0,1.1h2.6v-1.7
				h-2.5V79.3z M0.8,76.2h-2.5V78h2.5V76.2z M4.3,78v-1.8H1.4V78H4.3z M1.4,80.4h2.9v-1.7H1.4V80.4z"/>
			<path d="M8.8,79.1c0.3,0.3,1.2,1.3,1.4,1.5l-0.4,0.5c-0.2-0.3-0.7-0.9-1-1.4v4.4H8.1v-4.7c-0.4,1.1-0.9,2.2-1.4,2.9
				c-0.1-0.2-0.3-0.4-0.4-0.6C7,81,7.6,79.6,8,78.5H6.5v-0.6h1.6v-1.7c-0.5,0.1-1,0.3-1.5,0.4c0-0.1-0.1-0.4-0.2-0.5
				c1.2-0.3,2.5-0.7,3.2-1.1l0.6,0.5c0,0-0.1,0-0.1,0c0,0-0.1,0-0.1,0c-0.3,0.2-0.8,0.4-1.3,0.5v1.9h1.4v0.6H8.8V79.1z M13.2,83.3
				h2.6v0.6H9.9v-0.6h2.6v-1.4h-2v-0.6h2V80h-2.2v-0.6h5.2V80h-2.3v1.3h2.1v0.6h-2.1V83.3z M15.1,75.4v3.2h-4.5v-3.2H15.1z M14.4,78
				v-2h-3.2v2H14.4z"/>
			<path d="M25.6,77.5h-3c0.3,3.2,1,6,2.1,6c0.3,0,0.4-0.6,0.5-1.9c0.2,0.2,0.4,0.3,0.6,0.4c-0.1,1.8-0.4,2.3-1.1,2.3
				c-1.6,0-2.5-3.1-2.8-6.7h-5.3v-0.7h5.3c0-0.6,0-1.2-0.1-1.9l0.9,0c0,0.1-0.1,0.1-0.2,0.2c0,0.6,0,1.1,0,1.7h3V77.5z M19.5,79.7v3
				c0.7-0.2,1.5-0.3,2.2-0.5l0,0.6c-1.7,0.4-3.5,0.9-4.7,1.1c0,0.1-0.1,0.1-0.1,0.2l-0.3-0.8c0.6-0.1,1.3-0.3,2.2-0.4v-3.1h-1.9V79
				h4.5v0.6H19.5z M23.7,74.9c0.5,0.4,1.2,0.9,1.5,1.2l-0.5,0.4c-0.3-0.4-0.9-0.9-1.5-1.3L23.7,74.9z"/>
			<v:paragraph  v:horizAlign="1"></v:paragraph>
			<v:tabList></v:tabList>
		</g>
	</g>
	<g id="shape1578-49_3_" transform="translate(214.796,-21.421)" class="st5">
		<g class="st6">
			<path d="M-6.9,77.5h-0.9l-0.8-2.1h-3.2l-0.8,2.1h-0.9l2.9-7.6h0.8L-6.9,77.5z M-8.9,74.6l-1.2-3.3c0-0.1-0.1-0.3-0.1-0.5h0
				c0,0.2-0.1,0.4-0.1,0.5l-1.2,3.3H-8.9z"/>
			<path d="M-4.9,74.7v2.9h-0.8V70h2c0.8,0,1.4,0.2,1.9,0.6c0.4,0.4,0.7,0.9,0.7,1.7c0,0.7-0.3,1.3-0.8,1.8
				c-0.5,0.5-1.2,0.7-1.9,0.6H-4.9z M-4.9,70.7v3.1H-4c0.6,0,1.1-0.1,1.4-0.4c0.3-0.3,0.5-0.7,0.5-1.2c0-1-0.6-1.5-1.8-1.5H-4.9z"/>
			<path d="M1.1,77.5H0.3V70h0.8V77.5z"/>
			<path d="M13.9,70.5H6.5v2.9c0,1.8-0.3,3.4-0.8,4.7l-0.4-0.4C5.8,76.5,6,75,6,73.4V70h3.7c-0.1-0.2-0.3-0.4-0.4-0.6l0.5-0.1
				c0.2,0.2,0.3,0.5,0.4,0.8h3.6V70.5z M8.2,75.9c-0.3,0.7-0.7,1.4-1.2,1.9l-0.4-0.3c0.4-0.5,0.8-1.1,1.1-1.8L8.2,75.9z M8.8,70.9
				c-0.1,0.4-0.3,0.8-0.6,1.3v3.1H7.6v-2.4c-0.1,0.2-0.3,0.4-0.6,0.7l-0.3-0.4c0.8-0.8,1.3-1.7,1.6-2.6L8.8,70.9z M13.8,75.2H9.3
				v-2.5c-0.2,0.2-0.4,0.5-0.7,0.8l-0.3-0.4c0.8-0.9,1.3-1.7,1.7-2.4l0.4,0.2c-0.1,0.2-0.2,0.5-0.4,0.7h1.5c0-0.1-0.2-0.4-0.4-0.7
				l0.5-0.1c0.1,0.2,0.3,0.5,0.4,0.8h1.6V72h-1.8v0.6h1.7v0.5h-1.7v0.6h1.7v0.5h-1.7v0.6h1.9V75.2z M12.5,76.8
				c0,0.3-0.1,0.6-0.2,0.8c-0.1,0.2-0.2,0.3-0.4,0.3S11.2,78,10.4,78c-0.5,0-0.9,0-1-0.1S9.1,77.8,9,77.7c-0.1-0.1-0.1-0.3-0.1-0.5
				v-1.4h0.5v1.5c0,0.2,0,0.3,0.1,0.3s0.4,0.1,1,0.1c0.6,0,1,0,1.1,0c0.1,0,0.2-0.1,0.3-0.2c0.1-0.1,0.1-0.3,0.1-0.7L12.5,76.8z
				 M11.4,72.6V72H9.8v0.6H11.4z M11.4,73.7v-0.6H9.8v0.6H11.4z M11.4,74.8v-0.6H9.8v0.6H11.4z M11.3,76.6l-0.4,0.3
				c-0.3-0.4-0.6-0.8-0.9-1l0.4-0.3C10.8,75.8,11,76.2,11.3,76.6z M14,77.5l-0.4,0.3c-0.4-0.7-0.8-1.3-1.2-1.8l0.4-0.3
				C13.3,76.2,13.7,76.8,14,77.5z"/>
			<path d="M23.5,77.3c0,0.3-0.1,0.5-0.3,0.6C23,78,22.6,78,21.9,78c-0.2,0-0.3,0-0.4,0l-0.2-0.5c0.2,0,0.5,0,0.7,0
				c0.5,0,0.8,0,0.8-0.1s0.1-0.1,0.1-0.2v-2.4h-2.8v2.9h-0.5v-2.9h-2.9c-0.2,1.4-0.5,2.4-1,3.1l-0.5-0.3c0.7-1,1-2.2,1-3.6v-4.6h7.2
				V77.3z M19.6,71.9V70h-2.8v1.8H19.6z M19.6,74.3v-1.9h-2.8v1.9H19.6z M23,71.9V70h-2.8v1.8H23z M23,74.3v-1.9h-2.8v1.9H23z"/>
			<path d="M25.2,77.1c0-0.2,0.1-0.3,0.2-0.4c0.1-0.1,0.2-0.2,0.4-0.2c0.2,0,0.3,0.1,0.4,0.2c0.1,0.1,0.2,0.2,0.2,0.4
				c0,0.2-0.1,0.3-0.2,0.4c-0.1,0.1-0.2,0.2-0.4,0.2c-0.2,0-0.3-0.1-0.4-0.2C25.3,77.4,25.2,77.2,25.2,77.1z"/>
			<path d="M27.5,77.1c0-0.2,0.1-0.3,0.2-0.4c0.1-0.1,0.2-0.2,0.4-0.2c0.2,0,0.3,0.1,0.4,0.2c0.1,0.1,0.2,0.2,0.2,0.4
				c0,0.2-0.1,0.3-0.2,0.4c-0.1,0.1-0.2,0.2-0.4,0.2c-0.2,0-0.3-0.1-0.4-0.2C27.6,77.4,27.5,77.2,27.5,77.1z"/>
			<path d="M29.8,77.1c0-0.2,0.1-0.3,0.2-0.4c0.1-0.1,0.2-0.2,0.4-0.2c0.2,0,0.3,0.1,0.4,0.2c0.1,0.1,0.2,0.2,0.2,0.4
				c0,0.2-0.1,0.3-0.2,0.4c-0.1,0.1-0.2,0.2-0.4,0.2c-0.2,0-0.3-0.1-0.4-0.2C29.9,77.4,29.8,77.2,29.8,77.1z"/>
			<v:paragraph  v:horizAlign="1"></v:paragraph>
			<v:tabList></v:tabList>
		</g>
	</g>
	<g>
		<rect x="137.4" y="1.9" class="st4" width="73.6" height="21.6"/>
		<path class="st7" d="M167.6,6.1c-0.2,0.1-0.6,0.3-0.9,0.4v3.1c0,0.5-0.3,0.8-0.8,0.8c-0.2,0-0.5,0-0.7,0L165,9.9
			c0.2,0,0.3,0,0.5,0c0.3,0,0.5,0,0.5,0s0.1-0.1,0.1-0.2v-3c-0.4,0.2-0.8,0.3-1.2,0.4l-0.2-0.5c0.4-0.1,0.9-0.3,1.3-0.4V3.9h-1.3
			V3.4h1.3V1.6h0.5v1.8h0.8v0.5h-0.8v2c0.3-0.1,0.6-0.2,0.8-0.4L167.6,6.1z M173.6,10l-0.3,0.5c-0.9-0.3-1.8-0.7-2.5-1.2
			c-0.9,0.5-1.9,0.9-2.9,1.2l-0.4-0.4c1.1-0.3,2.1-0.7,2.8-1.1c-0.8-0.6-1.3-1.2-1.7-1.8h-0.4V6.6h4.6v0.5c-0.3,0.7-0.9,1.3-1.6,1.8
			C171.9,9.3,172.7,9.7,173.6,10z M173.3,6.3h-0.5v-1h-4.4v1h-0.5V4.7h5.4V6.3z M173,2.1c-1.4,0.4-3,0.6-4.8,0.7l-0.2-0.5
			c1.8,0,3.4-0.3,4.8-0.7L173,2.1z M169.2,4.2l-0.4,0.2c-0.2-0.5-0.5-0.8-0.7-1.2l0.5-0.2C168.8,3.4,169.1,3.8,169.2,4.2z
			 M172.3,7.1h-3c0.4,0.6,0.9,1.1,1.6,1.5C171.4,8.2,171.9,7.7,172.3,7.1z M171.1,4.3l-0.5,0.2c-0.1-0.5-0.3-0.9-0.5-1.2l0.5-0.2
			C170.8,3.4,171,3.8,171.1,4.3z M173.2,3c-0.2,0.5-0.5,1-0.8,1.5l-0.5-0.3c0.3-0.5,0.6-0.9,0.8-1.4L173.2,3z"/>
		<path class="st7" d="M178,6l-0.4,0.4c-0.2-0.3-0.4-0.7-0.8-1.1v5.1h-0.5V5.3c-0.3,0.9-0.7,1.7-1.1,2.3l-0.4-0.4
			c0.6-0.9,1.1-2,1.5-3.2H175V3.6h1.4V1.7h0.5v1.9h0.9v0.5h-0.9v0.6C177.3,5.1,177.7,5.6,178,6z M183.6,10H179v0.4h-0.5V7.1
			c-0.2,0.3-0.5,0.5-0.8,0.7l-0.3-0.4c0.7-0.5,1.2-1.2,1.7-2l0.5,0.2c-0.1,0.2-0.2,0.4-0.3,0.5h1.7c-0.1-0.1-0.1-0.2-0.3-0.4
			l0.5-0.2c0.2,0.2,0.3,0.4,0.4,0.6h1.9v0.4h-2.1v0.7h1.9v0.4h-1.9v0.7h1.9v0.5h-1.9v0.7h2.3V10z M180.2,3.3h-0.5V2.8h-1.8V2.4h1.8
			V1.7h0.5V3.3z M180.4,5.2h-2.2V3.6h2.2V5.2z M179.9,4.7V4h-1.2v0.8H179.9z M180.8,7.2V6.5H179v0.7H180.8z M180.8,8.3V7.6H179v0.7
			H180.8z M180.8,9.5V8.8H179v0.7H180.8z M183.2,5.2H181V3.6h2.2V5.2z M183.6,2.8h-1.8v0.4h-0.5V1.7h0.5v0.7h1.8V2.8z M182.7,4.7V4
			h-1.3v0.8H182.7z"/>
		<path class="st7" d="M153.3,18.6l-0.4,0.4c-0.2-0.4-0.5-0.9-0.9-1.3v4.6h-0.5v-4.6c-0.5,1.1-0.9,1.9-1.3,2.5l-0.4-0.4
			c0.7-0.9,1.2-2,1.7-3.2h-1.6v-0.5h1.7v-1.5l-1.2,0.2l-0.3-0.5c1.2-0.1,2.1-0.4,2.9-0.7l0.3,0.5c-0.5,0.2-0.9,0.3-1.2,0.4v1.6h1.2
			v0.5h-1.2V17C152.7,17.7,153.1,18.2,153.3,18.6z M158.6,22.2h-5.6v-0.5h2.6v-1.5h-2.2v-0.5h2.2v-1.5c-1.1,0.1-1.7,0.1-2,0.1
			l-0.2-0.5c1.8,0,3.4-0.2,4.8-0.5l0.3,0.4c-0.7,0.2-1.5,0.3-2.3,0.4v1.5h2.1v0.5H156v1.5h2.5V22.2z M157.9,16.7h-4.3V14h4.3V16.7z
			 M157.4,16.2v-1.7h-3.2v1.7H157.4z"/>
		<path class="st7" d="M168.6,20.2c-0.3,1.5-0.7,2.3-1.3,2.3c-0.1,0-0.3,0-0.4-0.1c-0.1-0.1-0.3-0.3-0.5-0.6s-0.4-0.7-0.6-1.2
			c-0.2-0.5-0.3-1.2-0.4-2c-0.1-0.9-0.2-1.8-0.2-2.6h-5.2v-0.5h5.2c0-0.7,0-1.3,0-1.7h0.5c0,0.8,0,1.4,0,1.7h2.9v0.5h-2.9
			c0,0.7,0.1,1.6,0.2,2.8s0.4,2,0.7,2.5c0.3,0.5,0.6,0.8,0.7,0.8c0.2,0,0.3-0.2,0.5-0.7c0.2-0.5,0.3-0.9,0.3-1.3L168.6,20.2z
			 M164.9,20.6c-1.6,0.4-3.1,0.7-4.6,1l-0.1-0.5c0.5-0.1,1.2-0.2,2.1-0.4v-2.9h-1.8v-0.5h4.1v0.5h-1.9v2.8c0.8-0.2,1.5-0.3,2.1-0.5
			V20.6z M168.1,14.9l-0.4,0.3c-0.4-0.4-0.8-0.8-1.1-1.1l0.4-0.3C167.3,14,167.7,14.4,168.1,14.9z"/>
		<path class="st7" d="M173.2,14.6h-1.4c-0.2,0.9-0.4,1.8-0.7,2.5h1.8v4.1h-0.5v-0.4h-1.1v0.7h-0.5v-3.6c-0.3,0.5-0.5,0.8-0.6,0.9
			l-0.4-0.4c0.8-1.1,1.3-2.3,1.5-3.8H170v-0.5h3.2V14.6z M172.4,20.3v-2.7h-1.1v2.7H172.4z M174.2,19.6c-0.1,1-0.3,1.8-0.6,2.5
			l-0.5-0.2c0.3-0.6,0.4-1.4,0.6-2.4L174.2,19.6z M178.4,14.4h-2v1h1.7v0.5h-1.7v1h1.7v0.5h-1.7v1.1h1.9c0,1-0.1,1.8-0.1,2.3
			s-0.2,1-0.3,1.1c-0.1,0.2-0.2,0.3-0.4,0.3c-0.2,0.1-0.5,0.1-1.1,0.1l-0.2-0.5c0.6,0,0.9,0,1,0s0.2-0.1,0.3-0.2s0.2-0.5,0.2-1.2
			s0.1-1.2,0.1-1.5h-4.1v-5.1h4.7V14.4z M175.9,15.4v-1h-1.7v1H175.9z M175.9,16.9v-1h-1.7v1H175.9z M175.9,18.5v-1.1h-1.7v1.1
			H175.9z M175.3,21.8l-0.5,0.1c0-0.2,0-0.3,0-0.5c0-0.6,0-1.1-0.1-1.7l0.5-0.1C175.2,20.6,175.3,21.3,175.3,21.8z M176.4,21.2
			l-0.5,0.2c-0.1-0.6-0.2-1.1-0.4-1.6l0.5-0.1C176.2,20.1,176.3,20.7,176.4,21.2z M177.4,20.8l-0.4,0.2c-0.1-0.6-0.3-1-0.4-1.3
			l0.4-0.1C177.1,19.8,177.2,20.3,177.4,20.8z"/>
		<path class="st7" d="M181.8,19.2c-0.4,1.1-0.9,2.1-1.5,3.3l-0.4-0.4c0.6-0.9,1.1-2,1.5-3.2L181.8,19.2z M181.8,17.7l-0.4,0.4
			c-0.5-0.5-1-0.9-1.6-1.3l0.3-0.4C180.8,16.8,181.4,17.2,181.8,17.7z M182,15l-0.3,0.4c-0.6-0.7-1.1-1.1-1.5-1.4l0.3-0.4
			C181.1,14.1,181.6,14.6,182,15z M183.5,18.2c0,1.2-0.1,2.1-0.3,2.6s-0.6,1.1-1.3,1.6l-0.4-0.4c0.4-0.2,0.7-0.6,1-1.1
			s0.4-1.4,0.4-2.7H183.5z M188.6,17.8l-0.4,0.3c-0.2-0.3-0.4-0.5-0.6-0.8c-2,0.2-3.7,0.4-5.1,0.5l-0.1-0.5c0.8-0.4,1.4-1.1,2-2.1
			h-2.1v-0.5h2.4c0.1-0.2,0.3-0.6,0.5-1.1l0.5,0.1c-0.1,0.2-0.2,0.5-0.4,0.9h3.2v0.5H185c-0.5,0.9-1.1,1.6-1.7,2
			c1.3-0.1,2.6-0.2,3.9-0.4c-0.3-0.3-0.6-0.6-0.9-0.9l0.4-0.4C187.4,16.3,188.1,17,188.6,17.8z M185.2,22.4h-0.5v-4.2h0.5V22.4z
			 M188.6,22.3h-1.3c-0.5,0-0.8-0.2-0.8-0.7v-3.4h0.5v3.3c0,0.2,0.1,0.3,0.3,0.3h1.3V22.3z"/>
		<path class="st7" d="M193.3,18.6l-0.4,0.4c-0.2-0.4-0.5-0.9-0.9-1.3v4.6h-0.5v-4.6c-0.5,1.1-0.9,1.9-1.3,2.5l-0.4-0.4
			c0.7-0.9,1.2-2,1.7-3.2h-1.6v-0.5h1.7v-1.5l-1.2,0.2l-0.3-0.5c1.2-0.1,2.1-0.4,2.9-0.7l0.3,0.5c-0.5,0.2-0.9,0.3-1.2,0.4v1.6h1.2
			v0.5h-1.2V17C192.7,17.7,193.1,18.2,193.3,18.6z M198.6,22.2h-5.6v-0.5h2.6v-1.5h-2.2v-0.5h2.2v-1.5c-1.1,0.1-1.7,0.1-2,0.1
			l-0.2-0.5c1.8,0,3.4-0.2,4.8-0.5l0.3,0.4c-0.7,0.2-1.5,0.3-2.3,0.4v1.5h2.1v0.5H196v1.5h2.5V22.2z M197.9,16.7h-4.3V14h4.3V16.7z
			 M197.4,16.2v-1.7h-3.2v1.7H197.4z"/>
	</g>
	<path class="st8" d="M207.6,31.1c-6.8,0-12.9,0-19.3,0c-6.5,0-13.4,0-19.9,0c-6.4,0-11.3,0-19.1,0c-6.5,0-13.1,0-19.6,0
		c-6.4,0-12.5,0-18.9,0c-6.5,0-13.4,0-19.9,0c-6.2,0-8.8,0-15.6,0c-0.2,0-1.5-0.2-1.5-0.8c0-0.6,1.4-0.8,1.7-0.8c3,0,86.7,0,132.2,0
		"/>
	<g>
		<path class="st8" d="M207.4,30.3c0-2-0.8-3.1-1.4-4.3c2.8,1.5,5.5,2.9,8.2,4.3c-2.7,1.4-5.4,2.8-8.2,4.3
			C206.6,33.2,207.4,32.1,207.4,30.3z"/>
	</g>
</g>
<g id="source" xmlns:ev="http://www.w3.org/2001/xml-events" xmlns:v="http://schemas.microsoft.com/visio/2003/SVGExtensions/" class="st5">
	<g class="st9">
		<g id="group1549-1" transform="translate(43.141,-20.0036)">
			<g id="group1550-2">
				<g id="shape1551-3">
					<path class="st0" d="M22.9,60.1c-2.2,1.7-4.8,2.5-7.3,2.5c-3.6,0-7.2-1.7-9.6-4.8c-4-5.4-3-13.1,2.2-17.3
						c2.2-1.7,4.8-2.5,7.3-2.5c3.6,0,7.2,1.7,9.5,4.8C29.2,48.3,28.2,56,22.9,60.1z M26.5,41.7c-2.7-3.6-6.8-5.5-11-5.5
						c-2.9,0-5.9,1-8.4,2.9C1.1,43.9,0,52.8,4.6,59c2.7,3.6,6.8,5.5,11,5.5c2.9,0,5.9-0.9,8.4-2.9C30,56.8,31.2,48,26.5,41.7z"/>
				</g>
			</g>
			<g id="group1552-5" transform="translate(4.95554,-4.39536)">
				<g id="group1553-6" transform="translate(0.341805,-0.176482)">
					<g id="group1554-7" transform="translate(0.437248,3.2685E-13)">
						<g id="shape1555-8">
							<path class="st0" d="M3.6,57.5c-0.8-0.8-1.4-1.6-2-2.3C0.5,57.6,0.1,60.1,0,62c0.1,0.2,0.1,0.3,0.2,0.4c0.6,0.8,1.3,1.5,2,2
								C2.1,62.9,2.3,60.3,3.6,57.5z"/>
						</g>
					</g>
					<g id="shape1556-10" transform="translate(3.29213,-8.97695)">
						<path class="st0" d="M4.9,57c-1.1,0.8-2.2,1.8-3.3,3C1,60.7,0.5,61.4,0,62.1c0.5,0.8,1.1,1.6,1.9,2.5c0.6-0.9,1.3-1.7,2.2-2.6
							c1.1-1.1,2.2-1.9,3.1-2.6C6.4,58.6,5.7,57.8,4.9,57z"/>
					</g>
					<g id="group1557-12" transform="translate(9.93516,-15.1958)">
						<g id="shape1558-13">
							<path class="st0" d="M9.8,62.5c-0.5-0.7-1.1-1.3-1.7-1.8c-1.9-0.3-4.7-0.3-8,1.5c0.8,0.8,1.5,1.6,2.2,2.4
								C6.6,62.1,9.8,62.5,9.8,62.5z"/>
						</g>
					</g>
					<g id="group1559-15" transform="translate(1.10162E-13,-9.38012)">
						<g id="shape1560-16">
							<path class="st0" d="M2.1,64.5c0.3-0.7,0.7-1.4,1.2-2.1c-1.9-3.1-1.8-5.6-1.6-6.8c-0.5,0.5-0.9,1-1.3,1.6
								C0,58.9,0,61.4,2.1,64.5z"/>
						</g>
					</g>
					<g id="group1561-18" transform="translate(4.05148,-0.740211)">
						<g id="shape1562-19">
							<path class="st0" d="M3.4,58.4c-0.9-0.7-1.6-1.4-2.3-2.1c-0.5,0.7-0.8,1.3-1.1,2c0.6,0.6,1.3,1.3,2.1,1.9
								c4.9,4,9.8,4.4,12.6,4.4c0.2,0,1-1.2,1.5-1.9C15,62.8,9.7,63.5,3.4,58.4z"/>
						</g>
					</g>
					<g id="group1563-21" transform="translate(2.10339,-7.03041)">
						<g id="shape1564-22">
							<path class="st0" d="M0,62.2c0.5,0.8,1.1,1.5,2,2.4c0.3-0.6,0.7-1.3,1.1-2c-0.8-0.8-1.4-1.7-1.9-2.5
								C0.7,60.8,0.3,61.5,0,62.2z"/>
						</g>
					</g>
					<g id="group1565-24" transform="translate(10.5195,-5.3233)">
						<g id="shape1566-25">
							<path class="st0" d="M0,55.7c4.5,4.3,9.8,7.9,11.1,8.8c0.1-0.3,0.2-0.7,0.3-1c-1.4-1.1-5.3-4.2-9.8-8.8
								C1.1,55,0.6,55.3,0,55.7z"/>
						</g>
					</g>
					<g id="group1567-27" transform="translate(4.98729,-16.4714)">
						<g id="shape1568-28">
							<path class="st0" d="M4.9,63.4c-1.1-1.2-2.2-2.4-3.4-3.8C1,59.8,0.5,60,0,60.3c0.8,1.4,2,2.8,3.2,4.2
								C3.8,64.1,4.4,63.7,4.9,63.4z"/>
						</g>
					</g>
					<g id="shape1569-30" transform="translate(8.13763,-14.0503)">
						<path class="st0" d="M1.9,61c-0.6,0.3-1.3,0.8-1.9,1.2c0.7,0.8,1.5,1.6,2.3,2.4c0.6-0.4,1.3-0.9,1.9-1.2
							C3.4,62.6,2.6,61.8,1.9,61z"/>
					</g>
					<g id="shape1570-32" transform="translate(8.1369,-14.0039)">
						<path class="st0" d="M1.7,60.8C1.1,61.1,0.6,61.5,0,62c0.7,0.8,1.7,1.8,2.5,2.6c0.6-0.4,1-0.8,1.6-1.1
							C3.4,62.7,2.4,61.7,1.7,60.8z"/>
					</g>
				</g>
				<g id="group1571-34" transform="translate(14.8617,-6.23662)">
					<g id="shape1572-35">
						<path class="st0" d="M1.3,59.4C0.2,60.3,0,62,0.9,63.1c0.9,1.2,2.5,1.4,3.6,0.5c1.1-0.9,1.3-2.5,0.5-3.7
							C4.1,58.8,2.5,58.5,1.3,59.4z"/>
					</g>
				</g>
				<g id="group1573-37" transform="translate(9.65099,-2.13163E-13)">
					<g id="shape1574-38">
						<path class="st0" d="M1.2,59.8c-1,0.8-1.2,2.4-0.4,3.4c0.8,1.1,2.3,1.3,3.4,0.5c1-0.8,1.2-2.4,0.4-3.4
							C3.8,59.2,2.3,59,1.2,59.8z"/>
					</g>
				</g>
				<g id="group1575-40" transform="translate(0,-5.36433)">
					<g id="shape1576-41">
						<path class="st0" d="M1.9,57.4c-1.6,1.3-1.9,3.6-0.7,5.2c1.2,1.6,3.5,2,5.1,0.7S8.2,59.7,7,58C5.8,56.4,3.5,56.1,1.9,57.4z"/>
					</g>
				</g>
			</g>
			<g id="shape1549-43">
				<g class="st3">
					<path d="M3.6,77.3c0,0,0,0.1-0.1,0.1c0,0-0.1,0-0.1,0.1c0,0-0.1,0-0.2,0s-0.1,0-0.2,0c-0.1,0-0.2,0-0.3,0s-0.1,0-0.2,0
						c0,0-0.1,0-0.1-0.1c0,0,0-0.1-0.1-0.1l-1.3-4.8h0l-1.2,4.8c0,0,0,0.1,0,0.1c0,0-0.1,0-0.1,0.1c0,0-0.1,0-0.2,0s-0.2,0-0.3,0
						c-0.1,0-0.2,0-0.3,0s-0.1,0-0.2,0c0,0-0.1,0-0.1-0.1c0,0,0-0.1-0.1-0.1l-1.7-5.8c0-0.1,0-0.1,0-0.2s0-0.1,0-0.1s0.1,0,0.1,0
						s0.1,0,0.2,0c0.1,0,0.2,0,0.2,0s0.1,0,0.1,0s0.1,0,0.1,0.1s0,0.1,0,0.1l1.4,5.3h0l1.3-5.3c0,0,0-0.1,0-0.1s0,0,0.1-0.1
						s0.1,0,0.1,0s0.1,0,0.2,0c0.1,0,0.2,0,0.2,0s0.1,0,0.1,0s0.1,0,0.1,0.1s0,0.1,0,0.1l1.5,5.3h0l1.4-5.3c0,0,0-0.1,0-0.1
						s0,0,0.1-0.1s0.1,0,0.1,0s0.1,0,0.2,0c0.1,0,0.2,0,0.2,0c0.1,0,0.1,0,0.1,0s0,0.1,0,0.1s0,0.1,0,0.2L3.6,77.3z"/>
					<path d="M9.8,75c0,0.1,0,0.2-0.1,0.3s-0.1,0.1-0.2,0.1H6.6c0,0.2,0,0.5,0.1,0.7c0,0.2,0.1,0.4,0.2,0.5c0.1,0.1,0.3,0.2,0.4,0.3
						C7.5,76.9,7.7,77,8,77c0.2,0,0.4,0,0.6-0.1s0.3-0.1,0.4-0.1c0.1,0,0.2-0.1,0.3-0.1c0.1,0,0.1-0.1,0.2-0.1c0,0,0,0,0.1,0
						c0,0,0,0,0,0.1s0,0.1,0,0.1c0,0,0,0.1,0,0.1c0,0,0,0.1,0,0.1c0,0,0,0.1,0,0.1s0,0,0,0.1s0,0,0,0.1c0,0-0.1,0-0.2,0.1
						c-0.1,0-0.2,0.1-0.3,0.1s-0.3,0.1-0.5,0.1c-0.2,0-0.4,0-0.6,0c-0.4,0-0.7-0.1-0.9-0.2S6.5,77.2,6.3,77S6,76.6,5.9,76.3
						s-0.1-0.6-0.1-1c0-0.4,0-0.7,0.1-1c0.1-0.3,0.2-0.6,0.4-0.8S6.7,73.1,7,73s0.6-0.2,0.9-0.2c0.3,0,0.6,0.1,0.9,0.2
						s0.4,0.3,0.6,0.4c0.2,0.2,0.3,0.4,0.3,0.7c0.1,0.3,0.1,0.5,0.1,0.8V75z M9,74.8c0-0.4-0.1-0.8-0.3-1c-0.2-0.2-0.5-0.4-0.9-0.4
						c-0.2,0-0.4,0-0.5,0.1c-0.2,0.1-0.3,0.2-0.4,0.3s-0.2,0.3-0.2,0.4c-0.1,0.2-0.1,0.3-0.1,0.5H9z"/>
					<path d="M15,75.2c0,0.4,0,0.7-0.1,1c-0.1,0.3-0.2,0.6-0.4,0.8s-0.4,0.4-0.6,0.5s-0.5,0.2-0.8,0.2c-0.1,0-0.3,0-0.4,0
						c-0.1,0-0.2-0.1-0.3-0.1s-0.2-0.1-0.3-0.2s-0.2-0.2-0.4-0.3v0.5c0,0,0,0,0,0.1s0,0-0.1,0c0,0-0.1,0-0.1,0s-0.1,0-0.2,0
						c-0.1,0-0.1,0-0.2,0s-0.1,0-0.1,0c0,0,0,0-0.1,0s0,0,0-0.1v-6.5c0,0,0,0,0-0.1s0,0,0.1,0s0.1,0,0.1,0s0.1,0,0.2,0
						c0.1,0,0.1,0,0.2,0s0.1,0,0.1,0s0.1,0,0.1,0s0,0,0,0.1v2.6c0.1-0.1,0.3-0.2,0.4-0.3s0.2-0.2,0.4-0.2c0.1-0.1,0.2-0.1,0.4-0.1
						s0.2,0,0.4,0c0.3,0,0.6,0.1,0.8,0.2s0.4,0.3,0.6,0.5c0.1,0.2,0.2,0.5,0.3,0.8S15,74.8,15,75.2z M14.2,75.2c0-0.2,0-0.4-0.1-0.7
						c0-0.2-0.1-0.4-0.2-0.6s-0.2-0.3-0.3-0.4c-0.1-0.1-0.3-0.1-0.5-0.1c-0.1,0-0.2,0-0.3,0c-0.1,0-0.2,0.1-0.3,0.1
						c-0.1,0.1-0.2,0.2-0.3,0.3c-0.1,0.1-0.2,0.2-0.4,0.4v1.8c0.2,0.3,0.4,0.5,0.6,0.6s0.4,0.2,0.6,0.2c0.2,0,0.4,0,0.5-0.1
						c0.1-0.1,0.3-0.2,0.4-0.4c0.1-0.2,0.2-0.3,0.2-0.5S14.2,75.4,14.2,75.2z"/>
					<path d="M19.4,73.1c0.7-0.6,1.4-1.5,1.9-2.5l0.7,0.3c0,0.1-0.1,0.1-0.2,0.1c-0.2,0.4-0.4,0.7-0.7,1.1c0.2,0,0.3,0.1,0.3,0.1
						c0,0.1-0.1,0.1-0.2,0.1v3.1h-0.6v-2.7c-0.3,0.3-0.6,0.7-0.9,0.9c-0.1-0.1-0.2-0.3-0.3-0.4c0,1.6-0.1,3.7-0.9,5.2
						c-0.1-0.1-0.4-0.3-0.5-0.4c0.7-1.5,0.8-3.5,0.8-5v-3.1h3.9v-0.8l0.9,0.1c0,0.1-0.1,0.1-0.2,0.1v0.6h3.9v0.6h-7.9V73.1z
						 M21.3,76.2c-0.2,0.7-0.6,1.5-1.2,2l-0.5-0.3c0.6-0.4,0.9-1.1,1.1-1.8L21.3,76.2z M22.5,75.1v-2.5c-0.2,0.3-0.4,0.5-0.6,0.7
						c-0.1-0.1-0.3-0.3-0.4-0.4c0.6-0.6,1.2-1.5,1.6-2.4l0.7,0.2c0,0.1-0.1,0.1-0.2,0.1c-0.1,0.2-0.2,0.4-0.3,0.6h1.2
						c0.2-0.3,0.3-0.6,0.4-0.9l0.7,0.2c0,0.1-0.1,0.1-0.2,0.1c-0.1,0.2-0.2,0.4-0.3,0.6H27V72H25v0.6h1.7V73H25v0.6h1.7V74H25v0.6
						h2.1v0.5H22.5z M22.5,77.5c0,0.2,0.1,0.3,0.5,0.3h1.6c0.3,0,0.4-0.1,0.4-0.9c0.1,0.1,0.4,0.2,0.6,0.2c-0.1,1-0.3,1.2-1,1.2H23
						c-0.9,0-1.1-0.2-1.1-0.8V76l0.8,0.1c0,0.1-0.1,0.1-0.2,0.1V77.5z M22.8,75.2c0.6,0.3,1.4,0.7,1.7,1l-0.4,0.4
						c-0.4-0.3-1.1-0.8-1.7-1.1L22.8,75.2z M24.5,72.5V72h-1.3v0.6H24.5z M24.5,73.6V73h-1.3v0.6H24.5z M24.5,74.6V74h-1.3v0.6H24.5
						z M26.8,78.2c-0.3-0.6-0.9-1.4-1.5-2l0.5-0.3c0.6,0.6,1.3,1.4,1.5,2L26.8,78.2z"/>
					<path d="M36.7,69.8v7.6c0,0.9-0.4,0.9-2.3,0.9c0-0.2-0.1-0.5-0.2-0.7c0.4,0,0.7,0,1,0c0.8,0,0.9,0,0.9-0.3v-2.2h-2.9v3h-0.6v-3
						h-2.6c-0.1,1.1-0.5,2.3-1.3,3.2c-0.1-0.1-0.4-0.4-0.5-0.4c1.1-1.3,1.2-3.1,1.2-4.5v-3.7H36.7z M29.9,73.5c0,0.4,0,0.7,0,1.1
						h2.6v-1.7h-2.5V73.5z M32.5,70.5h-2.5v1.8h2.5V70.5z M36,72.2v-1.8h-2.9v1.8H36z M33.1,74.6H36v-1.7h-2.9V74.6z"/>
					<path d="M40.5,73.3c0.3,0.3,1.2,1.3,1.4,1.5l-0.4,0.5c-0.2-0.3-0.7-0.9-1-1.4v4.4h-0.7v-4.7c-0.4,1.1-0.9,2.2-1.4,2.9
						c-0.1-0.2-0.2-0.4-0.4-0.6c0.6-0.7,1.2-2.1,1.6-3.3h-1.5V72h1.6v-1.7c-0.5,0.1-1,0.3-1.5,0.4c0-0.1-0.1-0.4-0.2-0.5
						c1.2-0.3,2.5-0.7,3.2-1.1l0.6,0.5c0,0-0.1,0-0.1,0c0,0-0.1,0-0.1,0c-0.3,0.2-0.8,0.4-1.3,0.5V72h1.4v0.6h-1.4V73.3z M44.8,77.5
						h2.6v0.6h-5.8v-0.6h2.6v-1.4h-2v-0.6h2v-1.3h-2.2v-0.6h5.2v0.6h-2.3v1.3h2.1v0.6h-2.1V77.5z M46.8,69.6v3.2h-4.5v-3.2H46.8z
						 M46.1,72.2v-2h-3.2v2H46.1z"/>
					<path d="M57.3,71.7h-3c0.3,3.2,1,6,2.1,6c0.3,0,0.4-0.6,0.5-1.9c0.2,0.2,0.4,0.3,0.6,0.4c-0.1,1.8-0.4,2.3-1.1,2.3
						c-1.6,0-2.5-3.1-2.8-6.7h-5.3V71h5.3c0-0.6,0-1.2-0.1-1.9l0.9,0c0,0.1-0.1,0.1-0.2,0.2c0,0.6,0,1.1,0,1.7h3V71.7z M51.2,73.9v3
						c0.7-0.2,1.5-0.3,2.2-0.5l0.1,0.6c-1.7,0.4-3.5,0.9-4.7,1.1c0,0.1-0.1,0.1-0.1,0.2l-0.3-0.8c0.6-0.1,1.3-0.3,2.2-0.4v-3.1h-1.9
						v-0.6h4.5v0.6H51.2z M55.4,69.1c0.5,0.4,1.2,0.9,1.5,1.2l-0.5,0.4c-0.3-0.4-0.9-0.9-1.5-1.3L55.4,69.1z"/>
					<v:paragraph  v:horizAlign="1"></v:paragraph>
					<v:tabList></v:tabList>
				</g>
			</g>
		</g>
		<g id="shape1577-45" transform="translate(132.748,-42.5233)">
			<rect x="0" y="44.5" class="st4" width="80.5" height="20"/>
			<g class="st3">
				<path class="st7" d="M15.9,48.2l-1,0.3v3c0,0.8-0.4,0.8-1.7,0.8c0-0.2-0.1-0.5-0.2-0.6c0.2,0,0.4,0,0.6,0c0.7,0,0.7,0,0.7-0.2
					v-2.8l-1.1,0.3c0,0.1-0.1,0.1-0.1,0.2l-0.2-0.8c0.4-0.1,0.9-0.2,1.5-0.4v-2.3h-1.4v-0.6h1.4v-2.1l0.8,0c0,0.1-0.1,0.1-0.2,0.1
					v1.9h1.2v0.6h-1.2v2.1l0.9-0.3L15.9,48.2z M20.9,48l0.4,0.2c0,0-0.1,0.1-0.1,0.1c-0.4,1-1,1.8-1.8,2.5c0.8,0.5,1.7,0.8,2.7,1
					c-0.2,0.1-0.3,0.4-0.4,0.6c-1.1-0.2-2.1-0.6-2.9-1.2c-0.9,0.6-1.9,0.9-3,1.2c0-0.2-0.2-0.5-0.3-0.6c1-0.2,2-0.5,2.8-1
					c-0.6-0.5-1.1-1.2-1.4-2l0.5-0.2h-1V48h4.3L20.9,48z M20,46c0.4-0.5,0.8-1.2,1.1-1.8l0.7,0.3c0,0.1-0.1,0.1-0.2,0.1
					c-0.3,0.5-0.7,1.1-1,1.6H22v1.7h-0.6v-1.1h-4.7v1.1H16v-1.7h4.4L20,46z M21.6,43.6c0,0-0.1,0-0.1,0c0,0-0.1,0-0.1,0
					c-1.2,0.4-3.4,0.6-5.3,0.7c0-0.2-0.1-0.4-0.2-0.5c1.8-0.1,4-0.4,5.1-0.8L21.6,43.6z M17.1,46.1c-0.1-0.4-0.3-0.9-0.6-1.4
					l0.5-0.2c0.3,0.4,0.5,1,0.6,1.3L17.1,46.1z M17.6,48.6c0.3,0.7,0.8,1.3,1.4,1.8c0.6-0.5,1.2-1.1,1.5-1.8H17.6z M18.7,46
					c0-0.4-0.2-1-0.4-1.5l0.5-0.1c0.2,0.5,0.4,1.1,0.4,1.4L18.7,46z"/>
				<path class="st7" d="M24.9,46.7c0.3,0.4,1,1.4,1.2,1.7l-0.4,0.5c-0.1-0.3-0.5-1-0.8-1.5v4.9h-0.6v-4.9c-0.3,1.1-0.8,2.2-1.2,2.9
					c-0.1-0.2-0.2-0.4-0.3-0.6c0.6-0.9,1.2-2.5,1.5-3.9h-1.3v-0.6h1.4v-2.2l0.8,0.1c0,0.1-0.1,0.1-0.2,0.1v2h1.1v0.6h-1.1V46.7z
					 M29.5,50.8v0.6H32V52h-4.6v0.4h-0.6v-3c-0.2,0.3-0.5,0.6-0.8,0.8c-0.1-0.1-0.3-0.4-0.3-0.5c0.6-0.6,1.3-1.5,1.7-2.5h-0.9v-2
					h2.3v2h-1.2l0.5,0.2c0,0.1-0.1,0.1-0.2,0.1c-0.1,0.2-0.2,0.4-0.3,0.6h1.3c0.1-0.3,0.3-0.6,0.4-0.9l0.8,0.2
					c0,0.1-0.1,0.1-0.2,0.1c-0.1,0.2-0.2,0.4-0.3,0.6h2.4v0.5h-2.3v0.6h1.8v0.5h-1.8v0.6h1.8v0.5H29.5z M30.5,43.9h1.6v0.5h-1.6V45
					h-0.6v-0.5h-1.7V45h-0.6v-0.5H26v-0.5h1.6v-0.8l0.8,0c0,0.1-0.1,0.1-0.2,0.1v0.6h1.7v-0.8l0.8,0c0,0.1-0.1,0.1-0.2,0.1V43.9z
					 M27,45.7v1h1.2v-1H27z M28.9,49.2v-0.6h-1.5v0.6H28.9z M28.9,50.3v-0.6h-1.5v0.6H28.9z M27.4,50.8v0.6h1.5v-0.6H27.4z
					 M31.6,45.2v2h-2.3v-2H31.6z M31.1,46.7v-1h-1.2v1H31.1z"/>
			</g>
			<g class="st3">
				<path class="st7" d="M23.1,59.3c0.3,0.3,1.2,1.3,1.4,1.5l-0.4,0.5c-0.2-0.3-0.7-0.9-1-1.4v4.4h-0.7v-4.7
					c-0.4,1.1-0.9,2.2-1.4,2.9c-0.1-0.2-0.2-0.4-0.4-0.6c0.6-0.7,1.2-2.1,1.6-3.3h-1.5V58h1.6v-1.7c-0.5,0.1-1,0.3-1.5,0.4
					c0-0.1-0.1-0.4-0.2-0.5c1.2-0.3,2.5-0.7,3.2-1.1l0.6,0.5c0,0-0.1,0-0.1,0c0,0-0.1,0-0.1,0c-0.3,0.2-0.8,0.4-1.3,0.5V58h1.4v0.6
					h-1.4V59.3z M27.4,63.5H30v0.6h-5.8v-0.6h2.6v-1.4h-2v-0.6h2v-1.3h-2.2v-0.6h5.2v0.6h-2.3v1.3h2.1v0.6h-2.1V63.5z M29.4,55.6
					v3.2h-4.5v-3.2H29.4z M28.7,58.2v-2h-3.2v2H28.7z"/>
				<path class="st7" d="M39.9,57.7h-3c0.3,3.2,1,6,2.1,6c0.3,0,0.4-0.6,0.5-1.9c0.2,0.2,0.4,0.3,0.6,0.4c-0.1,1.8-0.4,2.3-1.1,2.3
					c-1.6,0-2.5-3.1-2.8-6.7h-5.3V57h5.3c0-0.6,0-1.2-0.1-1.9l0.9,0c0,0.1-0.1,0.1-0.2,0.2c0,0.6,0,1.1,0,1.7h3V57.7z M33.7,59.9v3
					c0.7-0.2,1.5-0.3,2.2-0.5L36,63c-1.7,0.4-3.5,0.9-4.7,1.1c0,0.1-0.1,0.1-0.1,0.2l-0.3-0.8c0.6-0.1,1.3-0.3,2.2-0.4v-3.1h-1.9
					v-0.6h4.5v0.6H33.7z M38,55.1c0.5,0.4,1.2,0.9,1.5,1.2L39,56.8c-0.3-0.4-0.9-0.9-1.5-1.3L38,55.1z"/>
				<path class="st7" d="M44.1,63.1h-2v0.8h-0.6v-3.5c-0.2,0.4-0.4,0.7-0.6,1c-0.1-0.1-0.3-0.4-0.4-0.6c0.7-1,1.2-2.8,1.4-4.6h-1.2
					v-0.6h3.7v0.6h-1.8c-0.1,0.9-0.3,1.7-0.5,2.5h2V63.1z M43.5,59.3h-1.4v3.1h1.4V59.3z M45.3,61.5c-0.1,0.9-0.3,1.8-0.8,2.4
					L44,63.6c0.5-0.5,0.7-1.4,0.8-2.2L45.3,61.5z M49.5,60.3l0.3,0c0,0.1,0,0.1,0,0.2c-0.1,2.4-0.2,3.3-0.5,3.6
					c-0.2,0.2-0.4,0.3-0.9,0.3c-0.2,0-0.5,0-0.8,0c0-0.2-0.1-0.4-0.2-0.6c0.5,0,0.9,0,1,0c0.2,0,0.3,0,0.3-0.1
					c0.2-0.2,0.3-0.9,0.4-2.8H45v-5.3h4.7v0.6h-2v1h1.7v0.6h-1.7v1h1.7v0.6h-1.7v1h1.7L49.5,60.3z M47,56.1h-1.5v1H47V56.1z
					 M47,58.7v-1h-1.5v1H47z M45.6,59.2v1H47v-1H45.6z M45.9,63.6c0-0.5,0-1.3-0.2-1.9l0.5-0.1c0.1,0.6,0.2,1.4,0.2,1.9L45.9,63.6z
					 M47.3,63.2c-0.1-0.4-0.3-1.1-0.5-1.6l0.5-0.1c0.2,0.5,0.4,1.1,0.5,1.6L47.3,63.2z M48.3,61.2c0.3,0.4,0.6,0.9,0.7,1.2l-0.4,0.2
					c-0.1-0.3-0.4-0.9-0.7-1.2L48.3,61.2z"/>
				<path class="st7" d="M51.1,57.9c0.6,0.3,1.5,0.7,1.9,1l-0.4,0.6c-0.4-0.3-1.2-0.8-1.8-1.1L51.1,57.9z M51,63.8
					c0.5-0.8,1.3-2.1,1.8-3.3l0.5,0.4c-0.5,1.1-1.2,2.3-1.6,3.1c0,0,0,0.1,0,0.1s0,0.1,0,0.1L51,63.8z M51.6,55.2
					c0.6,0.3,1.4,0.7,1.8,1.1L53,56.8c-0.4-0.4-1.2-0.9-1.8-1.2L51.6,55.2z M55,60.9c0,1.1-0.2,2.4-1.5,3.4
					c-0.1-0.2-0.3-0.4-0.5-0.5c1.3-0.9,1.4-2,1.4-3v-1.1l0.8,0c0,0.1-0.1,0.1-0.2,0.1V60.9z M53.6,58.8l1.2,0
					c0.3-0.5,0.7-1.2,0.9-1.7h-2.2v-0.6h2.7v-1.3l0.9,0c0,0.1-0.1,0.1-0.2,0.1v1.1h3.1V57h-3.4c0,0.1-0.1,0.1-0.2,0.1
					c-0.2,0.5-0.6,1.1-0.9,1.6c0.9,0,1.9-0.1,2.9-0.1c-0.3-0.3-0.6-0.6-0.9-0.9l0.5-0.3c0.7,0.6,1.5,1.5,1.9,2.1l-0.5,0.3
					c-0.1-0.2-0.3-0.5-0.5-0.7c-1.8,0.1-3.7,0.2-4.9,0.3c0,0.1-0.1,0.1-0.1,0.1L53.6,58.8z M56.2,63.9v-4L57,60
					c0,0.1-0.1,0.1-0.2,0.1v3.8H56.2z M58.6,63.3c0,0.4,0,0.4,0.2,0.4h0.3c0.3,0,0.3-0.1,0.3-0.3c0-0.2,0-0.5,0-1
					c0.1,0.1,0.3,0.2,0.5,0.3c0,1.2,0,1.6-0.8,1.6h-0.5c-0.7,0-0.7-0.5-0.7-1v-3.3l0.8,0c0,0.1-0.1,0.1-0.2,0.1V63.3z"/>
				<path class="st7" d="M63.1,59.3c0.3,0.3,1.2,1.3,1.4,1.5l-0.4,0.5c-0.2-0.3-0.7-0.9-1-1.4v4.4h-0.7v-4.7
					c-0.4,1.1-0.9,2.2-1.4,2.9c-0.1-0.2-0.2-0.4-0.4-0.6c0.6-0.7,1.2-2.1,1.6-3.3h-1.5V58h1.6v-1.7c-0.5,0.1-1,0.3-1.5,0.4
					c0-0.1-0.1-0.4-0.2-0.5c1.2-0.3,2.5-0.7,3.2-1.1l0.6,0.5c0,0-0.1,0-0.1,0c0,0-0.1,0-0.1,0c-0.3,0.2-0.8,0.4-1.3,0.5V58h1.4v0.6
					h-1.4V59.3z M67.4,63.5H70v0.6h-5.8v-0.6h2.6v-1.4h-2v-0.6h2v-1.3h-2.2v-0.6h5.2v0.6h-2.3v1.3h2.1v0.6h-2.1V63.5z M69.4,55.6
					v3.2h-4.5v-3.2H69.4z M68.7,58.2v-2h-3.2v2H68.7z"/>
			</g>
			<v:paragraph  v:horizAlign="1"></v:paragraph>
			<v:tabList></v:tabList>
		</g>
		<g id="shape1578-49" transform="translate(214.796,-21.421)">
			<path class="st0" d="M21.6,39H1.1C0.5,39,0,39.5,0,40.1v16.7C0,57.5,0.5,58,1.1,58h5.3c0.4,1.4,1.7,2.3,3.2,2.3
				c1.8,0,3.3-1.5,3.3-3.4s-1.5-3.4-3.3-3.4c-1.5,0-2.8,0.9-3.2,2.3H2.2v-12h18.3v12H17c-0.5-3.7-3.7-6.6-7.5-6.6
				c-1.3,0-2.5,0.4-3.6,0.9l1,2c0.7-0.4,1.7-0.7,2.6-0.7c2.9,0,5.4,2.4,5.4,5.5c0,3-2.4,5.5-5.4,5.5c-0.9,0-1.8-0.3-2.6-0.7l-1,2
				c1.1,0.6,2.4,0.9,3.6,0.9c3.8,0,7-2.9,7.5-6.6h4.5c0.6,0,1.1-0.5,1.1-1.1V40.1C22.7,39.6,22.2,39,21.6,39z"/>
			<g class="st3">
				<path d="M0.9,77.2c0,0.1,0,0.1,0,0.2c0,0,0,0.1,0,0.1s-0.1,0-0.1,0c-0.1,0-0.1,0-0.2,0s-0.2,0-0.2,0c-0.1,0-0.1,0-0.1,0
					c0,0-0.1,0-0.1,0c0,0,0,0,0-0.1l-0.5-1.5h-2.6l-0.5,1.5c0,0,0,0.1,0,0.1c0,0,0,0-0.1,0.1c0,0-0.1,0-0.1,0c-0.1,0-0.1,0-0.2,0
					c-0.1,0-0.2,0-0.2,0c-0.1,0-0.1,0-0.1,0c0,0,0-0.1,0-0.1c0,0,0-0.1,0-0.2l2.1-5.9c0,0,0-0.1,0.1-0.1c0,0,0.1,0,0.1-0.1
					c0,0,0.1,0,0.2,0c0.1,0,0.1,0,0.2,0c0.1,0,0.2,0,0.3,0s0.1,0,0.2,0s0.1,0,0.1,0.1s0,0.1,0.1,0.1L0.9,77.2z M-1.8,72.1L-1.8,72.1
					l-1.1,3.1h2.2L-1.8,72.1z"/>
				<path d="M5.8,73.1c0,0.3-0.1,0.6-0.2,0.9s-0.3,0.5-0.4,0.6C5,74.7,4.8,74.9,4.5,75c-0.3,0.1-0.6,0.1-1,0.1H2.8v2.3
					c0,0,0,0,0,0.1c0,0,0,0-0.1,0c0,0-0.1,0-0.1,0c-0.1,0-0.1,0-0.2,0s-0.1,0-0.2,0c-0.1,0-0.1,0-0.1,0c0,0-0.1,0-0.1,0s0,0,0-0.1
					v-5.8c0-0.1,0-0.2,0.1-0.3s0.1-0.1,0.2-0.1h1.4c0.1,0,0.3,0,0.4,0c0.1,0,0.3,0,0.4,0.1c0.2,0,0.3,0.1,0.5,0.2
					c0.2,0.1,0.3,0.2,0.5,0.4s0.2,0.3,0.3,0.5C5.8,72.6,5.8,72.8,5.8,73.1z M5,73.1c0-0.3,0-0.5-0.1-0.6c-0.1-0.2-0.2-0.3-0.4-0.4
					C4.3,72,4.2,72,4,71.9c-0.2,0-0.3,0-0.4,0H2.8v2.5h0.8c0.3,0,0.5,0,0.6-0.1c0.2-0.1,0.3-0.2,0.4-0.3c0.1-0.1,0.2-0.3,0.3-0.4
					S5,73.3,5,73.1z"/>
				<path d="M8,77.4C8,77.4,8,77.5,8,77.4c0,0.1-0.1,0.1-0.1,0.1c0,0-0.1,0-0.1,0c-0.1,0-0.1,0-0.2,0c-0.1,0-0.1,0-0.2,0
					c-0.1,0-0.1,0-0.1,0c0,0-0.1,0-0.1,0s0,0,0-0.1v-6.1c0,0,0,0,0-0.1c0,0,0,0,0.1,0c0,0,0.1,0,0.1,0c0.1,0,0.1,0,0.2,0
					c0.1,0,0.1,0,0.2,0c0.1,0,0.1,0,0.1,0c0,0,0.1,0,0.1,0s0,0,0,0.1V77.4z"/>
				<path d="M12.7,73.1c0.7-0.6,1.4-1.5,1.9-2.5l0.7,0.3c0,0.1-0.1,0.1-0.2,0.1c-0.2,0.4-0.4,0.7-0.7,1.1c0.2,0,0.3,0.1,0.3,0.1
					c0,0.1-0.1,0.1-0.2,0.1v3.1H14v-2.7c-0.3,0.3-0.6,0.7-0.9,0.9c-0.1-0.1-0.2-0.3-0.3-0.4c0,1.6-0.1,3.7-0.9,5.2
					c-0.1-0.1-0.4-0.3-0.5-0.4c0.7-1.5,0.8-3.5,0.8-5v-3.1H16v-0.8l0.9,0.1c0,0.1-0.1,0.1-0.2,0.1v0.6h3.9v0.6h-7.9V73.1z
					 M14.6,76.2c-0.2,0.7-0.6,1.5-1.2,2l-0.5-0.3c0.6-0.4,0.9-1.1,1.1-1.8L14.6,76.2z M15.8,75.1v-2.5c-0.2,0.3-0.4,0.5-0.6,0.7
					c-0.1-0.1-0.3-0.3-0.4-0.4c0.6-0.6,1.2-1.5,1.6-2.4l0.7,0.2c0,0.1-0.1,0.1-0.2,0.1c-0.1,0.2-0.2,0.4-0.3,0.6h1.2
					c0.2-0.3,0.3-0.6,0.4-0.9l0.7,0.2c0,0.1-0.1,0.1-0.2,0.1c-0.1,0.2-0.2,0.4-0.3,0.6h1.9V72h-1.9v0.6H20V73h-1.7v0.6H20V74h-1.7
					v0.6h2.1v0.5H15.8z M15.8,77.5c0,0.2,0.1,0.3,0.5,0.3h1.6c0.3,0,0.4-0.1,0.4-0.9c0.1,0.1,0.4,0.2,0.6,0.2c-0.1,1-0.3,1.2-1,1.2
					h-1.7c-0.9,0-1.1-0.2-1.1-0.8V76l0.8,0.1c0,0.1-0.1,0.1-0.2,0.1V77.5z M16.1,75.2c0.6,0.3,1.4,0.7,1.7,1l-0.4,0.4
					c-0.4-0.3-1.1-0.8-1.7-1.1L16.1,75.2z M17.7,72.5V72h-1.3v0.6H17.7z M17.7,73.6V73h-1.3v0.6H17.7z M17.7,74.6V74h-1.3v0.6H17.7z
					 M20.1,78.2c-0.3-0.6-0.9-1.4-1.5-2l0.5-0.3c0.6,0.6,1.3,1.4,1.5,2L20.1,78.2z"/>
				<path d="M30,69.8v7.6c0,0.9-0.4,0.9-2.3,0.9c0-0.2-0.1-0.5-0.2-0.7c0.4,0,0.7,0,1,0c0.8,0,0.9,0,0.9-0.3v-2.2h-2.9v3h-0.6v-3
					h-2.6c-0.2,1.1-0.5,2.3-1.3,3.2c-0.1-0.1-0.4-0.4-0.5-0.4c1.1-1.3,1.2-3.1,1.2-4.5v-3.7H30z M23.2,73.5c0,0.4,0,0.7,0,1.1h2.6
					v-1.7h-2.5V73.5z M25.8,70.5h-2.5v1.8h2.5V70.5z M29.3,72.2v-1.8h-2.9v1.8H29.3z M26.4,74.6h2.9v-1.7h-2.9V74.6z"/>
				<path d="M33.8,73.3c0.3,0.3,1.2,1.3,1.4,1.5l-0.4,0.5c-0.2-0.3-0.7-0.9-1-1.4v4.4h-0.7v-4.7c-0.4,1.1-0.9,2.2-1.4,2.9
					c-0.1-0.2-0.2-0.4-0.4-0.6c0.6-0.7,1.2-2.1,1.6-3.3h-1.5V72h1.7v-1.7c-0.5,0.1-1,0.3-1.5,0.4c0-0.1-0.1-0.4-0.2-0.5
					c1.2-0.3,2.5-0.7,3.2-1.1l0.6,0.5c0,0-0.1,0-0.1,0c0,0-0.1,0-0.1,0c-0.3,0.2-0.8,0.4-1.3,0.5V72h1.4v0.6h-1.4V73.3z M38.1,77.5
					h2.6v0.6h-5.8v-0.6h2.6v-1.4h-2v-0.6h2v-1.3h-2.2v-0.6h5.2v0.6h-2.3v1.3h2.1v0.6h-2.1V77.5z M40.1,69.6v3.2h-4.5v-3.2H40.1z
					 M39.4,72.2v-2h-3.2v2H39.4z"/>
				<v:paragraph  v:horizAlign="1"></v:paragraph>
				<v:tabList></v:tabList>
			</g>
		</g>
		<g id="shape1579-52" transform="translate(73.5133,-41.2635)">
			<g transform="scale(-2.68,-2.68) ">
				<g id="lend5">
					<path class="st10" d="M132.8,67.6l8,4l-8,4C134.1,73.1,134.1,70.1,132.8,67.6"/>
				</g>
			</g>
		</g>
		<g id="group1580-58" transform="translate(0.375,-25.6729)">
			<g id="group1581-59">
				<g id="group1582-60">
					<g id="group1583-61" transform="translate(3.8518,-6.4617)">
						<g id="shape1584-62">
							<path class="st0" d="M3.6,54.6c-2.3,0.6-3.6,3.1-3,5.7c0.7,2.6,3,4.2,5.3,3.7c2.3-0.6,3.6-3.1,3-5.7
								C8.3,55.6,5.9,54,3.6,54.6z"/>
						</g>
					</g>
					<g id="group1585-64">
						<g id="shape1586-65">
							<path class="st0" d="M12.4,58.2c-0.4,0-0.9,0.8-1.5,1.1c-0.7,0.3-1.3,0.9-3.2,0c-1.9-0.9-2.1-1.7-3.6-1.7
								c-1.5,0-4.1,2.8-4.1,6.9h15.6c0,0-0.2-2.8-1.1-4.2C13.4,58.2,12.9,58.2,12.4,58.2z"/>
						</g>
					</g>
				</g>
			</g>
			<g id="group1587-67" transform="translate(9.0485,-0.85947)">
				<g id="shape1588-68">
					<path class="st1" d="M4.8,54.1H0.7c-0.3,0-0.6,0.3-0.6,0.7v2.8c0,0.3,0.3,0.7,0.8,0.7h0.8v5.2c0,0.6,0.4,1.1,1,1.1s1-0.4,1-1
						c0.1,0,0.2,0,0.2,0s0-0.5,0-0.7c0-0.2,0.3-0.3,0.3-0.3v-0.3c-0.3-0.1-0.5-0.3-0.5-0.4v-0.3c0.1-0.1,0.2-0.2,0.2-0.2
						C3.8,61.1,4,60.7,4,60.7s-0.3-0.4-0.3-0.5c-0.1-0.1-0.1-0.3-0.2-0.4v-0.2c0.1-0.5,0.8-1.1,0.8-1.1h0.5c0.3,0,0.7-0.3,0.7-0.7
						v-3C5.4,54.4,5.2,54.1,4.8,54.1z M2.4,63.7c0,0.2,0,0.3-0.2,0.3C2,64,2,63.8,2,63.7v-4.8c0-0.2,0.1-0.3,0.2-0.3
						c0.2,0,0.2,0.2,0.2,0.3V63.7z M2.7,55.9c-0.3,0-0.7-0.3-0.7-0.7c0-0.3,0.3-0.7,0.7-0.7c0.3,0,0.6,0.3,0.6,0.7
						C3.4,55.5,3.1,55.9,2.7,55.9z"/>
				</g>
				<g id="shape1589-70" transform="translate(1.92482,-0.570755)">
					<path class="st2" d="M0.2,64.5c-0.1,0-0.2-0.1-0.2-0.2v-5c0-0.1,0.1-0.2,0.2-0.2s0.2,0.1,0.2,0.2v5.1
						C0.4,64.5,0.3,64.5,0.2,64.5z"/>
				</g>
				<g id="shape1590-72" transform="translate(2.05993,-8.66317)">
					<ellipse class="st2" cx="0.7" cy="63.9" rx="0.7" ry="0.7"/>
				</g>
			</g>
		</g>
	</g>
</g>
</svg>
