<svg xmlns="http://www.w3.org/2000/svg" width="204.71" height="64.78" viewBox="0 0 204.71 64.78"><title>OJ104440671</title><path d="M66,40.4a11.81,11.81,0,0,1-16.84-2.29,12.56,12.56,0,0,1,2.24-17.29,11.82,11.82,0,0,1,16.84,2.3A12.54,12.54,0,0,1,66,40.4ZM69.69,22a13.57,13.57,0,0,0-19.36-2.63,14.43,14.43,0,0,0-2.55,19.87,13.62,13.62,0,0,0,11,5.55,13.45,13.45,0,0,0,8.39-2.92A14.44,14.44,0,0,0,69.69,22Z" fill="#008bfd" fill-rule="evenodd"/><path d="M52.06,33.18a17,17,0,0,1-2-2.35,18.28,18.28,0,0,0-1.66,6.88c.11.16.11.29.23.44a12.55,12.55,0,0,0,2,2.05A14.13,14.13,0,0,1,52.06,33.18Z" fill="#008bfd" fill-rule="evenodd"/><path d="M56.67,23.74a21,21,0,0,0-3.33,3,15.71,15.71,0,0,0-1.61,2.05,15.42,15.42,0,0,0,1.9,2.46,16.32,16.32,0,0,1,2.2-2.56A26.47,26.47,0,0,1,59,26.06C58.16,25.3,57.38,24.53,56.67,23.74Z" fill="#008bfd" fill-rule="evenodd"/><path d="M68.14,22.94a12,12,0,0,0-1.73-1.82,12.53,12.53,0,0,0-8,1.53c.76.84,1.51,1.63,2.24,2.36C65,22.58,68.14,22.94,68.14,22.94Z" fill="#008bfd" fill-rule="evenodd"/><path d="M50.54,40.2a19.82,19.82,0,0,1,1.19-2.06,9.84,9.84,0,0,1-1.6-6.79A13.09,13.09,0,0,0,48.84,33C48.46,34.56,48.44,37.12,50.54,40.2Z" fill="#008bfd" fill-rule="evenodd"/><path d="M55.9,33.36a21.6,21.6,0,0,1-2.27-2.14,14.25,14.25,0,0,0-1.14,2,23.54,23.54,0,0,0,2.09,1.91,19.12,19.12,0,0,0,12.56,4.38,9,9,0,0,0,1.54-1.94C67.45,37.78,62.19,38.47,55.9,33.36Z" fill="#008bfd" fill-rule="evenodd"/><path d="M50.54,30.82a15.72,15.72,0,0,0,2,2.35,15.36,15.36,0,0,1,1.14-2,15.42,15.42,0,0,1-1.9-2.46A15.58,15.58,0,0,0,50.54,30.82Z" fill="#008bfd" fill-rule="evenodd"/><path d="M59,26.06a97,97,0,0,0,11.15,8.82,9.82,9.82,0,0,0,.33-1.05A95.51,95.51,0,0,1,60.61,25Q59.82,25.46,59,26.06Z" fill="#008bfd" fill-rule="evenodd"/><path d="M58.38,22.65q-1.65-1.77-3.36-3.8a10.05,10.05,0,0,0-1.59.66,26.3,26.3,0,0,0,3.24,4.22A17.22,17.22,0,0,1,58.38,22.65Z" fill="#008bfd" fill-rule="evenodd"/><path d="M58.45,22.61a18.74,18.74,0,0,0-1.87,1.19c.72.78,1.45,1.59,2.25,2.35.57-.4,1.34-.88,1.87-1.18C60,24.24,59.21,23.45,58.45,22.61Z" fill="#008bfd" fill-rule="evenodd"/><path d="M58.25,22.51a16.24,16.24,0,0,0-1.67,1.12c.72.79,1.74,1.81,2.54,2.57.57-.4,1.05-.8,1.58-1.11C60,24.37,59,23.34,58.25,22.51Z" fill="#008bfd" fill-rule="evenodd"/><path d="M64.3,29.06a2.7,2.7,0,0,0-.48,3.7,2.56,2.56,0,0,0,3.63.51,2.72,2.72,0,0,0,.48-3.72A2.55,2.55,0,0,0,64.3,29.06Z" fill="#008bfd" fill-rule="evenodd"/><path d="M49.34,35.67a2.52,2.52,0,0,0-.45,3.44,2.37,2.37,0,0,0,3.36.45,2.49,2.49,0,0,0,.44-3.43A2.36,2.36,0,0,0,49.34,35.67Z" fill="#008bfd" fill-rule="evenodd"/><path d="M50,27.86a3.79,3.79,0,0,0-.68,5.21,3.58,3.58,0,0,0,5.1.7,3.8,3.8,0,0,0,.67-5.23A3.59,3.59,0,0,0,50,27.86Z" fill="#008bfd" fill-rule="evenodd"/><path d="M191.76,17.85h-20.5A1.1,1.1,0,0,0,170.17,19V35.7a1.09,1.09,0,0,0,1.09,1.1h5.28a3.29,3.29,0,0,0,3.21,2.27,3.37,3.37,0,0,0,0-6.74,3.29,3.29,0,0,0-3.21,2.26h-4.19v-12h18.31v12h-3.45A7.61,7.61,0,0,0,179.75,28a8.25,8.25,0,0,0-3.64.92l1,2a5.39,5.39,0,0,1,2.55-.67,5.46,5.46,0,0,1,0,10.92,5.28,5.28,0,0,1-2.55-.68l-1,2a7.4,7.4,0,0,0,3.64.92,7.61,7.61,0,0,0,7.46-6.56h4.55a1.09,1.09,0,0,0,1.09-1.1V19A1.14,1.14,0,0,0,191.76,17.85Z" fill="#008bfd" fill-rule="evenodd"/><path d="M161.7,26.59l8,4-8,4a9,9,0,0,0,0-8" fill="#505050" fill-rule="evenodd"/><path d="M7.85,22.77a4.5,4.5,0,0,0-3,5.67c.66,2.55,3,4.21,5.27,3.66a4.49,4.49,0,0,0,3-5.66C12.57,23.77,10.16,22.11,7.85,22.77Z" fill="#008bfd" fill-rule="evenodd"/><path d="M12.79,32.79c-.44,0-.88.77-1.54,1.11s-1.32.88-3.18,0S6,32.23,4.44,32.23.38,35,.38,39.11H16a12.05,12.05,0,0,0-1.1-4.21C13.77,32.79,13.23,32.79,12.79,32.79Z" fill="#008bfd" fill-rule="evenodd"/><path d="M14.19,27.84H10.07a.71.71,0,0,0-.65.66v2.85a.73.73,0,0,0,.76.66h.76v5.15a1,1,0,0,0,1,1.09,1,1,0,0,0,1-1h.21v-.66c0-.22.33-.33.33-.33V36c-.33-.11-.54-.33-.54-.44v-.32L13.1,35a3.53,3.53,0,0,0,.33-.55,2.4,2.4,0,0,1-.33-.55c-.1-.11-.1-.33-.21-.44v-.22a2.52,2.52,0,0,1,.76-1.09h.54a.71.71,0,0,0,.65-.66v-3A.63.63,0,0,0,14.19,27.84ZM11.8,37.38c0,.22,0,.33-.21.33s-.22-.22-.22-.33V32.56c0-.22.11-.33.22-.33s.21.22.21.33Zm.33-7.78a.66.66,0,0,1,0-1.32.71.71,0,0,1,.65.66A.63.63,0,0,1,12.13,29.6Z" fill="#008bfd" stroke="gray" stroke-linecap="round" stroke-linejoin="round" stroke-width="0.75" fill-rule="evenodd"/><path d="M11.57,37.68a.24.24,0,0,1-.22-.22v-5a.22.22,0,1,1,.44,0v5.1C11.79,37.68,11.68,37.68,11.57,37.68Z" fill="#fff" fill-rule="evenodd"/><ellipse cx="12.14" cy="28.92" rx="0.66" ry="0.67" fill="#fff"/><rect x="72.98" y="29.74" width="91.04" height="1.75" rx="0.76" ry="0.76" fill="#505050"/><rect x="65.1" y="0.38" width="114.21" height="20" fill="none"/><path d="M36.16,50.22,34,57.79H33l-1.57-5.58a3.77,3.77,0,0,1-.13-.76h0a3.9,3.9,0,0,1-.13.76l-1.59,5.58h-1L26.4,50.22h.91L29,56.07a3.43,3.43,0,0,1,.12.76h0a5,5,0,0,1,.16-.76L31,50.22h.79l1.63,5.9a5.58,5.58,0,0,1,.13.7h0a3.34,3.34,0,0,1,.14-.72l1.57-5.88Z"/><path d="M41.23,55.29H37.4a2.09,2.09,0,0,0,.49,1.43,1.67,1.67,0,0,0,1.28.49,2.66,2.66,0,0,0,1.69-.61v.79a3.08,3.08,0,0,1-1.88.52,2.23,2.23,0,0,1-1.77-.73,3,3,0,0,1-.66-2.08,3,3,0,0,1,.71-2,2.26,2.26,0,0,1,1.76-.8,2,2,0,0,1,1.62.68,2.85,2.85,0,0,1,.59,1.91Zm-.84-.72A1.86,1.86,0,0,0,40,53.38,1.26,1.26,0,0,0,39,53a1.45,1.45,0,0,0-1,.43,2,2,0,0,0-.56,1.18Z"/><path d="M43.37,57v.79h-.82v-8h.82v3.55h0a2.05,2.05,0,0,1,1.87-1.08,2,2,0,0,1,1.63.73,2.94,2.94,0,0,1,.6,1.94,3.32,3.32,0,0,1-.67,2.16,2.2,2.2,0,0,1-1.81.82A1.78,1.78,0,0,1,43.39,57Zm0-1.41a1.58,1.58,0,0,0,.46,1.16,1.49,1.49,0,0,0,1.11.47,1.47,1.47,0,0,0,1.25-.62,2.74,2.74,0,0,0,.46-1.69,2.21,2.21,0,0,0-.42-1.43A1.42,1.42,0,0,0,45.08,53a1.6,1.6,0,0,0-1.23.53,1.91,1.91,0,0,0-.48,1.34Z"/><path d="M59.76,50.75H52.38v2.89a12.84,12.84,0,0,1-.79,4.71L51.16,58a12.19,12.19,0,0,0,.72-4.34V50.29h3.75c-.13-.22-.27-.43-.41-.64l.52-.13a3.55,3.55,0,0,1,.45.77h3.57Zm-5.68,5.39a7.3,7.3,0,0,1-1.17,1.91l-.4-.33a5.87,5.87,0,0,0,1.09-1.79Zm.56-5A6.17,6.17,0,0,1,54,52.45v3.13h-.49V53.17a7.34,7.34,0,0,1-.62.71l-.34-.39a6.85,6.85,0,0,0,1.62-2.56Zm5,4.39H55.21V53c-.16.2-.39.47-.68.8l-.3-.42a9.1,9.1,0,0,0,1.66-2.44l.44.17a4.23,4.23,0,0,1-.35.71h1.51a4.44,4.44,0,0,0-.39-.67l.49-.15a3.83,3.83,0,0,1,.44.82h1.59v.47H57.78v.57h1.7v.47h-1.7V54h1.7v.46h-1.7V55h1.87ZM58.35,57a2.06,2.06,0,0,1-.17.78.72.72,0,0,1-.44.34,7,7,0,0,1-1.47.09,5.56,5.56,0,0,1-1.05-.06.56.56,0,0,1-.36-.25.92.92,0,0,1-.13-.54V55.93h.5V57.4a.29.29,0,0,0,.14.29,5.63,5.63,0,0,0,1,.05,7,7,0,0,0,1.11-.05.41.41,0,0,0,.26-.21,1.58,1.58,0,0,0,.09-.66Zm-1.06-4.15v-.57H55.72v.57Zm0,1.1v-.63H55.72V54Zm0,1.08v-.62H55.72V55Zm-.1,1.78-.44.29a5.21,5.21,0,0,0-.87-1l.44-.3A6.47,6.47,0,0,1,57.2,56.82Zm2.71.89-.43.26a9.57,9.57,0,0,0-1.21-1.78l.44-.26A9.27,9.27,0,0,1,59.91,57.71Z"/><path d="M69.41,57.58a.56.56,0,0,1-.29.56,3.2,3.2,0,0,1-1.3.16h-.45l-.16-.54.72,0a2.9,2.9,0,0,0,.83-.06.2.2,0,0,0,.12-.19V55.12H66.05V58h-.54V55.12H62.66a6.59,6.59,0,0,1-1,3.14l-.47-.32a6.25,6.25,0,0,0,1-3.61V49.74h7.24Zm-3.9-5.47V50.29h-2.8v1.82Zm0,2.49v-2h-2.8v2Zm3.37-2.49V50.29H66.05v1.82Zm0,2.49v-2H66.05v2Z"/><path d="M74.58,54.51l-.37.41a6.31,6.31,0,0,0-.86-1.25v4.62h-.52V53.65a13.73,13.73,0,0,1-1.35,2.47l-.35-.41a13.58,13.58,0,0,0,1.67-3.2H71.18V52h1.65V50.53l-1.22.22-.27-.49a10.85,10.85,0,0,0,2.89-.69l.31.46-1.19.38V52h1.19v.51H73.35v.41A9.42,9.42,0,0,1,74.58,54.51Zm5.29,3.54H74.24v-.48h2.57V56H74.59v-.5h2.22V54.08l-2,.12-.24-.52a22.35,22.35,0,0,0,4.77-.52l.33.45c-.67.15-1.45.29-2.35.42v1.51h2.15V56H77.34v1.53h2.53Zm-.64-5.47H74.94V49.85h4.29Zm-.53-.51V50.34H75.47v1.73Z"/><path d="M89.87,56.15c-.29,1.5-.72,2.25-1.28,2.25a.62.62,0,0,1-.38-.13,2.51,2.51,0,0,1-.54-.61,5.46,5.46,0,0,1-.61-1.21,8,8,0,0,1-.41-2c-.09-.88-.16-1.76-.19-2.62H81.23v-.54h5.18c0-.74,0-1.32,0-1.73h.52c0,.8,0,1.37,0,1.73h2.91v.54H87c0,.69.11,1.62.25,2.79a6,6,0,0,0,.72,2.52c.33.51.56.76.68.76s.32-.24.48-.72a6.64,6.64,0,0,0,.29-1.27Zm-3.7.39c-1.62.41-3.14.74-4.56,1L81.48,57c.54-.08,1.23-.21,2.06-.36v-2.9H81.76v-.54h4.13v.54H84v2.78q1.17-.26,2.13-.51Zm3.23-5.78-.44.31A5.75,5.75,0,0,0,87.84,50l.43-.34A5.31,5.31,0,0,1,89.4,50.76Z"/><path d="M148.17,56.37h-.92l-.82-2.15h-3.24l-.77,2.15h-.93l2.91-7.56h.85Zm-2-2.91-1.21-3.27a3.36,3.36,0,0,1-.11-.5h0a2.18,2.18,0,0,1-.13.5l-1.19,3.27Z"/><path d="M150.13,53.5v2.87h-.83V48.81h2a2.7,2.7,0,0,1,1.86.59,2.1,2.1,0,0,1,.66,1.66,2.25,2.25,0,0,1-.78,1.79,2.72,2.72,0,0,1-1.94.65Zm0-3.93v3.15h1a2.13,2.13,0,0,0,1.42-.42,1.48,1.48,0,0,0,.49-1.2q0-1.53-1.8-1.53Z"/><path d="M156.14,56.37h-.83V48.81h.83Z"/><path d="M168.92,49.34h-7.38v2.88a12.84,12.84,0,0,1-.79,4.71l-.43-.36a12.15,12.15,0,0,0,.72-4.34V48.87h3.74c-.13-.22-.26-.43-.4-.64l.52-.12a3.25,3.25,0,0,1,.45.76h3.57Zm-5.68,5.38a7.12,7.12,0,0,1-1.18,1.92l-.39-.34a6,6,0,0,0,1.09-1.79Zm.56-5a6.5,6.5,0,0,1-.62,1.35v3.13h-.5V51.75a6.11,6.11,0,0,1-.62.72l-.33-.39a6.88,6.88,0,0,0,1.62-2.57Zm5,4.39h-4.44v-2.5c-.16.21-.39.47-.68.8l-.3-.42a9,9,0,0,0,1.66-2.44l.44.17a5.9,5.9,0,0,1-.35.72h1.5a4.08,4.08,0,0,0-.38-.68l.49-.14a4,4,0,0,1,.44.82h1.59v.46h-1.84v.58h1.7v.46h-1.7v.63h1.7V53h-1.7v.62h1.87Zm-1.3,1.52a1.81,1.81,0,0,1-.18.77.72.72,0,0,1-.43.35,8.12,8.12,0,0,1-1.47.08,5.42,5.42,0,0,1-1.05-.06.56.56,0,0,1-.36-.25.9.9,0,0,1-.13-.54V54.51h.5V56c0,.16.05.25.14.29a5.48,5.48,0,0,0,1,0,7,7,0,0,0,1.12,0,.41.41,0,0,0,.26-.21,1.5,1.5,0,0,0,.09-.65Zm-1.06-4.15v-.58h-1.57v.58Zm0,1.09v-.63h-1.58v.63Zm0,1.08V53h-1.58v.62Zm-.1,1.79-.44.28a6.39,6.39,0,0,0-.87-1l.44-.29A7.14,7.14,0,0,1,166.36,55.41Zm2.71.88-.43.26a9.16,9.16,0,0,0-1.21-1.77l.44-.27A10.69,10.69,0,0,1,169.07,56.29Z"/><path d="M178.57,56.16a.61.61,0,0,1-.29.57,3.43,3.43,0,0,1-1.31.16h-.44l-.16-.55.72,0a3,3,0,0,0,.83-.06.2.2,0,0,0,.12-.19V53.7h-2.83v2.93h-.54V53.7h-2.85a6.67,6.67,0,0,1-1,3.15l-.47-.33a6.32,6.32,0,0,0,1-3.6V48.33h7.24Zm-3.9-5.47V48.87h-2.8v1.82Zm0,2.49V51.24h-2.8v1.94ZM178,50.69V48.87h-2.83v1.82Zm0,2.49V51.24h-2.83v1.94Z"/><path d="M183.73,53.1l-.36.4a6.76,6.76,0,0,0-.86-1.25v4.63H182V52.23a13.73,13.73,0,0,1-1.35,2.47l-.35-.41a14,14,0,0,0,1.67-3.2h-1.62v-.5H182V49.11l-1.22.23-.27-.5a10.85,10.85,0,0,0,2.89-.69l.31.46c-.49.17-.89.29-1.19.38v1.6h1.19v.5h-1.19v.41A8.73,8.73,0,0,1,183.73,53.1Zm5.3,3.54H183.4v-.49H186V54.62h-2.22v-.5H186V52.67c-1.07.07-1.73.1-2,.11l-.24-.51a22.13,22.13,0,0,0,4.76-.53l.34.45a23.69,23.69,0,0,1-2.35.42v1.51h2.15v.5H186.5v1.53H189Zm-.64-5.48H184.1V48.43h4.29Zm-.53-.51V48.93h-3.23v1.72Z"/><path d="M199,54.73c-.3,1.5-.72,2.25-1.28,2.25a.74.74,0,0,1-.39-.12,2.65,2.65,0,0,1-.53-.62,5.67,5.67,0,0,1-.62-1.21,8.11,8.11,0,0,1-.4-2c-.09-.88-.16-1.75-.2-2.62h-5.23v-.54h5.19c0-.74,0-1.32,0-1.72h.52c0,.79,0,1.36,0,1.72H199v.54h-2.89c0,.69.11,1.62.25,2.8a5.93,5.93,0,0,0,.72,2.51c.33.51.56.76.68.76s.32-.24.47-.71a6.17,6.17,0,0,0,.29-1.28Zm-3.7.39c-1.62.41-3.14.74-4.56,1l-.13-.52c.54-.09,1.23-.21,2.05-.37v-2.9h-1.77v-.54h4.13v.54H193.2v2.78q1.17-.26,2.13-.51Zm3.23-5.77-.44.3A6,6,0,0,0,197,48.59l.43-.34A5.65,5.65,0,0,1,198.56,49.35Z"/><path d="M100.65,9.53c-.25.13-.56.28-1,.44v3.12a.7.7,0,0,1-.8.79l-.71,0-.14-.52a4.45,4.45,0,0,0,.53,0,1.7,1.7,0,0,0,.54,0,.16.16,0,0,0,.08-.15v-3c-.41.16-.8.3-1.17.41l-.16-.5a12.26,12.26,0,0,0,1.33-.45V7.39H97.88V6.9H99.2V5.12h.5V6.9h.85v.49H99.7v2a6,6,0,0,0,.79-.35Zm6,3.92-.31.45a14.51,14.51,0,0,1-2.54-1.18,10.59,10.59,0,0,1-2.92,1.21l-.4-.41a12.2,12.2,0,0,0,2.84-1.1,5.24,5.24,0,0,1-1.66-1.84h-.39v-.49h4.59v.49a4.83,4.83,0,0,1-1.59,1.84A13.42,13.42,0,0,0,106.63,13.45Zm-.32-3.68h-.5v-1h-4.38v1h-.52V8.23h5.4ZM106,5.56a19,19,0,0,1-4.82.7l-.23-.49a17.88,17.88,0,0,0,4.76-.66Zm-3.75,2.15-.43.23a6,6,0,0,0-.72-1.19l.45-.23A5.61,5.61,0,0,1,102.23,7.71Zm3,2.87h-3a4.58,4.58,0,0,0,1.57,1.52A4.83,4.83,0,0,0,105.25,10.58Zm-1.11-2.85-.46.19a4.64,4.64,0,0,0-.51-1.23l.46-.21A5.27,5.27,0,0,1,104.14,7.73Zm2.08-1.23A6.94,6.94,0,0,1,105.41,8L105,7.71a6.61,6.61,0,0,0,.81-1.43Z" fill="#00b0f0"/><path d="M111,9.45l-.36.41a8.3,8.3,0,0,0-.77-1.06v5.07h-.48V8.81a10.23,10.23,0,0,1-1.15,2.32l-.36-.4a11.26,11.26,0,0,0,1.46-3.19H108V7.07h1.38V5.14h.48V7.07h.9v.47h-.9v.55A10.46,10.46,0,0,1,111,9.45Zm5.62,4H112v.43h-.52V10.55a6.45,6.45,0,0,1-.77.72l-.33-.42a6.29,6.29,0,0,0,1.69-2l.49.18a5.75,5.75,0,0,1-.34.54h1.74a1.73,1.73,0,0,0-.27-.39l.46-.22a4.88,4.88,0,0,1,.4.61h1.86V10h-2.09v.68h1.86v.44h-1.86v.7h1.86v.45h-1.86V13h2.31Zm-3.41-6.69h-.51V6.31h-1.8V5.85h1.8V5.16h.51Zm.2,1.92h-2.16V7h2.16Zm-.46-.44V7.47h-1.24v.76Zm.87,2.41V10H112v.68Zm0,1.14v-.7H112v.7Zm0,1.2v-.75H112V13Zm2.43-4.31H114V7h2.18Zm.35-2.36h-1.77v.44h-.51V5.16h.51v.69h1.77Zm-.81,1.92V7.47h-1.26v.76Z" fill="#00b0f0"/><path d="M121.24,6.11h-1.37a11.59,11.59,0,0,1-.67,2.47H121v4.14h-.54v-.44h-1.1V13h-.52V9.41a8.61,8.61,0,0,1-.58.92l-.39-.4a8.38,8.38,0,0,0,1.53-3.82h-1.31v-.5h3.19Zm-.82,5.68V9.07h-1.1v2.72Zm1.8-.67a10.52,10.52,0,0,1-.59,2.51l-.47-.18a9.78,9.78,0,0,0,.58-2.41Zm4.18-5.26h-2v1h1.68v.48h-1.68v1h1.69v.5h-1.69V10h1.92a22.41,22.41,0,0,1-.12,2.34,3.25,3.25,0,0,1-.26,1.11.75.75,0,0,1-.42.33,4.61,4.61,0,0,1-1.12.1l-.18-.5a5.58,5.58,0,0,0,1,0,.52.52,0,0,0,.26-.19,3.39,3.39,0,0,0,.22-1.22c.06-.72.09-1.2.08-1.45h-4.09V5.39h4.66Zm-2.49,1v-1h-1.65v1Zm0,1.51v-1h-1.65v1Zm0,1.63V8.87h-1.65V10Zm-.63,3.32-.5.08c0-.16,0-.33,0-.5a10.55,10.55,0,0,0-.14-1.67l.47-.06A13.11,13.11,0,0,1,123.28,13.32Zm1.15-.62-.48.18a7.38,7.38,0,0,0-.37-1.62l.45-.11A8.18,8.18,0,0,1,124.43,12.7Zm.93-.4-.45.18a7.29,7.29,0,0,0-.39-1.33l.42-.15A6,6,0,0,1,125.36,12.3Z" fill="#00b0f0"/><path d="M129.82,10.67a17.33,17.33,0,0,1-1.54,3.25l-.44-.36a15.3,15.3,0,0,0,1.49-3.17Zm0-1.52-.37.39a8.91,8.91,0,0,0-1.57-1.32l.32-.41A10.88,10.88,0,0,1,129.79,9.15ZM130,6.47l-.34.42a11,11,0,0,0-1.48-1.38l.34-.41A12.7,12.7,0,0,1,130,6.47Zm1.53,3.21a8.74,8.74,0,0,1-.29,2.65,3.36,3.36,0,0,1-1.28,1.56l-.41-.39a3,3,0,0,0,1-1.07A5.56,5.56,0,0,0,131,9.68Zm5.11-.41-.44.34a8.35,8.35,0,0,0-.6-.81c-2,.23-3.67.39-5.11.5l-.14-.52a5.39,5.39,0,0,0,2-2.1h-2.09V6.16h2.39a9.54,9.54,0,0,0,.47-1.07l.54.14a9.72,9.72,0,0,1-.41.93h3.21v.52H133a6.42,6.42,0,0,1-1.67,2c1.28-.08,2.57-.2,3.87-.35a7.26,7.26,0,0,0-.89-.86l.41-.35A11.81,11.81,0,0,1,136.61,9.27Zm-3.42,4.62h-.52V9.68h.52Zm3.38-.12h-1.32c-.51,0-.76-.23-.76-.71V9.68H135V13q0,.27.3.27h1.27Z" fill="#00b0f0"/><path d="M141.29,10.1l-.37.4a6.31,6.31,0,0,0-.86-1.25v4.63h-.52V9.23a13.39,13.39,0,0,1-1.35,2.47l-.35-.41a13.39,13.39,0,0,0,1.67-3.2h-1.62v-.5h1.65V6.11l-1.22.23-.27-.5a10.13,10.13,0,0,0,2.89-.69l.31.46c-.49.17-.88.3-1.19.38v1.6h1.19v.5h-1.19V8.5A9.4,9.4,0,0,1,141.29,10.1Zm5.29,3.54H141v-.49h2.57V11.62H141.3v-.5h2.22V9.67c-1.07.07-1.73.11-2,.11l-.24-.51a22.3,22.3,0,0,0,4.77-.53l.33.45a23.69,23.69,0,0,1-2.35.42v1.51h2.15v.5h-2.15v1.53h2.53Zm-.64-5.48h-4.29V5.43h4.29Zm-.53-.51V5.93h-3.23V7.65Z" fill="#00b0f0"/></svg>