<svg xmlns="http://www.w3.org/2000/svg" viewBox="0 0 205.55 55.68"><defs><style>.cls-1,.cls-4{fill:#fff;}.cls-1{stroke:#000;stroke-width:0.24px;}.cls-1,.cls-3{stroke-linecap:round;stroke-linejoin:round;}.cls-2,.cls-3{fill:#008bfd;}.cls-3{stroke:gray;stroke-width:0.75px;}.cls-5{fill:#505050;}.cls-6{fill:#00b0f0;}</style></defs><title>OJ104546506</title><g id="shapes"><g id="shape1000-1"><path class="cls-1" d="M16,9.82.12,21.25,6.2,39.73H25.86l6.08-18.48Z"/></g><g id="group1216-3"><g id="group1217-4"><g id="group1218-5"><g id="group1219-6"><g id="shape1220-7"><path class="cls-2" d="M15.7,16.94a4.49,4.49,0,0,0-3,5.66c.66,2.55,3,4.22,5.27,3.67a4.5,4.5,0,0,0,3-5.67C20.42,17.94,18,16.27,15.7,16.94Z"/></g></g><g id="group1221-9"><g id="shape1222-10"><path class="cls-2" d="M20.64,27c-.44,0-.88.78-1.54,1.11s-1.32.89-3.18,0-2.09-1.66-3.63-1.66-4.06,2.77-4.06,6.88H23.82a12.09,12.09,0,0,0-1.1-4.22C21.62,27,21.08,27,20.64,27Z"/></g></g></g></g><g id="group1223-12"><g id="shape1224-13"><path class="cls-3" d="M22.05,22H17.93a.71.71,0,0,0-.65.66v2.85a.72.72,0,0,0,.76.65h.76v5.15a1,1,0,0,0,1,1.1,1,1,0,0,0,1-1H21v-.65c0-.22.33-.33.33-.33v-.33c-.33-.11-.54-.33-.54-.44v-.33l.21-.22a3.55,3.55,0,0,0,.33-.54A2.4,2.4,0,0,1,21,28c-.1-.11-.1-.33-.21-.44v-.22a2.51,2.51,0,0,1,.76-1.1h.54a.7.7,0,0,0,.65-.65v-3A.63.63,0,0,0,22.05,22Zm-2.39,9.53c0,.22,0,.33-.21.33s-.22-.22-.22-.33V26.72c0-.22.11-.33.22-.33s.21.22.21.33ZM20,23.76a.69.69,0,0,1-.65-.65.7.7,0,0,1,.65-.66.71.71,0,0,1,.65.66A.62.62,0,0,1,20,23.76Z"/></g><g id="shape1225-15"><path class="cls-4" d="M19.43,31.85a.24.24,0,0,1-.22-.22v-5a.22.22,0,0,1,.44,0v5.11C19.65,31.85,19.54,31.85,19.43,31.85Z"/></g><g id="shape1226-17"><ellipse class="cls-4" cx="20" cy="23.09" rx="0.66" ry="0.67"/></g></g></g><g id="shape1229-25"><path class="cls-2" d="M77.23,9.3H56.73a1.09,1.09,0,0,0-1.09,1.1V27.14a1.1,1.1,0,0,0,1.09,1.11H62a3.29,3.29,0,0,0,3.21,2.27,3.38,3.38,0,0,0,0-6.75A3.29,3.29,0,0,0,62,26H57.82v-12H76.13V26H72.68a7.61,7.61,0,0,0-7.46-6.56,8.25,8.25,0,0,0-3.64.92l1,2a5.27,5.27,0,0,1,2.55-.67,5.46,5.46,0,0,1,0,10.91,5.27,5.27,0,0,1-2.55-.67l-1,2a7.51,7.51,0,0,0,3.64.92,7.61,7.61,0,0,0,7.46-6.56h4.55a1.1,1.1,0,0,0,1.09-1.11V10.4A1.14,1.14,0,0,0,77.23,9.3Z"/></g><g id="shape1227-19"><path class="cls-2" d="M192.6,8.81H172.1A1.09,1.09,0,0,0,171,9.91V26.65a1.1,1.1,0,0,0,1.09,1.11h5.28A3.29,3.29,0,0,0,180.59,30a3.38,3.38,0,0,0,0-6.75,3.29,3.29,0,0,0-3.21,2.27h-4.19v-12H191.5v12h-3.45A7.61,7.61,0,0,0,180.59,19a8.25,8.25,0,0,0-3.64.92l1,2a5.27,5.27,0,0,1,2.55-.67,5.46,5.46,0,0,1,0,10.91,5.27,5.27,0,0,1-2.55-.67l-1,2a7.51,7.51,0,0,0,3.64.92,7.61,7.61,0,0,0,7.46-6.56h4.55a1.1,1.1,0,0,0,1.09-1.11V9.91A1.14,1.14,0,0,0,192.6,8.81Z"/></g><g id="shape1230-28"><g id="lend5"><path class="cls-5" d="M162.52,17.59l8.06,4-7.94,4a9,9,0,0,0-.06-8"/></g></g></g><g id="text"><path d="M164.32,47.31h-.74l-.65-1.71h-2.6l-.61,1.71H159l2.32-6.05H162ZM162.7,45l-1-2.62a1.86,1.86,0,0,1-.09-.4h0a1.63,1.63,0,0,1-.1.4l-1,2.62Z"/><path d="M165.65,45v2.29H165V41.26h1.64a2.14,2.14,0,0,1,1.48.48,1.64,1.64,0,0,1,.53,1.32A1.82,1.82,0,0,1,168,44.5a2.15,2.15,0,0,1-1.55.52Zm0-3.14V44.4h.75a1.72,1.72,0,0,0,1.14-.34,1.22,1.22,0,0,0,.4-1c0-.82-.48-1.22-1.44-1.22Z"/><path d="M170.21,47.31h-.66V41.26h.66Z"/><path d="M180,41.69h-5.9V44a10.3,10.3,0,0,1-.64,3.77l-.34-.29a9.74,9.74,0,0,0,.58-3.47V41.31h3l-.32-.51.41-.09a2.51,2.51,0,0,1,.36.6H180ZM175.42,46a5.79,5.79,0,0,1-.95,1.54l-.31-.27a4.92,4.92,0,0,0,.87-1.43Zm.44-4a5,5,0,0,1-.49,1.08v2.5H175V43.62a5,5,0,0,1-.5.57l-.26-.31a5.46,5.46,0,0,0,1.29-2.05Zm4,3.51h-3.55v-2c-.13.17-.31.38-.55.64l-.23-.33a7.32,7.32,0,0,0,1.32-2l.36.14a4.48,4.48,0,0,1-.29.58h1.21a3.18,3.18,0,0,0-.31-.55l.39-.11a3.25,3.25,0,0,1,.36.66h1.27v.37h-1.47v.46h1.36v.37h-1.36v.5h1.36v.37h-1.36v.5h1.49Zm-1,1.22a1.48,1.48,0,0,1-.14.61.52.52,0,0,1-.35.28,5.43,5.43,0,0,1-1.17.07,4.45,4.45,0,0,1-.84,0,.44.44,0,0,1-.29-.2.74.74,0,0,1-.11-.43V45.83h.41V47c0,.13,0,.21.11.23a3.49,3.49,0,0,0,.81.05,6.2,6.2,0,0,0,.89,0,.35.35,0,0,0,.21-.17,1.22,1.22,0,0,0,.07-.52ZM178,43.38v-.46h-1.26v.46Zm0,.87v-.5h-1.26v.5Zm0,.87v-.5h-1.26v.5Zm-.08,1.43-.35.22a4.64,4.64,0,0,0-.7-.82l.36-.24A5.43,5.43,0,0,1,177.91,46.55Zm2.17.7-.34.21a8.61,8.61,0,0,0-1-1.42l.35-.21A8.06,8.06,0,0,1,180.08,47.25Z"/><path d="M187.44,47.15a.49.49,0,0,1-.23.45,2.59,2.59,0,0,1-1.05.13h-.35l-.13-.44.58,0a2.37,2.37,0,0,0,.66-.05.16.16,0,0,0,.09-.15V45.18h-2.26v2.34h-.43V45.18H182a5.34,5.34,0,0,1-.83,2.52l-.37-.26a5,5,0,0,0,.81-2.89V40.88h5.79Zm-3.12-4.38V41.31h-2.24v1.46Zm0,2V43.21h-2.24v1.55Zm2.69-2V41.31h-2.26v1.46Zm0,2V43.21h-2.26v1.55Z"/><path d="M191.33,44.7,191,45a5.24,5.24,0,0,0-.69-1v3.7h-.42V44a10.83,10.83,0,0,1-1.07,2l-.28-.33a11.2,11.2,0,0,0,1.33-2.56h-1.3v-.4h1.32V41.51l-1,.18-.22-.4a8.51,8.51,0,0,0,2.32-.55l.24.37-1,.3v1.28h1v.4h-1v.33A6.89,6.89,0,0,1,191.33,44.7Zm4.24,2.83h-4.51v-.39h2.06V45.92h-1.78v-.41h1.78V44.35c-.86.06-1.38.09-1.58.09l-.2-.41a17.16,17.16,0,0,0,3.81-.42l.27.36c-.53.13-1.16.24-1.88.34v1.2h1.72v.41h-1.72v1.22h2Zm-.51-4.38h-3.44V41h3.44Zm-.43-.41V41.36h-2.58v1.38Z"/><path d="M203.33,46c-.24,1.2-.58,1.8-1,1.8a.57.57,0,0,1-.31-.1,1.9,1.9,0,0,1-.42-.49,4.3,4.3,0,0,1-.5-1,7.05,7.05,0,0,1-.32-1.64c-.07-.7-.13-1.4-.16-2.1h-4.18v-.43h4.15c0-.59,0-1,0-1.37H201c0,.63,0,1.09,0,1.37h2.32v.43H201c0,.56.09,1.3.2,2.24a4.85,4.85,0,0,0,.57,2c.27.4.45.6.55.6s.25-.19.38-.57a5.18,5.18,0,0,0,.23-1Zm-3,.31c-1.3.33-2.51.6-3.65.81l-.1-.42,1.64-.3V44.08h-1.42v-.43h3.3v.43h-1.48v2.23c.63-.14,1.2-.27,1.71-.41ZM203,41.7l-.35.24a4.69,4.69,0,0,0-.9-.85l.35-.27A4.52,4.52,0,0,1,203,41.7Z"/><path d="M49.11,47.81h-.74l-.66-1.72H45.12l-.62,1.72h-.74l2.33-6.05h.68Zm-1.63-2.33-1-2.61a2.24,2.24,0,0,1-.09-.4h0a1.92,1.92,0,0,1-.1.4l-1,2.61Z"/><path d="M50.67,45.51v2.3H50V41.76h1.63a2.17,2.17,0,0,1,1.49.47,1.7,1.7,0,0,1,.53,1.33A1.79,1.79,0,0,1,53,45a2.14,2.14,0,0,1-1.55.52Zm0-3.14v2.52h.76a1.67,1.67,0,0,0,1.14-.34,1.2,1.2,0,0,0,.39-1c0-.81-.48-1.22-1.44-1.22Z"/><path d="M55.48,47.81h-.66V41.76h.66Z"/><path d="M65.7,42.18H59.8v2.31a10.38,10.38,0,0,1-.63,3.77L58.82,48a9.62,9.62,0,0,0,.58-3.48V41.81h3l-.33-.51.42-.1a3.17,3.17,0,0,1,.36.61H65.7Zm-4.54,4.31A5.87,5.87,0,0,1,60.22,48l-.31-.27a4.79,4.79,0,0,0,.87-1.43Zm.45-4a5,5,0,0,1-.5,1.08v2.51h-.39V44.11c-.11.15-.28.34-.5.58L60,44.37a5.55,5.55,0,0,0,1.3-2Zm4,3.51H62.07V44l-.55.65-.24-.34a7.19,7.19,0,0,0,1.33-2l.35.13a4.37,4.37,0,0,1-.28.58h1.2a3.71,3.71,0,0,0-.3-.55l.39-.11a3.28,3.28,0,0,1,.35.66h1.27v.37H64.12v.46h1.36v.37H64.12v.5h1.36v.37H64.12v.5h1.5Zm-1,1.22a1.72,1.72,0,0,1-.14.62.56.56,0,0,1-.35.27,5.48,5.48,0,0,1-1.18.07,4.6,4.6,0,0,1-.84,0,.48.48,0,0,1-.29-.19.78.78,0,0,1-.1-.44V46.32h.4v1.17c0,.13,0,.21.11.24a5,5,0,0,0,.81,0,4.83,4.83,0,0,0,.89,0,.28.28,0,0,0,.21-.17,1.18,1.18,0,0,0,.08-.52Zm-.85-3.32v-.46H62.47v.46Zm0,.87v-.5H62.47v.5Zm0,.87v-.5H62.47v.5ZM63.66,47l-.35.22a4.64,4.64,0,0,0-.7-.82l.35-.23A5.37,5.37,0,0,1,63.66,47Zm2.16.7-.34.21a7.54,7.54,0,0,0-1-1.42l.35-.21A8.06,8.06,0,0,1,65.82,47.74Z"/><path d="M73.43,47.64a.47.47,0,0,1-.24.45,2.5,2.5,0,0,1-1,.13h-.36l-.13-.43.58,0a2.52,2.52,0,0,0,.67,0A.16.16,0,0,0,73,47.6V45.67H70.74V48h-.43V45.67H68a5.26,5.26,0,0,1-.82,2.52l-.38-.26a5,5,0,0,0,.81-2.88V41.37h5.8Zm-3.12-4.38V41.81H68.07v1.45Zm0,2V43.7H68.07v1.56Zm2.69-2V41.81H70.74v1.45Zm0,2V43.7H70.74v1.56Z"/><path d="M77.56,45.19l-.29.32a6.34,6.34,0,0,0-.69-1v3.7h-.42V44.49a11.42,11.42,0,0,1-1.08,2l-.28-.33a11,11,0,0,0,1.34-2.56h-1.3v-.4h1.32V42l-1,.18-.21-.4a8.52,8.52,0,0,0,2.31-.55l.25.37-1,.3v1.28h1v.4h-1v.33A7.37,7.37,0,0,1,77.56,45.19ZM81.79,48h-4.5v-.39h2V46.41H77.57V46h1.77V44.85l-1.58.09-.19-.41a17.88,17.88,0,0,0,3.81-.43l.27.36c-.54.13-1.16.24-1.88.34V46h1.72v.4H79.77v1.22h2Zm-.51-4.38H77.85V41.46h3.43Zm-.42-.41V41.85H78.27v1.38Z"/><path d="M89.79,46.49c-.23,1.2-.57,1.81-1,1.81a.63.63,0,0,1-.31-.1,2.08,2.08,0,0,1-.43-.49,5.15,5.15,0,0,1-.49-1,7,7,0,0,1-.33-1.63q-.1-1.06-.15-2.1H82.88v-.43H87c0-.6,0-1.06,0-1.38h.42c0,.63,0,1.09,0,1.38h2.33V43H87.46c0,.55.08,1.3.2,2.23a4.85,4.85,0,0,0,.57,2c.27.4.45.61.54.61s.26-.2.38-.58a4.62,4.62,0,0,0,.24-1Zm-3,.32c-1.29.32-2.51.59-3.65.8l-.1-.42,1.64-.29V44.58H83.31v-.44h3.3v.44H85.13V46.8c.62-.13,1.19-.27,1.7-.41Zm2.59-4.62-.35.24a4.69,4.69,0,0,0-.9-.85l.34-.27A4.53,4.53,0,0,1,89.42,42.19Z"/><path class="cls-6" d="M103.55,6.9c-.08.21-.19.48-.34.79l-.22.47v5.63h-.43V9a7.72,7.72,0,0,1-.91,1.32l-.24-.39a11.5,11.5,0,0,0,1.72-3.15Zm4.89,2.25-2.87.29a7.42,7.42,0,0,0,.41,2.31,3.09,3.09,0,0,0,.84,1.28,1.54,1.54,0,0,0,.66.39.18.18,0,0,0,.14-.06,2.65,2.65,0,0,0,.17-.58,5,5,0,0,0,.11-1l.43.18a5.69,5.69,0,0,1-.18,1.13,1.34,1.34,0,0,1-.27.63.48.48,0,0,1-.35.13,1.7,1.7,0,0,1-1-.49,3.47,3.47,0,0,1-1-1.46,8.41,8.41,0,0,1-.45-2.41l-1.71.18,0-.44,1.72-.17c0-.7-.07-1.3-.07-1.78,0-.17,0-.33,0-.49h.42c0,.87,0,1.61.06,2.23l2.87-.28Zm-.68-.93-.36.21a6.18,6.18,0,0,0-1.09-1.23l.36-.22A4.18,4.18,0,0,1,107.76,8.22Z"/><path class="cls-6" d="M111.85,11.88c-.57.33-1.33.73-2.26,1.2l-.18-.35c.49-.24.86-.43,1.12-.58V9.94h-.93V9.55h.93V7.72h-1.06V7.34h2.38v.38h-.93V9.55h.84v.39h-.84v2a7.67,7.67,0,0,0,.87-.48Zm4.6,1.74h-4.61v-.39h2.09V12.09h-1.78v-.4h1.78v-1h-1.72V7h3.87V10.7h-1.74v1h1.84v.4h-1.84v1.14h2.11Zm-2.52-5V7.38h-1.31V8.63Zm0,1.67V9h-1.31V10.3Zm1.74-1.67V7.38h-1.33V8.63Zm0,1.67V9h-1.33V10.3Z"/><path class="cls-6" d="M124.43,9.54h-2.66a9.37,9.37,0,0,1-1.37.94h3.11v3.29h-.42v-.41h-3.58v.41h-.42V11.12c-.35.15-.81.32-1.38.5l-.24-.37a12,12,0,0,0,3.62-1.71H117.5v-.4h3V8h-2.24V7.6h2.24V6.75h.43V7.6h1.62V8h-1.62V9.14h.72a15.35,15.35,0,0,0,2-2l.31.25a15,15,0,0,1-1.67,1.78h2.18Zm-1.34,2.19v-.85h-3.46l-.12,0v.8Zm0,1.22v-.82h-3.58V13Z"/><path class="cls-6" d="M127,11.22a13.82,13.82,0,0,1-1.23,2.6l-.35-.29A11.74,11.74,0,0,0,126.63,11ZM127,10l-.29.31a7.36,7.36,0,0,0-1.26-1.06l.26-.32A8.92,8.92,0,0,1,127,10Zm.15-2.14-.28.33a8.15,8.15,0,0,0-1.18-1.1l.27-.33A9.3,9.3,0,0,1,127.15,7.86Zm1.22,2.56a6.94,6.94,0,0,1-.24,2.12,2.55,2.55,0,0,1-1,1.25l-.33-.31a2.44,2.44,0,0,0,.82-.86,4.59,4.59,0,0,0,.34-2.2Zm4.09-.33-.35.28a6,6,0,0,0-.48-.65c-1.58.18-2.94.31-4.1.4l-.1-.42A4.29,4.29,0,0,0,129,8h-1.67V7.61h1.91c.1-.2.23-.48.38-.86l.43.11c-.05.14-.16.38-.33.75h2.57V8h-2.78a5.21,5.21,0,0,1-1.34,1.63c1-.07,2.06-.16,3.1-.28a6.6,6.6,0,0,0-.71-.69l.32-.28A9.66,9.66,0,0,1,132.46,10.09Zm-2.74,3.7h-.41V10.42h.41Zm2.71-.09h-1.06c-.41,0-.61-.19-.61-.57V10.42h.41v2.65c0,.14.08.22.24.22h1Z"/><path class="cls-6" d="M136.2,10.76l-.29.32a5.74,5.74,0,0,0-.69-1v3.7h-.42V10.06a10.78,10.78,0,0,1-1.08,2l-.28-.33a10.83,10.83,0,0,0,1.34-2.56h-1.3v-.4h1.32V7.57l-1,.18-.22-.4a8.52,8.52,0,0,0,2.31-.55l.25.37-.95.3V8.75h.95v.4h-.95v.33A7.37,7.37,0,0,1,136.2,10.76Zm4.24,2.83h-4.51V13.2H138V12h-1.78v-.41H138V10.41q-1.29.09-1.59.09l-.19-.41A17.31,17.31,0,0,0,140,9.67l.27.36c-.54.13-1.16.24-1.88.34v1.2h1.72V12h-1.72V13.2h2Zm-.52-4.38h-3.43V7h3.43Zm-.42-.41V7.42h-2.58V8.8Z"/><rect class="cls-5" x="78.32" y="20.68" width="85.23" height="1.75"/></g></svg>