<?xml version="1.0" encoding="utf-8"?>
<!-- Generator: Adobe Illustrator 23.0.1, SVG Export Plug-In . SVG Version: 6.00 Build 0)  -->
<svg version="1.1" xmlns="http://www.w3.org/2000/svg" xmlns:xlink="http://www.w3.org/1999/xlink" x="0px" y="0px"
	 viewBox="0 0 475.7 150.2" style="enable-background:new 0 0 475.7 150.2;" xml:space="preserve">
<style type="text/css">
	.st0{fill:#505050;}
	.st1{fill:#FFFFFF;}
	.st2{display:none;}
	.st3{display:inline;}
	.st4{fill:#EBEBEB;}
	.st5{fill:#0072C6;}
	.st6{fill:#D2D2D2;}
	.st7{fill:none;stroke:#000000;stroke-miterlimit:10;}
	.st8{fill:#1A1A1F;}
	.st9{fill:#0078D4;}
	.st10{fill:#EBEBEB;stroke:#000000;stroke-width:0.75;stroke-miterlimit:10;}
	.st11{fill:#1E1E1E;}
	.st12{fill:none;}
	.st13{stroke:#000000;stroke-width:5.000000e-02;stroke-miterlimit:10;}
	.st14{fill:#1E1E1E;stroke:#1E1E1E;stroke-width:6.000000e-02;stroke-miterlimit:10;}
	.st15{fill:#FFFFFF;stroke:#FFFFFF;stroke-width:5.000000e-02;stroke-miterlimit:10;}
	.st16{fill:#0072C6;stroke:#0072C6;stroke-width:5.000000e-02;stroke-miterlimit:10;}
</style>
<symbol  id="New_Symbol_41" viewBox="-10 -10 20 20">
	<circle class="st0" cx="0" cy="0" r="10"/>
	<path class="st1" d="M1.2-4.2v8.6h-1.4v-6.9C-0.4-2.3-0.7-2.1-1-2c-0.3,0.1-0.7,0.2-1,0.3v-1.2l0.6-0.2l0.6-0.3l0.6-0.3
		C0.1-3.9,0.4-4,0.6-4.2H1.2z"/>
</symbol>
<symbol  id="New_Symbol_42" viewBox="-10 -10 20 20">
	<circle class="st0" cx="0" cy="0" r="10"/>
	<path class="st1" d="M2.5,4.4h-5.3V3.8c0-0.3,0-0.5,0.1-0.8c0.1-0.2,0.2-0.4,0.3-0.7c0.1-0.2,0.3-0.4,0.4-0.6
		c0.2-0.2,0.4-0.4,0.5-0.5l0.6-0.5c0.2-0.1,0.4-0.3,0.6-0.5S0.1,0,0.3-0.2c0.1-0.1,0.3-0.3,0.4-0.4C0.8-0.8,0.9-1,0.9-1.1
		C1-1.3,1-1.5,1-1.7c0-0.2,0-0.4-0.1-0.6C0.8-2.4,0.7-2.6,0.6-2.7C0.5-2.8,0.3-2.9,0.2-2.9C0-3-0.2-3-0.4-3c-0.4,0-0.7,0.1-1.1,0.2
		c-0.4,0.2-0.7,0.4-1,0.7v-1.3c0.2-0.1,0.3-0.2,0.5-0.3c0.2-0.1,0.4-0.2,0.6-0.2C-1.2-4-1-4-0.8-4.1c0.2,0,0.4,0,0.7,0
		c0.3,0,0.7,0,1,0.1c0.3,0.1,0.6,0.2,0.8,0.4C1.9-3.3,2.1-3,2.2-2.8c0.1,0.3,0.2,0.7,0.2,1c0,0.3,0,0.6-0.1,0.9
		C2.2-0.6,2-0.3,1.9-0.1C1.7,0.2,1.5,0.4,1.3,0.6C1.1,0.8,0.9,1,0.6,1.2l-0.7,0.5c-0.2,0.2-0.4,0.4-0.6,0.5C-0.8,2.4-1,2.6-1.1,2.8
		c-0.1,0.1-0.2,0.3-0.2,0.5l0,0h3.8V4.4z"/>
</symbol>
<symbol  id="New_Symbol_43" viewBox="-10 -10 20 20">
	<circle class="st0" cx="0" cy="0" r="10"/>
	<path class="st1" d="M-2.6,4.1V2.8c0.5,0.4,1.2,0.7,1.8,0.6c0.5,0,0.9-0.1,1.3-0.4c0.3-0.2,0.5-0.6,0.5-1c0-0.9-0.7-1.4-2.2-1.4
		h-0.7v-1.1h0.6c1.3,0,1.9-0.4,1.9-1.4S0.3-3-0.7-3c-0.6,0-1.1,0.2-1.6,0.6v-1.2C-1.7-4-1-4.1-0.3-4.1c0.6,0,1.3,0.2,1.8,0.6
		c0.4,0.3,0.7,0.9,0.7,1.4c0.1,1-0.7,1.9-1.7,2.1l0,0c0.5,0,1,0.3,1.4,0.6C2.3,1,2.5,1.5,2.5,2.1c0,0.7-0.3,1.4-0.9,1.8
		C1,4.4,0.2,4.6-0.6,4.6C-1.3,4.6-2,4.5-2.6,4.1z"/>
</symbol>
<symbol  id="New_Symbol_44" viewBox="-10 -10 20 20">
	<circle class="st0" cx="0" cy="0" r="10"/>
	<path class="st1" d="M2-4v5.4h1.3v1.1H2v1.9H0.6V2.6h-3.8V1.4c0.3-0.4,0.7-0.8,1-1.3c0.4-0.4,0.7-0.9,1-1.4s0.6-0.9,0.9-1.4
		S0.4-3.5,0.6-4L2-4z M0.7,1.4v-3.5c-0.4,0.7-0.8,1.4-1.3,2C-1,0.5-1.4,1-1.8,1.4L0.7,1.4z"/>
</symbol>
<g id="src" class="st2">
	<g id="Shapes" class="st3">
		<rect class="st1" width="475.7" height="150.2"/>
		<rect y="0.2" class="st4" width="105" height="150"/>
		<rect x="371" y="0.2" class="st5" width="104.7" height="90"/>
		<rect x="371" y="95.2" class="st6" width="104.7" height="55"/>
		<g>
			<line class="st7" x1="105" y1="15.2" x2="365.6" y2="15.2"/>
			<polygon points="364.5,18.9 371,15.2 364.5,11.5 			"/>
		</g>
		<g>
			<line class="st7" x1="110.4" y1="45.1" x2="371" y2="45.1"/>
			<polygon points="111.5,48.8 105,45.1 111.5,41.3 			"/>
		</g>
		<g>
			<line class="st7" x1="105" y1="105.4" x2="365.6" y2="105.4"/>
			<polygon points="364.5,109.1 371,105.4 364.5,101.6 			"/>
		</g>
		<g>
			<line class="st7" x1="110.4" y1="140.7" x2="371" y2="140.7"/>
			<polygon points="111.5,144.4 105.1,140.7 111.5,136.9 			"/>
		</g>
		
			<use xlink:href="#New_Symbol_44"  width="20" height="20" x="-10" y="-10" transform="matrix(1 0 0 1 168.88 140.2)" style="overflow:visible;"/>
		
			<use xlink:href="#New_Symbol_43"  width="20" height="20" x="-10" y="-10" transform="matrix(1 0 0 1 168.88 105.36)" style="overflow:visible;"/>
		
			<use xlink:href="#New_Symbol_42"  width="20" height="20" x="-10" y="-10" transform="matrix(1 0 0 1 168.88 45.08)" style="overflow:visible;"/>
		
			<use xlink:href="#New_Symbol_41"  width="20" height="20" x="-10" y="-10" transform="matrix(1 0 0 1 168.88 15.2)" style="overflow:visible;"/>
		<g>
			<g>
				<path class="st8" d="M19.5,28.7c0-0.8,0.7-1.5,1.5-1.5c0,0,0,0,0,0h62.9c0.8,0,1.5,0.7,1.5,1.5c0,0,0,0,0,0v37.2
					c0,0.8-0.7,1.5-1.5,1.5c0,0,0,0,0,0H21.1c-0.8,0-1.5-0.7-1.5-1.5c0,0,0,0,0,0L19.5,28.7z M16.1,26.9v40.7c0,1.8,1.5,3.3,3.3,3.3
					l0,0h66.3c1.8,0,3.3-1.4,3.3-3.2c0,0,0,0,0-0.1V26.9c0-1.8-1.5-3.3-3.3-3.3c0,0,0,0,0,0H19.3C17.5,23.6,16,25.1,16.1,26.9
					C16,26.9,16,26.9,16.1,26.9z"/>
				<path class="st8" d="M13.4,74.4h78.3c0.5,0,0.9,0.4,0.9,0.9c0,0,0,0,0,0v2.6c0,0.5-0.4,0.9-0.9,0.9h0H13.4
					c-0.5,0-0.9-0.4-0.9-0.9l0,0v-2.6C12.5,74.8,12.9,74.4,13.4,74.4C13.4,74.4,13.4,74.4,13.4,74.4z"/>
				<path class="st1" d="M43.6,75.9h17.9c0.1,0,0.3,0.1,0.3,0.3v0.7c0,0.1-0.1,0.3-0.3,0.3H43.6c-0.1,0-0.3-0.1-0.3-0.3v-0.7
					C43.3,76,43.4,75.9,43.6,75.9z"/>
			</g>
			<path class="st9" d="M37,36.3l12.7-1.7v12.2L37,46.8V36.3z M49.7,48.2v12.2L37,58.6V48.1L49.7,48.2z M51.2,34.3L68,31.9v14.7
				l-16.8,0.1V34.3z M68,48.3v14.6l-16.8-2.4V48.2L68,48.3z"/>
		</g>
		<polygon class="st10" points="192.6,26.2 185,31.6 187.9,40.5 197.2,40.5 200.1,31.6 		"/>
	</g>
	<g id="Text" class="st3">
		<g>
			<path class="st11" d="M38.3,90.3l-2.2,8.4H34l-1.4-5.4c-0.1-0.3-0.1-0.6-0.1-0.9l0,0c0,0.3-0.1,0.6-0.2,0.9l-1.4,5.4h-2.2
				l-2.2-8.4h2.1l1.2,5.6c0.1,0.3,0.1,0.7,0.1,1l0,0c0-0.3,0.1-0.7,0.2-1l1.5-5.6h2l1.5,5.6c0.1,0.3,0.1,0.6,0.1,0.9l0,0
				c0-0.3,0.1-0.6,0.1-0.9l1.2-5.6H38.3z"/>
			<path class="st11" d="M40.2,91.8c-0.3,0-0.6-0.1-0.8-0.3c-0.2-0.2-0.3-0.4-0.3-0.7c0-0.3,0.1-0.5,0.3-0.7
				c0.2-0.2,0.5-0.3,0.8-0.3c0.3,0,0.6,0.1,0.8,0.3c0.2,0.2,0.3,0.4,0.3,0.7c0,0.3-0.1,0.5-0.3,0.7C40.7,91.7,40.5,91.8,40.2,91.8z
				 M41.1,98.8h-1.8v-6h1.8V98.8z"/>
			<path class="st11" d="M48.4,98.7h-1.8v-3.3c0-0.9-0.3-1.4-1-1.4c-0.3,0-0.6,0.1-0.8,0.4c-0.2,0.3-0.3,0.6-0.3,0.9v3.4h-1.8v-6
				h1.8v1l0,0c0.4-0.7,1.1-1.1,1.9-1.1c1.3,0,2,0.8,2,2.5L48.4,98.7z"/>
			<path class="st11" d="M55.8,98.7H54v-0.8l0,0c-0.4,0.6-1.1,1-1.9,1c-0.7,0-1.4-0.3-1.8-0.8c-0.5-0.6-0.7-1.4-0.7-2.2
				c0-0.9,0.2-1.7,0.8-2.4c0.5-0.6,1.2-0.9,2-0.9c0.7-0.1,1.3,0.3,1.6,0.8l0,0v-3.6h1.8V98.7z M54,95.8v-0.4c0-0.4-0.1-0.7-0.3-1
				c-0.2-0.3-0.5-0.4-0.9-0.4c-0.4,0-0.8,0.2-1,0.5c-0.2,0.4-0.4,0.9-0.3,1.3c0,0.4,0.1,0.9,0.4,1.3c0.2,0.3,0.6,0.4,0.9,0.4
				c0.4,0,0.7-0.2,0.9-0.4C53.9,96.6,54,96.2,54,95.8z"/>
			<path class="st11" d="M60.2,98.8c-0.9,0-1.7-0.3-2.4-0.8c-1.2-1.3-1.2-3.3,0-4.6c0.7-0.6,1.5-0.9,2.4-0.8
				c0.9-0.1,1.7,0.3,2.3,0.8c0.6,0.6,0.9,1.4,0.8,2.2c0.1,0.9-0.2,1.7-0.8,2.4C62,98.6,61.1,98.9,60.2,98.8z M60.2,94
				c-0.4,0-0.8,0.2-1,0.4c-0.3,0.4-0.4,0.8-0.4,1.3c0,1.2,0.5,1.7,1.4,1.7s1.3-0.6,1.3-1.8S61.2,94,60.2,94L60.2,94z"/>
			<path class="st11" d="M73.3,92.7l-1.7,6h-2l-0.9-3.5c-0.1-0.3-0.1-0.5-0.1-0.8l0,0c0,0.2-0.1,0.5-0.1,0.7l-0.9,3.5h-1.9l-1.7-6
				h1.9l0.8,3.9c0,0.2,0.1,0.4,0.1,0.7l0,0c0-0.2,0-0.5,0.1-0.7l1-3.9h1.8l0.9,3.9c0,0.2,0.1,0.5,0.1,0.7l0,0c0-0.2,0-0.5,0.1-0.7
				l0.8-3.9H73.3z"/>
			<path class="st11" d="M73.7,98.5V97c0.3,0.2,0.6,0.3,0.9,0.4c0.3,0.1,0.6,0.1,0.9,0.1c0.3,0,0.5,0,0.8-0.1
				c0.2-0.1,0.3-0.2,0.3-0.4c0-0.1,0-0.2-0.1-0.3c-0.1-0.1-0.2-0.2-0.3-0.2c-0.1-0.1-0.3-0.1-0.4-0.2c-0.2,0-0.3-0.1-0.5-0.2
				c-0.2-0.1-0.4-0.2-0.6-0.3c-0.2-0.1-0.3-0.2-0.5-0.4c-0.1-0.1-0.2-0.3-0.3-0.5c-0.1-0.2-0.1-0.4-0.1-0.6c0-0.3,0.1-0.6,0.3-0.8
				c0.1-0.2,0.4-0.4,0.6-0.6c0.3-0.2,0.5-0.3,0.8-0.3c0.3-0.1,0.7-0.1,1-0.1c0.3,0,0.5,0,0.8,0.1c0.3,0,0.5,0.1,0.8,0.2v1.4
				c-0.2-0.1-0.5-0.2-0.8-0.3c-0.3-0.1-0.5-0.1-0.8-0.1c-0.1,0-0.2,0-0.3,0c-0.1,0-0.2,0-0.3,0.1c-0.1,0-0.1,0.1-0.2,0.2
				c-0.1,0.1-0.1,0.4,0,0.5c0.1,0.1,0.2,0.2,0.3,0.2l0.4,0.2l0.4,0.1c0.2,0.1,0.5,0.2,0.7,0.3c0.2,0.1,0.4,0.2,0.5,0.4
				c0.1,0.1,0.3,0.3,0.3,0.5c0.1,0.2,0.1,0.4,0.1,0.7c0,0.3-0.1,0.6-0.2,0.9c-0.2,0.3-0.4,0.5-0.6,0.6c-0.3,0.2-0.6,0.3-0.9,0.3
				c-0.3,0.1-0.7,0.1-1,0.1C75,98.8,74.3,98.8,73.7,98.5z"/>
			<path class="st11" d="M16.5,113.1v-8.4h3c3,0,4.5,1.4,4.5,4.1c0.1,1.2-0.4,2.3-1.2,3.1c-0.9,0.8-2.1,1.2-3.3,1.2L16.5,113.1z
				 M18.4,106.2v5.3h0.9c0.7,0,1.4-0.2,1.9-0.7c0.5-0.5,0.7-1.3,0.7-2c0-0.7-0.2-1.4-0.7-1.9c-0.5-0.5-1.2-0.7-2-0.7L18.4,106.2z"/>
			<path class="st11" d="M30.6,110.6h-3.9c0.1,0.9,0.6,1.3,1.6,1.3c0.6,0,1.2-0.2,1.7-0.5v1.3c-0.7,0.3-1.4,0.5-2.2,0.4
				c-0.8,0.1-1.7-0.2-2.3-0.8c-0.6-0.6-0.9-1.4-0.8-2.2c0-0.9,0.3-1.7,0.9-2.4c0.6-0.6,1.3-0.9,2.1-0.9c0.7,0,1.5,0.2,2,0.8
				c0.5,0.6,0.8,1.3,0.7,2.1L30.6,110.6z M28.9,109.5c0-0.9-0.4-1.3-1-1.3c-0.3,0-0.6,0.1-0.8,0.4c-0.2,0.3-0.4,0.6-0.4,0.9H28.9z"
				/>
			<path class="st11" d="M31.4,112.9v-1.5c0.3,0.2,0.6,0.3,0.9,0.4c0.3,0.1,0.6,0.1,0.9,0.1c0.3,0,0.5,0,0.8-0.1
				c0.2-0.1,0.3-0.2,0.3-0.4c0-0.1,0-0.2-0.1-0.3c-0.1-0.1-0.2-0.2-0.3-0.2c-0.1-0.1-0.3-0.1-0.4-0.2c-0.2-0.1-0.3-0.1-0.5-0.2
				c-0.2-0.1-0.4-0.2-0.6-0.3c-0.2-0.1-0.3-0.2-0.5-0.4c-0.1-0.1-0.2-0.3-0.3-0.5c-0.1-0.2-0.1-0.4-0.1-0.6c0-0.3,0.1-0.6,0.2-0.9
				c0.1-0.2,0.4-0.4,0.6-0.6c0.3-0.2,0.5-0.3,0.8-0.3c0.3-0.1,0.7-0.1,1-0.1c0.3,0,0.5,0,0.8,0.1c0.3,0,0.5,0.1,0.8,0.2v1.4
				c-0.2-0.1-0.5-0.2-0.8-0.3c-0.3-0.1-0.5-0.1-0.8-0.1c-0.1,0-0.2,0-0.3,0c-0.1,0-0.2,0-0.3,0.1c-0.1,0-0.1,0.1-0.2,0.2
				c0,0.1-0.1,0.1-0.1,0.2c0,0.1,0,0.2,0.1,0.3c0.1,0.1,0.2,0.2,0.3,0.2l0.4,0.2l0.4,0.1c0.2,0.1,0.5,0.2,0.7,0.3
				c0.2,0.1,0.4,0.2,0.5,0.4c0.1,0.1,0.3,0.3,0.3,0.5c0.2,0.5,0.2,1.1-0.1,1.6c-0.1,0.3-0.4,0.5-0.6,0.6c-0.3,0.2-0.6,0.3-0.9,0.3
				c-0.3,0.1-0.7,0.1-1,0.1C32.7,113.2,32,113.1,31.4,112.9z"/>
			<path class="st11" d="M43.2,113.1H41l-1.9-3l0,0v3h-1.9v-8.9H39v5.7l0,0l1.8-2.8H43l-2.2,2.8L43.2,113.1z"/>
			<path class="st11" d="M47.8,113c-0.4,0.2-0.8,0.2-1.2,0.2c-1,0.1-1.9-0.5-2-1.5c0-0.2,0-0.3,0-0.5v-2.8h-1v-1.4h1v-1.3l1.8-0.5
				v1.8h1.3v1.4h-1.3v2.4c0,0.6,0.3,0.9,0.7,0.9c0.2,0,0.4-0.1,0.6-0.2V113z"/>
			<path class="st11" d="M51.7,113.3c-0.9,0-1.7-0.3-2.4-0.8c-1.2-1.3-1.2-3.3,0-4.6c0.7-0.6,1.5-0.9,2.4-0.8
				c0.9-0.1,1.7,0.3,2.3,0.8c0.6,0.6,0.9,1.4,0.8,2.2c0,0.9-0.3,1.7-0.9,2.4C53.4,113,52.5,113.3,51.7,113.3z M51.7,108.4
				c-0.4,0-0.8,0.2-1,0.5c-0.3,0.4-0.4,0.8-0.4,1.3c0,1.2,0.5,1.7,1.4,1.7s1.3-0.6,1.3-1.8S52.6,108.4,51.7,108.4z"/>
			<path class="st11" d="M58,112.4L58,112.4v3.4h-1.9v-8.8H58v0.9l0,0c0.4-0.7,1.2-1,1.9-1c0.7,0,1.4,0.3,1.8,0.8
				c0.5,0.6,0.7,1.4,0.6,2.2c0,0.9-0.2,1.7-0.7,2.4c-0.5,0.6-1.2,0.9-2,0.9C59,113.3,58.3,113,58,112.4z M58,109.9v0.5
				c0,0.4,0.1,0.7,0.3,1c0.2,0.3,0.5,0.4,0.9,0.4c0.4,0,0.8-0.2,1-0.5c0.3-0.4,0.4-0.9,0.3-1.4c0-1.1-0.4-1.6-1.2-1.6
				c-0.4,0-0.7,0.2-0.9,0.4C58.1,109.1,58,109.5,58,109.9z"/>
			<path class="st11" d="M74.4,113.1h-2.1l-0.6-1.9h-3l-0.6,1.9h-2l3.1-8.4h2.2L74.4,113.1z M71.4,109.8l-0.9-2.8
				c-0.1-0.2-0.1-0.5-0.1-0.8l0,0c0,0.2-0.1,0.5-0.2,0.7l-0.9,2.8L71.4,109.8z"/>
			<path class="st11" d="M77.2,112.4L77.2,112.4v3.4h-1.9v-8.8h1.8v0.9l0,0c0.4-0.7,1.2-1,1.9-1c0.7,0,1.4,0.3,1.8,0.8
				c0.5,0.6,0.7,1.4,0.6,2.2c0,0.9-0.2,1.7-0.7,2.4c-0.5,0.6-1.2,0.9-2,0.9C78.1,113.3,77.5,113,77.2,112.4z M77.2,109.9v0.5
				c0,0.4,0.1,0.7,0.3,1c0.2,0.3,0.5,0.4,0.9,0.4c0.4,0,0.8-0.2,1-0.5c0.3-0.4,0.4-0.9,0.3-1.4c0-1.1-0.4-1.6-1.2-1.6
				c-0.4,0-0.7,0.2-0.9,0.4C77.3,109.1,77.1,109.5,77.2,109.9L77.2,109.9z"/>
			<path class="st11" d="M84.7,112.4L84.7,112.4v3.4h-1.9v-8.8h1.8v0.9l0,0c0.7-1.1,2.2-1.4,3.3-0.6c0.2,0.1,0.3,0.2,0.5,0.4
				c0.5,0.6,0.7,1.4,0.6,2.2c0,0.9-0.2,1.7-0.7,2.4c-0.5,0.6-1.2,0.9-2,0.9C85.6,113.3,85,112.9,84.7,112.4z M84.6,109.9v0.5
				c0,0.4,0.1,0.7,0.3,1c0.2,0.3,0.5,0.4,0.9,0.4c0.4,0,0.8-0.2,1-0.5c0.3-0.4,0.4-0.9,0.3-1.4c0-1.1-0.4-1.6-1.2-1.6
				c-0.4,0-0.7,0.2-0.9,0.4C84.7,109.1,84.6,109.5,84.6,109.9z"/>
		</g>
		<g>
			<path class="st11" d="M192.2,10.2h-1.1l-0.9-2.3h-3.6l-0.8,2.3h-1.1l3.2-8.4h1L192.2,10.2z M189.9,7l-1.3-3.6
				c-0.1-0.2-0.1-0.4-0.1-0.6l0,0c0,0.2-0.1,0.4-0.1,0.6L186.9,7H189.9z"/>
			<path class="st11" d="M197.2,9.9c-0.5,0.3-1.1,0.4-1.6,0.4c-0.8,0-1.5-0.3-2.1-0.8c-0.5-0.6-0.8-1.4-0.8-2.2
				c0-0.9,0.3-1.7,0.9-2.3c0.6-0.6,1.4-0.9,2.3-0.9c0.5,0,1,0.1,1.4,0.3v1c-0.4-0.3-0.9-0.5-1.4-0.5c-0.6,0-1.1,0.2-1.5,0.7
				c-0.4,0.5-0.6,1.1-0.6,1.7c0,0.6,0.2,1.2,0.6,1.7c0.4,0.4,0.9,0.6,1.5,0.6c0.5,0,1.1-0.2,1.5-0.6V9.9z"/>
			<path class="st11" d="M203.7,13h-1V9.2l0,0c-0.4,0.8-1.2,1.2-2.1,1.2c-0.7,0-1.4-0.3-1.8-0.8c-0.5-0.6-0.7-1.4-0.7-2.2
				c0-0.8,0.2-1.7,0.8-2.3c0.5-0.6,1.2-0.9,2-0.9c0.7,0,1.4,0.3,1.8,1l0,0V4.2h1V13z M202.7,7.5V6.6c0-0.5-0.2-0.9-0.5-1.3
				c-0.7-0.7-1.8-0.7-2.5,0c0,0-0.1,0.1-0.1,0.1c-0.4,0.5-0.5,1.2-0.5,1.8c0,0.6,0.1,1.2,0.5,1.6c0.3,0.4,0.8,0.6,1.3,0.6
				c0.5,0,1-0.1,1.4-0.5C202.6,8.6,202.8,8,202.7,7.5L202.7,7.5z"/>
			<path class="st11" d="M210.4,10.2h-1V9.3l0,0c-0.4,0.7-1.1,1.1-1.9,1.1c-1.4,0-2.1-0.9-2.1-2.6V4.2h0.9v3.4
				c0,1.3,0.5,1.9,1.5,1.9c0.5,0,0.9-0.2,1.2-0.5c0.3-0.4,0.5-0.9,0.4-1.3V4.2h1L210.4,10.2z"/>
			<path class="st11" d="M212.7,2.7c-0.2,0-0.3-0.1-0.4-0.2c-0.1-0.1-0.2-0.3-0.2-0.4c0-0.2,0.1-0.3,0.2-0.5
				c0.1-0.1,0.3-0.2,0.4-0.2c0.2,0,0.3,0.1,0.4,0.2c0.1,0.1,0.2,0.3,0.2,0.5c0,0.2-0.1,0.3-0.2,0.4C213.1,2.6,212.9,2.7,212.7,2.7z
				 M213.2,10.2h-1v-6h1V10.2z"/>
			<path class="st11" d="M218.1,5.2C217.9,5,217.7,5,217.4,5c-0.4,0-0.8,0.2-1,0.6c-0.3,0.5-0.4,1-0.4,1.6v3.1h-1v-6h1v1.2l0,0
				c0.1-0.4,0.3-0.7,0.6-1c0.3-0.2,0.6-0.4,1-0.3c0.2,0,0.4,0,0.6,0.1L218.1,5.2z"/>
			<path class="st11" d="M224,7.4h-4.2c0,0.6,0.2,1.1,0.6,1.6c0.4,0.4,0.9,0.6,1.4,0.5c0.7,0,1.3-0.2,1.9-0.7v0.9
				c-0.6,0.4-1.4,0.6-2.1,0.6c-0.8,0-1.5-0.3-2-0.8c-0.5-0.7-0.8-1.5-0.7-2.3c0-0.8,0.2-1.6,0.8-2.3c0.5-0.6,1.2-0.9,2-0.9
				c0.7,0,1.4,0.2,1.8,0.8c0.4,0.6,0.6,1.4,0.6,2.1V7.4z M223,6.6c0-0.5-0.1-0.9-0.4-1.3c-0.3-0.3-0.7-0.5-1.1-0.5
				c-0.4,0-0.9,0.2-1.1,0.5c-0.3,0.3-0.5,0.8-0.6,1.3L223,6.6z"/>
			<path class="st11" d="M231.6,10.1c-0.3,0.1-0.6,0.2-0.9,0.2c-1.1,0-1.6-0.6-1.6-1.8V5h-1V4.2h1V2.7l1-0.3v1.8h1.5V5H230v3.4
				c0,0.3,0,0.6,0.2,0.9c0.2,0.2,0.4,0.3,0.7,0.3c0.2,0,0.4-0.1,0.6-0.2L231.6,10.1z"/>
			<path class="st11" d="M235.2,10.3c-0.8,0-1.6-0.3-2.1-0.8c-0.6-0.6-0.8-1.4-0.8-2.2c0-0.9,0.2-1.7,0.8-2.4
				c0.6-0.6,1.4-0.9,2.2-0.8c0.8,0,1.6,0.3,2.1,0.8c0.5,0.6,0.8,1.5,0.8,2.3c0,0.8-0.3,1.7-0.8,2.3C236.8,10.1,236,10.4,235.2,10.3z
				 M235.3,4.9c-0.6,0-1.1,0.2-1.5,0.6c-0.4,0.5-0.6,1.1-0.5,1.7c0,0.6,0.2,1.2,0.5,1.7c0.4,0.4,0.9,0.6,1.5,0.6
				c0.5,0,1.1-0.2,1.4-0.6c0.4-0.5,0.5-1.1,0.5-1.7c0-0.6-0.1-1.2-0.5-1.7C236.4,5.1,235.8,4.8,235.3,4.9L235.3,4.9z"/>
			<path class="st11" d="M244.7,10.2h-1.4l-2.6-2.9l0,0v2.9h-1V1.3h1V7l0,0l2.5-2.8h1.3l-2.8,2.9L244.7,10.2z"/>
			<path class="st11" d="M250.2,7.4h-4.2c0,0.6,0.2,1.1,0.5,1.6c0.4,0.4,0.9,0.6,1.4,0.5c0.7,0,1.3-0.2,1.9-0.7v0.9
				c-0.6,0.4-1.4,0.6-2.1,0.6c-0.8,0-1.5-0.3-2-0.8c-0.5-0.7-0.8-1.5-0.7-2.3c0-0.8,0.2-1.6,0.8-2.3c0.5-0.6,1.2-0.9,2-0.9
				c0.7,0,1.4,0.2,1.8,0.8c0.5,0.6,0.7,1.4,0.6,2.1L250.2,7.4z M249.2,6.6c0-0.5-0.1-0.9-0.4-1.3c-0.3-0.3-0.7-0.5-1.1-0.5
				c-0.4,0-0.9,0.2-1.1,0.5c-0.3,0.4-0.5,0.8-0.5,1.3H249.2z"/>
			<path class="st11" d="M256.6,10.2h-1V6.8c0-1.3-0.5-1.9-1.4-1.9c-0.5,0-0.9,0.2-1.2,0.5c-0.3,0.4-0.5,0.9-0.5,1.4v3.4h-1v-6h1v1
				l0,0c0.4-0.7,1.2-1.2,2-1.1c0.6,0,1.1,0.2,1.5,0.6c0.4,0.5,0.6,1.2,0.5,1.8L256.6,10.2z"/>
		</g>
		<g>
			<path class="st11" d="M211.4,38.9h-1.1l-0.9-2.4h-3.6l-0.8,2.4h-1.1l3.2-8.4h1L211.4,38.9z M209.1,35.7l-1.3-3.6
				c-0.1-0.2-0.1-0.4-0.1-0.6l0,0c0,0.2-0.1,0.4-0.1,0.6l-1.3,3.6H209.1z"/>
			<path class="st11" d="M216.4,38.7c-0.5,0.3-1.1,0.4-1.6,0.4c-0.8,0-1.5-0.3-2.1-0.8c-0.5-0.6-0.8-1.4-0.8-2.2
				c0-0.9,0.3-1.7,0.9-2.4c0.6-0.6,1.4-0.9,2.3-0.9c0.5,0,1,0.1,1.4,0.3v1c-0.4-0.3-0.9-0.5-1.4-0.5c-0.6,0-1.1,0.2-1.5,0.7
				c-0.4,0.5-0.6,1.1-0.6,1.7c0,0.6,0.2,1.2,0.6,1.7c0.4,0.4,0.9,0.6,1.5,0.6c0.5,0,1.1-0.2,1.5-0.5L216.4,38.7z"/>
			<path class="st11" d="M221.8,38.7c-0.5,0.3-1.1,0.4-1.6,0.4c-0.8,0-1.5-0.3-2.1-0.8c-0.5-0.6-0.8-1.4-0.8-2.2
				c0-0.9,0.3-1.7,0.9-2.4c0.6-0.6,1.4-0.9,2.3-0.9c0.5,0,1,0.1,1.4,0.3v1c-0.4-0.3-0.9-0.5-1.4-0.5c-0.6,0-1.1,0.2-1.5,0.7
				c-0.4,0.5-0.6,1.1-0.6,1.7c0,0.6,0.2,1.2,0.6,1.7c0.4,0.4,0.9,0.6,1.5,0.6c0.5,0,1.1-0.2,1.5-0.5L221.8,38.7z"/>
			<path class="st11" d="M228,36.2h-4.2c0,0.6,0.2,1.1,0.5,1.5c0.4,0.4,0.9,0.6,1.4,0.5c0.7,0,1.3-0.2,1.9-0.7v0.9
				c-0.6,0.4-1.4,0.6-2.1,0.6c-0.8,0-1.5-0.3-2-0.8c-0.5-0.6-0.8-1.5-0.7-2.3c0-0.8,0.3-1.6,0.8-2.3c0.5-0.6,1.2-0.9,2-0.9
				c0.7,0,1.4,0.2,1.8,0.8c0.5,0.6,0.7,1.4,0.6,2.1L228,36.2z M227,35.4c0-0.5-0.1-0.9-0.4-1.3c-0.3-0.3-0.7-0.5-1.1-0.5
				c-0.4,0-0.9,0.2-1.1,0.5c-0.3,0.4-0.5,0.8-0.6,1.3H227z"/>
			<path class="st11" d="M229.1,38.7v-1c0.5,0.4,1.1,0.6,1.7,0.6c0.8,0,1.3-0.3,1.3-0.8c0-0.2,0-0.3-0.1-0.5
				c-0.1-0.1-0.2-0.2-0.3-0.3c-0.1-0.1-0.3-0.2-0.4-0.2l-0.5-0.2c-0.3-0.1-0.5-0.2-0.7-0.3c-0.2-0.1-0.4-0.2-0.5-0.4
				c-0.1-0.1-0.2-0.3-0.3-0.5c-0.1-0.2-0.1-0.4-0.1-0.6c0-0.3,0.1-0.5,0.2-0.7c0.1-0.2,0.3-0.4,0.5-0.5c0.2-0.1,0.5-0.3,0.7-0.3
				c0.7-0.2,1.5-0.1,2.2,0.2v1c-0.5-0.3-1-0.4-1.5-0.4c-0.2,0-0.3,0-0.5,0.1c-0.1,0-0.3,0.1-0.4,0.2c-0.1,0.1-0.2,0.2-0.2,0.3
				c-0.1,0.1-0.1,0.2-0.1,0.3c0,0.1,0,0.3,0.1,0.4c0.1,0.1,0.1,0.2,0.3,0.3c0.1,0.1,0.3,0.2,0.4,0.2l0.5,0.2
				c0.3,0.1,0.5,0.2,0.7,0.3c0.2,0.1,0.4,0.2,0.5,0.4c0.1,0.1,0.3,0.3,0.3,0.5c0.1,0.2,0.1,0.4,0.1,0.6c0,0.3-0.1,0.5-0.2,0.8
				c-0.1,0.2-0.3,0.4-0.5,0.5c-0.2,0.2-0.5,0.3-0.8,0.3c-0.3,0.1-0.6,0.1-0.9,0.1C230.1,39.1,229.6,39,229.1,38.7z"/>
			<path class="st11" d="M234.2,38.7v-1c0.5,0.4,1.1,0.6,1.7,0.6c0.8,0,1.3-0.3,1.3-0.8c0-0.1,0-0.3-0.1-0.4
				c-0.1-0.1-0.2-0.2-0.3-0.3c-0.1-0.1-0.3-0.2-0.4-0.2l-0.5-0.2c-0.3-0.1-0.5-0.2-0.7-0.3c-0.2-0.1-0.3-0.2-0.5-0.4
				c-0.1-0.1-0.2-0.3-0.3-0.5c-0.1-0.2-0.1-0.4-0.1-0.6c0-0.3,0.1-0.5,0.2-0.7c0.1-0.2,0.3-0.4,0.5-0.5c0.2-0.1,0.5-0.3,0.7-0.3
				c0.3-0.1,0.6-0.1,0.9-0.1c0.5,0,1,0.1,1.4,0.3v1c-0.5-0.3-1-0.4-1.5-0.4c-0.2,0-0.3,0-0.5,0.1c-0.1,0-0.3,0.1-0.4,0.2
				c-0.1,0.1-0.2,0.2-0.2,0.3c-0.1,0.1-0.1,0.2-0.1,0.3c0,0.1,0,0.3,0.1,0.4c0.1,0.1,0.1,0.2,0.3,0.3c0.1,0.1,0.3,0.2,0.4,0.2
				l0.5,0.2c0.3,0.1,0.5,0.2,0.7,0.3c0.2,0.1,0.4,0.2,0.5,0.4c0.1,0.1,0.3,0.3,0.3,0.5c0.1,0.2,0.1,0.4,0.1,0.6
				c0,0.3-0.1,0.5-0.2,0.8c-0.1,0.2-0.3,0.4-0.5,0.5c-0.2,0.2-0.5,0.3-0.8,0.3c-0.3,0.1-0.6,0.1-0.9,0.1
				C235.2,39.1,234.7,39,234.2,38.7z"/>
			<path class="st11" d="M245.7,38.9c-0.3,0.1-0.6,0.2-0.9,0.2c-1,0-1.6-0.6-1.6-1.8v-3.6h-1v-0.8h1v-1.5l1-0.3v1.8h1.5v0.8h-1.5
				v3.4c0,0.3,0,0.6,0.2,0.9c0.2,0.2,0.4,0.3,0.7,0.3c0.2,0,0.4-0.1,0.6-0.2L245.7,38.9z"/>
			<path class="st11" d="M249.4,39.1c-0.8,0-1.6-0.3-2.1-0.8c-0.5-0.6-0.8-1.4-0.8-2.2c-0.1-0.9,0.2-1.7,0.8-2.4
				c0.6-0.6,1.4-0.9,2.2-0.8c0.8,0,1.6,0.3,2.1,0.8c1,1.4,1,3.2-0.1,4.6C251,38.8,250.2,39.1,249.4,39.1z M249.4,33.6
				c-0.6,0-1.1,0.2-1.5,0.6c-0.4,0.5-0.6,1.1-0.5,1.7c0,0.6,0.2,1.2,0.6,1.7c0.4,0.4,0.9,0.6,1.5,0.6c0.5,0,1.1-0.2,1.4-0.6
				c0.7-1.1,0.7-2.4,0-3.5C250.5,33.8,250,33.6,249.4,33.6L249.4,33.6z"/>
			<path class="st11" d="M258.8,38.9h-1.4l-2.6-2.9l0,0v2.9h-1v-8.9h1v5.6l0,0l2.5-2.8h1.3l-2.8,2.9L258.8,38.9z"/>
			<path class="st11" d="M264.3,36.2h-4.2c0,0.6,0.2,1.1,0.5,1.5c0.4,0.4,0.9,0.6,1.4,0.5c0.7,0,1.3-0.2,1.9-0.7v0.9
				c-0.6,0.4-1.4,0.6-2.1,0.6c-0.8,0-1.5-0.3-2-0.8c-1-1.4-1-3.2,0.1-4.6c0.5-0.6,1.2-0.9,2-0.9c0.7,0,1.4,0.2,1.8,0.8
				c0.5,0.6,0.7,1.4,0.6,2.1L264.3,36.2z M263.3,35.4c0-0.5-0.1-0.9-0.4-1.3c-0.3-0.3-0.7-0.5-1.1-0.5c-0.4,0-0.9,0.2-1.2,0.5
				c-0.3,0.4-0.5,0.8-0.6,1.3H263.3z"/>
			<path class="st11" d="M270.8,38.9h-1v-3.4c0-1.3-0.5-1.9-1.4-1.9c-0.5,0-0.9,0.2-1.2,0.5c-0.3,0.4-0.5,0.9-0.5,1.4v3.4h-1v-6h1v1
				l0,0c0.4-0.7,1.2-1.2,2-1.1c0.6,0,1.1,0.2,1.5,0.6c0.4,0.5,0.6,1.2,0.5,1.8L270.8,38.9z"/>
		</g>
		<g>
			<path class="st1" d="M406.2,33.5h-1.9v-5c0-0.5,0-1.1,0.1-1.8h0c-0.1,0.4-0.2,0.7-0.3,1.1l-2,5.7h-1.5l-2-5.6
				c-0.1-0.4-0.2-0.8-0.3-1.2h-0.1c0,0.8,0.1,1.5,0.1,2.2v4.6h-1.7v-8.4h2.8l1.7,5c0.1,0.4,0.2,0.8,0.3,1.2l0,0
				c0.1-0.4,0.2-0.8,0.3-1.2l1.7-5h2.7L406.2,33.5z"/>
			<path class="st1" d="M408.8,26.5c-0.3,0-0.6-0.1-0.8-0.3c-0.2-0.2-0.3-0.4-0.3-0.7c0-0.3,0.1-0.5,0.3-0.7
				c0.2-0.2,0.5-0.3,0.8-0.3c0.3,0,0.6,0.1,0.8,0.3c0.2,0.2,0.3,0.4,0.3,0.7c0,0.3-0.1,0.5-0.3,0.7
				C409.3,26.4,409.1,26.5,408.8,26.5z M409.7,33.5h-1.9v-6h1.9V33.5z"/>
			<path class="st1" d="M415.8,33.3c-0.6,0.3-1.2,0.4-1.8,0.4c-0.8,0-1.6-0.3-2.2-0.8c-0.6-0.6-0.9-1.4-0.9-2.2
				c0-0.9,0.3-1.8,0.9-2.4c0.7-0.6,1.5-0.9,2.5-0.9c0.5,0,1.1,0.1,1.5,0.3v1.6c-0.4-0.3-0.8-0.4-1.3-0.4c-0.5,0-0.9,0.1-1.3,0.5
				c-0.3,0.3-0.5,0.8-0.5,1.3c0,0.5,0.1,0.9,0.5,1.3c0.3,0.3,0.8,0.5,1.2,0.5c0.5,0,1-0.2,1.4-0.4L415.8,33.3z"/>
			<path class="st1" d="M421,29.1c-0.2-0.1-0.5-0.2-0.8-0.2c-0.4,0-0.7,0.2-0.9,0.4c-0.2,0.4-0.4,0.8-0.3,1.2v2.9h-1.9v-6h1.9v1.1
				l0,0c0.2-0.7,0.8-1.2,1.6-1.2c0.2,0,0.3,0,0.5,0.1L421,29.1z"/>
			<path class="st1" d="M424.8,33.6c-0.9,0-1.7-0.3-2.4-0.8c-0.6-0.6-0.9-1.4-0.9-2.3c-0.1-0.9,0.3-1.7,0.9-2.3
				c0.7-0.6,1.5-0.9,2.4-0.8c0.9,0,1.7,0.3,2.3,0.8c0.6,0.6,0.9,1.4,0.9,2.2c0.1,0.9-0.3,1.7-0.9,2.4
				C426.6,33.4,425.7,33.7,424.8,33.6z M424.8,28.8c-0.4,0-0.8,0.2-1,0.5c-0.3,0.4-0.4,0.8-0.4,1.3c0,1.2,0.5,1.7,1.4,1.7
				s1.3-0.6,1.3-1.8S425.8,28.8,424.8,28.8L424.8,28.8z"/>
			<path class="st1" d="M428.9,33.3v-1.5c0.3,0.2,0.6,0.3,0.9,0.4c0.3,0.1,0.6,0.1,0.9,0.1c0.3,0,0.5,0,0.8-0.1
				c0.2-0.1,0.3-0.2,0.3-0.4c0-0.1,0-0.2-0.1-0.3c-0.1-0.1-0.2-0.1-0.3-0.2c-0.1-0.1-0.3-0.1-0.5-0.2l-0.5-0.2
				c-0.2-0.1-0.4-0.2-0.6-0.3c-0.2-0.1-0.3-0.2-0.5-0.4c-0.1-0.1-0.2-0.3-0.3-0.5c-0.1-0.2-0.1-0.4-0.1-0.6c0-0.3,0.1-0.6,0.2-0.9
				c0.1-0.2,0.3-0.4,0.6-0.6c0.3-0.2,0.5-0.3,0.8-0.3c0.3-0.1,0.7-0.1,1-0.1c0.3,0,0.5,0,0.8,0.1c0.3,0,0.5,0.1,0.8,0.2V29
				c-0.2-0.1-0.5-0.2-0.8-0.3c-0.3-0.1-0.5-0.1-0.8-0.1c-0.1,0-0.2,0-0.4,0c-0.1,0-0.2,0-0.3,0.1c-0.1,0-0.1,0.1-0.2,0.2
				c0,0.1-0.1,0.1-0.1,0.2c0,0.1,0,0.2,0.1,0.3c0.1,0.1,0.2,0.2,0.3,0.2c0.1,0.1,0.2,0.1,0.4,0.2l0.4,0.1c0.2,0.1,0.5,0.2,0.7,0.3
				c0.2,0.1,0.4,0.2,0.5,0.4c0.1,0.1,0.3,0.3,0.3,0.5c0.1,0.2,0.1,0.4,0.1,0.7c0,0.3-0.1,0.6-0.2,0.9c-0.2,0.3-0.4,0.5-0.6,0.6
				c-0.3,0.2-0.6,0.3-0.9,0.3c-0.3,0.1-0.7,0.1-1,0.1C430.2,33.6,429.5,33.5,428.9,33.3z"/>
			<path class="st1" d="M437.5,33.6c-0.9,0-1.7-0.3-2.4-0.8c-0.6-0.6-0.9-1.4-0.9-2.3c0-0.9,0.3-1.7,0.9-2.3
				c0.7-0.6,1.5-0.9,2.4-0.8c0.9-0.1,1.7,0.3,2.3,0.8c0.6,0.6,0.9,1.4,0.9,2.2c0,0.9-0.3,1.7-0.9,2.4
				C439.3,33.4,438.4,33.7,437.5,33.6z M437.5,28.8c-0.4,0-0.8,0.2-1,0.5c-0.3,0.4-0.4,0.8-0.4,1.3c0,1.2,0.5,1.7,1.4,1.7
				s1.3-0.6,1.3-1.8S438.5,28.8,437.5,28.8L437.5,28.8z"/>
			<path class="st1" d="M445.9,26c-0.2-0.1-0.4-0.1-0.7-0.1c-0.6,0-0.9,0.3-0.9,1v0.6h1.4v1.4h-1.4v4.6h-1.9v-4.7h-1v-1.4h1v-0.7
				c0-0.6,0.2-1.2,0.7-1.6c0.5-0.4,1.1-0.7,1.8-0.6c0.3,0,0.6,0,0.9,0.1V26z"/>
			<path class="st1" d="M450.4,33.4c-0.4,0.2-0.8,0.2-1.2,0.2c-1.3,0-2-0.7-2-2v-2.8h-1v-1.4h1v-1.3l1.8-0.5v1.8h1.4v1.4h-1.4v2.4
				c0,0.6,0.2,0.9,0.8,0.9c0.2,0,0.4-0.1,0.6-0.2V33.4z"/>
			<path class="st1" d="M402.8,40.9c-0.3,0-0.6-0.1-0.8-0.3c-0.2-0.2-0.3-0.4-0.3-0.7c0-0.3,0.1-0.5,0.3-0.7
				c0.2-0.2,0.5-0.3,0.8-0.3c0.3,0,0.6,0.1,0.8,0.3c0.2,0.2,0.3,0.4,0.3,0.7c0,0.3-0.1,0.5-0.3,0.7
				C403.4,40.8,403.1,40.9,402.8,40.9z M403.8,47.9h-1.9v-6h1.9V47.9z"/>
			<path class="st1" d="M411.2,47.9h-1.9V47l0,0c-0.4,0.6-1.1,1-1.9,1c-0.7,0-1.4-0.3-1.8-0.8c-0.5-0.6-0.7-1.5-0.7-2.3
				c0-0.9,0.2-1.7,0.8-2.4c0.5-0.6,1.2-0.9,2-0.9c0.7-0.1,1.3,0.3,1.6,0.8l0,0V39h1.9L411.2,47.9z M409.4,45v-0.5
				c0-0.4-0.1-0.7-0.3-1c-0.5-0.5-1.2-0.5-1.7-0.1c-0.1,0-0.1,0.1-0.1,0.2c-0.2,0.4-0.4,0.9-0.3,1.3c0,0.4,0.1,0.9,0.3,1.2
				c0.4,0.5,1.2,0.6,1.7,0.2c0.1-0.1,0.1-0.1,0.2-0.2C409.2,45.8,409.4,45.4,409.4,45z"/>
			<path class="st1" d="M418.1,45.4h-3.9c0.1,0.9,0.6,1.3,1.6,1.3c0.6,0,1.2-0.2,1.7-0.5v1.3c-0.7,0.3-1.4,0.5-2.2,0.4
				c-1.5,0.1-2.9-1-3-2.5c0-0.2,0-0.3,0-0.5c0-0.9,0.3-1.7,0.9-2.4c0.6-0.6,1.3-0.9,2.1-0.9c0.7,0,1.5,0.2,2,0.8
				c0.5,0.6,0.8,1.3,0.7,2.1L418.1,45.4z M416.4,44.3c0-0.8-0.4-1.3-1-1.3c-0.3,0-0.6,0.1-0.8,0.4c-0.2,0.3-0.4,0.6-0.4,0.9H416.4z"
				/>
			<path class="st1" d="M425.1,47.9h-1.9v-3.3c0-0.9-0.3-1.4-1-1.4c-0.3,0-0.6,0.1-0.8,0.4c-0.2,0.3-0.3,0.6-0.3,0.9v3.4h-1.8v-6
				h1.9v1l0,0c0.4-0.7,1.1-1.1,1.9-1.1c1.3,0,2,0.8,2,2.5L425.1,47.9z"/>
			<path class="st1" d="M430.1,47.8c-0.4,0.2-0.8,0.2-1.2,0.2c-1.3,0-2-0.7-2-2v-2.8h-1v-1.4h1v-1.3l1.8-0.5v1.8h1.4v1.4h-1.4v2.4
				c0,0.6,0.3,0.9,0.8,0.9c0.2,0,0.4-0.1,0.6-0.2V47.8z"/>
			<path class="st1" d="M432.2,40.9c-0.3,0-0.6-0.1-0.8-0.3c-0.2-0.2-0.3-0.4-0.3-0.7c0-0.3,0.1-0.5,0.3-0.7c0.5-0.3,1.1-0.3,1.5,0
				c0.2,0.2,0.3,0.4,0.3,0.7c0,0.3-0.1,0.5-0.3,0.7C432.7,40.8,432.4,40.9,432.2,40.9z M433.1,47.9h-1.9v-6h1.9V47.9z"/>
			<path class="st1" d="M438.2,47.8c-0.4,0.2-0.8,0.2-1.2,0.2c-1.3,0-2-0.7-2-2v-2.8h-1v-1.4h1v-1.3l1.8-0.5v1.8h1.4v1.4h-1.4v2.4
				c0,0.6,0.3,0.9,0.8,0.9c0.2,0,0.4-0.1,0.6-0.2V47.8z"/>
			<path class="st1" d="M445.2,41.9l-2.4,6.5c-0.6,1.6-1.5,2.3-2.6,2.3c-0.4,0-0.8,0-1.1-0.2v-1.5c0.2,0.1,0.5,0.2,0.8,0.2
				c0.4,0,0.9-0.2,1-0.7l0.3-0.8l-2.4-6h2l1.1,3.7c0.1,0.3,0.1,0.5,0.2,0.8l0,0c0-0.3,0.1-0.5,0.2-0.8l1.1-3.7L445.2,41.9z"/>
			<path class="st1" d="M400.9,61.6L400.9,61.6V65H399v-8.7h1.9v0.9l0,0c0.7-1.1,2.2-1.4,3.3-0.6c0.2,0.1,0.3,0.2,0.5,0.4
				c0.4,0.6,0.7,1.4,0.6,2.2c0,0.9-0.2,1.7-0.7,2.4c-0.5,0.6-1.2,0.9-2,0.9C401.8,62.4,401.2,62.1,400.9,61.6z M400.8,59.1v0.5
				c0,0.4,0.1,0.7,0.3,1c0.2,0.3,0.5,0.4,0.8,0.4c0.4,0,0.8-0.2,1-0.5c0.3-0.4,0.4-0.9,0.4-1.4c0-1.1-0.4-1.6-1.2-1.6
				c-0.4,0-0.7,0.1-0.9,0.4C400.9,58.3,400.8,58.7,400.8,59.1z"/>
			<path class="st1" d="M408.4,62.3h-1.9v-8.9h1.9V62.3z"/>
			<path class="st1" d="M414.9,62.3h-1.8v-0.9l0,0c-0.4,0.6-1,1-1.8,1c-0.5,0-1-0.1-1.4-0.5c-0.3-0.4-0.5-0.8-0.5-1.3
				c0-1.2,0.7-1.8,2.1-2l1.6-0.2c0-0.7-0.4-1-1.1-1c-0.7,0-1.4,0.2-2,0.6v-1.4c0.3-0.2,0.7-0.3,1.1-0.3c0.4-0.1,0.8-0.1,1.2-0.2
				c1.2-0.2,2.4,0.7,2.6,1.9c0,0.2,0,0.4,0,0.6L414.9,62.3z M413.2,59.8v-0.4l-1.1,0.1c-0.6,0.1-0.9,0.3-0.9,0.8
				c0,0.2,0.1,0.4,0.2,0.5c0.2,0.1,0.4,0.2,0.6,0.2c0.3,0,0.6-0.1,0.9-0.4C413.1,60.5,413.2,60.2,413.2,59.8z"/>
			<path class="st1" d="M419.9,62.2c-0.4,0.2-0.8,0.2-1.2,0.2c-1,0.1-1.9-0.5-2-1.5c0-0.2,0-0.3,0-0.5v-2.8h-1v-1.4h1V55l1.9-0.5
				v1.8h1.3v1.4h-1.3v2.4c0,0.6,0.2,0.9,0.7,0.9c0.2,0,0.4-0.1,0.6-0.2L419.9,62.2z"/>
			<path class="st1" d="M425,54.8c-0.2-0.1-0.4-0.1-0.7-0.1c-0.6,0-0.9,0.3-0.9,1v0.6h1.4v1.4h-1.4v4.6h-1.9v-4.7h-1v-1.4h1v-0.7
				c0-0.6,0.2-1.2,0.7-1.7c0.5-0.4,1.2-0.7,1.8-0.6c0.3,0,0.6,0,0.9,0.1V54.8z"/>
			<path class="st1" d="M428.6,62.4c-0.9,0-1.7-0.3-2.4-0.8c-1.2-1.3-1.2-3.3,0-4.6c0.7-0.6,1.5-0.9,2.4-0.8c0.9,0,1.7,0.3,2.3,0.9
				c0.6,0.6,0.9,1.4,0.9,2.2c0,0.9-0.3,1.7-0.9,2.4C430.3,62.2,429.5,62.5,428.6,62.4z M428.7,57.5c-0.4,0-0.8,0.2-1,0.5
				c-0.3,0.4-0.4,0.8-0.4,1.3c0,1.2,0.5,1.7,1.4,1.7s1.3-0.6,1.3-1.8S429.6,57.5,428.7,57.5L428.7,57.5z"/>
			<path class="st1" d="M437,57.9c-0.2-0.1-0.5-0.2-0.8-0.2c-0.4,0-0.7,0.1-0.9,0.4c-0.2,0.4-0.4,0.8-0.3,1.2v2.9h-1.9v-6h1.9v1.1
				l0,0c0.2-0.7,0.8-1.2,1.6-1.2c0.2,0,0.3,0,0.5,0.1L437,57.9z"/>
			<path class="st1" d="M447.4,62.3h-1.9v-3.4c0-0.9-0.3-1.3-1-1.3c-0.3,0-0.6,0.1-0.7,0.4c-0.2,0.3-0.3,0.6-0.3,1v3.3h-1.8v-3.5
				c0-0.8-0.3-1.3-0.9-1.3c-0.3,0-0.6,0.1-0.8,0.4c-0.2,0.3-0.3,0.6-0.3,1v3.3h-1.9v-6h1.9v0.9l0,0c0.2-0.3,0.5-0.6,0.8-0.8
				c0.3-0.2,0.7-0.3,1.1-0.3c0.8,0,1.5,0.4,1.7,1.1c0.4-0.7,1.2-1.2,2-1.1c1.3,0,2,0.8,2,2.4L447.4,62.3z"/>
		</g>
		<g>
			<path class="st11" d="M192,135.2h-1v-3.8h-4.3v3.8h-1v-8.4h1v3.7h4.3v-3.7h1V135.2z"/>
			<path class="st11" d="M199,127.6h-2.4v7.5h-1v-7.5h-2.4v-0.9h5.8V127.6z"/>
			<path class="st11" d="M205.6,127.6h-2.4v7.5h-1v-7.5h-2.4v-0.9h5.8L205.6,127.6z"/>
			<path class="st11" d="M207.8,132v3.2h-1v-8.4h2.3c0.8-0.1,1.5,0.2,2.1,0.7c0.5,0.5,0.8,1.2,0.7,1.9c0,0.8-0.3,1.5-0.8,2
				c-0.6,0.5-1.4,0.8-2.2,0.8L207.8,132z M207.8,127.7v3.4h1c0.6,0,1.1-0.1,1.6-0.5c0.4-0.3,0.6-0.8,0.5-1.3c0-1.1-0.7-1.7-2-1.7
				H207.8z"/>
			<path class="st11" d="M219.8,130.1c-0.2-0.1-0.5-0.2-0.7-0.2c-0.4,0-0.8,0.2-1,0.6c-0.3,0.5-0.4,1-0.4,1.6v3.1h-1v-6h1v1.2l0,0
				c0.1-0.4,0.3-0.7,0.6-1c0.3-0.2,0.6-0.3,0.9-0.4c0.2,0,0.4,0,0.6,0.1L219.8,130.1z"/>
			<path class="st11" d="M225.7,132.4h-4.2c0,0.6,0.2,1.1,0.5,1.5c0.4,0.4,0.9,0.6,1.4,0.6c0.7,0,1.3-0.2,1.9-0.7v0.9
				c-0.6,0.4-1.3,0.6-2.1,0.6c-0.8,0-1.5-0.3-2-0.8c-0.5-0.6-0.8-1.5-0.7-2.3c0-0.8,0.3-1.7,0.8-2.3c0.5-0.6,1.2-0.9,2-0.9
				c0.7,0,1.4,0.2,1.8,0.8c0.5,0.6,0.7,1.4,0.6,2.1L225.7,132.4z M224.7,131.6c0-0.5-0.1-0.9-0.4-1.3c-0.3-0.3-0.7-0.5-1.1-0.5
				c-0.4,0-0.9,0.2-1.1,0.5c-0.3,0.3-0.5,0.8-0.6,1.3L224.7,131.6z"/>
			<path class="st11" d="M226.8,134.9v-1c0.5,0.4,1.1,0.6,1.7,0.6c0.8,0,1.3-0.3,1.3-0.9c0-0.1,0-0.3-0.1-0.4
				c-0.1-0.1-0.2-0.2-0.3-0.3c-0.1-0.1-0.3-0.2-0.4-0.2l-0.5-0.2l-0.7-0.3c-0.2-0.1-0.4-0.2-0.5-0.4c-0.1-0.1-0.2-0.3-0.3-0.5
				c-0.1-0.2-0.1-0.4-0.1-0.6c0-0.3,0.1-0.5,0.2-0.8c0.1-0.2,0.3-0.4,0.5-0.5c0.2-0.2,0.5-0.3,0.7-0.3c0.3-0.1,0.6-0.1,0.9-0.1
				c0.5,0,0.9,0.1,1.4,0.3v1c-0.5-0.3-1-0.4-1.5-0.4c-0.2,0-0.3,0-0.5,0.1c-0.1,0-0.3,0.1-0.4,0.2c-0.1,0.1-0.2,0.2-0.2,0.3
				c-0.1,0.1-0.1,0.2-0.1,0.4c0,0.1,0,0.3,0.1,0.4c0.1,0.1,0.1,0.2,0.3,0.3c0.1,0.1,0.3,0.2,0.4,0.2l0.5,0.2
				c0.3,0.1,0.5,0.2,0.7,0.3c0.2,0.1,0.4,0.2,0.5,0.4c0.1,0.1,0.3,0.3,0.4,0.5c0.1,0.2,0.1,0.4,0.1,0.6c0,0.3-0.1,0.5-0.2,0.8
				c-0.1,0.2-0.3,0.4-0.5,0.6c-0.2,0.1-0.5,0.3-0.8,0.3c-0.3,0.1-0.6,0.1-0.9,0.1C227.8,135.3,227.3,135.2,226.8,134.9z"/>
			<path class="st11" d="M233.1,134.3L233.1,134.3v3.6h-1v-8.8h1v1.1l0,0c0.4-0.8,1.2-1.2,2.1-1.2c0.7,0,1.4,0.3,1.8,0.8
				c0.5,0.6,0.7,1.4,0.6,2.2c0,0.9-0.2,1.7-0.7,2.4c-0.5,0.6-1.2,0.9-2,0.9C234.2,135.3,233.5,134.9,233.1,134.3z M233.1,131.9v0.8
				c0,0.5,0.2,0.9,0.5,1.3c0.3,0.3,0.8,0.5,1.2,0.5c0.5,0,1.1-0.2,1.4-0.7c0.4-0.6,0.5-1.2,0.5-1.9c0-0.6-0.1-1.1-0.5-1.6
				c-0.3-0.4-0.8-0.6-1.3-0.6c-0.5,0-1,0.2-1.3,0.6C233.3,130.8,233.1,131.3,233.1,131.9L233.1,131.9z"/>
			<path class="st11" d="M241.7,135.3c-0.8,0-1.6-0.3-2.1-0.8c-0.5-0.6-0.8-1.4-0.8-2.2c0-0.9,0.2-1.7,0.8-2.4
				c0.6-0.6,1.4-0.9,2.2-0.8c0.8,0,1.5,0.3,2.1,0.8c0.5,0.6,0.8,1.5,0.8,2.3c0,0.8-0.2,1.7-0.8,2.3
				C243.3,135,242.5,135.3,241.7,135.3z M241.8,129.8c-0.6,0-1.1,0.2-1.5,0.6c-0.4,0.5-0.6,1.1-0.5,1.7c0,0.6,0.2,1.2,0.6,1.7
				c0.4,0.4,0.9,0.6,1.5,0.6c0.5,0,1.1-0.2,1.4-0.6c0.4-0.5,0.5-1.1,0.5-1.7c0-0.6-0.1-1.2-0.5-1.7
				C242.8,130,242.3,129.8,241.8,129.8L241.8,129.8z"/>
			<path class="st11" d="M251.1,135.2h-1v-3.4c0-1.3-0.5-1.9-1.4-1.9c-0.5,0-0.9,0.2-1.2,0.6c-0.3,0.4-0.5,0.9-0.5,1.4v3.4h-1v-6h1
				v1l0,0c0.4-0.7,1.2-1.2,2-1.1c0.6,0,1.1,0.2,1.5,0.6c0.4,0.5,0.6,1.2,0.5,1.8L251.1,135.2z"/>
			<path class="st11" d="M252.6,134.9v-1c0.5,0.4,1.1,0.6,1.7,0.6c0.8,0,1.3-0.3,1.3-0.9c0-0.1,0-0.3-0.1-0.4
				c-0.1-0.1-0.2-0.2-0.3-0.3c-0.1-0.1-0.3-0.2-0.4-0.2l-0.5-0.2l-0.7-0.3c-0.2-0.1-0.4-0.2-0.5-0.4c-0.1-0.1-0.2-0.3-0.3-0.5
				c-0.1-0.2-0.1-0.4-0.1-0.6c0-0.3,0.1-0.5,0.2-0.8c0.1-0.2,0.3-0.4,0.5-0.5c0.2-0.2,0.5-0.3,0.7-0.3c0.3-0.1,0.6-0.1,0.9-0.1
				c0.5,0,0.9,0.1,1.4,0.3v1c-0.5-0.3-1-0.4-1.5-0.4c-0.2,0-0.3,0-0.5,0.1c-0.1,0-0.3,0.1-0.4,0.2c-0.1,0.1-0.2,0.2-0.2,0.3
				c-0.1,0.1-0.1,0.2-0.1,0.4c0,0.1,0,0.3,0.1,0.4c0.1,0.1,0.1,0.2,0.3,0.3c0.1,0.1,0.3,0.2,0.4,0.2l0.5,0.2
				c0.3,0.1,0.5,0.2,0.7,0.3c0.2,0.1,0.4,0.2,0.5,0.4c0.3,0.3,0.5,0.7,0.5,1.1c0,0.3-0.1,0.5-0.2,0.8c-0.1,0.2-0.3,0.4-0.5,0.6
				c-0.2,0.1-0.5,0.3-0.8,0.3c-0.3,0.1-0.6,0.1-0.9,0.1C253.6,135.3,253.1,135.2,252.6,134.9z"/>
			<path class="st11" d="M262.8,132.4h-4.2c0,0.6,0.2,1.1,0.5,1.5c0.4,0.4,0.9,0.6,1.4,0.6c0.7,0,1.3-0.2,1.9-0.7v0.9
				c-0.6,0.4-1.4,0.6-2.1,0.6c-0.8,0-1.5-0.3-2-0.8c-0.5-0.6-0.8-1.5-0.7-2.3c0-0.8,0.2-1.6,0.8-2.3c0.5-0.6,1.2-0.9,2-0.9
				c0.7,0,1.4,0.2,1.8,0.8c0.5,0.6,0.7,1.4,0.6,2.1L262.8,132.4z M261.8,131.6c0-0.5-0.1-0.9-0.4-1.3c-0.3-0.3-0.7-0.5-1.1-0.5
				c-0.4,0-0.9,0.2-1.2,0.5c-0.3,0.3-0.5,0.8-0.6,1.3L261.8,131.6z"/>
		</g>
		<g>
			<path class="st5" d="M406.1,119h-1.9v-5c0-0.5,0-1.1,0.1-1.8h0c-0.1,0.4-0.2,0.7-0.3,1.1l-2,5.7h-1.5l-2-5.7
				c-0.1-0.4-0.2-0.8-0.3-1.2h0c0,0.8,0.1,1.6,0.1,2.2v4.6h-1.7v-8.4h2.8l1.7,5c0.1,0.4,0.2,0.8,0.3,1.2l0,0
				c0.1-0.5,0.2-0.9,0.3-1.2l1.7-5h2.7L406.1,119z"/>
			<path class="st5" d="M408.8,112c-0.3,0-0.6-0.1-0.8-0.3c-0.2-0.2-0.3-0.4-0.3-0.7c0-0.3,0.1-0.5,0.3-0.7c0.4-0.4,1.1-0.4,1.5,0
				c0.2,0.2,0.3,0.4,0.3,0.7c0,0.3-0.1,0.5-0.3,0.7C409.3,111.9,409,112,408.8,112z M409.7,119h-1.9v-6h1.9V119z"/>
			<path class="st5" d="M415.8,118.8c-0.6,0.3-1.2,0.4-1.8,0.4c-0.8,0-1.6-0.3-2.2-0.8c-0.6-0.6-0.9-1.4-0.9-2.2
				c0-0.9,0.3-1.8,0.9-2.4c0.7-0.6,1.5-0.9,2.5-0.9c0.5,0,1.1,0.1,1.5,0.3v1.6c-0.4-0.3-0.8-0.4-1.3-0.4c-0.5,0-0.9,0.1-1.3,0.5
				c-0.3,0.3-0.5,0.8-0.5,1.3c0,0.5,0.1,0.9,0.5,1.3c0.3,0.3,0.8,0.5,1.2,0.5c0.5,0,1-0.2,1.4-0.4L415.8,118.8z"/>
			<path class="st5" d="M421,114.6c-0.2-0.1-0.5-0.2-0.8-0.2c-0.4,0-0.7,0.1-0.9,0.4c-0.2,0.3-0.4,0.8-0.3,1.2v2.9h-1.9v-6h1.9v1.1
				l0,0c0.2-0.7,0.8-1.2,1.6-1.2c0.2,0,0.3,0,0.5,0.1L421,114.6z"/>
			<path class="st5" d="M424.8,119.1c-0.9,0-1.7-0.3-2.4-0.8c-1.2-1.3-1.2-3.3,0-4.6c0.7-0.6,1.5-0.9,2.4-0.8c0.9,0,1.7,0.3,2.4,0.8
				c0.6,0.6,0.9,1.4,0.9,2.2c0,0.9-0.3,1.7-0.9,2.4C426.5,118.8,425.7,119.2,424.8,119.1z M424.8,114.2c-0.4,0-0.8,0.2-1,0.4
				c-0.3,0.4-0.4,0.8-0.4,1.3c0,1.2,0.5,1.7,1.4,1.7s1.3-0.6,1.3-1.8S425.7,114.2,424.8,114.2z"/>
			<path class="st5" d="M428.9,118.8v-1.5c0.3,0.2,0.6,0.3,0.9,0.4c0.3,0.1,0.6,0.1,0.9,0.1c0.3,0,0.5,0,0.8-0.1
				c0.2-0.1,0.3-0.2,0.3-0.4c0-0.1,0-0.2-0.1-0.3c-0.1-0.1-0.2-0.2-0.3-0.2c-0.1-0.1-0.3-0.1-0.4-0.2c-0.2,0-0.3-0.1-0.5-0.2
				c-0.2-0.1-0.4-0.2-0.6-0.3c-0.2-0.1-0.3-0.2-0.5-0.4c-0.1-0.1-0.2-0.3-0.3-0.5c-0.3-0.8,0-1.7,0.7-2.1c0.3-0.2,0.5-0.3,0.8-0.3
				c0.3-0.1,0.7-0.1,1-0.1c0.3,0,0.5,0,0.8,0.1c0.3,0,0.5,0.1,0.8,0.2v1.4c-0.2-0.1-0.5-0.2-0.8-0.3c-0.3-0.1-0.5-0.1-0.8-0.1
				c-0.1,0-0.2,0-0.3,0c-0.1,0-0.2,0.1-0.3,0.1c-0.1,0-0.1,0.1-0.2,0.2c0,0.1-0.1,0.1-0.1,0.2c0,0.1,0,0.2,0.1,0.3
				c0.1,0.1,0.2,0.1,0.3,0.2c0.1,0.1,0.2,0.1,0.4,0.2l0.4,0.1c0.2,0.1,0.5,0.2,0.7,0.3c0.2,0.1,0.4,0.2,0.5,0.4
				c0.1,0.1,0.3,0.3,0.3,0.5c0.1,0.2,0.1,0.4,0.1,0.7c0,0.3-0.1,0.6-0.2,0.9c-0.2,0.3-0.4,0.5-0.6,0.6c-0.3,0.2-0.6,0.3-0.9,0.3
				c-0.3,0.1-0.7,0.1-1,0.1C430.2,119.1,429.5,119,428.9,118.8z"/>
			<path class="st5" d="M437.5,119.1c-0.9,0-1.7-0.3-2.4-0.8c-1.2-1.3-1.2-3.3,0-4.6c0.7-0.6,1.5-0.9,2.4-0.8c0.9,0,1.7,0.3,2.3,0.8
				c0.6,0.6,0.9,1.4,0.9,2.2c0,0.9-0.3,1.7-0.9,2.4C439.2,118.8,438.4,119.2,437.5,119.1z M437.5,114.2c-0.4,0-0.8,0.2-1,0.4
				c-0.3,0.4-0.4,0.8-0.4,1.3c0,1.2,0.5,1.7,1.4,1.7s1.3-0.6,1.3-1.8S438.4,114.2,437.5,114.2L437.5,114.2z"/>
			<path class="st5" d="M445.8,111.5c-0.2-0.1-0.5-0.1-0.7-0.1c-0.6,0-0.9,0.3-0.9,1v0.6h1.4v1.4h-1.4v4.6h-1.8v-4.6h-1V113h1v-0.8
				c0-0.6,0.2-1.2,0.7-1.7c0.5-0.4,1.2-0.7,1.8-0.6c0.3,0,0.6,0,0.9,0.1V111.5z"/>
			<path class="st5" d="M450.4,118.9c-0.4,0.2-0.8,0.2-1.2,0.2c-1,0.1-1.9-0.5-2-1.5c0-0.2,0-0.3,0-0.5v-2.8h-1V113h1v-1.3l1.9-0.5
				v1.8h1.4v1.4H449v2.4c0,0.6,0.3,0.9,0.7,0.9c0.2,0,0.4-0.1,0.6-0.2L450.4,118.9z"/>
			<path class="st5" d="M402.4,132.8c-0.9,0.5-2,0.7-3.1,0.7c-1.2,0.1-2.3-0.3-3.2-1.1c-0.8-0.8-1.2-1.9-1.2-3.1
				c0-1.2,0.4-2.4,1.3-3.2c0.9-0.9,2.1-1.3,3.4-1.3c0.8,0,1.6,0.1,2.4,0.4v1.8c-0.7-0.4-1.6-0.6-2.4-0.6c-0.7,0-1.4,0.2-1.9,0.8
				c-0.5,0.5-0.8,1.3-0.7,2c0,0.7,0.2,1.4,0.7,2c0.5,0.5,1.1,0.7,1.8,0.7c0.4,0,0.7-0.1,1.1-0.2v-1.6h-1.7v-1.5h3.6L402.4,132.8z"/>
			<path class="st5" d="M407.9,129c-0.2-0.1-0.5-0.2-0.8-0.2c-0.4,0-0.7,0.1-0.9,0.4c-0.2,0.3-0.4,0.8-0.3,1.2v2.9H404v-6h1.9v1.1
				l0,0c0.2-0.7,0.8-1.2,1.6-1.2c0.2,0,0.3,0,0.5,0.1L407.9,129z"/>
			<path class="st5" d="M413.6,133.4h-1.8v-0.9l0,0c-0.4,0.6-1.1,1-1.8,1c-0.5,0-1-0.1-1.4-0.5c-0.3-0.4-0.5-0.8-0.5-1.3
				c0-1.2,0.7-1.8,2.1-2l1.6-0.2c0-0.7-0.4-1-1.1-1c-0.7,0-1.4,0.2-2,0.6v-1.4c0.3-0.2,0.7-0.3,1.1-0.4c0.4-0.1,0.8-0.1,1.2-0.2
				c1.2-0.2,2.4,0.7,2.6,1.9c0,0.2,0,0.4,0,0.6L413.6,133.4z M411.9,130.9v-0.4l-1.1,0.1c-0.6,0.1-0.9,0.4-0.9,0.8
				c0,0.2,0.1,0.4,0.2,0.5c0.2,0.1,0.4,0.2,0.6,0.2c0.3,0,0.6-0.1,0.9-0.4C411.8,131.6,411.9,131.3,411.9,130.9L411.9,130.9z"/>
			<path class="st5" d="M417,132.7L417,132.7v3.5h-1.9v-8.8h1.9v0.9l0,0c0.7-1.1,2.2-1.4,3.3-0.6c0.2,0.1,0.3,0.2,0.5,0.4
				c0.5,0.6,0.7,1.4,0.6,2.2c0,0.9-0.2,1.7-0.7,2.4c-0.5,0.6-1.2,0.9-2,0.9C418,133.5,417.4,133.2,417,132.7z M417,130.2v0.5
				c0,0.4,0.1,0.7,0.3,1c0.2,0.3,0.5,0.4,0.9,0.4c0.4,0,0.8-0.2,1-0.5c0.3-0.4,0.4-0.9,0.4-1.4c0-1.1-0.4-1.6-1.2-1.6
				c-0.4,0-0.7,0.1-0.9,0.4C417.1,129.4,416.9,129.8,417,130.2L417,130.2z"/>
			<path class="st5" d="M428.3,133.4h-1.8V130c0-0.9-0.3-1.3-1-1.3c-0.3,0-0.6,0.1-0.8,0.4c-0.2,0.3-0.3,0.6-0.3,0.9v3.4h-1.9v-8.9
				h1.9v3.8l0,0c0.4-0.6,1.1-1,1.8-1c1.3,0,2,0.8,2,2.5L428.3,133.4z"/>
			<path class="st5" d="M440.7,133.4h-2.1l-0.6-1.9h-3l-0.6,1.9h-2l3.1-8.4h2.2L440.7,133.4z M437.6,130l-0.9-2.8
				c-0.1-0.2-0.1-0.5-0.1-0.8l0,0c0,0.2-0.1,0.5-0.1,0.7l-0.9,2.8H437.6z"/>
			<path class="st5" d="M443.5,130.5v2.9h-1.9V125h3c2.1,0,3.2,0.9,3.2,2.7c0,0.8-0.3,1.5-0.9,2c-0.7,0.5-1.6,0.8-2.4,0.8
				L443.5,130.5z M443.5,126.5v2.5h0.7c1,0,1.5-0.4,1.5-1.3s-0.5-1.3-1.5-1.3L443.5,126.5z"/>
			<path class="st5" d="M450.7,133.4h-1.9V125h1.9V133.4z"/>
		</g>
		<g>
			<polygon class="st10" points="192.6,86.5 185,91.9 187.9,100.7 197.2,100.7 200.1,91.9 			"/>
			<g>
				<g>
					<path class="st11" d="M212.9,99.9h-1.1l-0.9-2.4h-3.6l-0.8,2.4h-1.1l3.2-8.4h1L212.9,99.9z M210.6,96.7l-1.3-3.6
						c-0.1-0.2-0.1-0.4-0.1-0.6l0,0c0,0.2-0.1,0.4-0.1,0.6l-1.3,3.6H210.6z"/>
					<path class="st11" d="M218,99.6c-0.5,0.3-1.1,0.4-1.6,0.4c-0.8,0-1.5-0.3-2.1-0.8c-0.5-0.6-0.8-1.4-0.8-2.2
						c0-0.9,0.3-1.7,0.9-2.4c0.6-0.6,1.4-0.9,2.3-0.9c0.5,0,1,0.1,1.4,0.3v1c-0.4-0.3-0.9-0.5-1.4-0.5c-0.6,0-1.1,0.2-1.5,0.7
						c-0.4,0.5-0.6,1.1-0.6,1.8c0,0.6,0.2,1.2,0.6,1.7c0.4,0.4,0.9,0.6,1.5,0.6c0.5,0,1.1-0.2,1.5-0.5L218,99.6z"/>
					<path class="st11" d="M223.4,99.6c-0.5,0.3-1.1,0.4-1.6,0.4c-0.8,0-1.5-0.3-2.1-0.8c-0.5-0.6-0.8-1.4-0.8-2.2
						c0-0.9,0.3-1.7,0.9-2.4c0.6-0.6,1.4-0.9,2.3-0.9c0.5,0,1,0.1,1.4,0.3v1c-0.4-0.3-0.9-0.5-1.4-0.5c-0.6,0-1.1,0.2-1.5,0.7
						c-0.4,0.5-0.6,1.1-0.6,1.8c0,0.6,0.2,1.2,0.6,1.7c0.4,0.4,0.9,0.6,1.5,0.6c0.5,0,1.1-0.2,1.5-0.5V99.6z"/>
					<path class="st11" d="M229.6,97.1h-4.2c0,0.6,0.2,1.1,0.5,1.6c0.4,0.4,0.9,0.6,1.4,0.5c0.7,0,1.3-0.2,1.9-0.7v0.9
						c-0.6,0.4-1.4,0.6-2.1,0.6c-0.8,0-1.5-0.3-2-0.8c-1-1.4-1-3.2,0.1-4.6c0.5-0.6,1.2-0.9,2-0.9c0.7,0,1.4,0.2,1.8,0.8
						c0.5,0.6,0.7,1.4,0.6,2.1L229.6,97.1z M228.6,96.3c0-0.5-0.1-0.9-0.4-1.3c-0.3-0.3-0.7-0.5-1.1-0.5c-0.4,0-0.9,0.2-1.2,0.5
						c-0.3,0.4-0.5,0.8-0.6,1.3H228.6z"/>
					<path class="st11" d="M230.6,99.7v-1c0.5,0.4,1.1,0.6,1.7,0.6c0.8,0,1.3-0.3,1.3-0.8c0-0.1,0-0.3-0.1-0.4
						c-0.1-0.1-0.2-0.2-0.3-0.3c-0.1-0.1-0.3-0.2-0.4-0.2l-0.5-0.2c-0.2-0.1-0.5-0.2-0.7-0.3c-0.2-0.1-0.4-0.2-0.5-0.4
						c-0.1-0.1-0.2-0.3-0.3-0.5c-0.1-0.2-0.1-0.4-0.1-0.6c0-0.3,0.1-0.5,0.2-0.7c0.1-0.2,0.3-0.4,0.5-0.6c0.2-0.1,0.5-0.3,0.7-0.3
						c0.3-0.1,0.6-0.1,0.9-0.1c0.5,0,1,0.1,1.4,0.3v1c-0.5-0.3-1-0.4-1.5-0.4c-0.2,0-0.3,0-0.5,0.1c-0.1,0-0.3,0.1-0.4,0.2
						c-0.1,0.1-0.2,0.2-0.2,0.3c-0.1,0.1-0.1,0.2-0.1,0.3c0,0.1,0,0.3,0.1,0.4c0.1,0.1,0.1,0.2,0.3,0.3c0.1,0.1,0.3,0.2,0.4,0.2
						l0.5,0.2c0.2,0.1,0.5,0.2,0.7,0.3c0.2,0.1,0.4,0.2,0.5,0.4c0.1,0.1,0.3,0.3,0.3,0.5c0.1,0.2,0.1,0.4,0.1,0.6
						c0,0.3-0.1,0.5-0.2,0.8c-0.1,0.2-0.3,0.4-0.5,0.5c-0.2,0.2-0.5,0.3-0.8,0.3c-0.3,0.1-0.6,0.1-0.9,0.1
						C231.7,100.1,231.1,100,230.6,99.7z"/>
					<path class="st11" d="M235.7,99.7v-1c0.5,0.4,1.1,0.6,1.7,0.6c0.8,0,1.3-0.3,1.3-0.8c0-0.1,0-0.3-0.1-0.4
						c-0.1-0.1-0.2-0.2-0.3-0.3c-0.1-0.1-0.3-0.2-0.4-0.2l-0.5-0.2c-0.3-0.1-0.5-0.2-0.7-0.3c-0.2-0.1-0.4-0.2-0.5-0.4
						c-0.1-0.1-0.2-0.3-0.3-0.5c-0.1-0.2-0.1-0.4-0.1-0.6c0-0.3,0.1-0.5,0.2-0.7c0.1-0.2,0.3-0.4,0.5-0.6c0.2-0.1,0.5-0.3,0.7-0.3
						c0.3-0.1,0.6-0.1,0.9-0.1c0.5,0,1,0.1,1.4,0.3v1c-0.5-0.3-1-0.4-1.5-0.4c-0.2,0-0.3,0-0.5,0.1c-0.1,0-0.3,0.1-0.4,0.2
						c-0.1,0.1-0.2,0.2-0.2,0.3c-0.1,0.1-0.1,0.2-0.1,0.3c0,0.1,0,0.3,0.1,0.4c0.1,0.1,0.1,0.2,0.3,0.3c0.1,0.1,0.3,0.2,0.4,0.2
						l0.5,0.2c0.2,0.1,0.5,0.2,0.7,0.3c0.2,0.1,0.4,0.2,0.5,0.4c0.3,0.3,0.5,0.7,0.5,1.1c0,0.3-0.1,0.5-0.2,0.8
						c-0.1,0.2-0.3,0.4-0.5,0.5c-0.2,0.2-0.5,0.3-0.8,0.3c-0.3,0.1-0.6,0.1-0.9,0.1C236.8,100.1,236.2,100,235.7,99.7z"/>
					<path class="st11" d="M247.3,99.8c-0.3,0.1-0.6,0.2-0.9,0.2c-1.1,0-1.6-0.6-1.6-1.8v-3.5h-1v-0.8h1v-1.5l1-0.3v1.8h1.5v0.8
						h-1.5v3.4c0,0.3,0,0.6,0.2,0.9c0.2,0.2,0.4,0.3,0.7,0.3c0.2,0,0.4-0.1,0.6-0.2L247.3,99.8z"/>
					<path class="st11" d="M250.9,100c-0.8,0-1.6-0.3-2.1-0.8c-0.5-0.6-0.8-1.4-0.8-2.2c0-0.9,0.2-1.7,0.8-2.4
						c0.6-0.6,1.4-0.9,2.2-0.8c0.8,0,1.6,0.3,2.1,0.8c1,1.4,1,3.2-0.1,4.6C252.5,99.8,251.7,100.1,250.9,100z M251,94.5
						c-0.6,0-1.1,0.2-1.5,0.6c-0.4,0.5-0.6,1.1-0.5,1.7c0,0.6,0.2,1.2,0.5,1.7c0.4,0.4,0.9,0.6,1.5,0.6c0.5,0,1.1-0.2,1.4-0.6
						c0.7-1,0.7-2.4,0-3.4C252.1,94.7,251.5,94.5,251,94.5L251,94.5z"/>
					<path class="st11" d="M260.4,99.9H259l-2.6-2.9l0,0v2.9h-1V91h1v5.6l0,0l2.5-2.8h1.3l-2.8,2.9L260.4,99.9z"/>
					<path class="st11" d="M265.9,97.1h-4.2c0,0.6,0.2,1.1,0.5,1.6c0.4,0.4,0.9,0.6,1.4,0.5c0.7,0,1.3-0.2,1.9-0.7v0.9
						c-0.6,0.4-1.4,0.6-2.1,0.6c-0.8,0-1.5-0.3-2-0.8c-0.5-0.7-0.8-1.5-0.7-2.3c0-0.8,0.2-1.6,0.8-2.3c0.5-0.6,1.2-0.9,2-0.9
						c0.7,0,1.4,0.2,1.8,0.8c0.5,0.6,0.7,1.4,0.6,2.1L265.9,97.1z M264.9,96.3c0-0.5-0.1-0.9-0.4-1.3c-0.3-0.3-0.7-0.5-1.1-0.5
						c-0.4,0-0.9,0.2-1.2,0.5c-0.3,0.4-0.5,0.8-0.6,1.3H264.9z"/>
					<path class="st11" d="M272.3,99.9h-1v-3.4c0-1.3-0.5-1.9-1.4-1.9c-0.5,0-0.9,0.2-1.2,0.5c-0.3,0.4-0.5,0.9-0.5,1.4v3.4h-1v-6h1
						v1l0,0c0.4-0.7,1.2-1.2,2-1.1c0.6,0,1.1,0.2,1.5,0.6c0.4,0.5,0.6,1.2,0.5,1.8L272.3,99.9z"/>
				</g>
				<g>
					<path class="st11" d="M212.8,85.7h-1v-3.8h-4.4v3.8h-1v-8.4h1V81h4.4v-3.7h1V85.7z"/>
					<path class="st11" d="M219.8,78.2h-2.4v7.5h-1v-7.5H214v-0.9h5.8L219.8,78.2z"/>
					<path class="st11" d="M226.4,78.2H224v7.5h-1v-7.5h-2.4v-0.9h5.8L226.4,78.2z"/>
					<path class="st11" d="M228.6,82.5v3.2h-1v-8.4h2.3c0.8,0,1.5,0.2,2.1,0.7c0.5,0.5,0.8,1.2,0.7,1.8c0,0.8-0.3,1.5-0.8,2
						c-0.6,0.5-1.4,0.8-2.2,0.8L228.6,82.5z M228.6,78.2v3.4h1c0.6,0,1.1-0.1,1.6-0.5c0.4-0.3,0.6-0.8,0.5-1.3c0-1.1-0.6-1.7-2-1.7
						H228.6z"/>
					<path class="st11" d="M243.9,85.1c-0.9,0.5-1.8,0.7-2.8,0.7c-1.1,0-2.1-0.4-2.9-1.2c-0.8-0.8-1.2-1.9-1.1-3.1
						c0-1.2,0.4-2.3,1.2-3.2c0.8-0.8,2-1.3,3.1-1.3c0.8,0,1.6,0.1,2.3,0.4v1.1c-0.7-0.4-1.6-0.7-2.4-0.7c-0.9,0-1.7,0.3-2.3,1
						c-0.6,0.7-1,1.6-0.9,2.5c-0.1,0.9,0.2,1.8,0.8,2.5c0.6,0.6,1.4,1,2.3,0.9c0.6,0,1.2-0.1,1.7-0.4v-2.3h-1.8v-0.9h2.8L243.9,85.1
						z"/>
					<path class="st11" d="M250.2,85.7h-4.5v-8.4h4.3v0.9h-3.3V81h3v0.9h-3v2.9h3.5V85.7z"/>
					<path class="st11" d="M256.9,78.2h-2.4v7.5h-1v-7.5h-2.4v-0.9h5.8L256.9,78.2z"/>
					<path class="st11" d="M267.3,82.6h-2.4V85h-0.8v-2.4h-2.4v-0.8h2.4v-2.4h0.8v2.4h2.4L267.3,82.6z"/>
				</g>
			</g>
		</g>
	</g>
</g>
<g id="bg">
	<g id="Shapes_1_">
		<rect x="1" class="st1" width="475.7" height="150.2"/>
		<rect x="1" y="0.2" class="st4" width="105" height="150"/>
		<rect x="372" y="0.2" class="st5" width="104.7" height="90"/>
		<rect x="372" y="95.2" class="st6" width="104.7" height="55"/>
		<g>
			<line class="st7" x1="106" y1="15.2" x2="366.6" y2="15.2"/>
			<polygon points="365.5,18.9 372,15.2 365.5,11.5 			"/>
		</g>
		<g>
			<line class="st7" x1="111.4" y1="45.1" x2="372" y2="45.1"/>
			<polygon points="112.5,48.8 106,45.1 112.5,41.3 			"/>
		</g>
		<g>
			<line class="st7" x1="106" y1="105.4" x2="366.6" y2="105.4"/>
			<polygon points="365.5,109.1 372,105.4 365.5,101.6 			"/>
		</g>
		<g>
			<line class="st7" x1="111.4" y1="140.7" x2="372" y2="140.7"/>
			<polygon points="112.5,144.4 106.1,140.7 112.5,136.9 			"/>
		</g>
		
			<use xlink:href="#New_Symbol_44"  width="20" height="20" x="-10" y="-10" transform="matrix(1 0 0 1 169.88 140.2)" style="overflow:visible;"/>
		
			<use xlink:href="#New_Symbol_43"  width="20" height="20" x="-10" y="-10" transform="matrix(1 0 0 1 169.88 105.36)" style="overflow:visible;"/>
		
			<use xlink:href="#New_Symbol_42"  width="20" height="20" x="-10" y="-10" transform="matrix(1 0 0 1 169.88 45.08)" style="overflow:visible;"/>
		
			<use xlink:href="#New_Symbol_41"  width="20" height="20" x="-10" y="-10" transform="matrix(1 0 0 1 169.88 15.2)" style="overflow:visible;"/>
		<g>
			<g>
				<path class="st8" d="M20.5,28.7c0-0.8,0.7-1.5,1.5-1.5c0,0,0,0,0,0h62.9c0.8,0,1.5,0.7,1.5,1.5c0,0,0,0,0,0v37.2
					c0,0.8-0.7,1.5-1.5,1.5c0,0,0,0,0,0H22.1c-0.8,0-1.5-0.7-1.5-1.5c0,0,0,0,0,0L20.5,28.7z M17.1,26.9v40.7c0,1.8,1.5,3.3,3.3,3.3
					l0,0h66.3c1.8,0,3.3-1.4,3.3-3.2c0,0,0,0,0-0.1V26.9c0-1.8-1.5-3.3-3.3-3.3c0,0,0,0,0,0H20.3C18.5,23.6,17,25.1,17.1,26.9
					C17,26.9,17,26.9,17.1,26.9z"/>
				<path class="st8" d="M14.4,74.4h78.3c0.5,0,0.9,0.4,0.9,0.9c0,0,0,0,0,0v2.6c0,0.5-0.4,0.9-0.9,0.9h0H14.4
					c-0.5,0-0.9-0.4-0.9-0.9l0,0v-2.6C13.5,74.8,13.9,74.4,14.4,74.4C14.4,74.4,14.4,74.4,14.4,74.4z"/>
				<path class="st1" d="M44.6,75.9h17.9c0.1,0,0.3,0.1,0.3,0.3v0.7c0,0.1-0.1,0.3-0.3,0.3H44.6c-0.1,0-0.3-0.1-0.3-0.3v-0.7
					C44.3,76,44.4,75.9,44.6,75.9z"/>
			</g>
			<path class="st9" d="M38,36.3l12.7-1.7v12.2L38,46.8V36.3z M50.7,48.2v12.2L38,58.6V48.1L50.7,48.2z M52.2,34.3L69,31.9v14.7
				l-16.8,0.1V34.3z M69,48.3v14.6l-16.8-2.4V48.2L69,48.3z"/>
		</g>
		<polygon class="st10" points="193.6,26.2 186,31.6 188.9,40.5 198.2,40.5 201.1,31.6 		"/>
	</g>
	<g id="Text_1_">
		<g>
			<polygon class="st10" points="193.6,86.5 186,91.9 188.9,100.7 198.2,100.7 201.1,91.9 			"/>
		</g>
	</g>
</g>
<g id="txt">
	<g>
		<rect x="24.1" y="90.1" class="st12" width="59.2" height="46.8"/>
		<path class="st13" d="M39,90.6l-2.5,9.1h-1.6l-1.7-6.4C33,93,33,92.7,33,92.4h0c0,0.4-0.1,0.7-0.2,0.9L31,99.7h-1.6l-2.6-9.1h1.5
			l1.7,6.6c0.1,0.3,0.1,0.6,0.1,1h0c0-0.3,0.1-0.6,0.2-1l1.9-6.6h1.4l1.8,6.7c0.1,0.2,0.1,0.5,0.2,0.9h0c0-0.3,0.1-0.6,0.2-0.9
			l1.6-6.7H39z"/>
		<path class="st13" d="M39.9,91c0-0.2,0.1-0.4,0.2-0.6s0.4-0.2,0.6-0.2c0.2,0,0.4,0.1,0.6,0.2s0.2,0.3,0.2,0.6s-0.1,0.4-0.2,0.6
			s-0.4,0.2-0.6,0.2s-0.4-0.1-0.6-0.2S39.9,91.2,39.9,91z M40.1,99.7v-6.5h1.4v6.5H40.1z"/>
		<path class="st13" d="M49.1,99.7h-1.4V96c0-1.2-0.5-1.9-1.4-1.9c-0.5,0-0.8,0.2-1.1,0.5s-0.4,0.8-0.4,1.3v3.7h-1.4v-6.5h1.4v1.1h0
			c0.5-0.8,1.2-1.2,2.1-1.2c1.4,0,2.2,0.9,2.2,2.7V99.7z"/>
		<path class="st13" d="M56.7,99.7h-1.4v-1h0c-0.5,0.8-1.2,1.2-2.1,1.2c-0.8,0-1.5-0.3-2-0.9s-0.7-1.4-0.7-2.4
			c0-1.1,0.3-1.9,0.8-2.6s1.3-1,2.1-1s1.5,0.3,1.9,1h0v-4h1.4V99.7z M55.3,95.9c0-0.5-0.2-0.9-0.5-1.2s-0.7-0.5-1.2-0.5
			c-0.6,0-1,0.2-1.3,0.6s-0.5,1-0.5,1.7c0,0.7,0.2,1.2,0.5,1.6s0.7,0.6,1.3,0.6c0.5,0,0.9-0.2,1.3-0.6s0.5-0.9,0.5-1.5V95.9z"/>
		<path class="st13" d="M58.2,96.5c0-1.1,0.3-1.9,0.9-2.5s1.4-0.9,2.5-0.9c1,0,1.8,0.3,2.3,0.9s0.9,1.4,0.9,2.4c0,1-0.3,1.9-0.9,2.5
			s-1.4,0.9-2.4,0.9c-1,0-1.8-0.3-2.4-0.9S58.2,97.5,58.2,96.5z M59.6,96.5c0,0.7,0.2,1.3,0.5,1.7s0.8,0.6,1.4,0.6
			c1.2,0,1.9-0.8,1.9-2.3c0-0.7-0.2-1.3-0.5-1.7s-0.8-0.6-1.4-0.6s-1.1,0.2-1.4,0.6S59.6,95.8,59.6,96.5z"/>
		<path class="st13" d="M75,93.2L73,99.7h-1.4l-1.2-4.3c-0.1-0.2-0.1-0.4-0.1-0.7h0c0,0.2-0.1,0.4-0.1,0.7l-1.3,4.4h-1.4l-1.9-6.5
			h1.4l1.2,4.6c0,0.2,0.1,0.4,0.1,0.6h0c0-0.2,0.1-0.4,0.1-0.7l1.4-4.6H71l1.2,4.7c0,0.1,0.1,0.3,0.1,0.6h0c0-0.2,0-0.4,0.1-0.6
			l1.2-4.7H75z"/>
		<path class="st13" d="M75.8,98.2c0.6,0.4,1.2,0.6,1.9,0.6c0.9,0,1.3-0.3,1.3-0.8c0-0.2-0.1-0.4-0.3-0.5s-0.6-0.3-1.2-0.6
			c-0.7-0.3-1.1-0.5-1.3-0.8s-0.3-0.6-0.3-1.1c0-0.6,0.3-1.1,0.8-1.4s1.1-0.5,1.9-0.5c0.6,0,1.1,0.1,1.6,0.3v1.2
			c-0.5-0.3-1-0.5-1.7-0.5c-0.3,0-0.6,0.1-0.8,0.2s-0.3,0.3-0.3,0.6c0,0.2,0.1,0.4,0.2,0.5s0.5,0.3,1.1,0.5c0.7,0.3,1.2,0.5,1.4,0.8
			s0.4,0.7,0.4,1.1c0,0.6-0.3,1.1-0.8,1.4s-1.2,0.5-2,0.5c-0.7,0-1.3-0.1-1.8-0.4V98.2z"/>
		<path class="st13" d="M33.2,104.4l-0.7,2.4v7.8h-1v-5.6c-0.2,0.3-0.4,0.6-0.6,0.9l-0.5-1.2c0.7-1.1,1.3-2.6,1.8-4.6L33.2,104.4z
			 M41,112.6h-1.4v1c0,0.2-0.1,0.4-0.2,0.6s-0.2,0.3-0.4,0.3s-0.5,0.1-0.9,0.1c-0.2,0-0.4,0-0.6,0l-0.4-1c0.2,0,0.4,0,0.6,0
			c0.4,0,0.6,0,0.7,0s0.2-0.1,0.2-0.2v-0.8h-5.5v-0.9h5.5v-0.4h1.1v0.4H41V112.6z M41.1,111l-0.9,0.4l-0.3-0.4
			c-2.7,0.2-4.9,0.3-6.6,0.3l-0.2-0.9c1.1,0,2.2,0,3.4,0v-0.7h-3v-3.5h3v-0.5h-3.2v-0.9h3.2v-0.6h1v0.6h3.4v0.9h-3.4v0.5h2.9v3.5H40
			C40.5,110.2,40.9,110.6,41.1,111z M36.7,113.8l-0.7,0.7c-0.6-0.4-1.2-0.8-1.9-1l0.7-0.8C35.6,113.1,36.3,113.4,36.7,113.8z
			 M36.5,107.5V107h-1.9v0.5H36.5z M36.5,108.9v-0.5h-1.9v0.5H36.5z M39.4,107.5V107h-1.9v0.5H39.4z M39.4,108.9v-0.5h-1.9v0.5H39.4
			z M39.5,109.7h-2v0.6c0.8,0,1.4,0,1.6-0.1c-0.1-0.1-0.2-0.2-0.3-0.2L39.5,109.7z"/>
		<path class="st13" d="M44,111.9c-0.2,1.2-0.4,2.2-0.8,2.9l-0.9-0.4c0.4-0.7,0.6-1.6,0.8-2.6L44,111.9z M46.9,111.1l-0.9,0.3
			c0,0,0-0.3-0.1-0.6c-1.1,0.3-2.1,0.5-3.2,0.7l-0.2-0.8c0.7-0.6,1.4-1.4,2.2-2.5c-0.6,0.1-1.3,0.2-1.9,0.2l-0.1-0.7
			c0.9-1,1.6-2.2,2.1-3.6l1,0.4c-0.5,1.2-1.1,2.2-1.7,3c0.4,0,0.8-0.1,1.1-0.1c0.2-0.4,0.4-0.7,0.6-1.1l0.9,0.5
			c-0.8,1.5-1.7,2.7-2.5,3.6c0.5-0.1,1-0.2,1.4-0.4c-0.1-0.2-0.1-0.4-0.2-0.5l0.8-0.4C46.6,109.8,46.8,110.4,46.9,111.1z
			 M45.6,114.3l-0.9,0.2c0-0.8-0.1-1.6-0.3-2.6l0.8-0.2C45.4,112.7,45.5,113.5,45.6,114.3z M47,113.3l-0.8,0.3
			c-0.1-0.7-0.3-1.3-0.5-1.7l0.8-0.3C46.7,112,46.9,112.6,47,113.3z M53.1,111.9c-0.1,1.3-0.1,1.9-0.2,2.1s-0.2,0.3-0.4,0.4
			s-0.6,0.2-1.2,0.2c-0.5,0-0.9-0.1-1.1-0.2s-0.3-0.5-0.3-1v-4c-0.4,0.1-0.7,0.1-0.9,0.1c0,0.9,0,1.6-0.1,2.2s-0.3,1.2-0.6,1.7
			s-0.7,1-1.3,1.5l-0.8-0.7c0.3-0.2,0.7-0.6,1-1s0.5-0.9,0.6-1.4s0.2-1.2,0.2-2.2l-1.1,0.1l-0.2-0.8c0.7-0.8,1.2-1.7,1.7-2.6h-1.8
			v-1h2.2c0.1-0.2,0.2-0.6,0.4-1.1l1.1,0.2c-0.1,0.4-0.3,0.7-0.4,0.9h3v1h-3.4c-0.3,0.8-0.8,1.5-1.4,2.3c1-0.1,2-0.2,2.8-0.3
			c-0.1-0.2-0.4-0.5-0.6-0.8l0.8-0.6c0.8,1,1.4,1.8,1.8,2.5l-0.9,0.6c-0.2-0.4-0.4-0.7-0.6-0.9l-0.6,0.1v4.2c0,0.2,0.2,0.3,0.5,0.3
			c0.3,0,0.5-0.1,0.5-0.3s0.1-0.8,0.1-1.8L53.1,111.9z"/>
		<path class="st13" d="M65,114.5H54.6v-0.9h4.7v-1.1h-3.9v-1h3.9v-0.8h1.1v0.8h4v1h-4v1.1H65V114.5z M60.9,107.9h-1.4v2.4h-1v-2.4
			h-1.3c-0.1,1.1-0.6,2-1.5,2.9l-0.7-0.7c0.7-0.7,1.2-1.4,1.3-2.1h-1.5V107h1.6v-1.6h-1.4v-1h5.9v1h-1.3v1.6h1.4V107.9z M58.5,107
			v-1.6h-1.2v1.6H58.5z M62.5,108.9h-1v-4.1h1V108.9z M64.6,109.7c0,0.3-0.1,0.5-0.3,0.7s-0.5,0.3-0.8,0.3h-1.5l-0.3-1
			c0.3,0,0.6,0,0.8,0c0.6,0,0.9,0,1-0.1s0.1-0.1,0.1-0.3v-5.1h1V109.7z"/>
		<path class="st13" d="M77,105.8h-8.7v2.5c0.6-0.6,1.2-1.4,1.6-2.4l1,0.2c-0.2,0.5-0.5,1-0.8,1.5v3.8h-1V109l-0.4,0.4l-0.4-1v2.5
			c0,1.4-0.3,2.7-0.9,3.8l-0.9-0.7c0.5-0.9,0.7-2.2,0.7-3.7v-5.5h4.2c-0.1-0.1-0.2-0.3-0.3-0.6l1.2-0.2c0.2,0.3,0.3,0.5,0.4,0.8H77
			V105.8z M70.2,112.2c-0.3,0.8-0.7,1.6-1.2,2.3l-0.9-0.6c0.5-0.7,0.9-1.4,1.1-2.1L70.2,112.2z M76.9,111.4H71V109
			c-0.1,0.1-0.2,0.2-0.3,0.3l-0.4-1c0.7-0.7,1.2-1.5,1.6-2.4l1,0.3c-0.1,0.2-0.2,0.4-0.3,0.6h1.2c-0.1-0.2-0.2-0.4-0.3-0.6l1.1-0.2
			c0.1,0.2,0.3,0.5,0.4,0.8h1.9v0.8h-2.1v0.5h2v0.7h-2v0.5h2v0.8h-2v0.5h2.2V111.4z M75.2,113.2c-0.1,0.9-0.5,1.4-1.2,1.4l-2.4,0
			c-0.6,0-1-0.3-1-0.9v-1.8h1v1.5c0,0.1,0,0.2,0.1,0.2s0.4,0.1,0.9,0.1c0.8,0,1.2,0,1.3-0.1s0.1-0.2,0.2-0.3s0.1-0.3,0.1-0.4
			L75.2,113.2z M73.7,108.1v-0.5H72l-0.1,0.1v0.4H73.7z M73.7,109.3v-0.5H72v0.5H73.7z M73.7,110.6v-0.5H72v0.5H73.7z M74,112.8
			l-0.9,0.4c-0.2-0.4-0.5-0.8-0.9-1.3l0.9-0.4C73.4,111.9,73.7,112.4,74,112.8z M77.1,113.7l-0.9,0.5c-0.4-0.7-0.8-1.3-1.4-2
			l0.9-0.5C76.1,112.2,76.5,112.9,77.1,113.7z"/>
		<path class="st13" d="M46.4,127.9c0,0.3-0.1,0.6-0.4,0.8s-0.6,0.4-1.2,0.4c-0.3,0-0.5,0-0.8,0l-0.3-1.1l1.3,0c0.1,0,0.2,0,0.3-0.1
			s0.1-0.2,0.1-0.3v-2.2h-3v3.4h-1v-3.4h-2.9c-0.1,1.5-0.5,2.8-1.1,3.7l-0.9-0.6c0.3-0.5,0.6-1.2,0.8-2s0.3-1.6,0.3-2.4v-5.3h8.9
			V127.9z M41.4,121.7v-1.7h-2.8v1.7H41.4z M41.4,124.5v-1.8h-2.8v1.8H41.4z M45.4,121.7v-1.7h-3v1.7H45.4z M45.4,124.5v-1.8h-3v1.8
			H45.4z"/>
		<path class="st13" d="M52.7,124.6l-0.7,0.7c-0.2-0.4-0.4-0.8-0.7-1.2v5h-1v-4.3c-0.3,0.6-0.7,1.3-1.2,2l-0.6-1
			c0.7-0.8,1.3-1.9,1.8-3.2h-1.7v-1h1.8V120c-0.6,0.1-1,0.2-1.3,0.2l-0.4-0.9c1.4-0.1,2.6-0.4,3.5-0.8l0.5,0.9
			c-0.4,0.2-0.8,0.3-1.2,0.4v1.7h1.3v1h-1.3v0.3C51.9,123.5,52.4,124.1,52.7,124.6z M59,129h-6.8v-1h2.9v-1.5h-2.5v-1h2.5v-1.2
			c-1,0.1-1.7,0.1-2.2,0.1l-0.4-0.9c2.3-0.1,4.2-0.3,5.8-0.6l0.4,0.9c-0.9,0.2-1.8,0.4-2.6,0.4v1.3h2.5v1h-2.5v1.5H59V129z
			 M58.4,122.5H53v-3.6h5.3V122.5z M57.3,121.5v-1.6h-3.1v1.6H57.3z"/>
		<path class="st13" d="M71,126.5c-0.1,1.7-0.6,2.6-1.5,2.6c-0.7,0-1.4-0.7-1.9-2.1s-0.8-3.2-0.9-5.5h-6.1v-1h6.1c0-0.8-0.1-1.5,0-2
			h1.1c0,0.5,0,1.1,0,2H71v1h-3.2c0,2.3,0.3,3.9,0.7,4.9s0.8,1.5,1,1.5c0.2,0,0.4-0.7,0.5-2.1L71,126.5z M66.6,127.3
			c-2.2,0.6-4.1,0.9-5.6,1.1l-0.2-1c0.7-0.1,1.5-0.2,2.3-0.4v-3.2h-1.9v-1h5.1v1h-2.1v2.9c1-0.2,1.8-0.4,2.4-0.6L66.6,127.3z
			 M70.6,119.8l-0.8,0.7c-0.5-0.5-1-0.8-1.5-1l0.8-0.7C69.8,119,70.3,119.4,70.6,119.8z"/>
	</g>
	<g>
		<g>
			<path class="st14" d="M214,87h-1v-4.2h-4.8V87h-1v-9.1h1v4h4.8v-4h1V87z"/>
			<path class="st14" d="M221.6,78.8H219V87h-1v-8.2h-2.6v-0.9h6.2V78.8z"/>
			<path class="st14" d="M228.5,78.8h-2.6V87h-1v-8.2h-2.6v-0.9h6.2V78.8z"/>
			<path class="st14" d="M230.9,83.6V87h-1v-9.1h2.4c0.9,0,1.7,0.2,2.2,0.7s0.8,1.1,0.8,2c0,0.9-0.3,1.6-0.9,2.2s-1.4,0.8-2.3,0.8
				H230.9z M230.9,78.8v3.8h1.1c0.7,0,1.3-0.2,1.7-0.5s0.6-0.8,0.6-1.4c0-1.2-0.7-1.8-2.2-1.8H230.9z"/>
			<path class="st14" d="M246.7,86.4c-0.9,0.5-1.9,0.8-3,0.8c-1.3,0-2.3-0.4-3.1-1.3s-1.2-1.9-1.2-3.3c0-1.4,0.4-2.5,1.3-3.5
				s2-1.4,3.4-1.4c1,0,1.8,0.2,2.5,0.5v1.1c-0.7-0.5-1.6-0.7-2.6-0.7c-1,0-1.9,0.4-2.5,1.1s-1,1.6-1,2.8c0,1.2,0.3,2.1,0.9,2.7
				s1.4,1,2.5,1c0.7,0,1.4-0.1,1.9-0.4v-2.6h-2v-0.9h3V86.4z"/>
			<path class="st14" d="M253.5,87h-4.8v-9.1h4.6v0.9h-3.6v3.1h3.3v0.9h-3.3v3.2h3.8V87z"/>
			<path class="st14" d="M260.5,78.8h-2.6V87h-1v-8.2h-2.6v-0.9h6.2V78.8z"/>
			<path class="st14" d="M271,83.6h-2.6v2.6h-0.8v-2.6h-2.6v-0.8h2.6v-2.6h0.8v2.6h2.6V83.6z"/>
			<path class="st14" d="M217.3,93.3H211c-0.4,0.9-1,1.7-1.6,2.5v6h-0.7v-5.2c-0.6,0.6-1.2,1.1-1.7,1.4l-0.2-0.6
				c1.5-1.2,2.7-2.5,3.5-4.2h-3.5v-0.6h3.8c0.2-0.4,0.4-0.8,0.6-1.4l0.6,0.2c-0.2,0.5-0.4,0.9-0.6,1.2h5.9V93.3z M217.3,98.5h-3v2.4
				c0,0.2-0.1,0.4-0.2,0.5s-0.2,0.3-0.4,0.3s-0.5,0.1-1.1,0.1c-0.3,0-0.6,0-0.9,0l-0.3-0.6c0.3,0,0.6,0,1,0c0.6,0,1,0,1.1-0.1
				s0.2-0.1,0.2-0.2v-2.3H210v-0.6h3.6V97c0.6-0.4,1.2-0.9,1.9-1.6h-4.7v-0.6h5.6v0.6c-0.8,0.8-1.5,1.4-2.2,1.8v0.6h3V98.5z"/>
			<path class="st14" d="M224.4,92.1h-1v9.8h-0.6v-2.5c-1,0.4-2.3,0.7-3.9,1.1l-0.2-0.6l1.1-0.2v-7.6h-1.1v-0.6h5.7V92.1z M222.8,94
				v-1.9h-2.4V94H222.8z M222.8,96.5v-1.9h-2.4v1.9H222.8z M222.8,98.8v-1.6h-2.4v2.4C221.1,99.3,221.9,99.1,222.8,98.8z
				 M229.2,101.3l-0.4,0.5c-0.8-0.7-1.5-1.4-2.1-2.2c-0.7,0.9-1.5,1.6-2.3,2.2l-0.4-0.5c0.8-0.6,1.6-1.3,2.3-2.3
				c-1-1.7-1.6-3.7-1.8-6h-0.4v-0.6h4.6c0,2.6-0.6,4.8-1.7,6.6c0.1,0.3,0.5,0.7,0.9,1.2S228.9,101.1,229.2,101.3z M228.1,93.1h-2.9
				c0.1,2,0.6,3.8,1.5,5.4C227.5,97,228,95.2,228.1,93.1z"/>
			<path class="st14" d="M234.4,96.5l-0.4,0.5c-0.2-0.4-0.5-0.8-0.9-1.3v6.1h-0.6v-6.1c-0.4,1.1-0.9,2-1.4,2.8l-0.4-0.5
				c0.7-1.1,1.3-2.4,1.8-3.8h-1.6v-0.6h1.7v-2.3h0.6v2.3h1.1v0.6H233v0.7C233.6,95.5,234,96,234.4,96.5z M241.1,101.3h-5.6v0.5h-0.6
				v-4c-0.3,0.3-0.6,0.6-0.9,0.9l-0.4-0.5c0.8-0.6,1.5-1.5,2-2.4l0.6,0.2c-0.1,0.2-0.3,0.5-0.4,0.7h2.1c-0.1-0.1-0.2-0.3-0.3-0.5
				l0.6-0.3c0.2,0.2,0.3,0.5,0.5,0.7h2.2v0.5h-2.5v0.8h2.2v0.5h-2.2v0.8h2.2v0.5h-2.2v0.9h2.8V101.3z M237,93.3h-0.6v-0.5h-2.2v-0.6
				h2.2v-0.8h0.6V93.3z M237.3,95.6h-2.6v-2h2.6V95.6z M236.7,95v-0.9h-1.5V95H236.7z M237.7,97.9v-0.8h-2.2v0.8H237.7z M237.7,99.3
				v-0.8h-2.2v0.8H237.7z M237.7,100.7v-0.9h-2.2v0.9H237.7z M240.7,95.6h-2.6v-2h2.6V95.6z M241.1,92.7H239v0.5h-0.6v-1.9h0.6v0.8
				h2.1V92.7z M240.1,95v-0.9h-1.5V95H240.1z"/>
			<path class="st14" d="M247,96.9l-0.4,0.5c-0.5-0.7-1-1.3-1.4-1.7v6.1h-0.6v-6c-0.5,1.2-1.1,2.2-1.7,3l-0.4-0.5
				c0.8-1,1.5-2.4,2.1-4.1h-1.9v-0.6h1.9v-2.4h0.6v2.4h1.4v0.6h-1.4v0.6C245.9,95.6,246.5,96.2,247,96.9z M253.1,101.4l-0.4,0.5
				c-1.3-0.6-2.4-1.2-3.2-2c-0.9,0.9-2,1.5-3.3,1.9l-0.4-0.6c1.4-0.4,2.5-1,3.3-1.8c-0.8-1.1-1.3-2.5-1.6-4.2l0.6-0.1
				c0.3,1.6,0.7,2.9,1.4,3.8c0.6-1,0.9-2.6,1-4.8h-3.3v-0.6h3.4c0-0.8,0-1.5,0-2.2h0.6c0,1,0,1.7,0,2.2h1.8v0.6h-1.9
				c0,2.4-0.4,4.2-1.1,5.3C250.7,100.2,251.8,100.8,253.1,101.4z"/>
		</g>
	</g>
	<g>
		<rect x="395.6" y="25.3" class="st12" width="57.1" height="38.6"/>
		<path class="st15" d="M405.5,34.9v-5.9c0-0.5,0-1.1,0.1-1.8h0c-0.1,0.5-0.2,0.8-0.3,1l-2.8,6.7h-0.9l-2.8-6.6
			c-0.1-0.2-0.2-0.5-0.3-1h0c0,0.5,0.1,1.2,0.1,2v5.7h-1.3v-9.1h2l2.5,6c0.2,0.5,0.3,0.9,0.4,1.2h0c0.1-0.2,0.2-0.6,0.4-1.2l2.5-6
			h1.9v9.1H405.5z"/>
		<path class="st15" d="M408.9,26.2c0-0.2,0.1-0.4,0.2-0.6s0.4-0.2,0.6-0.2c0.2,0,0.4,0.1,0.6,0.2s0.2,0.3,0.2,0.6s-0.1,0.4-0.2,0.6
			S410,27,409.7,27s-0.4-0.1-0.6-0.2S408.9,26.4,408.9,26.2z M409,34.9v-6.5h1.4v6.5H409z"/>
		<path class="st15" d="M416.9,34.6c-0.5,0.3-1.1,0.4-1.8,0.4c-0.9,0-1.7-0.3-2.3-0.9s-0.9-1.4-0.9-2.3c0-1.1,0.3-1.9,0.9-2.6
			s1.5-1,2.5-1c0.6,0,1.2,0.1,1.6,0.3v1.3c-0.5-0.3-1-0.5-1.5-0.5c-0.6,0-1.1,0.2-1.5,0.6s-0.6,1-0.6,1.7c0,0.7,0.2,1.2,0.6,1.6
			s0.9,0.6,1.5,0.6c0.5,0,1.1-0.2,1.5-0.5V34.6z"/>
		<path class="st15" d="M422.1,29.8c-0.2-0.1-0.5-0.2-0.8-0.2c-0.4,0-0.8,0.2-1.1,0.6s-0.4,0.9-0.4,1.6v3.2h-1.4v-6.5h1.4v1.3h0
			c0.3-0.9,0.9-1.4,1.7-1.4c0.2,0,0.4,0,0.6,0.1V29.8z"/>
		<path class="st15" d="M422.6,31.7c0-1.1,0.3-1.9,0.9-2.5s1.4-0.9,2.5-0.9c1,0,1.8,0.3,2.3,0.9s0.9,1.4,0.9,2.4
			c0,1-0.3,1.9-0.9,2.5s-1.4,0.9-2.4,0.9c-1,0-1.8-0.3-2.4-0.9S422.6,32.8,422.6,31.7z M424,31.7c0,0.7,0.2,1.3,0.5,1.7
			s0.8,0.6,1.4,0.6c1.2,0,1.9-0.8,1.9-2.3c0-0.7-0.2-1.3-0.5-1.7s-0.8-0.6-1.4-0.6s-1.1,0.2-1.4,0.6S424,31,424,31.7z"/>
		<path class="st15" d="M430.4,33.4c0.6,0.4,1.2,0.6,1.9,0.6c0.9,0,1.3-0.3,1.3-0.8c0-0.2-0.1-0.4-0.3-0.5s-0.6-0.3-1.2-0.6
			c-0.7-0.3-1.1-0.5-1.3-0.8s-0.3-0.6-0.3-1.1c0-0.6,0.3-1.1,0.8-1.4s1.1-0.5,1.9-0.5c0.6,0,1.1,0.1,1.6,0.3v1.2
			c-0.5-0.3-1-0.5-1.7-0.5c-0.3,0-0.6,0.1-0.8,0.2s-0.3,0.3-0.3,0.6c0,0.2,0.1,0.4,0.2,0.5s0.5,0.3,1.1,0.5c0.7,0.3,1.2,0.5,1.4,0.8
			s0.4,0.7,0.4,1.1c0,0.6-0.3,1.1-0.8,1.4s-1.2,0.5-2,0.5c-0.7,0-1.3-0.1-1.8-0.4V33.4z"/>
		<path class="st15" d="M435.9,31.7c0-1.1,0.3-1.9,0.9-2.5s1.4-0.9,2.5-0.9c1,0,1.8,0.3,2.3,0.9s0.9,1.4,0.9,2.4
			c0,1-0.3,1.9-0.9,2.5s-1.4,0.9-2.4,0.9c-1,0-1.8-0.3-2.4-0.9S435.9,32.8,435.9,31.7z M437.3,31.7c0,0.7,0.2,1.3,0.5,1.7
			s0.8,0.6,1.4,0.6c1.2,0,1.9-0.8,1.9-2.3c0-0.7-0.2-1.3-0.5-1.7s-0.8-0.6-1.4-0.6s-1.1,0.2-1.4,0.6S437.3,31,437.3,31.7z"/>
		<path class="st15" d="M447.4,26.5c-0.2-0.1-0.5-0.2-0.7-0.2c-0.7,0-1,0.4-1,1.3v0.9h1.5v1.1h-1.5v5.4h-1.4v-5.4h-1.1v-1.1h1.1v-1
			c0-0.7,0.2-1.3,0.6-1.7s1-0.6,1.6-0.6c0.3,0,0.6,0,0.8,0.1V26.5z"/>
		<path class="st15" d="M451.8,34.9c-0.3,0.1-0.6,0.2-1.1,0.2c-1.2,0-1.8-0.7-1.8-2v-3.5h-1.1v-1.1h1.1v-1.5l1.4-0.4v1.9h1.6v1.1
			h-1.6v3.3c0,0.4,0.1,0.7,0.2,0.9s0.4,0.3,0.7,0.3c0.2,0,0.5-0.1,0.7-0.2V34.9z"/>
		<path class="st15" d="M411.5,44.3c-0.4,0.5-1,1-1.6,1.5v2.9c0,0.4-0.1,0.7-0.3,0.8s-0.4,0.3-0.8,0.3s-1,0.1-2.1,0.1l-0.3-1
			c0.3,0,0.7,0,1,0c0.7,0,1.1,0,1.2-0.1s0.1-0.1,0.1-0.3v-2.1c-1.6,1.2-4.1,2.3-7.4,3.3l-0.5-0.9c2.3-0.6,4.6-1.5,6.9-2.6
			c-2,0.2-4.2,0.4-6.6,0.6l-0.3-1c0.1,0,0.5,0,1.2,0v-5.3h1.5c0.3-0.3,0.5-0.6,0.8-1.1l1.1,0.2c-0.2,0.3-0.4,0.6-0.6,0.8h4.8v4.1
			c0.3-0.2,0.6-0.6,1-1L411.5,44.3z M408.8,42.1v-0.8h-5.5v0.8H408.8z M408.8,43.7v-0.8h-5.5v0.8H408.8z M408.8,45.2v-0.6h-5.5v1.1
			C405.1,45.6,406.9,45.4,408.8,45.2z"/>
		<path class="st15" d="M417.2,39.8c-0.3,0.8-0.8,1.7-1.5,2.6s-1.4,1.7-2.2,2.2l-0.7-0.8c1.5-1,2.7-2.5,3.5-4.5L417.2,39.8z
			 M421.6,43.8c0,1.1,0,2.2-0.1,3.3s-0.2,1.8-0.3,2s-0.3,0.5-0.5,0.6s-0.5,0.2-0.8,0.2c-0.7,0-1.3,0-1.5,0l-0.4-1.1
			c0.6,0,1.1,0.1,1.8,0.1c0.1,0,0.3,0,0.4-0.1s0.2-0.6,0.3-1.5s0.1-1.7,0.1-2.5h-2.6c-0.3,2.4-1.6,4.1-3.8,5.2l-0.8-0.8
			c0.8-0.3,1.6-0.9,2.3-1.6s1.1-1.7,1.2-2.8h-1.9v-1.1H421.6z M423.5,43.8l-0.7,0.9c-1.5-1.3-2.5-2.6-3-4.1h-1.1v-1h1.8
			C421,41.3,422,42.7,423.5,43.8z"/>
		<path class="st15" d="M428.4,41.4H425v-1h1.3c-0.1-0.3-0.2-0.6-0.4-0.9l1.1-0.3c0.1,0.2,0.3,0.6,0.5,1.2h0.9V41.4z M428.1,49.7h-1
			v-0.5h-0.9v0.7h-1v-4.1h2.9V49.7z M428.1,45h-2.9V44h2.9V45z M428.1,43.2h-2.9v-0.9h2.9V43.2z M427.1,48.2v-1.4h-0.9v1.4H427.1z
			 M435.5,47.8c0,0.4-0.1,0.9-0.3,1.3s-0.3,0.7-0.5,0.8s-0.3,0.1-0.4,0.1c-0.5,0-0.9-0.5-1.1-1.4c-0.5,0.6-1,1-1.4,1.3l-0.7-0.7
			c0.3-0.2,0.5-0.4,0.8-0.7h-3v-4.4h3.2v4.2c0.3-0.3,0.6-0.6,0.8-0.9c-0.1-1.1-0.2-2.4-0.2-3.8h-4.2v-0.9h0.9
			c-0.1-0.5-0.2-0.9-0.4-1.4h-0.3v-0.9h1.3c-0.1-0.2-0.2-0.5-0.4-0.8l1.1-0.3c0.2,0.3,0.3,0.7,0.4,1.1h1.2v0.9h-0.3
			c-0.1,0.5-0.2,0.9-0.4,1.4h1c0-1.7,0-2.8,0-3.3l1,0c0,0.9-0.1,2-0.1,3.3h1.7v0.9h-1.7c0,1,0,1.7,0.1,2.3c0.2-0.5,0.4-1.1,0.6-1.9
			l0.9,0.4c-0.4,1.4-0.8,2.4-1.3,3.2c0.1,0.5,0.2,0.9,0.4,1.1c0.1-0.2,0.3-0.7,0.3-1.5L435.5,47.8z M431.1,45.9v-0.8h-1.3v0.8H431.1
			z M431.1,47.7v-0.9h-1.3v0.9H431.1z M431.1,41.4h-1c0.1,0.4,0.3,0.9,0.4,1.4h0.3C430.9,42.3,431,41.8,431.1,41.4z M435.4,42.1
			l-0.9,0.4c-0.1-0.7-0.3-1.4-0.6-2.2l0.8-0.4C435.1,40.5,435.3,41.2,435.4,42.1z"/>
		<path class="st15" d="M442.9,44.9c-0.1,2.4-0.2,3.9-0.5,4.3s-0.7,0.7-1.4,0.7c-0.3,0-0.6,0-1,0l-0.3-1c0.7,0,1.1,0,1.4,0
			c0.3,0,0.5-0.2,0.6-0.6s0.1-1.2,0.2-2.4h-2.3c-0.3,1.8-0.9,3.1-1.8,4l-0.8-0.7c1.2-1.2,1.8-3.1,1.8-5.7h-1v-4h5.2v4h-3.1
			c0,0.5,0,0.9-0.1,1.3H442.9z M441.7,42.6v-1.9h-3v1.9H441.7z M444.9,47.8h-1.1v-7.5h1.1V47.8z M447.1,48.5c0,0.6-0.1,0.9-0.3,1.1
			s-0.6,0.3-1,0.3c-0.6,0-1,0-1.3,0l-0.3-1c0.4,0,0.9,0,1.5,0c0.1,0,0.2,0,0.3-0.1s0.1-0.2,0.1-0.3v-9h1.1V48.5z"/>
		<path class="st15" d="M423.4,60.6h-4.7v3.7h-1.1v-3.7h-4.7v-1.1h4.7v-4.3h-4.4v-1.1h9.9v1.1h-4.4v4.3h4.7V60.6z M416.4,58.6
			l-1,0.5c-0.3-0.9-0.9-1.8-1.5-2.8l1-0.5C415.4,56.6,415.9,57.6,416.4,58.6z M422.6,56.3c-0.5,1.1-1.1,2.1-1.7,2.8l-1-0.5
			c0.6-0.7,1.1-1.6,1.7-2.8L422.6,56.3z"/>
		<path class="st15" d="M435.5,58.2l-0.9,0.7c-0.2-0.4-0.5-0.7-0.7-1.1c-3.1,0.4-5.9,0.6-8.6,0.7l-0.3-1c1.1-0.4,2.4-1.6,3.7-3.8
			L430,54c-0.8,1.3-1.7,2.4-2.8,3.4c1.6-0.1,3.5-0.2,5.9-0.5c-0.5-0.5-1.1-1.1-1.8-1.7l0.9-0.7C433.6,55.8,434.7,57,435.5,58.2z
			 M434.4,64.3h-1.1v-0.5H427v0.5H426v-5h8.5V64.3z M433.4,62.7v-2.3H427v2.3H433.4z"/>
	</g>
	<g>
		<rect x="391.6" y="110.4" class="st12" width="64.5" height="30.5"/>
		<path class="st16" d="M405.2,119.9v-5.9c0-0.5,0-1.1,0.1-1.8h0c-0.1,0.5-0.2,0.8-0.3,1l-2.8,6.7h-0.9l-2.8-6.6
			c-0.1-0.2-0.2-0.5-0.3-1h0c0,0.5,0.1,1.2,0.1,2v5.7H397v-9.1h2l2.5,6c0.2,0.5,0.3,0.9,0.4,1.2h0c0.1-0.2,0.2-0.6,0.4-1.2l2.5-6
			h1.9v9.1H405.2z"/>
		<path class="st16" d="M408.6,111.2c0-0.2,0.1-0.4,0.2-0.6s0.4-0.2,0.6-0.2c0.2,0,0.4,0.1,0.6,0.2s0.2,0.3,0.2,0.6
			s-0.1,0.4-0.2,0.6s-0.4,0.2-0.6,0.2s-0.4-0.1-0.6-0.2S408.6,111.5,408.6,111.2z M408.7,119.9v-6.5h1.4v6.5H408.7z"/>
		<path class="st16" d="M416.7,119.7c-0.5,0.3-1.1,0.4-1.8,0.4c-0.9,0-1.7-0.3-2.3-0.9s-0.9-1.4-0.9-2.3c0-1.1,0.3-1.9,0.9-2.6
			s1.5-1,2.5-1c0.6,0,1.2,0.1,1.6,0.3v1.3c-0.5-0.3-1-0.5-1.5-0.5c-0.6,0-1.1,0.2-1.5,0.6s-0.6,1-0.6,1.7c0,0.7,0.2,1.2,0.6,1.6
			s0.9,0.6,1.5,0.6c0.5,0,1.1-0.2,1.5-0.5V119.7z"/>
		<path class="st16" d="M421.8,114.8c-0.2-0.1-0.5-0.2-0.8-0.2c-0.4,0-0.8,0.2-1.1,0.6s-0.4,0.9-0.4,1.6v3.2h-1.4v-6.5h1.4v1.3h0
			c0.3-0.9,0.9-1.4,1.7-1.4c0.2,0,0.4,0,0.6,0.1V114.8z"/>
		<path class="st16" d="M422.3,116.8c0-1.1,0.3-1.9,0.9-2.5s1.4-0.9,2.5-0.9c1,0,1.8,0.3,2.3,0.9s0.9,1.4,0.9,2.4
			c0,1-0.3,1.9-0.9,2.5s-1.4,0.9-2.4,0.9c-1,0-1.8-0.3-2.4-0.9S422.3,117.8,422.3,116.8z M423.7,116.7c0,0.7,0.2,1.3,0.5,1.7
			s0.8,0.6,1.4,0.6c1.2,0,1.9-0.8,1.9-2.3c0-0.7-0.2-1.3-0.5-1.7s-0.8-0.6-1.4-0.6s-1.1,0.2-1.4,0.6S423.7,116,423.7,116.7z"/>
		<path class="st16" d="M430.1,118.4c0.6,0.4,1.2,0.6,1.9,0.6c0.9,0,1.3-0.3,1.3-0.8c0-0.2-0.1-0.4-0.3-0.5s-0.6-0.3-1.2-0.6
			c-0.7-0.3-1.1-0.5-1.3-0.8s-0.3-0.6-0.3-1.1c0-0.6,0.3-1.1,0.8-1.4s1.1-0.5,1.9-0.5c0.6,0,1.1,0.1,1.6,0.3v1.2
			c-0.5-0.3-1-0.5-1.7-0.5c-0.3,0-0.6,0.1-0.8,0.2s-0.3,0.3-0.3,0.6c0,0.2,0.1,0.4,0.2,0.5s0.5,0.3,1.1,0.5c0.7,0.3,1.2,0.5,1.4,0.8
			s0.4,0.7,0.4,1.1c0,0.6-0.3,1.1-0.8,1.4s-1.2,0.5-2,0.5c-0.7,0-1.3-0.1-1.8-0.4V118.4z"/>
		<path class="st16" d="M435.7,116.8c0-1.1,0.3-1.9,0.9-2.5s1.4-0.9,2.5-0.9c1,0,1.8,0.3,2.3,0.9s0.9,1.4,0.9,2.4
			c0,1-0.3,1.9-0.9,2.5s-1.4,0.9-2.4,0.9c-1,0-1.8-0.3-2.4-0.9S435.7,117.8,435.7,116.8z M437.1,116.7c0,0.7,0.2,1.3,0.5,1.7
			s0.8,0.6,1.4,0.6c1.2,0,1.9-0.8,1.9-2.3c0-0.7-0.2-1.3-0.5-1.7s-0.8-0.6-1.4-0.6s-1.1,0.2-1.4,0.6S437.1,116,437.1,116.7z"/>
		<path class="st16" d="M447.1,111.5c-0.2-0.1-0.5-0.2-0.7-0.2c-0.7,0-1,0.4-1,1.3v0.9h1.5v1.1h-1.5v5.4H444v-5.4h-1.1v-1.1h1.1v-1
			c0-0.7,0.2-1.3,0.6-1.7s1-0.6,1.6-0.6c0.3,0,0.6,0,0.8,0.1V111.5z"/>
		<path class="st16" d="M451.5,119.9c-0.3,0.1-0.6,0.2-1.1,0.2c-1.2,0-1.8-0.7-1.8-2v-3.5h-1.1v-1.1h1.1v-1.5l1.4-0.4v1.9h1.6v1.1
			h-1.6v3.3c0,0.4,0.1,0.7,0.2,0.9s0.4,0.3,0.7,0.3c0.2,0,0.5-0.1,0.7-0.2V119.9z"/>
		<path class="st16" d="M402.7,133.7c-0.9,0.5-2,0.8-3.1,0.8c-1.4,0-2.4-0.4-3.3-1.2s-1.2-1.9-1.2-3.3c0-1.4,0.5-2.6,1.4-3.5
			s2.1-1.4,3.5-1.4c1,0,1.8,0.2,2.5,0.5v1.4c-0.7-0.4-1.6-0.7-2.6-0.7c-1,0-1.7,0.3-2.3,1s-0.9,1.5-0.9,2.5c0,1.1,0.3,1.9,0.8,2.5
			s1.3,0.9,2.3,0.9c0.6,0,1.2-0.1,1.6-0.4v-2.3h-1.9v-1.2h3.3V133.7z"/>
		<path class="st16" d="M408.2,129.2c-0.2-0.1-0.5-0.2-0.8-0.2c-0.4,0-0.8,0.2-1.1,0.6s-0.4,0.9-0.4,1.6v3.2h-1.4v-6.5h1.4v1.3h0
			c0.3-0.9,0.9-1.4,1.7-1.4c0.2,0,0.4,0,0.6,0.1V129.2z"/>
		<path class="st16" d="M409.4,128.3c0.7-0.4,1.4-0.6,2.3-0.6c1.6,0,2.5,0.8,2.5,2.5v4.1h-1.3v-1h0c-0.4,0.8-1.1,1.1-2,1.1
			c-0.6,0-1.1-0.2-1.5-0.5s-0.5-0.8-0.5-1.4c0-1.2,0.7-1.9,2.2-2.1l1.9-0.3c0-1-0.4-1.4-1.3-1.4c-0.8,0-1.5,0.3-2.1,0.8V128.3z
			 M411.4,131.3c-0.5,0.1-0.8,0.2-1,0.4s-0.3,0.4-0.3,0.8c0,0.3,0.1,0.5,0.3,0.7s0.5,0.3,0.8,0.3c0.5,0,0.8-0.2,1.1-0.5
			s0.5-0.7,0.5-1.2v-0.6L411.4,131.3z"/>
		<path class="st16" d="M417.4,133.5v3.9H416v-9.5h1.4v1.1h0c0.5-0.8,1.2-1.2,2.2-1.2c0.8,0,1.5,0.3,1.9,0.9s0.7,1.4,0.7,2.3
			c0,1.1-0.3,1.9-0.8,2.6s-1.3,1-2.2,1C418.5,134.5,417.8,134.2,417.4,133.5L417.4,133.5z M417.4,131.6c0,0.5,0.2,0.9,0.5,1.3
			s0.7,0.5,1.2,0.5c0.6,0,1-0.2,1.3-0.7s0.5-1,0.5-1.8c0-0.7-0.1-1.2-0.4-1.5s-0.7-0.5-1.2-0.5s-1,0.2-1.3,0.6s-0.5,0.9-0.5,1.5
			V131.6z"/>
		<path class="st16" d="M429.5,134.3h-1.4v-3.7c0-1.2-0.4-1.8-1.3-1.8c-0.5,0-0.8,0.2-1.1,0.5s-0.5,0.8-0.5,1.3v3.7h-1.4v-9.6h1.4
			v4.1h0c0.5-0.8,1.2-1.2,2.1-1.2c1.5,0,2.2,0.9,2.2,2.6V134.3z"/>
		<path class="st16" d="M441.8,134.3h-1.5l-0.8-2.4h-3.6l-0.8,2.4h-1.5l3.4-9.1h1.6L441.8,134.3z M439,130.8l-1.3-3.6
			c0-0.1-0.1-0.4-0.1-0.7h0c0,0.3-0.1,0.5-0.1,0.7l-1.3,3.6H439z"/>
		<path class="st16" d="M444.5,131v3.3h-1.4v-9.1h2.7c1,0,1.8,0.2,2.4,0.7s0.8,1.2,0.8,2.1c0,0.9-0.3,1.6-1,2.2s-1.5,0.8-2.4,0.8
			H444.5z M444.5,126.4v3.4h1c1.4,0,2-0.6,2-1.7c0-1.1-0.7-1.7-2-1.7H444.5z"/>
		<path class="st16" d="M452,126.4L452,126.4v6.8v0v1.1h-1.4v-1.1v0v-6.8v0v-1.1h1.4V126.4z"/>
	</g>
	<g>
		<path class="st14" d="M192.4,1.5h-1v9.8h-0.6V8.8c-1,0.4-2.3,0.7-3.9,1.1l-0.2-0.6l1.1-0.2V1.5h-1.1V0.9h5.7V1.5z M190.8,3.3V1.5
			h-2.4v1.9H190.8z M190.8,5.9V3.9h-2.4v1.9H190.8z M190.8,8.1V6.5h-2.4v2.4C189.1,8.7,189.9,8.4,190.8,8.1z M197.2,10.7l-0.4,0.5
			c-0.8-0.7-1.5-1.4-2.1-2.2c-0.7,0.9-1.5,1.6-2.3,2.2l-0.4-0.5c0.8-0.6,1.6-1.3,2.3-2.3c-1-1.7-1.6-3.7-1.8-6h-0.4V1.9h4.6
			c0,2.6-0.6,4.8-1.7,6.6c0.1,0.3,0.5,0.7,0.9,1.2S196.8,10.5,197.2,10.7z M196.1,2.5h-2.9c0.1,2,0.6,3.8,1.5,5.4
			C195.5,6.4,195.9,4.6,196.1,2.5z"/>
		<path class="st14" d="M201.7,3.5c-0.2,0.4-0.5,1-0.9,1.7v6h-0.6V6c-0.4,0.5-0.8,1-1.2,1.3l-0.4-0.5c1.1-1,2-2.2,2.6-3.6L201.7,3.5
			z M201.6,0.9c-0.7,1.2-1.5,2.1-2.5,2.7l-0.4-0.5c0.9-0.5,1.7-1.3,2.4-2.5L201.6,0.9z M209.1,7.9h-1.5v2.4c0,0.3-0.1,0.6-0.3,0.7
			s-0.6,0.2-1.3,0.2c-0.2,0-0.5,0-0.7,0l-0.2-0.6c0.2,0,0.5,0,0.8,0c0.5,0,0.9,0,1-0.1s0.1-0.2,0.1-0.3V7.9h-5.3V7.3h5.3V6.1h-5.1
			V5.5h6.9v0.6h-1.2v1.2h1.5V7.9z M208.3,4.7h-5.8V1h5.8V4.7z M204.7,10l-0.6,0.3c-0.2-0.5-0.7-1.2-1.3-1.9l0.5-0.3
			C203.9,8.7,204.3,9.3,204.7,10z M207.7,2.5v-1h-4.6v1H207.7z M207.7,4.1v-1h-4.6v1H207.7z"/>
		<path class="st14" d="M214.2,5.9l-0.4,0.5c-0.2-0.4-0.5-0.8-0.9-1.3v6.1h-0.6V5.1c-0.4,1.1-0.9,2-1.4,2.8l-0.4-0.5
			c0.7-1.1,1.3-2.4,1.8-3.8h-1.6V3h1.7V0.7h0.6V3h1.1v0.6h-1.1v0.7C213.4,4.8,213.9,5.4,214.2,5.9z M221,10.7h-5.6v0.5h-0.6v-4
			c-0.3,0.3-0.6,0.6-0.9,0.9l-0.4-0.5c0.8-0.6,1.5-1.5,2-2.4l0.6,0.2c-0.1,0.2-0.3,0.5-0.4,0.7h2.1c-0.1-0.1-0.2-0.3-0.3-0.5
			l0.6-0.3c0.2,0.2,0.3,0.5,0.5,0.7h2.2v0.5h-2.5v0.8h2.2v0.5h-2.2v0.8h2.2v0.5h-2.2v0.9h2.8V10.7z M216.9,2.6h-0.6V2.1h-2.2V1.5
			h2.2V0.7h0.6V2.6z M217.1,4.9h-2.6V3h2.6V4.9z M216.6,4.4V3.5h-1.5v0.9H216.6z M217.6,7.3V6.5h-2.2v0.8H217.6z M217.6,8.7V7.8
			h-2.2v0.8H217.6z M217.6,10.1V9.2h-2.2v0.9H217.6z M220.5,4.9h-2.6V3h2.6V4.9z M220.9,2.1h-2.1v0.5h-0.6V0.7h0.6v0.8h2.1V2.1z
			 M220,4.4V3.5h-1.5v0.9H220z"/>
		<path class="st14" d="M226.8,6.3l-0.4,0.5c-0.5-0.7-1-1.3-1.4-1.7v6.1h-0.6v-6c-0.5,1.2-1.1,2.2-1.7,3l-0.4-0.5
			c0.8-1,1.5-2.4,2.1-4.1h-1.9V3h1.9V0.7h0.6V3h1.4v0.6h-1.4v0.6C225.8,4.9,226.3,5.6,226.8,6.3z M233,10.8l-0.4,0.5
			c-1.3-0.6-2.4-1.2-3.2-2c-0.9,0.9-2,1.5-3.3,1.9l-0.4-0.6c1.4-0.4,2.5-1,3.3-1.8c-0.8-1.1-1.3-2.5-1.6-4.2l0.6-0.1
			c0.3,1.6,0.7,2.9,1.4,3.8c0.6-1,0.9-2.6,1-4.8H227V2.8h3.4c0-0.8,0-1.5,0-2.2h0.6c0,1,0,1.7,0,2.2h1.8v0.6H231
			c0,2.4-0.4,4.2-1.1,5.3C230.6,9.6,231.6,10.2,233,10.8z"/>
	</g>
	<g>
		<path class="st14" d="M215.7,31.5h-6.2c-0.4,0.9-1,1.7-1.6,2.5v6h-0.7v-5.2c-0.6,0.6-1.2,1.1-1.7,1.4l-0.2-0.6
			c1.5-1.2,2.7-2.5,3.5-4.2h-3.5v-0.6h3.8c0.2-0.4,0.4-0.8,0.6-1.4l0.6,0.2c-0.2,0.5-0.4,0.9-0.6,1.2h5.9V31.5z M215.7,36.8h-3v2.4
			c0,0.2-0.1,0.4-0.2,0.5s-0.2,0.3-0.4,0.3s-0.5,0.1-1.1,0.1c-0.3,0-0.6,0-0.9,0l-0.3-0.6c0.3,0,0.6,0,1,0c0.6,0,1,0,1.1-0.1
			s0.2-0.1,0.2-0.2v-2.3h-3.6v-0.6h3.6v-0.9c0.6-0.4,1.2-0.9,1.9-1.6h-4.7v-0.6h5.6v0.6c-0.8,0.8-1.5,1.4-2.2,1.8v0.6h3V36.8z"/>
		<path class="st14" d="M222.8,30.4h-1v9.8h-0.6v-2.5c-1,0.4-2.3,0.7-3.9,1.1l-0.2-0.6l1.1-0.2v-7.6h-1.1v-0.6h5.7V30.4z
			 M221.2,32.2v-1.9h-2.4v1.9H221.2z M221.2,34.8v-1.9h-2.4v1.9H221.2z M221.2,37v-1.6h-2.4v2.4C219.5,37.6,220.3,37.3,221.2,37z
			 M227.6,39.6l-0.4,0.5c-0.8-0.7-1.5-1.4-2.1-2.2c-0.7,0.9-1.5,1.6-2.3,2.2l-0.4-0.5c0.8-0.6,1.6-1.3,2.3-2.3c-1-1.7-1.6-3.7-1.8-6
			h-0.4v-0.6h4.6c0,2.6-0.6,4.8-1.7,6.6c0.1,0.3,0.5,0.7,0.9,1.2S227.3,39.4,227.6,39.6z M226.5,31.4h-2.9c0.1,2,0.6,3.8,1.5,5.4
			C225.9,35.3,226.4,33.5,226.5,31.4z"/>
		<path class="st14" d="M232.8,34.8l-0.4,0.5c-0.2-0.4-0.5-0.8-0.9-1.3v6.1h-0.6V34c-0.4,1.1-0.9,2-1.4,2.8l-0.4-0.5
			c0.7-1.1,1.3-2.4,1.8-3.8h-1.6v-0.6h1.7v-2.3h0.6v2.3h1.1v0.6h-1.1v0.7C232,33.7,232.4,34.3,232.8,34.8z M239.5,39.5H234v0.5h-0.6
			v-4c-0.3,0.3-0.6,0.6-0.9,0.9l-0.4-0.5c0.8-0.6,1.5-1.5,2-2.4l0.6,0.2c-0.1,0.2-0.3,0.5-0.4,0.7h2.1c-0.1-0.1-0.2-0.3-0.3-0.5
			l0.6-0.3c0.2,0.2,0.3,0.5,0.5,0.7h2.2v0.5h-2.5v0.8h2.2v0.5h-2.2v0.8h2.2v0.5h-2.2V39h2.8V39.5z M235.4,31.5h-0.6V31h-2.2v-0.6
			h2.2v-0.8h0.6V31.5z M235.7,33.8h-2.6v-2h2.6V33.8z M235.1,33.3v-0.9h-1.5v0.9H235.1z M236.1,36.2v-0.8H234v0.8H236.1z
			 M236.1,37.5v-0.8H234v0.8H236.1z M236.1,39v-0.9H234V39H236.1z M239.1,33.8h-2.6v-2h2.6V33.8z M239.5,31h-2.1v0.5h-0.6v-1.9h0.6
			v0.8h2.1V31z M238.5,33.3v-0.9H237v0.9H238.5z"/>
		<path class="st14" d="M245.4,35.2l-0.4,0.5c-0.5-0.7-1-1.3-1.4-1.7v6.1H243v-6c-0.5,1.2-1.1,2.2-1.7,3l-0.4-0.5
			c0.8-1,1.5-2.4,2.1-4.1h-1.9v-0.6h1.9v-2.4h0.6v2.4h1.4v0.6h-1.4v0.6C244.3,33.8,244.9,34.5,245.4,35.2z M251.5,39.6l-0.4,0.5
			c-1.3-0.6-2.4-1.2-3.2-2c-0.9,0.9-2,1.5-3.3,1.9l-0.4-0.6c1.4-0.4,2.5-1,3.3-1.8c-0.8-1.1-1.3-2.5-1.6-4.2l0.6-0.1
			c0.3,1.6,0.7,2.9,1.4,3.8c0.6-1,0.9-2.6,1-4.8h-3.3v-0.6h3.4c0-0.8,0-1.5,0-2.2h0.6c0,1,0,1.7,0,2.2h1.8v0.6h-1.9
			c0,2.4-0.4,4.2-1.1,5.3C249.1,38.5,250.2,39.1,251.5,39.6z"/>
	</g>
	<g>
		<path class="st14" d="M193.9,135.4h-1v-4.2h-4.8v4.2h-1v-9.1h1v4h4.8v-4h1V135.4z"/>
		<path class="st14" d="M201.5,127.3h-2.6v8.2h-1v-8.2h-2.6v-0.9h6.2V127.3z"/>
		<path class="st14" d="M208.5,127.3h-2.6v8.2h-1v-8.2h-2.6v-0.9h6.2V127.3z"/>
		<path class="st14" d="M210.9,132v3.4h-1v-9.1h2.4c0.9,0,1.7,0.2,2.2,0.7s0.8,1.1,0.8,2c0,0.9-0.3,1.6-0.9,2.2s-1.4,0.8-2.3,0.8
			H210.9z M210.9,127.3v3.8h1.1c0.7,0,1.3-0.2,1.7-0.5s0.6-0.8,0.6-1.4c0-1.2-0.7-1.8-2.2-1.8H210.9z"/>
		<path class="st14" d="M229.5,136h-0.7v-1h-8.1v1h-0.7v-10.2h9.4V136z M228.9,134.4v-7.9h-8.1v7.9H228.9z M227.1,132.5h-4.6v-4.3
			h4.6V132.5z M226.5,131.9v-3h-3.3v3H226.5z"/>
		<path class="st14" d="M241.9,127H233v3.5c0,2.2-0.3,4-0.9,5.7l-0.5-0.4c0.6-1.5,0.9-3.3,0.9-5.2v-4h4.5c-0.2-0.3-0.3-0.5-0.5-0.8
			l0.6-0.1c0.2,0.3,0.4,0.6,0.5,0.9h4.3V127z M235.1,133.4c-0.4,0.9-0.8,1.6-1.4,2.3l-0.5-0.4c0.5-0.6,1-1.3,1.3-2.2L235.1,133.4z
			 M235.8,127.4c-0.1,0.5-0.4,1-0.7,1.6v3.8h-0.6v-2.9c-0.2,0.2-0.4,0.5-0.7,0.9l-0.4-0.5c1-1,1.6-2,1.9-3.1L235.8,127.4z
			 M241.8,132.7h-5.3v-3c-0.2,0.3-0.5,0.6-0.8,1l-0.4-0.5c0.9-1.1,1.6-2,2-2.9l0.5,0.2c-0.1,0.3-0.3,0.6-0.4,0.9h1.8
			c-0.1-0.2-0.2-0.4-0.5-0.8l0.6-0.2c0.2,0.2,0.4,0.6,0.5,1h1.9v0.6h-2.2v0.7h2v0.6h-2v0.8h2v0.6h-2v0.7h2.2V132.7z M240.2,134.5
			c0,0.4-0.1,0.7-0.2,0.9s-0.3,0.3-0.5,0.4s-0.8,0.1-1.8,0.1c-0.7,0-1.1,0-1.3-0.1s-0.3-0.1-0.4-0.3s-0.2-0.4-0.2-0.7v-1.7h0.6v1.8
			c0,0.2,0.1,0.3,0.2,0.3s0.5,0.1,1.2,0.1c0.8,0,1.2,0,1.3-0.1s0.2-0.1,0.3-0.3s0.1-0.4,0.1-0.8L240.2,134.5z M238.9,129.5v-0.7H237
			v0.7H238.9z M238.9,130.8v-0.8H237v0.8H238.9z M238.9,132.1v-0.7H237v0.7H238.9z M238.8,134.3l-0.5,0.3c-0.4-0.5-0.7-0.9-1-1.2
			l0.5-0.4C238.1,133.4,238.5,133.8,238.8,134.3z M242.1,135.3l-0.5,0.3c-0.4-0.8-0.9-1.5-1.5-2.1l0.5-0.3
			C241.2,133.9,241.7,134.6,242.1,135.3z"/>
	</g>
</g>
</svg>
