<svg xmlns="http://www.w3.org/2000/svg" viewBox="0 0 630 300"><title>OJ104595046</title><rect x="6.6" width="623.4" height="300" fill="#fff"/><rect x="190" width="140" height="125" fill="#fff"/><rect x="190" width="140" height="125" fill="#3c3c41" opacity="0.05" style="isolation:isolate"/><rect x="315.4" y="170" width="140" height="105" fill="#fff"/><rect x="315.4" y="170" width="140" height="105" fill="#3c3c41" opacity="0.1" style="isolation:isolate"/><rect x="490" y="170" width="140" height="130" fill="#fff"/><rect x="490" y="170" width="140" height="130" fill="#3c3c41" opacity="0.1" style="isolation:isolate"/><rect x="320.4" y="175" width="130" height="70" fill="#fff"/><rect x="320.4" y="175" width="130" height="70" fill="#3c3c41" opacity="0.25" style="isolation:isolate"/><path d="M17.3,81.4v21.8c0,2.2,5,4.1,11.2,4.1V81.4Z" fill="#50e6ff"/><path d="M28.4,107.3h.2c6.2,0,11.3-1.8,11.3-4.1V81.4H28.4Z" fill="#0072c5"/><path d="M28.3,107.3h.2c6.3,0,11.4-1.8,11.4-4.1V81.3H28.4Z" fill="#3bcaf4"/><path d="M39.9,81.4c0,2.3-5,4.1-11.3,4.1s-11.3-1.8-11.3-4.1,5-4.1,11.3-4.1S39.9,79.2,39.9,81.4Z" fill="#fff"/><path d="M37.6,81.2c0,1.5-4,2.7-9,2.7s-9-1.2-9-2.7,4-2.8,9-2.8S37.6,79.7,37.6,81.2Z" fill="#0078d4"/><path d="M35.7,82.8c1.1-.5,1.9-1,1.9-1.6s-4-2.8-9-2.8-9,1.3-9,2.8.7,1.2,1.8,1.6a21.4,21.4,0,0,1,7.1-1A21.6,21.6,0,0,1,35.7,82.8Z" fill="#3bcaf4"/><polygon points="107.3 102.2 131.6 102.2 131.6 77.9 107.3 77.9 107.3 102.2" fill="#fff" fill-rule="evenodd"/><path d="M106.8,77.4v25.3h25.4V77.4Zm1,24.3h23.3V78.4H107.9Z" fill="#0078d7" fill-rule="evenodd"/><polygon points="113.1 89.8 116.3 88.1 116.3 87 111.7 89.6 111.7 90.1 116.3 92.3 116.3 91.3 113.1 89.8" fill="#0078d7" fill-rule="evenodd"/><polygon points="118.2 94.1 121.8 85.4 120.8 85.4 117.2 94.1 118.2 94.1" fill="#0078d7" fill-rule="evenodd"/><polygon points="122.8 88 126 89.8 125.9 89.8 122.8 91.3 122.8 92.3 127.4 90 127.4 89.6 122.8 87 122.8 88" fill="#0078d7" fill-rule="evenodd"/><path d="M130.2,106.8a7,7,0,1,1,7-7h0a7,7,0,0,1-7,7" fill="#fff" fill-rule="evenodd"/><path d="M130.2,92.3a7.6,7.6,0,0,0-7.5,7.5,7.5,7.5,0,0,0,7.5,7.4,7.4,7.4,0,0,0,7.4-7.4h0a7.5,7.5,0,0,0-7.4-7.5m0,.9a6.6,6.6,0,1,1-6.6,6.6,6.6,6.6,0,0,1,6.6-6.6h0" fill="#0078d7" fill-rule="evenodd"/><polygon points="128.9 102.7 126.4 100.2 127 99.6 128.9 101.4 133.4 96.9 134.1 97.6 128.9 102.7" fill="#0078d7" fill-rule="evenodd"/><path d="M267.5,39.4a1.9,1.9,0,0,1-1.9,1.9,1.9,1.9,0,0,1,0-3.8h0a1.8,1.8,0,0,1,1.9,1.9" fill="#0078d4" fill-rule="evenodd"/><path d="M267.5,50.6a1.8,1.8,0,0,1-1.9,1.9,1.9,1.9,0,0,1-1.9-1.9,2,2,0,0,1,1.9-1.9h0a1.8,1.8,0,0,1,1.9,1.8h0" fill="#0078d4" fill-rule="evenodd"/><path d="M256.3,39.4a2,2,0,0,1-1.9,1.9,1.9,1.9,0,0,1,0-3.8h0a2,2,0,0,1,1.9,1.9" fill="#0078d4" fill-rule="evenodd"/><path d="M256.3,50.6a1.9,1.9,0,0,1-1.9,1.9,1.8,1.8,0,0,1-1.9-1.9,1.8,1.8,0,0,1,1.9-1.8,1.9,1.9,0,0,1,1.9,1.8h0" fill="#0078d4" fill-rule="evenodd"/><path d="M262.8,37.5a2.8,2.8,0,1,1-2.8-2.8h0a2.7,2.7,0,0,1,2.8,2.8" fill="#0078d4" fill-rule="evenodd"/><path d="M262.8,52.5a2.8,2.8,0,1,1-2.8-2.8h0a2.7,2.7,0,0,1,2.8,2.8" fill="#0078d4" fill-rule="evenodd"/><path d="M261.4,31.4A1.4,1.4,0,1,1,260,30a1.4,1.4,0,0,1,1.4,1.4h0" fill="#50e6ff" fill-rule="evenodd"/><path d="M261.4,58.6a1.4,1.4,0,1,1-1.4-1.4h0a1.4,1.4,0,0,1,1.4,1.4" fill="#0078d4" fill-rule="evenodd"/><path d="M261.4,31.4A1.4,1.4,0,1,1,260,30a1.4,1.4,0,0,1,1.4,1.4h0" fill="#50e6ff" fill-rule="evenodd"/><path d="M261.4,58.6a1.4,1.4,0,1,1-1.4-1.4h0a1.4,1.4,0,0,1,1.4,1.4" fill="#50e6ff" fill-rule="evenodd"/><path d="M255.3,45a2.8,2.8,0,1,1-2.8-2.8h0a2.7,2.7,0,0,1,2.8,2.8" fill="#0078d4" fill-rule="evenodd"/><path d="M270.3,45a2.8,2.8,0,1,1-2.8-2.8h0a2.7,2.7,0,0,1,2.8,2.8" fill="#0078d4" fill-rule="evenodd"/><path d="M246.4,43.6A1.4,1.4,0,1,1,245,45a1.4,1.4,0,0,1,1.4-1.4h0" fill="#50e6ff" fill-rule="evenodd"/><path d="M273.6,43.6a1.4,1.4,0,1,1-1.4,1.4h0a1.4,1.4,0,0,1,1.4-1.4" fill="#0078d4" fill-rule="evenodd"/><path d="M262.8,45a2.8,2.8,0,1,1-2.8-2.8h0a2.7,2.7,0,0,1,2.8,2.8" fill="#0078d4" fill-rule="evenodd"/><path d="M246.4,43.6A1.4,1.4,0,1,1,245,45a1.4,1.4,0,0,1,1.4-1.4h0" fill="#50e6ff" fill-rule="evenodd"/><path d="M273.6,43.6a1.4,1.4,0,1,1-1.4,1.4h0a1.4,1.4,0,0,1,1.4-1.4" fill="#50e6ff" fill-rule="evenodd"/><path d="M270.8,36.2a1.4,1.4,0,0,1-2-.1,1.3,1.3,0,0,1,.1-1.9,1.3,1.3,0,1,1,1.9,1.9h0" fill="#50e6ff" fill-rule="evenodd"/><path d="M251.2,55.8a1.4,1.4,0,0,1-2-2,1.4,1.4,0,0,1,2,2h0" fill="#50e6ff" fill-rule="evenodd"/><path d="M251.2,34.2a1.5,1.5,0,0,1,0,2,1.4,1.4,0,0,1-2-.1,1.2,1.2,0,0,1,0-1.9,1.3,1.3,0,0,1,2,0h0" fill="#50e6ff" fill-rule="evenodd"/><path d="M270.8,53.8a1.4,1.4,0,0,1-2,2,1.4,1.4,0,0,1,2-2" fill="#50e6ff" fill-rule="evenodd"/><line x1="50" y1="92.3" x2="94.6" y2="92.3" fill="none" stroke="#3c3c41" stroke-miterlimit="10"/><polygon points="93.5 96 100 92.3 93.5 88.5 93.5 96" fill="#3c3c41"/><line x1="330" y1="92.3" x2="359.6" y2="92.3" fill="none" stroke="#3c3c41" stroke-miterlimit="10"/><polygon points="358.5 96 365 92.3 358.5 88.5 358.5 96" fill="#3c3c41"/><line x1="405" y1="92.3" x2="434.6" y2="92.3" fill="none" stroke="#3c3c41" stroke-miterlimit="10"/><polygon points="433.5 96 440 92.3 433.5 88.5 433.5 96" fill="#3c3c41"/><line x1="455" y1="210" x2="484.6" y2="210" fill="none" stroke="#3c3c41" stroke-miterlimit="10"/><polygon points="483.5 213.7 490 210 483.5 206.3 483.5 213.7" fill="#3c3c41"/><line x1="385.4" y1="115" x2="385.4" y2="144.6" fill="none" stroke="#3c3c41" stroke-miterlimit="10"/><polygon points="381.7 143.5 385.4 150 389.1 143.5 381.7 143.5" fill="#3c3c41"/><line x1="140" y1="92.3" x2="184.6" y2="92.3" fill="none" stroke="#3c3c41" stroke-miterlimit="10"/><polygon points="183.5 96 190 92.3 183.5 88.5 183.5 96" fill="#3c3c41"/><path d="M450.1,81.4a1.5,1.5,0,0,1-1.7-1.4,1.6,1.6,0,0,1,1.4-1.7h.3a1.6,1.6,0,0,1,1.4,1.7A1.7,1.7,0,0,1,450.1,81.4Z" fill="#0078d4"/><path d="M454.7,81.4a1.6,1.6,0,0,1-1.6-1.6,1.6,1.6,0,0,1,3.2,0h0a1.6,1.6,0,0,1-1.6,1.6Z" fill="#0078d4"/><path d="M459.4,81.4a1.6,1.6,0,0,1-1.6-1.5,1.6,1.6,0,0,1,1.6-1.6,1.5,1.5,0,0,1,1.5,1.5h0A1.6,1.6,0,0,1,459.4,81.4Z" fill="#0078d4"/><path d="M464,81.4a1.6,1.6,0,0,1-1.6-1.5,1.6,1.6,0,0,1,1.6-1.6,1.5,1.5,0,0,1,1.5,1.5h0a1.4,1.4,0,0,1-1.5,1.6Z" fill="#0078d4"/><path d="M468.7,81.4a1.6,1.6,0,0,1-1.6-1.6,1.6,1.6,0,0,1,1.6-1.5,1.5,1.5,0,0,1,1.5,1.5h0a1.5,1.5,0,0,1-1.5,1.6Z" fill="#0078d4"/><path d="M473.4,81.4a1.6,1.6,0,1,1,1.5-1.6h0A1.6,1.6,0,0,1,473.4,81.4Z" fill="#0078d4"/><path d="M450.1,86.1a1.6,1.6,0,0,1-1.6-1.6,1.6,1.6,0,0,1,1.5-1.6,1.6,1.6,0,0,1,1.6,1.6h0A1.6,1.6,0,0,1,450.1,86.1Z" fill="#0078d4"/><path d="M454.7,86.1a1.6,1.6,0,0,1-1.4-1.7,1.5,1.5,0,0,1,1.4-1.5,1.6,1.6,0,0,1,1.7,1.5,1.6,1.6,0,0,1-1.4,1.7Z" fill="#0078d4"/><path d="M459.4,86.1a1.6,1.6,0,1,1,0-3.2,1.6,1.6,0,0,1,1.5,1.6h0A1.6,1.6,0,0,1,459.4,86.1Z" fill="#0078d4"/><path d="M464,86.1a1.6,1.6,0,0,1,0-3.2,1.6,1.6,0,0,1,1.5,1.6h0a1.4,1.4,0,0,1-1.5,1.6Z" fill="#0078d4"/><path d="M468.7,86.1a1.7,1.7,0,0,1-1.5-1.7,1.7,1.7,0,0,1,1.5-1.5,1.6,1.6,0,1,1,.2,3.2Z" fill="#0078d4"/><path d="M473.4,86.1a1.6,1.6,0,0,1-1.6-1.6,1.6,1.6,0,0,1,1.5-1.6,1.6,1.6,0,0,1,1.6,1.6h0A1.6,1.6,0,0,1,473.4,86.1Z" fill="#0078d4"/><path d="M450.1,90.7a1.5,1.5,0,0,1-1.7-1.4,1.6,1.6,0,0,1,1.4-1.7h.3a1.6,1.6,0,0,1,1.4,1.7A1.5,1.5,0,0,1,450.1,90.7Z" fill="#0078d4"/><path d="M454.7,90.7a1.6,1.6,0,0,1-1.6-1.5,1.6,1.6,0,0,1,3.2,0h0a1.6,1.6,0,0,1-1.6,1.5Z" fill="#0078d4"/><path d="M459.4,90.7a1.5,1.5,0,0,1-1.6-1.5,1.6,1.6,0,0,1,1.6-1.6,1.6,1.6,0,0,1,1.5,1.6h0A1.5,1.5,0,0,1,459.4,90.7Z" fill="#0078d4"/><path d="M464,90.7a1.5,1.5,0,0,1-1.6-1.5,1.6,1.6,0,0,1,1.6-1.6,1.6,1.6,0,0,1,1.5,1.6h0a1.4,1.4,0,0,1-1.5,1.5Z" fill="#0078d4"/><path d="M468.7,90.7a1.6,1.6,0,0,1-1.6-1.5,1.6,1.6,0,0,1,1.6-1.6,1.6,1.6,0,0,1,1.5,1.6h0a1.5,1.5,0,0,1-1.5,1.5Z" fill="#0078d4"/><path d="M473.4,90.7a1.5,1.5,0,0,1-1.6-1.5,1.6,1.6,0,0,1,1.5-1.6,1.6,1.6,0,0,1,1.6,1.6h0A1.5,1.5,0,0,1,473.4,90.7Z" fill="#0078d4"/><path d="M450.1,95.4a1.5,1.5,0,0,1-1.7-1.4,1.6,1.6,0,0,1,1.4-1.7h.3a1.6,1.6,0,0,1,1.4,1.7A1.7,1.7,0,0,1,450.1,95.4Z" fill="#0078d4"/><path d="M454.7,95.4a1.6,1.6,0,0,1-1.6-1.6,1.6,1.6,0,0,1,3.2,0h0a1.6,1.6,0,0,1-1.6,1.6Z" fill="#0078d4"/><path d="M459.4,95.4a1.6,1.6,0,0,1-1.6-1.5,1.6,1.6,0,0,1,1.6-1.6,1.5,1.5,0,0,1,1.5,1.5h0A1.6,1.6,0,0,1,459.4,95.4Z" fill="#0078d4"/><path d="M450.1,100.1a1.6,1.6,0,0,1-1.6-1.6,1.6,1.6,0,0,1,1.5-1.6,1.6,1.6,0,0,1,1.6,1.6h0A1.6,1.6,0,0,1,450.1,100.1Z" fill="#0078d4"/><path d="M454.7,100.1a1.6,1.6,0,0,1-1.4-1.7,1.5,1.5,0,0,1,1.4-1.5,1.6,1.6,0,0,1,1.7,1.5,1.6,1.6,0,0,1-1.4,1.7Z" fill="#0078d4"/><path d="M459.4,100.1a1.6,1.6,0,1,1,0-3.2,1.6,1.6,0,0,1,1.5,1.6h0A1.6,1.6,0,0,1,459.4,100.1Z" fill="#0078d4"/><path d="M450.1,104.7a1.6,1.6,0,1,1-.1-3.1,1.6,1.6,0,0,1,1.6,1.6h0A1.5,1.5,0,0,1,450.1,104.7Z" fill="#0078d4"/><path d="M454.7,104.7a1.6,1.6,0,0,1,0-3.1,1.6,1.6,0,0,1,1.7,1.4,1.5,1.5,0,0,1-1.4,1.7Z" fill="#0078d4"/><path d="M459.4,104.7a1.6,1.6,0,0,1-1.6-1.5,1.6,1.6,0,0,1,1.6-1.6,1.6,1.6,0,0,1,1.5,1.6h0A1.5,1.5,0,0,1,459.4,104.7Z" fill="#0078d4"/><path d="M476.5,105.2l-4.5-4.5a5.3,5.3,0,0,0-8.4-6.3,5.2,5.2,0,0,0,7.3,7.4l4.5,4.5Zm-8.7-3.9a3.8,3.8,0,0,1-3.7-3.8,3.7,3.7,0,1,1,3.7,3.8Z" fill="#50e6ff"/><path d="M615,279.7v-.3a7.6,7.6,0,0,0,.1-1.5,7.8,7.8,0,0,0-7.8-7.8h0a5.5,5.5,0,0,0-1.8.2,10.2,10.2,0,0,0-14-3.1,10,10,0,0,0-4.7,8.5v.4a9,9,0,0,0-1.6-.3,5,5,0,0,0-.5,10h22.5a7.8,7.8,0,0,0,6.9-4l.2-.2A14.6,14.6,0,0,0,615,279.7Z" fill="#50e6ff"/><path d="M591.3,283.9a6.5,6.5,0,1,1,12.9-.5v.5Z" fill="#0078d7"/><path d="M601.4,272.7a3.7,3.7,0,1,1-3.6-3.7h0A3.7,3.7,0,0,1,601.4,272.7Z" fill="#0078d7"/><path d="M597.7,263.7a1.8,1.8,0,0,0,1.8-1.9,1.8,1.8,0,1,0-3.6,0A1.8,1.8,0,0,0,597.7,263.7Z" fill="#0078d7"/><path d="M597.7,295a1.8,1.8,0,0,0,1.8-1.8,1.8,1.8,0,1,0-3.6,0,1.8,1.8,0,0,0,1.8,1.8Z" fill="#0078d7"/><path d="M611.6,285.8a1.8,1.8,0,0,0,1.8-1.8,1.8,1.8,0,0,0-1.8-1.9,1.9,1.9,0,1,0,0,3.7Z" fill="#0078d7"/><path d="M583.9,285.8a1.8,1.8,0,0,0,1.8-1.8,1.8,1.8,0,1,0-3.6,0,1.8,1.8,0,0,0,1.8,1.8Z" fill="#0078d7"/><path d="M611.6,272.9a1.8,1.8,0,0,0,1.8-1.9,1.8,1.8,0,0,0-1.8-1.8,1.9,1.9,0,1,0,0,3.7Z" fill="#0078d7"/><path d="M583.9,272.9a1.8,1.8,0,0,0,1.8-1.9,1.8,1.8,0,0,0-1.8-1.8,1.8,1.8,0,0,0-1.8,1.9,1.8,1.8,0,0,0,1.8,1.8Z" fill="#0078d7"/><path d="M386.1,96.7h-1.4v8.2h1.4Z" fill="#50e6ff"/><path d="M386.1,80.9h-1.4v9.2h1.4Z" fill="#50e6ff"/><path d="M388.8,94.5l-.8,1.3,7.5,4.3.7-1.3Z" fill="#50e6ff"/><path d="M375.1,86.6l-.7,1.3,7.7,4.5.8-1.3Z" fill="#50e6ff"/><path d="M395.6,86.7,388,91.1l.7,1.3,7.6-4.4Z" fill="#50e6ff"/><path d="M382.1,94.5,374.3,99l.7,1.3,7.8-4.5Z" fill="#50e6ff"/><path d="M385.4,90.8l2.2,1.3v2.6L385.4,96l-2.2-1.3V92.1Zm0-1.7-.7.5-2.2,1.2-.8.5v4.2l.8.5,2.2,1.2.7.5.7-.5,2.3-1.2.7-.4V91.3l-.7-.5-2.3-1.2Z" fill="#0078d4"/><path d="M383.2,105.2h0a2.2,2.2,0,0,1,2.2-2.2h0a2.2,2.2,0,0,1,2.2,2.2h0a2.2,2.2,0,0,1-2.2,2.2h0A2.2,2.2,0,0,1,383.2,105.2Z" fill="#0078d4"/><path d="M383.2,81.6h0a2.2,2.2,0,0,1,2.2-2.2h0a2.2,2.2,0,0,1,2.2,2.2h0a2.2,2.2,0,0,1-2.2,2.2h0A2.2,2.2,0,0,1,383.2,81.6Z" fill="#0078d4"/><path d="M394.6,101.2h0a2.2,2.2,0,0,1-.8-3h0a2.3,2.3,0,0,1,3-.8h0a2.2,2.2,0,0,1,.9,3h-.1a2.1,2.1,0,0,1-3,.8Z" fill="#0078d4"/><path d="M375.1,89.7h0a2.2,2.2,0,0,1-2.2-2.2h0a2.2,2.2,0,0,1,2.2-2.2h0a2.2,2.2,0,0,1,2.2,2.2h0a2.2,2.2,0,0,1-2.2,2.2Z" fill="#0078d4"/><path d="M396.9,89.4h0a2.1,2.1,0,0,1-3-.8h0a2.1,2.1,0,0,1,.7-3h0a2.2,2.2,0,0,1,3,.8h0A2.1,2.1,0,0,1,396.9,89.4Z" fill="#0078d4"/><path d="M375.1,101.5h0a2.2,2.2,0,0,1-2.2-2.2h0a2.2,2.2,0,0,1,2.2-2.2h0a2.2,2.2,0,0,1,2.2,2.2h0a2.2,2.2,0,0,1-2.2,2.2Z" fill="#0078d4"/><path d="M420,190v28H399v-3.5h-1.7v-1.7H399v-3.5h-1.7v-1.8H399v-7h-1.7v-1.7H399v-3.5h-1.7v-1.8H399V190Zm-1.7,1.8H400.8v24.5h17.5Zm-12.3,14a3.5,3.5,0,0,1-1.4-.3l-1.1-.8a4.1,4.1,0,0,1-.7-1.1,3.1,3.1,0,0,1-.3-1.3,3.2,3.2,0,0,1,.3-1.4,3.5,3.5,0,0,1,4.6-1.9l.4.2,2-2a2,2,0,0,1-.3-1.1,3.6,3.6,0,0,1,.2-1,3.2,3.2,0,0,1,1.4-1.4,3.4,3.4,0,0,1,2,0,3.2,3.2,0,0,1,1.4,1.4,2.5,2.5,0,0,1-1.4,3.4,1.7,1.7,0,0,1-1,.3,2,2,0,0,1-1.1-.3l-2,2a3.7,3.7,0,0,1,.5,1.8h0l2.3.8a2.6,2.6,0,0,1,3.1-.8,2.7,2.7,0,0,1,1.4,1.4,3.4,3.4,0,0,1,0,2,2.4,2.4,0,0,1-1.4,1.4,2.3,2.3,0,0,1-2,0l-.9-.5a2.6,2.6,0,0,1-.5-.9,1.6,1.6,0,0,1-.2-1l-2.3-.7a3.3,3.3,0,0,1-1.3,1.1,2.5,2.5,0,0,1-1.7.4Zm-3.5,5.3v-1.8h14V211Zm0,1.7h14v1.7h-14Zm3.5-12.3h-.7a2.2,2.2,0,0,0-.9,1,1.6,1.6,0,0,0,.4,1.9.9.9,0,0,0,.5.3,1.7,1.7,0,0,0,1.9-.3,1.7,1.7,0,0,0,.4-1.9,2.2,2.2,0,0,0-.9-1Zm6.1-5.2a.8.8,0,0,0-.9.8.9.9,0,1,0,1.8,0,1.4,1.4,0,0,0-.2-.6h0l-.7-.2Zm1.8,8.7a.9.9,0,0,0-.9.9h0a.8.8,0,0,0,.8.9h0a.9.9,0,0,0,.9-.9h0a.5.5,0,0,0-.2-.6.9.9,0,0,0-.6-.3Z"/><path d="M366,204h2.6a8.7,8.7,0,0,0,4.5-1.2c1.3-.8,1.9-1.4,1.9-1.8v-3a16.3,16.3,0,0,1-8.4,2,26.2,26.2,0,0,1-7.4-.7,20.5,20.5,0,0,1-3.1-1.3v3c0,.5.8,1.1,2.3,1.9A19.9,19.9,0,0,0,366,204Zm9,3v-3a16.5,16.5,0,0,1-8.4,2,26.2,26.2,0,0,1-7.4-.7,16.9,16.9,0,0,1-3.1-1.3v3c0,.5.7,1.1,2.3,1.9a19.7,19.7,0,0,0,7.5,1.1q5.3,0,7.2-1.2C374.4,207.9,375,207.4,375,207Zm-9,9h2.6a8.7,8.7,0,0,0,4.5-1.2c1.3-.8,1.9-1.4,1.9-1.8v-3a16.1,16.1,0,0,1-8.4,2,26.2,26.2,0,0,1-7.4-.7,16.9,16.9,0,0,1-3.1-1.3v3c0,.5.8,1.1,2.3,1.9A19.9,19.9,0,0,0,366,216Zm-9.9-21a.9.9,0,0,0,.3.6,2.2,2.2,0,0,0,.9.7l1.4.7,1.8.5,1.8.3h4.8l2.3-.2a19.8,19.8,0,0,0,3.3-.8q1.8-.6,2.1-1.2a2.4,2.4,0,0,0,.2-.8c0-.3-.6-.9-1.9-1.7s-3.8-1.2-7.5-1.2-6.3.4-7.6,1.2-1.9,1.5-1.9,1.8Zm4.6-4.6,1-.2a25.5,25.5,0,0,1,3.9-.2,28,28,0,0,1,6.4.8c2.3.5,3.8,1.2,4.3,2.1a5.4,5.4,0,0,1,.8,2.1v18a3.2,3.2,0,0,1-1,2.2,6.8,6.8,0,0,1-2.3,1.4,12.9,12.9,0,0,1-2.8.8l-2.9.5h-3.4a27,27,0,0,1-5.6-.8c-2.3-.5-3.8-1.2-4.3-2.1a4.9,4.9,0,0,1-.8-2.1V195a3.2,3.2,0,0,1,1-2.2,7.9,7.9,0,0,1,2.3-1.4,20.2,20.2,0,0,1,3.3-.9Z"/><path d="M541.1,286.9l-8.9-16.2v-7.5h2.3V262h-14v1.2h2.4v7.5L514,286.9c-1,1.7-.2,3.1,1.8,3.1h23.6C541.3,290,542.1,288.7,541.1,286.9Zm-26.3,1.6c-.2-.2,0-.6.2-1l8.9-16.2v-8.1h7v8.1l3.3,5.9h-9.2l-6.4,11.6h-3.1a.9.9,0,0,1-.9-.3Zm25.5,0a1.4,1.4,0,0,1-1,.3H520.2l5.7-10.5h9.2l5,9.1c.3.6.3,1,.2,1.1Z"/><path d="M589.7,212v2h20v-.6l-5.2-5.2L597,212Zm0-2h6.8l8.4-4.2,4.8,4.8v-5.2l-5-5-4.8,4.9-7.2-3.7-3,1.5Zm22,6h-24V201.9l5-2.5,6.8,3.4,5.2-5.2,7,7Zm-26-24v26h26v2h-28V192Z"/><path d="M532,217.1h-8.1c1,3.4-.4,3.9-6.1,3.9v1.8h19.5V221C531.5,221,531,220.5,532,217.1Z" fill="#50e6ff"/><path d="M517.7,222.8h19.6V221H517.7Z" fill="#50e6ff"/><path d="M542.6,194.8H512.5v22.3h30.1Z" fill="#0078d4"/><path d="M541,196.4H514v19.1h27Z" fill="#0078d4"/><path d="M540.5,198.3l-1.1-1.1-4.6,4.6-1.5-1.5-1.2,1.1,2.7,2.6h0Z" fill="#50e6ff"/><path d="M540.5,206.9l-1.1-1.1-4.6,4.6-1.5-1.5-1.2,1.1,2.7,2.6h0Z" fill="#50e6ff"/><path d="M518.3,207.7h-3.1v7h3.1Z" fill="#50e6ff"/><path d="M522.2,205.4h-3.1v9.3h3.1Z" fill="#50e6ff"/><path d="M526.1,203.8H523v10.9h3.1V203.8Z" fill="#50e6ff"/><path d="M530,201.8h-3.1v13H530Z" fill="#50e6ff"/><path d="M371,133.9h4V151H360.5v-3.9h-4V130H371Zm-13.2-2.6v14.5h11.9V131.3Zm15.8,18.4V135.3H371v11.8h-9.2v2.6Z"/><path d="M12.9,59.1v2.7a10.6,10.6,0,0,0,4.8,4.1l-.5.6A11.9,11.9,0,0,1,12.9,63v4h-.7V63.1A12.4,12.4,0,0,1,8,66.5l-.5-.6a10.8,10.8,0,0,0,4.7-4V59.1H7.8v-.7h4.4V56.8h1c0,.1-.1.1-.3.1v1.4h4.5v.7Zm-2,3.6L9.8,61.5a4.5,4.5,0,0,1-1.5,1.8l-.5-.4a6,6,0,0,0,2-3.5l.9.2a.2.2,0,0,1-.2.2,4.9,4.9,0,0,1-.4,1.1,8,8,0,0,1,1.3,1.3Zm6.1.5a17.2,17.2,0,0,0-1.9-1.7,3.6,3.6,0,0,1-1,1.4l-.6-.4a4.9,4.9,0,0,0,1.6-3.1l.9.2c0,.1-.1.1-.2.1a5.6,5.6,0,0,1-.4,1.2l2.1,1.8Z" stroke="#000" stroke-miterlimit="10" stroke-width="0.05"/><path d="M18.5,59.9a7.6,7.6,0,0,1,2,1.2l-.5.6a6.9,6.9,0,0,0-1.9-1.2Zm-.1,6.6a33,33,0,0,0,1.7-3.7l.6.5c-.5,1.1-1.1,2.5-1.6,3.4h.1Zm2.1-7.8a6.3,6.3,0,0,0-1.8-1.2l.4-.6A7,7,0,0,1,21,58.2Zm7.2,4.4H25.6v3.1c0,.8-.3.9-1.8.8l-.3-.6h1.2c.2,0,.2-.1.2-.2V63.1H23V59.3h1.7c.1-.3.2-.9.3-1.3H22.3v2.4c0,2-.2,4.7-1.5,6.6l-.6-.4c1.3-1.8,1.4-4.3,1.4-6.2V57.3h6.7V58H26l-.3.2-.3,1h2.3Zm-3.5.9H24a8.1,8.1,0,0,1-1.7,2.3l-.5-.4a7.3,7.3,0,0,0,1.6-2.2Zm-.5-4.1v1H27v-1Zm0,1.6v1H27v-1Zm4.1,4.9A12.3,12.3,0,0,0,26.4,64l.6-.3A22.2,22.2,0,0,1,28.5,66Z" stroke="#000" stroke-miterlimit="10" stroke-width="0.05"/><path d="M28.9,60l3.1-.8v.5l-2.7.9a.2.2,0,0,1-.2.2Zm4.2,5.8h-.3l-3.3,1.2-.5-.6a10.7,10.7,0,0,0,3.3-1.1Zm-3.3-8.7a10,10,0,0,1,2.3.9l-.3.5a10,10,0,0,0-2.3-.9Zm.6,8.2V60.8h7.2v4.5Zm.7-4v.8h5.8v-.8Zm0,1.3v.8h5.8v-.8Zm0,1.3v.9h5.8v-.9Zm4.7-5.7c.3.9.9,1.8,3.2,2.1l-.4.6A3.7,3.7,0,0,1,35.5,59c-.4.8-1.2,1.4-2.9,1.7l-.4-.5c1.9-.3,2.6-.9,2.8-2H33.7a3.2,3.2,0,0,1-1,1l-.5-.4a5.2,5.2,0,0,0,1.7-2h.8c0,.1-.1.1-.2.2l-.3.5h4.5a4.2,4.2,0,0,1-1.1,1.6l-.6-.2a3.5,3.5,0,0,0,.7-.9Zm2.3,8.9a17.4,17.4,0,0,0-3.2-1.3l.6-.3a16.5,16.5,0,0,1,3.4,1.2Z" stroke="#000" stroke-miterlimit="10" stroke-width="0.05"/><path d="M42.3,61.4v.5a14.9,14.9,0,0,1,1.8,1.7l-.4.6-1.4-1.5V67h-.7V62.5a9.6,9.6,0,0,1-1.8,3,1.3,1.3,0,0,0-.4-.7,10.3,10.3,0,0,0,2.1-3.4H39.6v-.7h2V56.8h.9c0,.1,0,.1-.2.1v3.7h2v.7Zm-2-3.8A10.9,10.9,0,0,1,41,60h-.6a11.9,11.9,0,0,0-.7-2.3Zm4.1.2c0,.1-.1.1-.2.1a16,16,0,0,1-1,2.3l-.5-.2a14.5,14.5,0,0,0,.9-2.5Zm5.4,6-1.6.3V67h-.7V64.2l-3.2.6v-.7l3.3-.6V56.8h1c0,.1-.1.1-.3.2v6.3l1.4-.3Zm-4.7-3.3A10.6,10.6,0,0,1,47,62.1c-.4.4-.5.4-.5.5a10.8,10.8,0,0,0-1.9-1.7Zm.3-2.9a6.6,6.6,0,0,1,1.7,1.6l-.5.4L44.9,58Z" stroke="#000" stroke-miterlimit="10" stroke-width="0.05"/><path d="M108.5,59.5H107c0,.1-.1.1-.3.1a11.2,11.2,0,0,1-2.6,4.4,9.4,9.4,0,0,0,4.6,2.2l-.6.8a12.3,12.3,0,0,1-4.7-2.4,13.3,13.3,0,0,1-4.6,2.4l-.4-.7a11.8,11.8,0,0,0,4.5-2.2,14.2,14.2,0,0,1-2.8-4.6H98.5v-.8h4.6V56.8h1c0,.1-.1.1-.3.1v1.7h4.7Zm-7.6,0a10.3,10.3,0,0,0,2.6,4.1,10.5,10.5,0,0,0,2.5-4.1Z" stroke="#000" stroke-miterlimit="10" stroke-width="0.05"/><path d="M110.5,60.7a12.7,12.7,0,0,1-1.3,1.9l-.4-.7a15.9,15.9,0,0,0,2.8-5l.8.3h-.2a22.9,22.9,0,0,1-1,2.3h0v7.3h-.7Zm8.8,1.8v.7H116v3.9h-.7V63.2h-3.4v-.7h3.4V59.8h-2a10,10,0,0,1-.9,1.8l-.6-.3a12.4,12.4,0,0,0,1.6-4l.9.3h-.2c-.2.5-.3,1-.5,1.4h1.7V57h1c0,.1-.1.2-.3.2v1.9h2.9v.7H116v2.7Z" stroke="#000" stroke-miterlimit="10" stroke-width="0.05"/><path d="M123.5,65.6h-2.1v.9h-.7V62.6a4.1,4.1,0,0,1-.8,1.3l-.4-.6a12.1,12.1,0,0,0,1.8-5.1h-1.5v-.7H124v.7h-2l-.6,2.6h2.1Zm-.6-.7V61.5h-1.5v3.4Zm6.1-3.8.5.2h-.1a8,8,0,0,1-1.7,3.6,5.5,5.5,0,0,0,2.4,1.5,1.5,1.5,0,0,0-.5.6,7.8,7.8,0,0,1-2.4-1.6,7.8,7.8,0,0,1-2.1,1.6,1.5,1.5,0,0,0-.5-.6,10.7,10.7,0,0,0,2.2-1.5,8.5,8.5,0,0,1-1.5-3h.6a7.5,7.5,0,0,0,1.3,2.5,7.2,7.2,0,0,0,1.4-2.6H125a9.4,9.4,0,0,1-1.4,5.3l-.5-.5c1.1-1.5,1.2-3.7,1.2-5.3V58.4h2.3V56.8h.7v1.4h2.6a19.8,19.8,0,0,1-.6,2.3l-.6-.2c.1-.3.2-.9.4-1.4h-1.8v2H129Zm-2.4-2H125v2h1.6Z" stroke="#000" stroke-miterlimit="10" stroke-width="0.05"/><path d="M135,59.7v6.5c0,.9-.4.9-1.8.9l-.3-.7h.9c.5,0,.6,0,.6-.2V64.1h-2.7a7.4,7.4,0,0,1-.8,3l-.6-.4a7.3,7.3,0,0,0,.9-4.1V60.4l-.4.4-.5-.4a8.6,8.6,0,0,0,1.7-3.6l.9.3h-.2a1.4,1.4,0,0,0-.2.6H134l.5.3c0,.1-.1.1-.2.1a6.6,6.6,0,0,1-.7,1.5Zm-2.1,0a5.2,5.2,0,0,0,.6-1.3h-1.3l-.6,1.3Zm-1.1,2.4v1.4h1V62.1Zm0-1.8v1.3h1V60.3Zm1.5,0v1.3h1.1V60.3Zm0,3.2h1.1V62.1h-1.1Zm7-6.1v.3a7.3,7.3,0,0,1-.4,2.8.9.9,0,0,1-.8.3h-1a1.3,1.3,0,0,0-.1-.6h1.3c.2-.2.3-.7.3-2.1h-1.9a3.6,3.6,0,0,1-2.1,3.1c-.1-.1-.3-.4-.5-.5A3,3,0,0,0,137,58h-1.5v-.6h4.8Zm.3,6.9V65h-2.2v2.1h-.7V65h-2.4v-.7h2.4V62.9h-1.3l-.6,1.1-.5-.4a4.4,4.4,0,0,0,.9-2.5l.9.2h-.3a2.9,2.9,0,0,1-.2.9h1.1V60.9h.7v1.2h1.8v.6h-1.8v1.4Z" stroke="#000" stroke-miterlimit="10" stroke-width="0.05"/><path d="M205.5,96.1h-.2a15.2,15.2,0,0,1-3.4,1.5l-.5-.5a12.7,12.7,0,0,0,3.3-1.6Zm-4.1-1.5h9.9v.7h-9.9ZM203,88h6.8v5.8H203Zm.8.6v1.1h5.3V88.6Zm0,1.7v1.1h5.3V90.3Zm0,1.7v1.2h5.3V92Zm6.9,5.7-3.3-1.5.5-.5,3.5,1.5Z" stroke="#000" stroke-miterlimit="10" stroke-width="0.05"/><path d="M213.2,91.5a7.8,7.8,0,0,1-1.1,1.8l-.4-.8a14,14,0,0,0,2.4-4.9l.9.3h-.3a19.5,19.5,0,0,1-.8,2.2h.2c0,.1,0,.2-.2.2v7.4h-.7Zm9-.9v.7h-6.4V93a8.8,8.8,0,0,1-1.1,4.7l-.5-.4a8.4,8.4,0,0,0,.9-4.3V90.6Zm-7.4-2h1.9v-1h.7v.8h2.2v-1h.7v.8h1.8v.6h-1.8v1h-.7v-1h-2.2v1h-.7v-1h-1.9Zm7,3.6V97c0,.7-.4.7-1.7.7a1.1,1.1,0,0,0-.2-.5h.7c.5,0,.6,0,.6-.2V95.9h-1.8v1.8h-.6V95.9h-1.7v1.8h-.6V92.2Zm-3,.6h-1.7v1h1.7Zm-1.7,2.6h1.7V94.3h-1.7Zm4.1-2.6h-1.8v1h1.8Zm-1.8,2.6h1.8V94.3h-1.8Z" stroke="#000" stroke-miterlimit="10" stroke-width="0.05"/><path d="M226,92.4v.5l-1.3.5v3.5c0,.8-.3.9-1.7.8a2.1,2.1,0,0,0-.2-.6h.6c.6,0,.6,0,.6-.2V93.7l-1,.4h-.2l-.2-.8L224,93V90.4h-1.4v-.7H224V87.5h.9c0,.1,0,.1-.2.1v2H226v.7h-1.3v2.4Zm3.4.4h-2.5a11.8,11.8,0,0,1-1.1,5l-.6-.4c1-1.7,1.1-4.1,1.1-5.8v-3h2.8V87.5h.9c0,.1,0,.1-.2.1v.9h2.9v.6h-5.8v.9h1.2v-.7h.6v.5h2v-.7h.6v.5h1.4v.5h-1.4v1.2h-3.2V90.6h-1.2v1.7h5.9v.5H230v.7h2.2v2.8h-4.9V93.5h2.1Zm-.3,3.8h-.2a6.4,6.4,0,0,1-2.2,1l-.4-.4a8.2,8.2,0,0,0,2.1-1Zm-1.2-2.7v.7h1.5v-.7Zm0,1.2v.7h1.5v-.7Zm2.8-4.5h-2v.7h2Zm.9,3.3H230v.7h1.6Zm0,1.9v-.7H230v.7Zm.6,2a10.5,10.5,0,0,0-1.9-1.2l.5-.3,2.1,1.1Z" stroke="#000" stroke-miterlimit="10" stroke-width="0.05"/><path d="M237.5,93h-.2c-.2,2.3-.7,3.9-3.5,4.7l-.5-.7c2.7-.6,3.1-2,3.3-4.2Zm5,.3-.7-.9-7.5.3c0,.1,0,.2-.1.2l-.3-.9h1.7a12.4,12.4,0,0,0,1.2-2.3h-3.3v-.7H238V87.5h1c0,.1-.1.1-.3.1v1.2h4.6v.7h-5.5c0,.1-.1.1-.2.1a23.9,23.9,0,0,1-1.2,2.2h4.8l-1.7-1.5.6-.3a21.7,21.7,0,0,1,3.1,2.8Zm-2.3,3.3c0,.3.1.4.5.4h1.5c.5,0,.6-.3.6-2l.7.3c-.1,1.9-.3,2.4-1.2,2.4h-1.7c-.9,0-1.2-.3-1.2-1.2V92.8h.8Z" stroke="#000" stroke-miterlimit="10" stroke-width="0.05"/><path d="M246.8,87.8h-.3a13.8,13.8,0,0,1-1,2.2H248a8.3,8.3,0,0,0-.8-1.2l.6-.3a9.7,9.7,0,0,1,1.5,2.5l-.6.3-.3-.7-4.1.2a.2.2,0,0,1-.2.2l-.2-.9h.9a20.3,20.3,0,0,0,1.1-2.6Zm1.8,3.9v5.2c0,.8-.5.8-1.9.8a1.9,1.9,0,0,0-.2-.7h.8c.5,0,.5,0,.5-.2V95.7h-2.5v2.1h-.7V91.7Zm-.8.7h-2.5v1h2.5Zm-2.5,2.7h2.5V94h-2.5Zm7.6-3.4c.4,0,.5-.2.5-1.3l.7.3c-.1,1.3-.3,1.7-1.2,1.7h-2c-1,0-1.3-.2-1.3-1.1V87.5h1c0,.1-.1.1-.2.1v1.8l2.7-1.1.5.6h-.2l-3,1.1v1.2c0,.3.1.4.6.4Zm-2.5,4.8c0,.4.1.5.6.5h2c.5,0,.5-.2.6-1.5l.7.3c-.1,1.4-.4,1.8-1.3,1.8h-2c-1.1,0-1.4-.2-1.4-1.1V92.7h1c0,.1-.1.1-.2.1v1.6a12.6,12.6,0,0,0,2.8-1.1l.6.6h-.2c-.8.4-2.1.8-3.2,1.2Z" stroke="#000" stroke-miterlimit="10" stroke-width="0.05"/><path d="M263.5,90h.8a.4.4,0,0,1-.1.3c-.1,4.8-.3,6.4-.7,6.9s-.7.5-1.4.5h-1.3a1.1,1.1,0,0,0-.3-.7h1.8l.5-.2c.3-.4.5-2,.7-6.1h-4a8.1,8.1,0,0,1-4.2,7.1l-.5-.6a7.4,7.4,0,0,0,3.9-6.5h-3.6V90h3.7V87.5h1c0,.1-.1.1-.2.2v1.6a1.3,1.3,0,0,1-.1.6Z" stroke="#000" stroke-miterlimit="10" stroke-width="0.05"/><path d="M266.9,89.4a13.9,13.9,0,0,0,.6-1.9l.9.2a.2.2,0,0,1-.2.2c-.2.4-.4,1-.6,1.5h1.9v6.5h-3v1h-.7V89.4Zm1.9,2.9V90.1h-2.3v2.2Zm-2.3,3h2.3V92.9h-2.3Zm8.3-5.9h.4v.3c-.2,5.3-.3,7.1-.8,7.6s-.5.4-1.3.4h-1.3a1.9,1.9,0,0,0-.2-.7h2.2c.3-.4.5-2.1.6-6.8h-3.1a7.3,7.3,0,0,1-1.2,2.5l-.6-.5a12.3,12.3,0,0,0,1.8-4.6l.9.2c0,.1-.1.2-.2.1s-.3,1.1-.4,1.6Zm-3.1,2.4a12.2,12.2,0,0,1,1.5,2.7l-.7.3A9.7,9.7,0,0,0,271,92Z" stroke="#000" stroke-miterlimit="10" stroke-width="0.05"/><path d="M279.3,92.4v.5l-1.3.5v3.5c0,.8-.4.9-1.7.8l-.3-.6h.7c.5,0,.6,0,.6-.2V93.7l-1.1.4a.1.1,0,0,1-.1.1l-.3-.8,1.5-.4V90.4H276v-.7h1.4V87.5h.9c0,.1-.1.1-.2.1v2h1.2v.7h-1.2v2.4Zm3.5.4h-2.5a11.9,11.9,0,0,1-1.2,5l-.5-.4a13.2,13.2,0,0,0,1-5.8v-3h2.9V87.5h.9c0,.1-.1.1-.2.1v.9h2.9v.6h-5.8v.9h1.2v-.7h.6v.5h2v-.7h.6v.5H286v.5h-1.3v1.2h-3.2V90.6h-1.2v1.7h5.9v.5h-2.8v.7h2.2v2.8h-5V93.5h2.2Zm-.4,3.8c0,.1-.1.1-.2.1a5.9,5.9,0,0,1-2.1,1l-.5-.4a9,9,0,0,0,2.2-1Zm-1.2-2.7v.7h1.6v-.7Zm0,1.2v.7h1.6v-.7Zm2.9-4.5h-2v.7h2Zm.8,3.3h-1.5v.7h1.5Zm0,1.9v-.7h-1.5v.7Zm.7,2-2-1.2.5-.3a13.4,13.4,0,0,1,2.1,1.1Z" stroke="#000" stroke-miterlimit="10" stroke-width="0.05"/><path d="M290.9,93h-.2c-.3,2.3-.8,3.9-3.6,4.7l-.4-.7c2.6-.6,3-2,3.2-4.2Zm5,.3-.7-.9-7.5.3a.2.2,0,0,1-.2.2l-.3-.9H289a12.3,12.3,0,0,0,1.1-2.3h-3.2v-.7h4.4V87.5h1c0,.1-.1.1-.2.1v1.2h4.5v.7h-5.7a11.9,11.9,0,0,1-1.2,2.2h4.8l-1.7-1.5.6-.3a14.4,14.4,0,0,1,3.1,2.8Zm-2.4,3.3c0,.3.1.4.6.4h1.5c.4,0,.5-.3.6-2l.6.3c0,1.9-.2,2.4-1.2,2.4H294c-1,0-1.2-.3-1.2-1.2V92.8h.7Z" stroke="#000" stroke-miterlimit="10" stroke-width="0.05"/><path d="M299.9,90.2l-.5-1.2h-.5l-1,1.2-.6-.4a6.7,6.7,0,0,0,1.6-2.3l.8.3a.1.1,0,0,1-.2,0l-.3.6h3.1V89h-2.2l.5,1Zm7.6-1.8V89h-2.6a6.1,6.1,0,0,1,.7,1l-.7.2a6.2,6.2,0,0,0-.8-1.2h-.9l-.7.8h.5l-.2.2v.7h4.3v2h-.7V91.3h-7.9v1.4h-.7v-2H302V90l-.5-.3a4.7,4.7,0,0,0,1.7-2.2l.9.2h-.2l-.3.6Zm-7.4,5.8V95h6.1v2.7h-.7v-.3h-5.4v.3h-.7V92h6.1v2.2Zm4.7-1.6h-4.7v1h4.7Zm.7,3h-5.4v1.2h5.4Z" stroke="#000" stroke-miterlimit="10" stroke-width="0.05"/><path d="M310.4,91.9v3.6c.8,1.3,2.4,1.3,4.4,1.3h3.4c0,.2-.2.6-.2.8h-3.1c-2.2,0-3.7,0-4.8-1.3l-1.6,1.3v.2l-.5-.8,1.8-1.3v-3h-1.6v-.7Zm-1.7-4.1a8.8,8.8,0,0,1,2,1.7l-.6.5a8.3,8.3,0,0,0-1.9-1.8Zm3.2,2.9h1.9c.1-.3.1-.7.2-1h-3v-.6h1.9a4.2,4.2,0,0,0-.7-1.3l.5-.3a3.7,3.7,0,0,1,.9,1.4l-.4.2h2l.9-1.5.8.3h-.2l-.8,1.2H318v.6h-3.2l-.3,1h2.6v5.4h-.8v-.3h-3.7v.3h-.7Zm4.4,1.5v-.9h-3.7v.9Zm-3.7.6v.9h3.7v-.9Zm0,2.4h3.7v-1h-3.7Z" stroke="#000" stroke-miterlimit="10" stroke-width="0.05"/><path d="M444.5,61.6v.7l-1.3.4V66c0,.9-.5.9-1.9.9s-.1-.5-.3-.7h.7c.8,0,.8,0,.8-.2V62.9l-1.3.4c0,.1,0,.1-.1.2l-.3-.9,1.7-.4V59.7H441V59h1.6V56.7h.9c0,.1-.1.1-.2.1V59h1.3v.7h-1.3V62Zm5.6,1.2.5.3a.1.1,0,0,1-.1.1,6.3,6.3,0,0,1-2,2.3l2.8.8-.5.6a10.3,10.3,0,0,1-3.1-1,16.9,16.9,0,0,1-3.4,1.1l-.4-.7a11.6,11.6,0,0,0,3.2-.8,5.8,5.8,0,0,1-1.7-1.8l.5-.2h-1.3v-.6h5.5Zm-2.7-.2v-.9H445v-4l.4.2,1.3-.7.6.5h-.2a4.2,4.2,0,0,1-1.5.7v1h1.3V60h-1.3v1.1h1.8V56.7h.7v4.2H450V60h-1.4v-.6H450V58.3h-1.5v-.6h2.1v4h-2.5v.9Zm-1.3.9a5.2,5.2,0,0,0,1.7,1.6,4.4,4.4,0,0,0,1.7-1.6Z" stroke="#000" stroke-miterlimit="10" stroke-width="0.05"/><path d="M462.1,63.8v.7h-2.3v1.6c0,.4-.1.6-.5.7h-1.9a1.4,1.4,0,0,0-.2-.6h1.2c.6,0,.7,0,.7-.2V64.5h-4.7a6.4,6.4,0,0,1,1.8,1.3l-.5.5-1.8-1.4.4-.4H452v-.7h7.1v-.7h.9a.2.2,0,0,1-.2.2v.5Zm-5.4-.9-4.1.4c0,.1-.1.1-.2.1l-.2-.7h1.9V61.4h-1.6v-.6h4v.6h-1.7v1.1h1.9Zm3.9-5.7v3h-7.3v-.5h6.6V59h-6.3v-.6h6.3v-.7h-6.6v-.5Zm.8,3.6v2.3h-4.1V60.8Zm-.7,1.7V61.4H458v1.1Z" stroke="#000" stroke-miterlimit="10" stroke-width="0.05"/><path d="M466.6,64.9h-.2l-2.8,1.8-.6-.5a9,9,0,0,0,2.8-1.8Zm3.4-2.7a16.4,16.4,0,0,1,2.9,2l-.6.5-.6-.6h-3.3V67h-.7V64.2h-4.2l-.3-.8h2.4l.9-.5-2.1-1.4.5-.4.6.3a10,10,0,0,0,1.5-1.4h-3v1.5h-.7V59.6h4.4V58.4h-4.4v-.7h4.4v-1h.9a.2.2,0,0,1-.2.2v.8h4.4v.7h-4.4v1.2h4.4v2.1h-.7V60.2h-4.4l.3.2c0,.1-.1.1-.2.1l-1.7,1.4,1,.7a13.5,13.5,0,0,0,2.5-1.9l.8.5h-.2a22.7,22.7,0,0,1-3.4,2.4h4.1a6.7,6.7,0,0,0-1.4-.9Zm.1,2.3a24.5,24.5,0,0,1,2.9,1.8l-.7.5a9.8,9.8,0,0,0-2.7-1.9Z" stroke="#000" stroke-miterlimit="10" stroke-width="0.05"/><path d="M478.5,62.1h.6c0,.1-.1.2-.1.3-.2,2.7-.4,3.8-.8,4.2s-.6.3-1.3.3h-1.5a1.1,1.1,0,0,0-.3-.8h2.5c.3-.3.5-1.2.6-3.3h-2.9c-.1.2-.1.4-.2.5h-.7a29.8,29.8,0,0,0,.6-3.4h3.3V57.9h-3.9v-.7H479v3.6h-.7v-.3h-2.6l-.3,1.6Zm3.7-5.3h.7v9.9h-.7Z" stroke="#000" stroke-miterlimit="10" stroke-width="0.05"/><path d="M581.9,236.6l-.2.2v.3c.1,1.5.8,6.7,5,8.6a1.2,1.2,0,0,0-.6.6c-3-1.4-4.2-4.4-4.7-6.7h0a9.6,9.6,0,0,1-4.6,6.7l-.6-.6c4.6-2.3,4.6-7.7,4.7-9.2Z" stroke="#000" stroke-miterlimit="10" stroke-width="0.05"/><path d="M592.8,244.8h4.6v.7h-10v-.7H592v-6.6h-4v-.8h8.8v.8h-4Z" stroke="#000" stroke-miterlimit="10" stroke-width="0.05"/><path d="M599.2,243.1a7.2,7.2,0,0,1-.6,2.7l-.4-.3a5.8,5.8,0,0,0,.5-2.5Zm3-1.4h.4v.3c-.2,2.8-.3,3.8-.5,4.1s-.4.3-1,.3h-.6c0-.2,0-.5-.1-.6h.8c.2,0,.3,0,.3-.1a4.3,4.3,0,0,0,.3-1.5l-.4.2a15.6,15.6,0,0,0-.6-1.5h.3a4.6,4.6,0,0,1,.7,1.4h0a10.3,10.3,0,0,0,.1-1.9h-2.5v.3h-.6v-6h3.7v.6H601v1.1h1.3v.6H601V240h1.3v.6H601v1.1h1.2Zm-1.8-4.5h-1v1.1h1Zm0,2.8v-1.1h-1V240Zm-1,.6v1.1h1v-1.1Zm.2,4.6a16.8,16.8,0,0,0-.2-2h.4a15,15,0,0,1,.2,2Zm.9-2.2a16.7,16.7,0,0,1,.5,1.8h-.4a16.7,16.7,0,0,0-.5-1.8Zm5.5-6.8c0,.1-.1.1-.2.1a8.6,8.6,0,0,0,2.9,2.8c-.2.1-.3.4-.4.6a11.1,11.1,0,0,1-2.9-2.8,8,8,0,0,1-2.7,2.8l-.4-.5a8,8,0,0,0,2.8-3Zm-1.1,9.5-.9-.9a4,4,0,0,1-1.2,1.6l-.5-.4a4,4,0,0,0,1.6-3l.8.2h-.2a2.9,2.9,0,0,0-.2.9l1.1,1.1Zm-1.9-3v-2.5h2.2v2.5Zm.5-2v1.5h1.1v-1.5Zm3.5-1.9v.6h-3.1v-.6Zm1.1,7.6-1.3-1.6a3.4,3.4,0,0,1-1.3,1.6l-.4-.5a4.1,4.1,0,0,0,1.5-2.9l.9.2h-.2l-.3.9a12.2,12.2,0,0,1,1.6,1.8Zm0-6.2v2.5h-2.3v-2.5Zm-.6,2v-1.5h-1.1v1.5Z" stroke="#000" stroke-miterlimit="10" stroke-width="0.05"/><path d="M613,238v.6h-3.7V238Zm-.3,4.5v3.2h-2.3v.6h-.7v-3.8Zm-3-2.4v-.6h3v.6Zm0,1.5V241h3v.6Zm3-5v.6h-2.9v-.6Zm-.6,6.5h-1.7v2h1.7Zm2.5-3v-.5a5.3,5.3,0,0,1-1.4,1.2c-.1-.1-.2-.4-.4-.5a5.8,5.8,0,0,0,1.5-1.3,11.4,11.4,0,0,0-1.1-1.1l.5-.4.9.9.6-1.2h-1.8v-.6h2.2l.4.2h-.1a5.3,5.3,0,0,1-1.2,2.5h3a8.9,8.9,0,0,1-1.4-3.1h.6c.1.4.3.8.4,1.2a4.5,4.5,0,0,0,1-.9l.6.5h-.3a5.3,5.3,0,0,1-1.1.9l.5.7,1-1,.6.6h-.3l-1.1.8a3.6,3.6,0,0,0,1.4,1.1l-.5.6a4.9,4.9,0,0,1-1.3-1.2v.6Zm2.6,5.3-.5-.2a8.7,8.7,0,0,0,.7-1.7l.8.2c0,.1-.1.1-.2.1a11.1,11.1,0,0,1-.7,1.6h2.2v.6H613v-.6h2a11.5,11.5,0,0,0-.6-1.7l.6-.2a5.8,5.8,0,0,1,.6,1.7l-.6.2Zm-3.3-2v-2.6h4.6v2.6Zm.7-2v1.4h3.2v-1.4Z" stroke="#000" stroke-miterlimit="10" stroke-width="0.05"/><path d="M497.2,240.2a14.5,14.5,0,0,1,1.2,1.9l-.4.5-.8-1.6v5.4h-.7V241a9.6,9.6,0,0,1-1.3,3.2,3.3,3.3,0,0,0-.3-.6,15.5,15.5,0,0,0,1.5-4.3h-1.3v-.7h1.4v-2.5h.9c0,.1,0,.1-.2.2v2.2h1.2v.7h-1.2Zm5.2,2.3a7.5,7.5,0,0,0,.4,1.6,4.2,4.2,0,0,0,.9-1.4l.8.3h-.2a6.1,6.1,0,0,1-1.2,1.6c.3.7.7,1,1.1,1s.5-.2.5-1.3l.6.4c-.2,1.2-.4,1.6-1.1,1.6s-1.2-.5-1.7-1.2a7.5,7.5,0,0,1-2,1.1c0-.1-.2-.3-.4-.4a9.1,9.1,0,0,0,2.2-1.3,10.5,10.5,0,0,1-.6-2.1h-1.9v.7l1.6,1.1-.4.5-1.3-1a4.6,4.6,0,0,1-1.5,2.5l-.5-.4a4.3,4.3,0,0,0,1.5-3.4h-.8v-.6h3.2a33.2,33.2,0,0,1-.4-5.7h.9c0,.1-.1.1-.2.2a30.9,30.9,0,0,0,.4,5.5h1.6l-1-.7.3-.4,1.2.8-.2.3h.9v.6Zm-4.1-2.1h.4l.8-1.1a6.3,6.3,0,0,0-1.2-1.1l.3-.4.2.2c.3-.5.6-1.2.8-1.6l.7.3H500l-.8,1.5.6.5c.2-.5.5-.9.7-1.3l.7.3h-.3a25.6,25.6,0,0,1-1.6,2.5h1.2l-.3-.7.5-.2a6.4,6.4,0,0,1,.6,1.6l-.5.2a.8.8,0,0,0-.1-.4l-2,.2a.2.2,0,0,1-.2.2Zm4.2-.2a8.6,8.6,0,0,0,.7-1,6.3,6.3,0,0,0-1.2-1.1l.3-.4.3.2a7.1,7.1,0,0,0,.7-1.6l.7.3h-.2l-.8,1.5.5.5.7-1.3.7.3c0,.1-.1.1-.2.1a16.7,16.7,0,0,1-1.6,2.4h1.3l-.3-.7h.5a6.6,6.6,0,0,1,.7,1.5l-.5.3-.2-.5-2.1.2h-.1l-.3-.6Z" stroke="#000" stroke-miterlimit="10" stroke-width="0.05"/><path d="M516.1,241.3h-3.3a8.6,8.6,0,0,0,3.6,1.7l-.5.7-.8-.3v3h-.7V246h-2.1v.4h-.7v-3.6h2.2a9.7,9.7,0,0,1-1.9-1.5h-1.7a9.7,9.7,0,0,1-1.9,1.5h2.2v3.6h-.7V246h-2.1v.4H507v-3l-.7.3a1.5,1.5,0,0,0-.5-.6,9.9,9.9,0,0,0,3.4-1.8h-3.1v-.7h3.7a2.4,2.4,0,0,0,.6-.9h-3.5v-3h3.6v2.7l.8.3h-.2l-.5.8h5.4Zm-6.4-2.2v-1.8h-2.1v1.8Zm.1,6.2v-1.9h-2.1v1.9Zm5.5-8.6v3h-3.6v-3Zm-3,8.6h2.1v-1.9h-2.1Zm2.3-6.2v-1.8h-2.2v1.8Z" stroke="#000" stroke-miterlimit="10" stroke-width="0.05"/><path d="M526.9,243.5v.6h-4.5v1.5c0,.8-.3.8-2.2.8a2.1,2.1,0,0,0-.3-.7H521c.6,0,.7,0,.7-.2v-1.5h-4.5v-.6h4.5v-.7h.6l1.4-.8h-4.5v-.6h5.4l.5.4H525l-2.6,1.4h4.5Zm-8.8-2.8v1.4h-.8v-2h.9l-.2-3.5.6.2,1.5-.5.5.5h-.2l-1.7.5v.5h1.7v.5h-1.7v.7h1.6v.5h-1.6v.6h6.3v-.6h-1.7V239h1.7v-.7h-1.7v-.5h1.7v-.7h-1.9v-.5h2.6c-.1,1.1-.2,2.6-.3,3.5h.9v2h-.7v-1.4Zm5.2-4.2h-.2l-.6.5.7.5-.4.4-.7-.5a3.9,3.9,0,0,1-1.1.6l-.4-.3,1.1-.6-.8-.5.4-.3.8.4.5-.5Zm-1.9,1.8.8.4.5-.6.7.3h-.2l-.6.6.7.6-.4.4-.7-.6-1.1.7-.4-.4,1.1-.6-.8-.5Z" stroke="#000" stroke-miterlimit="10" stroke-width="0.05"/><path d="M528.1,240.2l3-1.1v.6l-2.7,1c0,.1,0,.2-.1.2Zm4.4.2c0,.8-.3.8-1.7.8l-.3-.6h.8c.5,0,.5,0,.5-.2v-3.1h-3.5v-.6h4.2Zm-2.2-1.3a4.7,4.7,0,0,0-1.5-1.2l.4-.4a4.5,4.5,0,0,1,1.5,1.1Zm1.9,2.7.5-1.1.8.2h-.2a5.9,5.9,0,0,1-.4.8h3.7v4.6h-.7V246h-5.6v.4h-.7v-4.6Zm3.7,1.7v-1.1h-5.6v1.1Zm-5.6,1.9h5.6v-1.3h-5.6Zm6-5.9-2.8,1.1h-.1l-.4-.7,3.2-1.1Zm1.2-2.8v3.7c0,.8-.4.8-1.8.8l-.3-.6h.9c.5,0,.5,0,.5-.2v-3.1h-3.5v-.6Zm-3.5.8a9.7,9.7,0,0,1,1.5,1l-.4.5a5.6,5.6,0,0,0-1.5-1Z" stroke="#000" stroke-miterlimit="10" stroke-width="0.05"/><path d="M542.9,236.6v8.9c0,.9-.4.9-1.8.9l-.3-.7h.8c.6,0,.6,0,.6-.2v-2.9h-1.9a11.7,11.7,0,0,1-.8,3.8l-.6-.4c.8-1.5.8-3.8.8-5.4v-4Zm-2.5,4v1.3h1.8v-2h-1.8Zm1.8-3.3h-1.8v1.9h1.8Zm6.2,3.4.5.2h-.1a8.4,8.4,0,0,1-1.5,3.3,5.5,5.5,0,0,0,2,1.5l-.5.6a9,9,0,0,1-1.9-1.5,8,8,0,0,1-1.7,1.5l-.5-.5a5.5,5.5,0,0,0,1.8-1.6,8.7,8.7,0,0,1-1.4-2.7h.6a10.1,10.1,0,0,0,1.2,2.3,16.3,16.3,0,0,0,1.1-2.3h-3.3v4.9H544v-9.8h4.6v2.6c0,.8-.4.8-2,.8a1.9,1.9,0,0,0-.2-.7h.8c.7,0,.7,0,.7-.1v-1.9h-3.2v3.5h3.7Z" stroke="#000" stroke-miterlimit="10" stroke-width="0.05"/><path d="M560,238h-.9a6,6,0,0,1-1.4,2.1,6.4,6.4,0,0,0,2.5,1.2l-.5.6a6.7,6.7,0,0,1-2.5-1.3,7.2,7.2,0,0,1-2.6,1.4l-.3-.5-.6,1.4-.5-.3a19.7,19.7,0,0,0,.7-1.9h-1.2v4.8c0,.8-.4.8-1.7.8a1.1,1.1,0,0,0-.3-.6h.8c.5,0,.5,0,.5-.2v-3.9a9.5,9.5,0,0,1-1.7,3l-.4-.7a8.9,8.9,0,0,0,1.8-3.2H550v-.6h3.1a10.5,10.5,0,0,0-2.6-1.6l.5-.5,1.1.6,1.3-1.2h-3.3v-.7h4l.5.3h-.1l-1.8,1.8.9.7-.4.5h1.5a9.3,9.3,0,0,1-.4,1.3,7,7,0,0,0,2.4-1.3,7.6,7.6,0,0,1-1.1-1.4l-.8.9-.6-.4a7.4,7.4,0,0,0,1.9-3.1l.9.3h-.3l-.3.8H560Zm-.9,4.6h.5a.3.3,0,0,1-.1.2c-.2,2-.4,2.9-.7,3.2a1.4,1.4,0,0,1-1.1.3h-.8a1.9,1.9,0,0,0-.2-.7h1.5c.2-.2.4-.8.5-2.4H557a4.6,4.6,0,0,1-2.8,3.2l-.4-.5a4.2,4.2,0,0,0,2.4-2.7h-1.7v-.6h1.9c.1-.4.1-.8.2-1.2h.9l-.2.2c-.1.3-.1.6-.2.9h2ZM556,238h0a6.1,6.1,0,0,0,1.2,1.6,3.9,3.9,0,0,0,1.1-1.7Z" stroke="#000" stroke-miterlimit="10" stroke-width="0.05"/><path d="M246.6,80.3l-1.4.5v3.3c0,.8-.3.9-1.8.9a1.9,1.9,0,0,0-.2-.7h1.1c.1,0,.2,0,.2-.2v-3l-1.4.4c0,.1,0,.2-.1.2l-.3-.9,1.8-.5V77.7h-1.7V77h1.7V74.8h.7v2h1.3v.7h-1.3v2.4l1.3-.4Zm5.3-1,.5.2h-.1a7,7,0,0,1-2.1,3.3,7.3,7.3,0,0,0,2.9,1.5,1.5,1.5,0,0,0-.5.6,7.5,7.5,0,0,1-2.9-1.6,10.1,10.1,0,0,1-3.3,1.6l-.4-.6a8.9,8.9,0,0,0,3.1-1.5,7.1,7.1,0,0,1-1.6-2.8h-.7v-.7h2.5v-2h-2.6v-.7h2.6V74.8h.7v1.6h2.9v.7H250v2h1.9Zm-3.8.7a7.8,7.8,0,0,0,1.6,2.4,7,7,0,0,0,1.7-2.4Z" stroke="#000" stroke-miterlimit="10" stroke-width="0.05"/><path d="M256.3,75c0,.1-.1.2-.3.2a13.8,13.8,0,0,1-1,2.2h2.6l-.9-1.2.6-.3a9.7,9.7,0,0,1,1.5,2.5l-.6.3-.3-.7-4.1.2a.2.2,0,0,1-.2.2l-.2-.9h.9c.4-.8.8-1.8,1.1-2.6Zm1.8,4v5.2c0,.8-.5.8-1.9.8a1.9,1.9,0,0,0-.2-.7h.8c.5,0,.5,0,.5-.2V82.9h-2.5v2.2h-.7V79Zm-.8.6h-2.5v1.1h2.5Zm-2.5,2.8h2.5V81.3h-2.5Zm7.6-3.4c.4,0,.5-.2.5-1.3l.7.3c-.1,1.3-.3,1.7-1.2,1.7h-2c-1,0-1.3-.3-1.3-1.1V74.8h.8v1.7l2.7-1,.5.6h-.2l-3,1v1.3c0,.3.1.4.6.4Zm-2.5,4.8c0,.4.1.5.6.5h2c.5,0,.5-.3.6-1.5l.7.2c-.1,1.5-.4,1.9-1.3,1.9h-2c-1.1,0-1.4-.2-1.4-1.1V80h.8v1.6a9.1,9.1,0,0,0,2.8-1.2l.6.7h-.2c-.8.4-2.1.8-3.2,1.2Z" stroke="#000" stroke-miterlimit="10" stroke-width="0.05"/><path d="M274.2,82.2h-4a12.5,12.5,0,0,0,4.2,2l-.4.6a11.6,11.6,0,0,1-4.4-2.3V85h-.8V82.5a12.9,12.9,0,0,1-4.3,2.4,1.5,1.5,0,0,0-.5-.6,11.9,11.9,0,0,0,4.2-2.1h-3.9v-.6h4.5v-.7h-3.2V77.6l-1.1,1.1-.5-.5a11,11,0,0,0,2.6-3.4h.9c0,.1,0,.2-.2.2l-.6,1h2.2a8.3,8.3,0,0,0,.7-1.3l.9.2h-.2l-.6,1h3.7v.7h-3.6v.7H273v.6h-3.2v.8H273v.5h-3.2v.9h4.1v.6h-4.3v.7h4.6ZM269,77.5v-.7h-2.7v.7Zm0,1.4v-.8h-2.7v.8Zm-2.7.5v.9H269v-.9Z" stroke="#000" stroke-miterlimit="10" stroke-width="0.05"/><path d="M275.6,79.7a.5.5,0,0,1-.4-.2.8.8,0,0,1-.2-.4c0-.2.1-.3.2-.5h.8c.1.2.2.3.2.5a.8.8,0,0,1-.2.4A.5.5,0,0,1,275.6,79.7Zm0,4.5a.6.6,0,0,1,0-1.2l.4.2a.6.6,0,0,1-.4,1Z" stroke="#000" stroke-miterlimit="10" stroke-width="0.05"/><path d="M243,11.5v.6h-4v-.6Zm-.3,4.4v3.3h-2.5v.5h-.7V15.9Zm0-2.9v.6h-3.2V13Zm-3.2,2.1v-.7h3.2v.7Zm3.1-5.1v.6h-3V10Zm-.6,6.6h-1.8v1.9H242Zm2.3-.1a5.8,5.8,0,0,1-.9,2.7l-.6-.4a4.6,4.6,0,0,0,.9-2.4Zm1.9-5.8a8.9,8.9,0,0,1-.3,1.4l1.3.8-.3.6-1.3-.8a4.7,4.7,0,0,1-2,2.2,1.5,1.5,0,0,0-.5-.6,3.2,3.2,0,0,0,1.9-1.9l-1.5-.6.4-.5,1.4.5.3-1.1h-2V10H249c-.1.4-.1,3.7-.5,4.2s-.6.3-1.1.3h-1a1,1,0,0,0-.2-.7h1.4l.3-.2a14.1,14.1,0,0,0,.3-3.1Zm-.7,8c0,.2,0,.3.4.3h1c.3,0,.4-.2.4-1.3s.4.3.6.3-.2,1.6-.9,1.6h-1.2c-.8,0-1-.2-1-.9V16h.9l-.2.2Zm1.4-2.3a8.6,8.6,0,0,0-2-1.5l.5-.4a8,8,0,0,1,2,1.5Zm1.9,2.7a9,9,0,0,0-1.3-2.6l.6-.3a5.6,5.6,0,0,1,1.3,2.7Z" stroke="#000" stroke-miterlimit="10" stroke-width="0.05"/><path d="M252.9,11.8v2.4h2v.7h-2.1a4.3,4.3,0,0,1-.2,1.1c.6.5,1.8,1.9,2.1,2.2l-.4.6-1.9-2.1a5.6,5.6,0,0,1-2.2,3l-.5-.6a5.5,5.5,0,0,0,2.4-4.2h-2.4v-.7h2.5V11.8h-1a17.2,17.2,0,0,1-.9,1.9l-.6-.4A8.9,8.9,0,0,0,251,9.6l.9.2h-.2l-.3,1.2h3.2v.7Zm2.5-1.2h4v8.8h-.7v-.8h-2.6v.9h-.7Zm.7,7.3h2.6V11.3h-2.6Z" stroke="#000" stroke-miterlimit="10" stroke-width="0.05"/><path d="M264.2,15.1l-1.4.5v3.3c0,.8-.3.9-1.8.9a1.9,1.9,0,0,0-.2-.7h1.1c.1,0,.2,0,.2-.2v-3l-1.4.4c0,.1,0,.2-.1.2l-.3-.9,1.8-.5V12.5h-1.7v-.7h1.7V9.6h1c-.1.1-.1.2-.3.2v2h1.3v.7h-1.3v2.4l1.3-.4Zm5.3-1.1.5.3h-.1a8.1,8.1,0,0,1-2.1,3.3,7.3,7.3,0,0,0,2.9,1.5,1.5,1.5,0,0,0-.5.6,7.5,7.5,0,0,1-2.9-1.6,10.1,10.1,0,0,1-3.3,1.6l-.4-.6a8.9,8.9,0,0,0,3.1-1.5,8.5,8.5,0,0,1-1.6-2.8h-.7v-.7h2.5v-2h-2.6v-.7h2.6V9.6h1a.2.2,0,0,1-.2.2v1.6h2.8v.7h-2.8v2h1.8Zm-3.8.8a7.8,7.8,0,0,0,1.6,2.4,8.1,8.1,0,0,0,1.7-2.4Z" stroke="#000" stroke-miterlimit="10" stroke-width="0.05"/><path d="M273.8,9.9h-.2a12.3,12.3,0,0,1-2.2,2.4l-.4-.5a8.7,8.7,0,0,0,2-2.3Zm-1.4,5-1,1.3-.4-.6a12.8,12.8,0,0,0,2.2-3.6l.8.3h-.2a6.4,6.4,0,0,1-.8,1.4h.3l-.3.2v5.7h-.6Zm2.8-.5H275a10.2,10.2,0,0,1-.9,3.9l-.5-.3a10.3,10.3,0,0,0,.8-3.9Zm3-1.6h-1.7v6.8h-.7V12.8h-1.7v-.7h1.7V9.7h.9l-.2.2v2.1h1.7Zm-.8-2.9a4,4,0,0,1,.9,1.5l-.5.3a7,7,0,0,0-1-1.6Zm.3,7.8a21,21,0,0,0-.6-3.3l.6-.2a24.5,24.5,0,0,1,.6,3.4Zm3.6-4.4V14h-1.1v4.9c0,.9-.3.9-1.9.9a1.1,1.1,0,0,0-.3-.7h1c.5,0,.5,0,.5-.2V14h-1.3v-.7Zm-.2-3v.6h-2.7v-.6Z" stroke="#000" stroke-miterlimit="10" stroke-width="0.05"/><path d="M365.2,162.9h-.3a3,3,0,0,1-.7,1h3.3v.6H357.4V164h3.2l-.6-1.1.6-.2H359v-2h6.9v2h-1.3Zm2-3.4v.6h-9.5v-.6Zm-.2-4.6c-.1.1-.1.2-.3.2V159h-8.5v-4.1h.8c0,.1,0,.2-.2.2v3.3h1.4v-.6h-1.1v-.5h1.1v-.5h-.9v-.5h.9v-.5h-1v-.4h1v-.6h.5v.5h1v.4h-1v.5h.9v.5h-.9v.5h1.1v.5h-1.1v.6h1.4v-3.8h.9l-.2.2v3.6h1.4v-.6h-1.1v-.5h1.1v-.5h-.9v-.5h.9v-.5h-1.1v-.4h1.1v-.6h.5v.5h1v.4h-1v.5h.9v.5h-.9v.5h1.1v.5h-1.1v.6h1.4v-3.5Zm-7.3,6.3v1h5.5v-1Zm3.8,2.8.8-1.3h-3.7a4.5,4.5,0,0,1,.6,1.2h2.3Z" stroke="#000" stroke-miterlimit="10" stroke-width="0.05"/><path d="M373.8,155.7H378v2h-.7v-1.4h-7.8v1.4h-.7v-2H373v-1.1h1l-.2.2Zm-4.2,9.1V161h7.7v3.8h-.8v-.3h-6.2v.3Zm3.4-3.3h-2.7v.9H373Zm-2.7,2.4H373v-1h-2.7Zm6.2-6.9v.6h-6.1V157Zm-.2,3.2h-5.8v-2h5.8Zm-5.1-1.5v1h4.4v-1Zm5.3,3.7v-.9h-2.7v.9Zm-2.7,1.5h2.7v-1h-2.7Z" stroke="#000" stroke-miterlimit="10" stroke-width="0.05"/><path d="M382.9,158.1h-1.6a3.6,3.6,0,0,1-1.5,2.6l-.5-.5a3.2,3.2,0,0,0,1.3-2.1h-1.2v-.7h1.3v-1.7h-1v-.6h4.9v.6h-1v1.7h1.2v.7h-1.2v2.4h-.7Zm1.9,5.7h4.7v.7H379.4v-.7H384v-1.6h-3.5v-.7H384v-1.4h1c0,.1-.1.1-.2.2v1.1h3.5v.7h-3.5Zm-3.4-8.1v1.7h1.5v-1.7Zm5-.5c0,.1-.1.1-.2.2V159h-.7v-3.9Zm2.7-.5c0,.1,0,.1-.2.1v5c0,.7-.4.8-1.9.8l-.3-.7h1.5v-5.2Z" stroke="#000" stroke-miterlimit="10" stroke-width="0.05"/><path d="M400.5,157.2h-2l.4.2h-.3a12,12,0,0,1-2.6,4.4,11,11,0,0,0,4.6,2.2l-.5.7a10,10,0,0,1-4.7-2.4,11.6,11.6,0,0,1-4.7,2.4c0-.2-.3-.5-.4-.6a13.6,13.6,0,0,0,4.5-2.3,11.3,11.3,0,0,1-2.7-4.5l.4-.2h-2.1v-.7H395v-1.9h1l-.2.2v1.7h4.7Zm-7.7,0a12.9,12.9,0,0,0,2.6,4.2,10.9,10.9,0,0,0,2.5-4.2Z" stroke="#000" stroke-miterlimit="10" stroke-width="0.05"/><path d="M402.8,158.5a8.6,8.6,0,0,1-1.4,1.8,2.1,2.1,0,0,0-.3-.7,14.2,14.2,0,0,0,2.7-4.9l.9.3h-.3a21.4,21.4,0,0,1-1,2.2h.3l-.2.2v7.2h-.7Zm8.8,1.8v.7h-3.3v3.8h-.7V161h-3.5v-.7h3.5v-2.7h-2a14.5,14.5,0,0,1-1,1.8l-.6-.4a11.8,11.8,0,0,0,1.7-3.9l.9.2h-.3a8.8,8.8,0,0,1-.5,1.5h1.8v-2.2h.7v2h2.9v.7h-2.9v2.7Z" stroke="#000" stroke-miterlimit="10" stroke-width="0.05"/><path d="M379.3,233.7a17.2,17.2,0,0,1-1,2.6l-.5-.2.6-1.8h-1.2v4.6c0,.8-.4.9-2,.9a1.9,1.9,0,0,0-.2-.7h.8c.6,0,.7,0,.7-.2v-4.6h-1.9v-.6h2.9a13.7,13.7,0,0,0-2.3-1.7l.3-.5,1.2.7a8.1,8.1,0,0,0,1.2-1.4h-3.1v-.7h3.8l.5.3h-.2a8.3,8.3,0,0,1-1.7,2.1,3.6,3.6,0,0,1,.9.8l-.2.3h1.4Zm2.1,4.6h-.2a9,9,0,0,1-2.4,1.5l-.5-.5a8.9,8.9,0,0,0,2.4-1.4Zm-.1-6.4a4.3,4.3,0,0,1,.2-1.1h-2.4v-.7h5.7v.7h-2.5l-.3,1.1h2.4v5.8h-4.8v-5.8Zm2.4,1.8v-1.2h-3.4v1.2Zm0,1.7v-1.2h-3.4v1.2Zm0,1.7V236h-3.4v1.1Zm.7,2.7a11.5,11.5,0,0,0-2-1.4l.6-.4,2,1.4Z" stroke="#000" stroke-miterlimit="10" stroke-width="0.05"/><path d="M387.4,234.4a8.1,8.1,0,0,0-1.8-1.2l.4-.5a7.8,7.8,0,0,1,1.8,1.1Zm-1.6,4.9c.5-.9,1.1-2.4,1.6-3.6l.6.4c-.5,1.2-1,2.5-1.4,3.3v.2h0Zm2-7.8a8.4,8.4,0,0,0-1.7-1.3l.4-.5a8.1,8.1,0,0,1,1.8,1.2Zm2.2,6.1h-.3a6.6,6.6,0,0,1-1.5,2.1l-.6-.4a5.4,5.4,0,0,0,1.5-2.1Zm-1.4-7.5h3.2v7h-3.2Zm.7.7v1.4h1.9v-1.4Zm0,2.1v1.4h1.9v-1.4Zm0,2v1.5h1.9v-1.5Zm2.6,4.5a15.5,15.5,0,0,0-1.3-1.7l.6-.4,1.3,1.7Zm.9-8.6h.6v6.2h-.6Zm1.9-1.2h.9a.2.2,0,0,1-.2.2v9.1c0,.9-.4.9-2.2.9a1.9,1.9,0,0,0-.2-.7h1c.6,0,.7,0,.7-.2Z" stroke="#000" stroke-miterlimit="10" stroke-width="0.05"/><path d="M361.5,257v2.4h2v.7h-2.1a3.6,3.6,0,0,1-.2,1c.6.5,1.8,1.9,2.2,2.3l-.5.6-1.8-2.2a6,6,0,0,1-2.3,3c-.1-.1-.3-.4-.5-.5a5.8,5.8,0,0,0,2.4-4.2h-2.3v-.7h2.4V257h-1a17.2,17.2,0,0,1-.9,1.9l-.6-.4a11.2,11.2,0,0,0,1.4-3.8l.8.3h-.2l-.3,1.2h3.2v.7Zm2.5-1.3h4.1v8.8h-.8v-.7h-2.6v.9H364Zm.7,7.4h2.6v-6.7h-2.6Z" stroke="#000" stroke-miterlimit="10" stroke-width="0.05"/><path d="M372.7,256.6v.6h-3.4v-.6Zm-.2,4.5v3.2h-2.2v.6h-.6v-3.8Zm-.1-3v.6h-2.6v-.6Zm-2.6,2.1v-.6h2.6v.6Zm2.6-5v.6h-2.6v-.6Zm-.6,6.5h-1.5v2h1.5Zm5.8-2.5c0,.9.1,1.7.1,2.4a5.4,5.4,0,0,0,.8-1.9l.7.3c0,.1-.1.1-.2.1a7.1,7.1,0,0,1-1.1,2.5c.2,1,.5,1.7.9,1.7s.3-.7.4-1.6l.5.4c-.1,1.3-.4,1.9-.9,1.9s-1.2-.6-1.4-1.7a9.5,9.5,0,0,1-1.9,1.6l-.5-.4a7,7,0,0,0,2.2-2,26.8,26.8,0,0,1-.3-3.3h-4.3v-.6h4.3c-.1-1.2-.1-2.5-.1-3.8h.9c0,.1,0,.2-.2.2v3.6h1.9v.6Zm-1.1-3.2v.6h-3.6V256h1.5v-1.2h.9l-.2.2v1Zm-.3,7.6h-2.4v.6h-.6v-4.3h3Zm-2.3-6.9a13.6,13.6,0,0,1,.4,1.7h-.6a5.3,5.3,0,0,0-.4-1.6Zm1.7,3.7h-1.8v1h1.8Zm-1.8,2.6h1.8v-1h-1.8Zm2.4-6.1H376a14.2,14.2,0,0,1-.5,1.6l-.5-.2a10.9,10.9,0,0,0,.5-1.7Zm2.1-1.6a5.5,5.5,0,0,1,1.2,1.9l-.6.3a6.6,6.6,0,0,0-1.1-2Z" stroke="#000" stroke-miterlimit="10" stroke-width="0.05"/><path d="M390.3,256.9h-6.1a12.3,12.3,0,0,1-1.4,2.5h.2c-.1.1-.1.2-.3.2V265H382v-4.6a8.6,8.6,0,0,1-1.4,1.3l-.4-.7a9.8,9.8,0,0,0,1.8-1.7h0a10.9,10.9,0,0,0,1.4-2.3h-2.8v-.7h3.1c.2-.5.3-1,.5-1.4l.9.2h-.2c-.1.4-.3.8-.4,1.1h5.8Zm.2,4.3v.7h-3v2.2a.7.7,0,0,1-.5.8h-1.9l-.3-.7h1.1c.8,0,.8,0,.8-.2v-2.2h-3.2v-.7h3.2v-1.1h.3a5.7,5.7,0,0,0,1.5-1.2h-4v-.6h4.8l.6.4h-.2a10.1,10.1,0,0,1-2.2,1.8v.7Z" stroke="#000" stroke-miterlimit="10" stroke-width="0.05"/><path d="M395.2,258.9h.4v.3c-.1,3.8-.2,5-.4,5.4s-.6.3-1.2.3h-.7a1.9,1.9,0,0,0-.2-.7h1.1c.2,0,.2,0,.3-.2s.3-1.3.4-4.5h-1.5c-.2,2.1-.5,4.1-1.6,5.4a1.5,1.5,0,0,0-.6-.5c1.3-1.5,1.5-4.4,1.5-7.2h-1.4v-.7h2.1v-1.8h1c-.1.1-.1.2-.3.2v1.6h2.2v.7h-2.9v1.6Zm6.3-1.4h-.8a13.1,13.1,0,0,1-1.5,4.6,5.9,5.9,0,0,0,2.4,2.3,1.5,1.5,0,0,0-.5.6,6.1,6.1,0,0,1-2.3-2.2A6.9,6.9,0,0,1,396,265l-.4-.6a7.1,7.1,0,0,0,2.8-2.3,16.1,16.1,0,0,1-1.2-3.3,6.4,6.4,0,0,1-.8,1.4l-.5-.5a12.3,12.3,0,0,0,1.7-4.9l1,.2h-.3a8.5,8.5,0,0,1-.4,1.7h3.6Zm-3.8,0c0,.1,0,.2-.1.2a17.9,17.9,0,0,0,1.2,3.7,13.8,13.8,0,0,0,1.2-3.9Z" stroke="#000" stroke-miterlimit="10" stroke-width="0.05"/><path d="M412.5,263.7v.7h-8.9v.6h-.7v-9.7h9.3v.6h-8.6v7.8Zm-7.9-.9V260h2.9v2.8Zm.7-2.3v1.8h1.6v-1.8Zm4.7-3.8v2.5h-4.1v-2.5Zm-.7,1.9v-1.3h-2.7v1.3Zm2,1.4v2.8h-3V260Zm-.6,2.3v-1.8H409v1.8Z" stroke="#000" stroke-miterlimit="10" stroke-width="0.05"/><path d="M520,179.7v.6l-1.2.4v3.5c0,.8-.3.8-1.6.8a1.4,1.4,0,0,0-.2-.6h.6c.5,0,.6,0,.6-.2V181l-1,.4h-.1l-.3-.8,1.4-.4v-2.5H517v-.7h1.3v-2.3h.6v2.1H520v.7h-1.1V180Zm1.2-1V177h-1.4v-.6h1.4v-1.6h.7v1.4h1.3v.6h-1.3v1.7h1v.7H520v-.7Zm1.6,5h-2v.7h-.6v-4h2.6Zm-.6-2.7h-1.4v2.1h1.4Zm2.7,2.2h-.2a5.2,5.2,0,0,1-1.6,1.7l-.5-.4a8.3,8.3,0,0,0,1.6-1.7Zm-1.4-6.3h1l.3-1.1h-1.7v-.7h4.1v.7h-1.7a4.9,4.9,0,0,1-.4,1.1h1.7v5.8h-3.3Zm2.6,1.8v-1.1h-2v1.1Zm0,1.7v-1.1h-2v1.1Zm0,1.7V181h-2v1.1Zm.6,2.9a8.4,8.4,0,0,0-1.2-1.9l.6-.2a6.3,6.3,0,0,1,1.2,1.8Z" stroke="#000" stroke-miterlimit="10" stroke-width="0.05"/><path d="M533.6,176h-1v9h-.7v-2.2l-3.5.6h-.2l-.3-.8,1-.2V176h-1v-.6h5.7Zm-1.7,1.6V176h-2.3v1.6Zm0,2.3v-1.6h-2.3v1.6Zm-2.3.7v1.8l2.3-.3v-1.5Zm7.7-4.2.5.2h-.1a14.3,14.3,0,0,1-1.8,5.5,6.9,6.9,0,0,0,2.3,2.2l-.5.6a5.8,5.8,0,0,1-2.2-2.2,6.8,6.8,0,0,1-2.3,2.2l-.5-.6a7.5,7.5,0,0,0,2.4-2.3,15.3,15.3,0,0,1-1.5-4.7h.6a16.4,16.4,0,0,0,1.3,4.1,15.5,15.5,0,0,0,1.4-4.3h-3.7v-.7h4.1Z" stroke="#000" stroke-miterlimit="10" stroke-width="0.05"/><path d="M591.3,175.3H591a11.2,11.2,0,0,1-3.4,4.3l-.6-.5a9.3,9.3,0,0,0,3.3-4.2Zm3.8,3.7h.6v.2c-.2,3.6-.3,4.9-.7,5.3a1.7,1.7,0,0,1-1.3.4h-1.3l-.3-.7h1.7c.3,0,.4,0,.5-.2s.5-1.4.6-4.3h-3c-.3,2.1-.9,4.2-3.9,5.3l-.4-.6c2.6-.9,3.2-2.8,3.5-4.7h-2.4V179Zm-.9-4.1a10.5,10.5,0,0,0,3.3,4.1l-.6.7a14.4,14.4,0,0,1-3.4-4.5Z" stroke="#000" stroke-miterlimit="10" stroke-width="0.05"/><path d="M600.7,178.9l1.6,1.9-.5.6a6.6,6.6,0,0,0-1.1-1.6v5.1H600v-5.5a12,12,0,0,1-1.6,3.4l-.4-.6a12.7,12.7,0,0,0,1.9-4.4h-1.6v-.7H600v-2.4h.7v2.2h1.6v.7h-1.6Zm7.7-.4v.7h-1.7v5.7H606v-5.7h-2.2a10,10,0,0,1-1.5,5.7,1.5,1.5,0,0,0-.6-.5c1.3-1.7,1.4-3.9,1.4-5.6v-3.1h.6a13.4,13.4,0,0,0,3.5-1l.7.7h-.2a24.3,24.3,0,0,1-3.9,1v2Z" stroke="#000" stroke-miterlimit="10" stroke-width="0.05"/></svg>