<?xml version="1.0" encoding="utf-8"?>
<!-- Generator: Adobe Illustrator 23.0.1, SVG Export Plug-In . SVG Version: 6.00 Build 0)  -->
<svg version="1.1" xmlns="http://www.w3.org/2000/svg" xmlns:xlink="http://www.w3.org/1999/xlink" x="0px" y="0px"
	 viewBox="0 0 475.5 150.3" style="enable-background:new 0 0 475.5 150.3;" xml:space="preserve">
<style type="text/css">
	.st0{fill:#505050;}
	.st1{fill:#FFFFFF;}
	.st2{display:none;}
	.st3{display:inline;}
	.st4{fill:#EBEBEB;}
	.st5{fill:#0072C6;}
	.st6{fill:#D2D2D2;}
	.st7{fill:none;stroke:#000000;stroke-miterlimit:10;}
	.st8{fill:#EBEBEB;stroke:#000000;stroke-width:0.75;stroke-miterlimit:10;}
	.st9{fill:#3E3E3E;}
	.st10{fill:#B8D432;}
	.st11{opacity:0.15;fill:#FFFFFF;enable-background:new    ;}
	.st12{fill:#1E1E1E;}
	.st13{fill:none;}
	.st14{stroke:#000000;stroke-width:5.000000e-02;stroke-miterlimit:10;}
	.st15{fill:#1E1E1E;stroke:#1E1E1E;stroke-width:6.000000e-02;stroke-miterlimit:10;}
	.st16{fill:#FFFFFF;stroke:#FFFFFF;stroke-width:5.000000e-02;stroke-miterlimit:10;}
	.st17{fill:#0072C6;stroke:#0072C6;stroke-width:5.000000e-02;stroke-miterlimit:10;}
</style>
<symbol  id="New_Symbol_41" viewBox="-10 -10 20 20">
	<circle class="st0" cx="0" cy="0" r="10"/>
	<path class="st1" d="M1.2-4.2v8.6h-1.4v-6.9C-0.4-2.3-0.7-2.1-1-2c-0.3,0.1-0.7,0.2-1,0.3v-1.2l0.6-0.2l0.6-0.3l0.6-0.3
		C0.1-3.9,0.4-4,0.6-4.2H1.2z"/>
</symbol>
<symbol  id="New_Symbol_42" viewBox="-10 -10 20 20">
	<circle class="st0" cx="0" cy="0" r="10"/>
	<path class="st1" d="M2.5,4.4h-5.3V3.8c0-0.3,0-0.5,0.1-0.8c0.1-0.2,0.2-0.4,0.3-0.7c0.1-0.2,0.3-0.4,0.4-0.6
		c0.2-0.2,0.4-0.4,0.5-0.5l0.6-0.5c0.2-0.1,0.4-0.3,0.6-0.5S0.1,0,0.3-0.2c0.1-0.1,0.3-0.3,0.4-0.4C0.8-0.8,0.9-1,0.9-1.1
		C1-1.3,1-1.5,1-1.7c0-0.2,0-0.4-0.1-0.6C0.8-2.4,0.7-2.6,0.6-2.7C0.5-2.8,0.3-2.9,0.2-2.9C0-3-0.2-3-0.4-3c-0.4,0-0.7,0.1-1.1,0.2
		c-0.4,0.2-0.7,0.4-1,0.7v-1.3c0.2-0.1,0.3-0.2,0.5-0.3c0.2-0.1,0.4-0.2,0.6-0.2C-1.2-4-1-4-0.8-4.1c0.2,0,0.4,0,0.7,0
		c0.3,0,0.7,0,1,0.1c0.3,0.1,0.6,0.2,0.8,0.4C1.9-3.3,2.1-3,2.2-2.8c0.1,0.3,0.2,0.7,0.2,1c0,0.3,0,0.6-0.1,0.9
		C2.2-0.6,2-0.3,1.9-0.1C1.7,0.2,1.5,0.4,1.3,0.6C1.1,0.8,0.9,1,0.6,1.2l-0.7,0.5c-0.2,0.2-0.4,0.4-0.6,0.5C-0.8,2.4-1,2.6-1.1,2.8
		c-0.1,0.1-0.2,0.3-0.2,0.5l0,0h3.8V4.4z"/>
</symbol>
<symbol  id="New_Symbol_43" viewBox="-10 -10 20 20">
	<circle class="st0" cx="0" cy="0" r="10"/>
	<path class="st1" d="M-2.6,4.1V2.8c0.5,0.4,1.2,0.7,1.8,0.6c0.5,0,0.9-0.1,1.3-0.4c0.3-0.2,0.5-0.6,0.5-1c0-0.9-0.7-1.4-2.2-1.4
		h-0.7v-1.1h0.6c1.3,0,1.9-0.4,1.9-1.4S0.3-3-0.7-3c-0.6,0-1.1,0.2-1.6,0.6v-1.2C-1.7-4-1-4.1-0.3-4.1c0.6,0,1.3,0.2,1.8,0.6
		c0.4,0.3,0.7,0.9,0.7,1.4c0.1,1-0.7,1.9-1.7,2.1l0,0c0.5,0,1,0.3,1.4,0.6C2.3,1,2.5,1.5,2.5,2.1c0,0.7-0.3,1.4-0.9,1.8
		C1,4.4,0.2,4.6-0.6,4.6C-1.3,4.6-2,4.5-2.6,4.1z"/>
</symbol>
<symbol  id="New_Symbol_44" viewBox="-10 -10 20 20">
	<circle class="st0" cx="0" cy="0" r="10"/>
	<path class="st1" d="M2-4v5.4h1.3v1.1H2v1.9H0.6V2.6h-3.8V1.4c0.3-0.4,0.7-0.8,1-1.3c0.4-0.4,0.7-0.9,1-1.4s0.6-0.9,0.9-1.4
		S0.4-3.5,0.6-4L2-4z M0.7,1.4v-3.5c-0.4,0.7-0.8,1.4-1.3,2C-1,0.5-1.4,1-1.8,1.4L0.7,1.4z"/>
</symbol>
<g id="src" class="st2">
	<title>ios-intro</title>
	<g id="Shapes" class="st3">
		<rect class="st1" width="475.5" height="150"/>
		<rect y="0.5" class="st4" width="105" height="150"/>
		<rect x="370.8" y="0.5" class="st5" width="104.7" height="90"/>
		<rect x="370.8" y="95.5" class="st6" width="104.7" height="55"/>
		<g>
			<line class="st7" x1="104.7" y1="15.8" x2="365.3" y2="15.8"/>
			<polygon points="364.2,19.5 370.7,15.8 364.2,12 			"/>
		</g>
		<g>
			<line class="st7" x1="110.1" y1="45.6" x2="370.7" y2="45.6"/>
			<polygon points="111.2,49.4 104.7,45.6 111.2,41.9 			"/>
		</g>
		<g>
			<line class="st7" x1="104.7" y1="105.1" x2="365.3" y2="105.1"/>
			<polygon points="364.2,108.8 370.7,105.1 364.2,101.3 			"/>
		</g>
		<g>
			<line class="st7" x1="110.2" y1="141.2" x2="370.7" y2="141.2"/>
			<polygon points="111.3,145 104.8,141.2 111.3,137.5 			"/>
		</g>
		
			<use xlink:href="#New_Symbol_44"  width="20" height="20" x="-10" y="-10" transform="matrix(1 0 0 1 169.62 140.76)" style="overflow:visible;"/>
		
			<use xlink:href="#New_Symbol_43"  width="20" height="20" x="-10" y="-10" transform="matrix(1 0 0 1 169.62 105.07)" style="overflow:visible;"/>
		
			<use xlink:href="#New_Symbol_42"  width="20" height="20" x="-10" y="-10" transform="matrix(1 0 0 1 169.62 45.64)" style="overflow:visible;"/>
		
			<use xlink:href="#New_Symbol_41"  width="20" height="20" x="-10" y="-10" transform="matrix(1 0 0 1 169.62 15.76)" style="overflow:visible;"/>
		<polygon class="st8" points="192.5,26.8 184.9,32.2 187.8,41 197.2,41 200.1,32.2 		"/>
		<g>
			<g>
				<path class="st9" d="M76.6,87.1c0,2.3-1.9,4.2-4.2,4.2H32.6c-2.3,0-4.2-1.9-4.2-4.2V25.5c0-2.3,1.9-4.2,4.2-4.2l0,0h39.8
					c2.3,0,4.2,1.9,4.2,4.2V87.1z"/>
				<rect x="31.5" y="28.3" class="st1" width="42" height="49.3"/>
				<path class="st1" d="M56.5,84.4c0,2.2-1.8,4-4,3.9s-4-1.8-3.9-4c0-2.2,1.8-3.9,4-3.9C54.8,80.4,56.6,82.2,56.5,84.4"/>
				<path class="st10" d="M55.2,84.4c0,1.5-1.2,2.7-2.7,2.7s-2.6-1.2-2.6-2.7s1.2-2.7,2.6-2.7S55.2,83,55.2,84.4L55.2,84.4"/>
				<path class="st11" d="M31.5,77.6V28.3h31.9l2.9-7H32.6c-2.3,0-4.2,1.9-4.2,4.2v0v61.6c0,2.3,1.9,4.2,4.2,4.2c0,0,0,0,0,0h5.2
					l5.6-13.7L31.5,77.6z"/>
				<path class="st12" d="M59.7,25.2c0,0.6-0.4,1-1,1H46.4c-0.6,0-1-0.5-1-1s0.5-1,1-1h12.2C59.2,24.1,59.6,24.6,59.7,25.2"/>
				<path class="st1" d="M59.7,25.2c0,0.6-0.4,1-1,1H46.4c-0.6,0-1-0.5-1-1s0.5-1,1-1h12.2C59.2,24.1,59.6,24.6,59.7,25.2"/>
			</g>
			<g>
				<path d="M38.5,46.9c-0.3,0-0.5-0.1-0.7-0.3c-0.2-0.2-0.3-0.4-0.3-0.7c0-0.3,0.1-0.5,0.3-0.7c0.2-0.2,0.4-0.3,0.7-0.3
					c0.1,0,0.3,0,0.4,0.1c0.1,0,0.2,0.1,0.3,0.2c0.1,0.1,0.2,0.2,0.2,0.3c0.1,0.1,0.1,0.3,0.1,0.4c0,0.1,0,0.3-0.1,0.4
					c0,0.1-0.1,0.2-0.2,0.3C39,46.8,38.7,46.9,38.5,46.9z M37.8,60.7v-11h1.4v11H37.8z"/>
				<path d="M49.1,60.9c-1,0-2.1-0.2-3-0.6c-0.9-0.4-1.6-0.9-2.3-1.7c-0.6-0.7-1.1-1.6-1.4-2.5c-0.3-1-0.5-2-0.5-3.1
					c0-1.1,0.1-2.2,0.5-3.3c0.3-0.9,0.8-1.8,1.5-2.6c0.6-0.7,1.4-1.3,2.3-1.7c1-0.4,2.1-0.6,3.2-0.6c1,0,2,0.2,2.9,0.6
					c0.8,0.4,1.6,0.9,2.2,1.6c0.6,0.7,1.1,1.5,1.4,2.4c0.3,1,0.5,2,0.5,3.1c0,1.1-0.2,2.2-0.5,3.3c-0.3,0.9-0.8,1.8-1.4,2.6
					c-0.6,0.7-1.4,1.3-2.3,1.7C51.2,60.7,50.2,61,49.1,60.9z M49.2,46.3c-0.9,0-1.7,0.2-2.5,0.5c-0.7,0.3-1.3,0.8-1.8,1.4
					c-0.5,0.6-0.9,1.4-1.1,2.1c-0.3,0.8-0.4,1.7-0.4,2.6c0,0.8,0.1,1.7,0.3,2.5c0.2,0.8,0.6,1.5,1.1,2.1c0.5,0.6,1.1,1.1,1.8,1.5
					c0.8,0.4,1.6,0.6,2.5,0.5c0.9,0,1.7-0.1,2.5-0.5c0.7-0.3,1.3-0.8,1.8-1.4c0.5-0.6,0.9-1.3,1.1-2.1c0.3-0.9,0.4-1.8,0.4-2.7
					c0-0.9-0.1-1.7-0.3-2.5c-0.2-0.8-0.5-1.5-1-2.1c-0.5-0.6-1.1-1.1-1.8-1.4C51,46.5,50.1,46.3,49.2,46.3z"/>
				<path d="M58.8,58.4c0.3,0.2,0.6,0.4,0.9,0.5c0.6,0.3,1.3,0.5,2,0.6c0.3,0.1,0.6,0.1,0.9,0.1c0.9,0.1,1.8-0.2,2.6-0.6
					c0.6-0.5,0.9-1.2,0.8-2c0-0.7-0.3-1.4-0.8-1.9c-0.3-0.3-0.7-0.6-1.1-0.8c-0.4-0.3-1-0.6-1.5-0.9s-1.2-0.7-1.7-1
					c-0.4-0.3-0.8-0.6-1.2-1c-0.3-0.3-0.5-0.7-0.7-1.1c-0.1-0.4-0.2-0.9-0.2-1.3c0-0.6,0.1-1.2,0.4-1.7c0.3-0.5,0.6-0.9,1.1-1.3
					c0.5-0.4,1-0.6,1.6-0.8c0.6-0.2,1.3-0.3,2-0.3c1,0,2,0.1,3,0.5v1.6c-1-0.5-2.1-0.8-3.2-0.8c-0.4,0-0.9,0.1-1.3,0.2
					c-0.4,0.1-0.7,0.3-1.1,0.5c-0.3,0.2-0.5,0.5-0.7,0.8c-0.2,0.3-0.3,0.7-0.3,1.1c0,0.3,0.1,0.7,0.2,1c0.1,0.3,0.3,0.6,0.6,0.8
					c0.3,0.3,0.6,0.6,1,0.8c0.4,0.3,0.9,0.5,1.6,0.9c0.6,0.3,1.1,0.6,1.7,1c0.4,0.3,0.8,0.6,1.2,1c0.3,0.3,0.5,0.7,0.7,1.1
					c0.2,0.4,0.2,0.9,0.2,1.3c0,0.6-0.1,1.2-0.4,1.8c-0.2,0.5-0.6,0.9-1.1,1.3c-0.5,0.4-1,0.6-1.6,0.8c-0.7,0.2-1.3,0.3-2,0.3
					c-0.3,0-0.6,0-0.9-0.1c-0.3,0-0.7-0.1-1-0.2c-0.3-0.1-0.7-0.2-1-0.3c-0.3-0.1-0.5-0.2-0.8-0.3L58.8,58.4z"/>
			</g>
		</g>
	</g>
	<g id="Text" class="st3">
		<g>
			<path class="st12" d="M42.6,112.2h-1.9l-3.5-5.3c-0.2-0.2-0.3-0.5-0.4-0.7l0,0c0,0.3,0,0.8,0,1.4v4.6H35v-8.4h2l3.3,5.1
				c0.2,0.2,0.3,0.5,0.4,0.7l0,0c0-0.4,0-0.8,0-1.2v-4.6h1.8L42.6,112.2z"/>
			<path class="st12" d="M49.3,112.2h-1.8v-0.9l0,0c-0.4,0.6-1.1,1-1.8,1c-0.5,0-1-0.1-1.4-0.5c-0.3-0.4-0.5-0.8-0.5-1.3
				c0-1.2,0.7-1.8,2.1-2l1.6-0.2c0-0.7-0.4-1-1.1-1c-0.7,0-1.4,0.2-2,0.6v-1.4c0.3-0.2,0.7-0.3,1.1-0.4c0.4-0.1,0.8-0.1,1.2-0.2
				c1.2-0.2,2.4,0.7,2.6,1.9c0,0.2,0,0.4,0,0.6L49.3,112.2z M47.6,109.8v-0.4l-1.1,0.1c-0.6,0.1-0.9,0.3-0.9,0.8
				c0,0.2,0.1,0.4,0.2,0.5c0.2,0.1,0.4,0.2,0.6,0.2c0.3,0,0.6-0.1,0.8-0.4C47.5,110.4,47.6,110.1,47.6,109.8z"/>
			<path class="st12" d="M54.3,112.1c-0.4,0.2-0.8,0.2-1.2,0.2c-1.3,0-2-0.7-2-2v-2.8h-1v-1.4h1v-1.3l1.8-0.5v1.8h1.3v1.4H53v2.4
				c0,0.6,0.3,0.9,0.8,0.9c0.2,0,0.4-0.1,0.6-0.2L54.3,112.1z"/>
			<path class="st12" d="M56.4,105.3c-0.3,0-0.6-0.1-0.8-0.3c-0.2-0.2-0.3-0.4-0.3-0.7c0-0.3,0.1-0.5,0.3-0.7c0.4-0.4,1.1-0.4,1.5,0
				c0.2,0.2,0.3,0.4,0.3,0.7c0,0.3-0.1,0.5-0.3,0.7C56.9,105.2,56.7,105.3,56.4,105.3z M57.3,112.2h-1.9v-6h1.8L57.3,112.2z"/>
			<path class="st12" d="M64.6,106.2l-2.2,6h-2.1l-2.1-6h2l1,3.7c0.1,0.3,0.2,0.7,0.2,1.1l0,0c0-0.3,0.1-0.7,0.2-1l1.1-3.7
				L64.6,106.2z"/>
			<path class="st12" d="M70.6,109.7h-3.9c0.1,0.9,0.6,1.3,1.6,1.3c0.6,0,1.2-0.1,1.7-0.5v1.3c-0.7,0.3-1.4,0.5-2.2,0.4
				c-0.8,0.1-1.7-0.2-2.3-0.8c-0.6-0.6-0.8-1.4-0.8-2.3c0-0.9,0.3-1.7,0.9-2.4c0.6-0.6,1.3-0.9,2.1-0.9c0.7,0,1.5,0.2,2,0.8
				c0.5,0.6,0.8,1.3,0.7,2.1L70.6,109.7z M68.9,108.6c0-0.9-0.3-1.3-1-1.3c-0.3,0-0.6,0.1-0.8,0.4c-0.2,0.3-0.4,0.6-0.4,0.9H68.9z"
				/>
			<path class="st12" d="M49.2,126.6h-2.1l-0.6-1.9h-3l-0.6,1.9h-2l3.1-8.4h2.2L49.2,126.6z M46.1,123.3l-0.9-2.8
				c-0.1-0.2-0.1-0.5-0.1-0.8l0,0c0,0.2-0.1,0.5-0.2,0.7l-0.9,2.8H46.1z"/>
			<path class="st12" d="M51.9,125.9L51.9,125.9v3.5H50v-8.8h1.9v0.9l0,0c0.7-1.1,2.2-1.4,3.3-0.6c0.2,0.1,0.3,0.2,0.5,0.4
				c0.5,0.6,0.7,1.4,0.6,2.2c0,0.9-0.2,1.7-0.8,2.4c-0.5,0.6-1.2,0.9-2,0.9C52.9,126.8,52.3,126.4,51.9,125.9z M51.9,123.5v0.5
				c0,0.4,0.1,0.7,0.3,1c0.2,0.3,0.5,0.4,0.9,0.4c0.4,0,0.8-0.2,1-0.5c0.3-0.4,0.4-0.9,0.3-1.4c0-1-0.4-1.6-1.2-1.6
				c-0.4,0-0.7,0.1-0.9,0.4C52,122.6,51.9,123,51.9,123.5z"/>
			<path class="st12" d="M59.4,125.9L59.4,125.9v3.5h-1.9v-8.8h1.8v0.9l0,0c0.7-1.1,2.2-1.4,3.3-0.7c0.2,0.1,0.3,0.2,0.5,0.4
				c0.5,0.6,0.7,1.4,0.6,2.2c0,0.9-0.2,1.7-0.7,2.4c-0.5,0.6-1.2,0.9-2,0.9C60.3,126.8,59.7,126.4,59.4,125.9z M59.3,123.5v0.5
				c0,0.4,0.1,0.7,0.3,1c0.2,0.3,0.5,0.4,0.9,0.4c0.4,0,0.8-0.2,1-0.5c0.3-0.4,0.4-0.9,0.3-1.4c0-1-0.4-1.6-1.2-1.6
				c-0.4,0-0.7,0.1-0.9,0.4C59.4,122.6,59.3,123,59.3,123.5z"/>
		</g>
		<g>
			<path class="st1" d="M406,33.8h-1.9v-5c0-0.5,0-1.1,0.1-1.8l0,0c-0.1,0.4-0.2,0.7-0.3,1.1l-2,5.7h-1.5l-2-5.7
				c0-0.1-0.1-0.5-0.3-1.2h0c0,0.8,0.1,1.5,0.1,2.2v4.6h-1.7v-8.4h2.8l1.7,5c0.1,0.4,0.2,0.8,0.3,1.2l0,0c0.1-0.5,0.2-0.9,0.3-1.2
				l1.7-5h2.7V33.8z"/>
			<path class="st1" d="M408.6,26.8c-0.3,0-0.6-0.1-0.8-0.3c-0.2-0.2-0.3-0.4-0.3-0.7c0-0.3,0.1-0.5,0.3-0.7
				c0.2-0.2,0.5-0.3,0.8-0.3c0.3,0,0.6,0.1,0.8,0.3c0.2,0.2,0.3,0.4,0.3,0.7c0,0.3-0.1,0.5-0.3,0.7
				C409.2,26.7,408.9,26.8,408.6,26.8z M409.5,33.8h-1.9v-6h1.9V33.8z"/>
			<path class="st1" d="M415.6,33.5c-0.6,0.3-1.2,0.4-1.8,0.4c-0.8,0-1.6-0.3-2.2-0.8c-0.6-0.6-0.9-1.4-0.9-2.2
				c0-0.9,0.3-1.8,0.9-2.4c0.7-0.6,1.5-0.9,2.5-0.9c0.5,0,1.1,0.1,1.5,0.3v1.6c-0.4-0.3-0.8-0.4-1.3-0.4c-0.5,0-0.9,0.1-1.3,0.5
				c-0.3,0.3-0.5,0.8-0.5,1.3c0,0.4,0.1,0.9,0.4,1.2c0.3,0.3,0.8,0.5,1.2,0.5c0.5,0,1-0.2,1.4-0.4L415.6,33.5z"/>
			<path class="st1" d="M420.8,29.4c-0.2-0.1-0.5-0.2-0.8-0.2c-0.4,0-0.7,0.2-0.9,0.5c-0.2,0.3-0.4,0.8-0.3,1.2v2.9h-1.9v-6h1.9v1.1
				l0,0c0.2-0.7,0.8-1.2,1.6-1.2c0.2,0,0.3,0,0.5,0.1L420.8,29.4z"/>
			<path class="st1" d="M424.6,33.9c-0.9,0-1.7-0.3-2.4-0.8c-0.6-0.6-0.9-1.4-0.9-2.3c0-0.9,0.3-1.7,0.9-2.3
				c0.7-0.6,1.5-0.9,2.4-0.8c0.9,0,1.7,0.3,2.4,0.8c0.6,0.6,0.9,1.4,0.9,2.2c0,0.9-0.3,1.7-0.9,2.3
				C426.4,33.6,425.5,33.9,424.6,33.9z M424.7,29c-0.4,0-0.8,0.2-1,0.5c-0.3,0.4-0.4,0.8-0.4,1.3c0,1.1,0.5,1.7,1.4,1.7
				s1.3-0.6,1.3-1.8S425.6,29,424.7,29L424.7,29z"/>
			<path class="st1" d="M428.8,33.6v-1.5c0.3,0.2,0.6,0.3,0.9,0.4c0.3,0.1,0.6,0.1,0.9,0.1c0.3,0,0.5,0,0.8-0.1
				c0.2-0.1,0.3-0.2,0.3-0.4c0-0.1,0-0.2-0.1-0.3c-0.1-0.1-0.2-0.2-0.3-0.2c-0.1-0.1-0.3-0.1-0.4-0.2c-0.2,0-0.3-0.1-0.5-0.2
				c-0.2-0.1-0.4-0.2-0.6-0.3c-0.2-0.1-0.3-0.2-0.5-0.4c-0.1-0.1-0.2-0.3-0.3-0.5c-0.1-0.2-0.1-0.4-0.1-0.6c0-0.3,0.1-0.6,0.2-0.9
				c0.1-0.2,0.3-0.4,0.6-0.6c0.3-0.2,0.5-0.3,0.8-0.3c0.3-0.1,0.7-0.1,1-0.1c0.3,0,0.5,0,0.8,0.1c0.3,0,0.5,0.1,0.8,0.2v1.4
				c-0.2-0.1-0.5-0.2-0.8-0.3c-0.3-0.1-0.5-0.1-0.8-0.1c-0.1,0-0.2,0-0.3,0c-0.1,0-0.2,0-0.3,0.1c-0.1,0-0.1,0.1-0.2,0.1
				c0,0.1-0.1,0.1-0.1,0.2c0,0.1,0,0.2,0.1,0.3c0.1,0.1,0.2,0.2,0.3,0.2l0.4,0.1l0.4,0.1c0.2,0.1,0.5,0.2,0.7,0.3
				c0.2,0.1,0.4,0.2,0.5,0.4c0.1,0.1,0.3,0.3,0.3,0.5c0.1,0.2,0.1,0.4,0.1,0.6c0,0.3-0.1,0.6-0.2,0.9c-0.2,0.3-0.4,0.5-0.6,0.6
				c-0.3,0.2-0.6,0.3-0.9,0.3c-0.3,0.1-0.7,0.1-1,0.1C430,33.9,429.4,33.8,428.8,33.6z"/>
			<path class="st1" d="M437.3,33.9c-0.9,0-1.7-0.3-2.4-0.8c-0.6-0.6-0.9-1.4-0.9-2.3c-0.1-0.9,0.3-1.7,0.9-2.3
				c0.7-0.6,1.5-0.9,2.4-0.8c0.9,0,1.7,0.3,2.3,0.8c0.6,0.6,0.9,1.4,0.9,2.2c0,0.9-0.3,1.7-0.9,2.4
				C439.1,33.6,438.2,33.9,437.3,33.9z M437.4,29c-0.4,0-0.8,0.2-1,0.5c-0.3,0.4-0.4,0.8-0.4,1.3c0,1.1,0.5,1.7,1.4,1.7
				s1.3-0.6,1.3-1.8S438.3,29,437.4,29L437.4,29z"/>
			<path class="st1" d="M445.7,26.3c-0.2-0.1-0.5-0.1-0.7-0.1c-0.6,0-0.9,0.3-0.9,1v0.6h1.4v1.4h-1.4v4.6h-1.8v-4.7h-1v-1.4h1V27
				c0-0.6,0.2-1.2,0.7-1.6c0.5-0.4,1.2-0.7,1.8-0.6c0.3,0,0.6,0,0.9,0.1L445.7,26.3z"/>
			<path class="st1" d="M450.2,33.7c-0.4,0.2-0.8,0.2-1.2,0.2c-1,0.1-1.9-0.5-2-1.5c0-0.2,0-0.3,0-0.5v-2.8h-1v-1.4h1v-1.3l1.9-0.5
				v1.8h1.4v1.4h-1.4v2.4c0,0.6,0.3,0.9,0.7,0.9c0.2,0,0.4-0.1,0.6-0.2L450.2,33.7z"/>
			<path class="st1" d="M402.7,41.2c-0.3,0-0.6-0.1-0.8-0.3c-0.2-0.2-0.3-0.4-0.3-0.7c0-0.3,0.1-0.5,0.3-0.7
				c0.2-0.2,0.5-0.3,0.8-0.3c0.3,0,0.6,0.1,0.8,0.3c0.2,0.2,0.3,0.4,0.3,0.7c0,0.3-0.1,0.5-0.3,0.7
				C403.2,41.1,402.9,41.2,402.7,41.2z M403.6,48.2h-1.9v-6h1.9V48.2z"/>
			<path class="st1" d="M411,48.2h-1.9v-0.8l0,0c-0.4,0.6-1.1,1-1.9,1c-0.7,0-1.4-0.3-1.8-0.8c-0.5-0.6-0.7-1.4-0.7-2.2
				c0-0.9,0.2-1.7,0.8-2.4c0.5-0.6,1.2-0.9,2-0.9c0.7-0.1,1.3,0.3,1.6,0.8l0,0v-3.6h1.8V48.2z M409.2,45.2v-0.5c0-0.4-0.1-0.7-0.3-1
				c-0.2-0.3-0.5-0.4-0.9-0.4c-0.4,0-0.8,0.2-1,0.5c-0.3,0.4-0.4,0.9-0.4,1.3c0,0.4,0.1,0.9,0.3,1.2c0.4,0.5,1.2,0.6,1.7,0.2
				c0.1,0,0.1-0.1,0.2-0.2C409.1,46.1,409.2,45.7,409.2,45.2z"/>
			<path class="st1" d="M418,45.7h-4c0.1,0.9,0.6,1.3,1.6,1.3c0.6,0,1.2-0.2,1.7-0.5v1.3c-0.7,0.3-1.4,0.5-2.2,0.4
				c-1.5,0.2-2.9-0.9-3.1-2.5c0-0.2,0-0.4,0-0.5c0-0.9,0.3-1.7,0.9-2.4c0.6-0.6,1.3-0.9,2.2-0.9c0.7,0,1.5,0.2,2,0.8
				c0.5,0.6,0.8,1.3,0.8,2.1V45.7z M416.3,44.5c0-0.9-0.3-1.3-1-1.3c-0.3,0-0.6,0.1-0.8,0.4c-0.2,0.3-0.4,0.6-0.4,0.9L416.3,44.5z"
				/>
			<path class="st1" d="M424.9,48.2h-1.8v-3.3c0-0.9-0.3-1.4-1-1.4c-0.3,0-0.6,0.1-0.8,0.4c-0.2,0.3-0.3,0.6-0.3,0.9v3.4h-1.9v-6
				h1.9v0.9l0,0c0.4-0.7,1.1-1.1,1.9-1.1c1.3,0,2,0.8,2,2.5L424.9,48.2z"/>
			<path class="st1" d="M430,48.1c-0.4,0.2-0.8,0.2-1.2,0.2c-1,0.1-1.9-0.5-2-1.5c0-0.2,0-0.3,0-0.5v-2.8h-1v-1.4h1v-1.3l1.9-0.5
				v1.8h1.4v1.4h-1.4V46c0,0.6,0.3,0.9,0.7,0.9c0.2,0,0.4-0.1,0.6-0.2L430,48.1z"/>
			<path class="st1" d="M432,41.2c-0.3,0-0.6-0.1-0.8-0.3c-0.2-0.2-0.3-0.4-0.3-0.7c0-0.3,0.1-0.5,0.3-0.7c0.4-0.4,1.1-0.4,1.5,0
				c0.2,0.2,0.3,0.4,0.3,0.7c0,0.3-0.1,0.5-0.3,0.7C432.6,41.1,432.3,41.2,432,41.2z M432.9,48.2h-1.9v-6h1.9V48.2z"/>
			<path class="st1" d="M438,48.1c-0.4,0.2-0.8,0.2-1.2,0.2c-1,0.1-1.9-0.5-2-1.5c0-0.2,0-0.3,0-0.5v-2.8h-1v-1.4h1v-1.3l1.9-0.5
				v1.8h1.4v1.4h-1.4V46c0,0.6,0.3,0.9,0.7,0.9c0.2,0,0.4-0.1,0.6-0.2L438,48.1z"/>
			<path class="st1" d="M445.1,42.2l-2.4,6.5c-0.6,1.5-1.5,2.4-2.6,2.4c-0.4,0-0.8,0-1.1-0.2v-1.5c0.2,0.1,0.5,0.2,0.8,0.2
				c0.4,0,0.9-0.2,1-0.7l0.3-0.8l-2.4-6h2l1.1,3.7c0.1,0.3,0.1,0.5,0.2,0.8l0,0c0-0.3,0.1-0.5,0.2-0.8l1.1-3.7L445.1,42.2z"/>
			<path class="st1" d="M400.7,61.9L400.7,61.9v3.5h-1.9v-8.8h1.9v0.9l0,0c0.7-1.1,2.2-1.4,3.3-0.6c0.2,0.1,0.3,0.2,0.5,0.4
				c0.5,0.6,0.7,1.4,0.6,2.2c0,0.9-0.2,1.7-0.7,2.4c-0.5,0.6-1.2,0.9-2,0.9C401.7,62.7,401.1,62.4,400.7,61.9z M400.7,59.4v0.5
				c0,0.4,0.1,0.7,0.3,1c0.2,0.3,0.5,0.4,0.9,0.4c0.4,0,0.8-0.2,1-0.5c0.3-0.4,0.4-0.9,0.4-1.4c0-1.1-0.4-1.6-1.2-1.6
				c-0.4,0-0.7,0.1-0.9,0.4C400.8,58.6,400.7,59,400.7,59.4z"/>
			<path class="st1" d="M408.2,62.6h-1.9v-8.9h1.9V62.6z"/>
			<path class="st1" d="M414.8,62.6H413v-0.9l0,0c-0.4,0.6-1.1,1-1.8,1c-0.5,0-1-0.1-1.4-0.5c-0.3-0.4-0.5-0.8-0.5-1.3
				c0-1.2,0.7-1.8,2.1-2l1.6-0.2c0-0.7-0.4-1-1.1-1c-0.7,0-1.4,0.2-2,0.6v-1.4c0.3-0.2,0.7-0.3,1.1-0.3c0.4-0.1,0.8-0.1,1.2-0.2
				c1.2-0.1,2.4,0.7,2.5,2c0,0.2,0,0.4,0,0.6V62.6z M413,60.1v-0.4l-1.1,0.1c-0.6,0.1-0.9,0.3-0.9,0.8c0,0.2,0.1,0.4,0.2,0.5
				c0.2,0.1,0.4,0.2,0.6,0.2c0.3,0,0.6-0.1,0.9-0.4C412.9,60.8,413,60.5,413,60.1z"/>
			<path class="st1" d="M419.8,62.5c-0.4,0.2-0.8,0.2-1.2,0.2c-1.3,0-2-0.7-2-2v-2.8h-1v-1.4h1v-1.3l1.8-0.5v1.8h1.4v1.4h-1.4v2.4
				c0,0.6,0.3,0.9,0.8,0.9c0.2,0,0.4-0.1,0.6-0.2V62.5z"/>
			<path class="st1" d="M424.9,55.1c-0.2-0.1-0.4-0.1-0.7-0.1c-0.6,0-0.9,0.3-0.9,1v0.6h1.4V58h-1.4v4.6h-1.8v-4.7h-1v-1.4h1v-0.8
				c0-0.6,0.2-1.2,0.7-1.7c0.5-0.4,1.1-0.7,1.8-0.6c0.3,0,0.6,0,0.9,0.1V55.1z"/>
			<path class="st1" d="M428.5,62.7c-0.9,0-1.7-0.3-2.4-0.8c-0.6-0.6-0.9-1.4-0.9-2.3c0-0.9,0.3-1.7,0.9-2.3
				c0.7-0.6,1.5-0.9,2.4-0.8c0.9,0,1.7,0.3,2.3,0.8c0.6,0.6,0.9,1.4,0.9,2.2c0.1,0.9-0.3,1.7-0.9,2.4
				C430.2,62.4,429.3,62.7,428.5,62.7z M428.5,57.8c-0.4,0-0.8,0.2-1,0.5c-0.3,0.4-0.4,0.8-0.4,1.3c0,1.2,0.5,1.7,1.4,1.7
				s1.3-0.6,1.3-1.8S429.4,57.8,428.5,57.8L428.5,57.8z"/>
			<path class="st1" d="M436.8,58.2c-0.2-0.1-0.5-0.2-0.8-0.2c-0.4,0-0.7,0.2-1,0.5c-0.2,0.4-0.4,0.8-0.3,1.2v2.9h-1.9v-6h1.9v1.1
				l0,0c0.2-0.7,0.8-1.2,1.6-1.2c0.2,0,0.3,0,0.5,0.1L436.8,58.2z"/>
			<path class="st1" d="M447.2,62.6h-1.9v-3.4c0-0.9-0.3-1.3-1-1.3c-0.3,0-0.6,0.1-0.8,0.4c-0.2,0.3-0.3,0.6-0.3,1v3.4h-1.9v-3.5
				c0-0.8-0.3-1.3-1-1.3c-0.3,0-0.6,0.1-0.8,0.4c-0.2,0.3-0.3,0.6-0.3,1v3.3h-1.9v-6h1.9v0.9l0,0c0.2-0.3,0.5-0.6,0.8-0.8
				c0.3-0.2,0.7-0.3,1.1-0.3c0.8-0.1,1.5,0.4,1.7,1.1c0.4-0.7,1.2-1.1,2-1.1c1.3,0,2,0.8,2,2.4L447.2,62.6z"/>
		</g>
		<g>
			<path class="st12" d="M191.9,10.8h-1.1l-0.9-2.4h-3.6l-0.8,2.4h-1.1l3.2-8.4h1L191.9,10.8z M189.6,7.5l-1.3-3.6
				c-0.1-0.2-0.1-0.4-0.1-0.6l0,0c0,0.2-0.1,0.4-0.1,0.6l-1.3,3.6H189.6z"/>
			<path class="st12" d="M197,10.5c-0.5,0.3-1.1,0.4-1.6,0.4c-0.8,0-1.5-0.3-2.1-0.8c-0.5-0.6-0.8-1.4-0.8-2.2
				c0-0.9,0.3-1.7,0.9-2.4c0.6-0.6,1.4-0.9,2.3-0.9c0.5,0,1,0.1,1.4,0.3v1c-0.4-0.3-0.9-0.5-1.4-0.5c-0.6,0-1.1,0.2-1.5,0.7
				c-0.4,0.5-0.6,1.1-0.6,1.7c0,0.6,0.1,1.2,0.5,1.7c0.4,0.4,0.9,0.6,1.5,0.6c0.5,0,1.1-0.2,1.5-0.5V10.5z"/>
			<path class="st12" d="M203.4,13.5h-1V9.7l0,0c-0.4,0.7-1.2,1.2-2,1.2c-0.7,0-1.4-0.3-1.8-0.8c-0.5-0.6-0.7-1.4-0.7-2.2
				c0-0.9,0.2-1.7,0.8-2.4c0.5-0.6,1.2-0.9,2-0.9c0.7,0,1.4,0.3,1.8,1l0,0V4.8h1L203.4,13.5z M202.4,8.1V7.2c0-0.5-0.1-0.9-0.4-1.3
				c-0.7-0.7-1.8-0.7-2.5,0c0,0-0.1,0.1-0.1,0.1c-0.4,0.5-0.5,1.2-0.5,1.8c0,0.6,0.1,1.2,0.5,1.6c0.3,0.4,0.8,0.6,1.3,0.6
				c0.5,0,1-0.2,1.4-0.6C202.3,9.1,202.5,8.6,202.4,8.1L202.4,8.1z"/>
			<path class="st12" d="M210.1,10.8h-1V9.8l0,0c-0.4,0.7-1.1,1.1-1.9,1.1c-1.4,0-2.1-0.9-2.1-2.6V4.8h1v3.4c0,1.3,0.5,1.9,1.5,1.9
				c0.4,0,0.9-0.2,1.1-0.5c0.3-0.4,0.5-0.9,0.5-1.4V4.8h1L210.1,10.8z"/>
			<path class="st12" d="M212.5,3.2c-0.2,0-0.3-0.1-0.4-0.2c-0.1-0.1-0.2-0.3-0.2-0.4c0-0.2,0.1-0.3,0.2-0.5
				c0.1-0.1,0.3-0.2,0.4-0.2c0.2,0,0.3,0.1,0.4,0.2c0.1,0.1,0.2,0.3,0.2,0.5c0,0.2-0.1,0.3-0.2,0.4C212.8,3.2,212.6,3.2,212.5,3.2z
				 M212.9,10.8h-1v-6h1V10.8z"/>
			<path class="st12" d="M217.9,5.7c-0.2-0.1-0.5-0.2-0.7-0.2c-0.4,0-0.8,0.2-1,0.6c-0.3,0.5-0.4,1-0.4,1.6v3.1h-1v-6h1V6l0,0
				c0.1-0.4,0.3-0.7,0.6-1c0.3-0.2,0.6-0.3,0.9-0.3c0.2,0,0.4,0,0.6,0.1L217.9,5.7z"/>
			<path class="st12" d="M223.8,8h-4.2c0,0.6,0.2,1.1,0.5,1.6c0.4,0.4,0.9,0.6,1.4,0.5c0.7,0,1.3-0.2,1.9-0.7v0.9
				c-0.6,0.4-1.4,0.6-2.1,0.6c-0.8,0-1.5-0.3-2-0.8c-0.5-0.7-0.8-1.5-0.7-2.3c0-0.8,0.2-1.7,0.8-2.3c0.5-0.6,1.2-0.9,2-0.9
				c0.7,0,1.4,0.2,1.8,0.8c0.5,0.6,0.7,1.4,0.6,2.1L223.8,8z M222.8,7.2c0-0.5-0.1-0.9-0.4-1.3c-0.3-0.3-0.7-0.5-1.1-0.5
				c-0.4,0-0.9,0.2-1.1,0.5c-0.3,0.3-0.5,0.8-0.6,1.3H222.8z"/>
			<path class="st12" d="M231.3,10.7c-0.3,0.1-0.6,0.2-0.9,0.2c-1,0-1.6-0.6-1.6-1.8V5.6h-1V4.8h1V3.3l1-0.3v1.8h1.5v0.8h-1.5V9
				c0,0.3,0,0.6,0.2,0.9c0.2,0.2,0.4,0.3,0.7,0.3c0.2,0,0.4-0.1,0.6-0.2L231.3,10.7z"/>
			<path class="st12" d="M235,10.9c-0.8,0-1.6-0.3-2.1-0.8c-0.6-0.6-0.8-1.4-0.8-2.2c0-0.9,0.3-1.7,0.8-2.4c0.6-0.6,1.4-0.9,2.2-0.8
				c0.8,0,1.6,0.3,2.1,0.8c0.5,0.6,0.8,1.5,0.8,2.3c0,0.8-0.2,1.7-0.8,2.3C236.6,10.6,235.8,10.9,235,10.9z M235,5.4
				c-0.6,0-1.1,0.2-1.5,0.6c-0.4,0.5-0.6,1.1-0.5,1.7c0,0.6,0.2,1.2,0.5,1.7c0.4,0.4,0.9,0.6,1.5,0.6c0.5,0,1.1-0.2,1.4-0.6
				c0.4-0.5,0.5-1.1,0.5-1.7c0-0.6-0.1-1.2-0.5-1.7C236.1,5.6,235.5,5.4,235,5.4z"/>
			<path class="st12" d="M244.4,10.8H243l-2.6-2.9l0,0v2.9h-1V1.9h1v5.6l0,0l2.5-2.8h1.3l-2.8,2.9L244.4,10.8z"/>
			<path class="st12" d="M249.9,8h-4.2c0,0.6,0.2,1.1,0.5,1.6c0.4,0.4,0.9,0.6,1.4,0.5c0.7,0,1.3-0.2,1.9-0.7v0.9
				c-0.6,0.4-1.4,0.6-2.1,0.6c-0.8,0-1.5-0.3-2-0.8c-0.5-0.7-0.8-1.5-0.7-2.3c0-0.8,0.2-1.7,0.8-2.3c0.5-0.6,1.2-0.9,2-0.9
				c0.7,0,1.4,0.2,1.8,0.8c0.5,0.6,0.7,1.4,0.6,2.1L249.9,8z M248.9,7.2c0-0.5-0.1-0.9-0.4-1.3c-0.3-0.3-0.7-0.5-1.1-0.5
				c-0.4,0-0.9,0.2-1.1,0.5c-0.3,0.3-0.5,0.8-0.6,1.3H248.9z"/>
			<path class="st12" d="M256.4,10.8h-1V7.3c0-1.3-0.5-1.9-1.4-1.9c-0.5,0-0.9,0.2-1.2,0.5c-0.3,0.4-0.5,0.9-0.5,1.4v3.4h-1v-6h1v1
				l0,0c0.4-0.7,1.2-1.2,2-1.1c0.6,0,1.1,0.2,1.5,0.6c0.4,0.5,0.6,1.2,0.5,1.8L256.4,10.8z"/>
		</g>
		<g>
			<path class="st12" d="M211.1,38.5H210l-0.9-2.3h-3.6l-0.8,2.3h-1.1l3.2-8.4h1L211.1,38.5z M208.8,35.3l-1.3-3.6
				c-0.1-0.2-0.1-0.4-0.1-0.6l0,0c0,0.2-0.1,0.4-0.1,0.6l-1.3,3.6H208.8z"/>
			<path class="st12" d="M216.2,38.2c-0.5,0.3-1.1,0.4-1.6,0.4c-0.8,0-1.5-0.3-2.1-0.8c-0.5-0.6-0.8-1.4-0.8-2.2
				c0-0.9,0.3-1.7,0.9-2.4c0.6-0.6,1.4-0.9,2.3-0.9c0.5,0,1,0.1,1.4,0.3v1c-0.4-0.3-0.9-0.5-1.4-0.5c-0.6,0-1.1,0.2-1.5,0.7
				c-0.4,0.5-0.6,1.1-0.6,1.7c0,0.6,0.2,1.2,0.6,1.7c0.4,0.4,0.9,0.6,1.5,0.6c0.5,0,1.1-0.2,1.5-0.5L216.2,38.2z"/>
			<path class="st12" d="M221.6,38.2c-0.5,0.3-1.1,0.4-1.6,0.4c-0.8,0-1.5-0.3-2.1-0.8c-0.5-0.6-0.8-1.4-0.8-2.2
				c0-0.9,0.3-1.7,0.9-2.4c0.6-0.6,1.4-0.9,2.3-0.9c0.5,0,1,0.1,1.4,0.3v1c-0.4-0.3-0.9-0.5-1.4-0.5c-0.6,0-1.1,0.2-1.5,0.7
				c-0.4,0.5-0.6,1.1-0.6,1.7c0,0.6,0.2,1.2,0.6,1.7c0.4,0.4,0.9,0.6,1.5,0.6c0.5,0,1.1-0.2,1.5-0.5L221.6,38.2z"/>
			<path class="st12" d="M227.7,35.7h-4.2c0,0.6,0.2,1.1,0.5,1.5c0.4,0.4,0.9,0.6,1.4,0.5c0.7,0,1.3-0.2,1.9-0.7v0.9
				c-0.6,0.4-1.4,0.6-2.1,0.6c-0.8,0-1.5-0.3-2-0.8c-0.5-0.6-0.8-1.5-0.7-2.3c0-0.8,0.3-1.6,0.8-2.3c0.5-0.6,1.2-0.9,2-0.9
				c0.7,0,1.4,0.2,1.8,0.8c0.5,0.6,0.7,1.4,0.6,2.1L227.7,35.7z M226.7,34.9c0-0.5-0.1-0.9-0.4-1.3c-0.3-0.3-0.7-0.5-1.1-0.5
				c-0.4,0-0.9,0.2-1.1,0.5c-0.3,0.3-0.5,0.8-0.6,1.3L226.7,34.9z"/>
			<path class="st12" d="M228.8,38.3v-1c0.5,0.4,1.1,0.6,1.7,0.6c0.8,0,1.3-0.3,1.3-0.8c0-0.1,0-0.3-0.1-0.4
				c-0.1-0.1-0.2-0.2-0.3-0.3c-0.1-0.1-0.3-0.2-0.4-0.2l-0.5-0.2c-0.2-0.1-0.5-0.2-0.7-0.3c-0.2-0.1-0.4-0.2-0.5-0.4
				c-0.1-0.1-0.2-0.3-0.3-0.5c-0.1-0.2-0.1-0.4-0.1-0.6c0-0.3,0.1-0.5,0.2-0.7c0.1-0.2,0.3-0.4,0.5-0.5c0.2-0.1,0.5-0.3,0.7-0.3
				c0.7-0.2,1.5-0.1,2.2,0.2v1c-0.5-0.3-1-0.4-1.5-0.4c-0.2,0-0.3,0-0.5,0.1c-0.1,0-0.3,0.1-0.4,0.2c-0.1,0.1-0.2,0.2-0.2,0.3
				c-0.1,0.1-0.1,0.2-0.1,0.3c0,0.1,0,0.3,0.1,0.4c0.1,0.1,0.2,0.2,0.3,0.3c0.1,0.1,0.3,0.2,0.4,0.2l0.5,0.2
				c0.2,0.1,0.5,0.2,0.7,0.3c0.2,0.1,0.4,0.2,0.5,0.4c0.1,0.1,0.3,0.3,0.3,0.5c0.1,0.2,0.1,0.4,0.1,0.6c0,0.3-0.1,0.5-0.2,0.8
				c-0.1,0.2-0.3,0.4-0.5,0.5c-0.2,0.2-0.5,0.3-0.8,0.3c-0.3,0.1-0.6,0.1-0.9,0.1C229.9,38.7,229.3,38.6,228.8,38.3z"/>
			<path class="st12" d="M233.9,38.3v-1c0.5,0.4,1.1,0.6,1.7,0.6c0.8,0,1.3-0.3,1.3-0.8c0-0.1,0-0.3-0.1-0.4
				c-0.1-0.1-0.2-0.2-0.3-0.3c-0.1-0.1-0.3-0.2-0.4-0.2l-0.5-0.2c-0.2-0.1-0.5-0.2-0.7-0.3c-0.2-0.1-0.4-0.2-0.5-0.4
				c-0.1-0.1-0.2-0.3-0.3-0.5c-0.1-0.2-0.1-0.4-0.1-0.6c0-0.3,0.1-0.5,0.2-0.7c0.1-0.2,0.3-0.4,0.5-0.5c0.2-0.1,0.5-0.3,0.7-0.3
				c0.7-0.2,1.5-0.1,2.2,0.2v1c-0.5-0.3-1-0.4-1.5-0.4c-0.2,0-0.3,0-0.5,0.1c-0.1,0-0.3,0.1-0.4,0.2c-0.1,0.1-0.2,0.2-0.2,0.3
				c-0.1,0.1-0.1,0.2-0.1,0.3c0,0.1,0,0.3,0.1,0.4c0.1,0.1,0.2,0.2,0.3,0.3c0.1,0.1,0.3,0.2,0.4,0.2l0.5,0.2
				c0.2,0.1,0.5,0.2,0.7,0.3c0.2,0.1,0.4,0.2,0.5,0.4c0.1,0.1,0.3,0.3,0.3,0.5c0.1,0.2,0.1,0.4,0.1,0.6c0,0.3-0.1,0.5-0.2,0.8
				c-0.1,0.2-0.3,0.4-0.5,0.5c-0.2,0.2-0.5,0.3-0.8,0.3c-0.3,0.1-0.6,0.1-0.9,0.1C234.9,38.7,234.4,38.6,233.9,38.3z"/>
			<path class="st12" d="M245.4,38.4c-0.3,0.1-0.6,0.2-0.9,0.2c-1.1,0-1.6-0.6-1.6-1.8v-3.5h-1v-0.8h1V31l1-0.3v1.8h1.5v0.8h-1.5
				v3.4c0,0.3,0,0.6,0.2,0.9c0.2,0.2,0.4,0.3,0.7,0.3c0.2,0,0.4-0.1,0.6-0.2L245.4,38.4z"/>
			<path class="st12" d="M249.1,38.6c-0.8,0-1.5-0.3-2.1-0.8c-0.5-0.6-0.8-1.4-0.8-2.2c-0.1-0.9,0.2-1.7,0.8-2.4
				c0.6-0.6,1.4-0.9,2.2-0.8c0.8,0,1.5,0.3,2.1,0.8c1,1.4,1,3.2-0.1,4.6C250.7,38.4,249.9,38.7,249.1,38.6z M249.2,33.2
				c-0.6,0-1.1,0.2-1.5,0.6c-0.4,0.5-0.6,1.1-0.5,1.7c0,0.6,0.2,1.2,0.6,1.7c0.4,0.4,0.9,0.6,1.5,0.6c0.5,0,1.1-0.2,1.4-0.6
				c0.7-1.1,0.7-2.4,0-3.5C250.2,33.4,249.7,33.1,249.2,33.2z"/>
			<path class="st12" d="M258.5,38.5h-1.4l-2.6-2.9l0,0v2.9h-1v-8.9h1v5.6l0,0l2.5-2.8h1.3l-2.8,2.9L258.5,38.5z"/>
			<path class="st12" d="M264,35.7h-4.2c0,0.6,0.2,1.1,0.5,1.5c0.4,0.4,0.9,0.6,1.4,0.5c0.7,0,1.3-0.2,1.9-0.7v0.9
				c-0.6,0.4-1.4,0.6-2.1,0.6c-0.8,0-1.5-0.3-2-0.8c-0.5-0.6-0.8-1.5-0.7-2.3c0-0.8,0.2-1.6,0.8-2.3c0.5-0.6,1.2-0.9,2-0.9
				c0.7,0,1.4,0.2,1.8,0.8c0.5,0.6,0.7,1.4,0.6,2.1L264,35.7z M263,34.9c0-0.5-0.1-0.9-0.4-1.3c-0.3-0.3-0.7-0.5-1.1-0.5
				c-0.4,0-0.9,0.2-1.2,0.5c-0.3,0.3-0.5,0.8-0.6,1.3L263,34.9z"/>
			<path class="st12" d="M270.5,38.5h-1v-3.4c0-1.3-0.5-1.9-1.4-1.9c-0.5,0-0.9,0.2-1.2,0.5c-0.3,0.4-0.5,0.9-0.5,1.4v3.4h-1v-6h1v1
				l0,0c0.4-0.7,1.2-1.2,2-1.1c0.6-0.1,1.2,0.2,1.6,0.6c0.4,0.5,0.6,1.2,0.5,1.8L270.5,38.5z"/>
		</g>
		<g>
			<path class="st12" d="M191.7,135.7h-1v-3.8h-4.3v3.8h-1v-8.4h1v3.7h4.3v-3.7h1V135.7z"/>
			<path class="st12" d="M198.8,128.2h-2.4v7.5h-1v-7.5h-2.4v-0.9h5.8L198.8,128.2z"/>
			<path class="st12" d="M205.4,128.2h-2.4v7.5h-1v-7.5h-2.4v-0.9h5.8L205.4,128.2z"/>
			<path class="st12" d="M207.5,132.5v3.2h-1v-8.4h2.3c0.8-0.1,1.6,0.2,2.2,0.7c0.5,0.5,0.8,1.2,0.8,1.9c0,0.8-0.3,1.5-0.8,2
				c-0.6,0.5-1.4,0.8-2.2,0.8L207.5,132.5z M207.5,128.2v3.4h1c0.6,0,1.1-0.1,1.6-0.5c0.4-0.3,0.6-0.8,0.5-1.3c0-1.1-0.6-1.7-2-1.7
				H207.5z"/>
			<path class="st12" d="M219.6,130.7c-0.2-0.1-0.5-0.2-0.7-0.2c-0.4,0-0.8,0.2-1,0.6c-0.3,0.5-0.4,1-0.4,1.6v3.1h-1v-6h1v1.3l0,0
				c0.1-0.4,0.3-0.7,0.6-1c0.3-0.2,0.6-0.4,0.9-0.4c0.2,0,0.4,0,0.6,0.1L219.6,130.7z"/>
			<path class="st12" d="M225.4,133h-4.2c0,0.6,0.2,1.1,0.5,1.5c0.4,0.4,0.9,0.6,1.4,0.6c0.7,0,1.3-0.2,1.9-0.7v0.9
				c-0.6,0.4-1.3,0.6-2.1,0.6c-0.8,0-1.5-0.3-2-0.8c-1-1.4-1-3.2,0.1-4.6c0.5-0.6,1.2-0.9,2-0.9c0.7,0,1.4,0.2,1.8,0.8
				c0.5,0.6,0.7,1.4,0.6,2.1L225.4,133z M224.4,132.2c0-0.5-0.1-0.9-0.4-1.3c-0.3-0.3-0.7-0.5-1.1-0.5c-0.4,0-0.9,0.2-1.2,0.5
				c-0.3,0.4-0.5,0.8-0.6,1.3L224.4,132.2z"/>
			<path class="st12" d="M226.5,135.5v-1c0.5,0.4,1.1,0.6,1.7,0.6c0.8,0,1.3-0.3,1.3-0.9c0-0.1,0-0.3-0.1-0.4
				c-0.1-0.1-0.2-0.2-0.3-0.3c-0.1-0.1-0.3-0.2-0.4-0.2l-0.5-0.2l-0.7-0.3c-0.2-0.1-0.4-0.2-0.5-0.4c-0.1-0.1-0.2-0.3-0.3-0.5
				c-0.1-0.2-0.1-0.4-0.1-0.6c0-0.3,0.1-0.5,0.2-0.8c0.1-0.2,0.3-0.4,0.5-0.5c0.2-0.2,0.5-0.3,0.7-0.3c0.3-0.1,0.6-0.1,0.9-0.1
				c0.5,0,1,0.1,1.4,0.3v1c-0.5-0.3-1-0.4-1.5-0.4c-0.2,0-0.3,0-0.5,0.1c-0.1,0-0.3,0.1-0.4,0.2c-0.1,0.1-0.2,0.2-0.2,0.3
				c-0.1,0.1-0.1,0.2-0.1,0.3c0,0.1,0,0.3,0.1,0.4c0.1,0.1,0.1,0.2,0.3,0.3c0.1,0.1,0.3,0.2,0.4,0.2l0.5,0.2
				c0.2,0.1,0.5,0.2,0.7,0.3c0.2,0.1,0.4,0.2,0.5,0.4c0.1,0.1,0.3,0.3,0.4,0.5c0.1,0.2,0.1,0.4,0.1,0.6c0,0.3-0.1,0.5-0.2,0.8
				c-0.1,0.2-0.3,0.4-0.5,0.6c-0.2,0.1-0.5,0.3-0.8,0.3c-0.3,0.1-0.6,0.1-0.9,0.1C227.6,135.9,227,135.8,226.5,135.5z"/>
			<path class="st12" d="M232.9,134.9L232.9,134.9v3.6h-1v-8.8h1v1.1l0,0c0.4-0.8,1.2-1.2,2.1-1.2c0.7,0,1.4,0.3,1.8,0.8
				c0.5,0.6,0.7,1.4,0.6,2.2c0,0.9-0.2,1.7-0.7,2.4c-0.5,0.6-1.2,0.9-2,0.9C233.9,135.9,233.2,135.5,232.9,134.9z M232.9,132.4v0.8
				c0,0.5,0.2,0.9,0.5,1.3c0.3,0.3,0.8,0.5,1.2,0.5c0.5,0,1.1-0.2,1.4-0.7c0.4-0.5,0.5-1.2,0.5-1.9c0-0.6-0.1-1.1-0.5-1.6
				c-0.3-0.4-0.8-0.6-1.3-0.6c-0.5,0-1,0.2-1.3,0.6C233,131.4,232.8,131.9,232.9,132.4L232.9,132.4z"/>
			<path class="st12" d="M241.4,135.9c-0.8,0-1.6-0.3-2.1-0.8c-0.5-0.6-0.8-1.4-0.8-2.2c-0.1-0.9,0.2-1.7,0.8-2.4
				c0.6-0.6,1.4-0.9,2.2-0.9c0.8,0,1.5,0.3,2.1,0.8c0.5,0.6,0.8,1.5,0.8,2.3c0,0.8-0.3,1.7-0.8,2.3
				C243,135.6,242.2,135.9,241.4,135.9z M241.5,130.4c-0.6,0-1.1,0.2-1.5,0.6c-0.4,0.5-0.6,1.1-0.5,1.7c0,0.6,0.2,1.2,0.6,1.7
				c0.4,0.4,0.9,0.6,1.5,0.6c0.5,0,1.1-0.2,1.4-0.6c0.4-0.5,0.5-1.1,0.5-1.7c0-0.6-0.1-1.2-0.5-1.7
				C242.5,130.6,242,130.4,241.5,130.4z"/>
			<path class="st12" d="M250.9,135.7h-1v-3.4c0-1.3-0.5-1.9-1.4-1.9c-0.5,0-0.9,0.2-1.2,0.6c-0.3,0.4-0.5,0.9-0.5,1.4v3.4h-1v-6h1
				v1l0,0c0.4-0.7,1.2-1.2,2-1.1c0.6,0,1.1,0.2,1.5,0.6c0.4,0.5,0.6,1.2,0.5,1.8L250.9,135.7z"/>
			<path class="st12" d="M252.3,135.5v-1c0.5,0.4,1.1,0.6,1.7,0.6c0.8,0,1.3-0.3,1.3-0.9c0-0.1,0-0.3-0.1-0.4
				c-0.1-0.1-0.2-0.2-0.3-0.3c-0.1-0.1-0.3-0.2-0.4-0.2l-0.5-0.2l-0.7-0.3c-0.2-0.1-0.4-0.2-0.5-0.4c-0.1-0.1-0.2-0.3-0.3-0.5
				c-0.1-0.2-0.1-0.4-0.1-0.6c0-0.3,0.1-0.5,0.2-0.8c0.1-0.2,0.3-0.4,0.5-0.6c0.2-0.2,0.5-0.3,0.7-0.3c0.3-0.1,0.6-0.1,0.9-0.1
				c0.5,0,1,0.1,1.4,0.3v1c-0.5-0.3-1-0.4-1.5-0.4c-0.2,0-0.3,0-0.5,0.1c-0.1,0-0.3,0.1-0.4,0.2c-0.1,0.1-0.2,0.2-0.2,0.3
				c-0.1,0.1-0.1,0.2-0.1,0.3c0,0.1,0,0.3,0.1,0.4c0.1,0.1,0.1,0.2,0.3,0.3c0.1,0.1,0.3,0.2,0.4,0.2l0.5,0.2
				c0.2,0.1,0.5,0.2,0.7,0.3c0.2,0.1,0.4,0.2,0.5,0.4c0.3,0.3,0.5,0.7,0.5,1.1c0,0.3-0.1,0.5-0.2,0.8c-0.1,0.2-0.3,0.4-0.5,0.6
				c-0.2,0.1-0.5,0.3-0.8,0.3c-0.3,0.1-0.6,0.1-0.9,0.1C253.3,135.9,252.8,135.8,252.3,135.5z"/>
			<path class="st12" d="M262.5,133h-4.2c0,0.6,0.2,1.1,0.5,1.5c0.4,0.4,0.9,0.6,1.4,0.6c0.7,0,1.3-0.2,1.9-0.7v0.9
				c-0.6,0.4-1.4,0.6-2.1,0.6c-0.8,0-1.5-0.3-2-0.8c-1-1.4-1-3.2,0.1-4.6c0.5-0.6,1.2-0.9,2-0.9c0.7,0,1.4,0.2,1.8,0.8
				c0.5,0.6,0.7,1.4,0.6,2.1L262.5,133z M261.5,132.2c0-0.5-0.1-0.9-0.4-1.3c-0.3-0.3-0.7-0.5-1.1-0.5c-0.4,0-0.9,0.2-1.2,0.5
				c-0.3,0.4-0.5,0.8-0.6,1.3L261.5,132.2z"/>
		</g>
		<g>
			<path class="st5" d="M405.3,119h-1.9v-5c0-0.5,0-1.1,0.1-1.8h0c-0.1,0.4-0.1,0.7-0.3,1.1l-2,5.7h-1.5l-2-5.7
				c0-0.2-0.1-0.5-0.3-1.2h0c0,0.8,0.1,1.6,0.1,2.2v4.6h-1.7v-8.4h2.8l1.7,5c0.1,0.4,0.2,0.8,0.3,1.2l0,0c0.1-0.5,0.2-0.9,0.3-1.2
				l1.7-5h2.7L405.3,119z"/>
			<path class="st5" d="M407.9,112c-0.3,0-0.6-0.1-0.8-0.3c-0.2-0.2-0.3-0.4-0.3-0.7c0-0.3,0.1-0.5,0.3-0.7c0.2-0.2,0.5-0.3,0.8-0.3
				c0.3,0,0.6,0.1,0.8,0.3c0.2,0.2,0.3,0.4,0.3,0.7c0,0.3-0.1,0.5-0.3,0.7C408.4,111.9,408.2,112,407.9,112z M408.8,118.9h-1.9v-6
				h1.9V118.9z"/>
			<path class="st5" d="M414.9,118.8c-0.6,0.3-1.2,0.4-1.8,0.4c-0.8,0-1.6-0.3-2.2-0.8c-0.6-0.6-0.9-1.4-0.9-2.2
				c0-0.9,0.3-1.8,0.9-2.4c0.7-0.6,1.6-0.9,2.5-0.9c0.5,0,1.1,0.1,1.5,0.3v1.6c-0.4-0.3-0.8-0.4-1.3-0.4c-0.5,0-0.9,0.1-1.3,0.5
				c-0.6,0.7-0.6,1.8,0,2.5c0.3,0.3,0.8,0.5,1.2,0.5c0.5,0,1-0.2,1.4-0.4L414.9,118.8z"/>
			<path class="st5" d="M420.1,114.7c-0.2-0.1-0.5-0.2-0.8-0.2c-0.4,0-0.7,0.1-1,0.4c-0.2,0.4-0.4,0.8-0.3,1.2v2.9h-1.9v-6h1.8v1.1
				l0,0c0.2-0.7,0.8-1.2,1.6-1.2c0.2,0,0.3,0,0.5,0.1L420.1,114.7z"/>
			<path class="st5" d="M423.9,119.1c-0.9,0-1.7-0.3-2.4-0.8c-1.2-1.3-1.2-3.3,0-4.6c0.7-0.6,1.5-0.9,2.4-0.8
				c0.9-0.1,1.7,0.3,2.3,0.8c0.6,0.6,0.9,1.4,0.9,2.2c0,0.9-0.3,1.7-0.9,2.4C425.6,118.9,424.8,119.2,423.9,119.1z M423.9,114.3
				c-0.4,0-0.8,0.2-1,0.4c-0.3,0.4-0.4,0.8-0.4,1.3c0,1.2,0.5,1.7,1.4,1.7s1.3-0.6,1.3-1.8S424.8,114.3,423.9,114.3L423.9,114.3z"/>
			<path class="st5" d="M428,118.8v-1.5c0.3,0.2,0.6,0.3,0.9,0.4c0.3,0.1,0.6,0.1,0.9,0.1c0.3,0,0.5,0,0.8-0.1
				c0.2-0.1,0.3-0.2,0.3-0.4c0-0.1,0-0.2-0.1-0.3c-0.1-0.1-0.2-0.2-0.3-0.2l-0.4-0.2c-0.2,0-0.3-0.1-0.5-0.2
				c-0.2-0.1-0.4-0.2-0.6-0.3c-0.2-0.1-0.3-0.2-0.5-0.4c-0.1-0.1-0.2-0.3-0.3-0.5c-0.1-0.2-0.1-0.4-0.1-0.6c0-0.3,0.1-0.6,0.2-0.9
				c0.1-0.2,0.3-0.4,0.6-0.6c0.3-0.2,0.5-0.3,0.8-0.3c0.3-0.1,0.7-0.1,1-0.1c0.3,0,0.5,0,0.8,0.1c0.3,0,0.5,0.1,0.8,0.2v1.4
				c-0.2-0.1-0.5-0.2-0.8-0.3c-0.3-0.1-0.5-0.1-0.8-0.1c-0.1,0-0.2,0-0.3,0c-0.1,0-0.2,0.1-0.3,0.1c-0.1,0-0.1,0.1-0.2,0.2
				c0,0.1-0.1,0.1-0.1,0.2c0,0.1,0,0.2,0.1,0.3c0.1,0.1,0.2,0.1,0.3,0.2c0.1,0.1,0.2,0.1,0.4,0.2l0.4,0.1c0.2,0.1,0.5,0.2,0.7,0.3
				c0.2,0.1,0.4,0.2,0.5,0.4c0.1,0.1,0.3,0.3,0.3,0.5c0.1,0.2,0.1,0.4,0.1,0.7c0,0.3-0.1,0.6-0.2,0.9c-0.1,0.3-0.4,0.5-0.6,0.6
				c-0.3,0.2-0.6,0.3-0.9,0.3c-0.3,0.1-0.7,0.1-1,0.1C429.2,119.1,428.6,119,428,118.8z"/>
			<path class="st5" d="M436.6,119.1c-0.9,0-1.7-0.3-2.4-0.8c-1.2-1.3-1.2-3.3,0-4.6c0.7-0.6,1.5-0.9,2.4-0.8c0.9,0,1.7,0.3,2.4,0.8
				c0.6,0.6,0.9,1.4,0.9,2.2c0,0.9-0.3,1.7-0.9,2.4C438.3,118.9,437.5,119.2,436.6,119.1z M436.6,114.3c-0.4,0-0.8,0.2-1,0.4
				c-0.3,0.4-0.4,0.8-0.4,1.3c0,1.2,0.5,1.7,1.4,1.7s1.3-0.6,1.3-1.8S437.5,114.3,436.6,114.3L436.6,114.3z"/>
			<path class="st5" d="M444.9,111.5c-0.2-0.1-0.4-0.1-0.7-0.1c-0.6,0-0.9,0.3-0.9,1v0.6h1.4v1.4h-1.4v4.6h-1.9v-4.6h-1V113h1v-0.8
				c0-0.6,0.2-1.2,0.7-1.7c0.5-0.4,1.2-0.6,1.8-0.6c0.3,0,0.6,0,0.9,0.1L444.9,111.5z"/>
			<path class="st5" d="M449.5,118.9c-0.4,0.2-0.8,0.2-1.2,0.2c-1.3,0-2-0.7-2-2v-2.8h-1V113h1v-1.3l1.9-0.5v1.8h1.3v1.4h-1.3v2.4
				c0,0.6,0.2,0.9,0.7,0.9c0.2,0,0.4-0.1,0.6-0.2L449.5,118.9z"/>
			<path class="st5" d="M401.5,132.8c-0.9,0.5-2,0.7-3,0.7c-1.2,0.1-2.3-0.3-3.2-1.1c-0.8-0.8-1.2-1.9-1.2-3.1
				c0-1.2,0.4-2.4,1.3-3.2c0.9-0.9,2.1-1.3,3.4-1.3c0.8,0,1.6,0.1,2.4,0.4v1.8c-0.7-0.4-1.6-0.6-2.4-0.6c-0.7,0-1.4,0.2-1.9,0.8
				c-1,1.2-1,2.8-0.1,4c0.5,0.5,1.1,0.7,1.8,0.7c0.4,0,0.7-0.1,1.1-0.2v-1.6H398v-1.5h3.6L401.5,132.8z"/>
			<path class="st5" d="M407,129.1c-0.2-0.1-0.5-0.2-0.8-0.2c-0.4,0-0.7,0.1-0.9,0.4c-0.2,0.3-0.4,0.8-0.3,1.2v2.9h-1.9v-6h1.9v1.1
				l0,0c0.2-0.7,0.8-1.2,1.6-1.2c0.2,0,0.3,0,0.5,0.1L407,129.1z"/>
			<path class="st5" d="M412.8,133.4H411v-0.9l0,0c-0.4,0.6-1.1,1-1.8,1c-0.5,0-1-0.1-1.4-0.5c-0.3-0.4-0.5-0.8-0.5-1.3
				c0-1.2,0.7-1.8,2.1-2l1.6-0.2c0-0.7-0.4-1-1.1-1c-0.7,0-1.4,0.2-2,0.6v-1.4c0.3-0.2,0.7-0.3,1.1-0.4c0.4-0.1,0.8-0.1,1.2-0.2
				c1.2-0.2,2.4,0.7,2.6,1.9c0,0.2,0,0.4,0,0.7L412.8,133.4z M411,131v-0.4l-1.1,0.1c-0.6,0.1-0.9,0.4-0.9,0.8
				c0,0.2,0.1,0.4,0.2,0.5c0.2,0.1,0.4,0.2,0.6,0.2c0.3,0,0.6-0.1,0.9-0.4C410.9,131.7,411,131.3,411,131z"/>
			<path class="st5" d="M416.1,132.7L416.1,132.7v3.5h-1.9v-8.8h1.9v0.9l0,0c0.7-1.1,2.2-1.4,3.3-0.6c0.2,0.1,0.3,0.2,0.5,0.4
				c0.5,0.6,0.7,1.4,0.6,2.2c0,0.9-0.2,1.7-0.8,2.4c-0.5,0.6-1.2,0.9-2,0.9C417.1,133.6,416.5,133.2,416.1,132.7z M416.1,130.2v0.5
				c0,0.4,0.1,0.7,0.3,1c0.2,0.3,0.5,0.4,0.9,0.4c0.4,0,0.8-0.2,1-0.5c0.3-0.4,0.4-0.9,0.4-1.4c0-1.1-0.4-1.6-1.2-1.6
				c-0.4,0-0.7,0.1-0.9,0.4C416.2,129.4,416,129.8,416.1,130.2L416.1,130.2z"/>
			<path class="st5" d="M427.5,133.4h-1.9V130c0-0.9-0.3-1.3-1-1.3c-0.3,0-0.6,0.1-0.8,0.4c-0.2,0.3-0.3,0.6-0.3,0.9v3.4h-1.9v-8.9
				h1.9v3.8l0,0c0.4-0.6,1.1-1,1.8-1c1.3,0,2,0.8,2,2.5L427.5,133.4z"/>
			<path class="st5" d="M439.8,133.4h-2.1l-0.6-1.9h-3l-0.6,1.9h-2l3.1-8.4h2.3L439.8,133.4z M436.7,130.1l-0.9-2.8
				c-0.1-0.2-0.1-0.5-0.1-0.8h0c0,0.2-0.1,0.5-0.1,0.7l-0.9,2.8H436.7z"/>
			<path class="st5" d="M442.6,130.5v2.9h-1.9V125h3c2.1,0,3.2,0.9,3.2,2.7c0,0.8-0.3,1.5-0.9,2.1c-0.7,0.5-1.6,0.8-2.4,0.8
				L442.6,130.5z M442.6,126.4v2.6h0.8c1,0,1.5-0.4,1.5-1.3s-0.5-1.3-1.5-1.3L442.6,126.4z"/>
			<path class="st5" d="M449.9,133.4H448V125h1.9L449.9,133.4z"/>
		</g>
		<g>
			<polygon class="st8" points="192.6,86.7 185,92.1 187.9,100.9 197.2,100.9 200.1,92.1 			"/>
			<g>
				<g>
					<path class="st12" d="M213,100.1h-1.1l-0.9-2.4h-3.6l-0.8,2.4h-1.1l3.2-8.4h1L213,100.1z M210.7,96.9l-1.3-3.6
						c-0.1-0.2-0.1-0.4-0.1-0.6l0,0c0,0.2-0.1,0.4-0.1,0.6l-1.3,3.6H210.7z"/>
					<path class="st12" d="M218,99.9c-0.5,0.3-1.1,0.4-1.6,0.4c-0.8,0-1.5-0.3-2.1-0.8c-0.5-0.6-0.8-1.4-0.8-2.2
						c0-0.9,0.3-1.7,0.9-2.4c0.6-0.6,1.4-0.9,2.3-0.9c0.5,0,1,0.1,1.4,0.3v1c-0.4-0.3-0.9-0.5-1.4-0.5c-0.6,0-1.1,0.2-1.5,0.7
						c-0.4,0.5-0.6,1.1-0.6,1.7c0,0.6,0.2,1.2,0.6,1.7c0.4,0.4,0.9,0.6,1.5,0.6c0.5,0,1.1-0.2,1.5-0.5V99.9z"/>
					<path class="st12" d="M223.4,99.9c-0.5,0.3-1.1,0.4-1.6,0.4c-0.8,0-1.5-0.3-2.1-0.8c-0.5-0.6-0.8-1.4-0.8-2.2
						c0-0.9,0.3-1.7,0.9-2.4c0.6-0.6,1.4-0.9,2.3-0.9c0.5,0,1,0.1,1.4,0.3v1c-0.4-0.3-0.9-0.5-1.4-0.5c-0.6,0-1.1,0.2-1.5,0.7
						c-0.4,0.5-0.6,1.1-0.6,1.7c0,0.6,0.2,1.2,0.6,1.7c0.4,0.4,0.9,0.6,1.5,0.6c0.5,0,1.1-0.2,1.5-0.5L223.4,99.9z"/>
					<path class="st12" d="M229.6,97.4h-4.2c0,0.6,0.2,1.1,0.5,1.5c0.4,0.4,0.9,0.6,1.4,0.6c0.7,0,1.3-0.2,1.9-0.7v0.9
						c-0.6,0.4-1.3,0.6-2.1,0.6c-0.8,0-1.5-0.3-2-0.8c-0.5-0.7-0.8-1.5-0.7-2.3c0-0.8,0.2-1.6,0.8-2.3c0.5-0.6,1.2-0.9,2-0.9
						c0.7,0,1.4,0.2,1.8,0.8c0.5,0.6,0.7,1.4,0.6,2.1L229.6,97.4z M228.6,96.6c0-0.5-0.1-0.9-0.4-1.3c-0.3-0.3-0.7-0.5-1.1-0.5
						c-0.4,0-0.8,0.2-1.1,0.5c-0.3,0.3-0.5,0.8-0.6,1.3H228.6z"/>
					<path class="st12" d="M230.7,99.9v-1c0.5,0.4,1.1,0.6,1.7,0.6c0.9,0,1.3-0.3,1.3-0.8c0-0.1,0-0.3-0.1-0.4
						c-0.1-0.1-0.2-0.2-0.3-0.3c-0.1-0.1-0.3-0.2-0.4-0.2l-0.5-0.2c-0.2-0.1-0.5-0.2-0.7-0.3c-0.2-0.1-0.4-0.2-0.5-0.4
						c-0.1-0.1-0.2-0.3-0.3-0.5c-0.1-0.2-0.1-0.4-0.1-0.6c0-0.3,0.1-0.5,0.2-0.8c0.1-0.2,0.3-0.4,0.5-0.5c0.2-0.2,0.5-0.3,0.7-0.3
						c0.3-0.1,0.6-0.1,0.9-0.1c0.5,0,1,0.1,1.4,0.3v1c-0.5-0.3-1-0.4-1.5-0.4c-0.2,0-0.3,0-0.5,0.1c-0.1,0-0.3,0-0.4,0.1
						c-0.1,0.1-0.2,0.2-0.2,0.3c-0.1,0.1-0.1,0.2-0.1,0.3c0,0.1,0,0.3,0.1,0.4c0.1,0.1,0.1,0.2,0.3,0.3c0.1,0.1,0.3,0.2,0.4,0.2
						l0.5,0.2c0.2,0.1,0.5,0.2,0.7,0.3c0.2,0.1,0.4,0.2,0.5,0.4c0.1,0.1,0.3,0.3,0.3,0.5c0.1,0.2,0.1,0.4,0.1,0.6
						c0,0.3-0.1,0.5-0.2,0.8c-0.1,0.2-0.3,0.4-0.5,0.5c-0.2,0.1-0.5,0.3-0.8,0.3c-0.3,0.1-0.6,0.1-0.9,0.1
						C231.7,100.3,231.2,100.2,230.7,99.9z"/>
					<path class="st12" d="M235.8,99.9v-1c0.5,0.4,1.1,0.6,1.7,0.6c0.9,0,1.3-0.3,1.3-0.8c0-0.1,0-0.3-0.1-0.4
						c-0.1-0.1-0.2-0.2-0.3-0.3c-0.1-0.1-0.3-0.2-0.4-0.2l-0.5-0.2c-0.2-0.1-0.5-0.2-0.7-0.3c-0.2-0.1-0.4-0.2-0.5-0.4
						c-0.1-0.1-0.2-0.3-0.3-0.5c-0.1-0.2-0.1-0.4-0.1-0.6c0-0.3,0.1-0.5,0.2-0.8c0.1-0.2,0.3-0.4,0.5-0.5c0.2-0.2,0.5-0.3,0.7-0.3
						c0.3-0.1,0.6-0.1,0.9-0.1c0.5,0,1,0.1,1.4,0.3v1c-0.5-0.3-1-0.4-1.5-0.4c-0.2,0-0.3,0-0.5,0.1c-0.1,0-0.3,0.1-0.4,0.2
						c-0.1,0.1-0.2,0.2-0.2,0.3c-0.1,0.1-0.1,0.2-0.1,0.3c0,0.1,0,0.3,0.1,0.4c0.1,0.1,0.1,0.2,0.2,0.3c0.1,0.1,0.3,0.2,0.4,0.2
						l0.5,0.2c0.2,0.1,0.5,0.2,0.7,0.3c0.2,0.1,0.4,0.2,0.5,0.4c0.1,0.1,0.3,0.3,0.3,0.5c0.1,0.2,0.1,0.4,0.1,0.6
						c0,0.3-0.1,0.5-0.2,0.8c-0.1,0.2-0.3,0.4-0.5,0.5c-0.2,0.1-0.5,0.3-0.8,0.3c-0.3,0.1-0.6,0.1-0.9,0.1
						C236.8,100.3,236.3,100.2,235.8,99.9z"/>
					<path class="st12" d="M247.3,100.1c-0.3,0.1-0.6,0.2-0.9,0.2c-1,0-1.6-0.6-1.6-1.8V95h-1v-0.8h1v-1.5l1-0.3v1.8h1.5V95h-1.5
						v3.4c0,0.3,0,0.6,0.2,0.9c0.2,0.2,0.4,0.3,0.7,0.3c0.2,0,0.4-0.1,0.6-0.2L247.3,100.1z"/>
					<path class="st12" d="M250.9,100.3c-0.8,0-1.6-0.3-2.1-0.8c-0.5-0.6-0.8-1.4-0.8-2.2c-0.1-0.9,0.2-1.7,0.8-2.4
						c0.6-0.6,1.4-0.9,2.2-0.8c0.8,0,1.5,0.3,2.1,0.8c0.5,0.6,0.8,1.5,0.8,2.3c0,0.8-0.2,1.7-0.8,2.3
						C252.6,100,251.8,100.3,250.9,100.3z M251,94.8c-0.6,0-1.1,0.2-1.5,0.6c-0.4,0.5-0.6,1.1-0.5,1.7c0,0.6,0.2,1.2,0.6,1.7
						c0.4,0.4,0.9,0.6,1.5,0.6c0.5,0,1.1-0.2,1.4-0.6c0.4-0.5,0.5-1.1,0.5-1.7c0-0.6-0.1-1.2-0.5-1.7C252.1,95,251.5,94.8,251,94.8
						L251,94.8z"/>
					<path class="st12" d="M260.4,100.1H259l-2.6-2.9l0,0v2.9h-1v-8.9h1v5.6l0,0l2.5-2.8h1.3l-2.7,2.9L260.4,100.1z"/>
					<path class="st12" d="M265.9,97.4h-4.2c0,0.6,0.2,1.1,0.5,1.5c0.4,0.4,0.9,0.6,1.4,0.6c0.7,0,1.3-0.2,1.9-0.7v0.9
						c-0.6,0.4-1.3,0.6-2.1,0.6c-0.8,0-1.5-0.3-2-0.8c-0.5-0.6-0.8-1.5-0.7-2.3c0-0.8,0.3-1.6,0.8-2.3c0.5-0.6,1.2-0.9,2-0.9
						c0.7,0,1.4,0.2,1.8,0.8c0.5,0.6,0.7,1.4,0.6,2.1L265.9,97.4z M264.9,96.6c0-0.5-0.1-0.9-0.4-1.3c-0.3-0.3-0.7-0.5-1.1-0.5
						c-0.4,0-0.9,0.2-1.1,0.5c-0.3,0.3-0.5,0.8-0.6,1.3H264.9z"/>
					<path class="st12" d="M272.3,100.1h-1v-3.4c0-1.3-0.5-1.9-1.4-1.9c-0.5,0-0.9,0.2-1.2,0.5c-0.3,0.4-0.5,0.9-0.5,1.4v3.4h-1v-6
						h1v1l0,0c0.4-0.7,1.2-1.2,2-1.1c0.6,0,1.1,0.2,1.5,0.6c0.4,0.5,0.6,1.2,0.5,1.8L272.3,100.1z"/>
				</g>
				<g>
					<path class="st12" d="M212.8,85.9h-1v-3.8h-4.4v3.8h-1v-8.4h1v3.7h4.4v-3.7h1V85.9z"/>
					<path class="st12" d="M219.8,78.4h-2.4v7.5h-1v-7.5H214v-0.9h5.8L219.8,78.4z"/>
					<path class="st12" d="M226.4,78.4H224v7.5h-1v-7.5h-2.4v-0.9h5.8L226.4,78.4z"/>
					<path class="st12" d="M228.6,82.8v3.2h-1v-8.4h2.3c0.8-0.1,1.5,0.2,2.1,0.7c0.5,0.5,0.8,1.2,0.7,1.8c0,0.7-0.3,1.5-0.8,1.9
						c-0.6,0.5-1.4,0.8-2.2,0.8L228.6,82.8z M228.6,78.4v3.4h1c0.6,0,1.1-0.1,1.6-0.5c0.4-0.3,0.6-0.8,0.5-1.3c0-1.1-0.7-1.7-2-1.7
						L228.6,78.4z"/>
					<path class="st12" d="M243.9,85.4c-0.9,0.5-1.8,0.7-2.8,0.7c-1.1,0-2.2-0.4-2.9-1.2c-0.8-0.8-1.2-1.9-1.1-3.1
						c0-1.2,0.4-2.3,1.2-3.2c0.8-0.8,2-1.3,3.1-1.3c0.8,0,1.6,0.1,2.3,0.4v1.1c-0.7-0.4-1.6-0.7-2.4-0.6c-0.9,0-1.7,0.3-2.3,1
						c-1.2,1.5-1.2,3.5-0.1,5c0.6,0.6,1.4,0.9,2.3,0.9c0.6,0,1.2-0.1,1.7-0.4v-2.3h-1.8v-0.9h2.8L243.9,85.4z"/>
					<path class="st12" d="M250.3,85.9h-4.4v-8.4h4.3v0.9h-3.3v2.8h3v0.9h-3V85h3.5V85.9z"/>
					<path class="st12" d="M256.9,78.4h-2.4v7.5h-1v-7.5h-2.4v-0.9h5.8L256.9,78.4z"/>
					<path class="st12" d="M267.3,82.8h-2.4v2.4h-0.8v-2.4h-2.4V82h2.4v-2.3h0.8V82h2.4V82.8z"/>
				</g>
			</g>
		</g>
	</g>
</g>
<g id="bg">
	<g id="Shapes_1_">
		<rect class="st1" width="475.5" height="150"/>
		<rect y="0.5" class="st4" width="105" height="150"/>
		<rect x="370.8" y="0.5" class="st5" width="104.7" height="90"/>
		<rect x="370.8" y="95.5" class="st6" width="104.7" height="55"/>
		<g>
			<line class="st7" x1="104.7" y1="15.8" x2="365.3" y2="15.8"/>
			<polygon points="364.2,19.5 370.7,15.8 364.2,12 			"/>
		</g>
		<g>
			<line class="st7" x1="110.1" y1="45.6" x2="370.7" y2="45.6"/>
			<polygon points="111.2,49.4 104.7,45.6 111.2,41.9 			"/>
		</g>
		<g>
			<line class="st7" x1="104.7" y1="105.1" x2="365.3" y2="105.1"/>
			<polygon points="364.2,108.8 370.7,105.1 364.2,101.3 			"/>
		</g>
		<g>
			<line class="st7" x1="110.2" y1="141.2" x2="370.7" y2="141.2"/>
			<polygon points="111.3,145 104.8,141.2 111.3,137.5 			"/>
		</g>
		
			<use xlink:href="#New_Symbol_44"  width="20" height="20" x="-10" y="-10" transform="matrix(1 0 0 1 169.62 140.76)" style="overflow:visible;"/>
		
			<use xlink:href="#New_Symbol_43"  width="20" height="20" x="-10" y="-10" transform="matrix(1 0 0 1 169.62 105.07)" style="overflow:visible;"/>
		
			<use xlink:href="#New_Symbol_42"  width="20" height="20" x="-10" y="-10" transform="matrix(1 0 0 1 169.62 45.64)" style="overflow:visible;"/>
		
			<use xlink:href="#New_Symbol_41"  width="20" height="20" x="-10" y="-10" transform="matrix(1 0 0 1 169.62 15.76)" style="overflow:visible;"/>
		<polygon class="st8" points="192.5,26.8 184.9,32.2 187.8,41 197.2,41 200.1,32.2 		"/>
		<g>
			<g>
				<path class="st9" d="M76.6,87.1c0,2.3-1.9,4.2-4.2,4.2H32.6c-2.3,0-4.2-1.9-4.2-4.2V25.5c0-2.3,1.9-4.2,4.2-4.2l0,0h39.8
					c2.3,0,4.2,1.9,4.2,4.2V87.1z"/>
				<rect x="31.5" y="28.3" class="st1" width="42" height="49.3"/>
				<path class="st1" d="M56.5,84.4c0,2.2-1.8,4-4,3.9s-4-1.8-3.9-4c0-2.2,1.8-3.9,4-3.9C54.8,80.4,56.6,82.2,56.5,84.4"/>
				<path class="st10" d="M55.2,84.4c0,1.5-1.2,2.7-2.7,2.7s-2.6-1.2-2.6-2.7s1.2-2.7,2.6-2.7S55.2,83,55.2,84.4L55.2,84.4"/>
				<path class="st11" d="M31.5,77.6V28.3h31.9l2.9-7H32.6c-2.3,0-4.2,1.9-4.2,4.2v0v61.6c0,2.3,1.9,4.2,4.2,4.2c0,0,0,0,0,0h5.2
					l5.6-13.7L31.5,77.6z"/>
				<path class="st12" d="M59.7,25.2c0,0.6-0.4,1-1,1H46.4c-0.6,0-1-0.5-1-1s0.5-1,1-1h12.2C59.2,24.1,59.6,24.6,59.7,25.2"/>
				<path class="st1" d="M59.7,25.2c0,0.6-0.4,1-1,1H46.4c-0.6,0-1-0.5-1-1s0.5-1,1-1h12.2C59.2,24.1,59.6,24.6,59.7,25.2"/>
			</g>
			<g>
				<path d="M38.5,46.9c-0.3,0-0.5-0.1-0.7-0.3c-0.2-0.2-0.3-0.4-0.3-0.7c0-0.3,0.1-0.5,0.3-0.7c0.2-0.2,0.4-0.3,0.7-0.3
					c0.1,0,0.3,0,0.4,0.1c0.1,0,0.2,0.1,0.3,0.2c0.1,0.1,0.2,0.2,0.2,0.3c0.1,0.1,0.1,0.3,0.1,0.4c0,0.1,0,0.3-0.1,0.4
					c0,0.1-0.1,0.2-0.2,0.3C39,46.8,38.7,46.9,38.5,46.9z M37.8,60.7v-11h1.4v11H37.8z"/>
				<path d="M49.1,60.9c-1,0-2.1-0.2-3-0.6c-0.9-0.4-1.6-0.9-2.3-1.7c-0.6-0.7-1.1-1.6-1.4-2.5c-0.3-1-0.5-2-0.5-3.1
					c0-1.1,0.1-2.2,0.5-3.3c0.3-0.9,0.8-1.8,1.5-2.6c0.6-0.7,1.4-1.3,2.3-1.7c1-0.4,2.1-0.6,3.2-0.6c1,0,2,0.2,2.9,0.6
					c0.8,0.4,1.6,0.9,2.2,1.6c0.6,0.7,1.1,1.5,1.4,2.4c0.3,1,0.5,2,0.5,3.1c0,1.1-0.2,2.2-0.5,3.3c-0.3,0.9-0.8,1.8-1.4,2.6
					c-0.6,0.7-1.4,1.3-2.3,1.7C51.2,60.7,50.2,61,49.1,60.9z M49.2,46.3c-0.9,0-1.7,0.2-2.5,0.5c-0.7,0.3-1.3,0.8-1.8,1.4
					c-0.5,0.6-0.9,1.4-1.1,2.1c-0.3,0.8-0.4,1.7-0.4,2.6c0,0.8,0.1,1.7,0.3,2.5c0.2,0.8,0.6,1.5,1.1,2.1c0.5,0.6,1.1,1.1,1.8,1.5
					c0.8,0.4,1.6,0.6,2.5,0.5c0.9,0,1.7-0.1,2.5-0.5c0.7-0.3,1.3-0.8,1.8-1.4c0.5-0.6,0.9-1.3,1.1-2.1c0.3-0.9,0.4-1.8,0.4-2.7
					c0-0.9-0.1-1.7-0.3-2.5c-0.2-0.8-0.5-1.5-1-2.1c-0.5-0.6-1.1-1.1-1.8-1.4C51,46.5,50.1,46.3,49.2,46.3z"/>
				<path d="M58.8,58.4c0.3,0.2,0.6,0.4,0.9,0.5c0.6,0.3,1.3,0.5,2,0.6c0.3,0.1,0.6,0.1,0.9,0.1c0.9,0.1,1.8-0.2,2.6-0.6
					c0.6-0.5,0.9-1.2,0.8-2c0-0.7-0.3-1.4-0.8-1.9c-0.3-0.3-0.7-0.6-1.1-0.8c-0.4-0.3-1-0.6-1.5-0.9s-1.2-0.7-1.7-1
					c-0.4-0.3-0.8-0.6-1.2-1c-0.3-0.3-0.5-0.7-0.7-1.1c-0.1-0.4-0.2-0.9-0.2-1.3c0-0.6,0.1-1.2,0.4-1.7c0.3-0.5,0.6-0.9,1.1-1.3
					c0.5-0.4,1-0.6,1.6-0.8c0.6-0.2,1.3-0.3,2-0.3c1,0,2,0.1,3,0.5v1.6c-1-0.5-2.1-0.8-3.2-0.8c-0.4,0-0.9,0.1-1.3,0.2
					c-0.4,0.1-0.7,0.3-1.1,0.5c-0.3,0.2-0.5,0.5-0.7,0.8c-0.2,0.3-0.3,0.7-0.3,1.1c0,0.3,0.1,0.7,0.2,1c0.1,0.3,0.3,0.6,0.6,0.8
					c0.3,0.3,0.6,0.6,1,0.8c0.4,0.3,0.9,0.5,1.6,0.9c0.6,0.3,1.1,0.6,1.7,1c0.4,0.3,0.8,0.6,1.2,1c0.3,0.3,0.5,0.7,0.7,1.1
					c0.2,0.4,0.2,0.9,0.2,1.3c0,0.6-0.1,1.2-0.4,1.8c-0.2,0.5-0.6,0.9-1.1,1.3c-0.5,0.4-1,0.6-1.6,0.8c-0.7,0.2-1.3,0.3-2,0.3
					c-0.3,0-0.6,0-0.9-0.1c-0.3,0-0.7-0.1-1-0.2c-0.3-0.1-0.7-0.2-1-0.3c-0.3-0.1-0.5-0.2-0.8-0.3L58.8,58.4z"/>
			</g>
		</g>
	</g>
	<polygon class="st8" points="192.6,86.7 185,92.1 187.9,100.9 197.2,100.9 200.1,92.1 	"/>
</g>
<g id="txt">
	<g>
		<rect y="102.8" class="st13" width="104.7" height="30.5"/>
		<path class="st14" d="M27.7,103.8h-4.2c-0.1,0.3-0.2,0.6-0.4,1h3.7v4.5H24v2.7c0,0.2-0.1,0.4-0.2,0.6s-0.3,0.3-0.5,0.3
			s-0.5,0.1-1,0.1c-0.2,0-0.4,0-0.6,0l-0.3-1c0.8,0,1.3,0,1.4-0.1s0.2-0.1,0.2-0.3v-2.3H20v-4.5h2c0.1-0.3,0.3-0.6,0.4-1h-3.3v3.9
			c0,2.3-0.4,4.1-1.2,5.4l-0.9-0.6c0.7-1.2,1-2.9,1-5v-4.6h9.6L27.7,103.8z M21.9,110.1c-0.5,0.9-1.3,1.7-2.3,2.5l-0.8-0.7
			c1-0.8,1.8-1.6,2.2-2.3L21.9,110.1z M25.7,106.6v-0.9h-4.6v0.9H25.7z M25.7,108.3v-0.8h-4.6v0.8H25.7z M27.8,112l-0.8,0.7
			c-0.5-0.8-1.2-1.6-2.1-2.4l0.8-0.6C26.5,110.3,27.2,111.1,27.8,112z"/>
		<path class="st14" d="M39.6,112.7H29.2v-1.1H34V109h-3.6V108H34v-2.3h-2.7c-0.4,0.8-0.9,1.4-1.5,2l-0.8-0.8
			c1.1-1.1,1.8-2.5,2.2-4.1l1.1,0.3c-0.1,0.5-0.3,1.1-0.5,1.6H34v-2.1h1.1v2.1h4.3v1.1h-4.3v2.3h3.8v1.1h-3.8v2.6h4.5V112.7z"/>
		<path class="st14" d="M51.6,104.1h-8.7v2.5c0.6-0.6,1.2-1.4,1.6-2.4l1,0.2c-0.2,0.5-0.5,1-0.8,1.5v3.8h-1v-2.5l-0.4,0.4l-0.4-1
			v2.5c0,1.4-0.3,2.7-0.9,3.8l-0.9-0.7c0.5-0.9,0.7-2.2,0.7-3.7v-5.5h4.2c-0.1-0.1-0.2-0.3-0.3-0.6l1.2-0.2c0.2,0.3,0.3,0.5,0.4,0.8
			h4.3V104.1z M44.9,110.5c-0.3,0.8-0.7,1.6-1.2,2.3l-0.9-0.6c0.5-0.7,0.9-1.4,1.1-2.1L44.9,110.5z M51.5,109.7h-5.9v-2.4
			c-0.1,0.1-0.2,0.2-0.3,0.3l-0.4-1c0.7-0.7,1.2-1.5,1.6-2.4l1,0.3c-0.1,0.2-0.2,0.4-0.3,0.6h1.2c-0.1-0.2-0.2-0.4-0.3-0.6l1.1-0.2
			c0.1,0.2,0.3,0.5,0.4,0.8h1.9v0.8h-2.1v0.5h2v0.7h-2v0.5h2v0.8h-2v0.5h2.2V109.7z M49.9,111.5c-0.1,0.9-0.5,1.4-1.2,1.4l-2.4,0
			c-0.6,0-1-0.3-1-0.9v-1.8h1v1.5c0,0.1,0,0.2,0.1,0.2s0.4,0.1,0.9,0.1c0.8,0,1.2,0,1.3-0.1s0.1-0.2,0.2-0.3s0.1-0.3,0.1-0.4
			L49.9,111.5z M48.3,106.4v-0.5h-1.6l-0.1,0.1v0.4H48.3z M48.3,107.6v-0.5h-1.7v0.5H48.3z M48.3,108.9v-0.5h-1.7v0.5H48.3z
			 M48.6,111.1l-0.9,0.4c-0.2-0.4-0.5-0.8-0.9-1.3l0.9-0.4C48.1,110.2,48.4,110.7,48.6,111.1z M51.7,112l-0.9,0.5
			c-0.4-0.7-0.8-1.3-1.4-2l0.9-0.5C50.7,110.5,51.2,111.2,51.7,112z"/>
		<path class="st14" d="M63.1,111.8c0,0.3-0.1,0.6-0.4,0.8s-0.6,0.4-1.2,0.4c-0.3,0-0.5,0-0.8,0l-0.3-1.1l1.3,0c0.1,0,0.2,0,0.3-0.1
			s0.1-0.2,0.1-0.3v-2.2h-3v3.4h-1v-3.4h-2.9c-0.1,1.5-0.5,2.8-1.1,3.7l-0.9-0.6c0.3-0.5,0.6-1.2,0.8-2s0.3-1.6,0.3-2.4v-5.3h8.9
			V111.8z M58,105.6v-1.7h-2.8v1.7H58z M58,108.4v-1.8h-2.8v1.8H58z M62,105.6v-1.7h-3v1.7H62z M62,108.4v-1.8h-3v1.8H62z"/>
		<path class="st14" d="M69.4,108.5l-0.7,0.7c-0.2-0.4-0.4-0.8-0.7-1.2v5h-1v-4.3c-0.3,0.6-0.7,1.3-1.2,2l-0.6-1
			c0.7-0.8,1.3-1.9,1.8-3.2h-1.7v-1H67v-1.5c-0.6,0.1-1,0.2-1.3,0.2l-0.4-0.9c1.4-0.1,2.6-0.4,3.5-0.8l0.5,0.9
			c-0.4,0.2-0.8,0.3-1.2,0.4v1.7h1.3v1H68v0.3C68.6,107.4,69.1,108,69.4,108.5z M75.6,112.9h-6.8v-1h2.9v-1.5h-2.5v-1h2.5v-1.2
			c-1,0.1-1.7,0.1-2.2,0.1l-0.4-0.9c2.3-0.1,4.2-0.3,5.8-0.6l0.4,0.9c-0.9,0.2-1.8,0.4-2.6,0.4v1.3h2.5v1h-2.5v1.5h2.8V112.9z
			 M75,106.4h-5.3v-3.6H75V106.4z M73.9,105.4v-1.6h-3.1v1.6H73.9z"/>
		<path class="st14" d="M87.6,110.4c-0.1,1.7-0.6,2.6-1.5,2.6c-0.7,0-1.4-0.7-1.9-2.1s-0.8-3.2-0.9-5.5h-6.1v-1h6.1
			c0-0.8-0.1-1.5,0-2h1.1c0,0.5,0,1.1,0,2h3.2v1h-3.2c0,2.3,0.3,3.9,0.7,4.9s0.8,1.5,1,1.5c0.2,0,0.4-0.7,0.5-2.1L87.6,110.4z
			 M83.2,111.1c-2.2,0.6-4.1,0.9-5.6,1.1l-0.2-1c0.7-0.1,1.5-0.2,2.3-0.4v-3.2h-1.9v-1h5.1v1h-2.1v2.9c1-0.2,1.8-0.4,2.4-0.6
			L83.2,111.1z M87.3,103.7l-0.8,0.7c-0.5-0.5-1-0.8-1.5-1l0.8-0.7C86.4,102.9,86.9,103.3,87.3,103.7z"/>
	</g>
	<g>
		<g>
			<path class="st15" d="M213.5,86.8h-1v-4.2h-4.8v4.2h-1v-9.1h1v4h4.8v-4h1V86.8z"/>
			<path class="st15" d="M221.1,78.6h-2.6v8.2h-1v-8.2h-2.6v-0.9h6.2V78.6z"/>
			<path class="st15" d="M228,78.6h-2.6v8.2h-1v-8.2h-2.6v-0.9h6.2V78.6z"/>
			<path class="st15" d="M230.4,83.3v3.4h-1v-9.1h2.4c0.9,0,1.7,0.2,2.2,0.7s0.8,1.1,0.8,2c0,0.9-0.3,1.6-0.9,2.2s-1.4,0.8-2.3,0.8
				H230.4z M230.4,78.6v3.8h1.1c0.7,0,1.3-0.2,1.7-0.5s0.6-0.8,0.6-1.4c0-1.2-0.7-1.8-2.2-1.8H230.4z"/>
			<path class="st15" d="M246.2,86.1c-0.9,0.5-1.9,0.8-3,0.8c-1.3,0-2.3-0.4-3.1-1.3s-1.2-1.9-1.2-3.3c0-1.4,0.4-2.5,1.3-3.5
				s2-1.4,3.4-1.4c1,0,1.8,0.2,2.5,0.5v1.1c-0.7-0.5-1.6-0.7-2.6-0.7c-1,0-1.9,0.4-2.5,1.1s-1,1.6-1,2.8c0,1.2,0.3,2.1,0.9,2.7
				s1.4,1,2.5,1c0.7,0,1.4-0.1,1.9-0.4V83h-2V82h3V86.1z"/>
			<path class="st15" d="M253,86.8h-4.8v-9.1h4.6v0.9h-3.6v3.1h3.3v0.9h-3.3v3.2h3.8V86.8z"/>
			<path class="st15" d="M260,78.6h-2.6v8.2h-1v-8.2h-2.6v-0.9h6.2V78.6z"/>
			<path class="st15" d="M270.5,83.4H268v2.6h-0.8v-2.6h-2.6v-0.8h2.6V80h0.8v2.6h2.6V83.4z"/>
			<path class="st15" d="M216.8,93h-6.2c-0.4,0.9-1,1.7-1.6,2.5v6h-0.7v-5.2c-0.6,0.6-1.2,1.1-1.7,1.4l-0.2-0.6
				c1.5-1.2,2.7-2.5,3.5-4.2h-3.5v-0.6h3.8c0.2-0.4,0.4-0.8,0.6-1.4l0.6,0.2c-0.2,0.5-0.4,0.9-0.6,1.2h5.9V93z M216.8,98.3h-3v2.4
				c0,0.2-0.1,0.4-0.2,0.5s-0.2,0.3-0.4,0.3s-0.5,0.1-1.1,0.1c-0.3,0-0.6,0-0.9,0l-0.3-0.6c0.3,0,0.6,0,1,0c0.6,0,1,0,1.1-0.1
				s0.2-0.1,0.2-0.2v-2.3h-3.6v-0.6h3.6v-0.9c0.6-0.4,1.2-0.9,1.9-1.6h-4.7v-0.6h5.6v0.6c-0.8,0.8-1.5,1.4-2.2,1.8v0.6h3V98.3z"/>
			<path class="st15" d="M223.9,91.8h-1v9.8h-0.6v-2.5c-1,0.4-2.3,0.7-3.9,1.1l-0.2-0.6l1.1-0.2v-7.6h-1.1v-0.6h5.7V91.8z
				 M222.3,93.7v-1.9h-2.4v1.9H222.3z M222.3,96.2v-1.9h-2.4v1.9H222.3z M222.3,98.5v-1.6h-2.4v2.4
				C220.6,99.1,221.4,98.8,222.3,98.5z M228.7,101.1l-0.4,0.5c-0.8-0.7-1.5-1.4-2.1-2.2c-0.7,0.9-1.5,1.6-2.3,2.2l-0.4-0.5
				c0.8-0.6,1.6-1.3,2.3-2.3c-1-1.7-1.6-3.7-1.8-6h-0.4v-0.6h4.6c0,2.6-0.6,4.8-1.7,6.6c0.1,0.3,0.5,0.7,0.9,1.2
				S228.4,100.9,228.7,101.1z M227.6,92.9h-2.9c0.1,2,0.6,3.8,1.5,5.4C227,96.8,227.5,95,227.6,92.9z"/>
			<path class="st15" d="M233.9,96.2l-0.4,0.5c-0.2-0.4-0.5-0.8-0.9-1.3v6.1H232v-6.1c-0.4,1.1-0.9,2-1.4,2.8l-0.4-0.5
				c0.7-1.1,1.3-2.4,1.8-3.8h-1.6v-0.6h1.7v-2.3h0.6v2.3h1.1V94h-1.1v0.7C233.1,95.2,233.6,95.8,233.9,96.2z M240.6,101h-5.6v0.5
				h-0.6v-4c-0.3,0.3-0.6,0.6-0.9,0.9l-0.4-0.5c0.8-0.6,1.5-1.5,2-2.4l0.6,0.2c-0.1,0.2-0.3,0.5-0.4,0.7h2.1
				c-0.1-0.1-0.2-0.3-0.3-0.5l0.6-0.3c0.2,0.2,0.3,0.5,0.5,0.7h2.2v0.5h-2.5v0.8h2.2v0.5h-2.2V99h2.2v0.5h-2.2v0.9h2.8V101z
				 M236.5,93h-0.6v-0.5h-2.2v-0.6h2.2v-0.8h0.6V93z M236.8,95.3h-2.6v-2h2.6V95.3z M236.2,94.8v-0.9h-1.5v0.9H236.2z M237.3,97.7
				v-0.8h-2.2v0.8H237.3z M237.3,99v-0.8h-2.2V99H237.3z M237.3,100.5v-0.9h-2.2v0.9H237.3z M240.2,95.3h-2.6v-2h2.6V95.3z
				 M240.6,92.5h-2.1V93h-0.6v-1.9h0.6v0.8h2.1V92.5z M239.6,94.8v-0.9h-1.5v0.9H239.6z"/>
			<path class="st15" d="M246.5,96.6l-0.4,0.5c-0.5-0.7-1-1.3-1.4-1.7v6.1h-0.6v-6c-0.5,1.2-1.1,2.2-1.7,3l-0.4-0.5
				c0.8-1,1.5-2.4,2.1-4.1h-1.9v-0.6h1.9V91h0.6v2.4h1.4V94h-1.4v0.6C245.4,95.3,246,96,246.5,96.6z M252.6,101.1l-0.4,0.5
				c-1.3-0.6-2.4-1.2-3.2-2c-0.9,0.9-2,1.5-3.3,1.9l-0.4-0.6c1.4-0.4,2.5-1,3.3-1.8c-0.8-1.1-1.3-2.5-1.6-4.2l0.6-0.1
				c0.3,1.6,0.7,2.9,1.4,3.8c0.6-1,0.9-2.6,1-4.8h-3.3v-0.6h3.4c0-0.8,0-1.5,0-2.2h0.6c0,1,0,1.7,0,2.2h1.8v0.6h-1.9
				c0,2.4-0.4,4.2-1.1,5.3C250.2,99.9,251.3,100.6,252.6,101.1z"/>
		</g>
	</g>
	<g>
		<rect x="394.6" y="25.3" class="st13" width="57.4" height="39.7"/>
		<path class="st16" d="M404.7,34.9v-5.9c0-0.5,0-1.1,0.1-1.8h0c-0.1,0.5-0.2,0.8-0.3,1l-2.8,6.7h-0.9l-2.8-6.6
			c-0.1-0.2-0.2-0.5-0.3-1h0c0,0.5,0.1,1.2,0.1,2v5.7h-1.3v-9.1h2l2.5,6c0.2,0.5,0.3,0.9,0.4,1.2h0c0.1-0.2,0.2-0.6,0.4-1.2l2.5-6
			h1.9v9.1H404.7z"/>
		<path class="st16" d="M408.1,26.2c0-0.2,0.1-0.4,0.2-0.6s0.4-0.2,0.6-0.2c0.2,0,0.4,0.1,0.6,0.2s0.2,0.3,0.2,0.6s-0.1,0.4-0.2,0.6
			s-0.4,0.2-0.6,0.2s-0.4-0.1-0.6-0.2S408.1,26.4,408.1,26.2z M408.2,34.9v-6.5h1.4v6.5H408.2z"/>
		<path class="st16" d="M416.1,34.6c-0.5,0.3-1.1,0.4-1.8,0.4c-0.9,0-1.7-0.3-2.3-0.9s-0.9-1.4-0.9-2.3c0-1.1,0.3-1.9,0.9-2.6
			s1.5-1,2.5-1c0.6,0,1.2,0.1,1.6,0.3v1.3c-0.5-0.3-1-0.5-1.5-0.5c-0.6,0-1.1,0.2-1.5,0.6s-0.6,1-0.6,1.7c0,0.7,0.2,1.2,0.6,1.6
			s0.9,0.6,1.5,0.6c0.5,0,1.1-0.2,1.5-0.5V34.6z"/>
		<path class="st16" d="M421.3,29.8c-0.2-0.1-0.5-0.2-0.8-0.2c-0.4,0-0.8,0.2-1.1,0.6S419,31,419,31.7v3.2h-1.4v-6.5h1.4v1.3h0
			c0.3-0.9,0.9-1.4,1.7-1.4c0.2,0,0.4,0,0.6,0.1V29.8z"/>
		<path class="st16" d="M421.7,31.7c0-1.1,0.3-1.9,0.9-2.5s1.4-0.9,2.5-0.9c1,0,1.8,0.3,2.3,0.9s0.9,1.4,0.9,2.4
			c0,1-0.3,1.9-0.9,2.5s-1.4,0.9-2.4,0.9c-1,0-1.8-0.3-2.4-0.9S421.7,32.8,421.7,31.7z M423.1,31.7c0,0.7,0.2,1.3,0.5,1.7
			s0.8,0.6,1.4,0.6c1.2,0,1.9-0.8,1.9-2.3c0-0.7-0.2-1.3-0.5-1.7s-0.8-0.6-1.4-0.6s-1.1,0.2-1.4,0.6S423.1,31,423.1,31.7z"/>
		<path class="st16" d="M429.6,33.4c0.6,0.4,1.2,0.6,1.9,0.6c0.9,0,1.3-0.3,1.3-0.8c0-0.2-0.1-0.4-0.3-0.5s-0.6-0.3-1.2-0.6
			c-0.7-0.3-1.1-0.5-1.3-0.8s-0.3-0.6-0.3-1.1c0-0.6,0.3-1.1,0.8-1.4s1.1-0.5,1.9-0.5c0.6,0,1.1,0.1,1.6,0.3v1.2
			c-0.5-0.3-1-0.5-1.7-0.5c-0.3,0-0.6,0.1-0.8,0.2s-0.3,0.3-0.3,0.6c0,0.2,0.1,0.4,0.2,0.5s0.5,0.3,1.1,0.5c0.7,0.3,1.2,0.5,1.4,0.8
			s0.4,0.7,0.4,1.1c0,0.6-0.3,1.1-0.8,1.4s-1.2,0.5-2,0.5c-0.7,0-1.3-0.1-1.8-0.4V33.4z"/>
		<path class="st16" d="M435.1,31.7c0-1.1,0.3-1.9,0.9-2.5s1.4-0.9,2.5-0.9c1,0,1.8,0.3,2.3,0.9s0.9,1.4,0.9,2.4
			c0,1-0.3,1.9-0.9,2.5s-1.4,0.9-2.4,0.9c-1,0-1.8-0.3-2.4-0.9S435.1,32.8,435.1,31.7z M436.5,31.7c0,0.7,0.2,1.3,0.5,1.7
			s0.8,0.6,1.4,0.6c1.2,0,1.9-0.8,1.9-2.3c0-0.7-0.2-1.3-0.5-1.7s-0.8-0.6-1.4-0.6s-1.1,0.2-1.4,0.6S436.5,31,436.5,31.7z"/>
		<path class="st16" d="M446.6,26.5c-0.2-0.1-0.5-0.2-0.7-0.2c-0.7,0-1,0.4-1,1.3v0.9h1.5v1.1h-1.5v5.4h-1.4v-5.4h-1.1v-1.1h1.1v-1
			c0-0.7,0.2-1.3,0.6-1.7s1-0.6,1.6-0.6c0.3,0,0.6,0,0.8,0.1V26.5z"/>
		<path class="st16" d="M450.9,34.9c-0.3,0.1-0.6,0.2-1.1,0.2c-1.2,0-1.8-0.7-1.8-2v-3.5h-1.1v-1.1h1.1v-1.5l1.4-0.4v1.9h1.6v1.1
			h-1.6v3.3c0,0.4,0.1,0.7,0.2,0.9s0.4,0.3,0.7,0.3c0.2,0,0.5-0.1,0.7-0.2V34.9z"/>
		<path class="st16" d="M410.6,44.3c-0.4,0.5-1,1-1.6,1.5v2.9c0,0.4-0.1,0.7-0.3,0.8s-0.4,0.3-0.8,0.3s-1,0.1-2.1,0.1l-0.3-1
			c0.3,0,0.7,0,1,0c0.7,0,1.1,0,1.2-0.1s0.1-0.1,0.1-0.3v-2.1c-1.6,1.2-4.1,2.3-7.4,3.3l-0.5-0.9c2.3-0.6,4.6-1.5,6.9-2.6
			c-2,0.2-4.2,0.4-6.6,0.6l-0.3-1c0.1,0,0.5,0,1.2,0v-5.3h1.5c0.3-0.3,0.5-0.6,0.8-1.1l1.1,0.2c-0.2,0.3-0.4,0.6-0.6,0.8h4.8v4.1
			c0.3-0.2,0.6-0.6,1-1L410.6,44.3z M408,42.1v-0.8h-5.5v0.8H408z M408,43.7v-0.8h-5.5v0.8H408z M408,45.2v-0.6h-5.5v1.1
			C404.3,45.6,406.1,45.4,408,45.2z"/>
		<path class="st16" d="M416.4,39.8c-0.3,0.8-0.8,1.7-1.5,2.6s-1.4,1.7-2.2,2.2l-0.7-0.8c1.5-1,2.7-2.5,3.5-4.5L416.4,39.8z
			 M420.8,43.8c0,1.1,0,2.2-0.1,3.3s-0.2,1.8-0.3,2s-0.3,0.5-0.5,0.6s-0.5,0.2-0.8,0.2c-0.7,0-1.3,0-1.5,0l-0.4-1.1
			c0.6,0,1.1,0.1,1.8,0.1c0.1,0,0.3,0,0.4-0.1s0.2-0.6,0.3-1.5s0.1-1.7,0.1-2.5h-2.6c-0.3,2.4-1.6,4.1-3.8,5.2l-0.8-0.8
			c0.8-0.3,1.6-0.9,2.3-1.6s1.1-1.7,1.2-2.8H414v-1.1H420.8z M422.6,43.8l-0.7,0.9c-1.5-1.3-2.5-2.6-3-4.1h-1.1v-1h1.8
			C420.1,41.3,421.1,42.7,422.6,43.8z"/>
		<path class="st16" d="M427.6,41.4h-3.4v-1h1.3c-0.1-0.3-0.2-0.6-0.4-0.9l1.1-0.3c0.1,0.2,0.3,0.6,0.5,1.2h0.9V41.4z M427.3,49.7
			h-1v-0.5h-0.9v0.7h-1v-4.1h2.9V49.7z M427.3,45h-2.9V44h2.9V45z M427.3,43.2h-2.9v-0.9h2.9V43.2z M426.3,48.2v-1.4h-0.9v1.4H426.3
			z M434.7,47.8c0,0.4-0.1,0.9-0.3,1.3s-0.3,0.7-0.5,0.8s-0.3,0.1-0.4,0.1c-0.5,0-0.9-0.5-1.1-1.4c-0.5,0.6-1,1-1.4,1.3l-0.7-0.7
			c0.3-0.2,0.5-0.4,0.8-0.7h-3v-4.4h3.2v4.2c0.3-0.3,0.6-0.6,0.8-0.9c-0.1-1.1-0.2-2.4-0.2-3.8h-4.2v-0.9h0.9
			c-0.1-0.5-0.2-0.9-0.4-1.4h-0.3v-0.9h1.3c-0.1-0.2-0.2-0.5-0.4-0.8l1.1-0.3c0.2,0.3,0.3,0.7,0.4,1.1h1.2v0.9h-0.3
			c-0.1,0.5-0.2,0.9-0.4,1.4h1c0-1.7,0-2.8,0-3.3l1,0c0,0.9-0.1,2-0.1,3.3h1.7v0.9h-1.7c0,1,0,1.7,0.1,2.3c0.2-0.5,0.4-1.1,0.6-1.9
			l0.9,0.4c-0.4,1.4-0.8,2.4-1.3,3.2c0.1,0.5,0.2,0.9,0.4,1.1c0.1-0.2,0.3-0.7,0.3-1.5L434.7,47.8z M430.3,45.9v-0.8H429v0.8H430.3z
			 M430.3,47.7v-0.9H429v0.9H430.3z M430.2,41.4h-1c0.1,0.4,0.3,0.9,0.4,1.4h0.3C430,42.3,430.2,41.8,430.2,41.4z M434.6,42.1
			l-0.9,0.4c-0.1-0.7-0.3-1.4-0.6-2.2l0.8-0.4C434.2,40.5,434.4,41.2,434.6,42.1z"/>
		<path class="st16" d="M442,44.9c-0.1,2.4-0.2,3.9-0.5,4.3s-0.7,0.7-1.4,0.7c-0.3,0-0.6,0-1,0l-0.3-1c0.7,0,1.1,0,1.4,0
			c0.3,0,0.5-0.2,0.6-0.6s0.1-1.2,0.2-2.4h-2.3c-0.3,1.8-0.9,3.1-1.8,4l-0.8-0.7c1.2-1.2,1.8-3.1,1.8-5.7h-1v-4h5.2v4h-3.1
			c0,0.5,0,0.9-0.1,1.3H442z M440.9,42.6v-1.9h-3v1.9H440.9z M444,47.8H443v-7.5h1.1V47.8z M446.3,48.5c0,0.6-0.1,0.9-0.3,1.1
			s-0.6,0.3-1,0.3c-0.6,0-1,0-1.3,0l-0.3-1c0.4,0,0.9,0,1.5,0c0.1,0,0.2,0,0.3-0.1s0.1-0.2,0.1-0.3v-9h1.1V48.5z"/>
		<path class="st16" d="M422.5,60.6h-4.7v3.7h-1.1v-3.7h-4.7v-1.1h4.7v-4.3h-4.4v-1.1h9.9v1.1h-4.4v4.3h4.7V60.6z M415.5,58.6
			l-1,0.5c-0.3-0.9-0.9-1.8-1.5-2.8l1-0.5C414.6,56.6,415.1,57.6,415.5,58.6z M421.8,56.3c-0.5,1.1-1.1,2.1-1.7,2.8l-1-0.5
			c0.6-0.7,1.1-1.6,1.7-2.8L421.8,56.3z"/>
		<path class="st16" d="M434.7,58.2l-0.9,0.7c-0.2-0.4-0.5-0.7-0.7-1.1c-3.1,0.4-5.9,0.6-8.6,0.7l-0.3-1c1.1-0.4,2.4-1.6,3.7-3.8
			l1.2,0.2c-0.8,1.3-1.7,2.4-2.8,3.4c1.6-0.1,3.5-0.2,5.9-0.5c-0.5-0.5-1.1-1.1-1.8-1.7l0.9-0.7C432.8,55.8,433.9,57,434.7,58.2z
			 M433.6,64.3h-1.1v-0.5h-6.3v0.5h-1.1v-5h8.5V64.3z M432.5,62.7v-2.3h-6.3v2.3H432.5z"/>
	</g>
	<g>
		<rect x="390.6" y="110.4" class="st13" width="64.5" height="30.5"/>
		<path class="st17" d="M404.2,119.9v-5.9c0-0.5,0-1.1,0.1-1.8h0c-0.1,0.5-0.2,0.8-0.3,1l-2.8,6.7h-0.9l-2.8-6.6
			c-0.1-0.2-0.2-0.5-0.3-1h0c0,0.5,0.1,1.2,0.1,2v5.7H396v-9.1h2l2.5,6c0.2,0.5,0.3,0.9,0.4,1.2h0c0.1-0.2,0.2-0.6,0.4-1.2l2.5-6
			h1.9v9.1H404.2z"/>
		<path class="st17" d="M407.6,111.2c0-0.2,0.1-0.4,0.2-0.6s0.4-0.2,0.6-0.2c0.2,0,0.4,0.1,0.6,0.2s0.2,0.3,0.2,0.6
			s-0.1,0.4-0.2,0.6s-0.4,0.2-0.6,0.2s-0.4-0.1-0.6-0.2S407.6,111.5,407.6,111.2z M407.7,119.9v-6.5h1.4v6.5H407.7z"/>
		<path class="st17" d="M415.7,119.7c-0.5,0.3-1.1,0.4-1.8,0.4c-0.9,0-1.7-0.3-2.3-0.9s-0.9-1.4-0.9-2.3c0-1.1,0.3-1.9,0.9-2.6
			s1.5-1,2.5-1c0.6,0,1.2,0.1,1.6,0.3v1.3c-0.5-0.3-1-0.5-1.5-0.5c-0.6,0-1.1,0.2-1.5,0.6s-0.6,1-0.6,1.7c0,0.7,0.2,1.2,0.6,1.6
			s0.9,0.6,1.5,0.6c0.5,0,1.1-0.2,1.5-0.5V119.7z"/>
		<path class="st17" d="M420.8,114.8c-0.2-0.1-0.5-0.2-0.8-0.2c-0.4,0-0.8,0.2-1.1,0.6s-0.4,0.9-0.4,1.6v3.2h-1.4v-6.5h1.4v1.3h0
			c0.3-0.9,0.9-1.4,1.7-1.4c0.2,0,0.4,0,0.6,0.1V114.8z"/>
		<path class="st17" d="M421.3,116.8c0-1.1,0.3-1.9,0.9-2.5s1.4-0.9,2.5-0.9c1,0,1.8,0.3,2.3,0.9s0.9,1.4,0.9,2.4
			c0,1-0.3,1.9-0.9,2.5s-1.4,0.9-2.4,0.9c-1,0-1.8-0.3-2.4-0.9S421.3,117.8,421.3,116.8z M422.7,116.7c0,0.7,0.2,1.3,0.5,1.7
			s0.8,0.6,1.4,0.6c1.2,0,1.9-0.8,1.9-2.3c0-0.7-0.2-1.3-0.5-1.7s-0.8-0.6-1.4-0.6s-1.1,0.2-1.4,0.6S422.7,116,422.7,116.7z"/>
		<path class="st17" d="M429.1,118.4c0.6,0.4,1.2,0.6,1.9,0.6c0.9,0,1.3-0.3,1.3-0.8c0-0.2-0.1-0.4-0.3-0.5s-0.6-0.3-1.2-0.6
			c-0.7-0.3-1.1-0.5-1.3-0.8s-0.3-0.6-0.3-1.1c0-0.6,0.3-1.1,0.8-1.4s1.1-0.5,1.9-0.5c0.6,0,1.1,0.1,1.6,0.3v1.2
			c-0.5-0.3-1-0.5-1.7-0.5c-0.3,0-0.6,0.1-0.8,0.2s-0.3,0.3-0.3,0.6c0,0.2,0.1,0.4,0.2,0.5s0.5,0.3,1.1,0.5c0.7,0.3,1.2,0.5,1.4,0.8
			s0.4,0.7,0.4,1.1c0,0.6-0.3,1.1-0.8,1.4s-1.2,0.5-2,0.5c-0.7,0-1.3-0.1-1.8-0.4V118.4z"/>
		<path class="st17" d="M434.7,116.8c0-1.1,0.3-1.9,0.9-2.5s1.4-0.9,2.5-0.9c1,0,1.8,0.3,2.3,0.9s0.9,1.4,0.9,2.4
			c0,1-0.3,1.9-0.9,2.5s-1.4,0.9-2.4,0.9c-1,0-1.8-0.3-2.4-0.9S434.7,117.8,434.7,116.8z M436.1,116.7c0,0.7,0.2,1.3,0.5,1.7
			s0.8,0.6,1.4,0.6c1.2,0,1.9-0.8,1.9-2.3c0-0.7-0.2-1.3-0.5-1.7s-0.8-0.6-1.4-0.6s-1.1,0.2-1.4,0.6S436.1,116,436.1,116.7z"/>
		<path class="st17" d="M446.1,111.5c-0.2-0.1-0.5-0.2-0.7-0.2c-0.7,0-1,0.4-1,1.3v0.9h1.5v1.1h-1.5v5.4H443v-5.4h-1.1v-1.1h1.1v-1
			c0-0.7,0.2-1.3,0.6-1.7s1-0.6,1.6-0.6c0.3,0,0.6,0,0.8,0.1V111.5z"/>
		<path class="st17" d="M450.5,119.9c-0.3,0.1-0.6,0.2-1.1,0.2c-1.2,0-1.8-0.7-1.8-2v-3.5h-1.1v-1.1h1.1v-1.5l1.4-0.4v1.9h1.6v1.1
			h-1.6v3.3c0,0.4,0.1,0.7,0.2,0.9s0.4,0.3,0.7,0.3c0.2,0,0.5-0.1,0.7-0.2V119.9z"/>
		<path class="st17" d="M401.7,133.7c-0.9,0.5-2,0.8-3.1,0.8c-1.4,0-2.4-0.4-3.3-1.2s-1.2-1.9-1.2-3.3c0-1.4,0.5-2.6,1.4-3.5
			s2.1-1.4,3.5-1.4c1,0,1.8,0.2,2.5,0.5v1.4c-0.7-0.4-1.6-0.7-2.6-0.7c-1,0-1.7,0.3-2.3,1s-0.9,1.5-0.9,2.5c0,1.1,0.3,1.9,0.8,2.5
			s1.3,0.9,2.3,0.9c0.6,0,1.2-0.1,1.6-0.4v-2.3h-1.9v-1.2h3.3V133.7z"/>
		<path class="st17" d="M407.2,129.2c-0.2-0.1-0.5-0.2-0.8-0.2c-0.4,0-0.8,0.2-1.1,0.6s-0.4,0.9-0.4,1.6v3.2h-1.4v-6.5h1.4v1.3h0
			c0.3-0.9,0.9-1.4,1.7-1.4c0.2,0,0.4,0,0.6,0.1V129.2z"/>
		<path class="st17" d="M408.4,128.3c0.7-0.4,1.4-0.6,2.3-0.6c1.6,0,2.5,0.8,2.5,2.5v4.1h-1.3v-1h0c-0.4,0.8-1.1,1.1-2,1.1
			c-0.6,0-1.1-0.2-1.5-0.5s-0.5-0.8-0.5-1.4c0-1.2,0.7-1.9,2.2-2.1l1.9-0.3c0-1-0.4-1.4-1.3-1.4c-0.8,0-1.5,0.3-2.1,0.8V128.3z
			 M410.4,131.3c-0.5,0.1-0.8,0.2-1,0.4s-0.3,0.4-0.3,0.8c0,0.3,0.1,0.5,0.3,0.7s0.5,0.3,0.8,0.3c0.5,0,0.8-0.2,1.1-0.5
			s0.5-0.7,0.5-1.2v-0.6L410.4,131.3z"/>
		<path class="st17" d="M416.4,133.5v3.9H415v-9.5h1.4v1.1h0c0.5-0.8,1.2-1.2,2.2-1.2c0.8,0,1.5,0.3,1.9,0.9s0.7,1.4,0.7,2.3
			c0,1.1-0.3,1.9-0.8,2.6s-1.3,1-2.2,1C417.5,134.5,416.8,134.2,416.4,133.5L416.4,133.5z M416.4,131.6c0,0.5,0.2,0.9,0.5,1.3
			s0.7,0.5,1.2,0.5c0.6,0,1-0.2,1.3-0.7s0.5-1,0.5-1.8c0-0.7-0.1-1.2-0.4-1.5s-0.7-0.5-1.2-0.5s-1,0.2-1.3,0.6s-0.5,0.9-0.5,1.5
			V131.6z"/>
		<path class="st17" d="M428.5,134.3h-1.4v-3.7c0-1.2-0.4-1.8-1.3-1.8c-0.5,0-0.8,0.2-1.1,0.5s-0.5,0.8-0.5,1.3v3.7h-1.4v-9.6h1.4
			v4.1h0c0.5-0.8,1.2-1.2,2.1-1.2c1.5,0,2.2,0.9,2.2,2.6V134.3z"/>
		<path class="st17" d="M440.8,134.3h-1.5l-0.8-2.4h-3.6l-0.8,2.4h-1.5l3.4-9.1h1.6L440.8,134.3z M438,130.8l-1.3-3.6
			c0-0.1-0.1-0.4-0.1-0.7h0c0,0.3-0.1,0.5-0.1,0.7l-1.3,3.6H438z"/>
		<path class="st17" d="M443.5,131v3.3h-1.4v-9.1h2.7c1,0,1.8,0.2,2.4,0.7s0.8,1.2,0.8,2.1c0,0.9-0.3,1.6-1,2.2s-1.5,0.8-2.4,0.8
			H443.5z M443.5,126.4v3.4h1c1.4,0,2-0.6,2-1.7c0-1.1-0.7-1.7-2-1.7H443.5z"/>
		<path class="st17" d="M451,126.4L451,126.4v6.8v0v1.1h-1.4v-1.1v0v-6.8v0v-1.1h1.4V126.4z"/>
	</g>
	<g>
		<path class="st15" d="M190.9,1.2h-1V11h-0.6V8.5c-1,0.4-2.3,0.7-3.9,1.1L185.2,9l1.1-0.2V1.2h-1.1V0.6h5.7V1.2z M189.3,3.1V1.2
			h-2.4v1.9H189.3z M189.3,5.6V3.7h-2.4v1.9H189.3z M189.3,7.9V6.2h-2.4v2.4C187.6,8.4,188.4,8.2,189.3,7.9z M195.7,10.5l-0.4,0.5
			c-0.8-0.7-1.5-1.4-2.1-2.2c-0.7,0.9-1.5,1.6-2.3,2.2l-0.4-0.5c0.8-0.6,1.6-1.3,2.3-2.3c-1-1.7-1.6-3.7-1.8-6h-0.4V1.6h4.6
			c0,2.6-0.6,4.8-1.7,6.6c0.1,0.3,0.5,0.7,0.9,1.2S195.4,10.2,195.7,10.5z M194.6,2.3h-2.9c0.1,2,0.6,3.8,1.5,5.4
			C194,6.1,194.5,4.3,194.6,2.3z"/>
		<path class="st15" d="M200.2,3.2c-0.2,0.4-0.5,1-0.9,1.7v6h-0.6V5.7c-0.4,0.5-0.8,1-1.2,1.3l-0.4-0.5c1.1-1,2-2.2,2.6-3.6
			L200.2,3.2z M200.1,0.7c-0.7,1.2-1.5,2.1-2.5,2.7l-0.4-0.5c0.9-0.5,1.7-1.3,2.4-2.5L200.1,0.7z M207.6,7.6h-1.5V10
			c0,0.3-0.1,0.6-0.3,0.7s-0.6,0.2-1.3,0.2c-0.2,0-0.5,0-0.7,0l-0.2-0.6c0.2,0,0.5,0,0.8,0c0.5,0,0.9,0,1-0.1s0.1-0.2,0.1-0.3V7.6
			h-5.3V7h5.3V5.9h-5.1V5.3h6.9v0.6h-1.2V7h1.5V7.6z M206.8,4.4H201V0.7h5.8V4.4z M203.2,9.7l-0.6,0.3c-0.2-0.5-0.7-1.2-1.3-1.9
			l0.5-0.3C202.4,8.5,202.8,9.1,203.2,9.7z M206.2,2.3v-1h-4.6v1H206.2z M206.2,3.8v-1h-4.6v1H206.2z"/>
		<path class="st15" d="M212.7,5.6l-0.4,0.5c-0.2-0.4-0.5-0.8-0.9-1.3v6.1h-0.6V4.8c-0.4,1.1-0.9,2-1.4,2.8L209,7.1
			c0.7-1.1,1.3-2.4,1.8-3.8h-1.6V2.8h1.7V0.4h0.6v2.3h1.1v0.6h-1.1V4C212,4.6,212.4,5.1,212.7,5.6z M219.5,10.4h-5.6v0.5h-0.6v-4
			c-0.3,0.3-0.6,0.6-0.9,0.9L212,7.3c0.8-0.6,1.5-1.5,2-2.4l0.6,0.2c-0.1,0.2-0.3,0.5-0.4,0.7h2.1c-0.1-0.1-0.2-0.3-0.3-0.5l0.6-0.3
			c0.2,0.2,0.3,0.5,0.5,0.7h2.2v0.5h-2.5V7h2.2v0.5h-2.2v0.8h2.2V9h-2.2v0.9h2.8V10.4z M215.4,2.4h-0.6V1.8h-2.2V1.3h2.2V0.5h0.6
			V2.4z M215.6,4.7H213v-2h2.6V4.7z M215.1,4.1V3.2h-1.5v0.9H215.1z M216.1,7V6.2h-2.2V7H216.1z M216.1,8.4V7.6h-2.2v0.8H216.1z
			 M216.1,9.9V9h-2.2v0.9H216.1z M219,4.7h-2.6v-2h2.6V4.7z M219.5,1.8h-2.1v0.5h-0.6V0.5h0.6v0.8h2.1V1.8z M218.5,4.1V3.2H217v0.9
			H218.5z"/>
		<path class="st15" d="M225.3,6L225,6.5c-0.5-0.7-1-1.3-1.4-1.7V11H223V5c-0.5,1.2-1.1,2.2-1.7,3l-0.4-0.5c0.8-1,1.5-2.4,2.1-4.1
			h-1.9V2.8h1.9V0.4h0.6v2.4h1.4v0.6h-1.4V4C224.3,4.7,224.9,5.3,225.3,6z M231.5,10.5l-0.4,0.5c-1.3-0.6-2.4-1.2-3.2-2
			c-0.9,0.9-2,1.5-3.3,1.9l-0.4-0.6c1.4-0.4,2.5-1,3.3-1.8c-0.8-1.1-1.3-2.5-1.6-4.2l0.6-0.1c0.3,1.6,0.7,2.9,1.4,3.8
			c0.6-1,0.9-2.6,1-4.8h-3.3V2.6h3.4c0-0.8,0-1.5,0-2.2h0.6c0,1,0,1.7,0,2.2h1.8v0.6h-1.9c0,2.4-0.4,4.2-1.1,5.3
			C229.1,9.3,230.1,10,231.5,10.5z"/>
	</g>
	<g>
		<path class="st15" d="M215.2,30.3H209c-0.4,0.9-1,1.7-1.6,2.5v6h-0.7v-5.2c-0.6,0.6-1.2,1.1-1.7,1.4l-0.2-0.6
			c1.5-1.2,2.7-2.5,3.5-4.2h-3.5v-0.6h3.8c0.2-0.4,0.4-0.8,0.6-1.4l0.6,0.2c-0.2,0.5-0.4,0.9-0.6,1.2h5.9V30.3z M215.2,35.6h-3v2.4
			c0,0.2-0.1,0.4-0.2,0.5s-0.2,0.3-0.4,0.3s-0.5,0.1-1.1,0.1c-0.3,0-0.6,0-0.9,0l-0.3-0.6c0.3,0,0.6,0,1,0c0.6,0,1,0,1.1-0.1
			s0.2-0.1,0.2-0.2v-2.3H208v-0.6h3.6V34c0.6-0.4,1.2-0.9,1.9-1.6h-4.7v-0.6h5.6v0.6c-0.8,0.8-1.5,1.4-2.2,1.8v0.6h3V35.6z"/>
		<path class="st15" d="M222.3,29.1h-1v9.8h-0.6v-2.5c-1,0.4-2.3,0.7-3.9,1.1l-0.2-0.6l1.1-0.2v-7.6h-1.1v-0.6h5.7V29.1z M220.7,31
			v-1.9h-2.4V31H220.7z M220.7,33.5v-1.9h-2.4v1.9H220.7z M220.7,35.8v-1.6h-2.4v2.4C219,36.3,219.8,36.1,220.7,35.8z M227.1,38.4
			l-0.4,0.5c-0.8-0.7-1.5-1.4-2.1-2.2c-0.7,0.9-1.5,1.6-2.3,2.2l-0.4-0.5c0.8-0.6,1.6-1.3,2.3-2.3c-1-1.7-1.6-3.7-1.8-6H222v-0.6
			h4.6c0,2.6-0.6,4.8-1.7,6.6c0.1,0.3,0.5,0.7,0.9,1.2S226.8,38.1,227.1,38.4z M226,30.1h-2.9c0.1,2,0.6,3.8,1.5,5.4
			C225.4,34,225.9,32.2,226,30.1z"/>
		<path class="st15" d="M232.3,33.5l-0.4,0.5c-0.2-0.4-0.5-0.8-0.9-1.3v6.1h-0.6v-6.1c-0.4,1.1-0.9,2-1.4,2.8l-0.4-0.5
			c0.7-1.1,1.3-2.4,1.8-3.8h-1.6v-0.6h1.7v-2.3h0.6v2.3h1.1v0.6h-1.1v0.7C231.5,32.5,232,33,232.3,33.5z M239,38.3h-5.6v0.5h-0.6v-4
			c-0.3,0.3-0.6,0.6-0.9,0.9l-0.4-0.5c0.8-0.6,1.5-1.5,2-2.4l0.6,0.2c-0.1,0.2-0.3,0.5-0.4,0.7h2.1c-0.1-0.1-0.2-0.3-0.3-0.5
			l0.6-0.3c0.2,0.2,0.3,0.5,0.5,0.7h2.2v0.5h-2.5v0.8h2.2v0.5h-2.2v0.8h2.2v0.5h-2.2v0.9h2.8V38.3z M234.9,30.3h-0.6v-0.5h-2.2v-0.6
			h2.2v-0.8h0.6V30.3z M235.2,32.6h-2.6v-2h2.6V32.6z M234.6,32v-0.9h-1.5V32H234.6z M235.7,34.9v-0.8h-2.2v0.8H235.7z M235.7,36.3
			v-0.8h-2.2v0.8H235.7z M235.7,37.7v-0.9h-2.2v0.9H235.7z M238.6,32.6H236v-2h2.6V32.6z M239,29.7h-2.1v0.5h-0.6v-1.9h0.6v0.8h2.1
			V29.7z M238,32v-0.9h-1.5V32H238z"/>
		<path class="st15" d="M244.9,33.9l-0.4,0.5c-0.5-0.7-1-1.3-1.4-1.7v6.1h-0.6v-6c-0.5,1.2-1.1,2.2-1.7,3l-0.4-0.5
			c0.8-1,1.5-2.4,2.1-4.1h-1.9v-0.6h1.9v-2.4h0.6v2.4h1.4v0.6h-1.4v0.6C243.8,32.6,244.4,33.2,244.9,33.9z M251,38.4l-0.4,0.5
			c-1.3-0.6-2.4-1.2-3.2-2c-0.9,0.9-2,1.5-3.3,1.9l-0.4-0.6c1.4-0.4,2.5-1,3.3-1.8c-0.8-1.1-1.3-2.5-1.6-4.2l0.6-0.1
			c0.3,1.6,0.7,2.9,1.4,3.8c0.6-1,0.9-2.6,1-4.8h-3.3v-0.6h3.4c0-0.8,0-1.5,0-2.2h0.6c0,1,0,1.7,0,2.2h1.8v0.6h-1.9
			c0,2.4-0.4,4.2-1.1,5.3C248.6,37.2,249.7,37.8,251,38.4z"/>
	</g>
	<g>
		<path class="st15" d="M192.4,135.2h-1V131h-4.8v4.2h-1v-9.1h1v4h4.8v-4h1V135.2z"/>
		<path class="st15" d="M200,127h-2.6v8.2h-1V127h-2.6v-0.9h6.2V127z"/>
		<path class="st15" d="M207,127h-2.6v8.2h-1V127h-2.6v-0.9h6.2V127z"/>
		<path class="st15" d="M209.4,131.7v3.4h-1v-9.1h2.4c0.9,0,1.7,0.2,2.2,0.7s0.8,1.1,0.8,2c0,0.9-0.3,1.6-0.9,2.2s-1.4,0.8-2.3,0.8
			H209.4z M209.4,127v3.8h1.1c0.7,0,1.3-0.2,1.7-0.5s0.6-0.8,0.6-1.4c0-1.2-0.7-1.8-2.2-1.8H209.4z"/>
		<path class="st15" d="M228.1,135.8h-0.7v-1h-8.1v1h-0.7v-10.2h9.4V135.8z M227.4,134.1v-7.9h-8.1v7.9H227.4z M225.6,132.3h-4.6
			v-4.3h4.6V132.3z M225,131.6v-3h-3.3v3H225z"/>
		<path class="st15" d="M240.4,126.7h-8.9v3.5c0,2.2-0.3,4-0.9,5.7l-0.5-0.4c0.6-1.5,0.9-3.3,0.9-5.2v-4h4.5
			c-0.2-0.3-0.3-0.5-0.5-0.8l0.6-0.1c0.2,0.3,0.4,0.6,0.5,0.9h4.3V126.7z M233.6,133.2c-0.4,0.9-0.8,1.6-1.4,2.3l-0.5-0.4
			c0.5-0.6,1-1.3,1.3-2.2L233.6,133.2z M234.3,127.2c-0.1,0.5-0.4,1-0.7,1.6v3.8h-0.6v-2.9c-0.2,0.2-0.4,0.5-0.7,0.9l-0.4-0.5
			c1-1,1.6-2,1.9-3.1L234.3,127.2z M240.3,132.4H235v-3c-0.2,0.3-0.5,0.6-0.8,1l-0.4-0.5c0.9-1.1,1.6-2,2-2.9l0.5,0.2
			c-0.1,0.3-0.3,0.6-0.4,0.9h1.8c-0.1-0.2-0.2-0.4-0.5-0.8l0.6-0.2c0.2,0.2,0.4,0.6,0.5,1h1.9v0.6H238v0.7h2v0.6h-2v0.8h2v0.6h-2
			v0.7h2.2V132.4z M238.7,134.3c0,0.4-0.1,0.7-0.2,0.9s-0.3,0.3-0.5,0.4c-0.2,0.1-0.8,0.1-1.8,0.1c-0.7,0-1.1,0-1.3-0.1
			s-0.3-0.1-0.4-0.3s-0.2-0.4-0.2-0.7v-1.7h0.6v1.8c0,0.2,0.1,0.3,0.2,0.3s0.5,0.1,1.2,0.1c0.8,0,1.2,0,1.3-0.1s0.2-0.1,0.3-0.3
			c0.1-0.1,0.1-0.4,0.1-0.8L238.7,134.3z M237.5,129.3v-0.7h-1.9v0.7H237.5z M237.5,130.6v-0.8h-1.9v0.8H237.5z M237.5,131.9v-0.7
			h-1.9v0.7H237.5z M237.3,134l-0.5,0.3c-0.4-0.5-0.7-0.9-1-1.2l0.5-0.4C236.7,133.1,237,133.5,237.3,134z M240.6,135.1l-0.5,0.3
			c-0.4-0.8-0.9-1.5-1.5-2.1l0.5-0.3C239.7,133.6,240.2,134.3,240.6,135.1z"/>
	</g>
	<g>
	</g>
	<g>
	</g>
	<g>
	</g>
	<g>
	</g>
	<g>
	</g>
	<g>
	</g>
	<g>
	</g>
	<g>
	</g>
	<g>
	</g>
	<g>
	</g>
	<g>
	</g>
	<g>
	</g>
</g>
</svg>
