<?xml version="1.0" encoding="utf-8"?>
<!-- Generator: Adobe Illustrator 23.0.1, SVG Export Plug-In . SVG Version: 6.00 Build 0)  -->
<svg version="1.1" xmlns="http://www.w3.org/2000/svg" xmlns:xlink="http://www.w3.org/1999/xlink" x="0px" y="0px"
	 viewBox="0 0 475 150.6" style="enable-background:new 0 0 475 150.6;" xml:space="preserve">
<style type="text/css">
	.st0{fill:#505050;}
	.st1{fill:#FFFFFF;}
	.st2{display:none;}
	.st3{display:inline;}
	.st4{fill:#EBEBEB;}
	.st5{fill:#A4C639;}
	.st6{fill:#0072C6;}
	.st7{fill:#D2D2D2;}
	.st8{fill:none;stroke:#000000;stroke-miterlimit:10;}
	.st9{fill:#EBEBEB;stroke:#000000;stroke-width:0.75;stroke-miterlimit:10;}
	.st10{fill:#1E1E1E;}
	.st11{fill:none;}
	.st12{stroke:#000000;stroke-width:5.000000e-02;stroke-miterlimit:10;}
	.st13{fill:#1E1E1E;stroke:#1E1E1E;stroke-width:6.000000e-02;stroke-miterlimit:10;}
	.st14{fill:#FFFFFF;stroke:#FFFFFF;stroke-width:5.000000e-02;stroke-miterlimit:10;}
	.st15{fill:#0072C6;stroke:#0072C6;stroke-width:5.000000e-02;stroke-miterlimit:10;}
</style>
<symbol  id="New_Symbol_41" viewBox="-10 -10 20 20">
	<circle class="st0" cx="0" cy="0" r="10"/>
	<path class="st1" d="M1.2-4.2v8.6h-1.4v-6.9C-0.4-2.3-0.7-2.1-1-2c-0.3,0.1-0.7,0.2-1,0.3v-1.2l0.6-0.2l0.6-0.3l0.6-0.3
		C0.1-3.9,0.4-4,0.6-4.2H1.2z"/>
</symbol>
<symbol  id="New_Symbol_42" viewBox="-10 -10 20 20">
	<circle class="st0" cx="0" cy="0" r="10"/>
	<path class="st1" d="M2.5,4.4h-5.3V3.8c0-0.3,0-0.5,0.1-0.8c0.1-0.2,0.2-0.4,0.3-0.7c0.1-0.2,0.3-0.4,0.4-0.6
		c0.2-0.2,0.4-0.4,0.5-0.5l0.6-0.5c0.2-0.1,0.4-0.3,0.6-0.5S0.1,0,0.3-0.2c0.1-0.1,0.3-0.3,0.4-0.4C0.8-0.8,0.9-1,0.9-1.1
		C1-1.3,1-1.5,1-1.7c0-0.2,0-0.4-0.1-0.6C0.8-2.4,0.7-2.6,0.6-2.7C0.5-2.8,0.3-2.9,0.2-2.9C0-3-0.2-3-0.4-3c-0.4,0-0.7,0.1-1.1,0.2
		c-0.4,0.2-0.7,0.4-1,0.7v-1.3c0.2-0.1,0.3-0.2,0.5-0.3c0.2-0.1,0.4-0.2,0.6-0.2C-1.2-4-1-4-0.8-4.1c0.2,0,0.4,0,0.7,0
		c0.3,0,0.7,0,1,0.1c0.3,0.1,0.6,0.2,0.8,0.4C1.9-3.3,2.1-3,2.2-2.8c0.1,0.3,0.2,0.7,0.2,1c0,0.3,0,0.6-0.1,0.9
		C2.2-0.6,2-0.3,1.9-0.1C1.7,0.2,1.5,0.4,1.3,0.6C1.1,0.8,0.9,1,0.6,1.2l-0.7,0.5c-0.2,0.2-0.4,0.4-0.6,0.5C-0.8,2.4-1,2.6-1.1,2.8
		c-0.1,0.1-0.2,0.3-0.2,0.5l0,0h3.8V4.4z"/>
</symbol>
<symbol  id="New_Symbol_43" viewBox="-10 -10 20 20">
	<circle class="st0" cx="0" cy="0" r="10"/>
	<path class="st1" d="M-2.6,4.1V2.8c0.5,0.4,1.2,0.7,1.8,0.6c0.5,0,0.9-0.1,1.3-0.4c0.3-0.2,0.5-0.6,0.5-1c0-0.9-0.7-1.4-2.2-1.4
		h-0.7v-1.1h0.6c1.3,0,1.9-0.4,1.9-1.4S0.3-3-0.7-3c-0.6,0-1.1,0.2-1.6,0.6v-1.2C-1.7-4-1-4.1-0.3-4.1c0.6,0,1.3,0.2,1.8,0.6
		c0.4,0.3,0.7,0.9,0.7,1.4c0.1,1-0.7,1.9-1.7,2.1l0,0c0.5,0,1,0.3,1.4,0.6C2.3,1,2.5,1.5,2.5,2.1c0,0.7-0.3,1.4-0.9,1.8
		C1,4.4,0.2,4.6-0.6,4.6C-1.3,4.6-2,4.5-2.6,4.1z"/>
</symbol>
<symbol  id="New_Symbol_44" viewBox="-10 -10 20 20">
	<circle class="st0" cx="0" cy="0" r="10"/>
	<path class="st1" d="M2-4v5.4h1.3v1.1H2v1.9H0.6V2.6h-3.8V1.4c0.3-0.4,0.7-0.8,1-1.3c0.4-0.4,0.7-0.9,1-1.4s0.6-0.9,0.9-1.4
		S0.4-3.5,0.6-4L2-4z M0.7,1.4v-3.5c-0.4,0.7-0.8,1.4-1.3,2C-1,0.5-1.4,1-1.8,1.4L0.7,1.4z"/>
</symbol>
<g id="src" class="st2">
	<g id="Shapes" class="st3">
		<rect class="st1" width="475" height="150.6"/>
		<rect class="st4" width="105" height="150"/>
		<g>
			<rect x="17.8" y="20.6" class="st5" width="70" height="70"/>
			<path class="st1" d="M50,72.6v6.8c0,1.9-0.9,3.3-2.8,3.3l0,0c-1.9,0-2.8-1.4-2.8-3.3v-6.8h-3.5c-1.4,0-2.1-1.6-2.1-3V46.5h28
				v23.1c0,1.4-0.5,3-2.1,3h-3.5v6.8c0,1.9-0.9,3.3-2.8,3.3l0,0c-1.9,0-2.8-1.4-2.8-3.3v-6.7H50z"/>
			<path class="st1" d="M33.2,45.8L33.2,45.8c1.9,0,3.7,1.4,3.7,3.3v13.1c0,1.9-1.9,3.3-3.7,3.3l0,0c-1.9,0-3.7-1.4-3.7-3.3V49
				C29.5,47.1,31.3,45.7,33.2,45.8L33.2,45.8z"/>
			<path class="st1" d="M72.4,45.8L72.4,45.8c1.9,0,3.7,1.4,3.7,3.3v13.1c0,1.9-1.9,3.3-3.7,3.3l0,0c-1.9,0-3.7-1.4-3.7-3.3V49
				C68.7,47.1,70.5,45.7,72.4,45.8L72.4,45.8z"/>
			<path class="st1" d="M59.6,34.1l2.6-3.5c0.2-0.2,0-0.5-0.2-0.7s-0.5,0-0.7,0.2l-2.6,3.7c-1.9-0.7-3.8-1.1-5.8-1.2
				c-2,0-4,0.4-5.8,1.2l-2.8-4c-0.2-0.2-0.4-0.3-0.7-0.2c0,0.2-0.2,0.5,0,0.7l2.5,3.8c-4.2,1.9-7.2,5.8-7.2,9.6h28
				C66.8,39.9,63.8,36,59.6,34.1z M46.7,40.4c-0.9,0-1.6-0.7-1.6-1.6c0-0.9,0.7-1.6,1.6-1.6c0.9,0,1.6,0.7,1.6,1.6c0,0,0,0,0,0
				C48.4,39.7,47.7,40.4,46.7,40.4C46.8,40.4,46.8,40.4,46.7,40.4z M58.9,40.4c-0.9,0-1.6-0.7-1.6-1.6c0-0.9,0.7-1.6,1.6-1.6
				c0.9,0,1.6,0.7,1.6,1.6c0,0,0,0,0,0C60.5,39.7,59.8,40.4,58.9,40.4C58.9,40.4,58.9,40.4,58.9,40.4z"/>
		</g>
		<rect x="371" class="st6" width="104" height="90"/>
		<rect x="371" y="95" class="st7" width="104" height="55"/>
		<g>
			<line class="st8" x1="105.2" y1="14.6" x2="365.8" y2="14.6"/>
			<polygon points="364.7,18.3 371.2,14.6 364.7,10.9 			"/>
		</g>
		<g>
			<line class="st8" x1="110.6" y1="44.5" x2="371.2" y2="44.5"/>
			<polygon points="111.7,48.2 105.2,44.5 111.7,40.7 			"/>
		</g>
		<g>
			<line class="st8" x1="105.2" y1="103.9" x2="365.8" y2="103.9"/>
			<polygon points="364.7,107.6 371.2,103.9 364.7,100.2 			"/>
		</g>
		<g>
			<line class="st8" x1="110.7" y1="140.1" x2="371.2" y2="140.1"/>
			<polygon points="111.7,143.8 105.3,140.1 111.7,136.3 			"/>
		</g>
		
			<use xlink:href="#New_Symbol_44"  width="20" height="20" x="-10" y="-10" transform="matrix(1 0 0 1 170.1 139.6)" style="overflow:visible;"/>
		
			<use xlink:href="#New_Symbol_43"  width="20" height="20" x="-10" y="-10" transform="matrix(1 0 0 1 170.1 103.9)" style="overflow:visible;"/>
		
			<use xlink:href="#New_Symbol_42"  width="20" height="20" x="-10" y="-10" transform="matrix(1 0 0 1 170.1 44.48)" style="overflow:visible;"/>
		
			<use xlink:href="#New_Symbol_41"  width="20" height="20" x="-10" y="-10" transform="matrix(1 0 0 1 170.1 14.6)" style="overflow:visible;"/>
		<polygon class="st9" points="193,25.6 185.4,31 188.3,39.8 197.6,39.8 200.5,31 		"/>
	</g>
	<g id="Text" class="st3">
		<g>
			<path class="st10" d="M42.6,111.7h-1.9l-3.5-5.3c-0.2-0.2-0.3-0.5-0.4-0.7l0,0c0,0.3,0,0.8,0,1.4v4.6H35v-8.4h2l3.3,5.1
				c0.2,0.2,0.3,0.4,0.4,0.7l0,0c0-0.4,0-0.8,0-1.2v-4.7h1.8L42.6,111.7z"/>
			<path class="st10" d="M49.3,111.7h-1.8v-0.9l0,0c-0.4,0.6-1.1,1-1.8,1c-0.5,0-1-0.1-1.4-0.5c-0.3-0.4-0.5-0.8-0.5-1.3
				c0-1.2,0.7-1.8,2.1-2l1.6-0.2c0-0.7-0.4-1-1.1-1c-0.7,0-1.4,0.2-2,0.6v-1.4c0.3-0.2,0.7-0.3,1.1-0.3c0.4-0.1,0.8-0.1,1.2-0.2
				c1.2-0.2,2.4,0.7,2.6,1.9c0,0.2,0,0.4,0,0.6L49.3,111.7z M47.6,109.3v-0.4l-1.1,0.1c-0.6,0.1-0.9,0.3-0.9,0.8
				c0,0.2,0.1,0.4,0.2,0.5c0.2,0.1,0.4,0.2,0.6,0.2c0.3,0,0.6-0.1,0.8-0.4C47.5,109.9,47.6,109.6,47.6,109.3z"/>
			<path class="st10" d="M54.3,111.7c-0.4,0.2-0.8,0.2-1.2,0.2c-1.3,0-2-0.7-2-2v-2.8h-1v-1.4h1v-1.3l1.9-0.6v1.8h1.3v1.4H53v2.4
				c0,0.6,0.3,0.9,0.8,0.9c0.2,0,0.4-0.1,0.6-0.2L54.3,111.7z"/>
			<path class="st10" d="M56.4,104.8c-0.3,0-0.6-0.1-0.8-0.3c-0.2-0.2-0.3-0.4-0.3-0.7c0-0.3,0.1-0.5,0.3-0.7
				c0.2-0.2,0.5-0.3,0.8-0.3c0.3,0,0.6,0.1,0.8,0.3c0.2,0.2,0.3,0.4,0.3,0.7c0,0.3-0.1,0.5-0.3,0.7
				C56.9,104.7,56.7,104.8,56.4,104.8z M57.3,111.8h-1.9v-6h1.8L57.3,111.8z"/>
			<path class="st10" d="M64.6,105.7l-2.2,6h-2.1l-2.1-6h2l1,3.7c0.1,0.3,0.2,0.7,0.2,1.1l0,0c0-0.3,0.1-0.7,0.2-1l1.1-3.7
				L64.6,105.7z"/>
			<path class="st10" d="M70.6,109.3h-3.9c0.1,0.9,0.6,1.3,1.7,1.3c0.6,0,1.2-0.2,1.7-0.5v1.3c-0.7,0.3-1.4,0.5-2.2,0.4
				c-1.5,0.2-2.9-0.9-3.1-2.5c0-0.2,0-0.4,0-0.6c0-0.9,0.3-1.7,0.9-2.4c0.6-0.6,1.3-0.9,2.1-0.9c0.7,0,1.5,0.2,2,0.8
				c0.5,0.6,0.8,1.3,0.7,2.1L70.6,109.3z M68.9,108.1c0-0.9-0.3-1.3-1-1.3c-0.3,0-0.6,0.1-0.8,0.4c-0.2,0.3-0.4,0.6-0.4,0.9H68.9z"
				/>
			<path class="st10" d="M49.2,126.1h-2.1l-0.6-1.9h-3l-0.6,1.9h-2l3.1-8.4h2.2L49.2,126.1z M46.1,122.8l-0.9-2.8
				c-0.1-0.2-0.1-0.5-0.1-0.8l0,0c0,0.3-0.1,0.5-0.1,0.7l-0.9,2.8L46.1,122.8z"/>
			<path class="st10" d="M51.9,125.4L51.9,125.4v3.5H50v-8.8h1.9v0.9l0,0c0.7-1.1,2.2-1.4,3.3-0.6c0.2,0.1,0.3,0.2,0.5,0.4
				c0.5,0.6,0.7,1.4,0.6,2.2c0,0.9-0.2,1.7-0.8,2.4c-0.5,0.6-1.2,0.9-2,0.9C52.9,126.3,52.3,126,51.9,125.4z M51.9,123v0.5
				c0,0.4,0.1,0.7,0.3,1c0.2,0.3,0.5,0.4,0.9,0.4c0.4,0,0.8-0.2,1-0.5c0.3-0.4,0.4-0.9,0.3-1.4c0-1-0.4-1.6-1.2-1.6
				c-0.4,0-0.7,0.1-0.9,0.4C52,122.2,51.9,122.6,51.9,123z"/>
			<path class="st10" d="M59.4,125.4L59.4,125.4v3.5h-1.9v-8.8h1.8v0.9l0,0c0.7-1.1,2.2-1.4,3.3-0.6c0.2,0.1,0.3,0.2,0.5,0.4
				c0.5,0.6,0.7,1.4,0.6,2.2c0,0.9-0.2,1.7-0.7,2.4c-0.5,0.6-1.2,0.9-2,0.9C60.3,126.3,59.7,126,59.4,125.4z M59.3,123v0.5
				c0,0.4,0.1,0.7,0.3,1c0.2,0.3,0.5,0.4,0.9,0.4c0.4,0,0.8-0.2,1-0.5c0.3-0.4,0.4-0.9,0.3-1.4c0-1-0.4-1.6-1.2-1.6
				c-0.4,0-0.7,0.1-0.9,0.4C59.4,122.2,59.3,122.6,59.3,123z"/>
		</g>
		<g>
			<path class="st1" d="M406.2,33.9h-1.9v-5c0-0.5,0-1.1,0.1-1.8h0c-0.1,0.4-0.2,0.8-0.3,1.1l-2,5.7h-1.5l-2-5.7
				c-0.1-0.4-0.2-0.8-0.3-1.2l0,0c0,0.8,0.1,1.6,0.1,2.2v4.6h-1.7v-8.4h2.8l1.7,5c0.1,0.4,0.2,0.8,0.3,1.2l0,0
				c0.1-0.4,0.2-0.8,0.3-1.2l1.7-5h2.7L406.2,33.9z"/>
			<path class="st1" d="M408.8,26.9c-0.3,0-0.6-0.1-0.8-0.3c-0.2-0.2-0.3-0.4-0.3-0.7c0-0.3,0.1-0.5,0.3-0.7
				c0.2-0.2,0.5-0.3,0.8-0.3c0.3,0,0.6,0.1,0.8,0.3c0.2,0.2,0.3,0.4,0.3,0.7c0,0.3-0.1,0.5-0.3,0.7
				C409.3,26.8,409.1,26.9,408.8,26.9z M409.7,33.9h-1.9v-6h1.9V33.9z"/>
			<path class="st1" d="M415.8,33.6c-0.6,0.3-1.2,0.4-1.8,0.4c-0.8,0-1.6-0.3-2.2-0.8c-0.6-0.6-0.9-1.4-0.9-2.2
				c0-0.9,0.3-1.8,0.9-2.4c0.7-0.6,1.5-0.9,2.5-0.9c0.5,0,1.1,0.1,1.5,0.3v1.6c-0.4-0.3-0.8-0.4-1.3-0.4c-0.5,0-0.9,0.1-1.3,0.5
				c-0.3,0.3-0.5,0.8-0.5,1.3c0,0.5,0.1,0.9,0.5,1.2c0.3,0.3,0.8,0.5,1.2,0.5c0.5,0,1-0.2,1.4-0.4L415.8,33.6z"/>
			<path class="st1" d="M421,29.5c-0.2-0.1-0.5-0.2-0.8-0.2c-0.4,0-0.7,0.1-0.9,0.4c-0.2,0.3-0.4,0.8-0.3,1.2v2.9h-1.9v-6h1.9V29
				l0,0c0.2-0.7,0.8-1.2,1.6-1.2c0.2,0,0.3,0,0.5,0.1L421,29.5z"/>
			<path class="st1" d="M424.8,34c-0.9,0-1.7-0.3-2.4-0.8c-0.6-0.6-0.9-1.4-0.9-2.3c-0.1-0.9,0.3-1.7,0.9-2.3
				c0.7-0.6,1.5-0.9,2.4-0.8c0.9,0,1.7,0.3,2.3,0.8c0.6,0.6,0.9,1.4,0.9,2.2c0,0.9-0.3,1.7-0.9,2.4C426.6,33.7,425.7,34.1,424.8,34z
				 M424.8,29.1c-0.4,0-0.8,0.2-1,0.5c-0.3,0.4-0.4,0.8-0.4,1.3c0,1.1,0.5,1.7,1.4,1.7s1.3-0.6,1.3-1.8S425.8,29.1,424.8,29.1
				L424.8,29.1z"/>
			<path class="st1" d="M428.9,33.7v-1.5c0.3,0.2,0.6,0.3,0.9,0.4c0.3,0.1,0.6,0.1,0.9,0.1c0.3,0,0.5,0,0.8-0.1
				c0.2-0.1,0.3-0.2,0.3-0.4c0-0.1,0-0.2-0.1-0.3c-0.1-0.1-0.2-0.2-0.3-0.2c-0.1-0.1-0.3-0.1-0.5-0.2c-0.2,0-0.3-0.1-0.5-0.1
				c-0.2-0.1-0.4-0.2-0.6-0.3c-0.2-0.1-0.3-0.2-0.5-0.4c-0.1-0.1-0.2-0.3-0.3-0.5c-0.1-0.2-0.1-0.4-0.1-0.6c0-0.3,0.1-0.6,0.2-0.9
				c0.1-0.2,0.4-0.4,0.6-0.6c0.3-0.2,0.5-0.3,0.8-0.3c0.3-0.1,0.7-0.1,1-0.1c0.3,0,0.5,0,0.8,0.1c0.3,0,0.5,0.1,0.8,0.2v1.4
				c-0.2-0.1-0.5-0.2-0.8-0.3c-0.3-0.1-0.5-0.1-0.8-0.1c-0.1,0-0.2,0-0.4,0c-0.1,0-0.2,0.1-0.3,0.1c-0.1,0-0.1,0.1-0.2,0.2
				c0,0.1-0.1,0.1-0.1,0.2c0,0.1,0,0.2,0.1,0.3c0.1,0.1,0.2,0.1,0.3,0.2c0.1,0.1,0.2,0.1,0.4,0.1l0.4,0.1c0.2,0.1,0.5,0.2,0.7,0.3
				c0.2,0.1,0.4,0.2,0.5,0.4c0.1,0.1,0.3,0.3,0.3,0.5c0.2,0.5,0.1,1.1-0.1,1.6c-0.2,0.2-0.4,0.5-0.6,0.6c-0.3,0.2-0.6,0.3-0.9,0.3
				c-0.3,0.1-0.7,0.1-1,0.1C430.2,34,429.5,33.9,428.9,33.7z"/>
			<path class="st1" d="M437.5,34c-0.9,0-1.7-0.3-2.4-0.8c-0.6-0.6-0.9-1.4-0.9-2.3c0-0.9,0.3-1.7,0.9-2.3c0.7-0.6,1.5-0.9,2.4-0.8
				c0.9-0.1,1.7,0.3,2.3,0.8c0.6,0.6,0.9,1.4,0.9,2.2c0,0.9-0.3,1.7-0.9,2.4C439.3,33.7,438.4,34,437.5,34z M437.5,29.1
				c-0.4,0-0.8,0.2-1,0.5c-0.3,0.4-0.4,0.8-0.4,1.3c0,1.1,0.5,1.7,1.4,1.7s1.3-0.6,1.3-1.8S438.5,29.1,437.5,29.1L437.5,29.1z"/>
			<path class="st1" d="M445.9,26.4c-0.2-0.1-0.4-0.1-0.7-0.1c-0.6,0-0.9,0.3-0.9,1v0.6h1.4v1.4h-1.4v4.6h-1.8v-4.7h-1v-1.4h1v-0.8
				c0-0.6,0.2-1.2,0.7-1.6c0.5-0.4,1.1-0.7,1.8-0.6c0.3,0,0.6,0,0.9,0.1L445.9,26.4z"/>
			<path class="st1" d="M450.4,33.8c-0.4,0.2-0.8,0.2-1.2,0.2c-1.3,0-2-0.7-2-2v-2.8h-1v-1.4h1v-1.3l1.8-0.5v1.8h1.4v1.4h-1.4v2.4
				c0,0.6,0.3,0.9,0.8,0.9c0.2,0,0.4-0.1,0.6-0.2V33.8z"/>
			<path class="st1" d="M402.8,41.3c-0.3,0-0.6-0.1-0.8-0.3c-0.2-0.2-0.3-0.4-0.3-0.7c0-0.3,0.1-0.5,0.3-0.7
				c0.2-0.2,0.5-0.3,0.8-0.3c0.3,0,0.6,0.1,0.8,0.3c0.2,0.2,0.3,0.4,0.3,0.7c0,0.3-0.1,0.5-0.3,0.7
				C403.4,41.2,403.1,41.3,402.8,41.3z M403.7,48.3h-1.9v-6h1.9V48.3z"/>
			<path class="st1" d="M411.2,48.3h-1.9v-0.8l0,0c-0.4,0.6-1.1,1-1.9,1c-0.7,0-1.4-0.3-1.8-0.8c-0.5-0.6-0.7-1.4-0.7-2.2
				c-0.1-0.9,0.2-1.7,0.7-2.4c0.5-0.6,1.2-0.9,2-0.9c0.7-0.1,1.3,0.3,1.6,0.8l0,0v-3.5h1.9V48.3z M409.4,45.3v-0.5
				c0-0.4-0.1-0.7-0.3-1c-0.4-0.5-1.2-0.5-1.7-0.1c-0.1,0.1-0.1,0.1-0.2,0.2c-0.2,0.4-0.4,0.9-0.3,1.3c0,0.4,0.1,0.9,0.3,1.2
				c0.2,0.3,0.6,0.4,0.9,0.4c0.4,0,0.7-0.2,0.9-0.5C409.2,46.2,409.4,45.8,409.4,45.3L409.4,45.3z"/>
			<path class="st1" d="M418.1,45.8h-3.9c0.1,0.9,0.6,1.3,1.6,1.3c0.6,0,1.2-0.1,1.7-0.5V48c-0.7,0.3-1.4,0.5-2.2,0.4
				c-1.5,0.2-2.9-1-3-2.5c0-0.2,0-0.3,0-0.5c0-0.9,0.3-1.7,0.9-2.4c0.6-0.6,1.3-0.9,2.1-0.9c0.7,0,1.5,0.2,2,0.8
				c0.5,0.6,0.8,1.3,0.7,2.1L418.1,45.8z M416.4,44.7c0-0.9-0.3-1.3-1-1.3c-0.3,0-0.6,0.1-0.8,0.4c-0.2,0.3-0.4,0.6-0.4,0.9
				L416.4,44.7z"/>
			<path class="st1" d="M425.1,48.3h-1.9v-3.3c0-0.9-0.3-1.4-1-1.4c-0.3,0-0.6,0.1-0.8,0.4c-0.2,0.3-0.3,0.6-0.3,0.9v3.4h-1.8v-6
				h1.9v1l0,0c0.4-0.7,1.1-1.1,1.9-1.1c1.3,0,2,0.8,2,2.5L425.1,48.3z"/>
			<path class="st1" d="M430.1,48.2c-0.4,0.2-0.8,0.2-1.2,0.2c-1.3,0-2-0.7-2-2v-2.8h-1v-1.4h1V41l1.8-0.5v1.8h1.4v1.4h-1.4v2.4
				c0,0.6,0.3,0.9,0.8,0.9c0.2,0,0.4-0.1,0.6-0.2V48.2z"/>
			<path class="st1" d="M432.2,41.3c-0.3,0-0.6-0.1-0.8-0.3c-0.2-0.2-0.3-0.4-0.3-0.7c0-0.3,0.1-0.5,0.3-0.7c0.4-0.4,1.1-0.4,1.5,0
				c0.2,0.2,0.3,0.4,0.3,0.7c0,0.3-0.1,0.5-0.3,0.7C432.7,41.2,432.5,41.3,432.2,41.3z M433.1,48.3h-1.9v-6h1.9V48.3z"/>
			<path class="st1" d="M438.2,48.2c-0.4,0.2-0.8,0.2-1.2,0.2c-1.3,0-2-0.7-2-2v-2.8h-1v-1.4h1V41l1.8-0.5v1.8h1.4v1.4h-1.4v2.4
				c0,0.6,0.3,0.9,0.8,0.9c0.2,0,0.4-0.1,0.6-0.2V48.2z"/>
			<path class="st1" d="M445.2,42.3l-2.4,6.5c-0.6,1.6-1.5,2.3-2.6,2.3c-0.4,0-0.8,0-1.1-0.2v-1.5c0.2,0.1,0.5,0.2,0.8,0.2
				c0.4,0,0.9-0.2,1-0.7l0.3-0.7l-2.4-6h2l1.1,3.7c0.1,0.3,0.1,0.5,0.2,0.8l0,0c0-0.3,0.1-0.5,0.2-0.8l1.1-3.7L445.2,42.3z"/>
			<path class="st1" d="M400.9,62L400.9,62v3.5H399v-8.8h1.9v0.9l0,0c0.7-1.1,2.2-1.4,3.3-0.7c0.2,0.1,0.3,0.2,0.5,0.4
				c0.5,0.6,0.7,1.4,0.6,2.2c0,0.9-0.2,1.7-0.7,2.4c-0.5,0.6-1.2,0.9-2,0.9C401.8,62.8,401.3,62.5,400.9,62z M400.8,59.5V60
				c0,0.4,0.1,0.7,0.3,1c0.2,0.3,0.5,0.4,0.9,0.4c0.4,0,0.8-0.2,1-0.5c0.3-0.4,0.4-0.9,0.4-1.4c0-1-0.4-1.6-1.2-1.6
				c-0.4,0-0.7,0.1-0.9,0.4C401,58.7,400.8,59.1,400.8,59.5L400.8,59.5z"/>
			<path class="st1" d="M408.4,62.7h-1.9v-8.9h1.9V62.7z"/>
			<path class="st1" d="M414.9,62.7h-1.8v-0.9l0,0c-0.4,0.6-1,1-1.8,1c-0.5,0-1-0.1-1.4-0.5c-0.3-0.4-0.5-0.8-0.5-1.3
				c0-1.2,0.7-1.8,2.1-2l1.6-0.2c0-0.7-0.4-1-1.1-1c-0.7,0-1.4,0.2-2,0.6V57c0.3-0.2,0.7-0.3,1.1-0.4c0.4-0.1,0.8-0.1,1.2-0.2
				c1.2-0.2,2.4,0.7,2.6,1.9c0,0.2,0,0.4,0,0.6L414.9,62.7z M413.2,60.2v-0.4l-1.1,0.2c-0.6,0.1-0.9,0.3-0.9,0.8
				c0,0.2,0.1,0.4,0.2,0.5c0.2,0.1,0.4,0.2,0.6,0.2c0.3,0,0.6-0.1,0.9-0.4C413.1,60.9,413.2,60.6,413.2,60.2z"/>
			<path class="st1" d="M419.9,62.6c-0.4,0.2-0.8,0.2-1.2,0.2c-1.3,0-2-0.7-2-2V58h-1v-1.3h1v-1.3l1.9-0.5v1.8h1.3V58h-1.3v2.4
				c0,0.6,0.2,0.9,0.7,0.9c0.2,0,0.4-0.1,0.6-0.2L419.9,62.6z"/>
			<path class="st1" d="M425,55.2c-0.2-0.1-0.4-0.1-0.7-0.1c-0.6,0-0.9,0.3-0.9,1v0.6h1.4V58h-1.4v4.6h-1.9V58h-1v-1.3h1v-0.8
				c0-0.6,0.2-1.2,0.7-1.7c0.5-0.4,1.2-0.7,1.8-0.6c0.3,0,0.6,0,0.9,0.1V55.2z"/>
			<path class="st1" d="M428.6,62.8c-0.9,0-1.7-0.3-2.4-0.8c-1.2-1.3-1.2-3.3,0-4.6c0.7-0.6,1.5-0.9,2.4-0.8
				c0.9-0.1,1.7,0.3,2.3,0.8c0.6,0.6,0.9,1.4,0.9,2.2c0,0.9-0.3,1.7-0.9,2.4C430.3,62.5,429.5,62.8,428.6,62.8z M428.7,57.9
				c-0.4,0-0.8,0.2-1,0.5c-0.3,0.4-0.4,0.8-0.4,1.3c0,1.2,0.5,1.7,1.4,1.7s1.3-0.6,1.3-1.8S429.6,57.9,428.7,57.9L428.7,57.9z"/>
			<path class="st1" d="M437,58.3c-0.2-0.1-0.5-0.2-0.8-0.2c-0.4,0-0.7,0.1-0.9,0.4c-0.2,0.3-0.4,0.8-0.3,1.2v2.9h-1.9v-6h1.9v1.1
				l0,0c0.2-0.7,0.8-1.2,1.6-1.2c0.2,0,0.3,0,0.5,0.1L437,58.3z"/>
			<path class="st1" d="M447.4,62.7h-1.9v-3.4c0-0.9-0.3-1.3-1-1.3c-0.3,0-0.6,0.1-0.7,0.4c-0.2,0.3-0.3,0.6-0.3,1v3.4h-1.8v-3.5
				c0-0.8-0.3-1.3-0.9-1.3c-0.3,0-0.6,0.1-0.8,0.4c-0.2,0.3-0.3,0.6-0.3,1v3.3h-1.9v-6h1.9v0.9l0,0c0.2-0.3,0.5-0.6,0.8-0.8
				c0.3-0.2,0.7-0.3,1.1-0.3c0.8,0,1.5,0.4,1.7,1.1c0.4-0.7,1.2-1.2,2-1.1c1.3,0,2,0.8,2,2.4L447.4,62.7z"/>
		</g>
		<g>
			<path class="st10" d="M192.4,9.6h-1.1l-0.9-2.4h-3.6L186,9.6h-1.1l3.2-8.4h1L192.4,9.6z M190.1,6.4l-1.3-3.6
				c-0.1-0.2-0.1-0.4-0.1-0.6l0,0c0,0.2-0.1,0.4-0.1,0.6l-1.3,3.6H190.1z"/>
			<path class="st10" d="M197.4,9.3c-0.5,0.3-1.1,0.4-1.6,0.4c-0.8,0-1.5-0.3-2.1-0.8c-0.5-0.6-0.8-1.4-0.8-2.2
				c0-0.9,0.3-1.7,0.9-2.4c0.6-0.6,1.4-0.9,2.3-0.9c0.5,0,1,0.1,1.4,0.3v1c-0.4-0.3-0.9-0.5-1.5-0.5c-0.6,0-1.1,0.2-1.5,0.7
				c-0.4,0.5-0.6,1.1-0.6,1.7c0,0.6,0.2,1.2,0.6,1.7c0.4,0.4,0.9,0.6,1.5,0.6c0.5,0,1.1-0.2,1.5-0.5L197.4,9.3z"/>
			<path class="st10" d="M203.9,12.4h-1V8.6l0,0c-0.4,0.8-1.2,1.2-2.1,1.2c-0.7,0-1.4-0.3-1.8-0.8c-0.5-0.6-0.7-1.4-0.7-2.2
				c0-0.9,0.2-1.7,0.8-2.4c0.5-0.6,1.2-0.9,2-0.9c0.7,0,1.4,0.3,1.8,1l0,0V3.6h1L203.9,12.4z M203,6.9V6c0-0.5-0.2-0.9-0.5-1.3
				c-0.3-0.3-0.8-0.5-1.2-0.5c-0.5,0-1,0.2-1.4,0.6c-0.4,0.5-0.5,1.2-0.5,1.8c0,0.6,0.1,1.2,0.5,1.6c0.3,0.4,0.8,0.6,1.3,0.6
				c0.5,0,1-0.2,1.4-0.6C202.8,7.9,203,7.4,203,6.9z"/>
			<path class="st10" d="M210.6,9.6h-1v-1l0,0c-0.4,0.7-1.1,1.1-1.9,1.1c-1.4,0-2.1-0.9-2.1-2.6V3.6h0.9V7c0,1.3,0.5,1.9,1.5,1.9
				c0.4,0,0.9-0.2,1.1-0.5c0.3-0.4,0.5-0.9,0.5-1.4V3.6h1L210.6,9.6z"/>
			<path class="st10" d="M212.9,2.1c-0.3,0-0.6-0.2-0.6-0.6c0,0,0,0,0,0c0-0.2,0.1-0.3,0.2-0.4c0.1-0.1,0.3-0.2,0.4-0.2
				c0.2,0,0.3,0.1,0.4,0.2c0.1,0.1,0.2,0.3,0.2,0.5c0,0.2-0.1,0.3-0.2,0.4C213.3,2,213.1,2.1,212.9,2.1z M213.4,9.6h-1v-6h1V9.6z"/>
			<path class="st10" d="M218.4,4.6c-0.2-0.1-0.5-0.2-0.7-0.2c-0.4,0-0.8,0.2-1,0.6c-0.3,0.5-0.4,1-0.4,1.6v3.1h-1v-6h1v1.2l0,0
				c0.1-0.4,0.3-0.7,0.6-1c0.3-0.2,0.6-0.4,0.9-0.4c0.2,0,0.4,0,0.6,0.1L218.4,4.6z"/>
			<path class="st10" d="M224.3,6.8H220c0,0.6,0.2,1.1,0.5,1.5c0.4,0.4,0.9,0.6,1.4,0.6c0.7,0,1.3-0.2,1.9-0.7v0.9
				c-0.6,0.4-1.3,0.6-2.1,0.6c-0.8,0-1.5-0.3-2-0.8c-0.5-0.7-0.8-1.5-0.7-2.3c0-0.8,0.2-1.6,0.8-2.3c0.5-0.6,1.2-0.9,2-0.9
				c0.7,0,1.4,0.2,1.8,0.8c0.5,0.6,0.7,1.4,0.6,2.1L224.3,6.8z M223.3,6c0-0.5-0.1-0.9-0.4-1.3c-0.3-0.3-0.7-0.5-1.1-0.5
				c-0.4,0-0.8,0.2-1.1,0.5c-0.3,0.3-0.5,0.8-0.6,1.3L223.3,6z"/>
			<path class="st10" d="M231.8,9.5c-0.3,0.1-0.6,0.2-0.9,0.2c-1.1,0-1.6-0.6-1.6-1.8V4.4h-1V3.6h1V2.1l1-0.3v1.8h1.5v0.8h-1.5v3.4
				c0,0.3,0,0.6,0.2,0.9c0.2,0.2,0.4,0.3,0.7,0.3c0.2,0,0.4-0.1,0.6-0.2L231.8,9.5z"/>
			<path class="st10" d="M235.4,9.7c-0.8,0-1.6-0.3-2.1-0.8c-0.5-0.6-0.8-1.4-0.8-2.2c-0.1-0.9,0.2-1.7,0.8-2.4
				c0.6-0.6,1.4-0.9,2.2-0.8c0.8,0,1.6,0.3,2.1,0.8c0.5,0.6,0.8,1.5,0.8,2.3c0,0.8-0.2,1.7-0.8,2.3C237,9.5,236.2,9.8,235.4,9.7z
				 M235.5,4.3c-0.6,0-1.1,0.2-1.5,0.6c-0.4,0.5-0.6,1.1-0.5,1.7c0,0.6,0.2,1.2,0.5,1.7c0.4,0.4,0.9,0.6,1.5,0.6
				c0.5,0,1.1-0.2,1.4-0.6c0.4-0.5,0.5-1.1,0.5-1.7c0-0.6-0.1-1.2-0.5-1.7C236.5,4.5,236,4.2,235.5,4.3z"/>
			<path class="st10" d="M244.9,9.6h-1.4l-2.6-2.9l0,0v2.9h-1V0.7h1v5.6l0,0l2.5-2.8h1.3l-2.8,2.9L244.9,9.6z"/>
			<path class="st10" d="M250.4,6.8h-4.2c0,0.6,0.2,1.1,0.5,1.5c0.4,0.4,0.9,0.6,1.4,0.6c0.7,0,1.4-0.2,1.9-0.7v0.9
				c-0.6,0.4-1.3,0.6-2.1,0.6c-0.8,0-1.5-0.3-2-0.8c-0.5-0.7-0.8-1.5-0.7-2.3c0-0.8,0.3-1.7,0.8-2.3c0.5-0.6,1.2-0.9,2-0.9
				c0.7,0,1.4,0.2,1.8,0.8c0.5,0.6,0.7,1.4,0.6,2.1L250.4,6.8z M249.4,6c0-0.5-0.1-0.9-0.4-1.3c-0.3-0.3-0.7-0.5-1.1-0.5
				c-0.4,0-0.8,0.2-1.1,0.5c-0.3,0.3-0.5,0.8-0.6,1.3L249.4,6z"/>
			<path class="st10" d="M256.8,9.6h-1V6.2c0-1.3-0.5-1.9-1.4-1.9c-0.5,0-0.9,0.2-1.2,0.5c-0.3,0.4-0.5,0.9-0.5,1.4v3.4h-1v-6h1v1
				l0,0c0.4-0.7,1.2-1.2,2-1.1c0.6,0,1.1,0.2,1.5,0.6c0.4,0.5,0.6,1.2,0.5,1.8L256.8,9.6z"/>
		</g>
		<g>
			<path class="st10" d="M211.6,37.3h-1.1l-0.9-2.3H206l-0.8,2.4h-1.1l3.2-8.4h1L211.6,37.3z M209.3,34.1l-1.3-3.6
				c-0.1-0.2-0.1-0.4-0.1-0.6l0,0c0,0.2-0.1,0.4-0.1,0.6l-1.3,3.6H209.3z"/>
			<path class="st10" d="M216.6,37.1c-0.5,0.3-1.1,0.4-1.6,0.4c-0.8,0-1.5-0.3-2.1-0.8c-0.5-0.6-0.8-1.4-0.8-2.2
				c0-0.9,0.3-1.7,0.9-2.4c0.6-0.6,1.4-0.9,2.3-0.9c0.5,0,1,0.1,1.4,0.3v1c-0.4-0.3-0.9-0.5-1.4-0.5c-0.6,0-1.1,0.2-1.5,0.7
				c-0.4,0.5-0.6,1.1-0.6,1.7c0,0.6,0.2,1.2,0.6,1.7c0.4,0.4,0.9,0.6,1.5,0.6c0.5,0,1.1-0.2,1.5-0.5L216.6,37.1z"/>
			<path class="st10" d="M222.1,37.1c-0.5,0.3-1.1,0.4-1.6,0.4c-0.8,0-1.5-0.3-2.1-0.8c-0.5-0.6-0.8-1.4-0.8-2.2
				c0-0.9,0.3-1.7,0.9-2.4c0.6-0.6,1.4-0.9,2.3-0.9c0.5,0,1,0.1,1.4,0.3v1c-0.4-0.3-0.9-0.5-1.4-0.5c-0.6,0-1.1,0.2-1.5,0.7
				c-0.4,0.5-0.6,1.1-0.6,1.7c0,0.6,0.2,1.2,0.6,1.7c0.4,0.4,0.9,0.6,1.5,0.6c0.5,0,1.1-0.2,1.5-0.5L222.1,37.1z"/>
			<path class="st10" d="M228.2,34.6H224c0,0.6,0.2,1.1,0.5,1.5c0.4,0.4,0.9,0.6,1.4,0.5c0.7,0,1.3-0.2,1.8-0.7v0.9
				c-0.6,0.4-1.3,0.6-2.1,0.6c-0.8,0-1.5-0.3-2-0.8c-0.5-0.7-0.8-1.5-0.7-2.3c0-0.8,0.3-1.7,0.8-2.3c0.5-0.6,1.2-0.9,2-0.9
				c0.7,0,1.4,0.2,1.8,0.8c0.5,0.6,0.7,1.4,0.6,2.1L228.2,34.6z M227.2,33.8c0-0.5-0.1-0.9-0.4-1.3c-0.3-0.3-0.7-0.5-1.1-0.5
				c-0.4,0-0.9,0.2-1.1,0.5c-0.3,0.3-0.5,0.8-0.6,1.3H227.2z"/>
			<path class="st10" d="M229.3,37.1v-1c0.5,0.4,1.1,0.6,1.7,0.6c0.8,0,1.3-0.3,1.3-0.8c0-0.1,0-0.3-0.1-0.4
				c-0.1-0.1-0.2-0.2-0.3-0.3c-0.1-0.1-0.3-0.2-0.4-0.2l-0.5-0.2l-0.7-0.3c-0.2-0.1-0.4-0.2-0.5-0.4c-0.1-0.1-0.2-0.3-0.3-0.5
				c-0.1-0.2-0.1-0.4-0.1-0.6c0-0.3,0.1-0.5,0.2-0.8c0.1-0.2,0.3-0.4,0.5-0.5c0.2-0.2,0.5-0.3,0.7-0.3c0.3-0.1,0.6-0.1,0.9-0.1
				c0.5,0,1,0.1,1.4,0.3v1c-0.5-0.3-1-0.4-1.5-0.4c-0.2,0-0.3,0-0.5,0.1c-0.1,0-0.3,0.1-0.4,0.2c-0.1,0.1-0.2,0.2-0.2,0.3
				c-0.1,0.1-0.1,0.2-0.1,0.3c0,0.1,0,0.3,0.1,0.4c0.1,0.1,0.1,0.2,0.3,0.3c0.1,0.1,0.3,0.2,0.4,0.2l0.5,0.2
				c0.3,0.1,0.5,0.2,0.7,0.3c0.2,0.1,0.4,0.2,0.5,0.4c0.3,0.3,0.5,0.7,0.5,1.1c0,0.3-0.1,0.5-0.2,0.8c-0.1,0.2-0.3,0.4-0.5,0.5
				c-0.2,0.1-0.5,0.3-0.8,0.3c-0.3,0.1-0.6,0.1-0.9,0.1C230.3,37.5,229.8,37.4,229.3,37.1z"/>
			<path class="st10" d="M234.4,37.1v-1c0.5,0.4,1.1,0.6,1.7,0.6c0.8,0,1.3-0.3,1.3-0.8c0-0.1,0-0.3-0.1-0.4
				c-0.1-0.1-0.2-0.2-0.3-0.3c-0.1-0.1-0.3-0.2-0.4-0.2l-0.5-0.2l-0.7-0.3c-0.2-0.1-0.4-0.2-0.5-0.4c-0.1-0.1-0.2-0.3-0.3-0.5
				c-0.1-0.2-0.1-0.4-0.1-0.6c0-0.3,0.1-0.5,0.2-0.8c0.1-0.2,0.3-0.4,0.5-0.5c0.2-0.2,0.5-0.3,0.7-0.3c0.3-0.1,0.6-0.1,0.9-0.1
				c0.5,0,1,0.1,1.4,0.3v1c-0.5-0.3-1-0.4-1.5-0.4c-0.2,0-0.3,0-0.5,0.1c-0.1,0-0.3,0.1-0.4,0.2c-0.1,0.1-0.2,0.2-0.2,0.3
				c-0.1,0.1-0.1,0.2-0.1,0.3c0,0.1,0,0.3,0.1,0.4c0.1,0.1,0.1,0.2,0.3,0.3c0.1,0.1,0.3,0.2,0.4,0.2l0.5,0.2
				c0.3,0.1,0.5,0.2,0.7,0.3c0.2,0.1,0.4,0.2,0.5,0.4c0.1,0.1,0.3,0.3,0.3,0.5c0.1,0.2,0.1,0.4,0.1,0.6c0,0.3-0.1,0.5-0.2,0.8
				c-0.1,0.2-0.3,0.4-0.5,0.5c-0.2,0.1-0.5,0.3-0.8,0.3c-0.3,0.1-0.6,0.1-0.9,0.1C235.4,37.5,234.9,37.4,234.4,37.1z"/>
			<path class="st10" d="M245.9,37.3c-0.3,0.1-0.6,0.2-0.9,0.2c-1,0-1.6-0.6-1.6-1.8v-3.5h-1v-0.8h1v-1.5l1-0.3v1.8h1.5v0.8h-1.5
				v3.4c0,0.3,0,0.6,0.2,0.9c0.2,0.2,0.4,0.3,0.7,0.3c0.2,0,0.4-0.1,0.6-0.2L245.9,37.3z"/>
			<path class="st10" d="M249.6,37.5c-0.8,0-1.6-0.3-2.1-0.8c-0.5-0.6-0.8-1.4-0.8-2.2c-0.1-0.9,0.2-1.7,0.8-2.4
				c0.6-0.6,1.4-0.9,2.2-0.9c0.8,0,1.5,0.3,2.1,0.8c0.5,0.6,0.8,1.5,0.8,2.3c0,0.8-0.2,1.7-0.8,2.3
				C251.2,37.2,250.4,37.5,249.6,37.5z M249.6,32c-0.6,0-1.1,0.2-1.5,0.6c-0.4,0.5-0.6,1.1-0.5,1.7c0,0.6,0.2,1.2,0.6,1.7
				c0.4,0.4,0.9,0.6,1.5,0.6c0.5,0,1.1-0.2,1.4-0.6c0.4-0.5,0.5-1.1,0.5-1.7c0-0.6-0.1-1.2-0.5-1.7C250.7,32.2,250.2,32,249.6,32
				L249.6,32z"/>
			<path class="st10" d="M259,37.3h-1.4l-2.6-2.9l0,0v2.9h-1v-8.9h1v5.6l0,0l2.5-2.7h1.3l-2.8,2.9L259,37.3z"/>
			<path class="st10" d="M264.5,34.6h-4.2c0,0.6,0.2,1.1,0.5,1.5c0.4,0.4,0.9,0.6,1.4,0.5c0.7,0,1.3-0.2,1.9-0.7v0.9
				c-0.6,0.4-1.4,0.6-2.1,0.6c-0.8,0-1.5-0.3-2-0.8c-0.5-0.6-0.8-1.5-0.7-2.3c0-0.8,0.2-1.6,0.8-2.3c0.5-0.6,1.2-0.9,2-0.9
				c0.7,0,1.4,0.2,1.8,0.8c0.5,0.6,0.7,1.4,0.6,2.1L264.5,34.6z M263.5,33.8c0-0.5-0.1-0.9-0.4-1.3c-0.3-0.3-0.7-0.5-1.1-0.5
				c-0.4,0-0.9,0.2-1.2,0.5c-0.3,0.3-0.5,0.8-0.6,1.3H263.5z"/>
			<path class="st10" d="M271,37.3h-1v-3.4c0-1.3-0.5-1.9-1.4-1.9c-0.5,0-0.9,0.2-1.2,0.5c-0.3,0.4-0.5,0.9-0.5,1.4v3.4h-1v-6h1v1
				l0,0c0.4-0.7,1.2-1.2,2-1.1c0.6,0,1.1,0.2,1.5,0.6c0.4,0.5,0.6,1.2,0.5,1.8L271,37.3z"/>
		</g>
		<g>
			<path class="st10" d="M192.2,134.6h-1v-3.8h-4.3v3.8h-1v-8.4h1v3.7h4.3v-3.7h1V134.6z"/>
			<path class="st10" d="M199.2,127h-2.4v7.5h-1V127h-2.4v-0.9h5.8V127z"/>
			<path class="st10" d="M205.8,127h-2.4v7.5h-1V127H200v-0.9h5.8V127z"/>
			<path class="st10" d="M208,131.4v3.2h-1v-8.4h2.3c0.8,0,1.5,0.2,2.1,0.7c0.5,0.5,0.8,1.2,0.7,1.8c0,0.8-0.3,1.5-0.8,2
				c-0.6,0.5-1.4,0.8-2.2,0.8L208,131.4z M208,127v3.4h1c0.6,0,1.1-0.1,1.6-0.5c0.4-0.3,0.6-0.8,0.5-1.3c0-1.1-0.7-1.7-2-1.7
				L208,127z"/>
			<path class="st10" d="M220.1,129.5c-0.2-0.1-0.5-0.2-0.7-0.2c-0.4,0-0.8,0.2-1,0.6c-0.3,0.5-0.4,1-0.4,1.6v3.1h-1v-6h1v1.2l0,0
				c0.1-0.4,0.3-0.7,0.6-1c0.3-0.2,0.6-0.4,0.9-0.4c0.2,0,0.4,0,0.6,0.1L220.1,129.5z"/>
			<path class="st10" d="M225.9,131.8h-4.2c0,0.6,0.2,1.1,0.5,1.6c0.4,0.4,0.9,0.6,1.4,0.5c0.7,0,1.3-0.2,1.9-0.7v0.9
				c-0.6,0.4-1.4,0.6-2.1,0.6c-0.8,0-1.5-0.3-2-0.8c-1-1.4-1-3.2,0.1-4.6c0.5-0.6,1.2-0.9,2-0.9c0.7,0,1.4,0.2,1.8,0.8
				c0.5,0.6,0.7,1.4,0.6,2.1L225.9,131.8z M224.9,131c0-0.5-0.1-0.9-0.4-1.3c-0.3-0.3-0.7-0.5-1.1-0.5c-0.4,0-0.9,0.2-1.2,0.5
				c-0.3,0.3-0.5,0.8-0.6,1.3H224.9z"/>
			<path class="st10" d="M227,134.3v-1c0.5,0.4,1.1,0.6,1.7,0.6c0.8,0,1.3-0.3,1.3-0.8c0-0.1,0-0.3-0.1-0.4
				c-0.1-0.1-0.2-0.2-0.3-0.3c-0.1-0.1-0.3-0.2-0.4-0.2l-0.5-0.2c-0.2-0.1-0.5-0.2-0.7-0.3c-0.2-0.1-0.4-0.2-0.5-0.4
				c-0.1-0.1-0.2-0.3-0.3-0.5c-0.1-0.2-0.1-0.4-0.1-0.6c0-0.3,0.1-0.5,0.2-0.8c0.1-0.2,0.3-0.4,0.5-0.6c0.2-0.1,0.5-0.3,0.7-0.3
				c0.3-0.1,0.6-0.1,0.9-0.1c0.5,0,1,0.1,1.4,0.3v1c-0.5-0.3-1-0.4-1.5-0.4c-0.2,0-0.3,0-0.5,0.1c-0.1,0-0.3,0.1-0.4,0.2
				c-0.1,0.1-0.2,0.2-0.2,0.3c-0.1,0.1-0.1,0.2-0.1,0.3c0,0.1,0,0.3,0.1,0.4c0.1,0.1,0.2,0.2,0.3,0.3c0.1,0.1,0.3,0.2,0.4,0.2
				l0.5,0.2c0.2,0.1,0.5,0.2,0.7,0.3c0.2,0.1,0.4,0.2,0.5,0.4c0.1,0.1,0.3,0.3,0.4,0.5c0.1,0.2,0.1,0.4,0.1,0.6
				c0,0.3-0.1,0.5-0.2,0.8c-0.1,0.2-0.3,0.4-0.5,0.5c-0.2,0.2-0.5,0.3-0.8,0.3c-0.3,0.1-0.6,0.1-0.9,0.1
				C228,134.7,227.5,134.6,227,134.3z"/>
			<path class="st10" d="M233.3,133.7L233.3,133.7v3.6h-1v-8.8h1v1.1l0,0c0.4-0.8,1.2-1.2,2.1-1.2c0.7,0,1.4,0.3,1.8,0.8
				c0.5,0.6,0.7,1.4,0.6,2.2c0,0.9-0.2,1.7-0.7,2.4c-0.5,0.6-1.2,0.9-2,0.9C234.4,134.7,233.7,134.3,233.3,133.7z M233.3,131.3v0.8
				c0,0.5,0.2,0.9,0.5,1.3c0.3,0.3,0.8,0.5,1.2,0.5c0.5,0,1.1-0.2,1.4-0.7c0.4-0.6,0.5-1.2,0.5-1.9c0-0.6-0.1-1.1-0.5-1.6
				c-0.3-0.4-0.8-0.6-1.3-0.6c-0.5,0-1,0.2-1.3,0.6C233.5,130.2,233.3,130.7,233.3,131.3L233.3,131.3z"/>
			<path class="st10" d="M241.9,134.7c-0.8,0-1.6-0.3-2.1-0.8c-0.5-0.6-0.8-1.4-0.8-2.2c0-0.9,0.2-1.7,0.8-2.4
				c0.6-0.6,1.4-0.9,2.2-0.9c0.8,0,1.5,0.3,2.1,0.8c1,1.4,1,3.3-0.1,4.6C243.5,134.4,242.7,134.7,241.9,134.7z M242,129.2
				c-0.6,0-1.1,0.2-1.5,0.6c-0.4,0.5-0.6,1.1-0.5,1.7c0,0.6,0.2,1.2,0.6,1.7c0.4,0.4,0.9,0.6,1.5,0.6c0.5,0,1.1-0.2,1.4-0.6
				c0.4-0.5,0.5-1.1,0.5-1.7c0-0.6-0.1-1.2-0.5-1.7C243.1,129.4,242.5,129.2,242,129.2L242,129.2z"/>
			<path class="st10" d="M251.4,134.6h-1v-3.4c0-1.3-0.5-1.9-1.4-1.9c-0.5,0-0.9,0.2-1.2,0.5c-0.3,0.4-0.5,0.9-0.5,1.4v3.4h-1v-6h1
				v1l0,0c0.4-0.7,1.2-1.2,2-1.1c0.6,0,1.1,0.2,1.5,0.6c0.4,0.5,0.6,1.2,0.5,1.8L251.4,134.6z"/>
			<path class="st10" d="M252.8,134.3v-1c0.5,0.4,1.1,0.6,1.7,0.6c0.8,0,1.3-0.3,1.3-0.8c0-0.1,0-0.3-0.1-0.4
				c-0.1-0.1-0.2-0.2-0.3-0.3c-0.1-0.1-0.3-0.2-0.4-0.2l-0.5-0.2c-0.2-0.1-0.5-0.2-0.7-0.3c-0.2-0.1-0.4-0.2-0.5-0.4
				c-0.1-0.1-0.2-0.3-0.3-0.5c-0.1-0.2-0.1-0.4-0.1-0.6c0-0.3,0.1-0.5,0.2-0.8c0.1-0.2,0.3-0.4,0.5-0.6c0.2-0.1,0.5-0.3,0.7-0.3
				c0.7-0.2,1.5-0.1,2.2,0.2v1c-0.5-0.3-1-0.4-1.5-0.4c-0.2,0-0.3,0-0.5,0.1c-0.1,0-0.3,0.1-0.4,0.2c-0.1,0.1-0.2,0.2-0.2,0.3
				c-0.1,0.1-0.1,0.2-0.1,0.3c0,0.1,0,0.3,0.1,0.4c0.1,0.1,0.2,0.2,0.3,0.3c0.1,0.1,0.3,0.2,0.4,0.2l0.5,0.2
				c0.2,0.1,0.5,0.2,0.7,0.3c0.2,0.1,0.4,0.2,0.5,0.4c0.1,0.1,0.3,0.3,0.3,0.5c0.1,0.2,0.1,0.4,0.1,0.6c0,0.3-0.1,0.5-0.2,0.8
				c-0.1,0.2-0.3,0.4-0.5,0.5c-0.2,0.2-0.5,0.3-0.8,0.3c-0.3,0.1-0.6,0.1-0.9,0.1C253.8,134.7,253.3,134.6,252.8,134.3z"/>
			<path class="st10" d="M263,131.8h-4.2c0,0.6,0.2,1.1,0.5,1.6c0.4,0.4,0.9,0.6,1.4,0.5c0.7,0,1.3-0.2,1.9-0.7v0.9
				c-0.6,0.4-1.4,0.6-2.1,0.6c-0.8,0-1.5-0.3-2-0.8c-1-1.4-1-3.2,0.1-4.6c0.5-0.6,1.2-0.9,2-0.9c0.7,0,1.4,0.2,1.8,0.8
				c0.5,0.6,0.7,1.4,0.6,2.1L263,131.8z M262,131c0-0.5-0.1-0.9-0.4-1.3c-0.3-0.3-0.7-0.5-1.1-0.5c-0.4,0-0.9,0.2-1.2,0.5
				c-0.3,0.3-0.5,0.8-0.6,1.3H262z"/>
		</g>
		<g>
			<path class="st6" d="M404.8,118.5h-1.9v-5c0-0.5,0-1.1,0.1-1.8h0c-0.1,0.4-0.1,0.8-0.3,1.1l-2,5.7h-1.5l-2-5.7
				c0-0.2-0.1-0.5-0.3-1.2h0c0,0.8,0.1,1.6,0.1,2.2v4.7h-1.7v-8.4h2.8l1.7,5c0.1,0.4,0.2,0.8,0.3,1.2l0,0c0.1-0.4,0.2-0.8,0.3-1.2
				l1.7-5h2.7L404.8,118.5z"/>
			<path class="st6" d="M407.4,111.6c-0.3,0-0.6-0.1-0.8-0.3c-0.2-0.2-0.3-0.4-0.3-0.7c0-0.3,0.1-0.5,0.3-0.7
				c0.2-0.2,0.5-0.3,0.8-0.3c0.3,0,0.6,0.1,0.8,0.3c0.2,0.2,0.3,0.4,0.3,0.7c0,0.3-0.1,0.5-0.3,0.7
				C407.9,111.5,407.6,111.6,407.4,111.6z M408.3,118.6h-1.9v-6h1.9V118.6z"/>
			<path class="st6" d="M414.4,118.3c-0.6,0.3-1.2,0.4-1.8,0.4c-0.8,0-1.6-0.3-2.2-0.8c-0.6-0.6-0.9-1.4-0.9-2.2
				c0-0.9,0.3-1.8,0.9-2.4c0.7-0.6,1.6-0.9,2.5-0.9c0.5,0,1.1,0.1,1.5,0.3v1.6c-0.4-0.3-0.8-0.4-1.3-0.4c-0.5,0-0.9,0.1-1.3,0.5
				c-0.6,0.7-0.6,1.8,0,2.5c0.3,0.3,0.8,0.5,1.2,0.5c0.5,0,1-0.2,1.4-0.4L414.4,118.3z"/>
			<path class="st6" d="M419.6,114.2c-0.2-0.1-0.5-0.2-0.8-0.2c-0.4,0-0.7,0.1-1,0.4c-0.2,0.4-0.4,0.8-0.3,1.2v2.9h-1.9v-6h1.9v1.1
				l0,0c0.2-0.7,0.8-1.2,1.6-1.2c0.2,0,0.3,0,0.5,0.1L419.6,114.2z"/>
			<path class="st6" d="M423.4,118.7c-0.9,0.1-1.7-0.3-2.4-0.8c-1.2-1.3-1.2-3.3,0-4.6c0.7-0.6,1.5-0.9,2.4-0.8
				c0.9-0.1,1.7,0.3,2.3,0.8c0.6,0.6,0.9,1.4,0.9,2.2c0,0.9-0.3,1.7-0.9,2.4C425.1,118.4,424.3,118.7,423.4,118.7z M423.4,113.8
				c-0.4,0-0.8,0.2-1,0.4c-0.3,0.4-0.4,0.8-0.4,1.3c0,1.2,0.5,1.7,1.4,1.7s1.3-0.6,1.3-1.8S424.3,113.8,423.4,113.8L423.4,113.8z"/>
			<path class="st6" d="M427.5,118.3v-1.5c0.3,0.2,0.6,0.3,0.9,0.4c0.3,0.1,0.6,0.1,0.9,0.1c0.3,0,0.5,0,0.8-0.1
				c0.2-0.1,0.3-0.2,0.3-0.4c0-0.1,0-0.2-0.1-0.3c-0.1-0.1-0.2-0.2-0.3-0.2l-0.4-0.2c-0.2-0.1-0.3-0.1-0.4-0.2
				c-0.2-0.1-0.4-0.2-0.6-0.3c-0.2-0.1-0.3-0.2-0.5-0.4c-0.1-0.1-0.2-0.3-0.3-0.5c-0.1-0.2-0.1-0.4-0.1-0.6c0-0.3,0.1-0.6,0.2-0.9
				c0.1-0.2,0.3-0.4,0.6-0.6c0.3-0.2,0.5-0.3,0.8-0.3c0.3-0.1,0.7-0.1,1-0.1c0.3,0,0.5,0,0.8,0.1c0.3,0,0.5,0.1,0.8,0.2v1.4
				c-0.2-0.1-0.5-0.2-0.8-0.3c-0.3-0.1-0.5-0.1-0.8-0.1c-0.1,0-0.2,0-0.3,0c-0.1,0-0.2,0.1-0.3,0.1c-0.1,0-0.1,0.1-0.2,0.2
				c0,0.1-0.1,0.1-0.1,0.2c0,0.1,0,0.2,0.1,0.3c0.1,0.1,0.2,0.2,0.3,0.2c0.1,0.1,0.2,0.1,0.4,0.2l0.4,0.1c0.2,0.1,0.5,0.2,0.7,0.3
				c0.2,0.1,0.4,0.2,0.5,0.4c0.1,0.1,0.3,0.3,0.3,0.5c0.1,0.2,0.1,0.4,0.1,0.7c0,0.3-0.1,0.6-0.2,0.9c-0.2,0.2-0.4,0.5-0.6,0.6
				c-0.3,0.2-0.6,0.3-0.9,0.3c-0.3,0.1-0.7,0.1-1,0.1C428.8,118.6,428.1,118.5,427.5,118.3z"/>
			<path class="st6" d="M436.1,118.7c-0.9,0.1-1.7-0.3-2.4-0.8c-1.2-1.3-1.2-3.3,0-4.6c0.7-0.6,1.5-0.9,2.4-0.8
				c0.9,0,1.7,0.3,2.4,0.8c0.6,0.6,0.9,1.4,0.9,2.2c0,0.9-0.3,1.7-0.9,2.4C437.8,118.4,437,118.7,436.1,118.7z M436.1,113.8
				c-0.4,0-0.8,0.2-1,0.4c-0.3,0.4-0.4,0.8-0.4,1.3c0,1.2,0.5,1.7,1.4,1.7s1.3-0.6,1.3-1.8S437,113.8,436.1,113.8L436.1,113.8z"/>
			<path class="st6" d="M444.4,111c-0.2-0.1-0.4-0.1-0.7-0.1c-0.6,0-0.9,0.3-0.9,1v0.6h1.4v1.4h-1.4v4.6H441v-4.6h-1v-1.4h1v-0.7
				c0-0.6,0.2-1.2,0.7-1.7c0.5-0.4,1.2-0.7,1.8-0.6c0.3,0,0.6,0,0.9,0.1V111z"/>
			<path class="st6" d="M449,118.4c-0.4,0.2-0.8,0.2-1.2,0.2c-1.3,0-2-0.7-2-2v-2.8h-1v-1.4h1v-1.3l1.9-0.5v1.8h1.4v1.4h-1.3v2.4
				c0,0.6,0.2,0.9,0.7,0.9c0.2,0,0.4-0.1,0.6-0.2V118.4z"/>
			<path class="st6" d="M401,132.4c-0.9,0.5-2,0.7-3,0.7c-1.2,0.1-2.3-0.3-3.2-1.1c-0.8-0.8-1.2-1.9-1.2-3.1c0-1.2,0.4-2.4,1.3-3.2
				c0.9-0.9,2.1-1.3,3.4-1.2c0.8,0,1.6,0.1,2.4,0.4v1.8c-0.7-0.4-1.6-0.6-2.4-0.6c-0.7,0-1.4,0.2-1.9,0.8c-0.5,0.5-0.8,1.3-0.7,2
				c0,0.7,0.2,1.4,0.7,2c0.5,0.5,1.1,0.7,1.8,0.7c0.4,0,0.7-0.1,1.1-0.2v-1.6h-1.7v-1.5h3.5V132.4z"/>
			<path class="st6" d="M406.5,128.6c-0.2-0.1-0.5-0.2-0.8-0.2c-0.4,0-0.7,0.1-0.9,0.4c-0.2,0.4-0.4,0.8-0.3,1.2v2.9h-1.9v-6h1.9
				v1.1l0,0c0.2-0.7,0.8-1.2,1.6-1.2c0.2,0,0.3,0,0.5,0.1L406.5,128.6z"/>
			<path class="st6" d="M412.2,132.9h-1.8v-0.9l0,0c-0.4,0.6-1.1,1-1.8,1c-0.5,0-1-0.2-1.4-0.5c-0.3-0.4-0.5-0.8-0.5-1.3
				c0-1.2,0.7-1.8,2.1-2l1.6-0.2c0-0.7-0.4-1-1.1-1c-0.7,0-1.4,0.2-2,0.6v-1.4c0.3-0.2,0.7-0.3,1-0.4c0.4-0.1,0.8-0.1,1.2-0.2
				c1.2-0.2,2.4,0.7,2.6,1.9c0,0.2,0,0.4,0,0.6L412.2,132.9z M410.5,130.5v-0.4l-1.1,0.1c-0.6,0.1-0.9,0.3-0.9,0.8
				c0,0.2,0.1,0.4,0.2,0.5c0.2,0.1,0.4,0.2,0.6,0.2c0.3,0,0.6-0.1,0.9-0.4C410.4,131.1,410.5,130.8,410.5,130.5z"/>
			<path class="st6" d="M415.6,132.2L415.6,132.2v3.5h-1.9v-8.8h1.9v0.9l0,0c0.7-1.1,2.2-1.4,3.3-0.6c0.2,0.1,0.3,0.2,0.5,0.4
				c0.5,0.6,0.7,1.4,0.6,2.2c0,0.9-0.2,1.7-0.8,2.4c-0.5,0.6-1.2,0.9-2,0.9C416.5,133.1,415.9,132.8,415.6,132.2z M415.5,129.8v0.5
				c0,0.4,0.1,0.7,0.3,1c0.2,0.3,0.5,0.4,0.9,0.4c0.4,0,0.8-0.2,1-0.5c0.3-0.4,0.4-0.9,0.4-1.4c0-1-0.4-1.6-1.2-1.6
				c-0.4,0-0.7,0.1-0.9,0.4C415.6,128.9,415.5,129.3,415.5,129.8z"/>
			<path class="st6" d="M426.9,132.9h-1.9v-3.4c0-0.9-0.3-1.3-1-1.3c-0.3,0-0.6,0.1-0.8,0.4c-0.2,0.3-0.3,0.6-0.3,0.9v3.4h-1.9V124
				h1.9v3.8l0,0c0.4-0.6,1.1-1,1.8-1c1.3,0,2,0.8,2,2.5L426.9,132.9z"/>
			<path class="st6" d="M439.3,132.9h-2.1l-0.6-1.9h-3l-0.6,1.9h-2l3.1-8.4h2.3L439.3,132.9z M436.2,129.6l-0.9-2.8
				c-0.1-0.2-0.1-0.5-0.1-0.8h0c0,0.2-0.1,0.5-0.1,0.7l-0.9,2.8H436.2z"/>
			<path class="st6" d="M442.1,130v2.9h-1.9v-8.4h3c2.1,0,3.2,0.9,3.2,2.7c0,0.8-0.3,1.5-0.9,2c-0.7,0.6-1.6,0.9-2.5,0.8H442.1z
				 M442.1,126v2.6h0.8c1,0,1.5-0.4,1.5-1.3s-0.5-1.3-1.5-1.3L442.1,126z"/>
			<path class="st6" d="M449.3,132.9h-1.9v-8.4h1.9V132.9z"/>
		</g>
		<g>
			<polygon class="st9" points="193.1,85.5 185.5,91 188.4,99.8 197.7,99.8 200.6,91 			"/>
			<g>
				<g>
					<path class="st10" d="M213.4,99h-1.1l-0.9-2.3h-3.6l-0.8,2.3H206l3.2-8.4h1L213.4,99z M211.1,95.8l-1.3-3.6
						c-0.1-0.2-0.1-0.4-0.1-0.6l0,0c0,0.2-0.1,0.4-0.1,0.6l-1.3,3.6H211.1z"/>
					<path class="st10" d="M218.5,98.7c-0.5,0.3-1.1,0.4-1.6,0.4c-0.8,0-1.5-0.3-2.1-0.8c-0.5-0.6-0.8-1.4-0.8-2.2
						c0-0.9,0.3-1.7,0.9-2.4c0.6-0.6,1.4-0.9,2.3-0.9c0.5,0,1,0.1,1.4,0.3v1c-0.4-0.3-0.9-0.5-1.4-0.5c-0.6,0-1.1,0.2-1.5,0.7
						c-0.4,0.5-0.6,1.1-0.6,1.7c0,0.6,0.2,1.2,0.6,1.7c0.4,0.4,0.9,0.6,1.5,0.6c0.5,0,1.1-0.2,1.5-0.5L218.5,98.7z"/>
					<path class="st10" d="M223.9,98.7c-0.5,0.3-1.1,0.4-1.6,0.4c-0.8,0-1.5-0.3-2.1-0.8c-0.5-0.6-0.8-1.4-0.8-2.2
						c0-0.9,0.3-1.7,0.9-2.4c0.6-0.6,1.4-0.9,2.3-0.9c0.5,0,1,0.1,1.4,0.3v1c-0.4-0.3-0.9-0.5-1.4-0.5c-0.6,0-1.1,0.2-1.5,0.7
						c-0.4,0.5-0.6,1.1-0.6,1.7c0,0.6,0.2,1.2,0.6,1.7c0.4,0.4,0.9,0.6,1.5,0.6c0.5,0,1.1-0.2,1.5-0.5V98.7z"/>
					<path class="st10" d="M230.1,96.2h-4.2c0,0.6,0.2,1.1,0.5,1.6c0.4,0.4,0.9,0.6,1.4,0.5c0.7,0,1.3-0.2,1.9-0.7v0.9
						c-0.6,0.4-1.4,0.6-2.1,0.6c-0.8,0-1.5-0.3-2-0.8c-0.5-0.7-0.8-1.5-0.7-2.3c0-0.8,0.2-1.6,0.8-2.3c0.5-0.6,1.2-0.9,2-0.9
						c0.7,0,1.4,0.2,1.8,0.8c0.5,0.6,0.7,1.4,0.6,2.1L230.1,96.2z M229.1,95.4c0-0.5-0.1-0.9-0.4-1.3c-0.3-0.3-0.7-0.5-1.1-0.5
						c-0.4,0-0.9,0.2-1.1,0.5c-0.3,0.3-0.5,0.8-0.6,1.3L229.1,95.4z"/>
					<path class="st10" d="M231.1,98.8v-1c0.5,0.4,1.1,0.6,1.7,0.6c0.9,0,1.3-0.3,1.3-0.8c0-0.1,0-0.3-0.1-0.4
						c-0.1-0.1-0.2-0.2-0.3-0.3c-0.1-0.1-0.3-0.2-0.4-0.2l-0.5-0.2c-0.2-0.1-0.5-0.2-0.7-0.3c-0.2-0.1-0.4-0.2-0.5-0.4
						c-0.1-0.1-0.2-0.3-0.3-0.5c-0.1-0.2-0.1-0.4-0.1-0.6c0-0.3,0.1-0.5,0.2-0.7c0.1-0.2,0.3-0.4,0.5-0.6c0.2-0.1,0.5-0.3,0.7-0.3
						c0.3-0.1,0.6-0.1,0.9-0.1c0.5,0,1,0.1,1.4,0.3v1c-0.5-0.3-1-0.4-1.5-0.4c-0.2,0-0.3,0-0.5,0.1c-0.1,0-0.3,0.1-0.4,0.2
						c-0.1,0.1-0.2,0.2-0.2,0.3c-0.1,0.1-0.1,0.2-0.1,0.3c0,0.1,0,0.3,0.1,0.4c0.1,0.1,0.2,0.2,0.3,0.3c0.1,0.1,0.3,0.2,0.4,0.2
						l0.5,0.2c0.2,0.1,0.5,0.2,0.7,0.3c0.2,0.1,0.4,0.2,0.5,0.4c0.1,0.1,0.3,0.3,0.3,0.5c0.1,0.2,0.1,0.4,0.1,0.6
						c0,0.3-0.1,0.5-0.2,0.8c-0.1,0.2-0.3,0.4-0.5,0.5c-0.2,0.2-0.5,0.3-0.8,0.3c-0.3,0.1-0.6,0.1-0.9,0.1
						C232.2,99.2,231.6,99,231.1,98.8z"/>
					<path class="st10" d="M236.2,98.8v-1c0.5,0.4,1.1,0.6,1.7,0.6c0.9,0,1.3-0.3,1.3-0.8c0-0.1,0-0.3-0.1-0.4
						c-0.1-0.1-0.2-0.2-0.3-0.3c-0.1-0.1-0.3-0.2-0.4-0.2l-0.5-0.2c-0.2-0.1-0.5-0.2-0.7-0.3c-0.2-0.1-0.4-0.2-0.5-0.4
						c-0.1-0.1-0.2-0.3-0.3-0.5c-0.1-0.2-0.1-0.4-0.1-0.6c0-0.3,0.1-0.5,0.2-0.7c0.1-0.2,0.3-0.4,0.5-0.6c0.2-0.1,0.5-0.3,0.7-0.3
						c0.7-0.2,1.5-0.1,2.3,0.2v1c-0.5-0.3-1-0.4-1.5-0.4c-0.2,0-0.3,0-0.5,0.1c-0.1,0-0.3,0.1-0.4,0.2c-0.1,0.1-0.2,0.2-0.2,0.3
						c-0.1,0.1-0.1,0.2-0.1,0.3c0,0.1,0,0.3,0.1,0.4c0.1,0.1,0.1,0.2,0.2,0.3c0.1,0.1,0.3,0.2,0.4,0.2l0.5,0.2
						c0.2,0.1,0.5,0.2,0.7,0.3c0.2,0.1,0.4,0.2,0.5,0.4c0.1,0.1,0.3,0.3,0.3,0.5c0.1,0.2,0.1,0.4,0.1,0.6c0,0.3-0.1,0.5-0.2,0.8
						c-0.1,0.2-0.3,0.4-0.5,0.5c-0.2,0.2-0.5,0.3-0.8,0.3c-0.3,0.1-0.6,0.1-0.9,0.1C237.3,99.2,236.7,99,236.2,98.8z"/>
					<path class="st10" d="M247.8,98.9c-0.3,0.1-0.6,0.2-0.9,0.2c-1.1,0-1.6-0.6-1.6-1.8v-3.6h-1V93h1v-1.5l1-0.3V93h1.5v0.8h-1.5
						v3.4c0,0.3,0,0.6,0.2,0.9c0.2,0.2,0.4,0.3,0.7,0.3c0.2,0,0.4-0.1,0.6-0.2L247.8,98.9z"/>
					<path class="st10" d="M251.4,99.1c-0.8,0-1.6-0.3-2.1-0.8c-0.6-0.6-0.8-1.4-0.8-2.3c0-0.9,0.2-1.7,0.8-2.4
						c0.6-0.6,1.4-0.9,2.2-0.8c0.8,0,1.5,0.3,2.1,0.8c1,1.4,1,3.3-0.1,4.6C253,98.8,252.2,99.1,251.4,99.1z M251.5,93.6
						c-0.6,0-1.1,0.2-1.5,0.6c-0.4,0.5-0.6,1.1-0.5,1.7c0,0.6,0.2,1.2,0.6,1.7c0.4,0.4,0.9,0.6,1.5,0.6c0.5,0,1.1-0.2,1.4-0.6
						c0.4-0.5,0.5-1.1,0.5-1.7c0-0.6-0.1-1.2-0.5-1.7C252.6,93.8,252,93.6,251.5,93.6z"/>
					<path class="st10" d="M260.9,99h-1.4l-2.6-2.9l0,0V99h-1v-8.9h1v5.6l0,0l2.5-2.7h1.3l-2.8,2.9L260.9,99z"/>
					<path class="st10" d="M266.4,96.2h-4.2c0,0.6,0.2,1.1,0.5,1.6c0.4,0.4,0.9,0.6,1.4,0.5c0.7,0,1.3-0.2,1.9-0.7v0.9
						c-0.6,0.4-1.4,0.6-2.1,0.6c-0.8,0-1.5-0.3-2-0.8c-0.5-0.6-0.8-1.5-0.7-2.3c0-0.8,0.3-1.6,0.8-2.3c0.5-0.6,1.2-0.9,2-0.9
						c0.7,0,1.4,0.2,1.8,0.8c0.5,0.6,0.7,1.4,0.6,2.1L266.4,96.2z M265.4,95.4c0-0.5-0.1-0.9-0.4-1.3c-0.3-0.3-0.7-0.5-1.1-0.5
						c-0.4,0-0.9,0.2-1.1,0.5c-0.3,0.3-0.5,0.8-0.6,1.3L265.4,95.4z"/>
					<path class="st10" d="M272.8,99h-1v-3.4c0-1.3-0.5-1.9-1.4-1.9c-0.5,0-0.9,0.2-1.2,0.5c-0.3,0.4-0.5,0.9-0.5,1.4V99h-1v-6h1v1
						l0,0c0.4-0.7,1.2-1.2,2-1.1c0.6,0,1.1,0.2,1.5,0.6c0.4,0.5,0.6,1.2,0.5,1.8L272.8,99z"/>
				</g>
				<g>
					<path class="st10" d="M213.3,84.8h-1v-3.8h-4.4v3.8h-1v-8.4h1v3.7h4.4v-3.7h1V84.8z"/>
					<path class="st10" d="M220.3,77.3h-2.4v7.5h-1v-7.5h-2.4v-0.9h5.8L220.3,77.3z"/>
					<path class="st10" d="M226.9,77.3h-2.4v7.5h-1v-7.5h-2.4v-0.9h5.8L226.9,77.3z"/>
					<path class="st10" d="M229.1,81.6v3.2h-1v-8.4h2.3c0.8-0.1,1.5,0.2,2.1,0.7c0.5,0.5,0.8,1.2,0.7,1.8c0,0.8-0.3,1.5-0.8,2
						c-0.6,0.5-1.4,0.8-2.2,0.8L229.1,81.6z M229.1,77.3v3.4h1c0.6,0,1.1-0.1,1.6-0.5c0.4-0.3,0.6-0.8,0.5-1.3c0-1.1-0.7-1.7-2-1.7
						H229.1z"/>
					<path class="st10" d="M244.4,84.2c-0.9,0.5-1.8,0.7-2.8,0.7c-1.1,0-2.1-0.4-2.9-1.2c-0.8-0.8-1.2-1.9-1.1-3.1
						c0-1.2,0.4-2.4,1.2-3.2c0.8-0.8,2-1.3,3.1-1.3c0.8,0,1.6,0.1,2.3,0.4v1.1c-0.7-0.4-1.6-0.7-2.4-0.7c-0.9,0-1.7,0.3-2.3,1
						c-1.2,1.5-1.2,3.5-0.1,5c0.6,0.6,1.4,1,2.3,0.9c0.6,0,1.2-0.1,1.7-0.4v-2.4h-1.8v-0.9h2.8L244.4,84.2z"/>
					<path class="st10" d="M250.7,84.8h-4.4v-8.4h4.3v0.9h-3.3v2.8h3v0.9h-3v2.9h3.5V84.8z"/>
					<path class="st10" d="M257.4,77.3H255v7.5h-1v-7.5h-2.4v-0.9h5.8L257.4,77.3z"/>
					<path class="st10" d="M267.8,81.7h-2.4V84h-0.8v-2.3h-2.4v-0.8h2.4v-2.4h0.8v2.4h2.4V81.7z"/>
				</g>
			</g>
		</g>
	</g>
</g>
<g id="bg">
	<g id="Shapes_1_">
		<rect class="st1" width="475" height="150.6"/>
		<rect class="st4" width="105" height="150"/>
		<g>
			<rect x="17.8" y="20.6" class="st5" width="70" height="70"/>
			<path class="st1" d="M50,72.6v6.8c0,1.9-0.9,3.3-2.8,3.3l0,0c-1.9,0-2.8-1.4-2.8-3.3v-6.8h-3.5c-1.4,0-2.1-1.6-2.1-3V46.5h28
				v23.1c0,1.4-0.5,3-2.1,3h-3.5v6.8c0,1.9-0.9,3.3-2.8,3.3l0,0c-1.9,0-2.8-1.4-2.8-3.3v-6.7H50z"/>
			<path class="st1" d="M33.2,45.8L33.2,45.8c1.9,0,3.7,1.4,3.7,3.3v13.1c0,1.9-1.9,3.3-3.7,3.3l0,0c-1.9,0-3.7-1.4-3.7-3.3V49
				C29.5,47.1,31.3,45.7,33.2,45.8L33.2,45.8z"/>
			<path class="st1" d="M72.4,45.8L72.4,45.8c1.9,0,3.7,1.4,3.7,3.3v13.1c0,1.9-1.9,3.3-3.7,3.3l0,0c-1.9,0-3.7-1.4-3.7-3.3V49
				C68.7,47.1,70.5,45.7,72.4,45.8L72.4,45.8z"/>
			<path class="st1" d="M59.6,34.1l2.6-3.5c0.2-0.2,0-0.5-0.2-0.7s-0.5,0-0.7,0.2l-2.6,3.7c-1.9-0.7-3.8-1.1-5.8-1.2
				c-2,0-4,0.4-5.8,1.2l-2.8-4c-0.2-0.2-0.4-0.3-0.7-0.2c0,0.2-0.2,0.5,0,0.7l2.5,3.8c-4.2,1.9-7.2,5.8-7.2,9.6h28
				C66.8,39.9,63.8,36,59.6,34.1z M46.7,40.4c-0.9,0-1.6-0.7-1.6-1.6c0-0.9,0.7-1.6,1.6-1.6c0.9,0,1.6,0.7,1.6,1.6c0,0,0,0,0,0
				C48.4,39.7,47.7,40.4,46.7,40.4C46.8,40.4,46.8,40.4,46.7,40.4z M58.9,40.4c-0.9,0-1.6-0.7-1.6-1.6c0-0.9,0.7-1.6,1.6-1.6
				c0.9,0,1.6,0.7,1.6,1.6c0,0,0,0,0,0C60.5,39.7,59.8,40.4,58.9,40.4C58.9,40.4,58.9,40.4,58.9,40.4z"/>
		</g>
		<rect x="371" class="st6" width="104" height="90"/>
		<rect x="371" y="95" class="st7" width="104" height="55"/>
		<g>
			<line class="st8" x1="105.2" y1="14.6" x2="365.8" y2="14.6"/>
			<polygon points="364.7,18.3 371.2,14.6 364.7,10.9 			"/>
		</g>
		<g>
			<line class="st8" x1="110.6" y1="44.5" x2="371.2" y2="44.5"/>
			<polygon points="111.7,48.2 105.2,44.5 111.7,40.7 			"/>
		</g>
		<g>
			<line class="st8" x1="105.2" y1="103.9" x2="365.8" y2="103.9"/>
			<polygon points="364.7,107.6 371.2,103.9 364.7,100.2 			"/>
		</g>
		<g>
			<line class="st8" x1="110.7" y1="140.1" x2="371.2" y2="140.1"/>
			<polygon points="111.7,143.8 105.3,140.1 111.7,136.3 			"/>
		</g>
		
			<use xlink:href="#New_Symbol_44"  width="20" height="20" x="-10" y="-10" transform="matrix(1 0 0 1 170.1 139.6)" style="overflow:visible;"/>
		
			<use xlink:href="#New_Symbol_43"  width="20" height="20" x="-10" y="-10" transform="matrix(1 0 0 1 170.1 103.9)" style="overflow:visible;"/>
		
			<use xlink:href="#New_Symbol_42"  width="20" height="20" x="-10" y="-10" transform="matrix(1 0 0 1 170.1 44.48)" style="overflow:visible;"/>
		
			<use xlink:href="#New_Symbol_41"  width="20" height="20" x="-10" y="-10" transform="matrix(1 0 0 1 170.1 14.6)" style="overflow:visible;"/>
		<polygon class="st9" points="193,25.6 185.4,31 188.3,39.8 197.6,39.8 200.5,31 		"/>
	</g>
	<g>
		<polygon class="st9" points="193.1,85.5 185.5,91 188.4,99.8 197.7,99.8 200.6,91 		"/>
	</g>
</g>
<g id="txt">
	<g>
		<rect y="102.5" class="st11" width="105" height="30.5"/>
		<path class="st12" d="M27.8,103.5h-4.2c-0.1,0.3-0.2,0.6-0.4,1h3.7v4.5h-2.8v2.7c0,0.2-0.1,0.4-0.2,0.6s-0.3,0.3-0.5,0.3
			s-0.5,0.1-1,0.1c-0.2,0-0.4,0-0.6,0l-0.3-1c0.8,0,1.3,0,1.4-0.1s0.2-0.1,0.2-0.3V109h-2.9v-4.5h2c0.1-0.3,0.3-0.6,0.4-1h-3.3v3.9
			c0,2.3-0.4,4.1-1.2,5.4l-0.9-0.6c0.7-1.2,1-2.9,1-5v-4.6h9.6L27.8,103.5z M22.1,109.8c-0.5,0.9-1.3,1.7-2.3,2.5l-0.8-0.7
			c1-0.8,1.8-1.6,2.2-2.3L22.1,109.8z M25.8,106.2v-0.9h-4.6v0.9H25.8z M25.8,108v-0.8h-4.6v0.8H25.8z M27.9,111.6l-0.8,0.7
			c-0.5-0.8-1.2-1.6-2.1-2.4l0.8-0.6C26.6,110,27.3,110.8,27.9,111.6z"/>
		<path class="st12" d="M39.7,112.4H29.3v-1.1h4.8v-2.6h-3.6v-1.1h3.6v-2.3h-2.7c-0.4,0.8-0.9,1.4-1.5,2l-0.8-0.8
			c1.1-1.1,1.8-2.5,2.2-4.1l1.1,0.3c-0.1,0.5-0.3,1.1-0.5,1.6h2.2v-2.1h1.1v2.1h4.3v1.1h-4.3v2.3h3.8v1.1h-3.8v2.6h4.5V112.4z"/>
		<path class="st12" d="M51.8,103.8h-8.7v2.5c0.6-0.6,1.2-1.4,1.6-2.4l1,0.2c-0.2,0.5-0.5,1-0.8,1.5v3.8h-1v-2.5l-0.4,0.4l-0.4-1
			v2.5c0,1.4-0.3,2.7-0.9,3.8l-0.9-0.7c0.5-0.9,0.7-2.2,0.7-3.7v-5.5h4.2c-0.1-0.1-0.2-0.3-0.3-0.6l1.2-0.2c0.2,0.3,0.3,0.5,0.4,0.8
			h4.3V103.8z M45,110.1c-0.3,0.8-0.7,1.6-1.2,2.3l-0.9-0.6c0.5-0.7,0.9-1.4,1.1-2.1L45,110.1z M51.7,109.4h-5.9V107
			c-0.1,0.1-0.2,0.2-0.3,0.3l-0.4-1c0.7-0.7,1.2-1.5,1.6-2.4l1,0.3c-0.1,0.2-0.2,0.4-0.3,0.6h1.2c-0.1-0.2-0.2-0.4-0.3-0.6l1.1-0.2
			c0.1,0.2,0.3,0.5,0.4,0.8h1.9v0.8h-2.1v0.5h2v0.7h-2v0.5h2v0.8h-2v0.5h2.2V109.4z M50,111.2c-0.1,0.9-0.5,1.4-1.2,1.4l-2.4,0
			c-0.6,0-1-0.3-1-0.9v-1.8h1v1.5c0,0.1,0,0.2,0.1,0.2s0.4,0.1,0.9,0.1c0.8,0,1.2,0,1.3-0.1s0.1-0.2,0.2-0.3s0.1-0.3,0.1-0.4
			L50,111.2z M48.4,106.1v-0.5h-1.6l-0.1,0.1v0.4H48.4z M48.4,107.3v-0.5h-1.7v0.5H48.4z M48.4,108.6v-0.5h-1.7v0.5H48.4z
			 M48.7,110.8l-0.9,0.4c-0.2-0.4-0.5-0.8-0.9-1.3l0.9-0.4C48.2,109.9,48.5,110.3,48.7,110.8z M51.8,111.7l-0.9,0.5
			c-0.4-0.7-0.8-1.3-1.4-2l0.9-0.5C50.9,110.2,51.3,110.8,51.8,111.7z"/>
		<path class="st12" d="M63.2,111.5c0,0.3-0.1,0.6-0.4,0.8s-0.6,0.4-1.2,0.4c-0.3,0-0.5,0-0.8,0l-0.3-1.1l1.3,0c0.1,0,0.2,0,0.3-0.1
			s0.1-0.2,0.1-0.3V109h-3v3.4h-1V109h-2.9c-0.1,1.5-0.5,2.8-1.1,3.7l-0.9-0.6c0.3-0.5,0.6-1.2,0.8-2s0.3-1.6,0.3-2.4v-5.3h8.9
			V111.5z M58.2,105.2v-1.7h-2.8v1.7H58.2z M58.2,108v-1.8h-2.8v1.8H58.2z M62.1,105.2v-1.7h-3v1.7H62.1z M62.1,108v-1.8h-3v1.8
			H62.1z"/>
		<path class="st12" d="M69.5,108.2l-0.7,0.7c-0.2-0.4-0.4-0.8-0.7-1.2v5h-1v-4.3c-0.3,0.6-0.7,1.3-1.2,2l-0.6-1
			c0.7-0.8,1.3-1.9,1.8-3.2h-1.7v-1h1.8v-1.5c-0.6,0.1-1,0.2-1.3,0.2l-0.4-0.9c1.4-0.1,2.6-0.4,3.5-0.8l0.5,0.9
			c-0.4,0.2-0.8,0.3-1.2,0.4v1.7h1.3v1h-1.3v0.3C68.7,107,69.2,107.6,69.5,108.2z M75.8,112.5H69v-1h2.9v-1.5h-2.5v-1h2.5v-1.2
			c-1,0.1-1.7,0.1-2.2,0.1l-0.4-0.9c2.3-0.1,4.2-0.3,5.8-0.6l0.4,0.9c-0.9,0.2-1.8,0.4-2.6,0.4v1.3h2.5v1H73v1.5h2.8V112.5z
			 M75.1,106.1h-5.3v-3.6h5.3V106.1z M74.1,105.1v-1.6h-3.1v1.6H74.1z"/>
		<path class="st12" d="M87.8,110.1c-0.1,1.7-0.6,2.6-1.5,2.6c-0.7,0-1.4-0.7-1.9-2.1s-0.8-3.2-0.9-5.5h-6.1v-1h6.1
			c0-0.8-0.1-1.5,0-2h1.1c0,0.5,0,1.1,0,2h3.2v1h-3.2c0,2.3,0.3,3.9,0.7,4.9s0.8,1.5,1,1.5c0.2,0,0.4-0.7,0.5-2.1L87.8,110.1z
			 M83.3,110.8c-2.2,0.6-4.1,0.9-5.6,1.1l-0.2-1c0.7-0.1,1.5-0.2,2.3-0.4v-3.2h-1.9v-1H83v1h-2.1v2.9c1-0.2,1.8-0.4,2.4-0.6
			L83.3,110.8z M87.4,103.3l-0.8,0.7c-0.5-0.5-1-0.8-1.5-1l0.8-0.7C86.6,102.6,87,102.9,87.4,103.3z"/>
	</g>
	<g>
		<g>
			<path class="st13" d="M214,86h-1v-4.2h-4.8V86h-1v-9.1h1v4h4.8v-4h1V86z"/>
			<path class="st13" d="M221.6,77.8H219V86h-1v-8.2h-2.6v-0.9h6.2V77.8z"/>
			<path class="st13" d="M228.5,77.8h-2.6V86h-1v-8.2h-2.6v-0.9h6.2V77.8z"/>
			<path class="st13" d="M230.9,82.6V86h-1v-9.1h2.4c0.9,0,1.7,0.2,2.2,0.7s0.8,1.1,0.8,2c0,0.9-0.3,1.6-0.9,2.2s-1.4,0.8-2.3,0.8
				H230.9z M230.9,77.8v3.8h1.1c0.7,0,1.3-0.2,1.7-0.5s0.6-0.8,0.6-1.4c0-1.2-0.7-1.8-2.2-1.8H230.9z"/>
			<path class="st13" d="M246.7,85.4c-0.9,0.5-1.9,0.8-3,0.8c-1.3,0-2.3-0.4-3.1-1.3s-1.2-1.9-1.2-3.3c0-1.4,0.4-2.5,1.3-3.5
				s2-1.4,3.4-1.4c1,0,1.8,0.2,2.5,0.5v1.1c-0.7-0.5-1.6-0.7-2.6-0.7c-1,0-1.9,0.4-2.5,1.1s-1,1.6-1,2.8c0,1.2,0.3,2.1,0.9,2.7
				s1.4,1,2.5,1c0.7,0,1.4-0.1,1.9-0.4v-2.6h-2v-0.9h3V85.4z"/>
			<path class="st13" d="M253.5,86h-4.8v-9.1h4.6v0.9h-3.6v3.1h3.3v0.9h-3.3v3.2h3.8V86z"/>
			<path class="st13" d="M260.5,77.8h-2.6V86h-1v-8.2h-2.6v-0.9h6.2V77.8z"/>
			<path class="st13" d="M271,82.6h-2.6v2.6h-0.8v-2.6h-2.6v-0.8h2.6v-2.6h0.8v2.6h2.6V82.6z"/>
			<path class="st13" d="M217.3,92.3H211c-0.4,0.9-1,1.7-1.6,2.5v6h-0.7v-5.2c-0.6,0.6-1.2,1.1-1.7,1.4l-0.2-0.6
				c1.5-1.2,2.7-2.5,3.5-4.2h-3.5v-0.6h3.8c0.2-0.4,0.4-0.8,0.6-1.4l0.6,0.2c-0.2,0.5-0.4,0.9-0.6,1.2h5.9V92.3z M217.3,97.5h-3v2.4
				c0,0.2-0.1,0.4-0.2,0.5s-0.2,0.3-0.4,0.3s-0.5,0.1-1.1,0.1c-0.3,0-0.6,0-0.9,0l-0.3-0.6c0.3,0,0.6,0,1,0c0.6,0,1,0,1.1-0.1
				s0.2-0.1,0.2-0.2v-2.3H210v-0.6h3.6V96c0.6-0.4,1.2-0.9,1.9-1.6h-4.7v-0.6h5.6v0.6c-0.8,0.8-1.5,1.4-2.2,1.8v0.6h3V97.5z"/>
			<path class="st13" d="M224.4,91.1h-1v9.8h-0.6v-2.5c-1,0.4-2.3,0.7-3.9,1.1l-0.2-0.6l1.1-0.2v-7.6h-1.1v-0.6h5.7V91.1z M222.8,93
				v-1.9h-2.4V93H222.8z M222.8,95.5v-1.9h-2.4v1.9H222.8z M222.8,97.8v-1.6h-2.4v2.4C221.1,98.3,221.9,98.1,222.8,97.8z
				 M229.2,100.3l-0.4,0.5c-0.8-0.7-1.5-1.4-2.1-2.2c-0.7,0.9-1.5,1.6-2.3,2.2l-0.4-0.5c0.8-0.6,1.6-1.3,2.3-2.3
				c-1-1.7-1.6-3.7-1.8-6h-0.4v-0.6h4.6c0,2.6-0.6,4.8-1.7,6.6c0.1,0.3,0.5,0.7,0.9,1.2S228.9,100.1,229.2,100.3z M228.1,92.1h-2.9
				c0.1,2,0.6,3.8,1.5,5.4C227.5,96,228,94.2,228.1,92.1z"/>
			<path class="st13" d="M234.4,95.5l-0.4,0.5c-0.2-0.4-0.5-0.8-0.9-1.3v6.1h-0.6v-6.1c-0.4,1.1-0.9,2-1.4,2.8l-0.4-0.5
				c0.7-1.1,1.3-2.4,1.8-3.8h-1.6v-0.6h1.7v-2.3h0.6v2.3h1.1v0.6H233v0.7C233.6,94.5,234,95,234.4,95.5z M241.1,100.3h-5.6v0.5h-0.6
				v-4c-0.3,0.3-0.6,0.6-0.9,0.9l-0.4-0.5c0.8-0.6,1.5-1.5,2-2.4l0.6,0.2c-0.1,0.2-0.3,0.5-0.4,0.7h2.1c-0.1-0.1-0.2-0.3-0.3-0.5
				l0.6-0.3c0.2,0.2,0.3,0.5,0.5,0.7h2.2v0.5h-2.5v0.8h2.2v0.5h-2.2v0.8h2.2v0.5h-2.2v0.9h2.8V100.3z M237,92.3h-0.6v-0.5h-2.2v-0.6
				h2.2v-0.8h0.6V92.3z M237.3,94.6h-2.6v-2h2.6V94.6z M236.7,94v-0.9h-1.5V94H236.7z M237.7,96.9v-0.8h-2.2v0.8H237.7z M237.7,98.3
				v-0.8h-2.2v0.8H237.7z M237.7,99.7v-0.9h-2.2v0.9H237.7z M240.7,94.6h-2.6v-2h2.6V94.6z M241.1,91.7H239v0.5h-0.6v-1.9h0.6v0.8
				h2.1V91.7z M240.1,94v-0.9h-1.5V94H240.1z"/>
			<path class="st13" d="M247,95.9l-0.4,0.5c-0.5-0.7-1-1.3-1.4-1.7v6.1h-0.6v-6c-0.5,1.2-1.1,2.2-1.7,3l-0.4-0.5
				c0.8-1,1.5-2.4,2.1-4.1h-1.9v-0.6h1.9v-2.4h0.6v2.4h1.4v0.6h-1.4v0.6C245.9,94.6,246.5,95.2,247,95.9z M253.1,100.4l-0.4,0.5
				c-1.3-0.6-2.4-1.2-3.2-2c-0.9,0.9-2,1.5-3.3,1.9l-0.4-0.6c1.4-0.4,2.5-1,3.3-1.8c-0.8-1.1-1.3-2.5-1.6-4.2l0.6-0.1
				c0.3,1.6,0.7,2.9,1.4,3.8c0.6-1,0.9-2.6,1-4.8h-3.3v-0.6h3.4c0-0.8,0-1.5,0-2.2h0.6c0,1,0,1.7,0,2.2h1.8v0.6h-1.9
				c0,2.4-0.4,4.2-1.1,5.3C250.7,99.2,251.8,99.8,253.1,100.4z"/>
		</g>
	</g>
	<g>
		<rect x="393.6" y="25.3" class="st11" width="59.1" height="39.2"/>
		<path class="st14" d="M404.5,34.9v-5.9c0-0.5,0-1.1,0.1-1.8h0c-0.1,0.5-0.2,0.8-0.3,1l-2.8,6.7h-0.9l-2.8-6.6
			c-0.1-0.2-0.2-0.5-0.3-1h0c0,0.5,0.1,1.2,0.1,2v5.7h-1.3v-9.1h2l2.5,6c0.2,0.5,0.3,0.9,0.4,1.2h0c0.1-0.2,0.2-0.6,0.4-1.2l2.5-6
			h1.9v9.1H404.5z"/>
		<path class="st14" d="M407.9,26.2c0-0.2,0.1-0.4,0.2-0.6s0.4-0.2,0.6-0.2c0.2,0,0.4,0.1,0.6,0.2s0.2,0.3,0.2,0.6s-0.1,0.4-0.2,0.6
			S409,27,408.7,27s-0.4-0.1-0.6-0.2S407.9,26.4,407.9,26.2z M408,34.9v-6.5h1.4v6.5H408z"/>
		<path class="st14" d="M415.9,34.6c-0.5,0.3-1.1,0.4-1.8,0.4c-0.9,0-1.7-0.3-2.3-0.9s-0.9-1.4-0.9-2.3c0-1.1,0.3-1.9,0.9-2.6
			s1.5-1,2.5-1c0.6,0,1.2,0.1,1.6,0.3v1.3c-0.5-0.3-1-0.5-1.5-0.5c-0.6,0-1.1,0.2-1.5,0.6s-0.6,1-0.6,1.7c0,0.7,0.2,1.2,0.6,1.6
			s0.9,0.6,1.5,0.6c0.5,0,1.1-0.2,1.5-0.5V34.6z"/>
		<path class="st14" d="M421.1,29.8c-0.2-0.1-0.5-0.2-0.8-0.2c-0.4,0-0.8,0.2-1.1,0.6s-0.4,0.9-0.4,1.6v3.2h-1.4v-6.5h1.4v1.3h0
			c0.3-0.9,0.9-1.4,1.7-1.4c0.2,0,0.4,0,0.6,0.1V29.8z"/>
		<path class="st14" d="M421.6,31.7c0-1.1,0.3-1.9,0.9-2.5s1.4-0.9,2.5-0.9c1,0,1.8,0.3,2.3,0.9s0.9,1.4,0.9,2.4
			c0,1-0.3,1.9-0.9,2.5s-1.4,0.9-2.4,0.9c-1,0-1.8-0.3-2.4-0.9S421.6,32.8,421.6,31.7z M423,31.7c0,0.7,0.2,1.3,0.5,1.7
			s0.8,0.6,1.4,0.6c1.2,0,1.9-0.8,1.9-2.3c0-0.7-0.2-1.3-0.5-1.7s-0.8-0.6-1.4-0.6s-1.1,0.2-1.4,0.6S423,31,423,31.7z"/>
		<path class="st14" d="M429.4,33.4c0.6,0.4,1.2,0.6,1.9,0.6c0.9,0,1.3-0.3,1.3-0.8c0-0.2-0.1-0.4-0.3-0.5s-0.6-0.3-1.2-0.6
			c-0.7-0.3-1.1-0.5-1.3-0.8s-0.3-0.6-0.3-1.1c0-0.6,0.3-1.1,0.8-1.4s1.1-0.5,1.9-0.5c0.6,0,1.1,0.1,1.6,0.3v1.2
			c-0.5-0.3-1-0.5-1.7-0.5c-0.3,0-0.6,0.1-0.8,0.2s-0.3,0.3-0.3,0.6c0,0.2,0.1,0.4,0.2,0.5s0.5,0.3,1.1,0.5c0.7,0.3,1.2,0.5,1.4,0.8
			s0.4,0.7,0.4,1.1c0,0.6-0.3,1.1-0.8,1.4s-1.2,0.5-2,0.5c-0.7,0-1.3-0.1-1.8-0.4V33.4z"/>
		<path class="st14" d="M434.9,31.7c0-1.1,0.3-1.9,0.9-2.5s1.4-0.9,2.5-0.9c1,0,1.8,0.3,2.3,0.9s0.9,1.4,0.9,2.4
			c0,1-0.3,1.9-0.9,2.5s-1.4,0.9-2.4,0.9c-1,0-1.8-0.3-2.4-0.9S434.9,32.8,434.9,31.7z M436.3,31.7c0,0.7,0.2,1.3,0.5,1.7
			s0.8,0.6,1.4,0.6c1.2,0,1.9-0.8,1.9-2.3c0-0.7-0.2-1.3-0.5-1.7s-0.8-0.6-1.4-0.6s-1.1,0.2-1.4,0.6S436.3,31,436.3,31.7z"/>
		<path class="st14" d="M446.4,26.5c-0.2-0.1-0.5-0.2-0.7-0.2c-0.7,0-1,0.4-1,1.3v0.9h1.5v1.1h-1.5v5.4h-1.4v-5.4h-1.1v-1.1h1.1v-1
			c0-0.7,0.2-1.3,0.6-1.7s1-0.6,1.6-0.6c0.3,0,0.6,0,0.8,0.1V26.5z"/>
		<path class="st14" d="M450.8,34.9c-0.3,0.1-0.6,0.2-1.1,0.2c-1.2,0-1.8-0.7-1.8-2v-3.5h-1.1v-1.1h1.1v-1.5l1.4-0.4v1.9h1.6v1.1
			h-1.6v3.3c0,0.4,0.1,0.7,0.2,0.9s0.4,0.3,0.7,0.3c0.2,0,0.5-0.1,0.7-0.2V34.9z"/>
		<path class="st14" d="M410.5,44.3c-0.4,0.5-1,1-1.6,1.5v2.9c0,0.4-0.1,0.7-0.3,0.8s-0.4,0.3-0.8,0.3s-1,0.1-2.1,0.1l-0.3-1
			c0.3,0,0.7,0,1,0c0.7,0,1.1,0,1.2-0.1s0.1-0.1,0.1-0.3v-2.1c-1.6,1.2-4.1,2.3-7.4,3.3l-0.5-0.9c2.3-0.6,4.6-1.5,6.9-2.6
			c-2,0.2-4.2,0.4-6.6,0.6l-0.3-1c0.1,0,0.5,0,1.2,0v-5.3h1.5c0.3-0.3,0.5-0.6,0.8-1.1l1.1,0.2c-0.2,0.3-0.4,0.6-0.6,0.8h4.8v4.1
			c0.3-0.2,0.6-0.6,1-1L410.5,44.3z M407.8,42.1v-0.8h-5.5v0.8H407.8z M407.8,43.7v-0.8h-5.5v0.8H407.8z M407.8,45.2v-0.6h-5.5v1.1
			C404.1,45.6,405.9,45.4,407.8,45.2z"/>
		<path class="st14" d="M416.2,39.8c-0.3,0.8-0.8,1.7-1.5,2.6s-1.4,1.7-2.2,2.2l-0.7-0.8c1.5-1,2.7-2.5,3.5-4.5L416.2,39.8z
			 M420.6,43.8c0,1.1,0,2.2-0.1,3.3s-0.2,1.8-0.3,2s-0.3,0.5-0.5,0.6s-0.5,0.2-0.8,0.2c-0.7,0-1.3,0-1.5,0l-0.4-1.1
			c0.6,0,1.1,0.1,1.8,0.1c0.1,0,0.3,0,0.4-0.1s0.2-0.6,0.3-1.5s0.1-1.7,0.1-2.5h-2.6c-0.3,2.4-1.6,4.1-3.8,5.2l-0.8-0.8
			c0.8-0.3,1.6-0.9,2.3-1.6s1.1-1.7,1.2-2.8h-1.9v-1.1H420.6z M422.5,43.8l-0.7,0.9c-1.5-1.3-2.5-2.6-3-4.1h-1.1v-1h1.8
			C420,41.3,421,42.7,422.5,43.8z"/>
		<path class="st14" d="M427.4,41.4H424v-1h1.3c-0.1-0.3-0.2-0.6-0.4-0.9l1.1-0.3c0.1,0.2,0.3,0.6,0.5,1.2h0.9V41.4z M427.1,49.7h-1
			v-0.5h-0.9v0.7h-1v-4.1h2.9V49.7z M427.1,45h-2.9V44h2.9V45z M427.1,43.2h-2.9v-0.9h2.9V43.2z M426.1,48.2v-1.4h-0.9v1.4H426.1z
			 M434.5,47.8c0,0.4-0.1,0.9-0.3,1.3s-0.3,0.7-0.5,0.8s-0.3,0.1-0.4,0.1c-0.5,0-0.9-0.5-1.1-1.4c-0.5,0.6-1,1-1.4,1.3l-0.7-0.7
			c0.3-0.2,0.5-0.4,0.8-0.7h-3v-4.4h3.2v4.2c0.3-0.3,0.6-0.6,0.8-0.9c-0.1-1.1-0.2-2.4-0.2-3.8h-4.2v-0.9h0.9
			c-0.1-0.5-0.2-0.9-0.4-1.4h-0.3v-0.9h1.3c-0.1-0.2-0.2-0.5-0.4-0.8l1.1-0.3c0.2,0.3,0.3,0.7,0.4,1.1h1.2v0.9h-0.3
			c-0.1,0.5-0.2,0.9-0.4,1.4h1c0-1.7,0-2.8,0-3.3l1,0c0,0.9-0.1,2-0.1,3.3h1.7v0.9h-1.7c0,1,0,1.7,0.1,2.3c0.2-0.5,0.4-1.1,0.6-1.9
			l0.9,0.4c-0.4,1.4-0.8,2.4-1.3,3.2c0.1,0.5,0.2,0.9,0.4,1.1c0.1-0.2,0.3-0.7,0.3-1.5L434.5,47.8z M430.1,45.9v-0.8h-1.3v0.8H430.1
			z M430.1,47.7v-0.9h-1.3v0.9H430.1z M430.1,41.4h-1c0.1,0.4,0.3,0.9,0.4,1.4h0.3C429.9,42.3,430,41.8,430.1,41.4z M434.4,42.1
			l-0.9,0.4c-0.1-0.7-0.3-1.4-0.6-2.2l0.8-0.4C434.1,40.5,434.3,41.2,434.4,42.1z"/>
		<path class="st14" d="M441.9,44.9c-0.1,2.4-0.2,3.9-0.5,4.3s-0.7,0.7-1.4,0.7c-0.3,0-0.6,0-1,0l-0.3-1c0.7,0,1.1,0,1.4,0
			c0.3,0,0.5-0.2,0.6-0.6s0.1-1.2,0.2-2.4h-2.3c-0.3,1.8-0.9,3.1-1.8,4l-0.8-0.7c1.2-1.2,1.8-3.1,1.8-5.7h-1v-4h5.2v4h-3.1
			c0,0.5,0,0.9-0.1,1.3H441.9z M440.7,42.6v-1.9h-3v1.9H440.7z M443.9,47.8h-1.1v-7.5h1.1V47.8z M446.1,48.5c0,0.6-0.1,0.9-0.3,1.1
			s-0.6,0.3-1,0.3c-0.6,0-1,0-1.3,0l-0.3-1c0.4,0,0.9,0,1.5,0c0.1,0,0.2,0,0.3-0.1s0.1-0.2,0.1-0.3v-9h1.1V48.5z"/>
		<path class="st14" d="M422.4,60.6h-4.7v3.7h-1.1v-3.7h-4.7v-1.1h4.7v-4.3h-4.4v-1.1h9.9v1.1h-4.4v4.3h4.7V60.6z M415.4,58.6
			l-1,0.5c-0.3-0.9-0.9-1.8-1.5-2.8l1-0.5C414.4,56.6,414.9,57.6,415.4,58.6z M421.6,56.3c-0.5,1.1-1.1,2.1-1.7,2.8l-1-0.5
			c0.6-0.7,1.1-1.6,1.7-2.8L421.6,56.3z"/>
		<path class="st14" d="M434.5,58.2l-0.9,0.7c-0.2-0.4-0.5-0.7-0.7-1.1c-3.1,0.4-5.9,0.6-8.6,0.7l-0.3-1c1.1-0.4,2.4-1.6,3.7-3.8
			L429,54c-0.8,1.3-1.7,2.4-2.8,3.4c1.6-0.1,3.5-0.2,5.9-0.5c-0.5-0.5-1.1-1.1-1.8-1.7l0.9-0.7C432.6,55.8,433.7,57,434.5,58.2z
			 M433.4,64.3h-1.1v-0.5H426v0.5H425v-5h8.5V64.3z M432.4,62.7v-2.3H426v2.3H432.4z"/>
	</g>
	<g>
		<rect x="389.6" y="109.4" class="st11" width="64.5" height="30.5"/>
		<path class="st15" d="M403.2,118.9v-5.9c0-0.5,0-1.1,0.1-1.8h0c-0.1,0.5-0.2,0.8-0.3,1l-2.8,6.7h-0.9l-2.8-6.6
			c-0.1-0.2-0.2-0.5-0.3-1h0c0,0.5,0.1,1.2,0.1,2v5.7H395v-9.1h2l2.5,6c0.2,0.5,0.3,0.9,0.4,1.2h0c0.1-0.2,0.2-0.6,0.4-1.2l2.5-6
			h1.9v9.1H403.2z"/>
		<path class="st15" d="M406.6,110.2c0-0.2,0.1-0.4,0.2-0.6s0.4-0.2,0.6-0.2c0.2,0,0.4,0.1,0.6,0.2s0.2,0.3,0.2,0.6
			s-0.1,0.4-0.2,0.6s-0.4,0.2-0.6,0.2s-0.4-0.1-0.6-0.2S406.6,110.5,406.6,110.2z M406.7,118.9v-6.5h1.4v6.5H406.7z"/>
		<path class="st15" d="M414.7,118.7c-0.5,0.3-1.1,0.4-1.8,0.4c-0.9,0-1.7-0.3-2.3-0.9s-0.9-1.4-0.9-2.3c0-1.1,0.3-1.9,0.9-2.6
			s1.5-1,2.5-1c0.6,0,1.2,0.1,1.6,0.3v1.3c-0.5-0.3-1-0.5-1.5-0.5c-0.6,0-1.1,0.2-1.5,0.6s-0.6,1-0.6,1.7c0,0.7,0.2,1.2,0.6,1.6
			s0.9,0.6,1.5,0.6c0.5,0,1.1-0.2,1.5-0.5V118.7z"/>
		<path class="st15" d="M419.8,113.8c-0.2-0.1-0.5-0.2-0.8-0.2c-0.4,0-0.8,0.2-1.1,0.6s-0.4,0.9-0.4,1.6v3.2h-1.4v-6.5h1.4v1.3h0
			c0.3-0.9,0.9-1.4,1.7-1.4c0.2,0,0.4,0,0.6,0.1V113.8z"/>
		<path class="st15" d="M420.3,115.8c0-1.1,0.3-1.9,0.9-2.5s1.4-0.9,2.5-0.9c1,0,1.8,0.3,2.3,0.9s0.9,1.4,0.9,2.4
			c0,1-0.3,1.9-0.9,2.5s-1.4,0.9-2.4,0.9c-1,0-1.8-0.3-2.4-0.9S420.3,116.8,420.3,115.8z M421.7,115.7c0,0.7,0.2,1.3,0.5,1.7
			s0.8,0.6,1.4,0.6c1.2,0,1.9-0.8,1.9-2.3c0-0.7-0.2-1.3-0.5-1.7s-0.8-0.6-1.4-0.6s-1.1,0.2-1.4,0.6S421.7,115,421.7,115.7z"/>
		<path class="st15" d="M428.1,117.4c0.6,0.4,1.2,0.6,1.9,0.6c0.9,0,1.3-0.3,1.3-0.8c0-0.2-0.1-0.4-0.3-0.5s-0.6-0.3-1.2-0.6
			c-0.7-0.3-1.1-0.5-1.3-0.8s-0.3-0.6-0.3-1.1c0-0.6,0.3-1.1,0.8-1.4s1.1-0.5,1.9-0.5c0.6,0,1.1,0.1,1.6,0.3v1.2
			c-0.5-0.3-1-0.5-1.7-0.5c-0.3,0-0.6,0.1-0.8,0.2s-0.3,0.3-0.3,0.6c0,0.2,0.1,0.4,0.2,0.5s0.5,0.3,1.1,0.5c0.7,0.3,1.2,0.5,1.4,0.8
			s0.4,0.7,0.4,1.1c0,0.6-0.3,1.1-0.8,1.4s-1.2,0.5-2,0.5c-0.7,0-1.3-0.1-1.8-0.4V117.4z"/>
		<path class="st15" d="M433.7,115.8c0-1.1,0.3-1.9,0.9-2.5s1.4-0.9,2.5-0.9c1,0,1.8,0.3,2.3,0.9s0.9,1.4,0.9,2.4
			c0,1-0.3,1.9-0.9,2.5s-1.4,0.9-2.4,0.9c-1,0-1.8-0.3-2.4-0.9S433.7,116.8,433.7,115.8z M435.1,115.7c0,0.7,0.2,1.3,0.5,1.7
			s0.8,0.6,1.4,0.6c1.2,0,1.9-0.8,1.9-2.3c0-0.7-0.2-1.3-0.5-1.7s-0.8-0.6-1.4-0.6s-1.1,0.2-1.4,0.6S435.1,115,435.1,115.7z"/>
		<path class="st15" d="M445.1,110.5c-0.2-0.1-0.5-0.2-0.7-0.2c-0.7,0-1,0.4-1,1.3v0.9h1.5v1.1h-1.5v5.4H442v-5.4h-1.1v-1.1h1.1v-1
			c0-0.7,0.2-1.3,0.6-1.7s1-0.6,1.6-0.6c0.3,0,0.6,0,0.8,0.1V110.5z"/>
		<path class="st15" d="M449.5,118.9c-0.3,0.1-0.6,0.2-1.1,0.2c-1.2,0-1.8-0.7-1.8-2v-3.5h-1.1v-1.1h1.1v-1.5l1.4-0.4v1.9h1.6v1.1
			h-1.6v3.3c0,0.4,0.1,0.7,0.2,0.9s0.4,0.3,0.7,0.3c0.2,0,0.5-0.1,0.7-0.2V118.9z"/>
		<path class="st15" d="M400.7,132.7c-0.9,0.5-2,0.8-3.1,0.8c-1.4,0-2.4-0.4-3.3-1.2s-1.2-1.9-1.2-3.3c0-1.4,0.5-2.6,1.4-3.5
			s2.1-1.4,3.5-1.4c1,0,1.8,0.2,2.5,0.5v1.4c-0.7-0.4-1.6-0.7-2.6-0.7c-1,0-1.7,0.3-2.3,1s-0.9,1.5-0.9,2.5c0,1.1,0.3,1.9,0.8,2.5
			s1.3,0.9,2.3,0.9c0.6,0,1.2-0.1,1.6-0.4v-2.3h-1.9v-1.2h3.3V132.7z"/>
		<path class="st15" d="M406.2,128.2c-0.2-0.1-0.5-0.2-0.8-0.2c-0.4,0-0.8,0.2-1.1,0.6s-0.4,0.9-0.4,1.6v3.2h-1.4v-6.5h1.4v1.3h0
			c0.3-0.9,0.9-1.4,1.7-1.4c0.2,0,0.4,0,0.6,0.1V128.2z"/>
		<path class="st15" d="M407.4,127.3c0.7-0.4,1.4-0.6,2.3-0.6c1.6,0,2.5,0.8,2.5,2.5v4.1h-1.3v-1h0c-0.4,0.8-1.1,1.1-2,1.1
			c-0.6,0-1.1-0.2-1.5-0.5s-0.5-0.8-0.5-1.4c0-1.2,0.7-1.9,2.2-2.1l1.9-0.3c0-1-0.4-1.4-1.3-1.4c-0.8,0-1.5,0.3-2.1,0.8V127.3z
			 M409.4,130.3c-0.5,0.1-0.8,0.2-1,0.4s-0.3,0.4-0.3,0.8c0,0.3,0.1,0.5,0.3,0.7s0.5,0.3,0.8,0.3c0.5,0,0.8-0.2,1.1-0.5
			s0.5-0.7,0.5-1.2v-0.6L409.4,130.3z"/>
		<path class="st15" d="M415.4,132.5v3.9H414v-9.5h1.4v1.1h0c0.5-0.8,1.2-1.2,2.2-1.2c0.8,0,1.5,0.3,1.9,0.9s0.7,1.4,0.7,2.3
			c0,1.1-0.3,1.9-0.8,2.6s-1.3,1-2.2,1C416.5,133.5,415.8,133.2,415.4,132.5L415.4,132.5z M415.4,130.6c0,0.5,0.2,0.9,0.5,1.3
			s0.7,0.5,1.2,0.5c0.6,0,1-0.2,1.3-0.7s0.5-1,0.5-1.8c0-0.7-0.1-1.2-0.4-1.5s-0.7-0.5-1.2-0.5s-1,0.2-1.3,0.6s-0.5,0.9-0.5,1.5
			V130.6z"/>
		<path class="st15" d="M427.5,133.3h-1.4v-3.7c0-1.2-0.4-1.8-1.3-1.8c-0.5,0-0.8,0.2-1.1,0.5s-0.5,0.8-0.5,1.3v3.7h-1.4v-9.6h1.4
			v4.1h0c0.5-0.8,1.2-1.2,2.1-1.2c1.5,0,2.2,0.9,2.2,2.6V133.3z"/>
		<path class="st15" d="M439.8,133.3h-1.5l-0.8-2.4h-3.6l-0.8,2.4h-1.5l3.4-9.1h1.6L439.8,133.3z M437,129.8l-1.3-3.6
			c0-0.1-0.1-0.4-0.1-0.7h0c0,0.3-0.1,0.5-0.1,0.7l-1.3,3.6H437z"/>
		<path class="st15" d="M442.5,130v3.3h-1.4v-9.1h2.7c1,0,1.8,0.2,2.4,0.7s0.8,1.2,0.8,2.1c0,0.9-0.3,1.6-1,2.2s-1.5,0.8-2.4,0.8
			H442.5z M442.5,125.4v3.4h1c1.4,0,2-0.6,2-1.7c0-1.1-0.7-1.7-2-1.7H442.5z"/>
		<path class="st15" d="M450,125.4L450,125.4v6.8v0v1.1h-1.4v-1.1v0v-6.8v0v-1.1h1.4V125.4z"/>
	</g>
	<g>
		<path class="st13" d="M191.4,0.5h-1v9.8h-0.6V7.8c-1,0.4-2.3,0.7-3.9,1.1l-0.2-0.6l1.1-0.2V0.5h-1.1v-0.6h5.7V0.5z M189.8,2.3V0.5
			h-2.4v1.9H189.8z M189.8,4.9V2.9h-2.4v1.9H189.8z M189.8,7.1V5.5h-2.4v2.4C188.1,7.7,188.9,7.4,189.8,7.1z M196.2,9.7l-0.4,0.5
			c-0.8-0.7-1.5-1.4-2.1-2.2c-0.7,0.9-1.5,1.6-2.3,2.2l-0.4-0.5c0.8-0.6,1.6-1.3,2.3-2.3c-1-1.7-1.6-3.7-1.8-6h-0.4V0.9h4.6
			c0,2.6-0.6,4.8-1.7,6.6c0.1,0.3,0.5,0.7,0.9,1.2S195.8,9.5,196.2,9.7z M195.1,1.5h-2.9c0.1,2,0.6,3.8,1.5,5.4
			C194.5,5.4,194.9,3.6,195.1,1.5z"/>
		<path class="st13" d="M200.7,2.5c-0.2,0.4-0.5,1-0.9,1.7v6h-0.6V5c-0.4,0.5-0.8,1-1.2,1.3l-0.4-0.5c1.1-1,2-2.2,2.6-3.6L200.7,2.5
			z M200.6-0.1c-0.7,1.2-1.5,2.1-2.5,2.7l-0.4-0.5c0.9-0.5,1.7-1.3,2.4-2.5L200.6-0.1z M208.1,6.9h-1.5v2.4c0,0.3-0.1,0.6-0.3,0.7
			s-0.6,0.2-1.3,0.2c-0.2,0-0.5,0-0.7,0L204,9.5c0.2,0,0.5,0,0.8,0c0.5,0,0.9,0,1-0.1s0.1-0.2,0.1-0.3V6.9h-5.3V6.3h5.3V5.1h-5.1
			V4.5h6.9v0.6h-1.2v1.2h1.5V6.9z M207.3,3.7h-5.8V0h5.8V3.7z M203.7,9l-0.6,0.3c-0.2-0.5-0.7-1.2-1.3-1.9l0.5-0.3
			C202.9,7.7,203.3,8.3,203.7,9z M206.7,1.5v-1h-4.6v1H206.7z M206.7,3.1v-1h-4.6v1H206.7z"/>
		<path class="st13" d="M213.2,4.9l-0.4,0.5c-0.2-0.4-0.5-0.8-0.9-1.3v6.1h-0.6V4.1c-0.4,1.1-0.9,2-1.4,2.8l-0.4-0.5
			c0.7-1.1,1.3-2.4,1.8-3.8h-1.6V2h1.7v-2.3h0.6V2h1.1v0.6h-1.1v0.7C212.4,3.8,212.9,4.4,213.2,4.9z M220,9.7h-5.6v0.5h-0.6v-4
			c-0.3,0.3-0.6,0.6-0.9,0.9l-0.4-0.5c0.8-0.6,1.5-1.5,2-2.4l0.6,0.2c-0.1,0.2-0.3,0.5-0.4,0.7h2.1c-0.1-0.1-0.2-0.3-0.3-0.5
			l0.6-0.3c0.2,0.2,0.3,0.5,0.5,0.7h2.2v0.5h-2.5v0.8h2.2v0.5h-2.2v0.8h2.2v0.5h-2.2v0.9h2.8V9.7z M215.9,1.6h-0.6V1.1h-2.2V0.5h2.2
			v-0.8h0.6V1.6z M216.1,3.9h-2.6V2h2.6V3.9z M215.6,3.4V2.5h-1.5v0.9H215.6z M216.6,6.3V5.5h-2.2v0.8H216.6z M216.6,7.7V6.8h-2.2
			v0.8H216.6z M216.6,9.1V8.2h-2.2v0.9H216.6z M219.5,3.9h-2.6V2h2.6V3.9z M219.9,1.1h-2.1v0.5h-0.6v-1.9h0.6v0.8h2.1V1.1z M219,3.4
			V2.5h-1.5v0.9H219z"/>
		<path class="st13" d="M225.8,5.3l-0.4,0.5c-0.5-0.7-1-1.3-1.4-1.7v6.1h-0.6v-6c-0.5,1.2-1.1,2.2-1.7,3l-0.4-0.5
			c0.8-1,1.5-2.4,2.1-4.1h-1.9V2h1.9v-2.4h0.6V2h1.4v0.6h-1.4v0.6C224.8,3.9,225.3,4.6,225.8,5.3z M232,9.8l-0.4,0.5
			c-1.3-0.6-2.4-1.2-3.2-2c-0.9,0.9-2,1.5-3.3,1.9l-0.4-0.6c1.4-0.4,2.5-1,3.3-1.8c-0.8-1.1-1.3-2.5-1.6-4.2l0.6-0.1
			c0.3,1.6,0.7,2.9,1.4,3.8c0.6-1,0.9-2.6,1-4.8H226V1.8h3.4c0-0.8,0-1.5,0-2.2h0.6c0,1,0,1.7,0,2.2h1.8v0.6H230
			c0,2.4-0.4,4.2-1.1,5.3C229.6,8.6,230.6,9.2,232,9.8z"/>
	</g>
	<g>
		<path class="st13" d="M215.7,29.5h-6.2c-0.4,0.9-1,1.7-1.6,2.5v6h-0.7v-5.2c-0.6,0.6-1.2,1.1-1.7,1.4l-0.2-0.6
			c1.5-1.2,2.7-2.5,3.5-4.2h-3.5v-0.6h3.8c0.2-0.4,0.4-0.8,0.6-1.4l0.6,0.2c-0.2,0.5-0.4,0.9-0.6,1.2h5.9V29.5z M215.7,34.8h-3v2.4
			c0,0.2-0.1,0.4-0.2,0.5s-0.2,0.3-0.4,0.3s-0.5,0.1-1.1,0.1c-0.3,0-0.6,0-0.9,0l-0.3-0.6c0.3,0,0.6,0,1,0c0.6,0,1,0,1.1-0.1
			s0.2-0.1,0.2-0.2v-2.3h-3.6v-0.6h3.6v-0.9c0.6-0.4,1.2-0.9,1.9-1.6h-4.7v-0.6h5.6v0.6c-0.8,0.8-1.5,1.4-2.2,1.8v0.6h3V34.8z"/>
		<path class="st13" d="M222.8,28.4h-1v9.8h-0.6v-2.5c-1,0.4-2.3,0.7-3.9,1.1l-0.2-0.6l1.1-0.2v-7.6h-1.1v-0.6h5.7V28.4z
			 M221.2,30.2v-1.9h-2.4v1.9H221.2z M221.2,32.8v-1.9h-2.4v1.9H221.2z M221.2,35v-1.6h-2.4v2.4C219.5,35.6,220.3,35.3,221.2,35z
			 M227.6,37.6l-0.4,0.5c-0.8-0.7-1.5-1.4-2.1-2.2c-0.7,0.9-1.5,1.6-2.3,2.2l-0.4-0.5c0.8-0.6,1.6-1.3,2.3-2.3c-1-1.7-1.6-3.7-1.8-6
			h-0.4v-0.6h4.6c0,2.6-0.6,4.8-1.7,6.6c0.1,0.3,0.5,0.7,0.9,1.2S227.3,37.4,227.6,37.6z M226.5,29.4h-2.9c0.1,2,0.6,3.8,1.5,5.4
			C225.9,33.3,226.4,31.5,226.5,29.4z"/>
		<path class="st13" d="M232.8,32.8l-0.4,0.5c-0.2-0.4-0.5-0.8-0.9-1.3v6.1h-0.6V32c-0.4,1.1-0.9,2-1.4,2.8l-0.4-0.5
			c0.7-1.1,1.3-2.4,1.8-3.8h-1.6v-0.6h1.7v-2.3h0.6v2.3h1.1v0.6h-1.1v0.7C232,31.7,232.4,32.3,232.8,32.8z M239.5,37.5H234v0.5h-0.6
			v-4c-0.3,0.3-0.6,0.6-0.9,0.9l-0.4-0.5c0.8-0.6,1.5-1.5,2-2.4l0.6,0.2c-0.1,0.2-0.3,0.5-0.4,0.7h2.1c-0.1-0.1-0.2-0.3-0.3-0.5
			l0.6-0.3c0.2,0.2,0.3,0.5,0.5,0.7h2.2v0.5h-2.5v0.8h2.2v0.5h-2.2v0.8h2.2v0.5h-2.2V37h2.8V37.5z M235.4,29.5h-0.6V29h-2.2v-0.6
			h2.2v-0.8h0.6V29.5z M235.7,31.8h-2.6v-2h2.6V31.8z M235.1,31.3v-0.9h-1.5v0.9H235.1z M236.1,34.2v-0.8H234v0.8H236.1z
			 M236.1,35.5v-0.8H234v0.8H236.1z M236.1,37v-0.9H234V37H236.1z M239.1,31.8h-2.6v-2h2.6V31.8z M239.5,29h-2.1v0.5h-0.6v-1.9h0.6
			v0.8h2.1V29z M238.5,31.3v-0.9H237v0.9H238.5z"/>
		<path class="st13" d="M245.4,33.2l-0.4,0.5c-0.5-0.7-1-1.3-1.4-1.7v6.1H243v-6c-0.5,1.2-1.1,2.2-1.7,3l-0.4-0.5
			c0.8-1,1.5-2.4,2.1-4.1h-1.9v-0.6h1.9v-2.4h0.6v2.4h1.4v0.6h-1.4v0.6C244.3,31.8,244.9,32.5,245.4,33.2z M251.5,37.6l-0.4,0.5
			c-1.3-0.6-2.4-1.2-3.2-2c-0.9,0.9-2,1.5-3.3,1.9l-0.4-0.6c1.4-0.4,2.5-1,3.3-1.8c-0.8-1.1-1.3-2.5-1.6-4.2l0.6-0.1
			c0.3,1.6,0.7,2.9,1.4,3.8c0.6-1,0.9-2.6,1-4.8h-3.3v-0.6h3.4c0-0.8,0-1.5,0-2.2h0.6c0,1,0,1.7,0,2.2h1.8v0.6h-1.9
			c0,2.4-0.4,4.2-1.1,5.3C249.1,36.5,250.2,37.1,251.5,37.6z"/>
	</g>
	<g>
		<path class="st13" d="M192.9,134.4h-1v-4.2h-4.8v4.2h-1v-9.1h1v4h4.8v-4h1V134.4z"/>
		<path class="st13" d="M200.5,126.3h-2.6v8.2h-1v-8.2h-2.6v-0.9h6.2V126.3z"/>
		<path class="st13" d="M207.5,126.3h-2.6v8.2h-1v-8.2h-2.6v-0.9h6.2V126.3z"/>
		<path class="st13" d="M209.9,131v3.4h-1v-9.1h2.4c0.9,0,1.7,0.2,2.2,0.7s0.8,1.1,0.8,2c0,0.9-0.3,1.6-0.9,2.2s-1.4,0.8-2.3,0.8
			H209.9z M209.9,126.3v3.8h1.1c0.7,0,1.3-0.2,1.7-0.5s0.6-0.8,0.6-1.4c0-1.2-0.7-1.8-2.2-1.8H209.9z"/>
		<path class="st13" d="M228.5,135h-0.7v-1h-8.1v1h-0.7v-10.2h9.4V135z M227.9,133.4v-7.9h-8.1v7.9H227.9z M226.1,131.5h-4.6v-4.3
			h4.6V131.5z M225.5,130.9v-3h-3.3v3H225.5z"/>
		<path class="st13" d="M240.9,126H232v3.5c0,2.2-0.3,4-0.9,5.7l-0.5-0.4c0.6-1.5,0.9-3.3,0.9-5.2v-4h4.5c-0.2-0.3-0.3-0.5-0.5-0.8
			l0.6-0.1c0.2,0.3,0.4,0.6,0.5,0.9h4.3V126z M234.1,132.4c-0.4,0.9-0.8,1.6-1.4,2.3l-0.5-0.4c0.5-0.6,1-1.3,1.3-2.2L234.1,132.4z
			 M234.8,126.4c-0.1,0.5-0.4,1-0.7,1.6v3.8h-0.6v-2.9c-0.2,0.2-0.4,0.5-0.7,0.9l-0.4-0.5c1-1,1.6-2,1.9-3.1L234.8,126.4z
			 M240.8,131.7h-5.3v-3c-0.2,0.3-0.5,0.6-0.8,1l-0.4-0.5c0.9-1.1,1.6-2,2-2.9l0.5,0.2c-0.1,0.3-0.3,0.6-0.4,0.9h1.8
			c-0.1-0.2-0.2-0.4-0.5-0.8l0.6-0.2c0.2,0.2,0.4,0.6,0.5,1h1.9v0.6h-2.2v0.7h2v0.6h-2v0.8h2v0.6h-2v0.7h2.2V131.7z M239.2,133.5
			c0,0.4-0.1,0.7-0.2,0.9s-0.3,0.3-0.5,0.4s-0.8,0.1-1.8,0.1c-0.7,0-1.1,0-1.3-0.1s-0.3-0.1-0.4-0.3s-0.2-0.4-0.2-0.7v-1.7h0.6v1.8
			c0,0.2,0.1,0.3,0.2,0.3s0.5,0.1,1.2,0.1c0.8,0,1.2,0,1.3-0.1s0.2-0.1,0.3-0.3s0.1-0.4,0.1-0.8L239.2,133.5z M237.9,128.5v-0.7H236
			v0.7H237.9z M237.9,129.8v-0.8H236v0.8H237.9z M237.9,131.1v-0.7H236v0.7H237.9z M237.8,133.3l-0.5,0.3c-0.4-0.5-0.7-0.9-1-1.2
			l0.5-0.4C237.1,132.4,237.5,132.8,237.8,133.3z M241.1,134.3l-0.5,0.3c-0.4-0.8-0.9-1.5-1.5-2.1l0.5-0.3
			C240.2,132.9,240.7,133.6,241.1,134.3z"/>
	</g>
</g>
</svg>
