<?xml version="1.0" encoding="utf-8"?>
<!-- Generator: Adobe Illustrator 22.1.0, SVG Export Plug-In . SVG Version: 6.00 Build 0)  -->
<svg version="1.1" xmlns="http://www.w3.org/2000/svg" xmlns:xlink="http://www.w3.org/1999/xlink" x="0px" y="0px"
	 viewBox="0 0 104 41" style="enable-background:new 0 0 104 41;" xml:space="preserve">
<style type="text/css">
	.st0{fill:#2F2F2F;}
	.st1{fill:#F25022;}
	.st2{fill:#00A4EF;}
	.st3{fill:#7FBA00;}
	.st4{fill:#FFB900;}
	.st5{fill:#FFFFFF;}
</style>
<g id="Layer_1">
	<title>MS-SymbolLockup</title>
	<rect y="0" class="st0" width="104" height="41"/>
	<rect x="13" y="11" class="st1" width="9" height="9"/>
	<rect x="13" y="21" class="st2" width="9" height="9"/>
	<rect x="23" y="11" class="st3" width="9" height="9"/>
	<rect x="23" y="21" class="st4" width="9" height="9"/>
</g>
<g id="Layer_2">
	<g>
		<path class="st5" d="M59.2,18.3l-0.8,1.1c-1.3-0.6-2.3-1.3-3-1.9v1h-5.7v-0.8c-1.1,0.8-2.1,1.4-3,1.8l-0.8-1
			c1-0.5,1.9-0.9,2.5-1.3c-0.4-0.3-1-0.6-1.5-1l0.9-1c0.7,0.4,1.3,0.8,1.7,1.1c0.5-0.5,1-1,1.4-1.6H47v-1.2h5.3v1.2
			c-0.4,0.9-1.2,1.8-2.1,2.7h5.1c-1.1-1.1-1.9-2.4-2.5-3.9l1.2-0.4c0.2,0.5,0.4,1,0.7,1.5c0.6-0.5,1.1-1,1.5-1.5l1.1,0.7
			c-0.5,0.7-1.1,1.3-1.8,1.9c0.2,0.2,0.4,0.4,0.6,0.7c0.6-0.5,1.2-1.1,1.8-1.8l1,0.7c-0.4,0.7-1,1.3-1.8,2
			C57.5,17.4,58.2,17.9,59.2,18.3z M58.9,26H46.2v-1.2h3.9c-0.2-0.4-0.5-0.8-0.7-1.2l1-0.6h-2.2v-3.6H57v3.6h-2.2l1,0.6
			c-0.2,0.4-0.4,0.8-0.6,1.3h3.7V26z M55.7,21.7v-1.3h-6.2v1.3H55.7z M54.5,22.9h-4c0.4,0.7,0.7,1.3,1,1.8h2.2
			C54,24.1,54.3,23.5,54.5,22.9z"/>
		<path class="st5" d="M74.1,25.3l-1,1c-2.9-2.5-4.7-5.2-5.5-8.2c-1,3.4-2.9,6.1-5.8,8.1l-1-1c1.3-0.9,2.4-1.9,3.4-3.1
			c0.9-1.2,1.7-2.6,2.1-4s0.7-2.4,0.7-2.9l0-0.3h-1.8v-1.3h3.1c0.1,2.9,0.7,5.2,1.7,7C71,22.3,72.4,23.9,74.1,25.3z"/>
	</g>
</g>
</svg>
