<svg xmlns="http://www.w3.org/2000/svg" xmlns:xlink="http://www.w3.org/1999/xlink" viewBox="0 0 668 155"><defs><symbol id="a" viewBox="0 0 49.9 49.9"><path d="M19.5,39.9a12,12,0,0,0,13.7,9.9,11.9,11.9,0,0,0,10-11.9,16.4,16.4,0,0,0-.2-2.2,8.2,8.2,0,0,0,6.9-8.3c0-4.6-3.5-8.4-7.7-8.4H20.3A10.5,10.5,0,0,0,10.1,29.6,10.3,10.3,0,0,0,19.5,39.9Z" fill="#59b4d9"/><path d="M15,22a.9.9,0,0,0-1,1v5a.9.9,0,0,0,1,1H26a.9.9,0,0,0,1-1V23a.9.9,0,0,0-1-1Z" fill="#dd5900"/><path d="M26,28V23H15v5H26m0,2H15a2,2,0,0,1-2-2V23a2,2,0,0,1,2-2H26a2,2,0,0,1,2,2v5A2,2,0,0,1,26,30Z" fill="#a0a1a2"/><path d="M28,22a.9.9,0,0,0-1,1v5a.9.9,0,0,0,1,1H39a.9.9,0,0,0,1-1V23a.9.9,0,0,0-1-1Z" fill="#ba141a"/><path d="M39,28V23H28v5H39m0,2H28a2,2,0,0,1-2-2V23a2,2,0,0,1,2-2H39a2,2,0,0,1,2,2v5A2,2,0,0,1,39,30Z" fill="#a0a1a2"/><path d="M2,22a.9.9,0,0,0-1,1v5a.9.9,0,0,0,1,1H13a.9.9,0,0,0,1-1V23a.9.9,0,0,0-1-1Z" fill="#ba141a"/><path d="M13,28V23H2v5H13m0,2H2a2,2,0,0,1-2-2V23a2,2,0,0,1,2-2H13a2,2,0,0,1,2,2v5A2,2,0,0,1,13,30Z" fill="#a0a1a2"/><path d="M15,15a.9.9,0,0,0-1,1v5a.9.9,0,0,0,1,1H26a.9.9,0,0,0,1-1V16a.9.9,0,0,0-1-1Z" fill="#ba141a"/><path d="M26,21V16H15v5H26m0,2H15a2,2,0,0,1-2-2V16a2,2,0,0,1,2-2H26a2,2,0,0,1,2,2v5A2,2,0,0,1,26,23Z" fill="#a0a1a2"/><path d="M2,8A.9.9,0,0,0,1,9v5a.9.9,0,0,0,1,1H13a.9.9,0,0,0,1-1V9a.9.9,0,0,0-1-1Z" fill="#dd5900"/><path d="M13,14V9H2v5H13m0,2H2a2,2,0,0,1-2-2V9A2,2,0,0,1,2,7H13a2,2,0,0,1,2,2v5A2,2,0,0,1,13,16Z" fill="#a0a1a2"/><path d="M2,15a.9.9,0,0,0-1,1v5a.9.9,0,0,0,1,1H13a.9.9,0,0,0,1-1V16a.9.9,0,0,0-1-1Z" fill="#ba141a"/><path d="M13,21V16H2v5H13m0,2H2a2,2,0,0,1-2-2V16a2,2,0,0,1,2-2H13a2,2,0,0,1,2,2v5A2,2,0,0,1,13,23Z" fill="#a0a1a2"/><path d="M15,1a.9.9,0,0,0-1,1V7a.9.9,0,0,0,1,1H26a.9.9,0,0,0,1-1V2a.9.9,0,0,0-1-1Z" fill="#ba141a"/><path d="M26,7V2H15V7H26m0,2H15a2,2,0,0,1-2-2V2a2,2,0,0,1,2-2H26a2,2,0,0,1,2,2V7A2,2,0,0,1,26,9Z" fill="#a0a1a2"/><path d="M28,8a.9.9,0,0,0-1,1v5a.9.9,0,0,0,1,1H39a.9.9,0,0,0,1-1V9a.9.9,0,0,0-1-1Z" fill="#ba141a"/><path d="M39,14V9H28v5H39m0,2H28a2,2,0,0,1-2-2V9a2,2,0,0,1,2-2H39a2,2,0,0,1,2,2v5A2,2,0,0,1,39,16Z" fill="#a0a1a2"/><path d="M28,15a.9.9,0,0,0-1,1v5a.9.9,0,0,0,1,1H39a.9.9,0,0,0,1-1V16a.9.9,0,0,0-1-1Z" fill="#ba141a"/><path d="M39,21V16H28v5H39m0,2H28a2,2,0,0,1-2-2V16a2,2,0,0,1,2-2H39a2,2,0,0,1,2,2v5A2,2,0,0,1,39,23Z" fill="#a0a1a2"/><path d="M15,8a.9.9,0,0,0-1,1v5a.9.9,0,0,0,1,1H26a.9.9,0,0,0,1-1V9a.9.9,0,0,0-1-1Z" fill="#ba141a"/><path d="M26,14V9H15v5H26m0,2H15a2,2,0,0,1-2-2V9a2,2,0,0,1,2-2H26a2,2,0,0,1,2,2v5A2,2,0,0,1,26,16Z" fill="#a0a1a2"/><path d="M28,1a.9.9,0,0,0-1,1V7a.9.9,0,0,0,1,1H39a.9.9,0,0,0,1-1V2a.9.9,0,0,0-1-1Z" fill="#dd5900"/><path d="M39,7V2H28V7H39m0,2H28a2,2,0,0,1-2-2V2a2,2,0,0,1,2-2H39a2,2,0,0,1,2,2V7A2,2,0,0,1,39,9Z" fill="#a0a1a2"/><path d="M2,1A.9.9,0,0,0,1,2V7A.9.9,0,0,0,2,8H13a.9.9,0,0,0,1-1V2a.9.9,0,0,0-1-1Z" fill="#ba141a"/><path d="M13,7V2H2V7H13m0,2H2A2,2,0,0,1,0,7V2A2,2,0,0,1,2,0H13a2,2,0,0,1,2,2V7A2,2,0,0,1,13,9Z" fill="#a0a1a2"/></symbol></defs><title>OJ104467218</title><rect x="-1" width="668" height="155" fill="#fff"/><rect x="127" y="15" width="230" height="120" fill="#fff"/><rect x="127" y="15" width="230" height="120" fill="#0072c6" opacity="0.25" style="isolation:isolate"/><rect x="467" y="15" width="200" height="140" fill="#fff"/><rect x="467" y="15" width="200" height="140" fill="#3c3c41" opacity="0.15" style="isolation:isolate"/><rect x="-1" y="15" width="105" height="120" fill="#fff"/><rect x="-1" y="15" width="105" height="120" fill="#3c3c41" opacity="0.15" style="isolation:isolate"/><rect x="142" y="65" width="95" height="55" fill="#fff"/><rect x="142" y="65" width="95" height="55" fill="#50e6ff" opacity="0.05" style="isolation:isolate"/><rect x="262" y="65" width="80" height="55" fill="#fff"/><rect x="262" y="65" width="80" height="55" fill="#50e6ff" opacity="0.05" style="isolation:isolate"/><path d="M146.3,7.9a8,8,0,0,1,9.1-6.8,7.8,7.8,0,0,1,6.8,6.6,5.4,5.4,0,0,1,7.7.6h.1a5.3,5.3,0,0,1,1.1,2.1,4.8,4.8,0,0,1,5.8,3.5,4.8,4.8,0,0,1-3.5,5.9H145.2a6.1,6.1,0,0,1,1.1-12.1Z" fill="#fff"/><path d="M146.3,7.9a8,8,0,0,1,9.1-6.8,7.8,7.8,0,0,1,6.8,6.6,5.4,5.4,0,0,1,7.7.6h.1a5.3,5.3,0,0,1,1.1,2.1,4.8,4.8,0,0,1,5.8,3.5,4.8,4.8,0,0,1-3.5,5.9H145.2a6.1,6.1,0,0,1,1.1-12.1Z" fill="#0078d4"/><path d="M146.3,7.9a8,8,0,0,1,9.1-6.8,7.8,7.8,0,0,1,6.8,6.6,5.4,5.4,0,0,1,7.7.6h.1a5.3,5.3,0,0,1,1.1,2.1,4.8,4.8,0,0,1,5.8,3.5,4.8,4.8,0,0,1-3.5,5.9H145.2a6.1,6.1,0,0,1,1.1-12.1Z" fill="none" stroke="#fff" stroke-miterlimit="10"/><path d="M145.4,7.9a8.2,8.2,0,0,0-9.2-6.8,8.3,8.3,0,0,0-6.8,6.6,5.3,5.3,0,0,0-7.7.7h0a5.3,5.3,0,0,0-1.1,2.1,4.8,4.8,0,0,0-5.8,3.5,4.9,4.9,0,0,0,3.5,5.9h28.2a6.1,6.1,0,0,0-1.1-12.1Z" fill="#fff"/><path d="M145.4,7.9a8.2,8.2,0,0,0-9.2-6.8,8.3,8.3,0,0,0-6.8,6.6,5.3,5.3,0,0,0-7.7.7h0a5.3,5.3,0,0,0-1.1,2.1,4.8,4.8,0,0,0-5.8,3.5,4.9,4.9,0,0,0,3.5,5.9h28.2a6.1,6.1,0,0,0-1.1-12.1Z" fill="#0078d4"/><path d="M145.4,7.9a8.2,8.2,0,0,0-9.2-6.8,8.3,8.3,0,0,0-6.8,6.6,5.3,5.3,0,0,0-7.7.7h0a5.3,5.3,0,0,0-1.1,2.1,4.8,4.8,0,0,0-5.8,3.5,4.9,4.9,0,0,0,3.5,5.9h28.2a6.1,6.1,0,0,0-1.1-12.1Z" fill="none" stroke="#fff" stroke-miterlimit="10"/><path d="M137.5,9.7a6.9,6.9,0,0,1,13.6-.2,4.6,4.6,0,0,1,6.6.6h0a4,4,0,0,1,1,1.8,4.1,4.1,0,0,1,5,3,4.2,4.2,0,0,1-3,5H136.5a5.3,5.3,0,0,1-4.1-5.2A5.1,5.1,0,0,1,137.5,9.7Z" fill="#fff"/><path d="M137.5,9.7a6.9,6.9,0,0,1,13.6-.2,4.6,4.6,0,0,1,6.6.6h0a4,4,0,0,1,1,1.8,4.1,4.1,0,0,1,5,3,4.2,4.2,0,0,1-3,5H136.5a5.3,5.3,0,0,1-4.1-5.2A5.1,5.1,0,0,1,137.5,9.7Z" fill="#0078d4"/><path d="M137.5,9.7a6.9,6.9,0,0,1,13.6-.2,4.6,4.6,0,0,1,6.6.6h0a4,4,0,0,1,1,1.8,4.1,4.1,0,0,1,5,3,4.2,4.2,0,0,1-3,5H136.5a5.3,5.3,0,0,1-4.1-5.2A5.1,5.1,0,0,1,137.5,9.7Z" fill="none" stroke="#fff" stroke-miterlimit="10"/><line x1="467" y1="55" x2="362.4" y2="55" fill="none" stroke="#3c3c41" stroke-miterlimit="10"/><polygon points="363.5 51.3 357 55 363.5 58.7 363.5 51.3" fill="#3c3c41"/><line x1="461.6" y1="90.5" x2="357" y2="90.5" fill="none" stroke="#3c3c41" stroke-miterlimit="10"/><polygon points="460.5 86.8 467 90.5 460.5 94.3 460.5 86.8" fill="#3c3c41"/><line x1="136.6" y1="90.5" x2="104.1" y2="90.5" fill="none" stroke="#3c3c41" stroke-miterlimit="10"/><polygon points="135.5 86.8 142 90.5 135.5 94.3 135.5 86.8" fill="#3c3c41"/><line x1="256.6" y1="90.5" x2="237" y2="90.5" fill="none" stroke="#3c3c41" stroke-miterlimit="10"/><polygon points="255.5 86.8 262 90.5 255.5 94.3 255.5 86.8" fill="#3c3c41"/><path d="M20.5,73.9a.6.6,0,0,0,.2.5l.4.5.6.4.5.2a8.6,8.6,0,0,0,.6,2.3l-1.4-.5a6.7,6.7,0,0,1-1.4-.9,5.2,5.2,0,0,1-1-1.1,2.3,2.3,0,0,1-.4-1.4V56.2a3.2,3.2,0,0,1,.3-1.4,4.7,4.7,0,0,1,1-1,3.8,3.8,0,0,1,1.3-.9l1.5-.6,1.5-.4,1.3-.3a26.2,26.2,0,0,1,7.9,0l1.3.3,1.5.4,1.6.6a5.1,5.1,0,0,1,1.3.9,2.8,2.8,0,0,1,.9,1,2.3,2.3,0,0,1,.4,1.4v9.6a7,7,0,0,0-2-.8V59.1a8.8,8.8,0,0,1-2,.9l-2.3.7-2.4.3H27.2l-2.3-.3L22.6,60a7.2,7.2,0,0,1-2-.9Zm8.9-20.7h-2l-2.3.3-2.2.6a7.7,7.7,0,0,0-1.8,1l-.4.5a.8.8,0,0,0,0,1.1l.4.4a7.7,7.7,0,0,0,1.8,1l2.2.6,2.3.3h4l2.3-.3,2.2-.6,1.8-1c.1-.2.3-.3.4-.4a.8.8,0,0,0,0-1.1l-.4-.5-1.8-1-2.2-.6-2.3-.3ZM42,71a4.9,4.9,0,0,1,1.7.6,4.1,4.1,0,0,1,1.3,1,3.8,3.8,0,0,1,.9,1.5,4.7,4.7,0,0,1,.3,1.7,4.1,4.1,0,0,1-.4,1.9,4.4,4.4,0,0,1-1,1.6,5.4,5.4,0,0,1-1.6,1,4.3,4.3,0,0,1-1.9.4H30.4A5.9,5.9,0,0,1,26.2,79a5,5,0,0,1-1.3-1.9,6.1,6.1,0,0,1,0-4.6,5.7,5.7,0,0,1,3.2-3.1,5.9,5.9,0,0,1,2.3-.4l1.4.2a5.3,5.3,0,0,1,2-1.6,6.4,6.4,0,0,1,4.3-.3A5.6,5.6,0,0,1,41,69.4,3.9,3.9,0,0,1,42,71Zm-.7,7.8,1.2-.2.9-.6a3,3,0,0,0,.1-4.2h-.1a1.8,1.8,0,0,0-.9-.6,2.7,2.7,0,0,0-1.2-.3h-1a3.7,3.7,0,0,0-.3-1.5,5.7,5.7,0,0,0-.8-1.3,3.5,3.5,0,0,0-1.3-.8,2.2,2.2,0,0,0-1.6-.3,2.5,2.5,0,0,0-1.2.1,3.3,3.3,0,0,0-1,.6,3.6,3.6,0,0,0-1.5,1.9,3.8,3.8,0,0,0-5,.5,2.7,2.7,0,0,0-.9,1.2,4.2,4.2,0,0,0,0,3.1,4.2,4.2,0,0,0,3.7,2.4Z"/><use width="49.9" height="49.94" transform="matrix(0.64, 0, 0, -0.64, 57.02, 81.94)" xlink:href="#a"/><rect x="624.4" y="24" width="30.5" height="16.45" fill="#fff"/><path d="M656.2,20.3a.6.6,0,0,0-.5-.6H623.8a.6.6,0,0,0-.6.6h0V40.2a.6.6,0,0,0,.6.6h31.9a.6.6,0,0,0,.5-.6Zm-28.5,3.1h-1.6V21.8h1.6Zm3.3,0h-1.6V21.8H631Zm3.3,0h-1.6V21.8h1.6Zm-9.9,1.3H655V39.5H624.4Z"/><path d="M145.3,64.3l-.6-1.4,1.5-.7a3.7,3.7,0,0,1,0-2.1l-1.5-.6.6-1.5,1.5.6a5.4,5.4,0,0,1,1.5-1.5l-.6-1.5,1.4-.6.7,1.5h2.1l.6-1.5,1.5.6-.6,1.5a5.4,5.4,0,0,1,1.5,1.5l1.5-.6.6,1.5-1.5.6a7.4,7.4,0,0,1,0,2.1l1.5.7-.6,1.4-1.5-.6a5.4,5.4,0,0,1-1.5,1.5l.6,1.5-1.5.6-.6-1.5h-2.1l-.7,1.5-1.4-.6.6-1.5a8,8,0,0,1-1.5-1.5Zm6.8-.2,1-.7a2.1,2.1,0,0,0,.6-1,2.7,2.7,0,0,0,.3-1.2,2.4,2.4,0,0,0-.3-1.2,1.7,1.7,0,0,0-.6-1,3,3,0,0,0-1-.7,2.8,2.8,0,0,0-1.3-.3,2.7,2.7,0,0,0-1.2.3,2.3,2.3,0,0,0-1,.7,2.6,2.6,0,0,0-.7,1,2.3,2.3,0,0,0-.2,1.2,2.5,2.5,0,0,0,.2,1.2,3.6,3.6,0,0,0,.7,1l1,.7a2.7,2.7,0,0,0,1.2.3,2.8,2.8,0,0,0,1.3-.3Zm-18.6,4.4-1.7-.7.6-1.4,1.7.7a6.4,6.4,0,0,1,2-2l-.7-1.7,1.4-.6.7,1.7h2.8l.7-1.7,1.5.6-.7,1.7a6.1,6.1,0,0,1,1.9,2l1.7-.7.6,1.4-1.7.7a5,5,0,0,1,0,2.8l1.7.7-.6,1.5-1.7-.7a5.2,5.2,0,0,1-2,1.9l.8,1.7L141,77l-.7-1.7-1.4.2-1.4-.2-.6,1.7-1.5-.6.7-1.7a7.3,7.3,0,0,1-2-1.9l-1.7.7-.6-1.5,1.7-.7a6.1,6.1,0,0,1-.1-1.4A7.1,7.1,0,0,1,133.5,68.5Zm7,5a5,5,0,0,0,1.2-.8,3.8,3.8,0,0,0,.9-1.3,4,4,0,0,0,.3-1.5,4.1,4.1,0,0,0-.3-1.6,5.3,5.3,0,0,0-2.1-2.1,4.1,4.1,0,0,0-1.6-.3,4,4,0,0,0-1.5.3,3.8,3.8,0,0,0-1.3.9,5,5,0,0,0-.8,1.2,3.2,3.2,0,0,0,0,3.1,5.7,5.7,0,0,0,.8,1.3,5.7,5.7,0,0,0,1.3.8,4,4,0,0,0,1.5.3,3,3,0,0,0,1.6-.2Z" fill="#0078d7"/><path d="M272,55H261V77h11Z" fill="#50e6ff"/><path d="M261,60.8h-5.2V71.2H261Z" fill="#0078d4"/><path d="M266.2,60.8H261V71.2h5.2Z" fill="#0078d4"/><path d="M254.6,72.4H250V77h4.6Z" fill="#0078d4"/><path d="M32.6,25.3a10.3,10.3,0,0,1-1.1,2v4.4h-1v-3l-.8.8-.6-.9A11.9,11.9,0,0,0,31.6,25Zm-1,7.1a15.4,15.4,0,0,1-1.5,2.9l-.9-.6a10.1,10.1,0,0,0,1.4-2.6ZM39.5,26a7.3,7.3,0,0,1-.7,2.1l-1-.3.3-.8H34.2a8.6,8.6,0,0,1-1.5,1.7l-.8-.8A10.5,10.5,0,0,0,34.2,25l.9.4a1.6,1.6,0,0,1-.3.6Zm-2,7.8a6.8,6.8,0,0,1-.4,1.3c-.1.2-.4.3-.7.4h-2l-1.9-.2a1.4,1.4,0,0,1-.5-1.2V32h1.1v2.2c0,.1.1.3.2.3h2.5c.2-.1.4-.2.4-.3a4.1,4.1,0,0,0,.3-1Zm-2.6-5.1A11.7,11.7,0,0,1,33,31.3l-.8-.7A9,9,0,0,0,34,28.1ZM36,33.3l-.8.6-1.4-1.8.8-.6A15,15,0,0,1,36,33.3Zm.5-1.5H35.4V27.4h1.1Zm3.2-1.2-.8.6A15,15,0,0,0,37,28.7l.9-.5A13.7,13.7,0,0,1,39.7,30.6Zm.1,4.2-.9.6a16.1,16.1,0,0,0-1.7-2.8l.9-.5A12.4,12.4,0,0,1,39.8,34.8Z"/><path d="M45.9,35.6H44.8v-.8H42.6v.9h-1V26.9h1a9.8,9.8,0,0,0,.8-1.8l1.1.2c-.1.3-.3.9-.6,1.6h2Zm-1.1-5.4V28H42.6v2.2Zm0,3.5V31.2H42.6v2.5ZM51.7,27c0,1.1-.1,2.6-.1,4.5a10.8,10.8,0,0,1-.4,3.2,1.1,1.1,0,0,1-.6.7,5.1,5.1,0,0,1-2.2.3L48,34.6h1.6a.6.6,0,0,0,.5-.2c.2-.1.3-1,.4-2.6s.1-2.9.1-3.8H48.2a11.7,11.7,0,0,1-1.3,2.5l-.8-.8A12.1,12.1,0,0,0,47.9,25l1.1.3c-.1.4-.2,1-.4,1.7Zm-1.8,5.4L49,33a10.6,10.6,0,0,0-1.7-2.6l1-.6A9.6,9.6,0,0,1,49.9,32.4Z"/><path d="M64,28.8l-.5,1-1.1-.3V34H57.3l.5.6a17.3,17.3,0,0,1-4,1.2l-.5-1a13.2,13.2,0,0,0,3.3-.8H54.8V29.5h2.3l-.5-.7a6,6,0,0,0,3.2-1.9l1.1.3-.3.4A12.2,12.2,0,0,0,64,28.8Zm-7.1-.3H53.4v-1h3.5Zm-.1-1.9H53.6v-1h3.2Zm4.5,4.1v-.4H55.9v.4Zm0,1.3v-.5H55.9V32Zm0,1.2v-.5H55.9v.5Zm2.5-6.5L62.7,28l-.9-.5.6-.8H58.6l-1,1.1-.8-.7A7.4,7.4,0,0,0,58.5,25l1,.3c0,.2-.1.3-.2.5h4.5Zm-1.5,2.8-2.4-1.2A6.9,6.9,0,0,1,58,29.5Zm1.6,5.4-.6.9a16.7,16.7,0,0,0-3.5-.7l.5-.9A13.5,13.5,0,0,1,63.9,34.9Z"/><path d="M67.2,30.5a17.2,17.2,0,0,1-.9,3.6l-.9-.5a11.4,11.4,0,0,0,.8-3.3Zm0-2.4-1,.4a21.7,21.7,0,0,0-.7-2.4l1-.3A15.5,15.5,0,0,1,67.2,28.1Zm3.1,1.8H68.7v5.8H67.6V29.9h-2v-1h2V25.1h1.1v3.8h1.6Zm.3,3.4-1,.3a13.1,13.1,0,0,0-.6-3.1l1-.3A14.2,14.2,0,0,1,70.6,33.3Zm.1-7.3a10.3,10.3,0,0,1-.7,2.5l-.9-.4a10.5,10.5,0,0,0,.6-2.4Zm2.6,4.5-.7.8a7.7,7.7,0,0,0-2-2.1l.7-.8A9.7,9.7,0,0,1,73.3,30.5Zm.2-2.9-.8.7a8.1,8.1,0,0,0-1.8-2l.7-.8A12,12,0,0,1,73.5,27.6Zm2.5,5H74.9v3H73.8V32.9l-2.8.5v-1l2.8-.5V25.1h1.1v6.6l1-.2Z"/><path d="M209,35h-1.5l-.9-2.4H203l-.8,2.4h-1.6l3.4-9.1h1.6Zm-2.8-3.5L205,27.9a6.4,6.4,0,0,1-.2-.7h0c-.1.2-.1.5-.2.6l-1.2,3.7Z"/><path d="M214.9,35h-5.5v-.5l3.6-4.9h-3.3V28.5h5.2V29l-3.6,4.9h3.6Z"/><path d="M221.8,35h-1.4V34h-.1a2.1,2.1,0,0,1-2,1.2c-1.5,0-2.3-1-2.3-2.8V28.5h1.4v3.7c0,1.2.5,1.8,1.4,1.8s.9-.1,1.1-.5a1.7,1.7,0,0,0,.5-1.3V28.5h1.4Z"/><path d="M227.4,29.8l-.8-.2a1.4,1.4,0,0,0-1.1.6,2.5,2.5,0,0,0-.4,1.6V35h-1.4V28.5h1.4v1.3h0a1.7,1.7,0,0,1,1.7-1.4h.6Z"/><path d="M233.8,32.1h-4.5a1.8,1.8,0,0,0,2,2,3.1,3.1,0,0,0,2-.7v1.2a4.1,4.1,0,0,1-2.3.6,3,3,0,0,1-2.3-.9,3.7,3.7,0,0,1-.8-2.5,3.7,3.7,0,0,1,.9-2.5,3,3,0,0,1,2.2-1,2.4,2.4,0,0,1,2,.9,3.2,3.2,0,0,1,.8,2.3Zm-1.4-1a1.7,1.7,0,0,0-.4-1.3,1.2,1.2,0,0,0-1-.4,1.4,1.4,0,0,0-1.1.4,3.1,3.1,0,0,0-.6,1.3Z"/><path d="M241.7,27.1H238v-.9h1.5a3.6,3.6,0,0,0-.4-.9l1-.3.5,1.2h1.1Zm-.2,1.8h-3.2V28h3.2Zm0,1.8h-3.2v-1h3.2Zm.1,4.7h-1.1v-.5h-1.2v.7h-1V31.5h3.3Zm-1.1-1.5V32.5h-1.2v1.4Zm2.8-2.2a16,16,0,0,1-.7,3.3l-.8-.6a20.8,20.8,0,0,0,.5-3Zm4.9-6.3c0,.8-.1,1.7-.1,2.5a11.4,11.4,0,0,0-.1,1.5l-.3.4c-.1.2-.3.3-.4.4h-1.5l-.4-.9h1.2c.2,0,.3-.2.4-.4s.1-1,.1-2.5h-1.2a4.9,4.9,0,0,1-3.4,4.4l-.7-.9a3.7,3.7,0,0,0,2-1.2l-1.3-1.1.6-.8a6.9,6.9,0,0,1,1.3,1.1,3.3,3.3,0,0,0,.4-1.5h-2.6v-1Zm-1.1,7.8a4.4,4.4,0,0,1-.2,1.3,1.6,1.6,0,0,1-.5.8,2.9,2.9,0,0,1-1.2.2h-.9c-.2,0-.3-.1-.4-.3a.8.8,0,0,1-.2-.5V31.5h1v2.8h1.1c.1,0,.1-.2.2-.5s.1-.6.1-1Zm-.7-1.4-.8.6-1.5-1.6.7-.6A6.1,6.1,0,0,1,246.4,31.8Zm2.3,2.4-1,.4a16.1,16.1,0,0,0-.9-2.9l.9-.5A21.1,21.1,0,0,1,248.7,34.2Z"/><path d="M255.8,30.9h-2.2c0,.2-.1.3-.1.4a20.1,20.1,0,0,1,2.2,2.8l-.8.7a25,25,0,0,0-1.8-2.4,9.2,9.2,0,0,1-2.3,3.3l-.7-.7a8.8,8.8,0,0,0,2.4-4.1h-2.4v-1h2.6V27.6H252l-1.1,1.6-.9-.7a11.3,11.3,0,0,0,2-3.5l1,.2a3.5,3.5,0,0,1-.6,1.4h3v1h-1.6a21.1,21.1,0,0,1-.1,2.3h2.1Zm4.5,4.5h-1.1v-.9h-2v.9h-1V26h4.1Zm-1.1-1.9V27h-2v6.5Z"/><path d="M265.7,30.4l-1,.5v3.6c0,.7-.4,1.1-1.2,1.1h-.9l-.3-1h.5c.4,0,.7,0,.7-.1s.1-.1.1-.2V31.4l-1.2.4-.3-1a4.5,4.5,0,0,0,1.5-.6V28h-1.4V27h1.4V25h1.1v2h1v1h-1v1.8l.9-.5Zm7.2,4.3-.5.9a16.8,16.8,0,0,1-3.2-.9,19,19,0,0,1-3.6.9l-.5-1A13.6,13.6,0,0,0,268,34a4.9,4.9,0,0,1-1.6-1.9h-.7v-.9h3V25.1h1v6.1H272v.9a5.2,5.2,0,0,1-1.7,1.9Zm-4.5-8.6-1.3.5v.8h1.1v1h-1.1v1h1.1v1h-2.1V25.8a6,6,0,0,0,1.9-.6Zm2.4,6h-3.2a4.4,4.4,0,0,0,1.6,1.4A5.2,5.2,0,0,0,270.8,32.1Zm1.6-1.7h-2.2v-1h1.2v-1h-1.2v-1h1.2v-.9h-1.2v-1h2.2Z"/><path d="M282.8,32.2h2v.9h-2v1.3a1.3,1.3,0,0,1-.3,1,2.2,2.2,0,0,1-1.4.3h-1l-.5-1.1h2c.1,0,.1-.1.1-.3V33.1h-7.4v-.9h7.4v-.4h1.1Zm-3.5-.8-4.7.4-.2-.9h2.1v-.9h-1.8V29h4.4v.9h-1.6v.8l1.8-.2Zm5.3-4.1h-1.2v1.3h-8v-.8h7v-.5h-7.9v-.8h7.9V26h-7v-.8h8v1.3h1.2Zm-5.5,7.1-.7.8a5.3,5.3,0,0,0-2.1-1.1l.7-.9A9.7,9.7,0,0,1,279.1,34.4Zm.7-5.4h4.5v2.5h-4.5Zm3.5.9h-2.5v.8h2.5Z"/><path d="M167.8,79.1a11.4,11.4,0,0,1-.6,2.9l-.9-.5a11,11,0,0,0,.6-2.6Zm2.7-.8-.9.3c0-.2-.1-.4-.1-.6a23,23,0,0,1-2.8.6l-.3-.9a8.6,8.6,0,0,0,1.9-2.5l-1.6.2-.2-1a9.6,9.6,0,0,0,1.8-3.2l1,.4a13.8,13.8,0,0,1-1.6,2.7l1.2-.2a9.8,9.8,0,0,0,.6-1.4l1,.5a25.7,25.7,0,0,1-2.6,4.2l1.3-.3-.3-.7.9-.3A11.1,11.1,0,0,1,170.5,78.3Zm-1.5,3-.9.2a10,10,0,0,0-.1-2.4l.8-.2A9.7,9.7,0,0,1,169,81.3Zm1.2-1.1-.8.2a6.8,6.8,0,0,0-.2-1.5h.7A3.2,3.2,0,0,1,170.2,80.2Zm6.6-8a22.3,22.3,0,0,1-5.1.6v.6h4.8v2.5h-4.8v1.5a9,9,0,0,1-1,4.6l-.8-.7a9.1,9.1,0,0,0,.8-4.5V71.9a24,24,0,0,0,5.6-.6ZM175.5,75v-.7h-3.8V75Zm1.3,6.2c0,.5-.3.7-.9.7h-.2l-.2-.9c.2,0,.4-.1.4-.2V79.6h-.5v2.1h-.8V79.6h-.4v2.1h-.8V79.6H173v2.3h-.9V76.5h4.7Zm-3.4-2.5V77.5H173v1.2Zm1.2,0V77.5h-.4v1.2Zm1.3,0V77.5h-.5v1.2Z"/><path d="M189,78.5h-5.3l-1.6,1.1v1.3l2.3-.5v.9a18.7,18.7,0,0,1-3.4.7l-.3-.9c.2-.1.3-.2.3-.4v-.6a10.2,10.2,0,0,1-2.1.8l-.6-.9a13.7,13.7,0,0,0,3.8-1.5h-3.7v-.9h4.8c-.1-.1-.1-.3-.3-.5h1.2l.3.6H189Zm-3.7-4.3h-2.9v.5h2.4v1.4a.5.5,0,0,1-.3.5c-.1.2-.6.2-1.5.2l-.2-.8h.9c.1,0,.1,0,.1-.2v-.3h-1.4v1.6h-1V75.5H180v1.3h-1V74.7h2.4v-.5h-3v-.9h3v-.5h-1.7l-.4.5-.8-.6a7.1,7.1,0,0,0,1-1.4l.9.3a.5.5,0,0,1-.2.4h1.2v-.7h1V72h2.5v.8h-2.5v.5h2.9Zm3.8,6.9-.6.9q-3.5-.6-4.5-3l1.1-.2A9.4,9.4,0,0,0,186,80a8.8,8.8,0,0,0,1.7-1.2l.9.6a7.4,7.4,0,0,1-1.6,1.2A10.4,10.4,0,0,0,189.1,81.1Zm-2.3-5.7h-1V71.9h1Zm1.8.7a.7.7,0,0,1-.1.5l-.4.4h-1.7l-.3-1h1.4c.1,0,.1-.1.1-.2V71.3h1Z"/><path d="M194.2,80a12.7,12.7,0,0,1-3.1,1.9l-.6-.9a9.9,9.9,0,0,0,2.8-1.6Zm6.4-4h-1V74.7h-7.8V76h-1.1V73.7h4.4V73H191v-.9h4.1v-.7h1.1v.7h4.2V73h-4.2v.7h4.4Zm.1,3.2-.8.6-.7-.9-3,.2v1.7c0,.4-.1.7-.3.8a3.1,3.1,0,0,1-1.8.3l-.3-1h1.3c0-.1.1-.1.1-.3V79.2h-3.9v-.8a21.2,21.2,0,0,0,4-1.4h-3v-.8a10.5,10.5,0,0,0,3.2-1.6l1,.5a11.8,11.8,0,0,1-1.9,1.1h2.5l1.4-.8.8.6c-1.8,1-3.5,1.8-5.1,2.5l4.5-.4a6,6,0,0,0-.8-.8l.9-.5A25.7,25.7,0,0,1,200.7,79.2Zm.2,1.9-.6.7a19.1,19.1,0,0,0-3.2-1.6l.7-.8A18,18,0,0,1,200.9,81.1Z"/><path d="M208.7,76.8c-.1,1.1-.2,2-.3,2.8a6.1,6.1,0,0,1-.3,1.4,1.2,1.2,0,0,1-.5.5.9.9,0,0,1-.7.3h-3.2l-.4-1.1h2.9a1,1,0,0,0,1-.6,16.4,16.4,0,0,0,.3-2.6h-4.6l.5-3.6h4.2V72.5h-4.9v-1h6v3.6h-4.4l-.2,1.7Zm3.6,5.2h-1.1V71.4h1.1Z"/><path d="M205.2,48.8a12.7,12.7,0,0,1-3.1,1.8l-.4-.5a10.3,10.3,0,0,0,3-1.7Zm6.5-4h-.6V43.3h-8.5v1.5H202V42.7h4.6v-1h-4.4v-.6h4.4v-.9h.6v.9h4.4v.6h-4.4v1h4.5Zm.1,3.4-.5.4a8.6,8.6,0,0,0-.7-1l-3.4.3v2c0,.6-.4.9-1.3.9h-.6l-.2-.6h1.3c.1-.1.2-.2.2-.3V47.9h-4.2v-.6a26,26,0,0,0,4.7-1.6l-3.8.2v-.7a14.9,14.9,0,0,0,3.6-1.7l.5.4a11.2,11.2,0,0,1-2.9,1.4H208l.6-.4.9-.6.6.3c-1.3,1.2-3.4,2.1-6.4,2.9a53.3,53.3,0,0,0,6.4-.4l-1-1,.6-.3A9.5,9.5,0,0,1,211.8,48.2Zm.2,2-.4.5a19.3,19.3,0,0,0-3.2-1.9l.5-.4A14.1,14.1,0,0,1,212,50.2Z"/><path d="M219.8,45.8a12.4,12.4,0,0,1-.3,2.7,3.7,3.7,0,0,1-.6,1.6,1.8,1.8,0,0,1-.8.5,6.4,6.4,0,0,1-2,.2h-1l-.2-.7h2.6l.6-.2c.2-.2.4-.3.5-.5a5,5,0,0,0,.3-1.2,9.9,9.9,0,0,0,.2-1.8h-4.9c.2-1.1.4-2.1.5-3.2h4.4v-2h-4.9v-.7h5.6v3.3h-4.5l-.3,2Zm3.5,5h-.6V40.2h.6Z"/><path d="M231.4,46.6l-.4.5a14.1,14.1,0,0,0-1.8-1.7v5.4h-.7V45.2a12.2,12.2,0,0,1-2.4,3.3l-.5-.4a16.2,16.2,0,0,0,2.9-4.2h-2.7v-.6h2.7V41.5l-2.2.3v-.7a17.1,17.1,0,0,0,4.8-.9l.3.6a7.6,7.6,0,0,1-2.1.6v1.9h2.1v.6h-2.1v.7A15.8,15.8,0,0,1,231.4,46.6Zm4.5,4.2h-.7V49.7h-2.7v1.1h-.6V41.6h4Zm-.7-1.7V42.3h-2.7v6.8Z"/><path d="M248.3,44.4l-.3.5a34.9,34.9,0,0,0-4.7-2v1.7h3.6v4.3h-7.7V44.6h3.5V42.3a16.8,16.8,0,0,1-4.6,2.7l-.4-.6a12,12,0,0,0,4.5-2.5h-4.4v-.6h4.9V40.2h.6v1.1h5v.6h-5v.4A25.9,25.9,0,0,1,248.3,44.4Zm0,6.1H237.8v-.6h10.5Zm-2-4.1V45.2h-6.5v1.2Zm0,1.8V47h-6.5v1.2Z"/><path d="M253.9,42.1h-4v-.6h1.8l-.5-1.1.6-.3.6,1.4h1.5Zm-.3,1.7h-3.4v-.5h3.4Zm0,1.8h-3.4V45h3.4Zm-.2,4.9h-.6v-.6h-1.9v.9h-.6v-4h3.1Zm-.6-1.2V47.4h-1.9v1.9Zm7.3-7.5v4.8a28,28,0,0,1-.2,2.9,1.5,1.5,0,0,1-.3.7,1.2,1.2,0,0,1-.7.5h-1.7l-.2-.7h.8a2,2,0,0,0,1.1-.2c.2-.1.3-.2.3-.4a8.3,8.3,0,0,0,.2-2.5c.1-1.6.1-3.1.1-4.7h-3.8a5.1,5.1,0,0,1-.9,1.3h3.3v5.1h-3.4V43.9l-.4.5-.5-.3a20,20,0,0,0,2.4-4l.5.2a4.7,4.7,0,0,1-.6,1.5Zm-2.6,4.1V44.4h-2.2v1.5Zm0,2.3V46.5h-2.2v1.7Z"/><path d="M268,45.8a24.5,24.5,0,0,1-.2,2.7c-.2.9-.4,1.4-.7,1.6a1.5,1.5,0,0,1-.7.5,6.7,6.7,0,0,1-2.1.2h-.9l-.3-.7h2.7l.6-.2c.2-.2.4-.3.5-.5a5,5,0,0,0,.3-1.2c.1-.5.1-1.2.2-1.8h-4.9c.2-1.1.4-2.1.5-3.2h4.4v-2h-5v-.7H268v3.3h-4.4l-.3,2Zm3.6,5h-.7V40.2h.7Z"/><path d="M279.3,42.1a16.3,16.3,0,0,1-.1,2.5c-.1.6-.3.9-.9.9h-.4l-.2-.5h.5l.4-.2a7.7,7.7,0,0,0,.1-2.1h-3.4a4.7,4.7,0,0,1-1,1l-.4-.4a5.2,5.2,0,0,0,1.4-1.6h.5l-.2.3Zm5.2,7h-4.9v.8a.8.8,0,0,1-.3.7h-1.8l-.3-.6h1.6a.5.5,0,0,0,.2-.4v-.6h-5v-.5h5v-.8h-4.3v-.6H279v-.8h-3.7l-.2-.5a41.5,41.5,0,0,0,7.9-.7l.3.5a17.4,17.4,0,0,1-3.7.5v.9h4.3v.6h-4.3v.8h4.9Zm-8-7.3H276v-.5h-1.9v-.5H276v-.6h.5Zm1.2,2.9h-2.6V43.2h2.6Zm-.6-.5v-.5h-1.5v.5Zm3.1-2.9h-1.9v.4h-.6V40.2h.6v.6h1.9Zm4.3,3.6-.2.5a4.7,4.7,0,0,1-2.2-1l-2.2,1-.2-.5,1.9-.8a3.1,3.1,0,0,1-.8-1l.5-.2.7.8a3.3,3.3,0,0,0,1.2-1.9h-2a7.4,7.4,0,0,1-1.2,1.6l-.4-.4a7,7,0,0,0,1.7-2.8h.6l-.4,1h2.9v.5h-.6a5.2,5.2,0,0,1-1.3,2.3A7,7,0,0,0,284.5,44.9Z"/><path d="M409.8,21.2h-3.4v1h2.9V25h-9.6V22.2h2.8v-1h-3.3v-.9h10.6Zm0,5.9H407a5.3,5.3,0,0,1-1.2,1.4l3.7,1.2-.4.9-4.3-1.4a10.8,10.8,0,0,1-5.2,1.4l-.4-1a14.6,14.6,0,0,0,4.2-.7l-2.4-.5,1.1-1.3h-2.9v-1h3.5a4.7,4.7,0,0,0,.6-.9l1.1.2-.5.7h2.4l.4-.6,1,.2a.8.8,0,0,1-.2.4h2.3Zm-7.3-3V23h-1.8v1.1Zm3.2,3h-2.4l-.6.7,1.8.4Zm-.4-4.9v-1h-1.7v1Zm0,1.9V23h-1.7v1.1Zm2.9,0V23h-1.8v1.1Z" fill="#1e1e1e"/><path d="M415.8,26.8a20.4,20.4,0,0,1-3.9,3l-.6-.9a20.1,20.1,0,0,0,3.9-3Zm6.2,2-.6.9a8.8,8.8,0,0,1-4.1-3.3v2.9a1.1,1.1,0,0,1-.3.8,1.3,1.3,0,0,1-.9.4h-1.4l-.4-1h1.5c.3,0,.4-.2.4-.5V23h-4.8V21.9h4.8V20.1h1.1v1.8h4.6V23h-4.6v1.5a5.3,5.3,0,0,0,.6,1,14.8,14.8,0,0,0,2.6-2.1l.9.7a26.7,26.7,0,0,1-2.9,2.3A8.9,8.9,0,0,0,422,28.8Zm-7-3.5-.8.7a10.8,10.8,0,0,0-2.2-1.9l.8-.8A13.7,13.7,0,0,1,415,25.3Zm5.8-4.1-1,.6a5.3,5.3,0,0,0-1.4-1.2l1-.5Z" fill="#1e1e1e"/><path d="M373.7,46.6a8.5,8.5,0,0,1-1.9-5.5,9.1,9.1,0,0,1,1.9-5.7h.9a8.6,8.6,0,0,0-1.9,5.6,8.5,8.5,0,0,0,1.9,5.6Z" fill="#1e1e1e"/><path d="M382.2,44.5h-1.1L379.6,42a3.8,3.8,0,0,0-.8-1.1,1.6,1.6,0,0,0-.9-.3H377v3.9h-1V35.4h2.6a2.4,2.4,0,0,1,1.9.7,2.1,2.1,0,0,1,.7,1.7,2.4,2.4,0,0,1-1.9,2.5h0c.3.1.4.3.6.5s.4.5.7,1ZM377,36.4v3.3h1.4a1.7,1.7,0,0,0,1.3-.5,1.4,1.4,0,0,0,.5-1.3,1.4,1.4,0,0,0-.4-1.1,2,2,0,0,0-1.4-.4Z" fill="#1e1e1e"/><path d="M388.3,44.5h-4.6V35.4h4.4v.9h-3.5v3.1h3.2v1h-3.2v3.2h3.7Z" fill="#1e1e1e"/><path d="M389.7,43a2.8,2.8,0,0,0,1.1.5l1.3.3c1.2,0,1.9-.5,1.9-1.5a1.9,1.9,0,0,0-.2-.7l-.5-.6-1.4-.7a8.4,8.4,0,0,1-1.8-1.3,2.8,2.8,0,0,1-.3-1.3,2.2,2.2,0,0,1,.8-1.8,3.8,3.8,0,0,1,2.2-.6,3.9,3.9,0,0,1,1.8.3v1.2a3.2,3.2,0,0,0-2-.6,1.8,1.8,0,0,0-1.3.4,1,1,0,0,0-.5,1,1.5,1.5,0,0,0,.1.7l.5.5,1.3.7a10.6,10.6,0,0,1,1.8,1.3,2.7,2.7,0,0,1,.5,1.4,2.2,2.2,0,0,1-.8,1.8,3.3,3.3,0,0,1-2.3.7l-1.2-.2-1-.3Z" fill="#1e1e1e"/><path d="M402,36.3h-2.5v8.2h-.9V36.3H396v-.9h6Z" fill="#1e1e1e"/><path d="M411.6,42.9c-1.6.5-3.3.8-5.2,1.2v-.6c1.8-.4,3.6-.7,5.2-1.2Zm4.7-.3A3.9,3.9,0,0,1,416,44a1.5,1.5,0,0,1-.5,1h-.4c-.4,0-.7-.2-1.1-.7a3.7,3.7,0,0,1-.9-1.4,14.3,14.3,0,0,1-2.3,2l-.4-.5a10.3,10.3,0,0,0,2.4-2.2,26.4,26.4,0,0,1-.6-5.5h-5.8v-.6h5.8a7.1,7.1,0,0,1-.1-1.6h.6a6.2,6.2,0,0,0,.1,1.6h3.4v.6h-3.4a32.2,32.2,0,0,0,.5,4.8A15.2,15.2,0,0,0,415,38l.5.2a13.6,13.6,0,0,1-2,4.2,5.3,5.3,0,0,0,.8,1.5c.3.4.6.6.8.6a.1.1,0,0,0,.1-.1c.1,0,.2-.3.3-.7s.2-.9.3-1.5ZM411,41.5h-3.9V38.2H411Zm-.6-.6v-2h-2.7v2Zm5.1-5.2-.4.3a5.9,5.9,0,0,0-1.1-.8l.4-.5A5,5,0,0,1,415.5,35.7Z" fill="#1e1e1e"/><path d="M421.1,44c0-.2,0-.4.2-.5a.5.5,0,0,1,.4-.2l.5.2a.8.8,0,0,1,.2.5c0,.2-.1.3-.2.5l-.5.2a.5.5,0,0,1-.4-.2A.6.6,0,0,1,421.1,44Z" fill="#1e1e1e"/><path d="M431.4,44.5h-1.2l-4.6-7.3a1.4,1.4,0,0,1-.2-.6h-.1a3.8,3.8,0,0,1,.1,1.3v6.6h-1V35.4h1.3l4.4,7.3a2.5,2.5,0,0,0,.4.6h0a4.5,4.5,0,0,1-.1-1.3V35.4h1Z" fill="#1e1e1e"/><path d="M438.5,44.5h-4.6V35.4h4.4v.9h-3.4v3.1H438v1h-3.1v3.2h3.6Z" fill="#1e1e1e"/><path d="M445.5,36.3H443v8.2h-1V36.3h-2.5v-.9h6Z" fill="#1e1e1e"/><path d="M446.1,46.6A8.5,8.5,0,0,0,448,41a9.2,9.2,0,0,0-1.9-5.6h.8a8.5,8.5,0,0,1,1.9,5.7,8,8,0,0,1-1.9,5.5Z" fill="#1e1e1e"/><path d="M10.6,102a7.4,7.4,0,0,1-1.8-5.1,7.6,7.6,0,0,1,1.8-5.1h.8a7.9,7.9,0,0,0-1.8,5.1,7.6,7.6,0,0,0,1.8,5.1Z"/><path d="M21.5,100.3H14.4v.4h-.7V95.9a8.9,8.9,0,0,1-1.4,1.3l-.4-.4a12.2,12.2,0,0,0,3-3.5H12.2v-.5h3a17.1,17.1,0,0,0,.7-1.8h.6a12.2,12.2,0,0,1-.7,1.7h5.5v.5H15.6a14,14,0,0,1-1.2,1.8v4.6h3.1V96.6H15.1v-.5h2.4V94h.6v2.1h2.7v.5H18.1v3.1h3.4Z"/><path d="M32.2,98.2H29.1a14.8,14.8,0,0,1,2.6,2.1l-.4.4-.8-.8c-2.7.4-4.9.6-6.7.7v-.5a6.4,6.4,0,0,0,2.2-1.9H22.6v-.6h9.6ZM32,95.1h-.6V93.2H27.6v2.5h-.5V93.2H23.4V95h-.6V92.7h4.3v-.9H23.2v-.5h8.4v.5h-4v.9H32Zm-.7,1.6H23.5v-.5h7.8Zm-4.6-1.4-2.7.5-.2-.5a14.6,14.6,0,0,0,2.7-.5Zm-.1-1.2-.2.4a10,10,0,0,0-2.4-.4v-.5Zm3.3,5.4-1.3-1,.3-.3H26.6a11.2,11.2,0,0,1-1.9,1.9Zm1-5.5a9.2,9.2,0,0,1-2.5.5l-.2-.4a12.2,12.2,0,0,0,2.5-.5Zm.1,1.4-.2.4-2.6-.6.2-.4A9.1,9.1,0,0,1,31,95.4Z"/><path d="M36.7,93.3H36l.4.4c-.1,1.2-.3,2.9-.7,5.3l.9-.3v.6l-3.2.9-.2-.6.9-.2a40.1,40.1,0,0,0-.4-5.7l.4-.4h-.7v-.5h1.4a8.8,8.8,0,0,0-.5-1.5l.5-.2a16.2,16.2,0,0,1,.6,1.7h1.3Zm-.9,0H34.2c.3,2.1.4,4.1.5,6l.4-.2A30.6,30.6,0,0,0,35.8,93.3Zm7.1,1.9H40l-.5,1.2h2.9v3.5c0,.5-.3.8-.9.8h-.3v-.6h.4c.3,0,.4-.1.4-.3V96.9h-1v3.4h-.6V96.9H39.2v3.4h-.5V96.9H37.6v3.8h-.5V96.4h1.8l.5-1.2H36.7v-.6h6.2Zm-.6-1.7h-5V91.6h.5V93h1.7V91.1H40V93h1.7V91.6h.6Z"/><path d="M52.9,97.4H49.1v3.3h-.6V97.4H44.6V93h3.9V91.1h.6V93h3.8Zm-4.4-.6V93.6H45.2v3.2Zm3.8,0V93.6H49.1v3.2Z"/><path d="M59.6,98.7l-4.9,1v-.5l5-1.1Zm4.6-.3a10.4,10.4,0,0,0-.3,1.2,3.1,3.1,0,0,1-.5.9l-.4.2c-.4,0-.7-.2-1.1-.7a3.8,3.8,0,0,1-.9-1.3,12.9,12.9,0,0,1-2.1,1.9l-.4-.5a9.2,9.2,0,0,0,2.3-2,22.7,22.7,0,0,1-.6-5H54.7v-.6h5.5c0-.3-.1-.8-.1-1.4h.6v1.4H64v.6H60.8a28.1,28.1,0,0,0,.5,4.4,16.9,16.9,0,0,0,1.6-3.3h.5a14.2,14.2,0,0,1-1.9,3.9,6.1,6.1,0,0,0,.7,1.4l.7.5h.2c.1,0,.2-.3.3-.7a13,13,0,0,0,.3-1.3Zm-5.2-1H55.4v-3H59Zm-.5-.6V94.9H56v1.9ZM63.4,92l-.5.4a2.4,2.4,0,0,0-1-.8l.4-.4A3.8,3.8,0,0,1,63.4,92Z"/><path d="M67.7,94.5A3,3,0,0,1,69,96.9a1.1,1.1,0,0,1-1.4,1.2H67l-.2-.6h1.4c.2-.1.2-.3.2-.5a2.9,2.9,0,0,0-1.3-2.3,22.4,22.4,0,0,0,1.1-2.8h-2v8.9h-.6V91.3h3.2v.6C68.4,93,68,93.8,67.7,94.5Zm7.1-1.3H71.3v1.7h3.1c0,1.3,0,2.4-.1,3.4a7.5,7.5,0,0,1-.3,1.7.8.8,0,0,1-.5.5H71.8l-.3-.5h1.7l.3-.4a11.9,11.9,0,0,0,.1-1.5c.1-.9.1-1.8.2-2.6H71.2a6.6,6.6,0,0,1-.6,2.7,6.9,6.9,0,0,1-1.9,2.5l-.6-.3a6,6,0,0,0,1.8-2.1,5.2,5.2,0,0,0,.7-2.5,23.5,23.5,0,0,0,.1-2.6H69v-.6h2.7a4.1,4.1,0,0,0-.8-1.4l.6-.2a6.5,6.5,0,0,1,.9,1.6h2.4Z"/><path d="M85.6,100.3l-.4.5a8.5,8.5,0,0,1-4.5-5.6c-.4,2.3-1.8,4.1-4.4,5.6l-.3-.5a13.9,13.9,0,0,0,2.7-2.1A6.3,6.3,0,0,0,80.2,95c.1-1.2.2-2.5.2-4H81v1.7a9.4,9.4,0,0,0,.5,3,15.2,15.2,0,0,0,3.1-3.2l.4.4a20.7,20.7,0,0,1-3.3,3.4A8.8,8.8,0,0,0,85.6,100.3Zm-6.4-4.4-.5.3A12.2,12.2,0,0,0,76.5,93l.5-.3A14.1,14.1,0,0,1,79.2,95.9Z"/><path d="M89.4,100.7h-.5V96.4H87.8a8.3,8.3,0,0,1-.8,4.2l-.4-.3a9,9,0,0,0,.7-3.9h-.7v-.5h2.3V94.4H87.1V91.6h.5v2.2h1.3V91.1h.5Zm6.8-5H89.9v-.6h2.9V92.4H90.1v-.5h2.7v-.8h.5v.8h2.6v.5H93.3v2.7h2.9Zm-3.8-1.2-.4.4a3,3,0,0,0-.9-1,3.5,3.5,0,0,1-.7.9l-.5-.3a4.3,4.3,0,0,0,1.3-1.9l.4.2a3.9,3.9,0,0,1-.2.6Zm3.3,6.2h-.6v-.5H90.9v.5h-.6V96.4h5.4Zm-.6-1V96.9H90.9v2.8Zm-.7-.6H91.6V97.4h2.8Zm-.6-.5v-.7H92.2v.7ZM96,94.5l-.3.3-.9-.9-.8.9-.4-.3a4,4,0,0,0,1.1-1.9h.5a2.5,2.5,0,0,1-.2.7A5,5,0,0,1,96,94.5Z"/><path d="M43.9,106.7a9.1,9.1,0,0,1-1.1,1.6v5.6h-.6v-4.8l-1.1,1.2-.4-.5a15.9,15.9,0,0,0,2.7-3.3Zm-.4-2.2a9.1,9.1,0,0,1-2.4,2.4l-.3-.5a7.6,7.6,0,0,0,2.2-2.2Zm6.9,8.8-.2.6a12.7,12.7,0,0,1-3.3-1.2,18,18,0,0,1-3.5,1.2l-.2-.5a15.1,15.1,0,0,0,3.2-1.1,10,10,0,0,1-1.5-1.3l-1.1.8-.4-.5,1.2-.7-.5-.6.5-.4c0,.2.2.4.4.6a6.2,6.2,0,0,0,.9-1.2H44v-.6a11,11,0,0,0,2.8-1.5H44.3v-.5a8.8,8.8,0,0,0,2.8-2.4l.6.2a6.4,6.4,0,0,1-2.3,2.1h2.3l1.4-1.2.5.2a16.2,16.2,0,0,1-4.2,3.1l3.7-.3-.7-.9.5-.3a13.8,13.8,0,0,1,1.6,2.3l-.5.3a4.1,4.1,0,0,0-.5-.9l-2.9.3a4.4,4.4,0,0,1-.6,1h3.5v.5a9.7,9.7,0,0,1-1.9,1.8A9.1,9.1,0,0,0,50.4,113.3Zm-1.8-2.8H45.4a6.4,6.4,0,0,0,1.5,1.4A7.3,7.3,0,0,0,48.6,110.5Z"/><path d="M61,105.1H56.7c-.3.5-.5,1-.7,1.4h4.2v7.3h-.5v-.6H52.8v.6h-.6v-7.3h3.1a6.1,6.1,0,0,0,.7-1.4H51.4v-.6H61Zm-6.7,7.5v-5.5H52.8v5.5Zm3.2-4.2v-1.3H54.9v1.3Zm0,2.1V109H54.9v1.5Zm0,2.1V111H54.9v1.6Zm2.2,0v-5.5H58.1v5.5Z"/><path d="M61.5,115.2a7.6,7.6,0,0,0,1.8-5.1,7.9,7.9,0,0,0-1.8-5.1h.8a7.6,7.6,0,0,1,1.8,5.1,7.4,7.4,0,0,1-1.8,5.1Z"/><path d="M154.5,98.3a8.3,8.3,0,0,1-1.9-5.6,8.5,8.5,0,0,1,1.9-5.6h.9a8.7,8.7,0,0,0-2,5.6,8.5,8.5,0,0,0,2,5.6Z"/><path d="M160.1,91.6l-.5.4a5.9,5.9,0,0,0-1-1.6v6.4H158V91a11,11,0,0,1-1.3,2.5l-.4-.5a15,15,0,0,0,1.7-3.6h-1.5v-.6H158V86.3h.6v2.5h1.3v.6h-1.3A9.1,9.1,0,0,1,160.1,91.6Zm2.2,3.1a12,12,0,0,1-2.1,1.9l-.4-.5a8.4,8.4,0,0,0,2.1-1.8Zm4.5-1.1h-3.1v3.2h-.6V93.6h-3.2V93h6.9Zm0-6.4h-2.2v.9h1.8v2.6h-6.1V88.1h1.8v-.9H160v-.6h6.8Zm-.4,4.9h-6v-.6h6Zm-4.3-2V88.6H161v1.5Zm1.9-2v-.9h-1.2v.9Zm0,2V88.6h-1.2v1.5Zm2.9,6-.5.5a12.4,12.4,0,0,0-2-1.9l.5-.4A20,20,0,0,1,166.9,96.1Zm-1.1-7.5h-1.2v1.5h1.2Z"/><path d="M178.8,94.8h-4.9v2.1h-.6V94.8h-4.9v-.6h4.9V93.1h-1.2V89.2l-.9,1-.4-.5a9.3,9.3,0,0,0,2.3-3.4l.6.2-.6,1.2h2.3a2.8,2.8,0,0,0-.5-1.2h.6l.6,1.3h2.4v.6h-2.7v1h2.3v.6h-2.3v1h2.3v.6h-2.3v1h2.9v.6h-4.8v1.1h4.9Zm-8.2-4.9-.3.5a10.9,10.9,0,0,0-1.9-1l.4-.5A8.1,8.1,0,0,1,170.6,89.9Zm.7,1.5a12.8,12.8,0,0,1-2.5,2.3l-.3-.5a12.4,12.4,0,0,0,2.4-2.3Zm.1-3.7-.4.5a9.1,9.1,0,0,0-1.9-1.3l.4-.5A10.4,10.4,0,0,1,171.4,87.7Zm3.7,1.6v-1h-2.4v1Zm0,1.6v-1h-2.4v1Zm0,1.6v-1h-2.4v1Z"/><path d="M185.8,94.6l-5.3,1.2-.2-.6,5.4-1.2Zm5-.3-.4,1.4a1.9,1.9,0,0,1-.5,1h-.4a1.5,1.5,0,0,1-1.2-.7,5.5,5.5,0,0,1-.9-1.4,11.6,11.6,0,0,1-2.4,2l-.4-.5a9.2,9.2,0,0,0,2.5-2.2,27.2,27.2,0,0,1-.6-5.5h-6v-.6h5.9V86.3h.6v1.6h3.6v.6h-3.5a32.2,32.2,0,0,0,.5,4.8,12.1,12.1,0,0,0,1.7-3.6l.6.2a16.3,16.3,0,0,1-2,4.2,2.8,2.8,0,0,0,.8,1.5,1.5,1.5,0,0,0,.7.6c.1,0,.2,0,.2-.1a1.5,1.5,0,0,0,.3-.7l.3-1.5Zm-5.6-1.1h-4V89.9h4Zm-.6-.6v-2h-2.8v2Zm5.3-5.2-.5.3-1.1-.8.5-.5Z"/><path d="M202.8,96.5H192.4v-.6h3.3l-.5-1h-1.5v-2h7.7v2h-1.5l-.4,1h3.3Zm-.7-5.5h-9V86.6h.5v3.8h1.6v-.7h-1.1v-.5h1.1v-.7h-.9v-.4h.9v-.7h-1.1V87h1.1v-.5h.5V87h1.1v.4h-1.1v.7h1v.4h-1v.7h1.1v.5h-1.1v.7h1.6V86.3h.6v4.1h1.5v-.7h-1v-.5h1v-.7h-.9v-.4h.9v-.7h-1V87h1v-.5h.6V87h1v.4h-1v.7h.8v.4H200v.7h1v.5h-1v.7h1.5V86.6h.6Zm-.4,1.2h-8.2v-.5h8.2Zm-.9,2.2v-1h-6.5v1Zm-1.5.5h-3.5a3.1,3.1,0,0,1,.5,1h2.6A10.4,10.4,0,0,0,199.3,94.9Z"/><path d="M214.4,89.4h-.6V87.7h-8.4v1.7h-.6V87.1h4.4a1.3,1.3,0,0,0-.3-.7h.6l.4.8h4.5Zm-.3,7.4h-.6v-.5h-7.8v.5h-.6v-4h9Zm-4.8-2.6v-.9h-3.6v.9Zm0,1.5v-.9h-3.6v.9Zm3.9-3.8H206v-2h7.2ZM213,89h-6.8v-.5H213Zm-.5,2.3v-.9h-5.9v.9Zm1,2.9v-.9h-3.6v.9Zm0,1.5v-.9h-3.6v.9Z"/><path d="M226.8,96.6H216.4V96h4.9V94.3h-4.2v-.6h4.2V92.4h.6v1.3H226v.6h-4.1V96h4.9Zm-4-6.8H221v2.7h-.6V89.8h-1.6a4.3,4.3,0,0,1-1.7,3.1l-.5-.5a3.7,3.7,0,0,0,1.6-2.6h-1.8v-.6h1.8a13.4,13.4,0,0,0,.1-1.9h-1.5v-.6h5.8v.6H221v1.9h1.8Zm-2.4-.6V87.3h-1.5a14.9,14.9,0,0,1-.1,1.9Zm3.8,1.7h-.6v-4h.6Zm2.1,1a1.4,1.4,0,0,1-.2.6l-.5.3h-1.7l-.3-.7h1.7l.3-.2V86.4h.7Z"/><path d="M190,110.6h-1.1l-1-2.6H184l-.9,2.6H182l3.5-9.1h1Zm-2.4-3.5-1.5-3.9a3.5,3.5,0,0,1-.1-.6h0c-.1.3-.1.5-.2.6l-1.4,3.9Z"/><path d="M192.4,110.6h-1v-9.1h1Z"/><path d="M193.7,112.7a8.5,8.5,0,0,0,2-5.6,8.7,8.7,0,0,0-2-5.6h.9a8.5,8.5,0,0,1,2,5.6,8.3,8.3,0,0,1-2,5.6Z"/><path d="M283.5,87.3a12.7,12.7,0,0,1-3.1,1.8l-.4-.4a15.8,15.8,0,0,0,3-1.8Zm6.5-3.9h-.6V81.9h-8.5v1.5h-.6V81.3h4.5V80.2h-4.3v-.6h4.3v-.8h.7v.8h4.3v.6h-4.3v1.1H290Zm.1,3.3-.5.4-.8-1-3.3.3v2c0,.6-.4.9-1.3.9h-.6l-.2-.6h1.3a.4.4,0,0,0,.1-.3V86.5h-4v-.6a36.8,36.8,0,0,0,4.7-1.5h-3.8v-.6a15.2,15.2,0,0,0,3.6-1.8l.5.4a15.4,15.4,0,0,1-2.9,1.5h3.4l.7-.3.9-.6.6.3A16,16,0,0,1,282,86a50.6,50.6,0,0,0,6.3-.4l-.9-1,.5-.3A16,16,0,0,1,290.1,86.7Zm.1,2-.4.5a13.3,13.3,0,0,0-3.1-1.8l.4-.5A12.1,12.1,0,0,1,290.2,88.7Z"/><path d="M298,84.3a12.4,12.4,0,0,1-.3,2.7,3.7,3.7,0,0,1-.6,1.6,1.8,1.8,0,0,1-.8.5,6.4,6.4,0,0,1-2,.2h-.9l-.3-.7h2.6l.7-.2.4-.5a5.3,5.3,0,0,0,.3-1.1,11.1,11.1,0,0,0,.2-1.9h-4.8c.2-1,.3-2.1.5-3.1h4.3V79.7h-4.9v-.6H298v3.3h-4.4l-.3,1.9Zm3.5,5h-.6V78.8h.6Z"/><path d="M309.6,85.2l-.4.5-1.9-1.8v5.4h-.6V83.7a11,11,0,0,1-2.5,3.3l-.4-.4a16.1,16.1,0,0,0,2.9-4.1h-2.8v-.7h2.8V80.1l-2.2.2-.2-.6a15.8,15.8,0,0,0,4.8-.9l.3.6-2.1.6v1.8h2.2v.7h-2.2v.7A12.2,12.2,0,0,1,309.6,85.2Zm4.4,4.1h-.6V88.2h-2.7v1.1H310V80.2h4Zm-.6-1.7V80.8h-2.7v6.8Z"/><path d="M320,87.5a11.2,11.2,0,0,1-3.7,1.9l-.4-.5a11.8,11.8,0,0,0,3.6-1.8Zm6.4-.9H315.9V86h1.9V80.7h-1.7v-.6h1.7V78.9h.7v1.2h5.3V78.9h.6v1.2h1.8v.6h-1.8V86h2ZM323.8,82V80.7h-5.3V82Zm0,2V82.5h-5.3V84Zm0,2V84.6h-5.3V86Zm2.6,2.9-.4.5a25.7,25.7,0,0,0-3.7-1.8l.3-.5A19.5,19.5,0,0,1,326.4,88.9Z"/><path d="M288.9,93.4a6.1,6.1,0,0,1-.5,1.2l-.3.7v8.4h-.6V96.6a18.2,18.2,0,0,1-1.4,1.9l-.3-.6a16,16,0,0,0,2.5-4.7Zm7.4,8.2c-.1.9-.2,1.5-.5,1.7l-.9.2H291a1,1,0,0,1-.8-.3.9.9,0,0,1-.3-.7V97.8l-1.1.4v-.7l1.2-.3V94.3h.7v2.6l1.8-.6V93.2h.7v2.9l2.7-.9a22.9,22.9,0,0,1-.7,5.5l-.6-.3a14.6,14.6,0,0,0,.6-4.4l-2,.7v4.8h-.7V96.9l-1.8.7v4.9a.4.4,0,0,0,.1.3H295l.4-.2c.2-.1.3-.6.3-1.4Z"/><path d="M299.2,100.8a12,12,0,0,1-.8,2.8l-.6-.3a11.5,11.5,0,0,0,.8-2.6Zm3.1-.7-.5.3-.3-.7a34.3,34.3,0,0,1-3.4.6l-.2-.5a11.4,11.4,0,0,0,2.4-2.5l-2.1.2-.2-.6a11.6,11.6,0,0,0,2.2-3.6l.6.2a17.4,17.4,0,0,1-1.8,3.3l1.7-.2a7.5,7.5,0,0,0,.7-1.2l.6.3a14.1,14.1,0,0,1-2.9,3.9l2.2-.5-.4-.7.6-.2A6,6,0,0,1,302.3,100.1Zm-1.6,3.1H300a11.5,11.5,0,0,0-.2-2.4h.6A11.2,11.2,0,0,1,300.7,103.2Zm1.6-.5-.6.3a8.3,8.3,0,0,0-.6-2.1l.6-.2A8.9,8.9,0,0,1,302.3,102.7Zm6-7.2h-2.8v1.8h2.4v.6h-5.3v-.6h2.3V95.5h-2.6v-.6h2.6V93.2h.6v1.7h2.8Zm-.7,8.2H307V103h-3.5v.7h-.6V99.3h4.7Zm-.6-1.3V99.9h-3.5v2.5Z"/><path d="M313.3,98.4l-.5.5a9.1,9.1,0,0,0-.7-1.4v6.2h-.7V97.9a11.7,11.7,0,0,1-1.1,2.5l-.4-.5a13.7,13.7,0,0,0,1.5-3.8h-1.3v-.6h1.3V93.2h.7v2.3h1.1v.6h-1.1v.4Zm7.1,3.2h-.9v1.2a1.3,1.3,0,0,1-.1.6l-.4.2h-1.4l-.3-.6h1.3a.3.3,0,0,0,.3-.3v-1.2h-4.6v2.1h-.5v-2.1h-.9V101h.9V98.2h2.6v-.8h-3.3v-.6h1.8V96h-1.2v-.6h1.2v-.8h-1.6v-.5h1.6v-.9h.6v.9h2.3v-.9h.6v.9H320v.5h-1.6v.8h1.3V96h-1.3v.8h1.8v.6h-3.3v.8h2.6V101h.9Zm-4-2v-.9h-2.1v.9Zm0,1.4v-.9h-2.1v.9Zm1.4-5.6v-.8h-2.3v.8Zm0,1.4V96h-2.3v.8Zm1.1,2.8v-.9h-2v.9Zm0,1.4v-.9h-2v.9Z"/><path d="M536.7,25.3a10,10,0,0,1-1.1,1.9v4.5h-1v-3a5.7,5.7,0,0,0-.8.8l-.6-.9a10.3,10.3,0,0,0,2.5-3.6Zm-1,7.1a15.4,15.4,0,0,1-1.5,2.9l-.9-.6a12.2,12.2,0,0,0,1.4-2.6Zm7.9-6.5a7.1,7.1,0,0,1-.7,2.2l-1-.4.3-.8h-3.9a8.6,8.6,0,0,1-1.5,1.7l-.8-.7a10.5,10.5,0,0,0,2.3-2.9l1,.4-.3.5Zm-2,7.8a2.4,2.4,0,0,1-.4,1.3.8.8,0,0,1-.7.4,6.9,6.9,0,0,1-2,.2,4.4,4.4,0,0,1-1.9-.3c-.3-.1-.4-.5-.4-1.1V32h1v2.1c0,.2.1.3.3.4h2.4a.5.5,0,0,0,.5-.3,8.1,8.1,0,0,1,.2-.9ZM539,28.6a8.5,8.5,0,0,1-1.9,2.7l-.8-.7a10.8,10.8,0,0,0,1.8-2.5Zm1.1,4.6-.8.7a8.6,8.6,0,0,0-1.4-1.8l.8-.6Zm.5-1.5h-1.1V27.4h1.1Zm3.3-1.2-.9.7a15,15,0,0,0-1.9-2.5l.9-.6Zm0,4.3-.9.5a12.4,12.4,0,0,0-1.7-2.7l.9-.6A16.1,16.1,0,0,1,543.9,34.8Z"/><path d="M549.9,35.5h-1v-.8h-2.2v.9h-1V26.9h1a10.8,10.8,0,0,0,.8-1.9l1.1.2a12,12,0,0,1-.6,1.7h1.9Zm-1-5.3V27.9h-2.2v2.3Zm0,3.5V31.2h-2.2v2.5Zm6.9-6.8c0,1.2-.1,2.7-.2,4.5a9.8,9.8,0,0,1-.3,3.3,1.3,1.3,0,0,1-.6.7,5.6,5.6,0,0,1-2.2.2l-.4-1h1.6l.5-.2c.2-.2.3-1,.4-2.6s.1-2.9.1-3.8h-2.4a10.8,10.8,0,0,1-1.3,2.4l-.8-.7A12.8,12.8,0,0,0,552,25l1.1.2a7.7,7.7,0,0,1-.5,1.7ZM554,32.3l-.9.6a13,13,0,0,0-1.7-2.6l1-.6A11.4,11.4,0,0,1,554,32.3Z"/><path d="M567.9,26.7h-8.7v2.5a7.2,7.2,0,0,0,1.6-2.4l1,.2a8,8,0,0,1-.8,1.6v3.7h-1V29.9l-.4.4-.4-1v2.5a8,8,0,0,1-.9,3.9l-.9-.7a7.8,7.8,0,0,0,.8-3.7V25.8h4.2a1.6,1.6,0,0,1-.3-.6l1.1-.2.5.8h4.2Zm-6.8,6.4a10.1,10.1,0,0,1-1.2,2.3l-.9-.6a8.8,8.8,0,0,0,1.2-2Zm6.7-.8h-5.9V29.9l-.3.3-.5-1a8.1,8.1,0,0,0,1.7-2.4l.9.3-.3.6h1.3l-.4-.6,1.1-.2a5.9,5.9,0,0,1,.4.8h1.9v.8h-2.1V29h2v.7h-2v.5h2V31h-2v.5h2.2Zm-1.7,1.8c0,.9-.4,1.4-1.1,1.4h-2.5c-.6,0-1-.3-1-.9V32.8h1.1v1.5c0,.1,0,.2.1.2h2.2l.2-.3v-.5ZM564.6,29v-.5h-1.7V29Zm0,1.2v-.5h-1.7v.5Zm0,1.3V31h-1.7v.5Zm.3,2.2-.9.5a5.1,5.1,0,0,0-.9-1.3l.9-.4Zm3.1.9-.9.5a7.7,7.7,0,0,0-1.4-1.9l.9-.5A11.7,11.7,0,0,1,568,34.6Z"/><path d="M579.4,34.4a1.6,1.6,0,0,1-.3.9,2.3,2.3,0,0,1-1.3.3H577l-.4-1.1H578c.1,0,.2,0,.2-.1l.2-.2V32h-3v3.4h-1V32h-3a7.7,7.7,0,0,1-1,3.7l-1-.6a5.2,5.2,0,0,0,.8-2,10.5,10.5,0,0,0,.3-2.4V25.4h8.9Zm-5-6.2V26.4h-2.8v1.8Zm0,2.8V29.2h-2.8V31Zm4-2.8V26.4h-3v1.8Zm0,2.8V29.2h-3V31Z"/><path d="M585.8,31.1l-.8.7-.6-1.2v5h-1.1V31.3a14.5,14.5,0,0,1-1.2,1.9l-.6-1a10.7,10.7,0,0,0,1.8-3.2h-1.7V28h1.7V26.5l-1.3.2-.4-1a10.8,10.8,0,0,0,3.5-.7l.5.9-1.2.4V28h1.3v1h-1.3v.3Zm6.2,4.4h-6.8v-1h3V33h-2.5V32h2.5V30.8H586l-.4-.9a43.2,43.2,0,0,0,5.9-.6l.4.9-2.6.4V32h2.5v1h-2.5v1.5H592Zm-.6-6.5h-5.3V25.4h5.3Zm-1.1-1V26.4h-3.1V28Z"/><path d="M604.1,33q-.1,2.7-1.5,2.7c-.7,0-1.4-.7-1.9-2.1a16.1,16.1,0,0,1-.9-5.5h-6.2v-1h6.2a16.4,16.4,0,0,1-.1-2h1.1v2h3.3v1h-3.2a14.1,14.1,0,0,0,.7,4.9c.5,1,.8,1.6,1,1.6s.4-.7.4-2.1Zm-4.5.8L594,34.9l-.2-1,2.3-.4V30.3h-1.9v-1h5.1v1h-2.1v3l2.4-.6Zm4.1-7.6-.7.7a6.5,6.5,0,0,0-1.5-1l.8-.8A5.7,5.7,0,0,1,603.7,26.2Z"/><path d="M373.6,121.5a8.1,8.1,0,0,1-2-5.5,8.4,8.4,0,0,1,2-5.7h.8a8.6,8.6,0,0,0-1.9,5.6,8.5,8.5,0,0,0,1.9,5.6Z"/><path d="M382.2,119.4H381l-1.5-2.5a2.6,2.6,0,0,0-.9-1.1,1.6,1.6,0,0,0-.9-.3h-.9v3.9h-1v-9.1h2.6a3,3,0,0,1,2,.6,2.5,2.5,0,0,1,.8,1.8,2.5,2.5,0,0,1-2,2.5h0l.6.4.7,1.1Zm-5.4-8.2v3.4h1.4a2.2,2.2,0,0,0,1.4-.5,1.9,1.9,0,0,0,.5-1.3,1.3,1.3,0,0,0-.5-1.2,2.2,2.2,0,0,0-1.3-.4Z"/><path d="M388.2,119.4h-4.7v-9.1H388v.9h-3.5v3.1h3.3v.9h-3.3v3.3h3.7Z"/><path d="M389.6,117.9a2.3,2.3,0,0,0,1.1.5,3.1,3.1,0,0,0,1.3.3c1.3,0,2-.5,2-1.5a1.9,1.9,0,0,0-.2-.7l-.6-.6-1.4-.7a4.8,4.8,0,0,1-1.8-1.4,1.7,1.7,0,0,1-.4-1.2,2,2,0,0,1,.9-1.8,3.8,3.8,0,0,1,2.2-.7,3,3,0,0,1,1.9.4v1.1a3.9,3.9,0,0,0-2-.5,2.6,2.6,0,0,0-1.4.3,1.3,1.3,0,0,0-.6,1.1,1.4,1.4,0,0,0,.2.7,1.2,1.2,0,0,0,.5.5l1.3.7a8.7,8.7,0,0,1,1.9,1.3,2.7,2.7,0,0,1,.5,1.5,2.5,2.5,0,0,1-.8,1.8,4.3,4.3,0,0,1-2.4.6l-1.2-.2-1-.3Z"/><path d="M402.1,111.2h-2.6v8.2h-1v-8.2h-2.6v-.9h6.2Z"/><path d="M411.6,117.8c-1.6.5-3.4.8-5.3,1.2l-.2-.6a42.8,42.8,0,0,0,5.4-1.2Zm5-.3a10.3,10.3,0,0,1-.4,1.4c-.1.6-.3.9-.5,1l-.4.2a1.7,1.7,0,0,1-1.2-.8,4.2,4.2,0,0,1-.9-1.4,10.7,10.7,0,0,1-2.3,2l-.5-.4a11.4,11.4,0,0,0,2.5-2.3,27.2,27.2,0,0,1-.6-5.5h-6v-.6h5.9v-1.6h.6v1.6h3.6v.6h-3.5a32.2,32.2,0,0,0,.5,4.8,12.1,12.1,0,0,0,1.7-3.6l.6.2a16.3,16.3,0,0,1-2,4.2,2.8,2.8,0,0,0,.8,1.5,1.5,1.5,0,0,0,.7.6c.1,0,.2,0,.2-.1s.2-.3.3-.7.2-.9.3-1.5Zm-5.6-1.1h-4v-3.3h4Zm-.6-.6v-2.1h-2.8v2.1Zm5.3-5.3-.5.4a4.4,4.4,0,0,0-1.1-.9l.5-.4Z"/><path d="M421.1,118.9c0-.2,0-.4.2-.5l.4-.2.5.2a.8.8,0,0,1,.2.5c0,.2-.1.3-.2.5l-.5.2-.4-.2C421.1,119.3,421.1,119.1,421.1,118.9Z"/><path d="M431.6,119.4h-1.3l-4.7-7.3-.3-.6h0v7.9h-1v-9.1h1.3l4.6,7.3.4.6h0v-7.9h1Z"/><path d="M438.7,119.4H434v-9.1h4.5v.9H435v3.1h3.3v.9H435v3.3h3.7Z"/><path d="M445.8,111.2h-2.6v8.2h-1v-8.2h-2.6v-.9h6.2Z"/><path d="M446.2,121.5a8.5,8.5,0,0,0,2-5.6,8.7,8.7,0,0,0-2-5.6h.9A8.4,8.4,0,0,1,449,116a8,8,0,0,1-1.9,5.5Z"/><path d="M484.6,58.9V51l-.9.6-1.2.5V51a4.7,4.7,0,0,0,1.5-.6,4.8,4.8,0,0,0,1.3-.9h.3v9.4Z"/><path d="M488.8,58.3c0-.2.1-.3.2-.5l.5-.2.5.2c.1.2.2.3.2.5a.8.8,0,0,1-.2.5.7.7,0,0,1-1,0A.8.8,0,0,1,488.8,58.3Z"/><path d="M495.4,59.5h-.6V56.2a13.1,13.1,0,0,1-2.7,1.2l-.3-.7c.2-.1.2-.3.2-.5V50h.7v6.5a10.2,10.2,0,0,0,2.1-1V48.9h.6Zm6.7-.5-.5.5a7.5,7.5,0,0,1-2.7-2.1,9,9,0,0,1-2.7,2.1l-.5-.5a8.9,8.9,0,0,0,2.8-2.1,10,10,0,0,1-1.3-3.1l.6-.2a8.5,8.5,0,0,0,1.1,2.8,11.1,11.1,0,0,0,1.4-5.1h-2.5a9.9,9.9,0,0,1-1.5,3.1l-.4-.5a14.9,14.9,0,0,0,1.9-5h.6c-.1.4-.2,1-.4,1.7h4v.6h-1.1c-.2,2.7-.8,4.6-1.6,5.6A6.9,6.9,0,0,0,502.1,59Z"/><path d="M507.6,57.6a17.3,17.3,0,0,1-3.7,1.6l-.4-.6a11.8,11.8,0,0,0,3.6-1.4Zm6.3-.9H509v2.8h-.6V56.7h-4.9v-.6h4.9v-.6h.6v.6h4.9Zm-.3-1.6H505V51.7l-1,1.1-.4-.5a9.9,9.9,0,0,0,2.4-3.5l.6.2a3.1,3.1,0,0,1-.5,1H509l-.3-.9.5-.3c.2.3.3.8.5,1.2h3.7v.6h-3.9v.9H513v.6h-3.5V53H513v.5h-3.5v1h4.1Zm-4.7-3.6v-.9h-3.1l-.2.2v.7Zm0,1.5v-.9h-3.3V53Zm0,1.5v-1h-3.3v1Zm5,4.3-.4.5a15.2,15.2,0,0,0-3.6-1.7l.4-.5A20.2,20.2,0,0,1,513.9,58.8Z"/><path d="M518.4,49.1a5.8,5.8,0,0,1-.4,1.3l-.4.8v8.3H517V52.4a12.2,12.2,0,0,1-1.3,1.9l-.3-.6a17.3,17.3,0,0,0,2.5-4.8Zm7.5,1.7h-3.5v1.4h2.9v3.2h-3a4.1,4.1,0,0,1-.6,2.3,11.6,11.6,0,0,0,4.2,1.2l-.2.6a9.9,9.9,0,0,1-4.3-1.3,5.3,5.3,0,0,1-3,1.4l-.3-.6a4.5,4.5,0,0,0,2.7-1.2,6.9,6.9,0,0,1-1.7-1.7l.5-.3a7.8,7.8,0,0,0,1.6,1.5,4,4,0,0,0,.5-1.9h-3V52.2h3.1V50.8h-3.4v-.6h3.4V49h.6v1.2h3.5Zm-4.2,2h-2.3v2h2.3Zm3,2v-2h-2.3v2Z"/><path d="M537.3,58.6c0,.4-.1.6-.4.7a4,4,0,0,1-1.5.2h-.6l-.2-.7h1.9c.1-.1.1-.1.1-.2v-3h-3.3v3.6h-.7V55.6h-3.4a9,9,0,0,1-1.2,3.9l-.6-.4a7.8,7.8,0,0,0,1.2-4.4V49.1h8.7ZM532.6,52V49.8h-3.3V52Zm0,3V52.7h-3.3V55Zm4-3V49.8h-3.3V52Zm0,3V52.7h-3.3V55Z"/><path d="M549.7,53.1h-3.9a19.1,19.1,0,0,1-2.1,1.4h4.7v5h-.7v-.6h-5.3v.6h-.7v-4l-2,.7-.4-.5a19.4,19.4,0,0,0,5.4-2.6h-5.3v-.6h4.4V50.7h-3.3v-.6h3.3V48.9h.7v1.2h2.4v.6h-2.4v1.8h1a29.7,29.7,0,0,0,3-3.1l.5.4a21.6,21.6,0,0,1-2.5,2.7h3.2Zm-2,3.3V55.1h-5.3v1.2Zm0,1.8V57h-5.3v1.2Z"/><path d="M555.4,57.9h-1.7v1.6h-.6V57.9h-1.8v-.6h1.8V56.2h-1.5V51.5h1.5v-1h-1.7v-.6h1.7v-1h.6v1h1.6v.6h-1.6v1h1.4v4.7h-1.4v1.1h1.7Zm-2.3-4.4V52.1h-.9v1.4Zm0,2.1V54.1h-.9v1.5Zm1.4-2.1V52.1h-.8v1.4Zm0,2.1V54.1h-.8v1.5Zm3.9,3.1c0,.5-.4.8-1.1.8H557l-.2-.6h.5c.3,0,.5-.1.5-.3V57.2h-1.4a8.6,8.6,0,0,1-.6,2.3l-.6-.4a5.4,5.4,0,0,0,.7-2.9V53h2.5Zm3.4-7-.4.6a8.8,8.8,0,0,1-2.8-2.5,13.1,13.1,0,0,1-2.8,2.4l-.4-.4a8.9,8.9,0,0,0,3.1-3l.6.2c0,.1-.1.2-.2.3A7,7,0,0,0,561.8,51.7Zm-4,4.9V55.3h-1.3v1.3Zm0-1.9V53.6h-1.3v1.1Zm2.2-2.4h-3v-.6h3Zm1.2,6.4a.8.8,0,0,1-.2.6,2.2,2.2,0,0,1-1,.2h-.5l-.3-.6h.7c.4,0,.6,0,.6-.1s.1-.1.1-.2V52.7h.6Zm-1.4-1.1h-.6V53.3h.6Z"/><path d="M573.6,59l-.4.5a13.8,13.8,0,0,1-4.6-7.1,13.5,13.5,0,0,1-5,7l-.5-.5a12.4,12.4,0,0,0,2.1-1.8,10.2,10.2,0,0,0,1.6-2.2,18.9,18.9,0,0,0,1.1-2.5,6.6,6.6,0,0,0,.4-1.6v-1h-1.2v-.6h1.8A12.2,12.2,0,0,0,573.6,59Z"/><path d="M486.3,72.8a1.9,1.9,0,0,0-.5-1.3,1.7,1.7,0,0,0-1.3-.4,2,2,0,0,0-1.1.3l-1,.7v-.9l1-.7a2.2,2.2,0,0,1,1.2-.2,3.2,3.2,0,0,1,2,.6,2.5,2.5,0,0,1,.7,1.8,3.4,3.4,0,0,1-.5,1.7,5.3,5.3,0,0,1-1.5,1.5l-1.5,1.2-.6.7a2.4,2.4,0,0,0-.2.8h4.6v1H482v-.4a5.2,5.2,0,0,1,.2-1.4l.7-1.1,1.5-1.2a6.9,6.9,0,0,0,1.5-1.4A2,2,0,0,0,486.3,72.8Z"/><path d="M488.8,79c0-.2.1-.3.2-.5l.5-.2.5.2c.1.2.2.3.2.5a.8.8,0,0,1-.2.5l-.5.2-.5-.2A.8.8,0,0,1,488.8,79Z"/><path d="M495.8,69.8a9.7,9.7,0,0,1-3.8,5.3l-.4-.5a9.7,9.7,0,0,0,3.6-5ZM501.3,80l-.6.3a10.7,10.7,0,0,0-.7-1.5,53.5,53.5,0,0,1-6.8,1.1v-.6a26.2,26.2,0,0,0,3.5-6.2l.6.3a27.9,27.9,0,0,1-3.2,5.8,31.2,31.2,0,0,0,5.7-1l-1.5-2.3.6-.3A25.4,25.4,0,0,1,501.3,80Zm.9-5.5-.4.6a9.7,9.7,0,0,1-3.5-4.7h-.8v-.7h1.3A8.3,8.3,0,0,0,502.2,74.5Z"/><path d="M514.1,77.6c-.4,1.8-.9,2.7-1.6,2.7l-.4-.2a2.2,2.2,0,0,1-.7-.7,5.2,5.2,0,0,1-.7-1.5,9.9,9.9,0,0,1-.5-2.4c-.1-1.1-.2-2.2-.2-3.2h-6.3v-.7h6.2v-2h.6v2H514v.7h-3.4c0,.8.1,2,.2,3.4a7.6,7.6,0,0,0,.9,3c.4.6.7.9.8.9s.4-.2.6-.8a5,5,0,0,0,.3-1.6Zm-4.5.4-5.5,1.3v-.7l2.5-.4V74.7h-2.2V74h5v.7h-2.2V78l2.5-.6Zm3.9-6.9-.5.3-1.4-1.3.5-.4A6.1,6.1,0,0,1,513.5,71.1Z"/><path d="M519,69.7a10.3,10.3,0,0,1-.7,1.7l-.5,1.1v7.7h-.6V73.6a17.7,17.7,0,0,1-1.2,1.7l-.5-.5a16.4,16.4,0,0,0,2.9-5.3Zm7,7.7a9.7,9.7,0,0,1-.1,1.7c-.2.5-.4.8-.7.9h-3.8c-.3-.1-.5-.1-.7-.3a1.4,1.4,0,0,1-.2-.7V69.6h.7v4.1h4.6v.6h-4.6v5H525c.2,0,.4-.8.4-2.2Z"/><path d="M538,79.7l-.4.6a19.1,19.1,0,0,1-3.1-1.9,11.5,11.5,0,0,1-4,1.8l-.4-.5a10.1,10.1,0,0,0,3.9-1.8,12.5,12.5,0,0,1-2.5-4h-.2a11.7,11.7,0,0,1-3.4,6.2l-.5-.5A11.2,11.2,0,0,0,530,76a19.3,19.3,0,0,0,1-5.5h-2.6v-.6h7.8L535,73.2h2.2A9.8,9.8,0,0,1,535,78,18.7,18.7,0,0,0,538,79.7Zm-2.7-9.2h-3.6q-.2,1.8-.3,2.7h3A21.3,21.3,0,0,0,535.3,70.5Zm1.1,3.4h-4.2a11.8,11.8,0,0,0,2.3,3.6A6.9,6.9,0,0,0,536.4,73.9Z"/><path d="M541.9,69.7c-.1.4-.2.8-.4,1.4l-.2.7v8.4h-.6V73.5l-1,1.8-.3-.7a17.6,17.6,0,0,0,1.9-5.1Zm8,8.3h-1.7v1.2a1,1,0,0,1-1.3,1h-.7l-.3-.6h1.5l.2-.2V78h-5.8v-.6h5.8v-.7h.6v.7h1.7Zm.1-1.4-.4.4-.5-.6-7,.3v-.5l3.5-.2v-.8h-2.9V71.8h2.9V71h-3.4v-.6h3.4v-.9h.6v.9h3.5V71h-3.5v.8h3v3.4h-.4A7.9,7.9,0,0,1,550,76.6Zm-4.5,2.7-.4.5-2.2-1.2.5-.5Zm0-6.1v-.8h-2.3v.8Zm0,1.4v-.9h-2.3v.9Zm3-1.4v-.8h-2.4v.8Zm0,1.4v-.9h-2.4v.9Zm0,1.2-.5-.5h-1.9V76Z"/><path d="M562,79.3V80h-4.8a5.3,5.3,0,0,1-3.9-1.3l-1.4,1.6-.5-.5a7.7,7.7,0,0,0,2.5-3.9h-2.1v-.5l2-2.5h-2.3v-.6h3.1v.6l-1.9,2.4h1.9v.6a17.8,17.8,0,0,1-.9,2.3,4.2,4.2,0,0,0,1.4.9,5.8,5.8,0,0,0,1.9.3H562Zm-7.9-8-.5.5a7.3,7.3,0,0,0-1.7-1.8l.5-.4A9.1,9.1,0,0,1,554.1,71.3Zm7.6,3.3h-3.2a4.8,4.8,0,0,1-3.1,3.9l-.5-.5c1.8-.8,2.8-1.9,2.9-3.4h-2.9V74h3a6.7,6.7,0,0,0,.1-1.6h-2.7v-.7h6v.7h-2.7V74h3.1Zm-4.1-3.5-.5.3a9.2,9.2,0,0,0-1.1-1.5l.6-.4A7.9,7.9,0,0,1,557.6,71.1Zm4.2,6.9-.4.5a17.3,17.3,0,0,0-2.9-2.3l.4-.5A17.3,17.3,0,0,1,561.8,78Zm-1.2-8.1a4.8,4.8,0,0,1-1.1,1.5l-.5-.3a7.2,7.2,0,0,0,1.1-1.5Z"/><path d="M573.8,76.4H571a5.4,5.4,0,0,1-1.4,1.8,24.5,24.5,0,0,1,4,1.5l-.3.5a29.9,29.9,0,0,0-4.2-1.5,12.3,12.3,0,0,1-5.3,1.5l-.3-.7a11.3,11.3,0,0,0,4.8-1.1l-3.3-.7a8.6,8.6,0,0,0,1.4-1.3h-3v-.6H567l.9-1h.6a3.6,3.6,0,0,1-.7.9h2.8a1.6,1.6,0,0,0,.3-.6h.7l-.3.6h2.5Zm-.1-5.9h-3.4v1.2H573v2.8h-8.8V71.7h2.7V70.5h-3.3v-.6h10.1Zm-6.8,3.4V72.3h-2.1v1.6Zm3.4,2.5h-3a4.7,4.7,0,0,1-1,1l2.7.6A7,7,0,0,0,570.3,76.4Zm-.6-4.7V70.5h-2.1v1.2Zm0,2.2V72.3h-2.1v1.6Zm2.7,0V72.3h-2.1v1.6Z"/><path d="M579.5,76.2a17.8,17.8,0,0,1-3.9,3l-.3-.5a22.4,22.4,0,0,0,3.8-3Zm6.2,2.5-.4.5a8.6,8.6,0,0,1-4.4-3.7v3.7c0,.4-.1.6-.4.7s-.6.2-1.3.2h-.7l-.2-.6h1.9c0-.1.1-.2.1-.3V72.2h-4.9v-.6h4.9v-2h.6v2h4.8v.6h-4.8V74a4.9,4.9,0,0,0,.6,1.3,14,14,0,0,0,3-2.3l.5.5a22.7,22.7,0,0,1-3.1,2.3C582.5,76.9,583.8,77.8,585.7,78.7ZM578.6,75l-.5.5a10.1,10.1,0,0,0-2.1-2l.4-.5A23,23,0,0,1,578.6,75Zm5.8-4.2-.5.5a7.4,7.4,0,0,0-1.6-1.2l.4-.5Z"/><path d="M482,98.7a3.5,3.5,0,0,0,2.1.7,2.5,2.5,0,0,0,1.6-.4,1.7,1.7,0,0,0,.5-1.4c0-1.2-.8-1.8-2.5-1.8h-.8V95h.8c1.5,0,2.2-.6,2.2-1.8s-.6-1.5-1.7-1.5a3.2,3.2,0,0,0-1.8.6v-1a4.6,4.6,0,0,1,2-.5,2.4,2.4,0,0,1,1.8.6,1.9,1.9,0,0,1,.7,1.6,2.2,2.2,0,0,1-1.8,2.3h0a2.6,2.6,0,0,1,1.6.7,2,2,0,0,1,.6,1.5,2.4,2.4,0,0,1-.9,2,3.6,3.6,0,0,1-2.3.8,4.1,4.1,0,0,1-2.1-.5Z"/><path d="M488.8,99.6a.8.8,0,0,1,.2-.5.6.6,0,0,1,.5-.2c.2,0,.4,0,.5.2a.8.8,0,0,1,.2.5c0,.2-.1.3-.2.5l-.5.2-.5-.2C488.9,99.9,488.8,99.8,488.8,99.6Z"/><path d="M501.8,92.3a5.1,5.1,0,0,1-.9,2.1l-.6-.2a12.9,12.9,0,0,0,.6-1.2h-4.3v.8l3.2-.2v.6l-3.2.2v.7h4.2v.6h-4.1a.7.7,0,0,1-.8-.8v-.6l-1.8.2V94h1.9V93h-2.5v2.3a13.6,13.6,0,0,1-1.1,5.3l-.6-.4a11.4,11.4,0,0,0,1.1-4.9v-3h3.4V90.2h.6v.7h4.6v.6h-4.6v.8Zm.4,7.7v.6a36.3,36.3,0,0,1-4.6-.2,3,3,0,0,1-1.6-.5,5,5,0,0,1-1.8.9l-.5-.4a7.6,7.6,0,0,0,1.8-.9,3.1,3.1,0,0,1-.9-1.1,2.3,2.3,0,0,1-.7.7l-.4-.4a6.4,6.4,0,0,0,1.8-3l.6.2-.3.9h2v.6a5.7,5.7,0,0,1-1.2,2.1l1.5.4Zm-5.4-2.6h-1.6l-.3.5a6.2,6.2,0,0,0,.9,1.2A4.2,4.2,0,0,0,496.8,97.4Zm5.1.3a8.4,8.4,0,0,1-.1,1.2l-.3.4h-.9c-.5,0-.7-.2-.7-.7V97.1h-1a3.7,3.7,0,0,1-1,2.5l-.5-.4a3.5,3.5,0,0,0,1-2.7h2.1v2.1a.3.3,0,0,0,.3.3l.4-.2a2.5,2.5,0,0,0,.1-1.1Z"/><path d="M507.2,97.9l-3.4,1.8-.3-.6,1.7-.8V94.9h-1.4v-.6h1.4V91.6h-1.6V91h3.6v.6h-1.4v2.7H507v.6h-1.2v3l1.3-.7Zm6.9,2.6h-6.9v-.6h3.1V98.2h-2.7v-.6h2.7V96.1h-2.6V90.5h5.8v5.6h-2.6v1.5h2.8v.6h-2.8v1.7h3.2Zm-3.8-7.6V91h-2v1.9Zm0,2.6v-2h-2v2Zm2.6-2.6V91h-2v1.9Zm0,2.6v-2h-2v2Z"/><path d="M525.5,100.7h-.7v-1h-8.1v1h-.6V90.4h9.4Zm-.7-1.7V91h-8.1v8ZM523,97.2h-4.5V92.8H523Zm-.6-.7v-3h-3.3v3Z"/><path d="M537.8,91.6H529v3.5a14.2,14.2,0,0,1-1,5.7l-.5-.4a14.7,14.7,0,0,0,.9-5.3V91h4.5l-.5-.7.6-.2a4.1,4.1,0,0,1,.5.9h4.3ZM531,98.1a7.4,7.4,0,0,1-1.4,2.3l-.5-.4a5,5,0,0,0,1.3-2.1Zm.7-6.1a8.5,8.5,0,0,1-.8,1.7v3.8h-.6v-3c-.1.3-.4.5-.7.9l-.4-.5a6.9,6.9,0,0,0,1.9-3.1Zm6,5.3h-5.3v-3l-.9,1-.3-.5a14.1,14.1,0,0,0,2-3l.5.2a3.6,3.6,0,0,1-.4.9h1.8l-.5-.8.6-.2a3.1,3.1,0,0,1,.5,1h2v.6h-2.3v.7h2.1v.5h-2.1v.8h2.1V96h-2.1v.8h2.3Zm-1.6,1.9a2,2,0,0,1-.2.9.7.7,0,0,1-.5.4h-3l-.5-.3a1.5,1.5,0,0,1-.1-.7V97.9h.6v1.7c0,.2,0,.4.2.4h2.5l.3-.2a1.7,1.7,0,0,0,.1-.8Zm-1.2-5v-.7H533v.7Zm0,1.3v-.8H533v.8Zm0,1.3V96H533v.8Zm-.2,2.2-.5.3a6.3,6.3,0,0,0-1-1.2l.5-.4A6.4,6.4,0,0,1,534.7,99Zm3.3,1-.5.3a11.3,11.3,0,0,0-1.5-2.1l.6-.3C537.1,98.6,537.6,99.3,538,100Z"/><path d="M505.2,114a8.8,8.8,0,0,1-.7,2.8l-.6-.3a8.1,8.1,0,0,0,.7-2.6Zm3.2-.7-.6.3a1.4,1.4,0,0,0-.2-.7,34.3,34.3,0,0,1-3.4.6l-.2-.6a8.2,8.2,0,0,0,2.4-2.5l-2.2.2v-.5a12.1,12.1,0,0,0,2.2-3.7l.6.2a12.9,12.9,0,0,1-1.8,3.3h1.7a8.3,8.3,0,0,0,.7-1.3l.6.3a15.3,15.3,0,0,1-2.9,4l2.1-.5a1.3,1.3,0,0,0-.3-.7l.6-.2C507.9,112.1,508.2,112.7,508.4,113.3Zm-1.6,3.2h-.7a11.9,11.9,0,0,0-.2-2.5h.6A11.3,11.3,0,0,1,506.8,116.5Zm1.6-.6-.6.3a8.3,8.3,0,0,0-.6-2.1l.5-.2A6,6,0,0,1,508.4,115.9Zm5.9-7.3h-2.7v1.9H514v.6h-5.3v-.6H511v-1.9h-2.6V108H511v-1.6h.6V108h2.7Zm-.7,8.3H513v-.7h-3.4v.7H509v-4.4h4.6Zm-.6-1.3v-2.5h-3.4v2.5Z"/><path d="M526.4,115.9l-.3.5a9.1,9.1,0,0,1-2.5-1.4,8.1,8.1,0,0,1-2.1-2v3.9h-.7V113a11.8,11.8,0,0,1-4.6,3.4l-.4-.6a10.8,10.8,0,0,0,4.4-3h-4.3v-.6h4.9V111H517v-4.4h8.2V111h-3.7v1.2h4.8v.6h-4.2A10.2,10.2,0,0,0,526.4,115.9Zm-5.6-7.4v-1.3h-3.1v1.3Zm0,1.9v-1.3h-3.1v1.3Zm3.8-1.9v-1.3h-3.1v1.3Zm0,1.9v-1.3h-3.1v1.3Z"/><path d="M531.9,115a12.8,12.8,0,0,1-3.6,1.6l-.5-.5a15,15,0,0,0,3.6-1.5Zm6.4-.9h-4.9v2.8h-.6v-2.8h-4.9v-.6h4.9v-.6h.6v.6h4.9Zm-.4-1.6h-8.6v-3.4l-1,1.2-.4-.5a12.1,12.1,0,0,0,2.5-3.6l.5.2a3.1,3.1,0,0,1-.5,1h3l-.4-.9.5-.3a6.1,6.1,0,0,1,.5,1.2h3.7v.6h-3.9v.9h3.5v.6h-3.5v.9h3.5v.5h-3.5v1h4.1Zm-4.7-3.6V108h-3.1v.9Zm0,1.5v-.9H530v.9Zm0,1.5v-1H530v1Zm5,4.3-.3.5a20.2,20.2,0,0,0-3.6-1.7l.3-.5A15.2,15.2,0,0,1,538.2,116.2Z"/><path d="M514.4,129.4h-4.9v1.7h-.6v-1.7H504v-.6h4.9v-1h-3.7V124h8v3.8h-3.7v1h4.9Zm-5.7-6.2h-3.8v-2.4h3.8Zm-.6-.6v-1.2h-2.6v1.2Zm.8,3v-1h-3v1Zm0,1.6v-1.1h-3v1.1Zm3.7-1.6v-1h-3.1v1Zm0,1.6v-1.1h-3.1v1.1Zm1-4h-3.8v-2.4h3.8Zm-.6-.6v-1.2h-2.6v1.2Z"/><path d="M526.3,125.9H515.9v-.7h10.4Z"/><path d="M538.3,130.7l-.5.5a14.3,14.3,0,0,1-4.7-2.6,13.4,13.4,0,0,1-4.9,2.6l-.4-.5a12.2,12.2,0,0,0,4.8-2.6,12.4,12.4,0,0,1-2.6-4.3l.5-.3a11.1,11.1,0,0,0,2.6,4.2,11.9,11.9,0,0,0,2.4-4.6h-7.7v-.7h5a9.5,9.5,0,0,0-1-1.7l.6-.3a10.3,10.3,0,0,1,1.1,2h4.8v.7h-2.2a10.4,10.4,0,0,1-2.6,5A12.2,12.2,0,0,0,538.3,130.7Z"/><path d="M542.8,120.7c-.1.4-.3.8-.5,1.4l-.4.8v8.2h-.6V124a15.6,15.6,0,0,1-1.3,1.9l-.4-.7a13.5,13.5,0,0,0,2.6-4.7Zm7.5,6.6h-3.4v3.8h-.6v-3.8h-3.6v-.7h3.6v-3h-2.1a14.5,14.5,0,0,1-1.2,1.9l-.5-.4a15.6,15.6,0,0,0,2-4.1l.6.2c-.2.8-.5,1.4-.6,1.8h1.8v-2.5h.6V123H550v.6h-3.1v3h3.4Z"/><path d="M409.3,105.6h-1.1v-.8h-7.5v.8h-1.1V95.4h9.7Zm-1.1-1.9V96.4h-7.5v7.3Zm-1.2-1.4h-5V97.7h5Zm-1.1-1V98.7H403v2.6Z"/><path d="M421.9,96.7h-8.8v2.5a7.4,7.4,0,0,0,1.7-2.4l1,.2-.9,1.6v3.7h-1V99.8l-.4.5-.4-1v2.5a8.3,8.3,0,0,1-.9,3.9l-.9-.7a8.1,8.1,0,0,0,.8-3.7V95.8h4.2c0-.2-.2-.4-.3-.6l1.1-.2a3.5,3.5,0,0,1,.5.8h4.3Zm-6.8,6.4a7.6,7.6,0,0,1-1.3,2.3l-.8-.6a7.1,7.1,0,0,0,1.1-2.1Zm6.7-.8h-6V99.9l-.3.3-.4-1a10,10,0,0,0,1.6-2.4l1,.3-.3.6h1.2l-.3-.6,1-.2a2,2,0,0,1,.4.8h2v.8h-2.2V99h2v.7h-2v.5h2v.8h-2v.5h2.3Zm-1.7,1.8c-.1.9-.5,1.4-1.2,1.4h-2.5a.8.8,0,0,1-.9-.9v-1.8h1v1.5a.3.3,0,0,0,.1.2h2.2l.2-.3c0-.2.1-.3.1-.5ZM418.5,99v-.5h-1.7V99Zm0,1.2v-.5h-1.7v.5Zm0,1.3V101h-1.7v.5Zm.3,2.2-.9.4a4.7,4.7,0,0,0-.9-1.2l.9-.5A5.1,5.1,0,0,1,418.8,103.7Zm3.1.9-.9.5a10.5,10.5,0,0,0-1.4-2l.9-.4A7.8,7.8,0,0,1,421.9,104.6Z"/><path d="M504.3,144.9a.6.6,0,0,1-.6-.6h0c0-.2,0-.4.2-.5l.4-.2.5.2a.8.8,0,0,1,.2.5.7.7,0,0,1-.7.6Z" fill="#1e1e1e"/><path d="M510.2,144.9a.6.6,0,0,1-.5-.2l-.2-.4a.8.8,0,0,1,.2-.5c.3-.2.7-.3.9,0h.1a.6.6,0,0,1,0,.9A.6.6,0,0,1,510.2,144.9Z" fill="#1e1e1e"/><path d="M516.1,144.9c-.2,0-.4,0-.5-.2l-.2-.4a.8.8,0,0,1,.2-.5l.5-.2a.8.8,0,0,1,.7.7.5.5,0,0,1-.3.4C516.4,144.9,516.3,144.9,516.1,144.9Z" fill="#1e1e1e"/></svg>