<?xml version="1.0" encoding="utf-8"?>
<!-- Generator: Adobe Illustrator 23.0.1, SVG Export Plug-In . SVG Version: 6.00 Build 0)  -->
<svg version="1.1" xmlns="http://www.w3.org/2000/svg" xmlns:xlink="http://www.w3.org/1999/xlink" x="0px" y="0px"
	 viewBox="0 0 492.8 180.1" style="enable-background:new 0 0 492.8 180.1;" xml:space="preserve">
<style type="text/css">
	.st0{fill:#505050;}
	.st1{fill:#FFFFFF;}
	.st2{display:none;}
	.st3{display:inline;}
	.st4{fill:#EBEBEB;}
	.st5{fill:#0072C6;}
	.st6{fill:#008575;}
	.st7{fill:none;stroke:#000000;stroke-miterlimit:10;}
	.st8{fill:#EBEBEB;stroke:#000000;stroke-width:0.75;stroke-miterlimit:10;}
	.st9{fill:#1E1E1E;}
	.st10{fill:none;}
	.st11{stroke:#000000;stroke-width:5.000000e-02;stroke-miterlimit:10;}
	.st12{fill:#1E1E1E;stroke:#1E1E1E;stroke-width:6.000000e-02;stroke-miterlimit:10;}
	.st13{fill:#FFFFFF;stroke:#FFFFFF;stroke-width:5.000000e-02;stroke-miterlimit:10;}
</style>
<symbol  id="New_Symbol_41" viewBox="-10 -10 20 20">
	<circle class="st0" cx="0" cy="0" r="10"/>
	<path class="st1" d="M1.2-4.2v8.6h-1.4v-6.9C-0.4-2.3-0.7-2.1-1-2c-0.3,0.1-0.7,0.2-1,0.3v-1.2l0.6-0.2l0.6-0.3l0.6-0.3
		C0.1-3.9,0.4-4,0.6-4.2H1.2z"/>
</symbol>
<symbol  id="New_Symbol_42" viewBox="-10 -10 20 20">
	<circle class="st0" cx="0" cy="0" r="10"/>
	<path class="st1" d="M2.5,4.4h-5.3V3.8c0-0.3,0-0.5,0.1-0.8c0.1-0.2,0.2-0.4,0.3-0.7c0.1-0.2,0.3-0.4,0.4-0.6
		c0.2-0.2,0.4-0.4,0.5-0.5l0.6-0.5c0.2-0.1,0.4-0.3,0.6-0.5S0.1,0,0.3-0.2c0.1-0.1,0.3-0.3,0.4-0.4C0.8-0.8,0.9-1,0.9-1.1
		C1-1.3,1-1.5,1-1.7c0-0.2,0-0.4-0.1-0.6C0.8-2.4,0.7-2.6,0.6-2.7C0.5-2.8,0.3-2.9,0.2-2.9C0-3-0.2-3-0.4-3c-0.4,0-0.7,0.1-1.1,0.2
		c-0.4,0.2-0.7,0.4-1,0.7v-1.3c0.2-0.1,0.3-0.2,0.5-0.3c0.2-0.1,0.4-0.2,0.6-0.2C-1.2-4-1-4-0.8-4.1c0.2,0,0.4,0,0.7,0
		c0.3,0,0.7,0,1,0.1c0.3,0.1,0.6,0.2,0.8,0.4C1.9-3.3,2.1-3,2.2-2.8c0.1,0.3,0.2,0.7,0.2,1c0,0.3,0,0.6-0.1,0.9
		C2.2-0.6,2-0.3,1.9-0.1C1.7,0.2,1.5,0.4,1.3,0.6C1.1,0.8,0.9,1,0.6,1.2l-0.7,0.5c-0.2,0.2-0.4,0.4-0.6,0.5C-0.8,2.4-1,2.6-1.1,2.8
		c-0.1,0.1-0.2,0.3-0.2,0.5l0,0h3.8V4.4z"/>
</symbol>
<symbol  id="New_Symbol_43" viewBox="-10 -10 20 20">
	<circle class="st0" cx="0" cy="0" r="10"/>
	<path class="st1" d="M-2.6,4.1V2.8c0.5,0.4,1.2,0.7,1.8,0.6c0.5,0,0.9-0.1,1.3-0.4c0.3-0.2,0.5-0.6,0.5-1c0-0.9-0.7-1.4-2.2-1.4
		h-0.7v-1.1h0.6c1.3,0,1.9-0.4,1.9-1.4S0.3-3-0.7-3c-0.6,0-1.1,0.2-1.6,0.6v-1.2C-1.7-4-1-4.1-0.3-4.1c0.6,0,1.3,0.2,1.8,0.6
		c0.4,0.3,0.7,0.9,0.7,1.4c0.1,1-0.7,1.9-1.7,2.1l0,0c0.5,0,1,0.3,1.4,0.6C2.3,1,2.5,1.5,2.5,2.1c0,0.7-0.3,1.4-0.9,1.8
		C1,4.4,0.2,4.6-0.6,4.6C-1.3,4.6-2,4.5-2.6,4.1z"/>
</symbol>
<symbol  id="New_Symbol_44" viewBox="-10 -10 20 20">
	<circle class="st0" cx="0" cy="0" r="10"/>
	<path class="st1" d="M2-4v5.4h1.3v1.1H2v1.9H0.6V2.6h-3.8V1.4c0.3-0.4,0.7-0.8,1-1.3c0.4-0.4,0.7-0.9,1-1.4s0.6-0.9,0.9-1.4
		S0.4-3.5,0.6-4L2-4z M0.7,1.4v-3.5c-0.4,0.7-0.8,1.4-1.3,2C-1,0.5-1.4,1-1.8,1.4L0.7,1.4z"/>
</symbol>
<symbol  id="New_Symbol_45" viewBox="-10 -10 20 20">
	<circle class="st0" cx="0" cy="0" r="10"/>
	<path class="st1" d="M-2.4,4.2V2.9c0.5,0.3,1.1,0.5,1.7,0.6c0.5,0,1-0.1,1.4-0.4C1,2.8,1.2,2.3,1.1,1.9C1.2,1.5,1,1,0.6,0.8
		c-0.5-0.3-1-0.4-1.5-0.4c-0.2,0-0.7,0-1.4,0.1L-2-4h4.1v1.2h-3L-1-0.7c0.3,0,0.5,0,0.7,0C0.5-0.8,1.2-0.5,1.8,0
		c0.5,0.5,0.7,1.2,0.7,1.9c0,0.8-0.3,1.5-0.8,2C1,4.4,0.2,4.6-0.6,4.6C-1.2,4.6-1.9,4.5-2.4,4.2z"/>
</symbol>
<g id="src" class="st2">
	<g id="Shapes" class="st3">
		<rect class="st1" width="492.8" height="180.1"/>
		<rect y="0.2" class="st4" width="105" height="155"/>
		<rect x="369.7" y="59.8" class="st5" width="105" height="95"/>
		<rect x="369.7" y="-0.2" class="st6" width="105" height="55"/>
		<g>
			<line class="st7" x1="104.6" y1="14.8" x2="364.2" y2="14.8"/>
			<polygon points="363.1,18.5 369.5,14.8 363.1,11 			"/>
		</g>
		<g>
			<line class="st7" x1="110" y1="44.7" x2="369.5" y2="44.7"/>
			<polygon points="111.1,48.4 104.6,44.7 111.1,40.9 			"/>
		</g>
		<g>
			<line class="st7" x1="104.6" y1="85.2" x2="364.2" y2="85.2"/>
			<polygon points="363.1,89 369.5,85.2 363.1,81.5 			"/>
		</g>
		<g>
			<line class="st7" x1="110" y1="135.9" x2="369.5" y2="135.9"/>
			<polygon points="111.1,139.6 104.6,135.9 111.1,132.1 			"/>
		</g>
		<g>
			<path class="st7" d="M50.5,155.2v7.3c0,4,4.5,7.3,10,7.3l419.1,0.8c5.5,0,10-4.5,10-10V30.3c-0.1-1.5-1.3-2.6-2.8-2.5H480"/>
			<polygon points="481.1,24 474.6,27.8 481.1,31.5 			"/>
		</g>
		<path d="M80.2,38.1c-6.6-8.6-16.9-13.7-27.7-13.7c-7.7,0-15.2,2.6-21.3,7.2c-15.3,11.7-18.2,33.7-6.5,49
			c6.6,8.6,16.9,13.7,27.7,13.7c7.7,0,15.2-2.6,21.3-7.2C89.1,75.4,92,53.5,80.4,38.2C80.3,38.2,80.3,38.1,80.2,38.1z M81.9,67.3
			c-1.2-0.9-3-2.3-5.3-4.1c0.8-2.1,0.5-4.5-0.8-6.4c-2.1-2.6-5.7-3.2-8.6-1.5c-3.1-2.7-6.4-5.9-10-9.4c10.7-5.9,18.6-5.2,19.1-5.1
			l0.3,0.4C82.4,48.5,84.3,58.2,81.9,67.3z M62.7,75.5c-0.2-0.9-0.6-1.7-1.1-2.4c-1.9-2.5-5.4-3.1-8-1.4c-2.9-1.6-5.6-3.4-8.2-5.4
			l-0.7-0.6c1.2-3,0.7-6.4-1.3-9c0-0.1-0.1-0.1-0.2-0.2c0.6-0.6,1.2-1.3,1.9-1.9c2.5-2.4,5.1-4.5,8-6.5l0,0h0.1l-0.1,0.1
			c3.7,3.5,7.8,6.8,11.6,9.8c-1,2.2-0.8,4.7,0.6,6.7c2.2,2.9,6.3,3.4,9.2,1.3c0.1-0.1,0.3-0.2,0.4-0.4c2.7,1.9,4.9,3.4,6.1,4.2
			c-0.9,2.4-2,4.6-3.4,6.7C75.6,76.9,70.1,77.6,62.7,75.5z M72.1,36.2c-7-1-14.1,0.4-20.3,3.8c-2.8-2.9-5.7-6.2-8.6-9.5
			C53.1,27.2,64.1,29.4,72.1,36.2z M34,35.3c1.6-1.2,3.3-2.3,5.1-3.2c2.4,3.7,5.1,7.2,8.2,10.4c-3.1,2.1-5.9,4.6-8.4,7.3
			c-1,1.1-1.9,2.2-2.8,3.3c-1.5,0-3,0.3-4.3,1c-2.4-4-3.6-8.7-3.4-13.4C30.1,38.7,31.9,36.8,34,35.3z M24.9,46.5c0,4,1,8,3.1,11.5
			c-1.7,3.2-1.4,7.1,0.8,10l0,0c-0.7,2.8-1.2,5.7-1.4,8.7C21.3,67.8,20.3,56.3,24.9,46.5z M52.5,89.8c-7.1,0-14-2.5-19.5-7.1
			c0-3.8,0.5-7.6,1.5-11.3c2.4,0.4,4.9-0.1,6.9-1.5l0.8,0.6c2.7,2.1,5.6,4,8.6,5.5c-0.2,1.6,0.2,3.2,1.2,4.5c2,2.7,5.8,3.2,8.5,1.2
			c0.6-0.5,1.1-1,1.5-1.7c3.9,0.8,7.8,1.2,11.7,1.2c-0.9,0.8-1.8,1.6-2.7,2.3C65.7,87.7,59.2,89.9,52.5,89.8z"/>
		
			<use xlink:href="#New_Symbol_44"  width="20" height="20" x="-10" y="-10" transform="matrix(1 0 0 1 168.55 135.79)" style="overflow:visible;"/>
		
			<use xlink:href="#New_Symbol_43"  width="20" height="20" x="-10" y="-10" transform="matrix(1 0 0 1 168.55 87.2)" style="overflow:visible;"/>
		
			<use xlink:href="#New_Symbol_41"  width="20" height="20" x="-10" y="-10" transform="matrix(1 0 0 1 168.55 14.2)" style="overflow:visible;"/>
		
			<use xlink:href="#New_Symbol_42"  width="20" height="20" x="-10" y="-10" transform="matrix(1 0 0 1 168.55 44.09)" style="overflow:visible;"/>
	</g>
	<g id="Text" class="st3">
		<g>
			<polygon class="st8" points="192.2,105.7 184.6,111.2 187.5,120 196.9,120 199.8,111.2 			"/>
			<g>
				<path class="st9" d="M211,116.9h-1l-0.9-2.4h-3.6l-0.8,2.4h-1.1l3.2-8.4h1L211,116.9z M208.7,113.7l-1.3-3.6
					c-0.1-0.2-0.1-0.4-0.1-0.6l0,0c0,0.2-0.1,0.4-0.1,0.6l-1.3,3.6H208.7z"/>
				<path class="st9" d="M216.1,116.6c-0.5,0.3-1.1,0.4-1.6,0.4c-0.8,0-1.5-0.3-2.1-0.8c-0.5-0.6-0.8-1.4-0.8-2.2
					c0-0.9,0.3-1.7,0.9-2.4c0.6-0.6,1.4-0.9,2.3-0.9c0.5,0,1,0.1,1.4,0.3v1c-0.4-0.3-0.9-0.5-1.4-0.5c-0.6,0-1.1,0.2-1.5,0.7
					c-0.4,0.5-0.6,1.1-0.6,1.7c0,0.6,0.2,1.2,0.6,1.7c0.4,0.4,0.9,0.6,1.5,0.6c0.5,0,1.1-0.2,1.5-0.5L216.1,116.6z"/>
				<path class="st9" d="M221.5,116.6c-0.5,0.3-1.1,0.4-1.6,0.4c-0.8,0-1.5-0.3-2.1-0.8c-0.6-0.6-0.8-1.4-0.8-2.2
					c0-0.9,0.3-1.7,0.9-2.4c0.6-0.6,1.4-0.9,2.3-0.9c0.5,0,1,0.1,1.4,0.3v1c-0.4-0.3-0.9-0.5-1.4-0.5c-0.6,0-1.1,0.2-1.5,0.7
					c-0.4,0.5-0.6,1.1-0.6,1.8c0,0.6,0.2,1.2,0.6,1.7c0.4,0.4,0.9,0.6,1.5,0.6c0.5,0,1.1-0.2,1.5-0.5L221.5,116.6z"/>
				<path class="st9" d="M227.7,114.1h-4.2c0,0.6,0.2,1.1,0.5,1.5c0.4,0.4,0.9,0.6,1.4,0.6c0.7,0,1.3-0.2,1.9-0.7v0.9
					c-0.6,0.4-1.3,0.6-2.1,0.6c-0.8,0-1.5-0.3-2-0.8c-1-1.4-1-3.2,0.1-4.6c0.5-0.6,1.2-0.9,2-0.9c0.7,0,1.4,0.2,1.8,0.8
					c0.5,0.6,0.7,1.4,0.6,2.1L227.7,114.1z M226.7,113.3c0-0.5-0.1-0.9-0.4-1.3c-0.3-0.3-0.7-0.5-1.1-0.5c-0.4,0-0.9,0.1-1.2,0.4
					c-0.3,0.3-0.5,0.8-0.6,1.3L226.7,113.3z"/>
				<path class="st9" d="M228.7,116.7v-1c0.5,0.4,1.1,0.6,1.7,0.6c0.8,0,1.3-0.3,1.3-0.8c0-0.1,0-0.3-0.1-0.4
					c-0.1-0.1-0.2-0.2-0.3-0.3c-0.1-0.1-0.3-0.2-0.4-0.2l-0.5-0.2c-0.3-0.1-0.5-0.2-0.7-0.3c-0.2-0.1-0.4-0.2-0.5-0.4
					c-0.1-0.1-0.2-0.3-0.3-0.5c-0.1-0.2-0.1-0.4-0.1-0.6c0-0.3,0.1-0.5,0.2-0.8c0.1-0.2,0.3-0.4,0.5-0.5c0.2-0.2,0.5-0.3,0.7-0.3
					c0.3-0.1,0.6-0.1,0.9-0.1c0.5,0,1,0.1,1.4,0.3v1c-0.5-0.3-1-0.4-1.5-0.4c-0.2,0-0.3,0-0.5,0.1c-0.1,0-0.3,0.1-0.4,0.2
					c-0.1,0.1-0.2,0.2-0.2,0.3c-0.1,0.1-0.1,0.2-0.1,0.3c0,0.1,0,0.3,0.1,0.4c0.1,0.1,0.1,0.2,0.3,0.3c0.1,0.1,0.3,0.2,0.4,0.2
					l0.5,0.2c0.2,0.1,0.5,0.2,0.7,0.3c0.2,0.1,0.4,0.2,0.5,0.4c0.1,0.1,0.3,0.3,0.4,0.5c0.1,0.2,0.1,0.4,0.1,0.6
					c0,0.3-0.1,0.5-0.2,0.8c-0.1,0.2-0.3,0.4-0.5,0.5c-0.2,0.1-0.5,0.3-0.8,0.3c-0.3,0.1-0.6,0.1-0.9,0.1
					C229.8,117.1,229.2,116.9,228.7,116.7z"/>
				<path class="st9" d="M233.8,116.7v-1c0.5,0.4,1.1,0.6,1.7,0.6c0.8,0,1.3-0.3,1.3-0.8c0-0.1,0-0.3-0.1-0.4
					c-0.1-0.1-0.2-0.2-0.3-0.3c-0.1-0.1-0.3-0.2-0.4-0.2l-0.5-0.2c-0.3-0.1-0.5-0.2-0.7-0.3c-0.2-0.1-0.4-0.2-0.5-0.4
					c-0.1-0.1-0.2-0.3-0.3-0.5c-0.1-0.2-0.1-0.4-0.1-0.6c0-0.3,0.1-0.5,0.2-0.8c0.1-0.2,0.3-0.4,0.5-0.5c0.2-0.2,0.5-0.3,0.7-0.3
					c0.3-0.1,0.6-0.1,0.9-0.1c0.5,0,1,0.1,1.4,0.3v1c-0.5-0.3-1-0.4-1.5-0.4c-0.2,0-0.3,0-0.5,0.1c-0.1,0-0.3,0.1-0.4,0.2
					c-0.1,0.1-0.2,0.2-0.2,0.3c-0.1,0.1-0.1,0.2-0.1,0.3c0,0.1,0,0.3,0.1,0.4c0.1,0.1,0.1,0.2,0.3,0.3c0.1,0.1,0.3,0.2,0.4,0.2
					l0.5,0.2c0.2,0.1,0.5,0.2,0.7,0.3c0.2,0.1,0.4,0.2,0.5,0.4c0.3,0.3,0.5,0.7,0.5,1.1c0,0.3-0.1,0.5-0.2,0.8
					c-0.1,0.2-0.3,0.4-0.5,0.5c-0.2,0.1-0.5,0.3-0.8,0.3c-0.3,0.1-0.6,0.1-0.9,0.1C234.9,117.1,234.3,116.9,233.8,116.7z"/>
				<path class="st9" d="M245.4,116.8c-0.3,0.1-0.6,0.2-0.9,0.2c-1.1,0-1.6-0.6-1.6-1.8v-3.6h-1v-0.8h1v-1.5l1-0.3v1.8h1.5v0.8h-1.5
					v3.4c0,0.3,0,0.6,0.2,0.9c0.2,0.2,0.4,0.3,0.7,0.3c0.2,0,0.4-0.1,0.6-0.2L245.4,116.8z"/>
				<path class="st9" d="M249,117c-0.8,0-1.6-0.3-2.1-0.8c-0.5-0.6-0.8-1.4-0.8-2.2c-0.1-0.9,0.2-1.7,0.8-2.4
					c0.6-0.6,1.4-0.9,2.2-0.8c0.8,0,1.6,0.3,2.1,0.8c0.5,0.6,0.8,1.5,0.8,2.3c0,0.8-0.2,1.7-0.8,2.3C250.6,116.7,249.8,117,249,117z
					 M249.1,111.5c-0.6,0-1.1,0.2-1.5,0.6c-0.4,0.5-0.6,1.1-0.5,1.7c0,0.6,0.2,1.2,0.6,1.7c0.4,0.4,0.9,0.6,1.4,0.6
					c0.5,0,1.1-0.2,1.4-0.6c0.4-0.5,0.5-1.1,0.5-1.7c0-0.6-0.1-1.2-0.5-1.7C250.1,111.7,249.6,111.5,249.1,111.5L249.1,111.5z"/>
				<path class="st9" d="M258.5,116.9h-1.3l-2.6-2.9l0,0v2.9h-1V108h1v5.6l0,0l2.5-2.8h1.3l-2.8,2.9L258.5,116.9z"/>
				<path class="st9" d="M264,114.1h-4.2c0,0.6,0.2,1.1,0.5,1.5c0.4,0.4,0.9,0.6,1.4,0.6c0.7,0,1.3-0.2,1.9-0.7v0.9
					c-0.6,0.4-1.4,0.6-2.1,0.6c-0.8,0-1.5-0.3-2-0.8c-1-1.4-1-3.2,0.1-4.6c0.5-0.6,1.2-0.9,2-0.9c0.7,0,1.4,0.2,1.8,0.8
					c0.5,0.6,0.7,1.4,0.6,2.1L264,114.1z M263,113.3c0-0.5-0.1-0.9-0.4-1.3c-0.3-0.3-0.7-0.5-1.1-0.5c-0.4,0-0.9,0.2-1.2,0.5
					c-0.3,0.4-0.5,0.8-0.6,1.3H263z"/>
				<path class="st9" d="M270.4,116.9h-1v-3.4c0-1.3-0.5-1.9-1.4-1.9c-0.5,0-0.9,0.2-1.2,0.5c-0.3,0.4-0.5,0.9-0.5,1.4v3.4h-1v-6h1
					v1l0,0c0.4-0.7,1.2-1.2,2-1.1c0.6,0,1.1,0.2,1.5,0.6c0.4,0.5,0.6,1.2,0.5,1.8L270.4,116.9z"/>
			</g>
			<g>
				<path class="st9" d="M210.3,127.1h-2.4v2.4h-0.8v-2.4h-2.4v-0.8h2.4v-2.4h0.8v2.4h2.4V127.1z"/>
				<path class="st9" d="M219,125.2c-0.2-0.1-0.5-0.2-0.7-0.2c-0.4,0-0.8,0.2-1,0.6c-0.3,0.5-0.4,1-0.4,1.6v3.1h-1v-6h1v1.2l0,0
					c0.1-0.4,0.3-0.7,0.6-1c0.3-0.2,0.6-0.4,0.9-0.4c0.2,0,0.4,0,0.6,0.1L219,125.2z"/>
				<path class="st9" d="M224.9,127.4h-4.2c0,0.6,0.2,1.1,0.5,1.6c0.4,0.4,0.9,0.6,1.4,0.5c0.7,0,1.3-0.2,1.9-0.7v0.9
					c-0.6,0.4-1.3,0.6-2.1,0.6c-0.8,0-1.5-0.3-2-0.8c-0.5-0.6-0.8-1.5-0.7-2.3c0-0.8,0.3-1.6,0.8-2.3c0.5-0.6,1.2-0.9,2-0.9
					c0.7,0,1.4,0.2,1.8,0.8c0.5,0.6,0.7,1.4,0.6,2.1L224.9,127.4z M223.9,126.6c0-0.5-0.1-0.9-0.4-1.3c-0.3-0.3-0.7-0.5-1.1-0.5
					c-0.4,0-0.9,0.2-1.1,0.5c-0.3,0.3-0.5,0.8-0.6,1.3H223.9z"/>
				<path class="st9" d="M231.5,130.2h-1v-1l0,0c-0.7,1.1-2.2,1.5-3.3,0.8c-0.2-0.1-0.4-0.3-0.5-0.5c-0.5-0.6-0.7-1.4-0.7-2.2
					c0-0.9,0.2-1.7,0.8-2.4c0.5-0.6,1.2-0.9,2-0.9c0.7,0,1.4,0.3,1.8,1l0,0v-3.8h1L231.5,130.2z M230.5,127.5v-0.9
					c0-0.5-0.2-0.9-0.5-1.2c-0.3-0.3-0.8-0.5-1.2-0.5c-0.5,0-1.1,0.2-1.4,0.6c-0.4,0.5-0.5,1.1-0.5,1.8c0,0.6,0.1,1.2,0.5,1.6
					c0.3,0.4,0.8,0.6,1.3,0.6c0.5,0,1-0.2,1.3-0.6C230.4,128.5,230.6,128,230.5,127.5L230.5,127.5z"/>
				<path class="st9" d="M233.9,122.7c-0.2,0-0.3-0.1-0.4-0.2c-0.1-0.1-0.2-0.3-0.2-0.4c0-0.2,0.1-0.3,0.2-0.4
					c0.1-0.1,0.3-0.2,0.4-0.2c0.2,0,0.3,0.1,0.4,0.2c0.1,0.1,0.2,0.3,0.2,0.4c0,0.2-0.1,0.3-0.2,0.4
					C234.2,122.6,234,122.7,233.9,122.7z M234.3,130.2h-1v-6h1V130.2z"/>
				<path class="st9" d="M239.3,125.2c-0.2-0.1-0.5-0.2-0.7-0.2c-0.4,0-0.8,0.2-1,0.6c-0.3,0.5-0.4,1-0.4,1.6v3.1h-1v-6h1v1.2l0,0
					c0.1-0.4,0.3-0.7,0.6-1c0.3-0.2,0.6-0.4,0.9-0.4c0.2,0,0.4,0,0.6,0.1L239.3,125.2z"/>
				<path class="st9" d="M245.1,127.4h-4.2c0,0.6,0.2,1.1,0.5,1.6c0.4,0.4,0.9,0.6,1.4,0.5c0.7,0,1.3-0.2,1.9-0.7v0.9
					c-0.6,0.4-1.3,0.6-2.1,0.6c-0.8,0-1.5-0.3-2-0.8c-1-1.4-1-3.2,0.1-4.6c0.5-0.6,1.2-0.9,2-0.9c0.7,0,1.4,0.2,1.8,0.8
					c0.5,0.6,0.7,1.4,0.6,2.1L245.1,127.4z M244.1,126.6c0-0.5-0.1-0.9-0.4-1.3c-0.3-0.3-0.7-0.5-1.1-0.5c-0.4,0-0.9,0.2-1.1,0.5
					c-0.3,0.3-0.5,0.8-0.6,1.3H244.1z"/>
				<path class="st9" d="M250.7,129.9c-0.5,0.3-1.1,0.4-1.6,0.4c-0.8,0-1.5-0.3-2.1-0.8c-0.5-0.6-0.8-1.4-0.8-2.2
					c0-0.9,0.3-1.7,0.9-2.4c0.6-0.6,1.4-0.9,2.3-0.9c0.5,0,1,0.1,1.4,0.3v1c-0.4-0.3-0.9-0.5-1.4-0.5c-0.6,0-1.1,0.2-1.5,0.7
					c-0.4,0.5-0.6,1.1-0.6,1.7c0,0.6,0.2,1.2,0.6,1.7c0.4,0.4,0.9,0.6,1.5,0.6c0.5,0,1.1-0.2,1.5-0.5L250.7,129.9z"/>
				<path class="st9" d="M255.2,130.1c-0.3,0.1-0.6,0.2-0.9,0.2c-1.1,0-1.6-0.6-1.6-1.8V125h-1v-0.8h1v-1.5l1-0.3v1.8h1.5v0.8h-1.5
					v3.4c0,0.3,0,0.6,0.2,0.9c0.2,0.2,0.4,0.3,0.7,0.3c0.2,0,0.4-0.1,0.6-0.2L255.2,130.1z"/>
				<path class="st9" d="M266,126.8c0,2.4-1.1,3.5-3.2,3.5s-3.1-1.1-3.1-3.4v-5.1h1v5.1c0,1.7,0.7,2.6,2.2,2.6s2.1-0.8,2.1-2.5v-5.2
					h1L266,126.8z"/>
				<path class="st9" d="M274,130.2h-1.2l-1.4-2.4c-0.1-0.2-0.2-0.4-0.4-0.6c-0.1-0.1-0.2-0.3-0.4-0.4c-0.1-0.1-0.3-0.2-0.4-0.2
					c-0.2,0-0.3-0.1-0.5-0.1H269v3.6h-1v-8.4h2.5c0.3,0,0.7,0,1,0.1c0.3,0.1,0.6,0.2,0.8,0.4c0.2,0.2,0.4,0.4,0.5,0.7
					c0.2,0.6,0.3,1.2,0.1,1.8c-0.1,0.2-0.2,0.5-0.4,0.7c-0.2,0.2-0.4,0.4-0.6,0.5c-0.2,0.1-0.5,0.2-0.8,0.3l0,0
					c0.1,0.1,0.3,0.1,0.4,0.2c0.1,0.1,0.2,0.2,0.3,0.3c0.1,0.1,0.2,0.2,0.3,0.4l0.3,0.5L274,130.2z M269,122.7v3h1.3
					c0.2,0,0.5,0,0.7-0.1c0.2-0.1,0.4-0.2,0.5-0.3c0.2-0.1,0.3-0.3,0.4-0.5c0.1-0.2,0.1-0.4,0.1-0.7c0-0.4-0.1-0.8-0.4-1.1
					c-0.4-0.3-0.8-0.4-1.3-0.4L269,122.7z"/>
				<path class="st9" d="M279.5,130.2h-4.4v-8.4h1v7.5h3.4L279.5,130.2z"/>
			</g>
		</g>
		<g>
			<path class="st9" d="M190.6,10.2h-1V6.8c0-1.3-0.5-1.9-1.4-1.9c-0.5,0-0.9,0.2-1.2,0.6c-0.3,0.4-0.5,0.9-0.5,1.4v3.4h-1V1.4h1
				v3.9l0,0c0.4-0.7,1.2-1.2,2-1.1c1.4,0,2,0.8,2,2.4L190.6,10.2z"/>
			<path class="st9" d="M195.1,10.2c-0.3,0.1-0.6,0.2-0.9,0.2c-1,0-1.6-0.6-1.6-1.8V5.1h-1V4.2h1V2.8l1-0.3v1.8h1.5v0.8h-1.5v3.4
				c0,0.3,0,0.6,0.2,0.9c0.2,0.2,0.4,0.3,0.7,0.3c0.2,0,0.4-0.1,0.6-0.2L195.1,10.2z"/>
			<path class="st9" d="M199.4,10.2c-0.3,0.1-0.6,0.2-0.9,0.2c-1,0-1.6-0.6-1.6-1.8V5.1h-1V4.2h1V2.8l1-0.3v1.8h1.5v0.8H198v3.4
				c0,0.3,0,0.6,0.2,0.9c0.2,0.2,0.4,0.3,0.7,0.3c0.2,0,0.4-0.1,0.6-0.2L199.4,10.2z"/>
			<path class="st9" d="M201.6,9.4L201.6,9.4V13h-1V4.2h1v1l0,0c0.4-0.8,1.2-1.2,2.1-1.2c0.7,0,1.4,0.3,1.8,0.8
				c0.5,0.6,0.7,1.4,0.6,2.2c0,0.9-0.2,1.7-0.7,2.4c-0.5,0.6-1.2,0.9-2,0.9C202.7,10.4,202,10,201.6,9.4z M201.6,6.9v0.8
				c0,0.5,0.2,0.9,0.5,1.3c0.3,0.3,0.8,0.5,1.2,0.5c0.5,0,1.1-0.2,1.4-0.7c0.4-0.6,0.5-1.2,0.5-1.9c0-0.6-0.1-1.1-0.5-1.6
				c-0.3-0.4-0.8-0.6-1.3-0.6c-0.5,0-1,0.2-1.4,0.6C201.8,5.9,201.6,6.4,201.6,6.9L201.6,6.9z"/>
			<path class="st9" d="M207.3,10V9c0.5,0.4,1.1,0.6,1.7,0.6c0.8,0,1.3-0.3,1.3-0.9c0-0.1,0-0.3-0.1-0.4c-0.1-0.1-0.2-0.2-0.3-0.3
				c-0.1-0.1-0.3-0.2-0.4-0.2l-0.5-0.2c-0.3-0.1-0.5-0.2-0.7-0.3c-0.2-0.1-0.4-0.2-0.5-0.4c-0.1-0.1-0.2-0.3-0.3-0.5
				c-0.1-0.2-0.1-0.4-0.1-0.6c0-0.3,0.1-0.5,0.2-0.8c0.1-0.2,0.3-0.4,0.5-0.5c0.2-0.2,0.5-0.3,0.7-0.3c0.3-0.1,0.6-0.1,0.9-0.1
				c0.5,0,1,0.1,1.4,0.3v1c-0.5-0.3-1-0.4-1.5-0.4c-0.1,0-0.3,0-0.4,0.1c-0.1,0-0.3,0.1-0.4,0.2c-0.1,0.1-0.2,0.2-0.2,0.3
				c-0.1,0.1-0.1,0.2-0.1,0.3c0,0.1,0,0.3,0.1,0.4c0.1,0.1,0.1,0.2,0.3,0.3c0.1,0.1,0.3,0.2,0.4,0.2l0.5,0.2
				c0.3,0.1,0.5,0.2,0.7,0.3c0.2,0.1,0.4,0.2,0.5,0.4c0.1,0.1,0.3,0.3,0.3,0.5c0.1,0.2,0.1,0.4,0.1,0.6c0,0.3-0.1,0.5-0.2,0.8
				c-0.1,0.2-0.3,0.4-0.5,0.6c-0.2,0.1-0.5,0.3-0.8,0.3c-0.3,0.1-0.6,0.1-0.9,0.1C208.3,10.4,207.8,10.3,207.3,10z"/>
			<path class="st9" d="M212.9,5.4c-0.2,0-0.3-0.1-0.5-0.2c-0.3-0.3-0.3-0.7,0-0.9c0,0,0,0,0,0c0.1-0.1,0.3-0.2,0.5-0.2
				c0.2,0,0.3,0.1,0.5,0.2c0.3,0.3,0.3,0.7,0,0.9c0,0,0,0,0,0C213.3,5.3,213.1,5.4,212.9,5.4z M212.9,10.4c-0.4,0-0.6-0.3-0.6-0.6
				c0-0.2,0.1-0.3,0.2-0.5c0.1-0.1,0.3-0.2,0.5-0.2c0.4,0,0.7,0.3,0.7,0.6c0,0,0,0,0,0c0,0.2-0.1,0.3-0.2,0.5
				C213.3,10.3,213.1,10.4,212.9,10.4z"/>
			<path class="st9" d="M219,1.8l-4,9.8h-0.9l4-9.8L219,1.8z"/>
			<path class="st9" d="M222.7,1.8l-4,9.8h-0.9l4-9.8L222.7,1.8z"/>
			<path class="st9" d="M228.4,4.2l-2.8,7c-0.5,1.2-1.2,1.9-2.1,1.9c-0.2,0-0.4,0-0.6-0.1v-0.9c0.2,0.1,0.4,0.1,0.6,0.1
				c0.5,0,1-0.4,1.1-0.9l0.5-1.1l-2.3-6h1.1l1.6,4.6c0,0.1,0.1,0.2,0.1,0.5l0,0c0-0.1,0-0.2,0.1-0.4l1.7-4.6L228.4,4.2z"/>
			<path class="st9" d="M231.8,10.4c-0.8,0-1.6-0.3-2.1-0.8c-0.5-0.6-0.8-1.4-0.8-2.2c0-0.9,0.2-1.7,0.8-2.4
				c0.6-0.6,1.4-0.9,2.2-0.8c0.8,0,1.6,0.3,2.1,0.8c0.5,0.6,0.8,1.5,0.8,2.3c0,0.8-0.2,1.7-0.8,2.3
				C233.4,10.1,232.6,10.4,231.8,10.4z M231.9,4.9c-0.6,0-1.1,0.2-1.5,0.6c-0.4,0.5-0.6,1.1-0.5,1.7c0,0.6,0.1,1.2,0.5,1.7
				c0.4,0.4,0.9,0.6,1.5,0.6c0.6,0,1.1-0.2,1.4-0.6c0.4-0.5,0.5-1.1,0.5-1.7c0-0.6-0.1-1.2-0.5-1.7C232.9,5.1,232.4,4.9,231.9,4.9z"
				/>
			<path class="st9" d="M241.1,10.2h-1v-1l0,0c-0.4,0.7-1.1,1.1-1.9,1.1c-1.4,0-2.1-0.9-2.1-2.6V4.2h1v3.4c0,1.3,0.5,1.9,1.4,1.9
				c0.4,0,0.9-0.2,1.2-0.5c0.3-0.4,0.5-0.9,0.4-1.4V4.2h1L241.1,10.2z"/>
			<path class="st9" d="M246.1,5.2c-0.2-0.1-0.5-0.2-0.7-0.2c-0.4,0-0.8,0.2-1,0.6c-0.3,0.5-0.4,1-0.4,1.6v3.1h-1v-6h1v1.2l0,0
				c0.1-0.4,0.3-0.7,0.6-1c0.3-0.2,0.6-0.3,0.9-0.3c0.2,0,0.4,0,0.6,0.1L246.1,5.2z"/>
			<path class="st9" d="M246.9,10V9c0.5,0.4,1.1,0.6,1.7,0.6c0.9,0,1.3-0.3,1.3-0.9c0-0.1,0-0.3-0.1-0.4c-0.1-0.1-0.2-0.2-0.3-0.3
				c-0.1-0.1-0.3-0.2-0.4-0.2l-0.5-0.2c-0.3-0.1-0.5-0.2-0.7-0.3c-0.2-0.1-0.4-0.2-0.5-0.4c-0.1-0.1-0.2-0.3-0.3-0.5
				C247,6.2,246.9,6,247,5.8c0-0.3,0.1-0.5,0.2-0.8c0.1-0.2,0.3-0.4,0.5-0.5c0.2-0.2,0.5-0.3,0.7-0.3c0.3-0.1,0.6-0.1,0.9-0.1
				c0.5,0,1,0.1,1.4,0.3v1c-0.5-0.3-1-0.4-1.5-0.4c-0.2,0-0.3,0-0.5,0.1c-0.1,0-0.3,0.1-0.4,0.2c-0.1,0.1-0.2,0.2-0.2,0.3
				c-0.1,0.1-0.1,0.2-0.1,0.3c0,0.1,0,0.3,0.1,0.4c0.1,0.1,0.1,0.2,0.3,0.3c0.1,0.1,0.3,0.2,0.4,0.2l0.5,0.2
				c0.3,0.1,0.5,0.2,0.7,0.3c0.2,0.1,0.4,0.2,0.5,0.4c0.1,0.1,0.3,0.3,0.3,0.5c0.1,0.2,0.1,0.4,0.1,0.6c0,0.3-0.1,0.5-0.2,0.8
				c-0.1,0.2-0.3,0.4-0.5,0.6c-0.2,0.1-0.5,0.3-0.8,0.3c-0.3,0.1-0.6,0.1-0.9,0.1C248,10.4,247.4,10.3,246.9,10z"/>
			<path class="st9" d="M252.8,2.7c-0.2,0-0.3-0.1-0.4-0.2c-0.1-0.1-0.2-0.3-0.2-0.5c0-0.2,0.1-0.3,0.2-0.5c0.1-0.1,0.3-0.2,0.4-0.2
				c0.2,0,0.3,0.1,0.4,0.2c0.1,0.1,0.2,0.3,0.2,0.5c0,0.2-0.1,0.3-0.2,0.4C253.1,2.6,252.9,2.7,252.8,2.7z M253.2,10.2h-1v-6h1V10.2
				z"/>
			<path class="st9" d="M257.9,10.2c-0.3,0.1-0.6,0.2-0.9,0.2c-1.1,0-1.6-0.6-1.6-1.8V5.1h-1V4.2h1V2.8l1-0.3v1.8h1.5v0.8h-1.5v3.4
				c0,0.3,0,0.6,0.2,0.9c0.2,0.2,0.4,0.3,0.7,0.3c0.2,0,0.4-0.1,0.6-0.2L257.9,10.2z"/>
			<path class="st9" d="M263.9,7.5h-4.2c0,0.6,0.2,1.1,0.5,1.5c0.4,0.4,0.9,0.6,1.4,0.6c0.7,0,1.3-0.2,1.9-0.7v0.9
				c-0.6,0.4-1.3,0.6-2.1,0.6c-0.8,0-1.5-0.3-2-0.8c-0.5-0.7-0.8-1.5-0.7-2.3c0-0.8,0.3-1.7,0.8-2.3c0.5-0.6,1.2-0.9,2-0.9
				c0.7,0,1.4,0.2,1.8,0.8c0.5,0.6,0.7,1.4,0.6,2.2V7.5z M262.9,6.7c0-0.5-0.1-0.9-0.4-1.3c-0.3-0.3-0.7-0.5-1.1-0.5
				c-0.4,0-0.9,0.2-1.1,0.5c-0.3,0.3-0.5,0.8-0.6,1.3L262.9,6.7z"/>
			<path class="st9" d="M265.6,10.4c-0.4,0-0.6-0.3-0.6-0.6c0-0.2,0.1-0.3,0.2-0.5c0.1-0.1,0.3-0.2,0.5-0.2c0.4,0,0.7,0.3,0.7,0.6
				c0,0,0,0,0,0c0,0.2-0.1,0.3-0.2,0.5C266,10.3,265.8,10.4,265.6,10.4z"/>
			<path class="st9" d="M271.8,10c-0.5,0.3-1.1,0.4-1.6,0.4c-0.8,0-1.5-0.3-2.1-0.8c-0.5-0.6-0.8-1.4-0.8-2.2
				c-0.1-0.9,0.3-1.8,0.9-2.4c0.6-0.6,1.4-0.9,2.3-0.9c0.5,0,1,0.1,1.4,0.3v1c-0.4-0.3-0.9-0.5-1.4-0.5c-0.6,0-1.1,0.2-1.5,0.7
				c-0.4,0.5-0.6,1.1-0.6,1.7c0,0.6,0.2,1.2,0.6,1.7c0.4,0.4,0.9,0.6,1.5,0.6c0.5,0,1.1-0.2,1.5-0.5L271.8,10z"/>
			<path class="st9" d="M275.6,10.4c-0.8,0-1.6-0.3-2.1-0.8c-0.5-0.6-0.8-1.4-0.8-2.2c-0.1-0.9,0.2-1.7,0.8-2.4
				c0.6-0.6,1.4-0.9,2.2-0.8c0.8,0,1.5,0.3,2.1,0.8c0.5,0.6,0.8,1.5,0.8,2.3c0,0.8-0.2,1.7-0.8,2.3
				C277.3,10.1,276.5,10.4,275.6,10.4z M275.7,4.9c-0.6,0-1.1,0.2-1.5,0.6c-0.4,0.5-0.6,1.1-0.5,1.7c0,0.6,0.1,1.2,0.6,1.7
				c0.4,0.4,0.9,0.6,1.5,0.6c0.5,0,1.1-0.2,1.4-0.6c0.4-0.5,0.5-1.1,0.5-1.7c0-0.6-0.1-1.2-0.5-1.7C276.8,5.1,276.3,4.9,275.7,4.9
				L275.7,4.9z"/>
			<path class="st9" d="M288.6,10.2h-1V6.8c0-0.5-0.1-1-0.3-1.4c-0.2-0.3-0.6-0.5-1-0.4c-0.4,0-0.8,0.2-1,0.6
				c-0.3,0.4-0.5,0.9-0.4,1.3v3.4h-1V6.7c0-1.2-0.5-1.8-1.4-1.8c-0.4,0-0.8,0.2-1,0.5c-0.3,0.4-0.4,0.9-0.4,1.4v3.4h-1v-6h1v0.9l0,0
				c0.4-0.7,1.1-1.1,1.9-1.1c0.4,0,0.8,0.1,1.1,0.3c0.3,0.2,0.5,0.5,0.6,0.9c0.4-0.8,1.1-1.3,2-1.3c1.3,0,2,0.8,2,2.4L288.6,10.2z"
				/>
		</g>
		<g>
			<path class="st9" d="M191.8,40.2h-1.2l-1.4-2.4c-0.1-0.2-0.2-0.4-0.4-0.6c-0.1-0.1-0.2-0.3-0.4-0.4c-0.1-0.1-0.3-0.2-0.4-0.2
				c-0.2-0.1-0.3-0.1-0.5-0.1h-0.8v3.6h-1v-8.4h2.5c0.3,0,0.7,0,1,0.1c0.3,0.1,0.6,0.2,0.8,0.4c0.2,0.2,0.4,0.4,0.5,0.7
				c0.1,0.3,0.2,0.7,0.2,1c0,0.3,0,0.5-0.1,0.8c-0.1,0.2-0.2,0.5-0.4,0.7c-0.2,0.2-0.4,0.4-0.6,0.5c-0.2,0.1-0.5,0.2-0.8,0.3l0,0
				c0.1,0.1,0.3,0.1,0.4,0.2c0.1,0.1,0.2,0.2,0.3,0.3c0.1,0.1,0.2,0.2,0.3,0.4l0.3,0.5L191.8,40.2z M186.8,32.7v3h1.3
				c0.2,0,0.5,0,0.7-0.1c0.2-0.1,0.4-0.2,0.5-0.3c0.2-0.1,0.3-0.3,0.4-0.5c0.1-0.2,0.1-0.4,0.1-0.7c0-0.4-0.2-0.7-0.4-1
				c-0.4-0.3-0.8-0.4-1.3-0.4L186.8,32.7z"/>
			<path class="st9" d="M197.4,37.5h-4.2c0,0.6,0.2,1.1,0.5,1.5c0.4,0.4,0.9,0.6,1.4,0.5c0.7,0,1.3-0.2,1.8-0.7v0.9
				c-0.6,0.4-1.3,0.6-2.1,0.6c-0.8,0-1.5-0.3-2-0.8c-0.5-0.7-0.8-1.5-0.7-2.3c0-0.8,0.3-1.6,0.8-2.3c0.5-0.6,1.2-0.9,2-0.9
				c0.7,0,1.4,0.2,1.8,0.8c0.5,0.6,0.7,1.4,0.6,2.1L197.4,37.5z M196.4,36.7c0-0.5-0.1-0.9-0.4-1.3c-0.3-0.3-0.7-0.5-1.1-0.5
				c-0.4,0-0.9,0.2-1.1,0.5c-0.3,0.3-0.5,0.8-0.6,1.3H196.4z"/>
			<path class="st9" d="M204.1,40.2h-1v-1l0,0c-0.7,1.1-2.2,1.5-3.3,0.8c-0.2-0.1-0.4-0.3-0.5-0.5c-0.5-0.6-0.7-1.4-0.7-2.2
				c0-0.9,0.2-1.7,0.8-2.4c0.5-0.6,1.2-0.9,2-0.9c0.7,0,1.4,0.3,1.8,1l0,0v-3.7h1L204.1,40.2z M203.1,37.5v-0.9
				c0-0.5-0.2-0.9-0.5-1.2c-0.3-0.3-0.8-0.5-1.2-0.5c-0.5,0-1.1,0.2-1.4,0.7c-0.4,0.5-0.5,1.1-0.5,1.8c0,0.6,0.1,1.2,0.5,1.7
				c0.3,0.4,0.8,0.6,1.3,0.6c0.5,0,1-0.2,1.3-0.6C203,38.6,203.1,38.1,203.1,37.5L203.1,37.5z"/>
			<path class="st9" d="M206.4,32.7c-0.2,0-0.3-0.1-0.4-0.2c-0.2-0.3-0.2-0.6,0-0.9c0.1-0.1,0.3-0.2,0.4-0.2c0.2,0,0.3,0.1,0.4,0.2
				c0.1,0.1,0.2,0.3,0.2,0.4c0,0.2-0.1,0.3-0.2,0.4C206.7,32.6,206.6,32.7,206.4,32.7z M206.9,40.2h-1v-6h1V40.2z"/>
			<path class="st9" d="M211.8,35.2c-0.2-0.1-0.5-0.2-0.7-0.2c-0.4,0-0.8,0.2-1,0.6c-0.3,0.5-0.4,1-0.4,1.6v3.1h-1v-6h1v1.2l0,0
				c0.1-0.4,0.3-0.7,0.6-1c0.3-0.2,0.6-0.3,0.9-0.3c0.2,0,0.4,0,0.6,0.1L211.8,35.2z"/>
			<path class="st9" d="M217.7,37.5h-4.2c0,0.6,0.2,1.1,0.5,1.5c0.4,0.4,0.9,0.6,1.4,0.5c0.7,0,1.3-0.2,1.9-0.7v0.9
				c-0.6,0.4-1.3,0.6-2.1,0.6c-0.8,0-1.5-0.3-2-0.8c-0.5-0.6-0.8-1.5-0.7-2.3c0-0.8,0.3-1.7,0.8-2.3c0.5-0.6,1.2-0.9,2-0.9
				c0.7,0,1.4,0.2,1.8,0.8c0.5,0.6,0.7,1.4,0.6,2.2V37.5z M216.7,36.7c0-0.5-0.1-0.9-0.4-1.3c-0.3-0.3-0.7-0.5-1.1-0.5
				c-0.4,0-0.9,0.2-1.1,0.5c-0.3,0.3-0.5,0.8-0.6,1.3H216.7z"/>
			<path class="st9" d="M223.3,40c-0.5,0.3-1.1,0.4-1.6,0.4c-0.8,0-1.5-0.3-2.1-0.8c-0.5-0.6-0.8-1.4-0.8-2.2c0-0.9,0.3-1.7,0.9-2.4
				c0.6-0.6,1.4-0.9,2.3-0.9c0.5,0,1,0.1,1.4,0.3v1c-0.4-0.3-0.9-0.5-1.4-0.5c-0.6,0-1.1,0.2-1.5,0.7c-0.4,0.5-0.6,1.1-0.6,1.7
				c0,0.6,0.2,1.2,0.6,1.7c0.4,0.4,0.9,0.6,1.5,0.6c0.5,0,1.1-0.2,1.5-0.5L223.3,40z"/>
			<path class="st9" d="M227.7,40.2c-0.3,0.1-0.6,0.2-0.9,0.2c-1.1,0-1.6-0.6-1.6-1.8v-3.5h-1v-0.8h1v-1.5l1-0.3v1.8h1.5v0.8h-1.6
				v3.4c0,0.3,0,0.6,0.2,0.9c0.2,0.2,0.4,0.3,0.7,0.3c0.2,0,0.4-0.1,0.6-0.2L227.7,40.2z"/>
		</g>
		<g>
			<path class="st9" d="M186.7,64.1v3.2h-1v-8.4h2.3c0.8-0.1,1.5,0.2,2.1,0.7c0.5,0.5,0.8,1.2,0.7,1.8c0,0.8-0.3,1.5-0.8,2
				c-0.6,0.5-1.4,0.8-2.2,0.8L186.7,64.1z M186.7,59.7v3.5h1c0.6,0,1.1-0.1,1.6-0.5c0.4-0.3,0.6-0.8,0.5-1.3c0-1.1-0.6-1.7-2-1.7
				H186.7z"/>
			<path class="st9" d="M195.3,62.2c-0.2-0.1-0.5-0.2-0.7-0.2c-0.4,0-0.8,0.2-1,0.6c-0.3,0.5-0.5,1-0.4,1.6v3h-1v-6h1v1.2l0,0
				c0.1-0.4,0.3-0.7,0.6-1c0.3-0.2,0.6-0.3,0.9-0.3c0.2,0,0.4,0,0.6,0.1V62.2z"/>
			<path class="st9" d="M198.9,67.4c-0.8,0-1.6-0.3-2.1-0.8c-0.5-0.6-0.8-1.4-0.8-2.2c-0.1-0.9,0.2-1.7,0.8-2.4
				c0.6-0.6,1.4-0.9,2.2-0.8c0.8,0,1.5,0.3,2.1,0.8c0.5,0.6,0.8,1.5,0.8,2.3c0,0.8-0.2,1.7-0.8,2.3
				C200.5,67.1,199.7,67.4,198.9,67.4z M198.9,61.9c-0.6,0-1.1,0.2-1.5,0.6c-0.4,0.5-0.6,1.1-0.5,1.7c0,0.6,0.2,1.2,0.6,1.7
				c0.4,0.4,0.9,0.6,1.5,0.6c0.5,0,1.1-0.2,1.4-0.6c0.4-0.5,0.5-1.1,0.5-1.7c0-0.6-0.1-1.2-0.5-1.7C200,62.1,199.5,61.9,198.9,61.9
				L198.9,61.9z"/>
			<path class="st9" d="M211.8,67.2h-1v-3.4c0-0.5-0.1-1-0.3-1.4c-0.2-0.3-0.6-0.5-1-0.5c-0.4,0-0.8,0.2-1,0.6
				c-0.3,0.4-0.4,0.9-0.4,1.3v3.4h-1v-3.6c0-1.2-0.4-1.8-1.4-1.8c-0.4,0-0.8,0.2-1,0.5c-0.3,0.4-0.4,0.9-0.4,1.4v3.4h-1v-6h1v1l0,0
				c0.4-0.7,1.1-1.1,1.9-1.1c0.4,0,0.8,0.1,1.1,0.3c0.3,0.2,0.5,0.5,0.6,0.9c0.4-0.8,1.1-1.3,2-1.3c1.3,0,2,0.8,2,2.5L211.8,67.2z"
				/>
			<path class="st9" d="M214.6,66.4L214.6,66.4V70h-1v-8.8h1v1.1l0,0c0.4-0.8,1.2-1.2,2.1-1.2c0.7,0,1.4,0.3,1.8,0.8
				c0.5,0.6,0.7,1.4,0.6,2.2c0,0.9-0.2,1.7-0.7,2.4c-0.5,0.6-1.2,0.9-2,0.9C215.6,67.4,214.9,67,214.6,66.4z M214.6,64v0.8
				c0,0.5,0.2,0.9,0.5,1.3c0.7,0.7,1.7,0.7,2.4,0c0.1-0.1,0.1-0.1,0.2-0.2c0.4-0.6,0.5-1.2,0.5-1.9c0-0.6-0.1-1.1-0.5-1.6
				c-0.3-0.4-0.8-0.6-1.3-0.6c-0.5,0-1,0.2-1.4,0.6C214.7,62.9,214.5,63.4,214.6,64L214.6,64z"/>
			<path class="st9" d="M223.4,67.2c-0.3,0.1-0.6,0.2-0.9,0.2c-1.1,0-1.6-0.6-1.6-1.8v-3.5h-1v-0.8h1v-1.5l1-0.3v1.8h1.5v0.8h-1.5
				v3.4c0,0.3,0,0.6,0.2,0.9c0.2,0.2,0.4,0.3,0.7,0.3c0.2,0,0.4-0.1,0.6-0.2L223.4,67.2z"/>
			<path class="st9" d="M189.7,80c-0.5,0.3-1.1,0.4-1.6,0.4c-0.8,0-1.5-0.3-2.1-0.8c-0.5-0.6-0.8-1.4-0.8-2.2c0-0.9,0.3-1.7,0.9-2.4
				c0.6-0.6,1.4-0.9,2.3-0.9c0.5,0,1,0.1,1.4,0.3v1c-0.4-0.3-0.9-0.5-1.4-0.5c-0.6,0-1.1,0.2-1.5,0.7c-0.4,0.5-0.6,1.1-0.6,1.7
				c0,0.6,0.2,1.2,0.6,1.7c0.4,0.4,0.9,0.6,1.5,0.6c0.5,0,1.1-0.2,1.5-0.5L189.7,80z"/>
			<path class="st9" d="M194.1,75.2c-0.2-0.1-0.5-0.2-0.7-0.2c-0.4,0-0.8,0.2-1,0.6c-0.3,0.5-0.5,1-0.4,1.6v3h-1v-6h1v1.2l0,0
				c0.1-0.4,0.3-0.7,0.6-1c0.3-0.2,0.6-0.4,1-0.3c0.2,0,0.4,0,0.6,0.1L194.1,75.2z"/>
			<path class="st9" d="M200,77.5h-4.2c0,0.6,0.2,1.1,0.5,1.5c0.4,0.4,0.9,0.6,1.4,0.6c0.7,0,1.3-0.2,1.9-0.7v0.9
				c-0.6,0.4-1.3,0.6-2.1,0.6c-0.8,0-1.5-0.3-2-0.8c-0.5-0.7-0.8-1.5-0.7-2.3c0-0.8,0.2-1.6,0.8-2.3c0.5-0.6,1.2-0.9,2-0.9
				c0.7,0,1.4,0.2,1.8,0.8c0.5,0.6,0.7,1.4,0.6,2.2V77.5z M199,76.7c0-0.5-0.1-0.9-0.4-1.3c-0.3-0.3-0.7-0.5-1.1-0.5
				c-0.4,0-0.9,0.2-1.2,0.5c-0.3,0.3-0.5,0.8-0.6,1.3L199,76.7z"/>
			<path class="st9" d="M206.6,80.2h-1v-1l0,0c-0.4,0.8-1.2,1.2-2.1,1.2c-0.7,0-1.4-0.3-1.8-0.8c-0.5-0.6-0.7-1.4-0.7-2.2
				c0-0.9,0.2-1.7,0.8-2.4c0.5-0.6,1.2-0.9,2-0.9c0.7,0,1.4,0.3,1.8,1l0,0v-3.8h1L206.6,80.2z M205.6,77.5v-0.9
				c0-0.5-0.2-0.9-0.5-1.2c-0.3-0.3-0.7-0.5-1.2-0.5c-0.5,0-1.1,0.2-1.4,0.7c-0.4,0.5-0.5,1.1-0.5,1.8c0,0.6,0.1,1.2,0.5,1.6
				c0.3,0.4,0.8,0.6,1.3,0.6c0.5,0,1-0.2,1.3-0.6C205.5,78.6,205.7,78.1,205.6,77.5L205.6,77.5z"/>
			<path class="st9" d="M213.4,77.5h-4.2c0,0.6,0.2,1.1,0.5,1.5c0.4,0.4,0.9,0.6,1.4,0.6c0.7,0,1.3-0.2,1.9-0.7v0.9
				c-0.6,0.4-1.3,0.6-2.1,0.6c-0.8,0-1.5-0.3-2-0.8c-0.5-0.7-0.8-1.5-0.7-2.3c0-0.8,0.2-1.6,0.8-2.3c0.5-0.6,1.2-0.9,2-0.9
				c0.7,0,1.4,0.2,1.8,0.8c0.5,0.6,0.7,1.4,0.6,2.1L213.4,77.5z M212.4,76.7c0-0.5-0.1-0.9-0.4-1.3c-0.3-0.3-0.7-0.5-1.1-0.5
				c-0.4,0-0.9,0.2-1.1,0.5c-0.3,0.3-0.5,0.8-0.6,1.3L212.4,76.7z"/>
			<path class="st9" d="M219.8,80.2h-1v-3.4c0-1.3-0.5-1.9-1.4-1.9c-0.5,0-0.9,0.2-1.2,0.5c-0.3,0.4-0.5,0.9-0.5,1.4v3.4h-1v-6h1v1
				l0,0c0.4-0.7,1.2-1.2,2-1.1c0.6,0,1.1,0.2,1.5,0.6c0.4,0.5,0.6,1.2,0.5,1.8L219.8,80.2z"/>
			<path class="st9" d="M224.3,80.2c-0.3,0.1-0.6,0.2-0.9,0.2c-1,0-1.6-0.6-1.6-1.8v-3.6h-1v-0.8h1v-1.5l1-0.3v1.8h1.5v0.8h-1.5v3.4
				c0,0.3,0,0.6,0.2,0.9c0.2,0.2,0.4,0.3,0.7,0.3c0.2,0,0.4-0.1,0.6-0.2L224.3,80.2z"/>
			<path class="st9" d="M226,72.7c-0.2,0-0.3-0.1-0.4-0.2c-0.2-0.3-0.2-0.6,0-0.9c0.1-0.1,0.3-0.2,0.4-0.2c0.3,0,0.6,0.3,0.6,0.6
				c0,0,0,0,0,0c0,0.2-0.1,0.3-0.2,0.4C226.3,72.6,226.2,72.7,226,72.7z M226.5,80.2h-1v-6h1V80.2z"/>
			<path class="st9" d="M232.6,80.2h-1v-0.9l0,0c-0.4,0.7-1.1,1.1-1.9,1.1c-0.5,0-1-0.1-1.4-0.5c-0.3-0.3-0.5-0.8-0.5-1.3
				c0-1.1,0.7-1.8,2-2l1.8-0.3c0-1-0.4-1.5-1.2-1.5c-0.7,0-1.4,0.3-2,0.7v-1c0.6-0.4,1.3-0.6,2-0.6c1.4,0,2.1,0.8,2.1,2.2
				L232.6,80.2z M231.6,77.2l-1.4,0.2c-0.4,0-0.7,0.1-1,0.3c-0.2,0.2-0.4,0.5-0.3,0.8c0,0.3,0.1,0.5,0.3,0.7
				c0.2,0.2,0.5,0.3,0.8,0.3c0.4,0,0.9-0.2,1.2-0.5c0.3-0.3,0.5-0.8,0.5-1.3L231.6,77.2z"/>
			<path class="st9" d="M235.3,80.2h-1v-8.9h1V80.2z"/>
			<path class="st9" d="M236.8,80v-1c0.5,0.4,1.1,0.6,1.7,0.6c0.8,0,1.3-0.3,1.3-0.8c0-0.1,0-0.3-0.1-0.4c-0.1-0.1-0.2-0.2-0.3-0.3
				c-0.1-0.1-0.3-0.2-0.4-0.2l-0.5-0.2c-0.3-0.1-0.5-0.2-0.7-0.3c-0.2-0.1-0.4-0.2-0.5-0.4c-0.1-0.1-0.2-0.3-0.3-0.5
				c-0.1-0.2-0.1-0.4-0.1-0.6c0-0.3,0.1-0.5,0.2-0.8c0.1-0.2,0.3-0.4,0.5-0.5c0.2-0.2,0.5-0.3,0.7-0.3c0.3-0.1,0.6-0.1,0.9-0.1
				c0.5,0,1,0.1,1.4,0.3v1c-0.4-0.3-1-0.5-1.5-0.5c-0.2,0-0.3,0-0.5,0.1c-0.1,0-0.3,0.1-0.4,0.2c-0.1,0.1-0.2,0.2-0.2,0.3
				c-0.1,0.1-0.1,0.2-0.1,0.3c0,0.1,0,0.3,0.1,0.4c0.1,0.1,0.1,0.2,0.3,0.3c0.1,0.1,0.3,0.2,0.4,0.2l0.5,0.2
				c0.3,0.1,0.5,0.2,0.7,0.3c0.2,0.1,0.4,0.2,0.5,0.4c0.3,0.3,0.5,0.7,0.5,1.1c0,0.3-0.1,0.5-0.2,0.8c-0.1,0.2-0.3,0.4-0.5,0.6
				c-0.2,0.1-0.5,0.3-0.8,0.3c-0.3,0.1-0.6,0.1-0.9,0.1C237.9,80.4,237.3,80.3,236.8,80z"/>
		</g>
		<g>
			<path class="st1" d="M405.2,96.1h-1.9V91c0-0.5,0-1.1,0.1-1.8h0c-0.1,0.4-0.1,0.7-0.3,1.1l-2,5.7h-1.5l-2-5.7
				c-0.1-0.4-0.2-0.8-0.3-1.2l0,0c0,0.8,0.1,1.6,0.1,2.2V96h-1.7v-8.4h2.8l1.7,5c0.1,0.4,0.2,0.8,0.3,1.2l0,0
				c0.1-0.4,0.2-0.8,0.3-1.2l1.7-5h2.7L405.2,96.1z"/>
			<path class="st1" d="M407.8,89.1c-0.3,0-0.6-0.1-0.8-0.3c-0.2-0.2-0.3-0.4-0.3-0.7c0-0.3,0.1-0.5,0.3-0.7
				c0.2-0.2,0.5-0.3,0.8-0.3c0.3,0,0.6,0.1,0.8,0.3c0.2,0.2,0.3,0.4,0.3,0.7c0,0.3-0.1,0.5-0.3,0.7C408.3,89,408.1,89.1,407.8,89.1z
				 M408.7,96.1h-1.9v-6h1.9V96.1z"/>
			<path class="st1" d="M414.8,95.8c-0.6,0.3-1.2,0.4-1.8,0.4c-0.8,0-1.6-0.3-2.2-0.8c-0.6-0.6-0.9-1.4-0.9-2.2
				c0-0.9,0.3-1.8,0.9-2.4c0.7-0.6,1.5-0.9,2.5-0.9c0.5,0,1.1,0.1,1.5,0.3v1.6c-0.4-0.3-0.8-0.4-1.3-0.4c-0.5,0-0.9,0.1-1.3,0.5
				c-0.3,0.3-0.5,0.8-0.5,1.3c0,0.5,0.1,0.9,0.5,1.3c0.3,0.3,0.8,0.5,1.2,0.4c0.5,0,1-0.2,1.4-0.4L414.8,95.8z"/>
			<path class="st1" d="M420,91.7c-0.2-0.1-0.5-0.2-0.8-0.2c-0.4,0-0.7,0.2-0.9,0.4c-0.2,0.3-0.4,0.8-0.3,1.2V96h-1.9v-6h1.9v1.1
				l0,0c0.2-0.7,0.8-1.2,1.6-1.2c0.2,0,0.3,0,0.5,0.1V91.7z"/>
			<path class="st1" d="M423.8,96.2c-0.9,0-1.7-0.3-2.4-0.8c-1.2-1.3-1.2-3.3,0-4.6c0.7-0.6,1.5-0.9,2.4-0.8c0.9,0,1.7,0.3,2.3,0.8
				c0.6,0.6,0.9,1.4,0.9,2.2c0.1,0.9-0.3,1.7-0.9,2.4C425.5,95.9,424.7,96.2,423.8,96.2z M423.8,91.3c-0.4,0-0.8,0.2-1,0.4
				c-0.3,0.4-0.4,0.8-0.4,1.3c0,1.2,0.5,1.7,1.4,1.7s1.3-0.6,1.3-1.8S424.8,91.3,423.8,91.3L423.8,91.3z"/>
			<path class="st1" d="M427.9,95.9v-1.5c0.3,0.2,0.6,0.3,0.9,0.4c0.3,0.1,0.6,0.1,0.9,0.1c0.3,0,0.5,0,0.8-0.1
				c0.2-0.1,0.3-0.2,0.3-0.4c0-0.1,0-0.2-0.1-0.3c-0.1-0.1-0.2-0.1-0.3-0.2c-0.1-0.1-0.3-0.1-0.5-0.2l-0.5-0.2
				c-0.2-0.1-0.4-0.2-0.6-0.3c-0.2-0.1-0.3-0.2-0.5-0.4c-0.1-0.1-0.2-0.3-0.3-0.5c-0.1-0.2-0.1-0.4-0.1-0.6c0-0.3,0.1-0.6,0.2-0.9
				c0.1-0.2,0.4-0.4,0.6-0.6c0.3-0.2,0.5-0.3,0.8-0.3c0.3-0.1,0.7-0.1,1-0.1c0.3,0,0.5,0,0.8,0.1c0.3,0,0.5,0.1,0.8,0.2v1.4
				c-0.2-0.1-0.5-0.2-0.8-0.3c-0.3-0.1-0.5-0.1-0.8-0.1c-0.1,0-0.2,0-0.4,0c-0.1,0-0.2,0-0.3,0.1c-0.1,0-0.1,0.1-0.2,0.2
				c0,0.1-0.1,0.1-0.1,0.2c0,0.1,0,0.2,0.1,0.3c0.1,0.1,0.2,0.2,0.3,0.2l0.4,0.2l0.4,0.1c0.2,0.1,0.5,0.2,0.7,0.3
				c0.2,0.1,0.4,0.2,0.5,0.3c0.1,0.1,0.3,0.3,0.3,0.5c0.1,0.2,0.1,0.4,0.1,0.7c0,0.3-0.1,0.6-0.2,0.9c-0.2,0.3-0.4,0.5-0.6,0.6
				c-0.3,0.2-0.6,0.3-0.9,0.3c-0.3,0.1-0.7,0.1-1,0.1C429.2,96.2,428.5,96.1,427.9,95.9z"/>
			<path class="st1" d="M436.5,96.2c-0.9,0-1.7-0.3-2.4-0.8c-1.2-1.3-1.2-3.3,0-4.6c0.7-0.6,1.5-0.9,2.4-0.8
				c0.9-0.1,1.7,0.3,2.3,0.8c0.6,0.6,0.9,1.4,0.9,2.2c0,0.9-0.3,1.7-0.9,2.4C438.2,95.9,437.4,96.2,436.5,96.2z M436.5,91.3
				c-0.4,0-0.8,0.2-1,0.4c-0.3,0.4-0.4,0.8-0.4,1.3c0,1.2,0.5,1.7,1.4,1.7s1.3-0.6,1.3-1.8S437.5,91.3,436.5,91.3L436.5,91.3z"/>
			<path class="st1" d="M444.9,88.6c-0.2-0.1-0.4-0.1-0.7-0.1c-0.6,0-0.9,0.3-0.9,1v0.6h1.4v1.4h-1.4v4.6h-1.9v-4.7h-1v-1.4h1v-0.8
				c0-0.6,0.2-1.2,0.7-1.7c0.5-0.4,1.1-0.7,1.8-0.6c0.3,0,0.6,0,0.9,0.1V88.6z"/>
			<path class="st1" d="M449.4,96c-0.4,0.2-0.8,0.2-1.2,0.2c-1.3,0-2-0.7-2-2v-2.8h-1v-1.4h1v-1.3l1.8-0.5v1.8h1.4v1.4h-1.4v2.4
				c0,0.6,0.2,0.9,0.8,0.9c0.2,0,0.4-0.1,0.6-0.2V96z"/>
			<path class="st1" d="M401.8,103.5c-0.3,0-0.6-0.1-0.8-0.3c-0.2-0.2-0.3-0.4-0.3-0.7c0-0.3,0.1-0.5,0.3-0.7
				c0.2-0.2,0.5-0.3,0.8-0.3c0.3,0,0.6,0.1,0.8,0.3c0.2,0.2,0.3,0.4,0.3,0.7c0,0.3-0.1,0.5-0.3,0.7
				C402.4,103.4,402.1,103.5,401.8,103.5z M402.7,110.5h-1.9v-6h1.9V110.5z"/>
			<path class="st1" d="M410.2,110.4h-1.9v-0.8l0,0c-0.4,0.6-1.1,1-1.9,1c-0.7,0-1.4-0.3-1.8-0.8c-0.5-0.6-0.7-1.4-0.7-2.2
				c0-0.9,0.2-1.7,0.8-2.4c0.5-0.6,1.2-0.9,2-0.9c0.7-0.1,1.3,0.3,1.6,0.8l0,0v-3.6h1.9L410.2,110.4z M408.4,107.5v-0.4
				c0-0.4-0.1-0.7-0.3-1c-0.2-0.3-0.6-0.4-0.9-0.4c-0.4,0-0.8,0.2-1,0.5c-0.2,0.4-0.4,0.9-0.3,1.3c0,0.4,0.1,0.9,0.3,1.2
				c0.2,0.3,0.6,0.4,0.9,0.4c0.4,0,0.7-0.2,0.9-0.4C408.2,108.4,408.4,108,408.4,107.5L408.4,107.5z"/>
			<path class="st1" d="M417.1,108h-3.9c0.1,0.9,0.6,1.3,1.6,1.3c0.6,0,1.2-0.2,1.7-0.5v1.3c-0.7,0.3-1.4,0.5-2.2,0.4
				c-1.5,0.2-2.9-1-3-2.5c0-0.2,0-0.3,0-0.5c0-0.9,0.3-1.7,0.9-2.4c0.6-0.6,1.3-0.9,2.1-0.9c0.7,0,1.5,0.2,2,0.8
				c0.5,0.6,0.8,1.3,0.7,2.1L417.1,108z M415.4,106.9c0-0.9-0.3-1.3-1-1.3c-0.3,0-0.6,0.1-0.8,0.4c-0.2,0.3-0.4,0.6-0.4,0.9H415.4z"
				/>
			<path class="st1" d="M424.1,110.4h-1.9v-3.3c0-0.9-0.3-1.4-1-1.4c-0.3,0-0.6,0.1-0.8,0.4c-0.2,0.3-0.3,0.6-0.3,0.9v3.4h-1.8v-6
				h1.9v0.9l0,0c0.4-0.7,1.1-1.1,1.9-1.1c1.3,0,2,0.8,2,2.5L424.1,110.4z"/>
			<path class="st1" d="M429.1,110.4c-0.4,0.2-0.8,0.2-1.2,0.2c-1.3,0-2-0.7-2-2v-2.8h-1v-1.4h1v-1.3l1.8-0.5v1.8h1.4v1.4h-1.4v2.4
				c0,0.6,0.3,0.9,0.8,0.9c0.2,0,0.4-0.1,0.6-0.2V110.4z"/>
			<path class="st1" d="M431.2,103.5c-0.3,0-0.6-0.1-0.8-0.3c-0.2-0.2-0.3-0.4-0.3-0.7c0-0.3,0.1-0.5,0.3-0.7c0.4-0.4,1.1-0.4,1.5,0
				c0.2,0.2,0.3,0.4,0.3,0.7c0,0.3-0.1,0.5-0.3,0.7C431.7,103.4,431.5,103.5,431.2,103.5z M432.1,110.5h-1.9v-6h1.9V110.5z"/>
			<path class="st1" d="M437.2,110.4c-0.4,0.2-0.8,0.2-1.2,0.2c-1.3,0-2-0.7-2-2v-2.8h-1v-1.4h1v-1.3l1.8-0.5v1.8h1.4v1.4h-1.4v2.4
				c0,0.6,0.3,0.9,0.8,0.9c0.2,0,0.4-0.1,0.6-0.2V110.4z"/>
			<path class="st1" d="M444.2,104.4l-2.4,6.5c-0.6,1.6-1.5,2.3-2.6,2.3c-0.4,0-0.8,0-1.1-0.2v-1.5c0.2,0.1,0.5,0.2,0.8,0.2
				c0.4,0,0.9-0.2,1-0.7l0.3-0.8l-2.4-6h2l1.1,3.7c0.1,0.3,0.1,0.5,0.2,0.8l0,0c0-0.3,0.1-0.5,0.2-0.8l1.1-3.7L444.2,104.4z"/>
			<path class="st1" d="M399.9,124.2L399.9,124.2v3.4H398v-8.8h1.9v0.9l0,0c0.7-1.1,2.2-1.4,3.3-0.7c0.2,0.1,0.3,0.2,0.5,0.4
				c0.5,0.6,0.7,1.4,0.6,2.2c0,0.9-0.2,1.7-0.7,2.4c-0.5,0.6-1.2,0.9-2,0.9C400.8,125,400.2,124.7,399.9,124.2z M399.8,121.7v0.5
				c0,0.4,0.1,0.7,0.3,1c0.2,0.3,0.5,0.4,0.9,0.4c0.4,0,0.8-0.2,1-0.5c0.3-0.4,0.4-0.9,0.4-1.4c0-1.1-0.4-1.6-1.2-1.6
				c-0.4,0-0.7,0.1-0.9,0.4C400,120.9,399.8,121.3,399.8,121.7z"/>
			<path class="st1" d="M407.4,124.8h-1.9V116h1.9V124.8z"/>
			<path class="st1" d="M413.9,124.8h-1.8V124l0,0c-0.4,0.6-1,1-1.8,1c-0.5,0-1-0.1-1.4-0.5c-0.3-0.4-0.5-0.8-0.5-1.3
				c0-1.2,0.7-1.8,2.1-2l1.6-0.2c0-0.7-0.4-1-1.1-1c-0.7,0-1.4,0.2-2,0.6v-1.4c0.3-0.2,0.7-0.3,1.1-0.3c0.4-0.1,0.8-0.1,1.2-0.2
				c1.2-0.2,2.4,0.7,2.6,1.9c0,0.2,0,0.4,0,0.6L413.9,124.8z M412.2,122.4V122l-1.1,0.1c-0.6,0.1-0.9,0.3-0.9,0.8
				c0,0.2,0.1,0.4,0.2,0.5c0.2,0.1,0.4,0.2,0.6,0.2c0.3,0,0.6-0.1,0.9-0.4C412.1,123.1,412.2,122.7,412.2,122.4z"/>
			<path class="st1" d="M418.9,124.8c-0.4,0.2-0.8,0.2-1.2,0.2c-1,0.1-1.9-0.5-2-1.5c0-0.2,0-0.3,0-0.5v-2.8h-1v-1.4h1v-1.3l1.9-0.5
				v1.8h1.3v1.4h-1.3v2.4c0,0.6,0.2,0.9,0.7,0.9c0.2,0,0.4-0.1,0.6-0.2L418.9,124.8z"/>
			<path class="st1" d="M424,117.4c-0.2-0.1-0.4-0.1-0.7-0.1c-0.6,0-0.9,0.3-0.9,1v0.6h1.4v1.4h-1.4v4.6h-1.9v-4.6h-1v-1.4h1v-0.8
				c0-0.6,0.2-1.2,0.7-1.7c0.5-0.4,1.2-0.7,1.8-0.6c0.3,0,0.6,0,0.9,0.1V117.4z"/>
			<path class="st1" d="M427.6,125c-0.9,0-1.7-0.3-2.4-0.8c-1.2-1.3-1.2-3.3,0-4.6c0.7-0.6,1.5-0.9,2.4-0.8c0.9-0.1,1.7,0.3,2.3,0.8
				c0.6,0.6,0.9,1.4,0.9,2.2c0,0.9-0.3,1.7-0.9,2.4C429.3,124.7,428.5,125,427.6,125z M427.7,120.1c-0.4,0-0.8,0.2-1,0.4
				c-0.3,0.4-0.4,0.8-0.4,1.3c0,1.2,0.5,1.7,1.4,1.7s1.3-0.6,1.3-1.8S428.6,120.1,427.7,120.1L427.7,120.1z"/>
			<path class="st1" d="M436,120.5c-0.2-0.1-0.5-0.2-0.8-0.2c-0.4,0-0.7,0.2-0.9,0.4c-0.2,0.3-0.4,0.8-0.3,1.2v2.9h-1.9v-6h1.9v1.2
				l0,0c0.2-0.7,0.8-1.2,1.6-1.2c0.2,0,0.3,0,0.5,0.1L436,120.5z"/>
			<path class="st1" d="M446.4,124.8h-1.9v-3.4c0-0.9-0.3-1.3-1-1.3c-0.3,0-0.6,0.1-0.7,0.4c-0.2,0.3-0.3,0.6-0.3,1v3.4h-1.8v-3.5
				c0-0.8-0.3-1.3-0.9-1.3c-0.3,0-0.6,0.1-0.8,0.4c-0.2,0.3-0.3,0.6-0.3,1v3.3h-1.9v-6h1.9v0.9l0,0c0.2-0.3,0.5-0.6,0.8-0.8
				c0.3-0.2,0.7-0.3,1.1-0.3c0.8,0,1.5,0.4,1.7,1.1c0.4-0.7,1.2-1.2,2-1.1c1.3,0,2,0.8,2,2.4L446.4,124.8z"/>
		</g>
		<g>
			<path class="st1" d="M406.7,18h-2.1l-0.6-1.9h-3l-0.6,1.9h-2l3.1-8.4h2.3L406.7,18z M403.6,14.7l-0.9-2.8
				c-0.1-0.2-0.1-0.5-0.1-0.8h0c0,0.2-0.1,0.5-0.1,0.7l-0.9,2.9H403.6z"/>
			<path class="st1" d="M407.5,17.7v-1.9c0.6,0.5,1.5,0.9,2.3,0.8c0.2,0,0.4,0,0.6-0.1c0.2,0,0.3-0.1,0.5-0.2
				c0.1-0.1,0.2-0.2,0.3-0.3c0.1-0.1,0.1-0.2,0.1-0.3c0-0.2,0-0.3-0.1-0.4c-0.1-0.1-0.2-0.3-0.4-0.4c-0.2-0.1-0.4-0.2-0.6-0.3
				l-0.7-0.3c-0.6-0.2-1.1-0.6-1.5-1c-0.3-0.4-0.5-0.9-0.5-1.4c0-0.4,0.1-0.8,0.3-1.1c0.2-0.3,0.4-0.6,0.7-0.8
				c0.3-0.2,0.7-0.4,1-0.4c0.4-0.1,0.8-0.2,1.3-0.1c0.4,0,0.8,0,1.2,0.1c0.3,0,0.6,0.1,0.9,0.2v1.8c-0.1-0.1-0.3-0.2-0.5-0.3
				c-0.2-0.1-0.3-0.1-0.5-0.2c-0.2,0-0.3-0.1-0.5-0.1c-0.2,0-0.3,0-0.5,0c-0.2,0-0.4,0-0.6,0.1c-0.2,0-0.3,0.1-0.5,0.2
				c-0.1,0.1-0.2,0.2-0.3,0.3c-0.1,0.1-0.1,0.2-0.1,0.4c0,0.1,0,0.3,0.1,0.4c0.1,0.1,0.2,0.2,0.3,0.3c0.2,0.1,0.3,0.2,0.5,0.3
				l0.7,0.3c0.3,0.1,0.6,0.3,0.9,0.4c0.3,0.1,0.5,0.3,0.7,0.5c0.2,0.2,0.3,0.4,0.4,0.7c0.2,0.7,0.2,1.4-0.1,2
				c-0.2,0.3-0.4,0.6-0.7,0.8c-0.3,0.2-0.7,0.3-1.1,0.4c-0.4,0.1-0.8,0.1-1.3,0.1c-0.4,0-0.9,0-1.3-0.1
				C408.2,18,407.8,17.8,407.5,17.7z"/>
			<path class="st1" d="M416.5,15.1V18h-1.9V9.6h3c2.1,0,3.2,0.9,3.2,2.7c0,0.8-0.3,1.5-0.9,2.1c-0.7,0.5-1.6,0.8-2.4,0.8H416.5z
				 M416.5,11v2.6h0.7c1,0,1.5-0.4,1.5-1.3s-0.5-1.3-1.5-1.3H416.5z"/>
			<path class="st1" d="M421.4,18.1c-0.3,0-0.6-0.1-0.8-0.3c-0.2-0.2-0.3-0.4-0.3-0.7c0-0.3,0.1-0.5,0.3-0.7
				c0.2-0.2,0.5-0.3,0.8-0.3c0.3,0,0.6,0.1,0.8,0.3c0.2,0.2,0.3,0.4,0.3,0.7c0,0.3-0.1,0.5-0.3,0.7C422,18,421.7,18.1,421.4,18.1z"
				/>
			<path class="st1" d="M431.6,18h-1.9l-3.5-5.3c-0.2-0.3-0.3-0.6-0.4-0.7l0,0c0,0.3,0,0.8,0,1.4V18H424V9.6h2l3.3,5.1
				c0.1,0.2,0.3,0.5,0.4,0.7l0,0c0-0.4-0.1-0.8,0-1.1V9.6h1.8L431.6,18z"/>
			<path class="st1" d="M438.5,18h-5V9.6h4.9v1.5h-3V13h2.8v1.5h-2.8v1.9h3.1L438.5,18z"/>
			<path class="st1" d="M445.8,11.1h-2.4V18h-1.9v-6.9h-2.4V9.6h6.7L445.8,11.1z"/>
			<path class="st1" d="M401.6,32.1c-0.8,0.3-1.6,0.5-2.4,0.4c-1.1,0.1-2.2-0.4-3-1.1c-0.8-0.8-1.2-1.9-1.1-3
				c-0.1-1.2,0.4-2.4,1.2-3.3c0.9-0.9,2-1.3,3.2-1.3c0.7,0,1.4,0.1,2.1,0.3V26c-0.6-0.3-1.2-0.5-1.9-0.5c-0.7,0-1.4,0.2-1.9,0.8
				c-0.5,0.5-0.8,1.3-0.7,2c0,0.7,0.2,1.4,0.7,1.9c0.5,0.5,1.1,0.8,1.8,0.7c0.7,0,1.4-0.2,2-0.5L401.6,32.1z"/>
			<path class="st1" d="M405.6,32.5c-0.9,0-1.7-0.3-2.4-0.8c-0.6-0.6-0.9-1.4-0.9-2.3c-0.1-0.9,0.3-1.7,0.9-2.3
				c0.7-0.6,1.5-0.9,2.4-0.8c0.9,0,1.7,0.3,2.3,0.8c0.6,0.6,0.9,1.4,0.9,2.2c0.1,0.9-0.3,1.7-0.9,2.4
				C407.4,32.3,406.5,32.6,405.6,32.5z M405.7,27.7c-0.4,0-0.8,0.2-1,0.5c-0.3,0.4-0.4,0.8-0.4,1.3c0,1.1,0.5,1.7,1.4,1.7
				s1.3-0.6,1.3-1.8S406.6,27.7,405.7,27.7z"/>
			<path class="st1" d="M414,28.1c-0.2-0.1-0.5-0.2-0.8-0.2c-0.4,0-0.7,0.2-1,0.5c-0.2,0.4-0.4,0.8-0.3,1.2v2.9h-1.9v-6h1.9v1.1l0,0
				c0.2-0.7,0.8-1.2,1.6-1.2c0.2,0,0.3,0,0.5,0.1L414,28.1z"/>
			<path class="st1" d="M420.4,29.9h-3.9c0.1,0.9,0.6,1.3,1.6,1.3c0.6,0,1.2-0.2,1.7-0.5v1.3c-0.7,0.3-1.4,0.5-2.2,0.4
				c-1.5,0.2-2.9-1-3-2.5c0-0.2,0-0.4,0-0.6c0-0.9,0.3-1.7,0.9-2.4c0.6-0.6,1.3-0.9,2.1-0.9c0.7,0,1.5,0.2,2,0.8
				c0.5,0.6,0.8,1.3,0.7,2.1L420.4,29.9z M418.6,28.8c0-0.9-0.3-1.3-1-1.3c-0.3,0-0.6,0.1-0.8,0.4c-0.2,0.3-0.4,0.6-0.4,0.9
				L418.6,28.8z"/>
			<path class="st1" d="M435.9,24l-2.2,8.4h-2.1l-1.4-5.4c-0.1-0.3-0.1-0.6-0.1-0.9l0,0c0,0.3-0.1,0.6-0.1,0.9l-1.4,5.4h-2.2
				l-2.2-8.4h2.1l1.2,5.6c0.1,0.3,0.1,0.7,0.1,1l0,0c0-0.3,0.1-0.7,0.2-1l1.6-5.6h2l1.4,5.6c0.1,0.3,0.1,0.6,0.1,0.9l0,0
				c0-0.3,0.1-0.6,0.1-0.9L434,24H435.9z"/>
			<path class="st1" d="M441.9,29.9H438c0.1,0.9,0.6,1.3,1.6,1.3c0.6,0,1.2-0.2,1.7-0.5v1.3c-0.7,0.3-1.4,0.5-2.2,0.4
				c-1.5,0.2-2.9-1-3.1-2.5c0-0.2,0-0.4,0-0.6c0-0.9,0.3-1.7,0.9-2.4c0.6-0.6,1.3-0.9,2.1-0.9c0.7,0,1.5,0.2,2,0.8
				c0.5,0.6,0.8,1.3,0.7,2.1L441.9,29.9z M440.2,28.8c0-0.9-0.3-1.3-1-1.3c-0.3,0-0.6,0.1-0.8,0.4c-0.2,0.3-0.4,0.6-0.4,0.9
				L440.2,28.8z"/>
			<path class="st1" d="M444.9,31.7L444.9,31.7v0.7h-1.9v-8.9h1.9v3.8l0,0c0.4-0.7,1.2-1.1,2-1c0.7,0,1.4,0.3,1.8,0.8
				c0.5,0.6,0.7,1.4,0.6,2.2c0,0.9-0.2,1.7-0.7,2.4c-0.5,0.6-1.2,1-2,0.9C445.9,32.6,445.3,32.2,444.9,31.7z M444.9,29.2v0.6
				c0,0.4,0.1,0.7,0.3,1c0.2,0.3,0.5,0.4,0.9,0.4c0.4,0,0.8-0.2,1-0.5c0.3-0.4,0.4-0.9,0.4-1.4c0-0.4-0.1-0.8-0.3-1.2
				c-0.2-0.3-0.6-0.4-0.9-0.4c-0.4,0-0.7,0.1-0.9,0.4C445,28.4,444.9,28.8,444.9,29.2z"/>
			<path class="st1" d="M418.8,46.8h-2.1l-0.6-1.9h-3l-0.6,1.9h-2.1l3.1-8.4h2.3L418.8,46.8z M415.7,43.5l-0.9-2.8
				c-0.1-0.2-0.1-0.5-0.1-0.8h0c0,0.2-0.1,0.5-0.1,0.7l-0.9,2.8H415.7z"/>
			<path class="st1" d="M421.6,46.1L421.6,46.1v3.5h-1.9v-8.8h1.9v0.9l0,0c0.7-1.1,2.2-1.4,3.3-0.6c0.2,0.1,0.3,0.2,0.5,0.4
				c0.4,0.6,0.7,1.4,0.6,2.2c0.1,0.9-0.2,1.7-0.7,2.4c-0.5,0.6-1.2,0.9-2,0.9C422.6,46.9,421.9,46.6,421.6,46.1z M421.5,43.6v0.5
				c0,0.4,0.1,0.7,0.3,1c0.2,0.3,0.5,0.4,0.9,0.4c0.4,0,0.8-0.2,1-0.5c0.3-0.4,0.4-0.9,0.3-1.4c0-1.1-0.4-1.6-1.2-1.6
				c-0.4,0-0.7,0.2-0.9,0.4C421.6,42.8,421.5,43.2,421.5,43.6z"/>
			<path class="st1" d="M429,46.1L429,46.1v3.5h-1.9v-8.8h1.9v0.9l0,0c0.4-0.7,1.2-1,1.9-1c0.7,0,1.4,0.3,1.8,0.8
				c0.5,0.6,0.7,1.4,0.6,2.2c0,0.9-0.2,1.7-0.7,2.4c-0.5,0.6-1.2,0.9-2,0.9C430,47,429.3,46.7,429,46.1z M429,43.6v0.5
				c0,0.4,0.1,0.7,0.3,1c0.2,0.3,0.5,0.4,0.9,0.4c0.4,0,0.8-0.2,1-0.5c0.3-0.4,0.4-0.9,0.4-1.4c0-1.1-0.4-1.6-1.2-1.6
				c-0.4,0-0.7,0.1-0.9,0.4C429.1,42.8,429,43.2,429,43.6z"/>
		</g>
		<g>
			<path class="st9" d="M51.6,106.1l-2.2,8.4h-2.1l-1.4-5.4c-0.1-0.3-0.1-0.7-0.1-1l0,0c0,0.3-0.1,0.7-0.2,1l-1.4,5.4h-2.2l-2.2-8.4
				h2.1l1.2,5.6c0.1,0.3,0.1,0.7,0.1,1l0,0c0-0.3,0.1-0.7,0.2-1l1.5-5.6h2l1.4,5.6c0.1,0.3,0.1,0.6,0.1,0.9l0,0
				c0-0.3,0.1-0.6,0.1-0.9l1.2-5.6L51.6,106.1z"/>
			<path class="st9" d="M57.5,112h-3.9c0.1,0.9,0.6,1.3,1.6,1.3c0.6,0,1.2-0.1,1.7-0.5v1.3c-0.7,0.3-1.4,0.5-2.2,0.4
				c-0.8,0.1-1.6-0.2-2.3-0.8c-0.6-0.6-0.9-1.4-0.8-2.3c0-0.9,0.3-1.7,0.9-2.4c0.6-0.6,1.3-0.9,2.1-0.9c0.7,0,1.5,0.2,2,0.8
				c0.5,0.6,0.8,1.3,0.7,2.1L57.5,112z M55.8,110.9c0-0.9-0.3-1.3-1-1.3c-0.3,0-0.6,0.2-0.8,0.4c-0.2,0.3-0.4,0.6-0.4,0.9
				L55.8,110.9z"/>
			<path class="st9" d="M60.6,113.8L60.6,113.8v0.7h-1.9v-8.9h1.8v3.8l0,0c0.4-0.7,1.2-1.1,2-1.1c0.7,0,1.4,0.3,1.8,0.8
				c0.5,0.6,0.7,1.4,0.6,2.2c0,0.9-0.2,1.7-0.7,2.4c-0.5,0.6-1.2,0.9-2,0.9C61.5,114.7,60.9,114.3,60.6,113.8z M60.5,111.3v0.6
				c0,0.4,0.1,0.7,0.3,1c0.2,0.2,0.5,0.4,0.8,0.4c0.4,0,0.8-0.2,1-0.5c0.3-0.4,0.4-0.9,0.3-1.4c0-0.4-0.1-0.8-0.3-1.2
				c-0.2-0.3-0.6-0.4-0.9-0.4c-0.4,0-0.7,0.1-0.9,0.4C60.7,110.5,60.5,110.9,60.5,111.3z"/>
			<path class="st9" d="M32.3,128.2L32.3,128.2v0.7h-1.9V120h1.9v3.8l0,0c0.4-0.7,1.2-1,2-1c0.7,0,1.4,0.3,1.8,0.8
				c0.5,0.6,0.7,1.4,0.6,2.2c0,0.9-0.2,1.7-0.7,2.4c-0.5,0.5-1.2,0.9-1.9,0.8C33.3,129.1,32.7,128.8,32.3,128.2z M32.2,125.7v0.6
				c0,0.4,0.1,0.7,0.3,1c0.2,0.2,0.5,0.4,0.9,0.4c0.4,0,0.8-0.2,1-0.5c0.3-0.4,0.4-0.9,0.3-1.4c0-0.4-0.1-0.8-0.3-1.2
				c-0.2-0.3-0.6-0.4-0.9-0.4c-0.4,0-0.7,0.1-0.9,0.4C32.4,124.9,32.2,125.3,32.2,125.7z"/>
			<path class="st9" d="M41.8,124.6c-0.2-0.1-0.5-0.2-0.8-0.2c-0.4,0-0.7,0.1-0.9,0.4c-0.2,0.4-0.4,0.8-0.3,1.2v2.9h-1.9v-6h1.8v1.1
				l0,0c0.2-0.7,0.8-1.2,1.6-1.2c0.2,0,0.3,0,0.5,0.1L41.8,124.6z"/>
			<path class="st9" d="M45.6,129c-0.9,0-1.7-0.3-2.4-0.8c-1.2-1.3-1.2-3.3,0-4.6c0.7-0.6,1.5-0.9,2.4-0.8c0.9,0,1.7,0.3,2.3,0.8
				c0.6,0.6,0.9,1.4,0.8,2.2c0,0.9-0.3,1.7-0.9,2.4C47.3,128.7,46.5,129,45.6,129z M45.6,124.1c-0.4,0-0.8,0.2-1,0.4
				c-0.3,0.4-0.4,0.8-0.4,1.3c0,1.2,0.5,1.7,1.4,1.7s1.4-0.6,1.4-1.7S46.5,124.2,45.6,124.1L45.6,124.1z"/>
			<path class="st9" d="M58.6,122.9l-1.7,6h-2l-0.9-3.5c-0.1-0.2-0.1-0.5-0.1-0.8l0,0c0,0.2-0.1,0.5-0.1,0.7l-1,3.5h-1.9l-1.7-6h1.9
				l0.8,3.9c0,0.2,0.1,0.4,0.1,0.7l0,0c0-0.2,0.1-0.5,0.1-0.7l1-3.9H55l0.9,3.9c0,0.1,0,0.3,0.1,0.7l0,0c0-0.2,0.1-0.5,0.1-0.7
				l0.8-3.9L58.6,122.9z"/>
			<path class="st9" d="M59.1,128.7v-1.5c0.3,0.2,0.6,0.3,0.9,0.4c0.3,0.1,0.6,0.1,0.9,0.1c0.3,0,0.5,0,0.8-0.1
				c0.2-0.1,0.3-0.2,0.3-0.4c0-0.1,0-0.2-0.1-0.3c-0.1-0.1-0.2-0.2-0.3-0.2c-0.1-0.1-0.3-0.1-0.4-0.2c-0.2,0-0.3-0.1-0.5-0.2
				c-0.2-0.1-0.4-0.2-0.6-0.3c-0.2-0.1-0.3-0.2-0.5-0.4c-0.1-0.1-0.2-0.3-0.3-0.5c-0.1-0.2-0.1-0.4-0.1-0.6c0-0.3,0.1-0.6,0.2-0.9
				c0.1-0.2,0.3-0.4,0.6-0.6c0.3-0.2,0.5-0.3,0.8-0.3c0.3-0.1,0.7-0.1,1-0.1c0.3,0,0.5,0,0.8,0.1c0.3,0,0.5,0.1,0.8,0.2v1.4
				c-0.2-0.1-0.5-0.2-0.8-0.3c-0.3-0.1-0.5-0.1-0.8-0.1c-0.1,0-0.2,0-0.3,0l-0.3,0.1c-0.1,0-0.1,0.1-0.2,0.2c0,0.1-0.1,0.1-0.1,0.2
				c0,0.1,0,0.2,0.1,0.3c0.1,0.1,0.2,0.1,0.3,0.2c0.1,0.1,0.2,0.1,0.4,0.2l0.4,0.1c0.2,0.1,0.5,0.2,0.7,0.3c0.2,0.1,0.4,0.2,0.5,0.4
				c0.1,0.1,0.3,0.3,0.3,0.5c0.1,0.2,0.1,0.4,0.1,0.7c0,0.3-0.1,0.6-0.2,0.9c-0.2,0.2-0.4,0.5-0.6,0.6c-0.3,0.2-0.6,0.3-0.9,0.4
				c-0.3,0.1-0.7,0.1-1,0.1C60.3,129,59.7,128.9,59.1,128.7z"/>
			<path class="st9" d="M70.2,126.4h-3.9c0.1,0.9,0.6,1.3,1.7,1.3c0.6,0,1.2-0.1,1.7-0.5v1.3c-0.7,0.3-1.4,0.5-2.2,0.4
				c-0.8,0.1-1.7-0.2-2.3-0.8c-0.6-0.6-0.8-1.4-0.8-2.3c0-0.9,0.3-1.7,0.9-2.4c0.6-0.6,1.3-0.9,2.1-0.9c0.7,0,1.5,0.2,2,0.8
				c0.5,0.6,0.8,1.3,0.7,2.1L70.2,126.4z M68.5,125.3c0-0.9-0.3-1.3-1-1.3c-0.3,0-0.6,0.1-0.8,0.4c-0.2,0.3-0.4,0.6-0.4,0.9H68.5z"
				/>
			<path class="st9" d="M75.3,124.6c-0.2-0.1-0.5-0.2-0.8-0.2c-0.4,0-0.7,0.1-0.9,0.4c-0.2,0.4-0.4,0.8-0.3,1.2v2.9h-1.9v-6h1.8v1.1
				l0,0c0.2-0.7,0.8-1.2,1.6-1.2c0.2,0,0.3,0,0.5,0.1L75.3,124.6z"/>
		</g>
		<g>
			<polygon class="st8" points="191.2,150.2 183.7,155.7 186.6,164.5 195.9,164.5 198.8,155.7 			"/>
			<g>
				<path class="st9" d="M211.1,161.8H210l-0.9-2.4h-3.6l-0.8,2.4h-1.1l3.2-8.4h1L211.1,161.8z M208.8,158.6l-1.3-3.6
					c-0.1-0.2-0.1-0.4-0.1-0.6l0,0c0,0.2-0.1,0.4-0.1,0.6l-1.3,3.6L208.8,158.6z"/>
				<path class="st9" d="M216.1,161.5c-0.5,0.3-1.1,0.4-1.6,0.4c-0.8,0-1.5-0.3-2.1-0.8c-0.5-0.6-0.8-1.4-0.8-2.2
					c0-0.9,0.3-1.7,0.9-2.4c0.6-0.6,1.4-0.9,2.3-0.9c0.5,0,1,0.1,1.4,0.3v1c-0.4-0.3-0.9-0.5-1.4-0.5c-0.6,0-1.1,0.2-1.5,0.7
					c-0.4,0.5-0.6,1.1-0.6,1.7c0,0.6,0.2,1.2,0.6,1.7c0.4,0.4,0.9,0.6,1.5,0.6c0.5,0,1.1-0.2,1.5-0.5V161.5z"/>
				<path class="st9" d="M221.6,161.5c-0.5,0.3-1.1,0.4-1.6,0.4c-0.8,0-1.5-0.3-2.1-0.8c-0.5-0.6-0.8-1.4-0.8-2.2
					c0-0.9,0.3-1.7,0.9-2.4c0.6-0.6,1.4-0.9,2.3-0.9c0.5,0,1,0.1,1.4,0.3v1c-0.4-0.3-0.9-0.5-1.4-0.5c-0.6,0-1.1,0.2-1.5,0.7
					c-0.4,0.5-0.6,1.1-0.6,1.7c0,0.6,0.2,1.2,0.6,1.7c0.4,0.4,0.9,0.6,1.5,0.6c0.5,0,1.1-0.2,1.5-0.5L221.6,161.5z"/>
				<path class="st9" d="M227.7,159.1h-4.2c0,0.6,0.2,1.1,0.5,1.6c0.4,0.4,0.9,0.6,1.4,0.6c0.7,0,1.3-0.2,1.9-0.7v0.9
					c-0.6,0.4-1.4,0.6-2.1,0.6c-0.8,0-1.5-0.3-2-0.8c-0.5-0.7-0.8-1.5-0.7-2.3c0-0.8,0.2-1.7,0.8-2.3c0.5-0.6,1.2-0.9,2-0.9
					c0.7,0,1.4,0.2,1.8,0.8c0.5,0.6,0.7,1.4,0.6,2.1L227.7,159.1z M226.7,158.2c0-0.5-0.1-0.9-0.4-1.3c-0.3-0.3-0.7-0.5-1.1-0.5
					c-0.4,0-0.9,0.2-1.1,0.5c-0.3,0.3-0.5,0.8-0.6,1.3H226.7z"/>
				<path class="st9" d="M228.8,161.6v-1c0.5,0.4,1.1,0.6,1.7,0.6c0.8,0,1.3-0.3,1.3-0.9c0-0.1,0-0.3-0.1-0.4
					c-0.1-0.1-0.2-0.2-0.3-0.3c-0.1-0.1-0.3-0.2-0.4-0.2l-0.5-0.2c-0.2-0.1-0.5-0.2-0.7-0.3c-0.2-0.1-0.4-0.2-0.5-0.4
					c-0.1-0.1-0.2-0.3-0.3-0.5c-0.1-0.2-0.1-0.4-0.1-0.6c0-0.3,0.1-0.5,0.2-0.8c0.1-0.2,0.3-0.4,0.5-0.6c0.2-0.1,0.5-0.3,0.7-0.3
					c0.3-0.1,0.6-0.1,0.9-0.1c0.5,0,1,0.1,1.4,0.3v1c-0.5-0.3-1-0.4-1.5-0.4c-0.2,0-0.3,0-0.5,0.1c-0.1,0-0.3,0.1-0.4,0.2
					c-0.1,0.1-0.2,0.2-0.2,0.3c-0.1,0.1-0.1,0.2-0.1,0.3c0,0.1,0,0.3,0.1,0.4c0.1,0.1,0.1,0.2,0.3,0.3c0.1,0.1,0.3,0.2,0.4,0.2
					l0.5,0.2c0.2,0.1,0.5,0.2,0.7,0.3c0.2,0.1,0.4,0.2,0.5,0.4c0.1,0.1,0.3,0.3,0.3,0.5c0.1,0.2,0.1,0.4,0.1,0.6
					c0,0.3-0.1,0.5-0.2,0.8c-0.1,0.2-0.3,0.4-0.5,0.6c-0.2,0.1-0.5,0.3-0.8,0.3c-0.3,0.1-0.6,0.1-0.9,0.1
					C229.8,162,229.3,161.9,228.8,161.6z"/>
				<path class="st9" d="M233.9,161.6v-1c0.5,0.4,1.1,0.6,1.7,0.6c0.9,0,1.3-0.3,1.3-0.9c0-0.1,0-0.3-0.1-0.4
					c-0.1-0.1-0.2-0.2-0.3-0.3c-0.1-0.1-0.3-0.2-0.4-0.2l-0.5-0.2c-0.2-0.1-0.5-0.2-0.7-0.3c-0.2-0.1-0.4-0.2-0.5-0.4
					c-0.1-0.1-0.2-0.3-0.3-0.5c-0.1-0.2-0.1-0.4-0.1-0.6c0-0.3,0.1-0.5,0.2-0.8c0.1-0.2,0.3-0.4,0.5-0.6c0.2-0.1,0.5-0.3,0.7-0.3
					c0.7-0.2,1.5-0.1,2.3,0.2v1c-0.5-0.3-1-0.4-1.5-0.4c-0.2,0-0.3,0-0.5,0.1c-0.1,0-0.3,0.1-0.4,0.2c-0.1,0.1-0.2,0.2-0.3,0.3
					c-0.1,0.1-0.1,0.2-0.1,0.3c0,0.1,0,0.3,0.1,0.4c0.1,0.1,0.1,0.2,0.3,0.3c0.1,0.1,0.3,0.2,0.4,0.2l0.5,0.2
					c0.2,0.1,0.5,0.2,0.7,0.3c0.2,0.1,0.4,0.2,0.5,0.4c0.1,0.1,0.3,0.3,0.3,0.5c0.1,0.2,0.1,0.4,0.1,0.6c0,0.3-0.1,0.5-0.2,0.8
					c-0.1,0.2-0.3,0.4-0.5,0.6c-0.2,0.1-0.5,0.3-0.8,0.3c-0.3,0.1-0.6,0.1-0.9,0.1C234.9,162,234.4,161.9,233.9,161.6z"/>
				<path class="st9" d="M245.4,161.8c-0.3,0.1-0.6,0.2-0.9,0.2c-1.1,0-1.6-0.6-1.6-1.8v-3.6h-1v-0.8h1v-1.5l1-0.3v1.8h1.5v0.8h-1.5
					v3.4c0,0.3,0,0.6,0.2,0.9c0.2,0.2,0.4,0.3,0.7,0.3c0.2,0,0.4-0.1,0.6-0.2L245.4,161.8z"/>
				<path class="st9" d="M249.1,162c-0.8,0-1.6-0.3-2.1-0.8c-0.5-0.6-0.8-1.4-0.8-2.2c0-0.9,0.3-1.7,0.8-2.4
					c0.6-0.6,1.4-0.9,2.2-0.9c0.8,0,1.5,0.3,2.1,0.8c0.5,0.6,0.8,1.5,0.8,2.3c0,0.8-0.3,1.7-0.8,2.3
					C250.7,161.7,249.9,162,249.1,162z M249.1,156.5c-0.6,0-1.1,0.2-1.5,0.6c-0.4,0.5-0.6,1.1-0.5,1.7c0,0.6,0.2,1.2,0.6,1.7
					c0.4,0.4,0.9,0.6,1.5,0.6c0.5,0,1.1-0.2,1.4-0.6c0.4-0.5,0.5-1.1,0.5-1.7c0-0.6-0.1-1.2-0.5-1.7
					C250.2,156.7,249.7,156.5,249.1,156.5L249.1,156.5z"/>
				<path class="st9" d="M258.5,161.8h-1.4l-2.6-2.9l0,0v2.9h-1v-8.9h1v5.6l0,0l2.5-2.8h1.3l-2.8,2.9L258.5,161.8z"/>
				<path class="st9" d="M264,159.1h-4.2c0,0.6,0.2,1.1,0.5,1.6c0.4,0.4,0.9,0.6,1.4,0.6c0.7,0,1.3-0.2,1.9-0.7v0.9
					c-0.6,0.4-1.4,0.6-2.1,0.6c-0.8,0-1.5-0.3-2-0.8c-0.5-0.6-0.8-1.5-0.7-2.3c0-0.8,0.3-1.7,0.8-2.3c0.5-0.6,1.2-0.9,2-0.9
					c0.7,0,1.4,0.2,1.8,0.8c0.5,0.6,0.7,1.4,0.6,2.1L264,159.1z M263,158.2c0-0.5-0.1-0.9-0.4-1.3c-0.3-0.3-0.7-0.5-1.1-0.5
					c-0.4,0-0.9,0.2-1.1,0.5c-0.3,0.3-0.5,0.8-0.6,1.3H263z"/>
				<path class="st9" d="M270.5,161.8h-1v-3.4c0-1.3-0.5-1.9-1.4-1.9c-0.5,0-0.9,0.2-1.2,0.5c-0.3,0.4-0.5,0.9-0.5,1.4v3.4h-1v-6h1
					v1l0,0c0.4-0.7,1.2-1.2,2-1.1c0.6,0,1.1,0.2,1.5,0.6c0.4,0.5,0.6,1.2,0.5,1.8L270.5,161.8z"/>
			</g>
		</g>
		
			<use xlink:href="#New_Symbol_45"  width="20" height="20" x="-10" y="-10" transform="matrix(1 0 0 1 168.55 169.2)" style="overflow:visible;"/>
	</g>
</g>
<g id="bg">
	<g id="Shapes_1_">
		<rect class="st1" width="492.8" height="180.1"/>
		<rect y="0.2" class="st4" width="105" height="155"/>
		<rect x="369.7" y="59.8" class="st5" width="105" height="95"/>
		<rect x="369.7" y="-0.2" class="st6" width="105" height="55"/>
		<g>
			<line class="st7" x1="104.6" y1="14.8" x2="364.2" y2="14.8"/>
			<polygon points="363.1,18.5 369.5,14.8 363.1,11 			"/>
		</g>
		<g>
			<line class="st7" x1="110" y1="44.7" x2="369.5" y2="44.7"/>
			<polygon points="111.1,48.4 104.6,44.7 111.1,40.9 			"/>
		</g>
		<g>
			<line class="st7" x1="104.6" y1="85.2" x2="364.2" y2="85.2"/>
			<polygon points="363.1,89 369.5,85.2 363.1,81.5 			"/>
		</g>
		<g>
			<line class="st7" x1="110" y1="135.9" x2="369.5" y2="135.9"/>
			<polygon points="111.1,139.6 104.6,135.9 111.1,132.1 			"/>
		</g>
		<g>
			<path class="st7" d="M50.5,155.2v7.3c0,4,4.5,7.3,10,7.3l419.1,0.8c5.5,0,10-4.5,10-10V30.3c-0.1-1.5-1.3-2.6-2.8-2.5H480"/>
			<polygon points="481.1,24 474.6,27.8 481.1,31.5 			"/>
		</g>
		<path d="M80.2,38.1c-6.6-8.6-16.9-13.7-27.7-13.7c-7.7,0-15.2,2.6-21.3,7.2c-15.3,11.7-18.2,33.7-6.5,49
			c6.6,8.6,16.9,13.7,27.7,13.7c7.7,0,15.2-2.6,21.3-7.2C89.1,75.4,92,53.5,80.4,38.2C80.3,38.2,80.3,38.1,80.2,38.1z M81.9,67.3
			c-1.2-0.9-3-2.3-5.3-4.1c0.8-2.1,0.5-4.5-0.8-6.4c-2.1-2.6-5.7-3.2-8.6-1.5c-3.1-2.7-6.4-5.9-10-9.4c10.7-5.9,18.6-5.2,19.1-5.1
			l0.3,0.4C82.4,48.5,84.3,58.2,81.9,67.3z M62.7,75.5c-0.2-0.9-0.6-1.7-1.1-2.4c-1.9-2.5-5.4-3.1-8-1.4c-2.9-1.6-5.6-3.4-8.2-5.4
			l-0.7-0.6c1.2-3,0.7-6.4-1.3-9c0-0.1-0.1-0.1-0.2-0.2c0.6-0.6,1.2-1.3,1.9-1.9c2.5-2.4,5.1-4.5,8-6.5l0,0h0.1l-0.1,0.1
			c3.7,3.5,7.8,6.8,11.6,9.8c-1,2.2-0.8,4.7,0.6,6.7c2.2,2.9,6.3,3.4,9.2,1.3c0.1-0.1,0.3-0.2,0.4-0.4c2.7,1.9,4.9,3.4,6.1,4.2
			c-0.9,2.4-2,4.6-3.4,6.7C75.6,76.9,70.1,77.6,62.7,75.5z M72.1,36.2c-7-1-14.1,0.4-20.3,3.8c-2.8-2.9-5.7-6.2-8.6-9.5
			C53.1,27.2,64.1,29.4,72.1,36.2z M34,35.3c1.6-1.2,3.3-2.3,5.1-3.2c2.4,3.7,5.1,7.2,8.2,10.4c-3.1,2.1-5.9,4.6-8.4,7.3
			c-1,1.1-1.9,2.2-2.8,3.3c-1.5,0-3,0.3-4.3,1c-2.4-4-3.6-8.7-3.4-13.4C30.1,38.7,31.9,36.8,34,35.3z M24.9,46.5c0,4,1,8,3.1,11.5
			c-1.7,3.2-1.4,7.1,0.8,10l0,0c-0.7,2.8-1.2,5.7-1.4,8.7C21.3,67.8,20.3,56.3,24.9,46.5z M52.5,89.8c-7.1,0-14-2.5-19.5-7.1
			c0-3.8,0.5-7.6,1.5-11.3c2.4,0.4,4.9-0.1,6.9-1.5l0.8,0.6c2.7,2.1,5.6,4,8.6,5.5c-0.2,1.6,0.2,3.2,1.2,4.5c2,2.7,5.8,3.2,8.5,1.2
			c0.6-0.5,1.1-1,1.5-1.7c3.9,0.8,7.8,1.2,11.7,1.2c-0.9,0.8-1.8,1.6-2.7,2.3C65.7,87.7,59.2,89.9,52.5,89.8z"/>
		
			<use xlink:href="#New_Symbol_44"  width="20" height="20" x="-10" y="-10" transform="matrix(1 0 0 1 168.55 135.79)" style="overflow:visible;"/>
		
			<use xlink:href="#New_Symbol_43"  width="20" height="20" x="-10" y="-10" transform="matrix(1 0 0 1 168.55 87.2)" style="overflow:visible;"/>
		
			<use xlink:href="#New_Symbol_41"  width="20" height="20" x="-10" y="-10" transform="matrix(1 0 0 1 168.55 14.2)" style="overflow:visible;"/>
		
			<use xlink:href="#New_Symbol_42"  width="20" height="20" x="-10" y="-10" transform="matrix(1 0 0 1 168.55 44.09)" style="overflow:visible;"/>
	</g>
	<g id="Text_1_">
		<polygon class="st8" points="192.2,105.7 184.6,111.2 187.5,120 196.9,120 199.8,111.2 		"/>
		<polygon class="st8" points="191.2,150.2 183.7,155.7 186.6,164.5 195.9,164.5 198.8,155.7 		"/>
		
			<use xlink:href="#New_Symbol_45"  width="20" height="20" x="-10" y="-10" transform="matrix(1 0 0 1 168.55 169.2)" style="overflow:visible;"/>
	</g>
</g>
<g id="txt">
	<g>
		<rect y="105.8" class="st10" width="105" height="30.5"/>
		<path class="st11" d="M24.8,113.2c-0.1,1-0.3,2-0.6,2.8l-0.9-0.4c0.3-0.9,0.5-1.8,0.6-2.6L24.8,113.2z M27.4,107.4
			c-0.8,1.7-1.7,3.1-2.7,4.2c0.5-0.1,1-0.2,1.4-0.3c-0.1-0.3-0.2-0.5-0.3-0.7l0.9-0.3c0.3,0.6,0.5,1.3,0.7,2.1l-0.9,0.3
			c0-0.1-0.1-0.3-0.1-0.5c-1,0.2-1.9,0.4-2.8,0.6l-0.3-0.9c0.7-0.7,1.3-1.6,1.9-2.5c-0.6,0.1-1.1,0.2-1.6,0.3l-0.2-1
			c0.7-0.8,1.3-1.9,1.8-3.3l1,0.4c-0.4,1.1-0.9,2-1.4,2.6c0.4,0,0.8-0.1,1.1-0.2c0.2-0.4,0.4-0.8,0.7-1.4L27.4,107.4z M26.2,115.4
			l-1,0.2c0-0.9-0.1-1.7-0.2-2.4l0.9-0.1C26,113.8,26.1,114.6,26.2,115.4z M27.3,115l-0.8,0.2c-0.1-0.8-0.2-1.5-0.3-2.1l0.8-0.2
			C27.2,113.6,27.3,114.3,27.3,115z M33.5,115c0,0.4-0.1,0.6-0.3,0.8S32.6,116,32,116c-0.2,0-0.4,0-0.6,0l-0.4-1c0.4,0,0.8,0,1.2,0
			c0.1,0,0.1,0,0.2-0.1s0.1-0.1,0.1-0.1v-8h-3.9v9.3h-1v-10.3h5.9V115z M32.1,109.6h-3.2v-0.9h0.5c-0.1-0.5-0.3-0.9-0.5-1.3l0.9-0.2
			c0.2,0.5,0.4,1,0.5,1.6h0.2c0.2-0.4,0.4-1,0.5-1.5l0.9,0.3c-0.1,0.4-0.3,0.9-0.5,1.3h0.5V109.6z M32.1,111.7h-1.9v1.5
			c0,0,0,0.1,0.1,0.1s0.1,0.1,0.1,0.1H32v0.9h-1.8c-0.6,0-0.9-0.3-0.9-0.9v-1.8h-0.4v-0.9h1.3c-0.1-0.3-0.2-0.5-0.3-0.8l1-0.2
			c0.1,0.3,0.3,0.6,0.4,1h0.9V111.7z"/>
		<path class="st11" d="M45.8,106.7h-4.7c-0.1,0.3-0.2,0.7-0.4,1h4v6h-5.7l0.6,0.6c-1,0.7-2.2,1.3-3.6,1.7l-0.6-0.9
			c1.3-0.3,2.4-0.8,3.4-1.5h-2.3v-6h3.1c0.1-0.3,0.3-0.6,0.4-1h-4.7v-1h10.4V106.7z M43.6,109.5v-0.8h-6v0.8H43.6z M43.6,111.2v-0.8
			h-6v0.8H43.6z M43.6,112.8v-0.8h-6v0.8H43.6z M45.8,115.2l-0.6,0.8c-0.9-0.4-2.2-0.9-3.7-1.2l0.6-0.9
			C43.6,114.3,44.8,114.7,45.8,115.2z"/>
		<path class="st11" d="M49.5,112.3c-0.4,1.4-0.8,2.6-1.4,3.8l-0.9-0.6c0.6-1.2,1-2.4,1.4-3.8L49.5,112.3z M49.6,110l-0.7,0.8
			c-0.6-0.6-1.1-1.1-1.6-1.5l0.7-0.8C48.6,109,49.1,109.5,49.6,110z M49.5,107l-0.8,0.8c-0.4-0.5-0.9-1-1.4-1.5l0.8-0.8
			C48.7,105.9,49.1,106.4,49.5,107z M54.9,110.8l-0.5,0.8c-0.2-0.1-0.4-0.3-0.7-0.4v0.6h-1v0.6h1.8v0.8h-1.8v1.5
			c0.6-0.1,1.2-0.2,2-0.3l0,0.9c-1.8,0.3-3.5,0.6-5,0.7l-0.3-0.9c0.7-0.1,1.5-0.2,2.2-0.3v-1.6H50v-0.8h1.7v-0.6h-0.9v-0.4
			c-0.4,0.3-0.8,0.5-1.1,0.7l-0.6-0.7c1.2-0.8,2.2-1.5,2.7-2.3l0.9,0.3c0,0.1-0.1,0.1-0.1,0.2C53.5,110,54.2,110.4,54.9,110.8z
			 M54.7,105.8c0,1.8-0.1,2.8-0.2,3.2s-0.5,0.5-1,0.4l-0.2-0.8h0.3c0.1,0,0.1,0,0.1-0.1s0.1-0.3,0.1-0.7s0-0.8,0-1.2h-0.3
			c-0.1,1.1-0.3,2-0.7,2.7l-0.8-0.4c0.1-0.1,0.1-0.3,0.2-0.4l-0.5,0.4c-0.1-0.1-0.1-0.2-0.1-0.2c-0.5,0.3-1,0.6-1.6,0.8l-0.4-0.8
			c0.2-0.1,0.3-0.2,0.3-0.4v-2.1c0.5-0.1,1.1-0.4,1.8-0.8l0.4,0.8c-0.4,0.2-0.8,0.4-1.3,0.6v1.4c0.1-0.1,0.3-0.1,0.5-0.3
			c-0.1-0.2-0.2-0.3-0.3-0.5l0.7-0.4c0.2,0.3,0.4,0.7,0.6,1.2c0.2-0.6,0.3-1.1,0.3-1.7h-0.4v-0.8H54.7z M51.4,114.5l-0.8,0.4
			c-0.1-0.3-0.3-0.7-0.6-1l0.7-0.4C51,113.7,51.2,114.1,51.4,114.5z M53.4,111c-0.4-0.3-0.8-0.5-1.3-0.7c-0.2,0.3-0.5,0.5-0.7,0.7
			H53.4z M54.3,113.7c-0.1,0.3-0.3,0.5-0.5,0.8l-0.8-0.3c0.2-0.3,0.4-0.5,0.5-0.8L54.3,113.7z M55.9,113.8H55v-7.5h0.9V113.8z
			 M57.5,114.7c0,0.4-0.1,0.7-0.2,0.9s-0.5,0.3-1.1,0.3c-0.2,0-0.4,0-0.6,0l-0.3-1l1.1,0c0,0,0.1,0,0.1-0.1s0.1-0.1,0.1-0.1v-9.2h1
			V114.7z"/>
		<path class="st11" d="M69.8,114.4c-0.1,0.4-0.2,0.8-0.3,1s-0.3,0.4-0.5,0.5s-0.7,0.1-1.4,0.1c-1,0-1.6,0-1.9-0.1s-0.4-0.3-0.4-0.7
			v-0.8h-1.4c-0.2,0.5-0.5,0.9-1,1.2s-1.5,0.5-3.1,0.6l-0.4-0.9c1.1,0,1.9-0.1,2.4-0.2s0.8-0.3,0.9-0.6h-1.9v-4h7.5v4h-2v0.5
			c0,0.1,0,0.2,0.1,0.3s0.4,0.1,0.9,0.1c0.6,0,1,0,1.2-0.1s0.3-0.4,0.3-1L69.8,114.4z M64.4,106.3h-1.5v0.5h1.2v1.8h-1.2v0.5h1.5
			v0.7h-4.7v-4.3h4.7V106.3z M61.9,106.9v-0.5h-1.1v0.5H61.9z M63.1,108v-0.5h-2.4v0.5H63.1z M61.9,109.2v-0.5h-1.1v0.5H61.9z
			 M67.2,111.5v-0.4h-5.3v0.4H67.2z M67.2,112.6v-0.4h-5.3v0.4H67.2z M67.2,113.7v-0.4h-5.3v0.4H67.2z M69.7,106.7h-3.7
			c-0.3,0.4-0.6,0.8-0.9,1.1l-0.7-0.6c0.5-0.4,0.9-1,1.2-1.8l0.9,0.3c0,0.1-0.1,0.3-0.1,0.4h3.4V106.7z M69.4,109.9h-4.7v-1.9h4.7
			V109.9z M66.1,109.3v-0.6h-0.5v0.6H66.1z M69,107.7h-3.3v-0.6H69V107.7z M67.3,109.3v-0.6h-0.4v0.6H67.3z M68.5,109.3v-0.6H68v0.6
			H68.5z"/>
		<path class="st11" d="M81.9,112.3l-0.5,1c-0.1,0-0.3-0.1-0.5-0.1v2.9h-1v-0.6h-1.8v0.6h-1v-3.7h2c-0.8-0.5-1.4-1.1-1.8-1.6h-1.4
			c-0.5,0.6-1.2,1.1-2,1.6h2.2v3.7h-1v-0.6h-1.8v0.6h-1v-2.9c-0.1,0.1-0.3,0.1-0.4,0.1l-0.5-0.9c1.3-0.4,2.3-1,3.2-1.6h-3v-0.9h3.9
			c0.2-0.2,0.3-0.5,0.5-0.8l1.1,0.1c-0.1,0.2-0.2,0.4-0.4,0.7h2.6c-0.2-0.1-0.4-0.3-0.7-0.4l0.8-0.5c0.3,0.2,0.6,0.4,0.9,0.6
			l-0.5,0.3h1.9v0.9h-3C79.5,111.5,80.5,112,81.9,112.3z M75.9,108.9h-3.9v-3.1h3.9V108.9z M74.9,107.9v-1.3h-1.8v1.3H74.9z
			 M75,114.5v-1.3h-1.8v1.3H75z M81.1,108.9h-4v-3.1h4V108.9z M80,107.9v-1.3h-1.9v1.3H80z M79.9,114.5v-1.3h-1.8v1.3H79.9z"/>
	</g>
	<g>
		<g>
			<path class="st12" d="M189.2,60.7h-1.3v2.2c0.3-0.2,0.7-0.4,1.1-0.7l0.1,0.6c-0.4,0.3-0.8,0.6-1.2,0.8v4.2c0,0.2-0.1,0.3-0.2,0.4
				s-0.2,0.2-0.3,0.2s-0.4,0.1-0.8,0.1c-0.2,0-0.4,0-0.5,0l-0.2-0.6c0.1,0,0.5,0,1.1,0c0.1,0,0.1,0,0.2-0.1s0.1-0.1,0.1-0.2V64
				c-0.4,0.3-0.8,0.5-1.5,0.8l-0.2-0.6c0.7-0.4,1.3-0.7,1.7-1v-2.5h-1.6v-0.6h1.6V58h0.6v2.1h1.3V60.7z M196.1,67.8l-0.2,0.6h-1.6
				c-1,0-1.9-0.1-2.5-0.3s-1.2-0.7-1.6-1.4c-0.3,0.8-0.7,1.4-1.1,1.8l-0.5-0.4c0.9-1,1.4-2.2,1.4-3.6l0.6,0.1c0,0.4-0.1,0.9-0.2,1.3
				c0.4,0.9,1,1.4,1.7,1.6v-3.7H189v-0.6h6.8v0.6h-3v1.4h2.6v0.6h-2.6v1.8c0.4,0.1,0.8,0.1,1.4,0.1H196.1z M195.1,62.3h-5.2v-4h5.2
				V62.3z M194.5,60v-1.1h-4V60H194.5z M194.5,61.7v-1.2h-4v1.2H194.5z"/>
			<path class="st12" d="M201,63.5c-1,1.7-2.1,3-3.1,3.9l-0.5-0.5c1-0.9,2-2.1,3-3.8L201,63.5z M208,61.8h-4.9v6.7h-0.6v-6.7h-4.9
				v-0.6H208V61.8z M206.7,58.9h-7.9v-0.6h7.9V58.9z M208,67.1l-0.5,0.3c-0.8-1.4-1.8-2.7-2.9-3.8l0.6-0.4
				C206.5,64.7,207.4,66,208,67.1z"/>
			<path class="st12" d="M213.2,59.9h-3.7v-0.6h1.6c-0.1-0.4-0.3-0.8-0.5-1.1l0.5-0.2c0.3,0.5,0.5,0.9,0.6,1.3h1.5V59.9z M213,61.6
				h-3.2V61h3.2V61.6z M213,63.3h-3.2v-0.6h3.2V63.3z M212.8,68.2h-0.6v-0.6h-1.6v0.9H210v-4h2.8V68.2z M212.2,67v-1.9h-1.6V67
				H212.2z M214.5,64.6c-0.3,1.3-0.6,2.3-0.9,2.9l-0.6-0.2c0.4-0.8,0.7-1.8,0.9-2.8L214.5,64.6z M219.5,58.3c0,0.9-0.1,1.7-0.2,2.6
				s-0.1,1.3-0.2,1.5s-0.1,0.3-0.3,0.4s-0.3,0.2-0.5,0.3s-0.6,0.1-1.2,0l-0.2-0.6c0.4,0,0.7,0,0.8,0c0.4,0,0.7-0.1,0.8-0.3
				s0.2-1.3,0.3-3.2h-1.6c-0.2,2.4-1.3,4-3.4,4.6l-0.4-0.5c0.9-0.3,1.7-0.8,2.2-1.4c-0.4-0.5-0.9-0.9-1.5-1.3l0.4-0.4
				c0.5,0.3,1,0.7,1.4,1.2c0.4-0.6,0.6-1.4,0.6-2.3h-3v-0.6H219.5z M218.3,66.2c0,0.8-0.1,1.4-0.2,1.6s-0.3,0.4-0.4,0.5
				s-0.6,0.1-1.1,0.1c-0.5,0-0.9-0.1-1.1-0.2s-0.3-0.4-0.3-0.8v-2.9h0.6v2.9c0,0.1,0.1,0.2,0.2,0.3s0.4,0.1,0.9,0.1
				c0.4,0,0.6-0.1,0.7-0.2s0.2-0.7,0.3-1.6L218.3,66.2z M217.6,64.8l-0.4,0.4c-0.4-0.6-0.9-1.1-1.4-1.6l0.4-0.4
				C216.8,63.7,217.2,64.3,217.6,64.8z M219.9,67.1l-0.6,0.3c-0.2-0.9-0.5-1.8-0.9-2.8l0.5-0.2C219.4,65.5,219.8,66.4,219.9,67.1z"
				/>
			<path class="st12" d="M225.1,59.8h-3.6v-0.6h1.7c-0.1-0.3-0.2-0.6-0.4-1.1l0.5-0.2c0.2,0.5,0.4,1,0.5,1.3h1.3V59.8z M224.8,61.5
				h-3V61h3V61.5z M224.8,63.4h-3v-0.6h3V63.4z M224.7,68.3h-0.6v-0.7h-1.7v1h-0.6v-4h2.9V68.3z M224.1,67v-1.8h-1.7V67H224.1z
				 M228.2,58.9c0,0.1-0.2,0.6-0.7,1.5s-1.1,1.7-2.1,2.5l-0.5-0.4c0.6-0.6,1.1-1.1,1.5-1.5c-0.3-0.3-0.7-0.6-1.1-0.9l0.4-0.4
				c0.3,0.2,0.6,0.4,1,0.8c0.3-0.6,0.6-1.1,0.8-1.6h-2.2v-0.6h2.7V58.9z M231.7,68.3h-6.6v-0.6h1.9c-0.1-0.3-0.3-0.9-0.6-1.7
				l0.4-0.4h-1v-2.5h4.8v2.5h-0.8l0.4,0.4c-0.2,0.8-0.5,1.3-0.7,1.7h2V68.3z M230.1,65v-1.3h-3.5V65H230.1z M229.9,62.2h-2.9v-0.6
				h2.9V62.2z M229.8,65.6H227c0.2,0.6,0.5,1.3,0.7,2.1h1.4C229.3,67.2,229.6,66.5,229.8,65.6z M231.9,62.4l-0.4,0.5
				c-1.5-1.2-2.5-2.7-2.9-4.5l0.5-0.3c0.1,0.5,0.3,0.9,0.3,1.1c0.3-0.2,0.7-0.6,1-0.9l0.4,0.4c-0.3,0.3-0.7,0.7-1.2,1.1
				c0.2,0.3,0.3,0.6,0.4,0.8c0.3-0.2,0.7-0.6,1.1-1.1l0.4,0.3c-0.4,0.5-0.8,0.9-1.2,1.2C230.8,61.5,231.3,61.9,231.9,62.4z"/>
		</g>
	</g>
	<g>
		<g>
			<path class="st12" d="M214.3,109.4h-6.2c-0.4,0.9-1,1.7-1.6,2.5v6h-0.7v-5.2c-0.6,0.6-1.2,1.1-1.7,1.4l-0.2-0.6
				c1.5-1.2,2.7-2.5,3.5-4.2h-3.5v-0.6h3.8c0.2-0.4,0.4-0.8,0.6-1.4l0.6,0.2c-0.2,0.5-0.4,0.9-0.6,1.2h5.9V109.4z M214.3,114.7h-3
				v2.4c0,0.2-0.1,0.4-0.2,0.5s-0.2,0.3-0.4,0.3s-0.5,0.1-1.1,0.1c-0.3,0-0.6,0-0.9,0l-0.3-0.6c0.3,0,0.6,0,1,0c0.6,0,1,0,1.1-0.1
				s0.2-0.1,0.2-0.2v-2.3h-3.6v-0.6h3.6v-0.9c0.6-0.4,1.2-0.9,1.9-1.6h-4.7V111h5.6v0.6c-0.8,0.8-1.5,1.4-2.2,1.8v0.6h3V114.7z"/>
			<path class="st12" d="M221.5,108.2h-1v9.8h-0.6v-2.5c-1,0.4-2.3,0.7-3.9,1.1l-0.2-0.6l1.1-0.2v-7.6h-1.1v-0.6h5.7V108.2z
				 M219.9,110.1v-1.9h-2.4v1.9H219.9z M219.9,112.6v-1.9h-2.4v1.9H219.9z M219.9,114.9v-1.6h-2.4v2.4
				C218.2,115.4,219,115.2,219.9,114.9z M226.3,117.5l-0.4,0.5c-0.8-0.7-1.5-1.4-2.1-2.2c-0.7,0.9-1.5,1.6-2.3,2.2l-0.4-0.5
				c0.8-0.6,1.6-1.3,2.3-2.3c-1-1.7-1.6-3.7-1.8-6h-0.4v-0.6h4.6c0,2.6-0.6,4.8-1.7,6.6c0.1,0.3,0.5,0.7,0.9,1.2
				S226,117.2,226.3,117.5z M225.2,109.3h-2.9c0.1,2,0.6,3.8,1.5,5.4C224.6,113.1,225.1,111.3,225.2,109.3z"/>
			<path class="st12" d="M231.5,112.6l-0.4,0.5c-0.2-0.4-0.5-0.8-0.9-1.3v6.1h-0.6v-6.1c-0.4,1.1-0.9,2-1.4,2.8l-0.4-0.5
				c0.7-1.1,1.3-2.4,1.8-3.8h-1.6v-0.6h1.7v-2.3h0.6v2.3h1.1v0.6h-1.1v0.7C230.7,111.6,231.2,112.1,231.5,112.6z M238.3,117.4h-5.6
				v0.5h-0.6v-4c-0.3,0.3-0.6,0.6-0.9,0.9l-0.4-0.5c0.8-0.6,1.5-1.5,2-2.4l0.6,0.2c-0.1,0.2-0.3,0.5-0.4,0.7h2.1
				c-0.1-0.1-0.2-0.3-0.3-0.5l0.6-0.3c0.2,0.2,0.3,0.5,0.5,0.7h2.2v0.5h-2.5v0.8h2.2v0.5h-2.2v0.8h2.2v0.5h-2.2v0.9h2.8V117.4z
				 M234.2,109.4h-0.6v-0.5h-2.2v-0.6h2.2v-0.8h0.6V109.4z M234.4,111.7h-2.6v-2h2.6V111.7z M233.8,111.2v-0.9h-1.5v0.9H233.8z
				 M234.9,114v-0.8h-2.2v0.8H234.9z M234.9,115.4v-0.8h-2.2v0.8H234.9z M234.9,116.9V116h-2.2v0.9H234.9z M237.8,111.7h-2.6v-2h2.6
				V111.7z M238.2,108.8h-2.1v0.5h-0.6v-1.9h0.6v0.8h2.1V108.8z M237.3,111.2v-0.9h-1.5v0.9H237.3z"/>
			<path class="st12" d="M244.2,113l-0.4,0.5c-0.5-0.7-1-1.3-1.4-1.7v6.1h-0.6v-6c-0.5,1.2-1.1,2.2-1.7,3l-0.4-0.5
				c0.8-1,1.5-2.4,2.1-4.1h-1.9v-0.6h1.9v-2.4h0.6v2.4h1.4v0.6h-1.4v0.6C243.1,111.7,243.7,112.3,244.2,113z M250.3,117.5l-0.4,0.5
				c-1.3-0.6-2.4-1.2-3.2-2c-0.9,0.9-2,1.5-3.3,1.9l-0.4-0.6c1.4-0.4,2.5-1,3.3-1.8c-0.8-1.1-1.3-2.5-1.6-4.2l0.6-0.1
				c0.3,1.6,0.7,2.9,1.4,3.8c0.6-1,0.9-2.6,1-4.8h-3.3v-0.6h3.4c0-0.8,0-1.5,0-2.2h0.6c0,1,0,1.7,0,2.2h1.8v0.6h-1.9
				c0,2.4-0.4,4.2-1.1,5.3C247.9,116.3,249,117,250.3,117.5z"/>
			<path class="st12" d="M261.3,114h-2.6v2.6H258V114h-2.6v-0.8h2.6v-2.6h0.8v2.6h2.6V114z"/>
			<path class="st12" d="M277,117.7h-10.4v-0.6h4.9v-1h-4.3v-0.6h4.3v-1h-3.7v-3.5h3.7v-0.9h-4.6v-0.6h4.6v-1
				c-1.1,0.1-2.4,0.1-3.8,0.1l-0.2-0.5c3.3,0,6.1-0.2,8.5-0.6l0.3,0.5c-0.9,0.2-2.3,0.4-4.2,0.5v1.1h4.7v0.6h-4.7v1h3.7v3.5h-3.7v1
				h4.4v0.6h-4.4v1h4.9V117.7z M271.5,112.5v-0.9h-3.1v0.9H271.5z M271.5,114v-0.9h-3.1v0.9H271.5z M275.2,112.5v-0.9h-3.1v0.9
				H275.2z M275.2,114v-0.9h-3.1v0.9H275.2z"/>
			<path class="st12" d="M205.6,128c-0.4,1-0.8,1.8-1.4,2.5l-0.5-0.4c0.4-0.5,0.9-1.3,1.3-2.4L205.6,128z M209.3,127.1h-2.4v4.4
				h-0.6v-4.4h-2.4v-0.6h2.4v-1.2H204v-0.6h1.5c-0.1-0.4-0.3-1-0.6-1.8l0.4-0.3h-1.2V122h2.2c-0.1-0.3-0.3-0.6-0.5-0.9l0.6-0.3
				c0.2,0.3,0.4,0.6,0.6,1.1h2.1v0.6h-1l0.4,0.3c-0.1,0.4-0.4,1-0.7,1.8h1.4v0.6h-2.3v1.2h2.4V127.1z M207.9,122.6h-2.5
				c0.3,0.8,0.5,1.5,0.7,2.1h1C207.4,124,207.7,123.3,207.9,122.6z M209,129.4l-0.6,0.3c-0.2-0.5-0.5-1.1-0.8-1.7l0.5-0.3
				C208.4,128.2,208.7,128.8,209,129.4z M214.2,125.4h-1.3v6.1h-0.6v-6.1h-1.8c0,2.7-0.5,4.7-1.5,6.1l-0.5-0.4
				c0.5-0.8,0.9-1.6,1.1-2.4s0.3-1.9,0.3-3.2V122c1.5-0.2,2.7-0.5,3.7-1l0.5,0.5c-1.1,0.5-2.3,0.8-3.6,1v2.3h3.7V125.4z"/>
			<path class="st12" d="M226.3,127.4l-0.2,0.5h-4.2c-1.4,0-2.4-0.1-2.9-0.3s-1-0.4-1.3-0.7c-0.4,0.4-0.9,0.8-1.4,1.1l-0.4-0.5
				c1-0.6,1.7-1.3,2.2-2.2h-1.9v-0.6c0.6-0.5,1.2-1,1.7-1.5h-1.9v-0.6h2.6v0.6c-0.5,0.5-1.1,1-1.6,1.5h1.6v0.6
				c-0.2,0.4-0.4,0.8-0.6,1.1c0.3,0.3,0.7,0.5,1.2,0.6s1.5,0.2,2.9,0.2H226.3z M226.3,129.3H224v1.2c0,0.3-0.1,0.5-0.3,0.7
				s-0.6,0.2-1.1,0.2h-0.8l-0.2-0.6c0.8,0,1.3,0,1.5,0s0.3-0.1,0.3-0.3v-1.3h-7.5v-0.6h7.5v-0.4h0.6v0.4h2.2V129.3z M218.3,122.2
				l-0.4,0.4c-0.5-0.4-1-0.8-1.7-1.3l0.5-0.4C217.2,121.3,217.8,121.7,218.3,122.2z M220.4,130.5L220,131c-0.5-0.3-1.1-0.6-1.9-0.9
				l0.4-0.5C219.1,129.8,219.7,130.1,220.4,130.5z M226.2,122.4H223c-0.1,0.3-0.3,0.5-0.4,0.6h3v3.7h-6.1V123h2.4
				c0.2-0.2,0.3-0.4,0.4-0.6h-3.5v-0.5h7.4V122.4z M221.4,121.4l-0.5,0.3c-0.2-0.2-0.5-0.4-0.8-0.5l0.5-0.3
				C220.9,121,221.2,121.2,221.4,121.4z M225,124.1v-0.6h-4.8v0.6H225z M225,125.1v-0.6h-4.8v0.6H225z M225,126.2v-0.6h-4.8v0.6H225
				z M225,121.2c-0.3,0.2-0.5,0.4-0.9,0.5l-0.5-0.4c0.3-0.1,0.6-0.3,0.9-0.5L225,121.2z"/>
			<path class="st12" d="M237.7,130.5c0,0.7-0.3,1-1,1H235l-0.2-0.6h2c0.1,0,0.1,0,0.2-0.1s0.1-0.1,0.1-0.2v-7.4H229v8.3h-0.6v-8.9
				h2.3c0.4-0.6,0.8-1.1,1-1.7l0.6,0.1c-0.2,0.5-0.5,1-0.9,1.5h6.3V130.5z M235.3,129.1h-4.5v-4.3h4.5V129.1z M234.6,128.5v-3h-3.2
				v3H234.6z"/>
			<path class="st12" d="M249.7,127.2c0,2.5-1.1,3.8-3.4,3.8c-2.2,0-3.3-1.2-3.3-3.7v-5.6h1v5.5c0,1.9,0.8,2.8,2.4,2.8
				c1.5,0,2.3-0.9,2.3-2.7v-5.6h1V127.2z"/>
			<path class="st12" d="M258.4,130.8h-1.2l-1.5-2.6c-0.3-0.5-0.6-0.9-0.9-1.1s-0.6-0.3-0.9-0.3H253v3.9h-1v-9.1h2.7
				c0.8,0,1.5,0.2,2,0.6s0.7,1,0.7,1.8c0,1.3-0.7,2.1-2,2.4v0c0.3,0.1,0.5,0.3,0.6,0.4s0.4,0.5,0.7,1L258.4,130.8z M253,122.7v3.3
				h1.5c0.6,0,1-0.2,1.3-0.5s0.5-0.8,0.5-1.3c0-0.5-0.2-0.9-0.5-1.2s-0.8-0.4-1.4-0.4H253z"/>
			<path class="st12" d="M264.3,130.8h-4.7v-9.1h1v8.2h3.7V130.8z"/>
		</g>
	</g>
	<g>
		<rect x="393.2" y="87.6" class="st10" width="59.1" height="39.7"/>
		<path class="st13" d="M404.2,97.2v-5.9c0-0.5,0-1.1,0.1-1.8h0c-0.1,0.5-0.2,0.8-0.3,1l-2.8,6.7h-0.9l-2.8-6.6
			c-0.1-0.2-0.2-0.5-0.3-1h0c0,0.5,0.1,1.2,0.1,2v5.7H396v-9.1h2l2.5,6c0.2,0.5,0.3,0.9,0.4,1.2h0c0.1-0.2,0.2-0.6,0.4-1.2l2.5-6
			h1.9v9.1H404.2z"/>
		<path class="st13" d="M407.6,88.5c0-0.2,0.1-0.4,0.2-0.6s0.4-0.2,0.6-0.2c0.2,0,0.4,0.1,0.6,0.2s0.2,0.3,0.2,0.6s-0.1,0.4-0.2,0.6
			s-0.4,0.2-0.6,0.2s-0.4-0.1-0.6-0.2S407.6,88.7,407.6,88.5z M407.7,97.2v-6.5h1.4v6.5H407.7z"/>
		<path class="st13" d="M415.6,96.9c-0.5,0.3-1.1,0.4-1.8,0.4c-0.9,0-1.7-0.3-2.3-0.9s-0.9-1.4-0.9-2.3c0-1.1,0.3-1.9,0.9-2.6
			s1.5-1,2.5-1c0.6,0,1.2,0.1,1.6,0.3v1.3c-0.5-0.3-1-0.5-1.5-0.5c-0.6,0-1.1,0.2-1.5,0.6s-0.6,1-0.6,1.7c0,0.7,0.2,1.2,0.6,1.6
			s0.9,0.6,1.5,0.6c0.5,0,1.1-0.2,1.5-0.5V96.9z"/>
		<path class="st13" d="M420.8,92c-0.2-0.1-0.5-0.2-0.8-0.2c-0.4,0-0.8,0.2-1.1,0.6s-0.4,0.9-0.4,1.6v3.2h-1.4v-6.5h1.4V92h0
			c0.3-0.9,0.9-1.4,1.7-1.4c0.2,0,0.4,0,0.6,0.1V92z"/>
		<path class="st13" d="M421.2,94c0-1.1,0.3-1.9,0.9-2.5s1.4-0.9,2.5-0.9c1,0,1.8,0.3,2.3,0.9s0.9,1.4,0.9,2.4c0,1-0.3,1.9-0.9,2.5
			s-1.4,0.9-2.4,0.9c-1,0-1.8-0.3-2.4-0.9S421.2,95,421.2,94z M422.6,94c0,0.7,0.2,1.3,0.5,1.7s0.8,0.6,1.4,0.6
			c1.2,0,1.9-0.8,1.9-2.3c0-0.7-0.2-1.3-0.5-1.7s-0.8-0.6-1.4-0.6s-1.1,0.2-1.4,0.6S422.6,93.3,422.6,94z"/>
		<path class="st13" d="M429,95.7c0.6,0.4,1.2,0.6,1.9,0.6c0.9,0,1.3-0.3,1.3-0.8c0-0.2-0.1-0.4-0.3-0.5s-0.6-0.3-1.2-0.6
			c-0.7-0.3-1.1-0.5-1.3-0.8s-0.3-0.6-0.3-1.1c0-0.6,0.3-1.1,0.8-1.4s1.1-0.5,1.9-0.5c0.6,0,1.1,0.1,1.6,0.3v1.2
			c-0.5-0.3-1-0.5-1.7-0.5c-0.3,0-0.6,0.1-0.8,0.2s-0.3,0.3-0.3,0.6c0,0.2,0.1,0.4,0.2,0.5s0.5,0.3,1.1,0.5c0.7,0.3,1.2,0.5,1.4,0.8
			s0.4,0.7,0.4,1.1c0,0.6-0.3,1.1-0.8,1.4s-1.2,0.5-2,0.5c-0.7,0-1.3-0.1-1.8-0.4V95.7z"/>
		<path class="st13" d="M434.6,94c0-1.1,0.3-1.9,0.9-2.5s1.4-0.9,2.5-0.9c1,0,1.8,0.3,2.3,0.9s0.9,1.4,0.9,2.4c0,1-0.3,1.9-0.9,2.5
			s-1.4,0.9-2.4,0.9c-1,0-1.8-0.3-2.4-0.9S434.6,95,434.6,94z M436,94c0,0.7,0.2,1.3,0.5,1.7s0.8,0.6,1.4,0.6c1.2,0,1.9-0.8,1.9-2.3
			c0-0.7-0.2-1.3-0.5-1.7s-0.8-0.6-1.4-0.6s-1.1,0.2-1.4,0.6S436,93.3,436,94z"/>
		<path class="st13" d="M446.1,88.7c-0.2-0.1-0.5-0.2-0.7-0.2c-0.7,0-1,0.4-1,1.3v0.9h1.5v1.1h-1.5v5.4h-1.4v-5.4h-1.1v-1.1h1.1v-1
			c0-0.7,0.2-1.3,0.6-1.7s1-0.6,1.6-0.6c0.3,0,0.6,0,0.8,0.1V88.7z"/>
		<path class="st13" d="M450.4,97.1c-0.3,0.1-0.6,0.2-1.1,0.2c-1.2,0-1.8-0.7-1.8-2v-3.5h-1.1v-1.1h1.1v-1.5l1.4-0.4v1.9h1.6v1.1
			h-1.6v3.3c0,0.4,0.1,0.7,0.2,0.9s0.4,0.3,0.7,0.3c0.2,0,0.5-0.1,0.7-0.2V97.1z"/>
		<path class="st13" d="M410.1,106.6c-0.4,0.5-1,1-1.6,1.5v2.9c0,0.4-0.1,0.7-0.3,0.8s-0.4,0.3-0.8,0.3s-1,0.1-2.1,0.1l-0.3-1
			c0.3,0,0.7,0,1,0c0.7,0,1.1,0,1.2-0.1s0.1-0.1,0.1-0.3v-2.1c-1.6,1.2-4.1,2.3-7.4,3.3l-0.5-0.9c2.3-0.6,4.6-1.5,6.9-2.6
			c-2,0.2-4.2,0.4-6.6,0.6l-0.3-1c0.1,0,0.5,0,1.2,0v-5.3h1.5c0.3-0.3,0.5-0.6,0.8-1.1l1.1,0.2c-0.2,0.3-0.4,0.6-0.6,0.8h4.8v4.1
			c0.3-0.2,0.6-0.6,1-1L410.1,106.6z M407.5,104.5v-0.8H402v0.8H407.5z M407.5,106.1v-0.8H402v0.8H407.5z M407.5,107.6V107H402v1.1
			C403.7,108,405.6,107.8,407.5,107.6z"/>
		<path class="st13" d="M415.9,102.2c-0.3,0.8-0.8,1.7-1.5,2.6s-1.4,1.7-2.2,2.2l-0.7-0.8c1.5-1,2.7-2.5,3.5-4.5L415.9,102.2z
			 M420.3,106.2c0,1.1,0,2.2-0.1,3.3s-0.2,1.8-0.3,2s-0.3,0.5-0.5,0.6s-0.5,0.2-0.8,0.2c-0.7,0-1.3,0-1.5,0l-0.4-1.1
			c0.6,0,1.1,0.1,1.8,0.1c0.1,0,0.3,0,0.4-0.1s0.2-0.6,0.3-1.5s0.1-1.7,0.1-2.5h-2.6c-0.3,2.4-1.6,4.1-3.8,5.2l-0.8-0.8
			c0.8-0.3,1.6-0.9,2.3-1.6s1.1-1.7,1.2-2.8h-1.9v-1.1H420.3z M422.1,106.2l-0.7,0.9c-1.5-1.3-2.5-2.6-3-4.1h-1.1v-1h1.8
			C419.6,103.7,420.6,105.1,422.1,106.2z"/>
		<path class="st13" d="M427.1,103.8h-3.4v-1h1.3c-0.1-0.3-0.2-0.6-0.4-0.9l1.1-0.3c0.1,0.2,0.3,0.6,0.5,1.2h0.9V103.8z
			 M426.8,112.1h-1v-0.5h-0.9v0.7h-1v-4.1h2.9V112.1z M426.8,107.4h-2.9v-0.9h2.9V107.4z M426.8,105.6h-2.9v-0.9h2.9V105.6z
			 M425.8,110.6v-1.4h-0.9v1.4H425.8z M434.2,110.2c0,0.4-0.1,0.9-0.3,1.3s-0.3,0.7-0.5,0.8s-0.3,0.1-0.4,0.1
			c-0.5,0-0.9-0.5-1.1-1.4c-0.5,0.6-1,1-1.4,1.3l-0.7-0.7c0.3-0.2,0.5-0.4,0.8-0.7h-3v-4.4h3.2v4.2c0.3-0.3,0.6-0.6,0.8-0.9
			c-0.1-1.1-0.2-2.4-0.2-3.8h-4.2v-0.9h0.9c-0.1-0.5-0.2-0.9-0.4-1.4h-0.3v-0.9h1.3c-0.1-0.2-0.2-0.5-0.4-0.8l1.1-0.3
			c0.2,0.3,0.3,0.7,0.4,1.1h1.2v0.9h-0.3c-0.1,0.5-0.2,0.9-0.4,1.4h1c0-1.7,0-2.8,0-3.3l1,0c0,0.9-0.1,2-0.1,3.3h1.7v0.9h-1.7
			c0,1,0,1.7,0.1,2.3c0.2-0.5,0.4-1.1,0.6-1.9l0.9,0.4c-0.4,1.4-0.8,2.4-1.3,3.2c0.1,0.5,0.2,0.9,0.4,1.1c0.1-0.2,0.3-0.7,0.3-1.5
			L434.2,110.2z M429.8,108.3v-0.8h-1.3v0.8H429.8z M429.8,110.1v-0.9h-1.3v0.9H429.8z M429.7,103.8h-1c0.1,0.4,0.3,0.9,0.4,1.4h0.3
			C429.5,104.7,429.7,104.2,429.7,103.8z M434.1,104.5l-0.9,0.4c-0.1-0.7-0.3-1.4-0.6-2.2l0.8-0.4
			C433.7,102.9,433.9,103.6,434.1,104.5z"/>
		<path class="st13" d="M441.5,107.3c-0.1,2.4-0.2,3.9-0.5,4.3s-0.7,0.7-1.4,0.7c-0.3,0-0.6,0-1,0l-0.3-1c0.7,0,1.1,0,1.4,0
			c0.3,0,0.5-0.2,0.6-0.6s0.1-1.2,0.2-2.4h-2.3c-0.3,1.8-0.9,3.1-1.8,4l-0.8-0.7c1.2-1.2,1.8-3.1,1.8-5.7h-1v-4h5.2v4h-3.1
			c0,0.5,0,0.9-0.1,1.3H441.5z M440.4,105V103h-3v1.9H440.4z M443.5,110.1h-1.1v-7.5h1.1V110.1z M445.8,110.9c0,0.6-0.1,0.9-0.3,1.1
			s-0.6,0.3-1,0.3c-0.6,0-1,0-1.3,0l-0.3-1c0.4,0,0.9,0,1.5,0c0.1,0,0.2,0,0.3-0.1s0.1-0.2,0.1-0.3v-9h1.1V110.9z"/>
		<path class="st13" d="M422,123.1h-4.7v3.7h-1.1v-3.7h-4.7V122h4.7v-4.3h-4.4v-1.1h9.9v1.1h-4.4v4.3h4.7V123.1z M415,121.1l-1,0.5
			c-0.3-0.9-0.9-1.8-1.5-2.8l1-0.5C414,119.1,414.6,120.1,415,121.1z M421.3,118.8c-0.5,1.1-1.1,2.1-1.7,2.8l-1-0.5
			c0.6-0.7,1.1-1.6,1.7-2.8L421.3,118.8z"/>
		<path class="st13" d="M434.2,120.7l-0.9,0.7c-0.2-0.4-0.5-0.7-0.7-1.1c-3.1,0.4-5.9,0.6-8.6,0.7l-0.3-1c1.1-0.4,2.4-1.6,3.7-3.8
			l1.2,0.2c-0.8,1.3-1.7,2.4-2.8,3.4c1.6-0.1,3.5-0.2,5.9-0.5c-0.5-0.5-1.1-1.1-1.8-1.7l0.9-0.7
			C432.3,118.3,433.4,119.5,434.2,120.7z M433.1,126.8H432v-0.5h-6.3v0.5h-1.1v-5h8.5V126.8z M432,125.2v-2.3h-6.3v2.3H432z"/>
	</g>
	<g>
		<g>
			<path class="st13" d="M391.7,24.1h-1.5l-0.8-2.4h-3.6l-0.8,2.4h-1.5l3.4-9.1h1.6L391.7,24.1z M388.9,20.5l-1.3-3.6
				c0-0.1-0.1-0.4-0.1-0.7h0c0,0.3-0.1,0.5-0.1,0.7l-1.3,3.6H388.9z"/>
			<path class="st13" d="M392.5,22.2c0.7,0.6,1.5,0.8,2.5,0.8c1.2,0,1.8-0.4,1.8-1.2c0-0.2-0.1-0.5-0.2-0.6s-0.3-0.4-0.5-0.5
				s-0.7-0.4-1.3-0.7c-0.8-0.4-1.4-0.8-1.7-1.2s-0.5-0.9-0.5-1.4c0-0.8,0.3-1.4,0.9-1.8s1.4-0.7,2.4-0.7c0.9,0,1.6,0.1,2.1,0.3v1.4
				c-0.6-0.4-1.3-0.6-2.1-0.6c-0.5,0-1,0.1-1.3,0.3s-0.5,0.5-0.5,0.9c0,0.3,0.1,0.6,0.4,0.8s0.7,0.5,1.5,0.9
				c0.9,0.4,1.5,0.8,1.9,1.3s0.5,0.9,0.5,1.5c0,0.8-0.3,1.4-0.9,1.9s-1.4,0.7-2.5,0.7c-0.4,0-0.8,0-1.3-0.1s-0.8-0.2-1.1-0.4V22.2z"
				/>
			<path class="st13" d="M401.3,20.7v3.3h-1.4V15h2.7c1,0,1.8,0.2,2.4,0.7s0.8,1.2,0.8,2.1c0,0.9-0.3,1.6-1,2.2s-1.5,0.8-2.4,0.8
				H401.3z M401.3,16.2v3.4h1c1.4,0,2-0.6,2-1.7c0-1.1-0.7-1.7-2-1.7H401.3z"/>
			<path class="st13" d="M404.9,23.4c0-0.2,0.1-0.4,0.3-0.6s0.4-0.2,0.6-0.2c0.2,0,0.4,0.1,0.6,0.2s0.3,0.4,0.3,0.6
				c0,0.2-0.1,0.4-0.2,0.6s-0.4,0.2-0.6,0.2c-0.2,0-0.4-0.1-0.6-0.2S404.9,23.6,404.9,23.4z"/>
			<path class="st13" d="M416,24.1h-1.6l-4.3-6.7c-0.2-0.2-0.3-0.5-0.4-0.6h0c0,0.2,0.1,0.7,0.1,1.3v6h-1.4V15h1.7l4.2,6.6
				c0.2,0.3,0.3,0.5,0.4,0.7h0c0-0.3-0.1-0.7-0.1-1.3V15h1.4V24.1z"/>
			<path class="st13" d="M423.3,24.1h-5V15h4.8v1.2h-3.4v2.7h3.2v1.2h-3.2v2.8h3.6V24.1z"/>
			<path class="st13" d="M430.7,16.2h-2.6v7.9h-1.4v-7.9h-2.6V15h6.6V16.2z"/>
			<path class="st13" d="M441.4,23.7c-0.7,0.3-1.5,0.5-2.5,0.5c-1.3,0-2.4-0.4-3.2-1.2s-1.2-1.9-1.2-3.3c0-1.4,0.4-2.6,1.3-3.5
				s2-1.4,3.4-1.4c0.9,0,1.6,0.1,2.2,0.4v1.4c-0.6-0.4-1.3-0.5-2.1-0.5c-1,0-1.8,0.3-2.4,1s-0.9,1.5-0.9,2.6c0,1,0.3,1.8,0.8,2.4
				s1.3,0.9,2.3,0.9c0.9,0,1.6-0.2,2.3-0.6V23.7z"/>
			<path class="st13" d="M442.6,20.9c0-1.1,0.3-1.9,0.9-2.5s1.4-0.9,2.5-0.9c1,0,1.8,0.3,2.3,0.9s0.9,1.4,0.9,2.4
				c0,1-0.3,1.9-0.9,2.5s-1.4,0.9-2.4,0.9c-1,0-1.8-0.3-2.4-0.9S442.6,21.9,442.6,20.9z M444,20.8c0,0.7,0.2,1.3,0.5,1.7
				s0.8,0.6,1.4,0.6c1.2,0,1.9-0.8,1.9-2.3c0-0.7-0.2-1.3-0.5-1.7s-0.8-0.6-1.4-0.6s-1.1,0.2-1.4,0.6S444,20.1,444,20.8z"/>
			<path class="st13" d="M454.4,18.9c-0.2-0.1-0.5-0.2-0.8-0.2c-0.4,0-0.8,0.2-1.1,0.6s-0.4,0.9-0.4,1.6v3.2h-1.4v-6.5h1.4v1.3h0
				c0.3-0.9,0.9-1.4,1.7-1.4c0.2,0,0.4,0,0.6,0.1V18.9z"/>
			<path class="st13" d="M460.7,21.2h-4.5c0.1,1.3,0.7,2,2,2c0.7,0,1.4-0.2,2-0.6v1.1c-0.6,0.4-1.3,0.6-2.3,0.6
				c-1,0-1.7-0.3-2.3-0.9s-0.8-1.4-0.8-2.5c0-1,0.3-1.8,0.9-2.5s1.3-1,2.2-1c0.9,0,1.6,0.3,2,0.8s0.7,1.3,0.7,2.3V21.2z M459.3,20.2
				c0-0.6-0.1-1-0.4-1.3s-0.6-0.4-1.1-0.4c-0.4,0-0.8,0.2-1.1,0.5s-0.5,0.7-0.6,1.3H459.3z"/>
			<path class="st13" d="M395.6,29.4l-2.5,9.1h-1.6l-1.7-6.4c-0.1-0.3-0.1-0.6-0.1-1h0c0,0.4-0.1,0.7-0.2,0.9l-1.8,6.4H386l-2.6-9.1
				h1.5l1.7,6.6c0.1,0.3,0.1,0.6,0.1,1h0c0-0.3,0.1-0.6,0.2-1l1.9-6.6h1.4l1.8,6.7c0.1,0.2,0.1,0.5,0.2,0.9h0c0-0.3,0.1-0.6,0.2-0.9
				l1.6-6.7H395.6z"/>
			<path class="st13" d="M401.8,35.6h-4.5c0.1,1.3,0.7,2,2,2c0.7,0,1.4-0.2,2-0.6V38c-0.6,0.4-1.3,0.6-2.3,0.6c-1,0-1.7-0.3-2.3-0.9
				s-0.8-1.4-0.8-2.5c0-1,0.3-1.8,0.9-2.5s1.3-1,2.2-1c0.9,0,1.6,0.3,2,0.8s0.7,1.3,0.7,2.3V35.6z M400.5,34.6c0-0.6-0.1-1-0.4-1.3
				s-0.6-0.4-1.1-0.4c-0.4,0-0.8,0.2-1.1,0.5s-0.5,0.7-0.6,1.3H400.5z"/>
			<path class="st13" d="M404.6,37.6v0.9h-1.4v-9.6h1.4V33h0c0.5-0.8,1.2-1.2,2.2-1.2c0.8,0,1.5,0.3,1.9,0.9s0.7,1.4,0.7,2.3
				c0,1.1-0.3,1.9-0.8,2.6s-1.2,1-2.1,1C405.7,38.6,405.1,38.3,404.6,37.6L404.6,37.6z M404.6,35.7c0,0.5,0.2,0.9,0.5,1.2
				s0.7,0.5,1.2,0.5c0.6,0,1-0.2,1.3-0.7s0.5-1,0.5-1.8c0-0.7-0.1-1.2-0.4-1.5s-0.7-0.6-1.2-0.6s-0.9,0.2-1.3,0.6s-0.5,0.9-0.5,1.4
				V35.7z"/>
			<path class="st13" d="M424.3,30.1h-8.7v2.5c0.6-0.6,1.2-1.4,1.6-2.4l1,0.2c-0.2,0.5-0.5,1-0.8,1.5v3.8h-1v-2.5l-0.4,0.4l-0.4-1
				v2.5c0,1.4-0.3,2.7-0.9,3.8l-0.9-0.7c0.5-0.9,0.7-2.2,0.7-3.7v-5.5h4.2c-0.1-0.1-0.2-0.3-0.3-0.6l1.2-0.2
				c0.2,0.3,0.3,0.5,0.4,0.8h4.3V30.1z M417.5,36.5c-0.3,0.8-0.7,1.6-1.2,2.3l-0.9-0.6c0.5-0.7,0.9-1.4,1.1-2.1L417.5,36.5z
				 M424.2,35.8h-5.9v-2.4c-0.1,0.1-0.2,0.2-0.3,0.3l-0.4-1c0.7-0.7,1.2-1.5,1.6-2.4l1,0.3c-0.1,0.2-0.2,0.4-0.3,0.6h1.2
				c-0.1-0.2-0.2-0.4-0.3-0.6l1.1-0.2c0.1,0.2,0.3,0.5,0.4,0.8h1.9V32H422v0.5h2v0.7h-2v0.5h2v0.8h-2V35h2.2V35.8z M422.5,37.5
				c-0.1,0.9-0.5,1.4-1.2,1.4l-2.4,0c-0.6,0-1-0.3-1-0.9v-1.8h1v1.5c0,0.1,0,0.2,0.1,0.2s0.4,0.1,0.9,0.1c0.8,0,1.2,0,1.3-0.1
				s0.1-0.2,0.2-0.3s0.1-0.3,0.1-0.4L422.5,37.5z M421,32.5V32h-1.6l-0.1,0.1v0.4H421z M421,33.7v-0.5h-1.7v0.5H421z M421,35v-0.5
				h-1.7V35H421z M421.3,37.2l-0.9,0.4c-0.2-0.4-0.5-0.8-0.9-1.3l0.9-0.4C420.7,36.3,421,36.7,421.3,37.2z M424.4,38.1l-0.9,0.5
				c-0.4-0.7-0.8-1.3-1.4-2l0.9-0.5C423.4,36.6,423.9,37.2,424.4,38.1z"/>
			<path class="st13" d="M435.7,37.9c0,0.3-0.1,0.6-0.4,0.8s-0.6,0.4-1.2,0.4c-0.3,0-0.5,0-0.8,0L433,38l1.3,0c0.1,0,0.2,0,0.3-0.1
				s0.1-0.2,0.1-0.3v-2.2h-3v3.4h-1v-3.4h-2.9c-0.1,1.5-0.5,2.8-1.1,3.7l-0.9-0.6c0.3-0.5,0.6-1.2,0.8-2s0.3-1.6,0.3-2.4v-5.3h8.9
				V37.9z M430.7,31.6v-1.7h-2.8v1.7H430.7z M430.7,34.4v-1.8h-2.8v1.8H430.7z M434.7,31.6v-1.7h-3v1.7H434.7z M434.7,34.4v-1.8h-3
				v1.8H434.7z"/>
			<path class="st13" d="M442,34.6l-0.7,0.7c-0.2-0.4-0.4-0.8-0.7-1.2v5h-1v-4.3c-0.3,0.6-0.7,1.3-1.2,2l-0.6-1
				c0.7-0.8,1.3-1.9,1.8-3.2h-1.7v-1h1.8V30c-0.6,0.1-1,0.2-1.3,0.2l-0.4-0.9c1.4-0.1,2.6-0.4,3.5-0.8l0.5,0.9
				c-0.4,0.2-0.8,0.3-1.2,0.4v1.7h1.3v1h-1.3v0.3C441.2,33.4,441.7,34,442,34.6z M448.3,38.9h-6.8v-1h2.9v-1.5H442v-1h2.5v-1.2
				c-1,0.1-1.7,0.1-2.2,0.1l-0.4-0.9c2.3-0.1,4.2-0.3,5.8-0.6l0.4,0.9c-0.9,0.2-1.8,0.4-2.6,0.4v1.3h2.5v1h-2.5V38h2.8V38.9z
				 M447.7,32.5h-5.3v-3.6h5.3V32.5z M446.6,31.5v-1.6h-3.1v1.6H446.6z"/>
			<path class="st13" d="M460.3,36.5c-0.1,1.7-0.6,2.6-1.5,2.6c-0.7,0-1.4-0.7-1.9-2.1s-0.8-3.2-0.9-5.5h-6.1v-1h6.1
				c0-0.8-0.1-1.5,0-2h1.1c0,0.5,0,1.1,0,2h3.2v1h-3.2c0,2.3,0.3,3.9,0.7,4.9s0.8,1.5,1,1.5c0.2,0,0.4-0.7,0.5-2.1L460.3,36.5z
				 M455.9,37.2c-2.2,0.6-4.1,0.9-5.6,1.1l-0.2-1c0.7-0.1,1.5-0.2,2.3-0.4v-3.2h-1.9v-1h5.1v1h-2.1v2.9c1-0.2,1.8-0.4,2.4-0.6
				L455.9,37.2z M459.9,29.7l-0.8,0.7c-0.5-0.5-1-0.8-1.5-1l0.8-0.7C459.1,28.9,459.6,29.3,459.9,29.7z"/>
		</g>
	</g>
	<g>
		<path class="st12" d="M190.8,10.4h-1V6.7c0-1.4-0.5-2.1-1.5-2.1c-0.5,0-1,0.2-1.3,0.6s-0.5,0.9-0.5,1.5v3.7h-1V0.8h1V5h0
			c0.5-0.8,1.2-1.2,2.1-1.2c1.5,0,2.2,0.9,2.2,2.6V10.4z"/>
		<path class="st12" d="M195.6,10.3c-0.2,0.1-0.6,0.2-0.9,0.2c-1.1,0-1.7-0.6-1.7-1.9V4.8h-1.1V3.9h1.1V2.3l1-0.3v1.9h1.6v0.8H194
			v3.7c0,0.4,0.1,0.8,0.2,0.9s0.4,0.3,0.7,0.3c0.3,0,0.5-0.1,0.7-0.2V10.3z"/>
		<path class="st12" d="M199.9,10.3c-0.2,0.1-0.6,0.2-0.9,0.2c-1.1,0-1.7-0.6-1.7-1.9V4.8h-1.1V3.9h1.1V2.3l1-0.3v1.9h1.6v0.8h-1.6
			v3.7c0,0.4,0.1,0.8,0.2,0.9s0.4,0.3,0.7,0.3c0.3,0,0.5-0.1,0.7-0.2V10.3z"/>
		<path class="st12" d="M202.2,9.5v3.9h-1V3.9h1v1.1h0c0.5-0.9,1.3-1.3,2.2-1.3c0.8,0,1.5,0.3,2,0.9s0.7,1.4,0.7,2.3
			c0,1.1-0.3,1.9-0.8,2.6s-1.3,1-2.2,1C203.3,10.6,202.7,10.2,202.2,9.5L202.2,9.5z M202.2,7.8c0,0.5,0.2,1,0.5,1.4s0.8,0.6,1.3,0.6
			c0.6,0,1.1-0.2,1.5-0.7s0.5-1.2,0.5-2c0-0.7-0.2-1.3-0.5-1.7s-0.8-0.6-1.4-0.6c-0.6,0-1.1,0.2-1.5,0.6s-0.6,1-0.6,1.6V7.8z"/>
		<path class="st12" d="M208.3,9.1c0.6,0.4,1.2,0.6,1.9,0.6c0.9,0,1.4-0.3,1.4-0.9c0-0.3-0.1-0.5-0.3-0.7s-0.6-0.4-1.2-0.6
			c-0.7-0.3-1.2-0.6-1.4-0.8s-0.3-0.6-0.3-1c0-0.6,0.2-1,0.7-1.3s1.1-0.5,1.7-0.5c0.6,0,1.1,0.1,1.5,0.3v1c-0.5-0.3-1-0.5-1.6-0.5
			c-0.4,0-0.7,0.1-0.9,0.3s-0.4,0.4-0.4,0.7s0.1,0.5,0.2,0.6s0.5,0.3,1.1,0.6c0.7,0.3,1.2,0.6,1.5,0.9s0.4,0.6,0.4,1.1
			c0,0.6-0.2,1-0.7,1.4s-1.1,0.5-1.8,0.5c-0.7,0-1.2-0.1-1.7-0.4V9.1z"/>
		<path class="st12" d="M213.8,4.5c0-0.2,0.1-0.4,0.2-0.5s0.3-0.2,0.5-0.2c0.2,0,0.3,0.1,0.5,0.2s0.2,0.3,0.2,0.5s-0.1,0.4-0.2,0.5
			s-0.3,0.2-0.5,0.2c-0.2,0-0.3-0.1-0.5-0.2S213.8,4.7,213.8,4.5z M213.8,9.9c0-0.2,0.1-0.4,0.2-0.5s0.3-0.2,0.5-0.2
			c0.2,0,0.3,0.1,0.5,0.2s0.2,0.3,0.2,0.5c0,0.2-0.1,0.3-0.2,0.5s-0.3,0.2-0.5,0.2c-0.2,0-0.3-0.1-0.5-0.2S213.8,10.1,213.8,9.9z"/>
		<path class="st12" d="M220.9,1.3l-4.4,10.6h-0.9l4.3-10.6H220.9z"/>
		<path class="st12" d="M225.8,1.3l-4.4,10.6h-0.9l4.3-10.6H225.8z"/>
		<path class="st12" d="M231.7,3.9l-3,7.6c-0.5,1.3-1.3,2-2.2,2c-0.2,0-0.5,0-0.6-0.1v-0.9c0.2,0.1,0.4,0.1,0.6,0.1
			c0.5,0,0.9-0.3,1.2-0.9l0.5-1.3l-2.5-6.5h1.1l1.8,5.1c0,0.1,0.1,0.2,0.1,0.5h0c0-0.1,0.1-0.2,0.1-0.5l1.9-5.1H231.7z"/>
		<path class="st12" d="M232.3,7.3c0-1.1,0.3-1.9,0.9-2.5s1.4-0.9,2.4-0.9c1,0,1.7,0.3,2.2,0.9s0.8,1.4,0.8,2.5c0,1-0.3,1.8-0.9,2.5
			s-1.4,0.9-2.3,0.9c-0.9,0-1.7-0.3-2.3-0.9S232.3,8.3,232.3,7.3z M233.3,7.2c0,0.8,0.2,1.4,0.6,1.8s0.9,0.7,1.6,0.7
			c0.7,0,1.2-0.2,1.6-0.7s0.6-1.1,0.6-1.9c0-0.8-0.2-1.5-0.6-1.9s-0.9-0.7-1.6-0.7c-0.7,0-1.2,0.2-1.6,0.7S233.3,6.4,233.3,7.2z"/>
		<path class="st12" d="M245.4,10.4h-1v-1h0c-0.4,0.8-1.1,1.2-2,1.2c-1.5,0-2.3-0.9-2.3-2.8V3.9h1v3.7c0,1.4,0.5,2.1,1.6,2.1
			c0.5,0,1-0.2,1.3-0.6s0.5-0.9,0.5-1.5V3.9h1V10.4z"/>
		<path class="st12" d="M250.8,4.9c-0.2-0.1-0.4-0.2-0.8-0.2c-0.5,0-0.8,0.2-1.1,0.7s-0.4,1-0.4,1.7v3.3h-1V3.9h1v1.3h0
			c0.1-0.5,0.4-0.8,0.7-1.1s0.6-0.4,1-0.4c0.3,0,0.5,0,0.6,0.1V4.9z"/>
		<path class="st12" d="M251.5,9.1c0.6,0.4,1.2,0.6,1.9,0.6c0.9,0,1.4-0.3,1.4-0.9c0-0.3-0.1-0.5-0.3-0.7s-0.6-0.4-1.2-0.6
			c-0.7-0.3-1.2-0.6-1.4-0.8s-0.3-0.6-0.3-1c0-0.6,0.2-1,0.7-1.3s1.1-0.5,1.7-0.5c0.6,0,1.1,0.1,1.5,0.3v1c-0.5-0.3-1-0.5-1.6-0.5
			c-0.4,0-0.7,0.1-0.9,0.3s-0.4,0.4-0.4,0.7s0.1,0.5,0.2,0.6s0.5,0.3,1.1,0.6c0.7,0.3,1.2,0.6,1.5,0.9s0.4,0.6,0.4,1.1
			c0,0.6-0.2,1-0.7,1.4s-1.1,0.5-1.8,0.5c-0.7,0-1.2-0.1-1.7-0.4V9.1z"/>
		<path class="st12" d="M257.2,1.6c0-0.2,0.1-0.3,0.2-0.5s0.3-0.2,0.4-0.2c0.2,0,0.3,0.1,0.5,0.2s0.2,0.3,0.2,0.5
			c0,0.2-0.1,0.3-0.2,0.5s-0.3,0.2-0.5,0.2s-0.3-0.1-0.5-0.2S257.2,1.8,257.2,1.6z M257.3,10.4V3.9h1v6.5H257.3z"/>
		<path class="st12" d="M263.3,10.3c-0.2,0.1-0.6,0.2-0.9,0.2c-1.1,0-1.7-0.6-1.7-1.9V4.8h-1.1V3.9h1.1V2.3l1-0.3v1.9h1.6v0.8h-1.6
			v3.7c0,0.4,0.1,0.8,0.2,0.9s0.4,0.3,0.7,0.3c0.3,0,0.5-0.1,0.7-0.2V10.3z"/>
		<path class="st12" d="M269.7,7.4h-4.6c0,0.7,0.2,1.3,0.6,1.7s0.9,0.6,1.5,0.6c0.7,0,1.4-0.2,2-0.7v0.9c-0.6,0.4-1.3,0.6-2.3,0.6
			c-0.9,0-1.6-0.3-2.1-0.9S264,8.3,264,7.2c0-1,0.3-1.8,0.8-2.4s1.3-1,2.1-1c0.8,0,1.5,0.3,1.9,0.8s0.7,1.3,0.7,2.3V7.4z M268.6,6.5
			c0-0.6-0.2-1.1-0.4-1.4s-0.7-0.5-1.2-0.5c-0.5,0-0.9,0.2-1.2,0.5s-0.6,0.8-0.7,1.4H268.6z"/>
		<path class="st12" d="M270.8,9.9c0-0.2,0.1-0.4,0.2-0.5s0.3-0.2,0.5-0.2c0.2,0,0.3,0.1,0.5,0.2s0.2,0.3,0.2,0.5
			c0,0.2-0.1,0.3-0.2,0.5s-0.3,0.2-0.5,0.2c-0.2,0-0.3-0.1-0.5-0.2S270.8,10.1,270.8,9.9z"/>
		<path class="st12" d="M278.2,10.1c-0.5,0.3-1.1,0.5-1.8,0.5c-0.9,0-1.7-0.3-2.2-0.9s-0.8-1.4-0.8-2.3c0-1.1,0.3-1.9,0.9-2.6
			s1.4-1,2.4-1c0.6,0,1.1,0.1,1.5,0.3v1c-0.5-0.3-1-0.5-1.6-0.5c-0.7,0-1.2,0.2-1.6,0.7s-0.6,1.1-0.6,1.9c0,0.8,0.2,1.4,0.6,1.8
			s0.9,0.7,1.6,0.7c0.6,0,1.1-0.2,1.6-0.6V10.1z"/>
		<path class="st12" d="M279.3,7.3c0-1.1,0.3-1.9,0.9-2.5s1.4-0.9,2.4-0.9c1,0,1.7,0.3,2.2,0.9s0.8,1.4,0.8,2.5c0,1-0.3,1.8-0.9,2.5
			s-1.4,0.9-2.3,0.9c-0.9,0-1.7-0.3-2.3-0.9S279.3,8.3,279.3,7.3z M280.3,7.2c0,0.8,0.2,1.4,0.6,1.8s0.9,0.7,1.6,0.7
			c0.7,0,1.2-0.2,1.6-0.7s0.6-1.1,0.6-1.9c0-0.8-0.2-1.5-0.6-1.9s-0.9-0.7-1.6-0.7c-0.7,0-1.2,0.2-1.6,0.7S280.3,6.4,280.3,7.2z"/>
		<path class="st12" d="M296.4,10.4h-1V6.7c0-0.8-0.1-1.3-0.3-1.6s-0.6-0.5-1.1-0.5c-0.4,0-0.8,0.2-1.1,0.6s-0.5,0.9-0.5,1.5v3.7h-1
			V6.6c0-1.3-0.5-1.9-1.5-1.9c-0.5,0-0.8,0.2-1.1,0.6s-0.5,0.9-0.5,1.5v3.7h-1V3.9h1v1h0c0.5-0.8,1.1-1.2,2-1.2
			c0.4,0,0.8,0.1,1.1,0.4s0.6,0.6,0.7,1c0.5-0.9,1.2-1.4,2.2-1.4c1.4,0,2.1,0.9,2.1,2.6V10.4z"/>
	</g>
	<g>
		<path class="st12" d="M195.8,40.5h-10.4V40h4.9v-1h-4.3v-0.6h4.3v-1h-3.7v-3.5h3.7V33h-4.6v-0.6h4.6v-1c-1.1,0.1-2.4,0.1-3.8,0.1
			l-0.2-0.5c3.3,0,6.1-0.2,8.5-0.6l0.3,0.5c-0.9,0.2-2.3,0.4-4.2,0.5v1.1h4.7V33h-4.7v1h3.7v3.5h-3.7v1h4.4V39h-4.4v1h4.9V40.5z
			 M190.2,35.4v-0.9h-3.1v0.9H190.2z M190.2,36.9V36h-3.1v0.9H190.2z M194,35.4v-0.9h-3.1v0.9H194z M194,36.9V36h-3.1v0.9H194z"/>
		<path class="st12" d="M199.1,37.4c-0.4,1-0.8,1.8-1.4,2.5l-0.5-0.4c0.4-0.5,0.9-1.3,1.3-2.4L199.1,37.4z M202.8,36.4h-2.4v4.4
			h-0.6v-4.4h-2.4v-0.6h2.4v-1.2h-2.3v-0.6h1.5c-0.1-0.4-0.3-1-0.6-1.8l0.4-0.3h-1.2v-0.6h2.2c-0.1-0.3-0.3-0.6-0.5-0.9l0.6-0.3
			c0.2,0.3,0.4,0.6,0.6,1.1h2.1V32h-1l0.4,0.3c-0.1,0.4-0.4,1-0.7,1.8h1.4v0.6h-2.3v1.2h2.4V36.4z M201.4,32h-2.5
			c0.3,0.8,0.5,1.5,0.7,2.1h1C200.9,33.4,201.2,32.7,201.4,32z M202.4,38.7l-0.6,0.3c-0.2-0.5-0.5-1.1-0.8-1.7l0.5-0.3
			C201.9,37.6,202.2,38.2,202.4,38.7z M207.7,34.8h-1.3v6.1h-0.6v-6.1H204c0,2.7-0.5,4.7-1.5,6.1l-0.5-0.4c0.5-0.8,0.9-1.6,1.1-2.4
			s0.3-1.9,0.3-3.2v-3.6c1.5-0.2,2.7-0.5,3.7-1l0.5,0.5c-1.1,0.5-2.3,0.8-3.6,1v2.3h3.7V34.8z"/>
		<path class="st12" d="M219.8,36.8l-0.2,0.5h-4.2c-1.4,0-2.4-0.1-2.9-0.3s-1-0.4-1.3-0.7c-0.4,0.4-0.9,0.8-1.4,1.1l-0.4-0.5
			c1-0.6,1.7-1.3,2.2-2.2h-1.9v-0.6c0.6-0.5,1.2-1,1.7-1.5h-1.9v-0.6h2.6v0.6c-0.5,0.5-1.1,1-1.6,1.5h1.6v0.6
			c-0.2,0.4-0.4,0.8-0.6,1.1c0.3,0.3,0.7,0.5,1.2,0.6s1.5,0.2,2.9,0.2H219.8z M219.7,38.7h-2.2v1.2c0,0.3-0.1,0.5-0.3,0.7
			s-0.6,0.2-1.1,0.2h-0.8l-0.2-0.6c0.8,0,1.3,0,1.5,0s0.3-0.1,0.3-0.3v-1.3h-7.5v-0.6h7.5v-0.4h0.6v0.4h2.2V38.7z M211.8,31.6
			l-0.4,0.4c-0.5-0.4-1-0.8-1.7-1.3l0.5-0.4C210.7,30.7,211.3,31.1,211.8,31.6z M213.9,39.9l-0.4,0.5c-0.5-0.3-1.1-0.6-1.9-0.9
			l0.4-0.5C212.6,39.2,213.2,39.5,213.9,39.9z M219.7,31.8h-3.3c-0.1,0.3-0.3,0.5-0.4,0.6h3v3.7H213v-3.7h2.4
			c0.2-0.2,0.3-0.4,0.4-0.6h-3.5v-0.5h7.4V31.8z M214.9,30.8l-0.5,0.3c-0.2-0.2-0.5-0.4-0.8-0.5l0.5-0.3
			C214.4,30.4,214.7,30.6,214.9,30.8z M218.5,33.5v-0.6h-4.8v0.6H218.5z M218.5,34.5v-0.6h-4.8v0.6H218.5z M218.5,35.6V35h-4.8v0.6
			H218.5z M218.5,30.5c-0.3,0.2-0.5,0.4-0.9,0.5l-0.5-0.4c0.3-0.1,0.6-0.3,0.9-0.5L218.5,30.5z"/>
		<path class="st12" d="M231.2,39.9c0,0.7-0.3,1-1,1h-1.7l-0.2-0.6h2c0.1,0,0.1,0,0.2-0.1s0.1-0.1,0.1-0.2v-7.4h-8.1v8.3h-0.6v-8.9
			h2.3c0.4-0.6,0.8-1.1,1-1.7l0.6,0.1c-0.2,0.5-0.5,1-0.9,1.5h6.3V39.9z M228.8,38.5h-4.5v-4.3h4.5V38.5z M228.1,37.9v-3h-3.2v3
			H228.1z"/>
	</g>
	<g>
		<path class="st12" d="M214.4,154.5h-6.2c-0.4,0.9-1,1.7-1.6,2.5v6h-0.7v-5.2c-0.6,0.6-1.2,1.1-1.7,1.4l-0.2-0.6
			c1.5-1.2,2.7-2.5,3.5-4.2h-3.5v-0.6h3.8c0.2-0.4,0.4-0.8,0.6-1.4l0.6,0.2c-0.2,0.5-0.4,0.9-0.6,1.2h5.9V154.5z M214.4,159.8h-3
			v2.4c0,0.2-0.1,0.4-0.2,0.5s-0.2,0.3-0.4,0.3s-0.5,0.1-1.1,0.1c-0.3,0-0.6,0-0.9,0l-0.3-0.6c0.3,0,0.6,0,1,0c0.6,0,1,0,1.1-0.1
			s0.2-0.1,0.2-0.2v-2.3h-3.6v-0.6h3.6v-0.9c0.6-0.4,1.2-0.9,1.9-1.6H208v-0.6h5.6v0.6c-0.8,0.8-1.5,1.4-2.2,1.8v0.6h3V159.8z"/>
		<path class="st12" d="M221.5,153.3h-1v9.8h-0.6v-2.5c-1,0.4-2.3,0.7-3.9,1.1l-0.2-0.6l1.1-0.2v-7.6h-1.1v-0.6h5.7V153.3z
			 M219.9,155.2v-1.9h-2.4v1.9H219.9z M219.9,157.7v-1.9h-2.4v1.9H219.9z M219.9,160v-1.6h-2.4v2.4C218.2,160.5,219,160.3,219.9,160
			z M226.3,162.6l-0.4,0.5c-0.8-0.7-1.5-1.4-2.1-2.2c-0.7,0.9-1.5,1.6-2.3,2.2l-0.4-0.5c0.8-0.6,1.6-1.3,2.3-2.3
			c-1-1.7-1.6-3.7-1.8-6h-0.4v-0.6h4.6c0,2.6-0.6,4.8-1.7,6.6c0.1,0.3,0.5,0.7,0.9,1.2S226,162.3,226.3,162.6z M225.2,154.4h-2.9
			c0.1,2,0.6,3.8,1.5,5.4C224.6,158.2,225.1,156.5,225.2,154.4z"/>
		<path class="st12" d="M231.5,157.7l-0.4,0.5c-0.2-0.4-0.5-0.8-0.9-1.3v6.1h-0.6V157c-0.4,1.1-0.9,2-1.4,2.8l-0.4-0.5
			c0.7-1.1,1.3-2.4,1.8-3.8h-1.6v-0.6h1.7v-2.3h0.6v2.3h1.1v0.6h-1.1v0.7C230.7,156.7,231.2,157.2,231.5,157.7z M238.2,162.5h-5.6
			v0.5h-0.6v-4c-0.3,0.3-0.6,0.6-0.9,0.9l-0.4-0.5c0.8-0.6,1.5-1.5,2-2.4l0.6,0.2c-0.1,0.2-0.3,0.5-0.4,0.7h2.1
			c-0.1-0.1-0.2-0.3-0.3-0.5l0.6-0.3c0.2,0.2,0.3,0.5,0.5,0.7h2.2v0.5h-2.5v0.8h2.2v0.5h-2.2v0.8h2.2v0.5h-2.2v0.9h2.8V162.5z
			 M234.1,154.5h-0.6V154h-2.2v-0.6h2.2v-0.8h0.6V154.5z M234.4,156.8h-2.6v-2h2.6V156.8z M233.8,156.3v-0.9h-1.5v0.9H233.8z
			 M234.9,159.2v-0.8h-2.2v0.8H234.9z M234.9,160.5v-0.8h-2.2v0.8H234.9z M234.9,162v-0.9h-2.2v0.9H234.9z M237.8,156.8h-2.6v-2h2.6
			V156.8z M238.2,154h-2.1v0.5h-0.6v-1.9h0.6v0.8h2.1V154z M237.2,156.3v-0.9h-1.5v0.9H237.2z"/>
		<path class="st12" d="M244.1,158.1l-0.4,0.5c-0.5-0.7-1-1.3-1.4-1.7v6.1h-0.6v-6c-0.5,1.2-1.1,2.2-1.7,3l-0.4-0.5
			c0.8-1,1.5-2.4,2.1-4.1h-1.9v-0.6h1.9v-2.4h0.6v2.4h1.4v0.6h-1.4v0.6C243,156.8,243.6,157.5,244.1,158.1z M250.2,162.6l-0.4,0.5
			c-1.3-0.6-2.4-1.2-3.2-2c-0.9,0.9-2,1.5-3.3,1.9l-0.4-0.6c1.4-0.4,2.5-1,3.3-1.8c-0.8-1.1-1.3-2.5-1.6-4.2l0.6-0.1
			c0.3,1.6,0.7,2.9,1.4,3.8c0.6-1,0.9-2.6,1-4.8h-3.3v-0.6h3.4c0-0.8,0-1.5,0-2.2h0.6c0,1,0,1.7,0,2.2h1.8v0.6h-1.9
			c0,2.4-0.4,4.2-1.1,5.3C247.8,161.4,248.9,162.1,250.2,162.6z"/>
	</g>
</g>
</svg>
