<?xml version="1.0" encoding="utf-8"?>
<!-- Generator: Adobe Illustrator 23.0.1, SVG Export Plug-In . SVG Version: 6.00 Build 0)  -->
<svg version="1.1" xmlns="http://www.w3.org/2000/svg" xmlns:xlink="http://www.w3.org/1999/xlink" x="0px" y="0px"
	 viewBox="0 0 492.7 180" style="enable-background:new 0 0 492.7 180;" xml:space="preserve">
<style type="text/css">
	.st0{fill:#505050;}
	.st1{fill:#FFFFFF;}
	.st2{display:none;}
	.st3{display:inline;}
	.st4{fill:#EBEBEB;}
	.st5{fill:#0072C6;}
	.st6{fill:#FFB900;}
	.st7{fill:none;stroke:#000000;stroke-miterlimit:10;}
	.st8{fill:#1E1E1E;}
	.st9{fill:#EBEBEB;stroke:#000000;stroke-width:0.75;stroke-miterlimit:10;}
	.st10{fill:none;}
	.st11{stroke:#000000;stroke-width:5.000000e-02;stroke-miterlimit:10;}
	.st12{fill:#1E1E1E;stroke:#1E1E1E;stroke-width:6.000000e-02;stroke-miterlimit:10;}
	.st13{fill:#FFFFFF;stroke:#FFFFFF;stroke-width:5.000000e-02;stroke-miterlimit:10;}
</style>
<symbol  id="New_Symbol_41" viewBox="-10 -10 20 20">
	<circle class="st0" cx="0" cy="0" r="10"/>
	<path class="st1" d="M1.2-4.2v8.6h-1.4v-6.9C-0.4-2.3-0.7-2.1-1-2c-0.3,0.1-0.7,0.2-1,0.3v-1.2l0.6-0.2l0.6-0.3l0.6-0.3
		C0.1-3.9,0.4-4,0.6-4.2H1.2z"/>
</symbol>
<symbol  id="New_Symbol_42" viewBox="-10 -10 20 20">
	<circle class="st0" cx="0" cy="0" r="10"/>
	<path class="st1" d="M2.5,4.4h-5.3V3.8c0-0.3,0-0.5,0.1-0.8c0.1-0.2,0.2-0.4,0.3-0.7c0.1-0.2,0.3-0.4,0.4-0.6
		c0.2-0.2,0.4-0.4,0.5-0.5l0.6-0.5c0.2-0.1,0.4-0.3,0.6-0.5S0.1,0,0.3-0.2c0.1-0.1,0.3-0.3,0.4-0.4C0.8-0.8,0.9-1,0.9-1.1
		C1-1.3,1-1.5,1-1.7c0-0.2,0-0.4-0.1-0.6C0.8-2.4,0.7-2.6,0.6-2.7C0.5-2.8,0.3-2.9,0.2-2.9C0-3-0.2-3-0.4-3c-0.4,0-0.7,0.1-1.1,0.2
		c-0.4,0.2-0.7,0.4-1,0.7v-1.3c0.2-0.1,0.3-0.2,0.5-0.3c0.2-0.1,0.4-0.2,0.6-0.2C-1.2-4-1-4-0.8-4.1c0.2,0,0.4,0,0.7,0
		c0.3,0,0.7,0,1,0.1c0.3,0.1,0.6,0.2,0.8,0.4C1.9-3.3,2.1-3,2.2-2.8c0.1,0.3,0.2,0.7,0.2,1c0,0.3,0,0.6-0.1,0.9
		C2.2-0.6,2-0.3,1.9-0.1C1.7,0.2,1.5,0.4,1.3,0.6C1.1,0.8,0.9,1,0.6,1.2l-0.7,0.5c-0.2,0.2-0.4,0.4-0.6,0.5C-0.8,2.4-1,2.6-1.1,2.8
		c-0.1,0.1-0.2,0.3-0.2,0.5l0,0h3.8V4.4z"/>
</symbol>
<symbol  id="New_Symbol_43" viewBox="-10 -10 20 20">
	<circle class="st0" cx="0" cy="0" r="10"/>
	<path class="st1" d="M-2.6,4.1V2.8c0.5,0.4,1.2,0.7,1.8,0.6c0.5,0,0.9-0.1,1.3-0.4c0.3-0.2,0.5-0.6,0.5-1c0-0.9-0.7-1.4-2.2-1.4
		h-0.7v-1.1h0.6c1.3,0,1.9-0.4,1.9-1.4S0.3-3-0.7-3c-0.6,0-1.1,0.2-1.6,0.6v-1.2C-1.7-4-1-4.1-0.3-4.1c0.6,0,1.3,0.2,1.8,0.6
		c0.4,0.3,0.7,0.9,0.7,1.4c0.1,1-0.7,1.9-1.7,2.1l0,0c0.5,0,1,0.3,1.4,0.6C2.3,1,2.5,1.5,2.5,2.1c0,0.7-0.3,1.4-0.9,1.8
		C1,4.4,0.2,4.6-0.6,4.6C-1.3,4.6-2,4.5-2.6,4.1z"/>
</symbol>
<symbol  id="New_Symbol_44" viewBox="-10 -10 20 20">
	<circle class="st0" cx="0" cy="0" r="10"/>
	<path class="st1" d="M2-4v5.4h1.3v1.1H2v1.9H0.6V2.6h-3.8V1.4c0.3-0.4,0.7-0.8,1-1.3c0.4-0.4,0.7-0.9,1-1.4s0.6-0.9,0.9-1.4
		S0.4-3.5,0.6-4L2-4z M0.7,1.4v-3.5c-0.4,0.7-0.8,1.4-1.3,2C-1,0.5-1.4,1-1.8,1.4L0.7,1.4z"/>
</symbol>
<symbol  id="New_Symbol_45" viewBox="-10 -10 20 20">
	<circle class="st0" cx="0" cy="0" r="10"/>
	<path class="st1" d="M-2.4,4.2V2.9c0.5,0.3,1.1,0.5,1.7,0.6c0.5,0,1-0.1,1.4-0.4C1,2.8,1.2,2.3,1.1,1.9C1.2,1.5,1,1,0.6,0.8
		c-0.5-0.3-1-0.4-1.5-0.4c-0.2,0-0.7,0-1.4,0.1L-2-4h4.1v1.2h-3L-1-0.7c0.3,0,0.5,0,0.7,0C0.5-0.8,1.2-0.5,1.8,0
		c0.5,0.5,0.7,1.2,0.7,1.9c0,0.8-0.3,1.5-0.8,2C1,4.4,0.2,4.6-0.6,4.6C-1.2,4.6-1.9,4.5-2.4,4.2z"/>
</symbol>
<g id="src" class="st2">
	<g id="Shapes" class="st3">
		<rect class="st1" width="492.7" height="180"/>
		<rect x="0.5" class="st4" width="105" height="155"/>
		<rect x="370.2" y="60" class="st5" width="105" height="95"/>
		<rect x="370.2" y="0.1" class="st6" width="105" height="55"/>
		<g>
			<line class="st7" x1="105.5" y1="15" x2="364.7" y2="15"/>
			<polygon points="363.6,18.7 370.1,15 363.6,11.3 			"/>
		</g>
		<g>
			<line class="st7" x1="110.9" y1="44.9" x2="370.1" y2="44.9"/>
			<polygon points="112,48.6 105.5,44.9 112,41.1 			"/>
		</g>
		<g>
			<line class="st7" x1="105.5" y1="85.1" x2="364.7" y2="85.1"/>
			<polygon points="363.6,88.8 370.1,85.1 363.6,81.4 			"/>
		</g>
		<g>
			<line class="st7" x1="110.9" y1="135.1" x2="370.1" y2="135.1"/>
			<polygon points="112,138.8 105.5,135.1 112,131.4 			"/>
		</g>
		<g>
			<path class="st7" d="M51,155v7.5c0,4.1,4.5,7.5,10,7.5l419.1,0.8c5.5,0,10-4.5,10-10V31.5c-0.1-1.5-1.3-2.6-2.8-2.5h-6.6"/>
			<polygon points="481.8,25.3 475.3,29 481.8,32.7 			"/>
		</g>
		
			<use xlink:href="#New_Symbol_45"  width="20" height="20" x="-10" y="-10" transform="matrix(1 0 0 1 169.06 170)" style="overflow:visible;"/>
		
			<use xlink:href="#New_Symbol_44"  width="20" height="20" x="-10" y="-10" transform="matrix(1 0 0 1 169.06 135.1)" style="overflow:visible;"/>
		
			<use xlink:href="#New_Symbol_43"  width="20" height="20" x="-10" y="-10" transform="matrix(1 0 0 1 169.06 85.1)" style="overflow:visible;"/>
		<path d="M80.8,38.3C74.1,29.7,63.9,24.6,53,24.6c-7.7,0-15.2,2.6-21.3,7.2c-15.3,11.7-18.2,33.7-6.5,49
			c6.6,8.6,16.9,13.7,27.7,13.7c7.7,0,15.2-2.5,21.3-7.2c15.3-11.7,18.3-33.5,6.6-48.8C80.8,38.4,80.8,38.4,80.8,38.3z M82.4,67.5
			c-1.2-0.9-3-2.3-5.3-4.1c0.8-2.1,0.5-4.5-0.8-6.4c-2.1-2.6-5.7-3.2-8.6-1.5c-3-2.8-6.4-5.9-10-9.5c10.7-5.9,18.6-5.2,19-5.1
			c0.1,0.1,0.2,0.3,0.3,0.4C82.9,48.7,84.8,58.4,82.4,67.5z M63.2,75.7c-0.2-0.9-0.6-1.7-1.1-2.4c-1.9-2.5-5.4-3.1-8-1.4
			c-2.9-1.6-5.6-3.4-8.1-5.4c-0.3-0.2-0.5-0.4-0.7-0.6c1.2-3,0.7-6.4-1.3-9c0-0.1-0.1-0.1-0.2-0.2c0.6-0.6,1.2-1.3,1.9-1.9
			c2.5-2.4,5.1-4.6,8-6.5l0,0h0.1l-0.1,0.1c3.8,3.5,7.8,6.8,11.6,9.8c-1,2.2-0.8,4.7,0.6,6.7c2.2,2.9,6.3,3.4,9.2,1.3
			c0.1-0.1,0.3-0.2,0.4-0.4c2.7,1.9,4.9,3.4,6.1,4.2c-0.9,2.4-2,4.6-3.4,6.7C76.2,77.2,70.7,77.9,63.2,75.7z M72.6,36.4
			c-7-1-14.1,0.4-20.3,3.8c-2.7-2.9-5.7-6.2-8.6-9.5c3-1,6.2-1.5,9.3-1.5C60.2,29.2,67.1,31.7,72.6,36.4z M34.5,35.5
			c1.6-1.2,3.3-2.3,5.1-3.1c2.4,3.7,5.1,7.2,8.2,10.4c-3.1,2.1-5.9,4.6-8.4,7.3c-1,1.1-1.9,2.2-2.8,3.3c-1.5,0-3,0.3-4.3,1
			c-2.4-4-3.5-8.6-3.3-13.3C30.6,38.9,32.4,37.1,34.5,35.5z M25.4,46.8c-0.1,4,1,8,3,11.4c-1.7,3.2-1.4,7.1,0.8,10l0,0
			c-0.7,2.8-1.1,5.7-1.4,8.6C21.8,67.9,20.8,56.5,25.4,46.8z M53,90.1c-7.1,0-14.1-2.5-19.5-7.1c0-3.8,0.5-7.6,1.5-11.3
			c2.4,0.4,4.9-0.1,6.9-1.5l0.8,0.6c2.7,2.1,5.6,4,8.7,5.5c-0.2,1.6,0.2,3.2,1.2,4.5c2,2.7,5.8,3.2,8.5,1.2c0.6-0.5,1.1-1,1.5-1.7
			c3.9,0.8,7.8,1.2,11.7,1.2c-0.9,0.8-1.8,1.6-2.7,2.3C66.2,87.9,59.7,90.1,53,90.1z"/>
		
			<use xlink:href="#New_Symbol_41"  width="20" height="20" x="-10" y="-10" transform="matrix(1 0 0 1 169.06 15)" style="overflow:visible;"/>
		
			<use xlink:href="#New_Symbol_42"  width="20" height="20" x="-10" y="-10" transform="matrix(1 0 0 1 169.06 44.88)" style="overflow:visible;"/>
	</g>
	<g id="Text" class="st3">
		<g>
			<path class="st8" d="M191.1,10.1h-1V6.6c0-1.3-0.5-1.9-1.4-1.9c-0.5,0-0.9,0.2-1.2,0.5c-0.3,0.4-0.5,0.9-0.5,1.4v3.4h-1V1.2h1
				v3.9l0,0c0.4-0.7,1.2-1.2,2-1.1c1.4,0,2,0.8,2,2.4L191.1,10.1z"/>
			<path class="st8" d="M195.6,10c-0.3,0.1-0.6,0.2-0.9,0.2c-1.1,0-1.6-0.6-1.6-1.8V4.9h-1V4.1h1V2.6l1-0.3v1.8h1.5v0.8h-1.5v3.4
				c0,0.3,0,0.6,0.2,0.9c0.2,0.2,0.4,0.3,0.7,0.3c0.2,0,0.4-0.1,0.6-0.2V10z"/>
			<path class="st8" d="M200,10c-0.3,0.1-0.6,0.2-0.9,0.2c-1.1,0-1.6-0.6-1.6-1.8V4.9h-1V4.1h1V2.6l1-0.3v1.8h1.5v0.8h-1.5v3.4
				c0,0.3,0,0.6,0.2,0.9c0.2,0.2,0.4,0.3,0.7,0.3c0.2,0,0.4-0.1,0.6-0.2L200,10z"/>
			<path class="st8" d="M202.1,9.2L202.1,9.2v3.6h-1V4.1h1v1.1l0,0c0.4-0.7,1.2-1.2,2.1-1.2c0.7,0,1.4,0.3,1.8,0.8
				c0.5,0.6,0.7,1.4,0.6,2.2c0,0.9-0.2,1.7-0.7,2.4c-0.5,0.6-1.2,0.9-2,0.9C203.2,10.3,202.5,9.9,202.1,9.2z M202.1,6.8v0.8
				c0,0.5,0.2,0.9,0.5,1.3c0.3,0.3,0.8,0.5,1.2,0.5c0.5,0,1.1-0.2,1.4-0.7c0.4-0.6,0.5-1.2,0.5-1.9c0-0.6-0.1-1.1-0.5-1.6
				c-0.3-0.4-0.8-0.6-1.2-0.6c-0.5,0-1,0.2-1.3,0.6C202.3,5.8,202.1,6.3,202.1,6.8L202.1,6.8z"/>
			<path class="st8" d="M207.8,9.9v-1c0.5,0.4,1.1,0.6,1.7,0.6c0.8,0,1.3-0.3,1.3-0.8c0-0.1,0-0.3-0.1-0.4c-0.1-0.1-0.2-0.2-0.3-0.3
				c-0.1-0.1-0.3-0.2-0.4-0.2l-0.5-0.2c-0.2-0.1-0.5-0.2-0.7-0.3c-0.2-0.1-0.4-0.2-0.5-0.4c-0.1-0.1-0.2-0.3-0.3-0.5
				c-0.1-0.2-0.1-0.4-0.1-0.6c0-0.3,0.1-0.5,0.2-0.7c0.1-0.2,0.3-0.4,0.5-0.6c0.2-0.1,0.5-0.3,0.7-0.3c0.7-0.2,1.5-0.1,2.2,0.2v1
				c-0.4-0.3-1-0.5-1.5-0.5c-0.2,0-0.3,0-0.5,0.1c-0.1,0-0.3,0.1-0.4,0.2c-0.1,0.1-0.2,0.2-0.2,0.3c-0.1,0.1-0.1,0.2-0.1,0.3
				c0,0.1,0,0.3,0.1,0.4c0.1,0.1,0.2,0.2,0.3,0.3c0.1,0.1,0.3,0.2,0.4,0.2l0.5,0.2c0.2,0.1,0.5,0.2,0.7,0.3c0.2,0.1,0.4,0.2,0.5,0.4
				c0.1,0.1,0.3,0.3,0.3,0.5c0.1,0.2,0.1,0.4,0.1,0.6c0,0.3-0.1,0.5-0.2,0.8c-0.1,0.2-0.3,0.4-0.5,0.5c-0.2,0.2-0.5,0.3-0.8,0.3
				c-0.3,0.1-0.6,0.1-0.9,0.1C208.9,10.3,208.3,10.1,207.8,9.9z"/>
			<path class="st8" d="M213.4,5.3c-0.2,0-0.3-0.1-0.5-0.2c-0.1-0.1-0.2-0.3-0.2-0.5c0-0.2,0.1-0.3,0.2-0.5c0.1-0.1,0.3-0.2,0.5-0.2
				c0.2,0,0.3,0.1,0.5,0.2c0.1,0.1,0.2,0.3,0.2,0.5C214.1,5,213.8,5.3,213.4,5.3z M213.4,10.3c-0.2,0-0.3-0.1-0.4-0.3
				c-0.1-0.1-0.2-0.3-0.2-0.5c0-0.2,0.1-0.3,0.2-0.5c0.1-0.1,0.3-0.2,0.5-0.2c0.4,0,0.7,0.3,0.7,0.7c0,0.2-0.1,0.3-0.2,0.5
				C213.8,10.1,213.6,10.2,213.4,10.3L213.4,10.3z"/>
			<path class="st8" d="M219.5,1.7l-4,9.8h-0.9l4-9.8L219.5,1.7z"/>
			<path class="st8" d="M223.2,1.7l-4,9.8h-0.9l4-9.8L223.2,1.7z"/>
			<path class="st8" d="M228.9,4.1l-2.8,7c-0.5,1.2-1.2,1.9-2.1,1.9c-0.2,0-0.4,0-0.6-0.1V12c0.2,0.1,0.4,0.1,0.6,0.1
				c0.5,0,0.9-0.4,1.1-0.9l0.5-1.1l-2.4-6h1.1l1.6,4.6c0,0.1,0.1,0.2,0.1,0.5l0,0c0-0.1,0-0.3,0.1-0.4l1.7-4.6L228.9,4.1z"/>
			<path class="st8" d="M232.3,10.2c-0.8,0-1.6-0.3-2.1-0.8c-0.5-0.6-0.8-1.4-0.8-2.2c-0.1-0.9,0.2-1.7,0.8-2.4
				c0.6-0.6,1.4-0.9,2.2-0.8c0.8,0,1.5,0.3,2.1,0.8c0.5,0.6,0.8,1.5,0.8,2.3c0,0.8-0.3,1.7-0.8,2.3C233.9,10,233.1,10.3,232.3,10.2z
				 M232.4,4.8c-0.6,0-1.1,0.2-1.5,0.6c-0.4,0.5-0.6,1.1-0.5,1.7c0,0.6,0.2,1.2,0.6,1.7c0.4,0.4,0.9,0.6,1.5,0.6
				c0.5,0,1.1-0.2,1.4-0.6c0.4-0.5,0.5-1.1,0.5-1.7c0-0.6-0.1-1.2-0.5-1.7C233.4,5,232.9,4.7,232.4,4.8L232.4,4.8z"/>
			<path class="st8" d="M241.6,10.1h-1v-1l0,0c-0.4,0.7-1.1,1.1-1.9,1.1c-1.4,0-2.1-0.9-2.1-2.6V4.1h1v3.4c0,1.3,0.5,1.9,1.4,1.9
				c0.4,0,0.9-0.2,1.2-0.5c0.3-0.4,0.5-0.9,0.4-1.3V4.1h1L241.6,10.1z"/>
			<path class="st8" d="M246.6,5.1c-0.2-0.1-0.5-0.2-0.7-0.2c-0.4,0-0.8,0.2-1,0.6c-0.3,0.5-0.5,1-0.4,1.5v3.1h-1v-6h1v1.2l0,0
				c0.1-0.4,0.3-0.7,0.6-1c0.3-0.2,0.6-0.3,1-0.3c0.2,0,0.4,0,0.6,0.1L246.6,5.1z"/>
			<path class="st8" d="M247.5,9.9v-1c0.5,0.4,1.1,0.6,1.7,0.6c0.8,0,1.3-0.3,1.3-0.8c0-0.1,0-0.3-0.1-0.4c-0.1-0.1-0.2-0.2-0.3-0.3
				c-0.1-0.1-0.3-0.2-0.4-0.2l-0.5-0.2c-0.2-0.1-0.5-0.2-0.7-0.3c-0.2-0.1-0.4-0.2-0.5-0.4c-0.1-0.1-0.2-0.3-0.3-0.5
				c-0.1-0.2-0.1-0.4-0.1-0.6c0-0.3,0.1-0.5,0.2-0.7c0.1-0.2,0.3-0.4,0.5-0.6c0.2-0.1,0.5-0.3,0.7-0.3c0.3-0.1,0.6-0.1,0.9-0.1
				c0.5,0,1,0.1,1.4,0.3v1c-0.5-0.3-1-0.4-1.5-0.4c-0.2,0-0.3,0-0.5,0.1c-0.1,0-0.3,0.1-0.4,0.2c-0.1,0.1-0.2,0.2-0.2,0.3
				c-0.1,0.1-0.1,0.2-0.1,0.3c0,0.1,0,0.3,0.1,0.4c0.1,0.1,0.1,0.2,0.3,0.3c0.1,0.1,0.3,0.2,0.4,0.2l0.5,0.2
				c0.2,0.1,0.5,0.2,0.7,0.3c0.2,0.1,0.4,0.2,0.5,0.4c0.1,0.1,0.3,0.3,0.4,0.5c0.1,0.2,0.1,0.4,0.1,0.6c0,0.3-0.1,0.5-0.2,0.8
				c-0.1,0.2-0.3,0.4-0.5,0.5c-0.2,0.2-0.5,0.3-0.8,0.3c-0.3,0.1-0.6,0.1-0.9,0.1C248.5,10.3,248,10.2,247.5,9.9z"/>
			<path class="st8" d="M253.3,2.6c-0.2,0-0.3-0.1-0.4-0.2c-0.1-0.1-0.2-0.3-0.2-0.4c0-0.2,0.1-0.3,0.2-0.5c0.1-0.1,0.3-0.2,0.4-0.2
				c0.2,0,0.3,0.1,0.4,0.2c0.1,0.1,0.2,0.3,0.2,0.5c0,0.2-0.1,0.3-0.2,0.4C253.6,2.5,253.5,2.6,253.3,2.6z M253.8,10.1h-1v-6h1V10.1
				z"/>
			<path class="st8" d="M258.4,10c-0.3,0.1-0.6,0.2-0.9,0.2c-1,0-1.6-0.6-1.6-1.8V4.9h-1V4.1h1V2.6l1-0.3v1.8h1.5v0.8H257v3.4
				c0,0.3,0,0.6,0.2,0.9c0.2,0.2,0.4,0.3,0.7,0.3c0.2,0,0.4-0.1,0.6-0.2L258.4,10z"/>
			<path class="st8" d="M264.4,7.3h-4.2c0,0.6,0.2,1.1,0.5,1.6c0.4,0.4,0.9,0.6,1.4,0.5c0.7,0,1.3-0.2,1.8-0.7v0.9
				c-0.6,0.4-1.4,0.6-2.1,0.6c-0.8,0-1.5-0.3-2-0.8c-0.5-0.7-0.8-1.5-0.7-2.3c0-0.8,0.3-1.7,0.8-2.3c0.5-0.6,1.2-0.9,2-0.8
				c0.7,0,1.4,0.2,1.8,0.8c0.5,0.6,0.7,1.4,0.6,2.1L264.4,7.3z M263.4,6.5c0-0.5-0.1-0.9-0.4-1.3c-0.3-0.3-0.7-0.5-1.1-0.5
				c-0.4,0-0.9,0.2-1.1,0.5c-0.3,0.3-0.5,0.8-0.6,1.3H263.4z"/>
			<path class="st8" d="M266.1,10.2c-0.2,0-0.3-0.1-0.5-0.2c-0.1-0.1-0.2-0.3-0.2-0.5c0-0.2,0.1-0.3,0.2-0.5c0.2-0.3,0.6-0.3,0.9,0
				c0,0,0,0,0,0c0.1,0.1,0.2,0.3,0.2,0.5c0,0.2-0.1,0.3-0.2,0.5C266.5,10.2,266.3,10.2,266.1,10.2z"/>
			<path class="st8" d="M272.4,9.8c-0.5,0.3-1.1,0.4-1.6,0.4c-0.8,0-1.5-0.3-2.1-0.8c-0.5-0.6-0.8-1.4-0.8-2.2
				c0-0.9,0.3-1.7,0.9-2.4c0.6-0.6,1.4-0.9,2.3-0.9c0.5,0,1,0.1,1.4,0.3v1C272,5,271.5,4.8,271,4.8c-0.6,0-1.1,0.2-1.5,0.7
				c-0.4,0.5-0.6,1.1-0.6,1.7c0,0.6,0.2,1.2,0.5,1.7c0.4,0.4,0.9,0.6,1.5,0.6c0.5,0,1.1-0.2,1.5-0.5L272.4,9.8z"/>
			<path class="st8" d="M276.2,10.2c-0.8,0-1.6-0.3-2.2-0.8c-0.5-0.6-0.8-1.4-0.8-2.2c0-0.9,0.2-1.7,0.8-2.4
				c0.6-0.6,1.4-0.9,2.3-0.8c0.8,0,1.5,0.3,2.1,0.8c0.5,0.6,0.8,1.5,0.8,2.3c0,0.8-0.3,1.7-0.8,2.3C277.8,10,277,10.3,276.2,10.2z
				 M276.2,4.8c-0.6,0-1.1,0.2-1.5,0.6c-0.4,0.5-0.6,1.1-0.5,1.7c0,0.6,0.2,1.2,0.5,1.7c0.4,0.4,0.9,0.6,1.5,0.6
				c0.5,0,1.1-0.2,1.4-0.6c0.4-0.5,0.5-1.1,0.5-1.7c0-0.6-0.1-1.2-0.5-1.7C277.3,5,276.8,4.7,276.2,4.8L276.2,4.8z"/>
			<path class="st8" d="M289.2,10.1h-1V6.7c0-0.5-0.1-1-0.3-1.4c-0.2-0.3-0.6-0.5-1-0.4c-0.4,0-0.8,0.2-1,0.6
				c-0.3,0.4-0.4,0.9-0.4,1.3v3.4h-1V6.5c0-1.2-0.5-1.8-1.4-1.8c-0.4,0-0.8,0.2-1,0.5c-0.3,0.4-0.4,0.9-0.4,1.4v3.4h-1v-6h1v1l0,0
				c0.4-0.7,1.1-1.1,1.9-1.1c0.4,0,0.8,0.1,1.1,0.3c0.3,0.2,0.5,0.5,0.6,0.9c0.4-0.8,1.1-1.3,2-1.2c1.3,0,2,0.8,2,2.4L289.2,10.1z"
				/>
		</g>
		<g>
			<path class="st8" d="M192.3,39.7h-1.2l-1.4-2.4c-0.1-0.2-0.2-0.4-0.4-0.6c-0.1-0.1-0.2-0.3-0.4-0.4c-0.1-0.1-0.3-0.2-0.4-0.2
				c-0.2,0-0.3-0.1-0.5-0.1h-0.8v3.6h-1v-8.4h2.5c0.3,0,0.7,0,1,0.1c0.3,0.1,0.6,0.2,0.8,0.4c0.2,0.2,0.4,0.4,0.5,0.7
				c0.2,0.6,0.3,1.2,0.1,1.8c-0.1,0.2-0.2,0.5-0.4,0.7c-0.2,0.2-0.4,0.4-0.6,0.5c-0.2,0.1-0.5,0.2-0.8,0.3l0,0
				c0.1,0.1,0.3,0.1,0.4,0.2c0.1,0.1,0.2,0.2,0.3,0.3c0.1,0.1,0.2,0.2,0.3,0.4l0.3,0.5L192.3,39.7z M187.3,32.2v3h1.3
				c0.2,0,0.5,0,0.7-0.1c0.2-0.1,0.4-0.2,0.6-0.3c0.2-0.1,0.3-0.3,0.4-0.5c0.1-0.2,0.1-0.4,0.1-0.7c0-0.4-0.1-0.8-0.4-1.1
				c-0.4-0.3-0.8-0.4-1.3-0.4L187.3,32.2z"/>
			<path class="st8" d="M198,37h-4.2c0,0.6,0.2,1.1,0.5,1.5c0.4,0.4,0.9,0.6,1.4,0.5c0.7,0,1.3-0.2,1.9-0.7v0.9
				c-0.6,0.4-1.3,0.6-2.1,0.6c-0.8,0-1.5-0.3-2-0.8c-0.5-0.7-0.8-1.5-0.7-2.3c0-0.8,0.2-1.6,0.8-2.3c0.5-0.6,1.2-0.9,2-0.9
				c0.7,0,1.4,0.2,1.8,0.8c0.5,0.6,0.7,1.4,0.6,2.1L198,37z M197,36.2c0-0.5-0.1-0.9-0.4-1.3c-0.3-0.3-0.7-0.5-1.1-0.5
				c-0.4,0-0.9,0.2-1.2,0.5c-0.3,0.4-0.5,0.8-0.6,1.3H197z"/>
			<path class="st8" d="M204.6,39.7h-1v-1l0,0c-0.4,0.8-1.2,1.2-2.1,1.2c-0.7,0-1.4-0.3-1.8-0.8c-0.5-0.6-0.7-1.4-0.7-2.2
				c0-0.9,0.2-1.7,0.8-2.4c0.5-0.6,1.2-0.9,2-0.9c0.7,0,1.4,0.3,1.8,1l0,0v-3.8h1L204.6,39.7z M203.6,37v-0.9c0-0.5-0.2-0.9-0.5-1.2
				c-0.3-0.3-0.8-0.5-1.2-0.5c-0.5,0-1.1,0.2-1.4,0.6c-0.4,0.5-0.5,1.1-0.5,1.8c0,0.6,0.1,1.2,0.5,1.6c0.3,0.4,0.8,0.6,1.3,0.6
				c0.5,0,1-0.2,1.3-0.6C203.5,38.1,203.7,37.5,203.6,37L203.6,37z"/>
			<path class="st8" d="M206.9,32.2c-0.2,0-0.3-0.1-0.4-0.2c-0.1-0.1-0.2-0.3-0.2-0.5c0-0.2,0.1-0.3,0.2-0.4
				c0.1-0.1,0.3-0.2,0.4-0.2c0.2,0,0.3,0.1,0.4,0.2c0.1,0.1,0.2,0.3,0.2,0.4c0,0.2-0.1,0.3-0.2,0.4
				C207.2,32.1,207.1,32.2,206.9,32.2z M207.4,39.7h-1v-6h1V39.7z"/>
			<path class="st8" d="M212.3,34.7c-0.2-0.1-0.5-0.2-0.7-0.2c-0.4,0-0.8,0.2-1,0.6c-0.3,0.5-0.5,1-0.4,1.6v3.1h-1v-6h1V35l0,0
				c0.1-0.4,0.3-0.7,0.6-1c0.3-0.2,0.6-0.4,0.9-0.4c0.2,0,0.4,0,0.6,0.1L212.3,34.7z"/>
			<path class="st8" d="M218.2,37H214c0,0.6,0.2,1.1,0.5,1.5c0.4,0.4,0.9,0.6,1.4,0.5c0.7,0,1.3-0.2,1.9-0.7v0.9
				c-0.6,0.4-1.3,0.6-2.1,0.6c-0.8,0-1.5-0.3-2-0.8c-0.5-0.7-0.8-1.5-0.7-2.3c0-0.8,0.2-1.6,0.8-2.3c0.5-0.6,1.2-0.9,2-0.9
				c0.7,0,1.4,0.2,1.8,0.8c0.5,0.6,0.7,1.4,0.6,2.1L218.2,37z M217.2,36.2c0-0.5-0.1-0.9-0.4-1.3c-0.3-0.3-0.7-0.5-1.1-0.5
				c-0.4,0-0.9,0.2-1.2,0.5c-0.3,0.3-0.5,0.8-0.6,1.3H217.2z"/>
			<path class="st8" d="M223.8,39.5c-0.5,0.3-1.1,0.4-1.6,0.4c-0.8,0-1.5-0.3-2.1-0.8c-0.5-0.6-0.8-1.4-0.8-2.2
				c0-0.9,0.3-1.7,0.9-2.4c0.6-0.6,1.4-0.9,2.3-0.9c0.5,0,1,0.1,1.4,0.3v1c-0.4-0.3-0.9-0.5-1.4-0.5c-0.6,0-1.1,0.2-1.5,0.7
				c-0.4,0.5-0.6,1.1-0.6,1.7c0,0.6,0.2,1.2,0.6,1.7c0.4,0.4,0.9,0.6,1.5,0.6c0.5,0,1.1-0.2,1.5-0.5V39.5z"/>
			<path class="st8" d="M228.2,39.7c-0.3,0.1-0.6,0.2-0.9,0.2c-1.1,0-1.6-0.6-1.6-1.8v-3.5h-1v-0.8h1v-1.5l1-0.3v1.8h1.5v0.8h-1.5
				v3.4c0,0.3,0,0.6,0.2,0.9c0.2,0.2,0.4,0.3,0.7,0.3c0.2,0,0.4-0.1,0.6-0.2L228.2,39.7z"/>
		</g>
		<g>
			<path class="st1" d="M405.7,96.3h-1.9v-5c0-0.5,0-1.1,0.1-1.8l0,0c-0.1,0.4-0.2,0.8-0.3,1.1l-2,5.7h-1.5l-2-5.7
				c0-0.2-0.1-0.6-0.3-1.2h0c0,0.8,0.1,1.6,0.1,2.2v4.7h-1.7v-8.4h2.8l1.7,5c0.1,0.4,0.2,0.8,0.3,1.2l0,0c0.1-0.4,0.2-0.8,0.3-1.2
				l1.7-5h2.7L405.7,96.3z"/>
			<path class="st1" d="M408.3,89.3c-0.3,0-0.6-0.1-0.8-0.3c-0.2-0.2-0.3-0.4-0.3-0.7c0-0.3,0.1-0.5,0.3-0.7
				c0.2-0.2,0.5-0.3,0.8-0.3c0.3,0,0.6,0.1,0.8,0.3c0.2,0.2,0.3,0.4,0.3,0.7c0,0.3-0.1,0.5-0.3,0.7
				C408.9,89.2,408.6,89.3,408.3,89.3z M409.2,96.3h-1.9v-6h1.9V96.3z"/>
			<path class="st1" d="M415.3,96.1c-0.6,0.3-1.2,0.4-1.8,0.4c-0.8,0-1.6-0.3-2.2-0.8c-0.6-0.6-0.9-1.4-0.9-2.2
				c-0.1-0.9,0.3-1.8,0.9-2.4c0.7-0.6,1.6-0.9,2.5-0.9c0.5,0,1.1,0.1,1.5,0.3V92c-0.4-0.3-0.8-0.4-1.3-0.4c-1,0.1-1.8,0.9-1.7,1.9
				c0,0.4,0.2,0.8,0.4,1.1c0.3,0.3,0.8,0.5,1.2,0.5c0.5,0,1-0.2,1.4-0.4L415.3,96.1z"/>
			<path class="st1" d="M420.5,92c-0.2-0.1-0.5-0.2-0.8-0.2c-0.4,0-0.7,0.1-1,0.4c-0.2,0.4-0.4,0.8-0.3,1.2v2.9h-1.8v-6h1.9v1.1l0,0
				c0.2-0.7,0.8-1.2,1.6-1.2c0.2,0,0.3,0,0.5,0.1L420.5,92z"/>
			<path class="st1" d="M424.3,96.4c-0.9,0-1.7-0.3-2.4-0.8c-1.1-1.3-1.1-3.3,0-4.6c0.7-0.6,1.5-0.9,2.4-0.8
				c0.9-0.1,1.7,0.3,2.3,0.8c0.6,0.6,0.9,1.4,0.9,2.2c0,0.9-0.3,1.7-0.9,2.4C426.1,96.2,425.2,96.5,424.3,96.4z M424.3,91.6
				c-0.4,0-0.8,0.2-1,0.4c-0.3,0.4-0.4,0.8-0.4,1.3c0,1.2,0.5,1.7,1.4,1.7s1.3-0.6,1.3-1.8S425.3,91.6,424.3,91.6L424.3,91.6z"/>
			<path class="st1" d="M428.5,96.1v-1.5c0.3,0.2,0.6,0.3,0.9,0.4c0.3,0.1,0.6,0.1,0.9,0.1c0.3,0,0.5-0.1,0.8-0.2
				c0.2-0.1,0.3-0.2,0.3-0.4c0-0.1,0-0.2-0.1-0.3c-0.1-0.1-0.2-0.2-0.3-0.2c-0.1-0.1-0.3-0.1-0.4-0.2l-0.5-0.2
				c-0.2-0.1-0.4-0.2-0.6-0.3c-0.2-0.1-0.3-0.2-0.5-0.4c-0.1-0.1-0.2-0.3-0.3-0.5c-0.1-0.2-0.1-0.4-0.1-0.6c0-0.3,0.1-0.6,0.2-0.9
				c0.1-0.2,0.3-0.4,0.6-0.6c0.3-0.2,0.5-0.3,0.8-0.3c0.3-0.1,0.7-0.1,1-0.1c0.3,0,0.5,0,0.8,0.1c0.3,0,0.5,0.1,0.8,0.2v1.5
				c-0.2-0.1-0.5-0.2-0.8-0.3c-0.3-0.1-0.5-0.1-0.8-0.1c-0.2,0-0.4,0-0.6,0.1c-0.1,0-0.1,0.1-0.2,0.2c0,0.1-0.1,0.1-0.1,0.2
				c0,0.1,0,0.2,0.1,0.3c0.1,0.1,0.2,0.1,0.3,0.2c0.1,0.1,0.2,0.1,0.4,0.2l0.4,0.1c0.2,0.1,0.5,0.2,0.7,0.3c0.2,0.1,0.4,0.2,0.5,0.4
				c0.1,0.1,0.3,0.3,0.3,0.5c0.1,0.2,0.1,0.4,0.1,0.7c0,0.3-0.1,0.6-0.2,0.9c-0.2,0.2-0.4,0.5-0.6,0.6c-0.3,0.2-0.6,0.3-0.9,0.3
				c-0.3,0.1-0.7,0.1-1,0.1C429.7,96.4,429.1,96.3,428.5,96.1z"/>
			<path class="st1" d="M437,96.4c-0.9,0-1.7-0.3-2.4-0.8c-1.2-1.3-1.2-3.3,0-4.6c0.7-0.6,1.5-0.9,2.4-0.8c0.9,0,1.7,0.3,2.4,0.8
				c0.6,0.6,0.9,1.4,0.9,2.2c0,0.9-0.3,1.7-0.9,2.4C438.7,96.2,437.9,96.5,437,96.4z M437,91.6c-0.4,0-0.8,0.2-1,0.4
				c-0.3,0.4-0.4,0.8-0.4,1.3c0,1.2,0.5,1.7,1.4,1.7s1.3-0.6,1.3-1.8S438,91.6,437,91.6L437,91.6z"/>
			<path class="st1" d="M445.4,88.8c-0.2-0.1-0.4-0.1-0.7-0.2c-0.6,0-0.9,0.3-0.9,1v0.6h1.4v1.4h-1.4v4.6h-1.9v-4.7h-1v-1.4h1v-0.7
				c0-0.6,0.2-1.2,0.7-1.7c0.5-0.4,1.2-0.7,1.8-0.6c0.3,0,0.6,0,0.9,0.1V88.8z"/>
			<path class="st1" d="M449.9,96.2c-0.4,0.2-0.8,0.2-1.2,0.2c-1.3,0-2-0.7-2-2v-2.8h-1v-1.4h1V89l1.9-0.5v1.8h1.3v1.4h-1.3v2.4
				c0,0.6,0.2,0.9,0.7,0.9c0.2,0,0.4-0.1,0.6-0.2L449.9,96.2z"/>
			<path class="st1" d="M402.3,103.7c-0.3,0-0.6-0.1-0.8-0.3c-0.2-0.2-0.3-0.4-0.3-0.7c0-0.3,0.1-0.5,0.3-0.7c0.5-0.3,1.1-0.3,1.5,0
				c0.2,0.2,0.3,0.4,0.3,0.7c0,0.3-0.1,0.5-0.3,0.7C402.9,103.6,402.6,103.7,402.3,103.7z M403.3,110.7h-1.9v-6h1.9V110.7z"/>
			<path class="st1" d="M410.7,110.7h-1.9v-0.8l0,0c-0.4,0.6-1.1,1-1.9,1c-0.7,0-1.4-0.3-1.8-0.8c-0.5-0.6-0.7-1.4-0.7-2.2
				c0-0.9,0.2-1.7,0.8-2.4c0.5-0.6,1.2-0.9,2-0.9c0.7-0.1,1.3,0.3,1.6,0.8l0,0v-3.6h1.9L410.7,110.7z M408.9,107.8v-0.4
				c0-0.4-0.1-0.7-0.3-1c-0.4-0.5-1.2-0.5-1.7-0.1c-0.1,0.1-0.1,0.1-0.2,0.2c-0.3,0.4-0.4,0.9-0.4,1.3c0,0.4,0.1,0.9,0.3,1.2
				c0.4,0.5,1.2,0.6,1.7,0.2c0.1-0.1,0.1-0.1,0.2-0.2C408.8,108.6,408.9,108.2,408.9,107.8z"/>
			<path class="st1" d="M417.6,108.2h-3.9c0.1,0.9,0.6,1.3,1.6,1.3c0.6,0,1.2-0.1,1.7-0.5v1.3c-0.7,0.3-1.4,0.5-2.2,0.4
				c-1.5,0.2-2.9-1-3.1-2.5c0-0.2,0-0.4,0-0.5c0-0.9,0.3-1.7,0.9-2.4c0.6-0.6,1.3-0.9,2.1-0.9c0.7,0,1.5,0.2,2,0.8
				c0.5,0.6,0.8,1.3,0.7,2.1L417.6,108.2z M415.9,107.1c0-0.9-0.4-1.3-1-1.3c-0.3,0-0.6,0.1-0.8,0.4c-0.2,0.3-0.4,0.6-0.4,0.9H415.9
				z"/>
			<path class="st1" d="M424.6,110.7h-1.8v-3.3c0-0.9-0.3-1.4-1-1.4c-0.3,0-0.6,0.1-0.8,0.4c-0.2,0.3-0.3,0.6-0.3,0.9v3.4h-1.9v-6
				h1.9v0.9l0,0c0.4-0.7,1.1-1.1,1.9-1.1c1.3,0,2,0.8,2,2.5L424.6,110.7z"/>
			<path class="st1" d="M429.6,110.6c-0.4,0.2-0.8,0.2-1.2,0.2c-1.3,0-2-0.7-2-2v-2.7h-1v-1.4h1v-1.3l1.9-0.5v1.8h1.3v1.4h-1.3v2.4
				c0,0.6,0.2,0.9,0.7,0.9c0.2,0,0.4-0.1,0.6-0.2L429.6,110.6z"/>
			<path class="st1" d="M431.7,103.7c-0.3,0-0.6-0.1-0.8-0.3c-0.2-0.2-0.3-0.4-0.3-0.7c0-0.3,0.1-0.5,0.3-0.7
				c0.2-0.2,0.5-0.3,0.8-0.3c0.3,0,0.6,0.1,0.8,0.3c0.2,0.2,0.3,0.4,0.3,0.7c0,0.3-0.1,0.5-0.3,0.7
				C432.2,103.6,432,103.7,431.7,103.7z M432.6,110.7h-1.9v-6h1.9V110.7z"/>
			<path class="st1" d="M437.7,110.6c-0.4,0.2-0.8,0.2-1.2,0.2c-1.3,0-2-0.7-2-2v-2.7h-1v-1.4h1v-1.3l1.9-0.5v1.8h1.3v1.4h-1.3v2.4
				c0,0.6,0.2,0.9,0.7,0.9c0.2,0,0.4-0.1,0.6-0.2L437.7,110.6z"/>
			<path class="st1" d="M444.8,104.7l-2.4,6.5c-0.6,1.6-1.5,2.3-2.6,2.3c-0.4,0-0.8,0-1.1-0.2v-1.5c0.2,0.1,0.5,0.2,0.8,0.2
				c0.4,0,0.9-0.3,1-0.7l0.3-0.7l-2.4-6h2l1.1,3.7c0.1,0.3,0.1,0.5,0.2,0.8l0,0c0-0.3,0.1-0.5,0.2-0.8l1.1-3.7L444.8,104.7z"/>
			<path class="st1" d="M400.4,124.4L400.4,124.4v3.5h-1.9v-8.8h1.9v0.9l0,0c0.7-1.1,2.2-1.4,3.3-0.6c0.2,0.1,0.3,0.2,0.5,0.4
				c0.4,0.6,0.7,1.4,0.6,2.2c0,0.9-0.2,1.7-0.7,2.4c-0.5,0.6-1.2,0.9-2,0.9C401.4,125.3,400.8,124.9,400.4,124.4z M400.4,121.9v0.5
				c0,0.4,0.1,0.7,0.3,1c0.2,0.3,0.5,0.4,0.9,0.4c0.4,0,0.8-0.2,1-0.5c0.3-0.4,0.4-0.9,0.4-1.4c0-1.1-0.4-1.6-1.2-1.6
				c-0.4,0-0.7,0.2-0.9,0.4C400.5,121.1,400.3,121.5,400.4,121.9L400.4,121.9z"/>
			<path class="st1" d="M407.9,125.1H406v-8.9h1.9L407.9,125.1z"/>
			<path class="st1" d="M414.4,125.1h-1.8v-0.9l0,0c-0.4,0.6-1.1,1-1.8,1c-0.5,0-1-0.2-1.4-0.5c-0.3-0.3-0.5-0.8-0.5-1.3
				c0-1.2,0.7-1.8,2.1-2l1.6-0.2c0-0.7-0.4-1-1.1-1c-0.7,0-1.4,0.2-2,0.6v-1.4c0.3-0.2,0.7-0.3,1-0.3c0.4-0.1,0.8-0.2,1.2-0.2
				c1.2-0.2,2.4,0.7,2.6,1.9c0,0.2,0,0.4,0,0.6L414.4,125.1z M412.7,122.6v-0.4l-1.1,0.1c-0.6,0.1-0.9,0.4-0.9,0.8
				c0,0.2,0.1,0.4,0.2,0.5c0.2,0.1,0.4,0.2,0.6,0.2c0.3,0,0.6-0.1,0.9-0.4C412.6,123.3,412.7,123,412.7,122.6z"/>
			<path class="st1" d="M419.5,125c-0.4,0.2-0.8,0.2-1.2,0.2c-1.3,0-2-0.7-2-2v-2.7h-1v-1.4h1v-1.3l1.9-0.5v1.8h1.4v1.4h-1.3v2.4
				c0,0.6,0.3,0.9,0.7,0.9c0.2,0,0.4-0.1,0.6-0.2L419.5,125z"/>
			<path class="st1" d="M424.6,117.6c-0.2-0.1-0.5-0.1-0.7-0.2c-0.6,0-0.9,0.3-0.9,1v0.6h1.4v1.4H423v4.6h-1.8v-4.6h-1v-1.4h1v-0.7
				c0-0.6,0.2-1.2,0.7-1.7c0.5-0.4,1.2-0.7,1.8-0.6c0.3,0,0.6,0,0.9,0.1L424.6,117.6z"/>
			<path class="st1" d="M428.1,125.2c-0.9,0-1.7-0.3-2.4-0.8c-1.2-1.3-1.2-3.3,0-4.6c0.7-0.6,1.5-0.9,2.4-0.8c0.9,0,1.7,0.3,2.4,0.8
				c0.6,0.6,0.9,1.4,0.9,2.2c0,0.9-0.3,1.7-0.9,2.4C429.9,125,429,125.3,428.1,125.2z M428.2,120.4c-0.4,0-0.8,0.2-1,0.4
				c-0.3,0.4-0.4,0.8-0.4,1.3c0,1.2,0.5,1.7,1.4,1.7s1.3-0.6,1.3-1.8S429.1,120.3,428.2,120.4z"/>
			<path class="st1" d="M436.5,120.8c-0.2-0.1-0.5-0.2-0.8-0.2c-0.4,0-0.7,0.1-1,0.4c-0.2,0.4-0.4,0.8-0.3,1.2v2.9h-1.9v-6h1.9v1.1
				l0,0c0.2-0.7,0.8-1.2,1.6-1.2c0.2,0,0.3,0,0.5,0.1L436.5,120.8z"/>
			<path class="st1" d="M446.9,125.1h-1.8v-3.4c0-0.9-0.3-1.3-1-1.3c-0.3,0-0.6,0.1-0.8,0.4c-0.2,0.3-0.3,0.6-0.3,1v3.4h-1.9v-3.5
				c0-0.8-0.3-1.3-0.9-1.3c-0.3,0-0.6,0.1-0.8,0.4c-0.2,0.3-0.3,0.6-0.3,1v3.3h-1.9v-6h1.9v0.9l0,0c0.2-0.3,0.5-0.6,0.8-0.8
				c0.3-0.2,0.7-0.3,1.1-0.3c0.8-0.1,1.5,0.4,1.7,1.1c0.4-0.7,1.2-1.1,2-1.1c1.3,0,2,0.8,2,2.4L446.9,125.1z"/>
		</g>
		<g>
			<path d="M407.3,23.9h-2.1l-0.6-1.9h-3l-0.6,1.9h-2l3.1-8.4h2.2L407.3,23.9z M404.2,20.6l-0.9-2.8c-0.1-0.2-0.1-0.5-0.1-0.8l0,0
				c0,0.2-0.1,0.5-0.1,0.7l-1,2.9H404.2z"/>
			<path d="M408,23.6v-1.9c0.3,0.3,0.7,0.5,1.1,0.6c0.4,0.1,0.8,0.2,1.2,0.2c0.2,0,0.4,0,0.6-0.1c0.2,0,0.3-0.1,0.4-0.2
				c0.1-0.1,0.2-0.2,0.3-0.3c0.1-0.1,0.1-0.2,0.1-0.3c0-0.2,0-0.3-0.1-0.4c-0.1-0.1-0.2-0.3-0.4-0.4c-0.2-0.1-0.4-0.2-0.6-0.3
				l-0.7-0.3c-0.6-0.2-1.1-0.6-1.5-1c-0.3-0.4-0.5-0.9-0.5-1.4c0-0.4,0.1-0.8,0.3-1.1c0.2-0.3,0.4-0.6,0.7-0.8
				c0.3-0.2,0.7-0.4,1.1-0.4c0.4-0.1,0.8-0.2,1.3-0.1c0.4,0,0.8,0,1.2,0.1c0.3,0.1,0.6,0.1,0.9,0.3v1.7c-0.1-0.1-0.3-0.2-0.5-0.3
				c-0.2-0.1-0.3-0.1-0.5-0.2c-0.2-0.1-0.4-0.1-0.5-0.1c-0.2,0-0.3,0-0.5,0c-0.2,0-0.4,0-0.6,0.1c-0.2,0-0.3,0.1-0.4,0.2
				c-0.1,0.1-0.2,0.2-0.3,0.3c-0.1,0.1-0.1,0.2-0.1,0.4c0,0.1,0,0.3,0.1,0.4c0.1,0.1,0.2,0.2,0.3,0.3c0.2,0.1,0.3,0.2,0.5,0.3
				l0.7,0.3c0.3,0.1,0.6,0.3,0.9,0.4c0.3,0.1,0.5,0.3,0.7,0.5c0.2,0.2,0.3,0.4,0.4,0.7c0.1,0.3,0.2,0.6,0.1,0.9
				c0,0.4-0.1,0.8-0.3,1.2c-0.2,0.3-0.4,0.6-0.7,0.8c-0.3,0.2-0.7,0.4-1.1,0.4c-0.4,0.1-0.9,0.1-1.3,0.1c-0.4,0-0.9,0-1.3-0.1
				C408.7,23.9,408.3,23.8,408,23.6z"/>
			<path d="M417,21v2.9h-1.9v-8.4h3c2.1,0,3.2,0.9,3.2,2.7c0,0.8-0.3,1.5-0.9,2c-0.7,0.5-1.6,0.8-2.4,0.8L417,21z M417,17v2.6h0.7
				c1,0,1.5-0.4,1.5-1.3s-0.5-1.3-1.5-1.3H417z"/>
			<path d="M421.9,24.1c-0.3,0-0.6-0.1-0.8-0.3c-0.2-0.2-0.3-0.4-0.3-0.7c0-0.3,0.1-0.5,0.3-0.7c0.2-0.2,0.5-0.3,0.8-0.3
				c0.3,0,0.6,0.1,0.8,0.3c0.2,0.2,0.3,0.4,0.3,0.7c0,0.3-0.1,0.5-0.3,0.7C422.5,24,422.2,24.1,421.9,24.1z"/>
			<path d="M432.1,23.9h-1.9l-3.5-5.3c-0.2-0.2-0.3-0.5-0.4-0.7l0,0c0,0.3,0,0.8,0,1.4v4.6h-1.8v-8.4h2l3.3,5.1
				c0.1,0.2,0.3,0.5,0.4,0.7l0,0c0-0.4-0.1-0.8,0-1.2v-4.6h1.8L432.1,23.9z"/>
			<path d="M439,23.9h-5v-8.4h4.8v1.5h-3v1.9h2.8v1.5h-2.8v1.9h3.1V23.9z"/>
			<path d="M446.3,17.1h-2.4v6.9H442v-6.9h-2.4v-1.5h6.7V17.1z"/>
			<path d="M408.4,29.9l-2.2,8.4h-2.1l-1.4-5.4c-0.1-0.3-0.1-0.6-0.1-1l0,0c0,0.3-0.1,0.6-0.2,1l-1.4,5.4h-2.2l-2.2-8.4h2.1l1.2,5.6
				c0.1,0.3,0.1,0.7,0.1,1l0,0c0-0.3,0.1-0.7,0.2-1l1.5-5.6h2l1.4,5.6c0.1,0.3,0.1,0.6,0.1,0.9l0,0c0-0.3,0.1-0.6,0.1-0.9l1.2-5.6
				L408.4,29.9z"/>
			<path d="M414.4,35.8h-3.9c0.1,0.9,0.6,1.3,1.6,1.3c0.6,0,1.2-0.1,1.7-0.5V38c-0.7,0.3-1.4,0.5-2.2,0.4c-0.8,0.1-1.7-0.2-2.3-0.8
				c-0.6-0.6-0.8-1.4-0.8-2.3c0-0.9,0.3-1.7,0.9-2.4c0.6-0.6,1.3-0.9,2.1-0.9c0.7,0,1.5,0.2,2,0.8c0.5,0.6,0.8,1.3,0.7,2.1
				L414.4,35.8z M412.7,34.7c0-0.9-0.4-1.3-1-1.3c-0.3,0-0.6,0.1-0.8,0.4c-0.2,0.3-0.4,0.6-0.4,0.9L412.7,34.7z"/>
			<path d="M417.4,37.6L417.4,37.6v0.7h-1.9v-8.9h1.9v3.8l0,0c0.4-0.7,1.2-1,2-1c0.7,0,1.4,0.3,1.8,0.8c0.5,0.6,0.7,1.4,0.6,2.2
				c0,0.9-0.2,1.7-0.7,2.4c-0.5,0.6-1.2,0.9-2,0.9C418.4,38.5,417.8,38.2,417.4,37.6z M417.4,35.1v0.6c0,0.4,0.1,0.7,0.3,1
				c0.2,0.2,0.5,0.4,0.9,0.4c0.4,0,0.8-0.2,1-0.5c0.3-0.4,0.4-0.9,0.4-1.4c0-0.4-0.1-0.8-0.3-1.2c-0.2-0.3-0.6-0.4-0.9-0.4
				c-0.4,0-0.7,0.1-0.9,0.4C417.5,34.3,417.4,34.7,417.4,35.1z"/>
			<path d="M433.9,38.3h-2.1l-0.6-1.9h-3l-0.6,1.9h-2l3.1-8.4h2.2L433.9,38.3z M430.8,35l-0.9-2.8c-0.1-0.2-0.1-0.5-0.1-0.8l0,0
				c0,0.2-0.1,0.5-0.1,0.7l-1,2.9H430.8z"/>
			<path d="M436.6,37.6L436.6,37.6v3.5h-1.9v-8.8h1.9v0.9l0,0c0.7-1.1,2.2-1.4,3.3-0.6c0.2,0.1,0.3,0.2,0.5,0.4
				c0.5,0.6,0.7,1.4,0.6,2.2c0,0.9-0.2,1.7-0.8,2.4c-0.5,0.6-1.2,0.9-2,0.9C437.6,38.5,437,38.2,436.6,37.6z M436.6,35.2v0.5
				c0,0.4,0.1,0.7,0.3,1c0.2,0.3,0.5,0.4,0.9,0.4c0.4,0,0.8-0.2,1-0.5c0.3-0.4,0.4-0.9,0.4-1.4c0-1-0.4-1.6-1.2-1.6
				c-0.4,0-0.7,0.1-0.9,0.4C436.7,34.3,436.6,34.7,436.6,35.2z"/>
			<path d="M444.1,37.6L444.1,37.6v3.5h-1.9v-8.8h1.9v0.9l0,0c0.7-1.1,2.2-1.4,3.3-0.6c0.2,0.1,0.3,0.2,0.5,0.4
				c0.5,0.6,0.7,1.4,0.6,2.2c0,0.9-0.2,1.7-0.7,2.4c-0.5,0.6-1.2,0.9-2,0.9C445.1,38.5,444.4,38.2,444.1,37.6z M444,35.2v0.5
				c0,0.4,0.1,0.7,0.3,1c0.2,0.3,0.5,0.4,0.9,0.4c0.4,0,0.8-0.2,1-0.5c0.3-0.4,0.4-0.9,0.4-1.4c0-1-0.4-1.6-1.2-1.6
				c-0.4,0-0.7,0.1-0.9,0.4C444.1,34.3,444,34.7,444,35.2z"/>
		</g>
		<g>
			<path class="st8" d="M185.8,63.9v3.2h-1v-8.4h2.3c0.8-0.1,1.5,0.2,2.1,0.7c0.5,0.5,0.8,1.2,0.7,1.8c0,0.7-0.3,1.5-0.8,2
				c-0.6,0.5-1.4,0.8-2.2,0.8H185.8z M185.8,59.6V63h1c0.6,0,1.1-0.1,1.6-0.5c0.4-0.3,0.6-0.8,0.5-1.3c0-1.1-0.6-1.7-2-1.7
				L185.8,59.6z"/>
			<path class="st8" d="M194.4,62.1c-0.2-0.1-0.5-0.2-0.7-0.2c-0.4,0-0.8,0.2-1,0.6c-0.3,0.5-0.5,1-0.4,1.6v3.1h-1v-6h1v1.2l0,0
				c0.1-0.4,0.3-0.7,0.6-1c0.3-0.2,0.6-0.4,0.9-0.3c0.2,0,0.4,0,0.6,0.1L194.4,62.1z"/>
			<path class="st8" d="M197.9,67.2c-0.8,0-1.6-0.3-2.1-0.8c-0.5-0.6-0.8-1.4-0.8-2.2c-0.1-0.9,0.2-1.7,0.8-2.4
				c0.6-0.6,1.4-0.9,2.2-0.8c0.8,0,1.6,0.3,2.1,0.8c1,1.4,1,3.2-0.1,4.6C199.5,67,198.8,67.3,197.9,67.2z M198,61.8
				c-0.6,0-1.1,0.2-1.5,0.6c-0.4,0.5-0.6,1.1-0.5,1.7c0,0.6,0.2,1.2,0.6,1.7c0.4,0.4,0.9,0.6,1.4,0.6c0.5,0,1.1-0.2,1.4-0.6
				c0.4-0.5,0.5-1.1,0.5-1.7c0-0.6-0.1-1.2-0.5-1.7C199.1,62,198.6,61.7,198,61.8L198,61.8z"/>
			<path class="st8" d="M210.9,67.1h-1v-3.4c0-0.5-0.1-1-0.3-1.5c-0.2-0.3-0.6-0.5-1-0.4c-0.4,0-0.8,0.2-1,0.6
				c-0.3,0.4-0.4,0.9-0.4,1.3v3.4h-1v-3.6c0-1.2-0.4-1.8-1.4-1.8c-0.4,0-0.8,0.2-1.1,0.5c-0.3,0.4-0.4,0.9-0.4,1.4v3.4h-1v-6h1v1
				l0,0c0.4-0.7,1.1-1.1,1.9-1c0.8,0,1.5,0.5,1.7,1.2c0.4-0.8,1.2-1.2,2-1.2c1.3,0,2,0.8,2,2.4L210.9,67.1z"/>
			<path class="st8" d="M213.7,66.2L213.7,66.2v3.6h-1v-8.8h1v1.1l0,0c0.4-0.8,1.2-1.2,2.1-1.2c0.7,0,1.4,0.3,1.8,0.8
				c0.5,0.6,0.7,1.4,0.6,2.2c0,0.9-0.2,1.7-0.7,2.4c-0.5,0.6-1.2,0.9-2,0.9C214.7,67.3,214,66.9,213.7,66.2z M213.7,63.8v0.8
				c0,0.5,0.2,0.9,0.5,1.3c0.7,0.7,1.8,0.7,2.4,0c0.1-0.1,0.1-0.1,0.2-0.2c0.4-0.6,0.5-1.2,0.5-1.9c0-0.6-0.1-1.1-0.5-1.6
				c-0.3-0.4-0.8-0.6-1.3-0.6c-0.5,0-1,0.2-1.4,0.6C213.8,62.8,213.6,63.3,213.7,63.8L213.7,63.8z"/>
			<path class="st8" d="M222.4,67c-0.3,0.1-0.6,0.2-0.9,0.2c-1.1,0-1.6-0.6-1.6-1.8v-3.5h-1v-0.8h1v-1.5l1-0.3v1.8h1.5v0.8H221v3.4
				c0,0.3,0,0.6,0.2,0.9c0.2,0.2,0.4,0.3,0.7,0.3c0.2,0,0.4-0.1,0.6-0.2L222.4,67z"/>
			<path class="st8" d="M188.8,79.8c-0.5,0.3-1.1,0.4-1.6,0.4c-0.8,0-1.5-0.3-2.1-0.8c-0.5-0.6-0.8-1.4-0.8-2.2
				c0-0.9,0.3-1.7,0.9-2.4c0.6-0.6,1.4-0.9,2.3-0.9c0.5,0,1,0.1,1.4,0.3v1c-0.4-0.3-0.9-0.5-1.4-0.5c-0.6,0-1.1,0.2-1.5,0.7
				c-0.4,0.5-0.6,1.1-0.6,1.7c0,0.6,0.2,1.2,0.6,1.7c0.4,0.4,0.9,0.6,1.5,0.6c0.5,0,1.1-0.2,1.5-0.5L188.8,79.8z"/>
			<path class="st8" d="M193.2,75.1c-0.2-0.1-0.5-0.2-0.7-0.2c-0.4,0-0.8,0.2-1,0.6c-0.3,0.5-0.5,1-0.5,1.5v3.1h-1v-6h1v1.2l0,0
				c0.1-0.4,0.3-0.7,0.6-1c0.3-0.2,0.6-0.4,0.9-0.3c0.2,0,0.4,0,0.6,0.1L193.2,75.1z"/>
			<path class="st8" d="M199.1,77.3h-4.2c0,0.6,0.2,1.1,0.5,1.6c0.4,0.4,0.9,0.6,1.4,0.5c0.7,0,1.3-0.2,1.9-0.7v0.9
				c-0.6,0.4-1.4,0.6-2.1,0.6c-0.8,0-1.5-0.3-2-0.8c-0.5-0.7-0.8-1.5-0.7-2.3c0-0.8,0.2-1.6,0.8-2.3c0.5-0.6,1.2-0.9,2-0.9
				c0.7,0,1.4,0.2,1.8,0.8c0.5,0.6,0.7,1.4,0.6,2.1L199.1,77.3z M198.1,76.5c0-0.5-0.1-0.9-0.4-1.3c-0.3-0.3-0.7-0.5-1.1-0.5
				c-0.4,0-0.9,0.2-1.1,0.5c-0.3,0.3-0.5,0.8-0.6,1.3L198.1,76.5z"/>
			<path class="st8" d="M205.7,80.1h-1v-1l0,0c-0.4,0.8-1.2,1.2-2.1,1.2c-0.7,0-1.4-0.3-1.8-0.8c-0.5-0.6-0.7-1.4-0.7-2.2
				c0-0.9,0.2-1.7,0.8-2.4c0.5-0.6,1.2-0.9,2-0.9c0.7,0,1.4,0.3,1.8,1l0,0v-3.8h1L205.7,80.1z M204.7,77.4v-0.9
				c0-0.5-0.2-0.9-0.5-1.2c-0.3-0.3-0.8-0.5-1.2-0.5c-0.5,0-1.1,0.2-1.4,0.6c-0.4,0.5-0.5,1.1-0.5,1.8c0,0.6,0.1,1.2,0.5,1.6
				c0.3,0.4,0.8,0.6,1.3,0.6c0.5,0,1-0.2,1.3-0.6C204.6,78.4,204.8,77.9,204.7,77.4L204.7,77.4z"/>
			<path class="st8" d="M212.4,77.3h-4.2c0,0.6,0.2,1.1,0.5,1.6c0.4,0.4,0.9,0.6,1.4,0.5c0.7,0,1.3-0.2,1.9-0.7v0.9
				c-0.6,0.4-1.4,0.6-2.1,0.6c-0.8,0-1.5-0.3-2-0.8c-0.5-0.7-0.8-1.5-0.7-2.3c0-0.8,0.2-1.6,0.8-2.3c0.5-0.6,1.2-0.9,2-0.9
				c0.7,0,1.4,0.2,1.8,0.8c0.5,0.6,0.7,1.4,0.6,2.1L212.4,77.3z M211.4,76.5c0-0.5-0.1-0.9-0.4-1.3c-0.3-0.3-0.7-0.5-1.1-0.5
				c-0.4,0-0.9,0.2-1.1,0.5c-0.3,0.3-0.5,0.8-0.6,1.3L211.4,76.5z"/>
			<path class="st8" d="M218.9,80.1h-1v-3.4c0-1.3-0.5-1.9-1.4-1.9c-0.5,0-0.9,0.2-1.2,0.5c-0.3,0.4-0.5,0.9-0.5,1.4v3.4h-1v-6h1v1
				l0,0c0.4-0.7,1.2-1.2,2-1.1c0.6,0,1.1,0.2,1.5,0.6c0.4,0.5,0.6,1.2,0.5,1.8L218.9,80.1z"/>
			<path class="st8" d="M223.4,80c-0.3,0.1-0.6,0.2-0.9,0.2c-1.1,0-1.6-0.6-1.6-1.8v-3.5h-1v-0.8h1v-1.5l1-0.3v1.8h1.5v0.8h-1.5v3.4
				c0,0.3,0,0.6,0.2,0.9c0.2,0.2,0.4,0.3,0.7,0.3c0.2,0,0.4-0.1,0.6-0.2L223.4,80z"/>
			<path class="st8" d="M225.1,72.6c-0.2,0-0.3-0.1-0.4-0.2c-0.1-0.1-0.2-0.3-0.2-0.4c0-0.2,0.1-0.3,0.2-0.4
				c0.1-0.1,0.3-0.2,0.4-0.2c0.2,0,0.3,0.1,0.4,0.2c0.1,0.1,0.2,0.3,0.2,0.4c0,0.2-0.1,0.3-0.2,0.4
				C225.4,72.5,225.2,72.6,225.1,72.6z M225.5,80.1h-1v-6h1V80.1z"/>
			<path class="st8" d="M231.6,80.1h-1v-0.9l0,0c-0.4,0.7-1.1,1.1-1.8,1.1c-0.5,0-1-0.1-1.4-0.5c-0.3-0.3-0.5-0.8-0.5-1.3
				c0-1.1,0.7-1.8,2-2l1.8-0.3c0-1-0.4-1.5-1.2-1.5c-0.7,0-1.4,0.3-2,0.7v-1c0.6-0.4,1.3-0.6,2-0.6c1.4,0,2.1,0.8,2.1,2.2
				L231.6,80.1z M230.6,77.1l-1.4,0.2c-0.4,0-0.7,0.1-1,0.3c-0.2,0.2-0.4,0.5-0.3,0.8c0,0.3,0.1,0.5,0.3,0.7
				c0.2,0.2,0.5,0.3,0.8,0.3c0.4,0,0.9-0.2,1.2-0.5c0.3-0.3,0.5-0.8,0.5-1.3L230.6,77.1z"/>
			<path class="st8" d="M234.4,80.1h-1v-8.9h1V80.1z"/>
			<path class="st8" d="M235.9,79.9v-1c0.5,0.4,1.1,0.6,1.7,0.6c0.8,0,1.3-0.3,1.3-0.8c0-0.1,0-0.3-0.1-0.4
				c-0.1-0.1-0.2-0.2-0.3-0.3c-0.1-0.1-0.3-0.2-0.4-0.2l-0.5-0.2c-0.2-0.1-0.5-0.2-0.7-0.3c-0.2-0.1-0.4-0.2-0.5-0.4
				c-0.1-0.1-0.2-0.3-0.3-0.5c-0.1-0.2-0.1-0.4-0.1-0.6c0-0.3,0.1-0.5,0.2-0.7c0.1-0.2,0.3-0.4,0.5-0.6c0.2-0.1,0.5-0.3,0.7-0.3
				c0.3-0.1,0.6-0.1,0.9-0.1c0.5,0,1,0.1,1.4,0.3v1c-0.5-0.3-1-0.4-1.5-0.4c-0.2,0-0.3,0-0.5,0.1c-0.1,0-0.3,0.1-0.4,0.2
				c-0.1,0.1-0.2,0.2-0.2,0.3c-0.1,0.1-0.1,0.2-0.1,0.3c0,0.1,0,0.3,0.1,0.4c0.1,0.1,0.2,0.2,0.3,0.3c0.1,0.1,0.3,0.2,0.4,0.2
				l0.5,0.2c0.2,0.1,0.5,0.2,0.7,0.3c0.2,0.1,0.4,0.2,0.5,0.4c0.1,0.1,0.3,0.3,0.4,0.5c0.1,0.2,0.1,0.4,0.1,0.6
				c0,0.3-0.1,0.5-0.2,0.8c-0.1,0.2-0.3,0.4-0.5,0.5c-0.2,0.2-0.5,0.3-0.8,0.3c-0.3,0.1-0.6,0.1-0.9,0.1
				C236.9,80.3,236.4,80.2,235.9,79.9z"/>
		</g>
		<g>
			<polygon class="st9" points="192.7,105.2 185.2,110.6 188.1,119.4 197.4,119.4 200.3,110.6 			"/>
			<g>
				<path class="st8" d="M211.6,116.3h-1.1l-0.9-2.3H206l-0.8,2.3h-1.1l3.2-8.4h1L211.6,116.3z M209.3,113.1l-1.3-3.6
					c-0.1-0.2-0.1-0.4-0.1-0.6l0,0c0,0.2-0.1,0.4-0.1,0.6l-1.3,3.6H209.3z"/>
				<path class="st8" d="M216.6,116.1c-0.5,0.3-1.1,0.4-1.6,0.4c-0.8,0-1.5-0.3-2.1-0.8c-0.5-0.6-0.8-1.4-0.8-2.2
					c0-0.9,0.3-1.7,0.9-2.4c0.6-0.6,1.4-0.9,2.3-0.9c0.5,0,1,0.1,1.4,0.3v1c-0.4-0.3-0.9-0.5-1.4-0.5c-0.6,0-1.1,0.2-1.5,0.7
					c-0.4,0.5-0.6,1.1-0.6,1.7c0,0.6,0.2,1.2,0.6,1.7c0.4,0.4,0.9,0.6,1.5,0.6c0.5,0,1.1-0.2,1.5-0.5L216.6,116.1z"/>
				<path class="st8" d="M222,116.1c-0.5,0.3-1.1,0.4-1.6,0.4c-0.8,0-1.5-0.3-2.1-0.8c-0.5-0.6-0.8-1.4-0.8-2.2
					c0-0.9,0.3-1.7,0.9-2.4c0.6-0.6,1.4-0.9,2.3-0.9c0.5,0,1,0.1,1.4,0.3v1c-0.4-0.3-0.9-0.5-1.4-0.5c-0.6,0-1.1,0.2-1.5,0.7
					c-0.4,0.5-0.6,1.1-0.6,1.7c0,0.6,0.2,1.2,0.6,1.7c0.4,0.4,0.9,0.6,1.5,0.6c0.5,0,1.1-0.2,1.5-0.5L222,116.1z"/>
				<path class="st8" d="M228.2,113.6h-4.2c0,0.6,0.2,1.1,0.5,1.6c0.4,0.4,0.9,0.6,1.4,0.5c0.7,0,1.3-0.2,1.9-0.7v0.9
					c-0.6,0.4-1.4,0.6-2.1,0.6c-0.8,0-1.5-0.3-2-0.8c-0.5-0.7-0.8-1.5-0.7-2.3c0-0.8,0.2-1.6,0.8-2.3c0.5-0.6,1.2-0.9,2-0.9
					c0.7,0,1.4,0.2,1.8,0.8c0.5,0.6,0.7,1.4,0.6,2.1L228.2,113.6z M227.2,112.8c0-0.5-0.1-0.9-0.4-1.3c-0.3-0.3-0.7-0.5-1.1-0.5
					c-0.4,0-0.9,0.2-1.1,0.5c-0.3,0.3-0.5,0.8-0.6,1.3L227.2,112.8z"/>
				<path class="st8" d="M229.3,116.1v-1c0.5,0.4,1.1,0.6,1.7,0.6c0.8,0,1.3-0.3,1.3-0.8c0-0.1,0-0.3-0.1-0.4
					c-0.1-0.1-0.2-0.2-0.3-0.3c-0.1-0.1-0.3-0.2-0.4-0.2l-0.5-0.2c-0.2-0.1-0.5-0.2-0.7-0.3c-0.2-0.1-0.4-0.2-0.5-0.4
					c-0.1-0.1-0.2-0.3-0.3-0.5c-0.1-0.2-0.1-0.4-0.1-0.6c0-0.3,0.1-0.5,0.2-0.7c0.1-0.2,0.3-0.4,0.5-0.6c0.2-0.1,0.5-0.3,0.7-0.3
					c0.3-0.1,0.6-0.1,0.9-0.1c0.5,0,1,0.1,1.4,0.3v1c-0.5-0.3-1-0.4-1.5-0.4c-0.2,0-0.3,0-0.5,0.1c-0.1,0-0.3,0.1-0.4,0.2
					c-0.1,0.1-0.2,0.2-0.2,0.3c-0.1,0.1-0.1,0.2-0.1,0.3c0,0.1,0,0.3,0.1,0.4c0.1,0.1,0.2,0.2,0.3,0.3c0.1,0.1,0.3,0.2,0.4,0.2
					l0.5,0.2c0.2,0.1,0.5,0.2,0.7,0.3c0.2,0.1,0.4,0.2,0.5,0.4c0.1,0.1,0.3,0.3,0.3,0.5c0.1,0.2,0.1,0.4,0.1,0.6
					c0,0.3-0.1,0.5-0.2,0.8c-0.1,0.2-0.3,0.4-0.5,0.5c-0.2,0.2-0.5,0.3-0.8,0.3c-0.3,0.1-0.6,0.1-0.9,0.1
					C230.3,116.5,229.7,116.4,229.3,116.1z"/>
				<path class="st8" d="M234.3,116.1v-1c0.5,0.4,1.1,0.6,1.7,0.6c0.9,0,1.3-0.3,1.3-0.8c0-0.1,0-0.3-0.1-0.4
					c-0.1-0.1-0.2-0.2-0.3-0.3c-0.1-0.1-0.3-0.2-0.4-0.2l-0.5-0.2c-0.2-0.1-0.5-0.2-0.7-0.3c-0.2-0.1-0.4-0.2-0.5-0.4
					c-0.1-0.1-0.2-0.3-0.3-0.5c-0.1-0.2-0.1-0.4-0.1-0.6c0-0.3,0.1-0.5,0.2-0.7c0.1-0.2,0.3-0.4,0.5-0.6c0.2-0.1,0.5-0.3,0.7-0.3
					c0.7-0.2,1.5-0.1,2.3,0.2v1c-0.5-0.3-1-0.4-1.5-0.4c-0.2,0-0.3,0-0.5,0.1c-0.1,0-0.3,0.1-0.4,0.2c-0.1,0.1-0.2,0.2-0.2,0.3
					c-0.1,0.1-0.1,0.2-0.1,0.3c0,0.1,0,0.3,0.1,0.4c0.1,0.1,0.1,0.2,0.2,0.3c0.1,0.1,0.3,0.2,0.4,0.2l0.5,0.2
					c0.2,0.1,0.5,0.2,0.7,0.3c0.2,0.1,0.4,0.2,0.5,0.4c0.1,0.1,0.3,0.3,0.3,0.5c0.1,0.2,0.1,0.4,0.1,0.6c0,0.3-0.1,0.5-0.2,0.8
					c-0.1,0.2-0.3,0.4-0.5,0.5c-0.2,0.2-0.5,0.3-0.8,0.3c-0.3,0.1-0.6,0.1-0.9,0.1C235.4,116.5,234.8,116.4,234.3,116.1z"/>
				<path class="st8" d="M245.9,116.3c-0.3,0.1-0.6,0.2-0.9,0.2c-1.1,0-1.6-0.6-1.6-1.8v-3.6h-1v-0.8h1v-1.5l1-0.3v1.8h1.5v0.8h-1.5
					v3.4c0,0.3,0,0.6,0.2,0.9c0.2,0.2,0.4,0.3,0.7,0.3c0.2,0,0.4-0.1,0.6-0.2L245.9,116.3z"/>
				<path class="st8" d="M249.5,116.5c-0.8,0-1.6-0.3-2.1-0.8c-0.5-0.6-0.8-1.4-0.8-2.2c0-0.9,0.2-1.7,0.8-2.4
					c0.6-0.6,1.4-0.9,2.2-0.8c0.8,0,1.5,0.3,2.1,0.8c1,1.4,1,3.3-0.1,4.6C251.1,116.2,250.3,116.5,249.5,116.5z M249.6,111
					c-0.6,0-1.1,0.2-1.5,0.6c-0.4,0.5-0.6,1.1-0.5,1.7c0,0.6,0.2,1.2,0.6,1.7c0.4,0.4,0.9,0.6,1.5,0.6c0.5,0,1.1-0.2,1.4-0.6
					c0.7-1.1,0.7-2.4,0-3.4C250.7,111.2,250.1,111,249.6,111L249.6,111z"/>
				<path class="st8" d="M259,116.3h-1.4l-2.6-2.9l0,0v2.9h-1v-8.9h1v5.6l0,0l2.5-2.8h1.3l-2.8,2.9L259,116.3z"/>
				<path class="st8" d="M264.5,113.6h-4.2c0,0.6,0.2,1.1,0.5,1.6c0.4,0.4,0.9,0.6,1.4,0.5c0.7,0,1.3-0.2,1.9-0.7v0.9
					c-0.6,0.4-1.4,0.6-2.1,0.6c-0.8,0-1.5-0.3-2-0.8c-0.5-0.6-0.8-1.5-0.7-2.3c0-0.8,0.3-1.6,0.8-2.3c0.5-0.6,1.2-0.9,2-0.9
					c0.7,0,1.4,0.2,1.8,0.8c0.5,0.6,0.7,1.4,0.6,2.1L264.5,113.6z M263.5,112.8c0-0.5-0.1-0.9-0.4-1.3c-0.3-0.3-0.7-0.5-1.1-0.4
					c-0.4,0-0.9,0.2-1.1,0.5c-0.3,0.3-0.5,0.8-0.6,1.3L263.5,112.8z"/>
				<path class="st8" d="M270.9,116.3h-1v-3.4c0-1.3-0.5-1.9-1.4-1.9c-0.5,0-0.9,0.2-1.2,0.5c-0.3,0.4-0.5,0.9-0.5,1.4v3.4h-1v-6h1
					v1l0,0c0.4-0.7,1.2-1.2,2-1.1c0.6,0,1.1,0.2,1.5,0.6c0.4,0.5,0.6,1.2,0.5,1.8L270.9,116.3z"/>
			</g>
			<g>
				<path class="st8" d="M210.8,126.5h-2.4v2.4h-0.8v-2.4h-2.4v-0.8h2.4v-2.4h0.8v2.4h2.4V126.5z"/>
				<path class="st8" d="M219.5,124.6c-0.2-0.1-0.5-0.2-0.7-0.2c-0.4,0-0.8,0.2-1,0.6c-0.3,0.5-0.4,1-0.4,1.6v3.1h-1v-6h1v1.2l0,0
					c0.1-0.4,0.3-0.7,0.6-1c0.4-0.3,1-0.4,1.5-0.3V124.6z"/>
				<path class="st8" d="M225.4,126.8h-4.2c0,0.6,0.2,1.1,0.5,1.5c0.4,0.4,0.9,0.6,1.4,0.5c0.7,0,1.3-0.2,1.9-0.7v0.9
					c-0.6,0.4-1.4,0.6-2.1,0.6c-0.8,0-1.5-0.3-2-0.8c-0.5-0.7-0.8-1.5-0.7-2.3c0-0.8,0.2-1.7,0.8-2.3c0.5-0.6,1.2-0.9,2-0.9
					c0.7,0,1.4,0.2,1.8,0.8c0.5,0.6,0.7,1.4,0.6,2.1L225.4,126.8z M224.4,126c0-0.5-0.1-0.9-0.4-1.3c-0.3-0.3-0.7-0.5-1.1-0.5
					c-0.4,0-0.9,0.2-1.2,0.5c-0.3,0.3-0.5,0.8-0.6,1.3L224.4,126z"/>
				<path class="st8" d="M232.1,129.6h-1v-1l0,0c-0.4,0.8-1.2,1.2-2.1,1.2c-0.7,0-1.4-0.3-1.8-0.8c-0.5-0.6-0.7-1.4-0.7-2.2
					c0-0.9,0.2-1.7,0.8-2.4c0.5-0.6,1.2-0.9,2-0.9c0.7,0,1.4,0.3,1.8,1l0,0v-3.7h1L232.1,129.6z M231.1,126.9V126
					c0-0.5-0.2-0.9-0.5-1.2c-0.3-0.3-0.8-0.5-1.2-0.5c-0.5,0-1.1,0.2-1.4,0.6c-0.4,0.5-0.5,1.2-0.5,1.8c0,0.6,0.1,1.2,0.5,1.6
					c0.6,0.7,1.7,0.8,2.4,0.2c0.1,0,0.1-0.1,0.2-0.2C230.9,127.9,231.1,127.4,231.1,126.9L231.1,126.9z"/>
				<path class="st8" d="M234.4,122.1c-0.2,0-0.3-0.1-0.4-0.2c-0.1-0.1-0.2-0.3-0.2-0.4c0-0.2,0.1-0.3,0.2-0.4
					c0.1-0.1,0.3-0.2,0.4-0.2c0.3,0,0.6,0.3,0.6,0.6c0,0,0,0,0,0c0,0.2-0.1,0.3-0.2,0.4C234.7,122,234.5,122.1,234.4,122.1z
					 M234.8,129.6h-1v-6h1V129.6z"/>
				<path class="st8" d="M239.8,124.6c-0.2-0.1-0.5-0.2-0.7-0.2c-0.4,0-0.8,0.2-1,0.6c-0.3,0.5-0.4,1-0.4,1.6v3.1h-1v-6h1v1.2l0,0
					c0.1-0.4,0.3-0.7,0.6-1c0.3-0.2,0.6-0.4,0.9-0.3c0.2,0,0.4,0,0.6,0.1V124.6z"/>
				<path class="st8" d="M245.7,126.8h-4.2c0,0.6,0.2,1.1,0.5,1.5c0.4,0.4,0.9,0.6,1.4,0.5c0.7,0,1.3-0.2,1.9-0.7v0.9
					c-0.6,0.4-1.4,0.6-2.1,0.6c-0.8,0-1.5-0.3-2-0.8c-0.5-0.7-0.8-1.5-0.7-2.3c0-0.8,0.2-1.7,0.8-2.3c0.5-0.6,1.2-0.9,2-0.9
					c0.7,0,1.4,0.2,1.8,0.8c0.5,0.6,0.7,1.4,0.6,2.1L245.7,126.8z M244.7,126c0-0.5-0.1-0.9-0.4-1.3c-0.3-0.3-0.7-0.5-1.1-0.5
					c-0.4,0-0.9,0.2-1.1,0.5c-0.3,0.3-0.5,0.8-0.6,1.3L244.7,126z"/>
				<path class="st8" d="M251.3,129.3c-0.5,0.3-1.1,0.4-1.6,0.4c-0.8,0-1.5-0.3-2.1-0.8c-0.5-0.6-0.8-1.4-0.8-2.2
					c0-0.9,0.3-1.7,0.9-2.4c0.6-0.6,1.4-0.9,2.3-0.9c0.5,0,1,0.1,1.4,0.3v1c-0.4-0.3-0.9-0.5-1.4-0.5c-0.6,0-1.1,0.2-1.5,0.7
					c-0.4,0.5-0.6,1.1-0.6,1.7c0,0.6,0.2,1.2,0.6,1.7c0.4,0.4,0.9,0.6,1.5,0.6c0.5,0,1.1-0.2,1.5-0.5V129.3z"/>
				<path class="st8" d="M255.7,129.6c-0.3,0.1-0.6,0.2-0.9,0.2c-1.1,0-1.6-0.6-1.6-1.8v-3.6h-1v-0.8h1v-1.5l1-0.3v1.8h1.5v0.8h-1.5
					v3.4c0,0.3,0,0.6,0.2,0.9c0.2,0.2,0.4,0.3,0.7,0.3c0.2,0,0.4-0.1,0.6-0.2L255.7,129.6z"/>
				<path class="st8" d="M266.5,126.2c0,2.4-1.1,3.5-3.2,3.5c-2,0-3-1.1-3-3.4v-5.1h1v5.1c0,1.7,0.7,2.6,2.2,2.6s2.1-0.8,2.1-2.5
					v-5.2h1L266.5,126.2z"/>
				<path class="st8" d="M274.6,129.6h-1.2l-1.4-2.3c-0.1-0.2-0.2-0.4-0.4-0.6c-0.1-0.1-0.2-0.3-0.4-0.4c-0.1-0.1-0.3-0.2-0.4-0.2
					c-0.2,0-0.3-0.1-0.5-0.1h-0.8v3.6h-1v-8.4h2.5c0.3,0,0.7,0,1,0.1c0.3,0.1,0.6,0.2,0.8,0.4c0.2,0.2,0.4,0.4,0.5,0.7
					c0.2,0.6,0.3,1.2,0.1,1.8c-0.1,0.2-0.2,0.5-0.4,0.7c-0.2,0.2-0.4,0.4-0.6,0.5c-0.2,0.1-0.5,0.2-0.8,0.3l0,0
					c0.1,0.1,0.3,0.1,0.4,0.2c0.1,0.1,0.2,0.2,0.3,0.3c0.1,0.1,0.2,0.2,0.3,0.4c0.1,0.1,0.2,0.3,0.3,0.5L274.6,129.6z M269.6,122.1
					v3.1h1.3c0.2,0,0.5,0,0.7-0.1c0.2-0.1,0.4-0.2,0.5-0.3c0.2-0.1,0.3-0.3,0.4-0.5c0.1-0.2,0.1-0.4,0.1-0.7c0-0.4-0.1-0.7-0.4-1
					c-0.4-0.3-0.8-0.4-1.3-0.4L269.6,122.1z"/>
				<path class="st8" d="M280,129.6h-4.4v-8.4h1v7.5h3.4L280,129.6z"/>
			</g>
		</g>
		<g>
			<path class="st8" d="M52.1,106.3l-2.2,8.4h-2.1l-1.4-5.4c-0.1-0.3-0.1-0.6-0.1-0.9l0,0c0,0.3-0.1,0.6-0.2,0.9l-1.4,5.4h-2.2
				l-2.2-8.4h2.1l1.2,5.6c0.1,0.3,0.1,0.7,0.1,1l0,0c0-0.3,0.1-0.7,0.2-1l1.5-5.6h2l1.4,5.6c0.1,0.3,0.1,0.6,0.1,0.9l0,0
				c0-0.3,0.1-0.6,0.1-0.9l1.2-5.6L52.1,106.3z"/>
			<path class="st8" d="M58,112.3h-3.9c0.1,0.9,0.6,1.3,1.7,1.3c0.6,0,1.2-0.2,1.7-0.5v1.3c-0.7,0.3-1.4,0.5-2.2,0.4
				c-1.5,0.2-2.9-1-3.1-2.5c0-0.2,0-0.3,0-0.5c0-0.9,0.3-1.7,0.9-2.4c0.6-0.6,1.3-0.9,2.1-0.9c0.7,0,1.5,0.2,2,0.8
				c0.5,0.6,0.8,1.3,0.7,2.1L58,112.3z M56.3,111.1c0-0.9-0.3-1.3-1-1.3c-0.3,0-0.6,0.1-0.8,0.4c-0.2,0.3-0.4,0.6-0.4,0.9H56.3z"/>
			<path class="st8" d="M61.1,114L61.1,114v0.7h-1.9v-8.9h1.9v3.8l0,0c0.4-0.7,1.2-1,2-1c0.7,0,1.4,0.3,1.8,0.8
				c0.4,0.6,0.7,1.4,0.6,2.2c0,0.9-0.2,1.7-0.7,2.4c-0.5,0.6-1.2,1-2,0.9C62.1,114.9,61.4,114.6,61.1,114z M61,111.5v0.6
				c0,0.4,0.1,0.7,0.3,1c0.2,0.2,0.5,0.4,0.9,0.4c0.4,0,0.8-0.2,1-0.5c0.3-0.4,0.4-0.9,0.3-1.4c0-0.4-0.1-0.8-0.3-1.2
				c-0.2-0.3-0.6-0.4-0.9-0.4c-0.4,0-0.7,0.1-0.9,0.4C61.2,110.7,61,111.1,61,111.5L61,111.5z"/>
			<path class="st8" d="M32.8,128.4L32.8,128.4v0.7h-1.9v-8.9h1.8v3.7l0,0c0.4-0.7,1.2-1.1,2-1.1c0.7,0,1.3,0.3,1.8,0.8
				c0.4,0.6,0.7,1.4,0.6,2.2c0,0.9-0.2,1.7-0.7,2.4c-0.5,0.6-1.2,1-2,0.9C33.8,129.3,33.2,129,32.8,128.4z M32.7,125.9v0.6
				c0,0.4,0.1,0.7,0.3,1c0.2,0.2,0.5,0.4,0.8,0.4c0.4,0,0.8-0.2,1-0.5c0.3-0.4,0.4-0.9,0.3-1.4c0-0.4-0.1-0.8-0.3-1.2
				c-0.2-0.3-0.6-0.4-0.9-0.4c-0.4,0-0.7,0.1-0.9,0.4C32.9,125.1,32.7,125.5,32.7,125.9z"/>
			<path class="st8" d="M42.3,124.8c-0.2-0.1-0.5-0.2-0.8-0.2c-0.4,0-0.7,0.1-0.9,0.4c-0.2,0.4-0.4,0.8-0.3,1.2v2.9h-1.9v-6h1.9v1.1
				l0,0c0.2-0.7,0.8-1.3,1.6-1.3c0.2,0,0.3,0,0.5,0.1V124.8z"/>
			<path class="st8" d="M46.1,129.3c-0.9,0-1.7-0.3-2.4-0.8c-1.2-1.3-1.2-3.3,0-4.6c0.7-0.6,1.5-0.9,2.4-0.8c0.9,0,1.7,0.3,2.3,0.8
				c0.6,0.6,0.9,1.4,0.8,2.2c0,0.9-0.3,1.7-0.9,2.4C47.8,129,47,129.3,46.1,129.3z M46.1,124.4c-0.4,0-0.8,0.2-1,0.5
				c-0.3,0.4-0.4,0.8-0.4,1.3c0,1.2,0.5,1.7,1.4,1.7s1.3-0.6,1.3-1.8S47,124.4,46.1,124.4L46.1,124.4z"/>
			<path class="st8" d="M59.1,123.1l-1.7,6h-2l-0.9-3.5c-0.1-0.3-0.1-0.5-0.1-0.8l0,0c0,0.2-0.1,0.5-0.1,0.7l-1,3.5h-1.9l-1.7-6h1.9
				l0.8,3.9c0,0.2,0.1,0.4,0.1,0.7l0,0c0-0.2,0-0.5,0.1-0.7l1-3.9h1.8l0.9,3.9c0,0.2,0.1,0.5,0.1,0.7l0,0c0-0.2,0-0.5,0.1-0.7
				l0.8-3.9L59.1,123.1z"/>
			<path class="st8" d="M59.6,129v-1.5c0.3,0.2,0.6,0.3,0.9,0.4c0.3,0.1,0.6,0.1,0.8,0.1c0.3,0,0.5,0,0.8-0.1
				c0.2-0.1,0.3-0.2,0.3-0.4c0-0.1,0-0.2-0.1-0.3c-0.1-0.1-0.2-0.2-0.3-0.2c-0.1-0.1-0.3-0.1-0.4-0.2l-0.5-0.2
				c-0.2-0.1-0.4-0.2-0.6-0.3c-0.2-0.1-0.3-0.2-0.5-0.4c-0.1-0.1-0.2-0.3-0.3-0.5c-0.1-0.2-0.1-0.4-0.1-0.6c0-0.3,0.1-0.6,0.2-0.9
				c0.1-0.2,0.4-0.4,0.6-0.6c0.3-0.2,0.5-0.3,0.8-0.3c0.3-0.1,0.7-0.1,1-0.1c0.3,0,0.5,0,0.8,0.1c0.3,0,0.5,0.1,0.8,0.2v1.4
				c-0.2-0.1-0.5-0.2-0.8-0.3c-0.3-0.1-0.5-0.1-0.8-0.1c-0.1,0-0.2,0-0.3,0c-0.1,0-0.2,0-0.3,0.1c-0.1,0-0.1,0.1-0.2,0.2
				c0,0.1-0.1,0.1-0.1,0.2c0,0.1,0,0.2,0.1,0.3c0.1,0.1,0.2,0.2,0.3,0.2c0.1,0.1,0.2,0.1,0.4,0.2l0.4,0.1c0.2,0.1,0.4,0.2,0.7,0.3
				c0.2,0.1,0.4,0.2,0.5,0.3c0.1,0.1,0.3,0.3,0.3,0.5c0.1,0.2,0.1,0.4,0.1,0.7c0,0.3-0.1,0.6-0.2,0.9c-0.2,0.3-0.4,0.5-0.6,0.6
				c-0.3,0.2-0.6,0.3-0.9,0.3c-0.3,0.1-0.7,0.1-1,0.1C60.9,129.3,60.2,129.2,59.6,129z"/>
			<path class="st8" d="M70.7,126.7h-3.9c0.1,0.9,0.6,1.3,1.6,1.3c0.6,0,1.2-0.2,1.8-0.5v1.3c-0.7,0.3-1.4,0.5-2.2,0.4
				c-1.5,0.1-2.9-1-3.1-2.5c0-0.2,0-0.3,0-0.5c0-0.9,0.3-1.7,0.9-2.4c0.6-0.6,1.3-0.9,2.2-0.9c0.7,0,1.5,0.2,2,0.8
				c0.5,0.6,0.8,1.3,0.7,2.1V126.7z M69,125.5c0-0.9-0.3-1.3-1.1-1.3c-0.3,0-0.6,0.1-0.8,0.4c-0.2,0.3-0.4,0.6-0.4,0.9H69z"/>
			<path class="st8" d="M75.8,124.8c-0.2-0.1-0.5-0.2-0.8-0.2c-0.4,0-0.8,0.1-1,0.4c-0.2,0.4-0.4,0.8-0.3,1.2v2.9h-1.8v-6h1.8v1.1
				l0,0c0.2-0.8,0.8-1.3,1.6-1.3c0.2,0,0.3,0,0.5,0.1V124.8z"/>
		</g>
		<g>
			<polygon class="st9" points="191.7,150.9 184.2,156.3 187.1,165.1 196.4,165.1 199.3,156.3 			"/>
			<g>
				<path class="st8" d="M211.6,162.4h-1.1l-0.9-2.4h-3.6l-0.8,2.4h-1.1l3.2-8.4h1L211.6,162.4z M209.3,159.2l-1.3-3.6
					c-0.1-0.2-0.1-0.4-0.1-0.6l0,0c0,0.2-0.1,0.4-0.1,0.6l-1.3,3.6L209.3,159.2z"/>
				<path class="st8" d="M216.7,162.1c-0.5,0.3-1.1,0.4-1.6,0.4c-0.8,0-1.5-0.3-2.1-0.8c-0.5-0.6-0.8-1.4-0.8-2.2
					c0-0.9,0.3-1.7,0.9-2.4c0.6-0.6,1.4-0.9,2.3-0.9c0.5,0,1,0.1,1.4,0.3v1c-0.4-0.3-0.9-0.5-1.4-0.5c-0.6,0-1.1,0.2-1.5,0.6
					c-0.4,0.5-0.6,1.1-0.6,1.7c0,0.6,0.2,1.2,0.6,1.7c0.4,0.4,0.9,0.6,1.5,0.6c0.5,0,1.1-0.2,1.5-0.5L216.7,162.1z"/>
				<path class="st8" d="M222.1,162.1c-0.5,0.3-1.1,0.4-1.6,0.4c-0.8,0-1.5-0.3-2.1-0.8c-0.5-0.6-0.8-1.4-0.8-2.2
					c0-0.9,0.3-1.7,0.9-2.4c0.6-0.6,1.4-0.9,2.3-0.9c0.5,0,1,0.1,1.4,0.3v1c-0.4-0.3-0.9-0.5-1.4-0.5c-0.6,0-1.1,0.2-1.5,0.6
					c-0.4,0.5-0.6,1.1-0.6,1.7c0,0.6,0.2,1.2,0.6,1.7c0.4,0.4,0.9,0.6,1.5,0.6c0.5,0,1.1-0.2,1.5-0.5L222.1,162.1z"/>
				<path class="st8" d="M228.2,159.7H224c0,0.6,0.2,1.1,0.5,1.5c0.4,0.4,0.9,0.6,1.4,0.6c0.7,0,1.3-0.2,1.9-0.7v0.9
					c-0.6,0.4-1.4,0.6-2.1,0.6c-0.8,0-1.5-0.3-2-0.8c-1-1.4-1-3.2,0.1-4.6c0.5-0.6,1.2-0.9,2-0.9c0.7,0,1.4,0.2,1.8,0.8
					c0.5,0.6,0.7,1.4,0.6,2.1L228.2,159.7z M227.2,158.8c0-0.5-0.1-0.9-0.4-1.3c-0.3-0.3-0.7-0.5-1.1-0.5c-0.4,0-0.9,0.2-1.2,0.5
					c-0.3,0.4-0.5,0.8-0.6,1.3H227.2z"/>
				<path class="st8" d="M229.3,162.2v-1c0.5,0.4,1.1,0.6,1.7,0.6c0.8,0,1.3-0.3,1.3-0.8c0-0.1,0-0.3-0.1-0.4
					c-0.1-0.1-0.2-0.2-0.3-0.3c-0.1-0.1-0.3-0.2-0.4-0.2l-0.5-0.2c-0.2-0.1-0.5-0.2-0.7-0.3c-0.2-0.1-0.4-0.2-0.5-0.4
					c-0.1-0.1-0.2-0.3-0.3-0.5c-0.1-0.2-0.1-0.4-0.1-0.6c0-0.3,0.1-0.5,0.2-0.8c0.1-0.2,0.3-0.4,0.5-0.5c0.2-0.2,0.5-0.3,0.7-0.3
					c0.3-0.1,0.6-0.1,0.9-0.1c0.5,0,1,0.1,1.4,0.3v1c-0.5-0.3-1-0.4-1.5-0.4c-0.2,0-0.3,0-0.5,0.1c-0.1,0-0.3,0.1-0.4,0.2
					c-0.1,0.1-0.2,0.2-0.2,0.3c-0.1,0.1-0.1,0.2-0.1,0.3c0,0.1,0,0.3,0.1,0.4c0.1,0.1,0.1,0.2,0.3,0.3c0.1,0.1,0.3,0.2,0.4,0.2
					l0.5,0.2c0.2,0.1,0.5,0.2,0.7,0.3c0.2,0.1,0.4,0.2,0.5,0.4c0.1,0.1,0.3,0.3,0.3,0.5c0.1,0.2,0.1,0.4,0.1,0.6
					c0,0.3-0.1,0.5-0.2,0.8c-0.1,0.2-0.3,0.4-0.5,0.5c-0.2,0.1-0.5,0.3-0.8,0.3c-0.3,0.1-0.6,0.1-0.9,0.1
					C230.3,162.6,229.8,162.5,229.3,162.2z"/>
				<path class="st8" d="M234.4,162.2v-1c0.5,0.4,1.1,0.6,1.7,0.6c0.8,0,1.3-0.3,1.3-0.8c0-0.1,0-0.3-0.1-0.4
					c-0.1-0.1-0.2-0.2-0.3-0.3c-0.1-0.1-0.3-0.2-0.4-0.2l-0.5-0.2c-0.3-0.1-0.5-0.2-0.7-0.3c-0.2-0.1-0.4-0.2-0.5-0.4
					c-0.1-0.1-0.2-0.3-0.3-0.5c-0.1-0.2-0.1-0.4-0.1-0.6c0-0.3,0.1-0.5,0.2-0.8c0.1-0.2,0.3-0.4,0.5-0.5c0.2-0.2,0.5-0.3,0.7-0.3
					c0.3-0.1,0.6-0.1,0.9-0.1c0.5,0,1,0.1,1.4,0.3v1c-0.5-0.3-1-0.4-1.5-0.4c-0.2,0-0.3,0-0.5,0.1c-0.1,0-0.3,0.1-0.4,0.2
					c-0.1,0.1-0.2,0.2-0.2,0.3c-0.1,0.1-0.1,0.2-0.1,0.3c0,0.1,0,0.3,0.1,0.4c0.1,0.1,0.1,0.2,0.3,0.3c0.1,0.1,0.3,0.2,0.4,0.2
					l0.5,0.2c0.2,0.1,0.5,0.2,0.7,0.3c0.2,0.1,0.4,0.2,0.5,0.4c0.1,0.1,0.3,0.3,0.4,0.5c0.1,0.2,0.1,0.4,0.1,0.6
					c0,0.3-0.1,0.5-0.2,0.8c-0.1,0.2-0.3,0.4-0.5,0.5c-0.2,0.1-0.5,0.3-0.8,0.3c-0.3,0.1-0.6,0.1-0.9,0.1
					C235.4,162.6,234.9,162.5,234.4,162.2z"/>
				<path class="st8" d="M245.9,162.4c-0.3,0.1-0.6,0.2-0.9,0.2c-1.1,0-1.6-0.6-1.6-1.8v-3.6h-1v-0.8h1V155l1-0.3v1.8h1.5v0.8h-1.6
					v3.4c0,0.3,0,0.6,0.2,0.9c0.2,0.2,0.4,0.3,0.7,0.3c0.2,0,0.4-0.1,0.6-0.2L245.9,162.4z"/>
				<path class="st8" d="M249.6,162.6c-0.8,0-1.6-0.3-2.1-0.8c-0.5-0.6-0.8-1.4-0.8-2.2c-0.1-0.9,0.2-1.7,0.8-2.4
					c0.6-0.6,1.4-0.9,2.2-0.9c0.8,0,1.6,0.3,2.1,0.8c0.5,0.6,0.8,1.5,0.8,2.3c0,0.8-0.2,1.7-0.8,2.3
					C251.2,162.3,250.4,162.6,249.6,162.6z M249.6,157.1c-0.6,0-1.1,0.2-1.5,0.6c-0.4,0.5-0.6,1.1-0.5,1.7c0,0.6,0.2,1.2,0.5,1.7
					c0.4,0.4,0.9,0.6,1.5,0.6c0.5,0,1.1-0.2,1.4-0.6c0.4-0.5,0.5-1.1,0.5-1.7c0-0.6-0.1-1.2-0.5-1.7
					C250.7,157.3,250.2,157.1,249.6,157.1L249.6,157.1z"/>
				<path class="st8" d="M259,162.4h-1.4l-2.6-2.9l0,0v2.9h-1v-8.9h1v5.6l0,0l2.5-2.8h1.3l-2.8,2.9L259,162.4z"/>
				<path class="st8" d="M264.5,159.7h-4.2c0,0.6,0.2,1.1,0.5,1.5c0.4,0.4,0.9,0.6,1.4,0.6c0.7,0,1.3-0.2,1.9-0.7v0.9
					c-0.6,0.4-1.3,0.6-2.1,0.6c-0.8,0-1.5-0.3-2-0.8c-0.5-0.7-0.8-1.5-0.7-2.3c0-0.8,0.2-1.6,0.8-2.3c0.5-0.6,1.2-0.9,2-0.9
					c0.7,0,1.4,0.2,1.8,0.8c0.5,0.6,0.7,1.4,0.6,2.1L264.5,159.7z M263.5,158.8c0-0.5-0.1-0.9-0.4-1.3c-0.3-0.3-0.7-0.5-1.1-0.5
					c-0.4,0-0.9,0.2-1.2,0.5c-0.3,0.3-0.5,0.8-0.6,1.3H263.5z"/>
				<path class="st8" d="M271,162.4h-1V159c0-1.3-0.5-1.9-1.4-1.9c-0.5,0-0.9,0.2-1.2,0.5c-0.3,0.4-0.5,0.9-0.4,1.4v3.4h-1v-6h1v1
					l0,0c0.4-0.7,1.2-1.2,2-1.1c0.6,0,1.1,0.2,1.5,0.6c0.4,0.5,0.6,1.2,0.5,1.8L271,162.4z"/>
			</g>
		</g>
	</g>
</g>
<g id="bg">
	<g id="Shapes_1_">
		<rect class="st1" width="492.7" height="180"/>
		<rect x="0.5" class="st4" width="105" height="155"/>
		<rect x="370.2" y="60" class="st5" width="105" height="95"/>
		<rect x="370.2" y="0.1" class="st6" width="105" height="55"/>
		<g>
			<line class="st7" x1="105.5" y1="15" x2="364.7" y2="15"/>
			<polygon points="363.6,18.7 370.1,15 363.6,11.3 			"/>
		</g>
		<g>
			<line class="st7" x1="110.9" y1="44.9" x2="370.1" y2="44.9"/>
			<polygon points="112,48.6 105.5,44.9 112,41.1 			"/>
		</g>
		<g>
			<line class="st7" x1="105.5" y1="85.1" x2="364.7" y2="85.1"/>
			<polygon points="363.6,88.8 370.1,85.1 363.6,81.4 			"/>
		</g>
		<g>
			<line class="st7" x1="110.9" y1="135.1" x2="370.1" y2="135.1"/>
			<polygon points="112,138.8 105.5,135.1 112,131.4 			"/>
		</g>
		<g>
			<path class="st7" d="M51,155v7.5c0,4.1,4.5,7.5,10,7.5l419.1,0.8c5.5,0,10-4.5,10-10V31.5c-0.1-1.5-1.3-2.6-2.8-2.5h-6.6"/>
			<polygon points="481.8,25.3 475.3,29 481.8,32.7 			"/>
		</g>
		
			<use xlink:href="#New_Symbol_45"  width="20" height="20" x="-10" y="-10" transform="matrix(1 0 0 1 169.06 170)" style="overflow:visible;"/>
		
			<use xlink:href="#New_Symbol_44"  width="20" height="20" x="-10" y="-10" transform="matrix(1 0 0 1 169.06 135.1)" style="overflow:visible;"/>
		
			<use xlink:href="#New_Symbol_43"  width="20" height="20" x="-10" y="-10" transform="matrix(1 0 0 1 169.06 85.1)" style="overflow:visible;"/>
		<path d="M80.8,38.3C74.1,29.7,63.9,24.6,53,24.6c-7.7,0-15.2,2.6-21.3,7.2c-15.3,11.7-18.2,33.7-6.5,49
			c6.6,8.6,16.9,13.7,27.7,13.7c7.7,0,15.2-2.5,21.3-7.2c15.3-11.7,18.3-33.5,6.6-48.8C80.8,38.4,80.8,38.4,80.8,38.3z M82.4,67.5
			c-1.2-0.9-3-2.3-5.3-4.1c0.8-2.1,0.5-4.5-0.8-6.4c-2.1-2.6-5.7-3.2-8.6-1.5c-3-2.8-6.4-5.9-10-9.5c10.7-5.9,18.6-5.2,19-5.1
			c0.1,0.1,0.2,0.3,0.3,0.4C82.9,48.7,84.8,58.4,82.4,67.5z M63.2,75.7c-0.2-0.9-0.6-1.7-1.1-2.4c-1.9-2.5-5.4-3.1-8-1.4
			c-2.9-1.6-5.6-3.4-8.1-5.4c-0.3-0.2-0.5-0.4-0.7-0.6c1.2-3,0.7-6.4-1.3-9c0-0.1-0.1-0.1-0.2-0.2c0.6-0.6,1.2-1.3,1.9-1.9
			c2.5-2.4,5.1-4.6,8-6.5l0,0h0.1l-0.1,0.1c3.8,3.5,7.8,6.8,11.6,9.8c-1,2.2-0.8,4.7,0.6,6.7c2.2,2.9,6.3,3.4,9.2,1.3
			c0.1-0.1,0.3-0.2,0.4-0.4c2.7,1.9,4.9,3.4,6.1,4.2c-0.9,2.4-2,4.6-3.4,6.7C76.2,77.2,70.7,77.9,63.2,75.7z M72.6,36.4
			c-7-1-14.1,0.4-20.3,3.8c-2.7-2.9-5.7-6.2-8.6-9.5c3-1,6.2-1.5,9.3-1.5C60.2,29.2,67.1,31.7,72.6,36.4z M34.5,35.5
			c1.6-1.2,3.3-2.3,5.1-3.1c2.4,3.7,5.1,7.2,8.2,10.4c-3.1,2.1-5.9,4.6-8.4,7.3c-1,1.1-1.9,2.2-2.8,3.3c-1.5,0-3,0.3-4.3,1
			c-2.4-4-3.5-8.6-3.3-13.3C30.6,38.9,32.4,37.1,34.5,35.5z M25.4,46.8c-0.1,4,1,8,3,11.4c-1.7,3.2-1.4,7.1,0.8,10l0,0
			c-0.7,2.8-1.1,5.7-1.4,8.6C21.8,67.9,20.8,56.5,25.4,46.8z M53,90.1c-7.1,0-14.1-2.5-19.5-7.1c0-3.8,0.5-7.6,1.5-11.3
			c2.4,0.4,4.9-0.1,6.9-1.5l0.8,0.6c2.7,2.1,5.6,4,8.7,5.5c-0.2,1.6,0.2,3.2,1.2,4.5c2,2.7,5.8,3.2,8.5,1.2c0.6-0.5,1.1-1,1.5-1.7
			c3.9,0.8,7.8,1.2,11.7,1.2c-0.9,0.8-1.8,1.6-2.7,2.3C66.2,87.9,59.7,90.1,53,90.1z"/>
		
			<use xlink:href="#New_Symbol_41"  width="20" height="20" x="-10" y="-10" transform="matrix(1 0 0 1 169.06 15)" style="overflow:visible;"/>
		
			<use xlink:href="#New_Symbol_42"  width="20" height="20" x="-10" y="-10" transform="matrix(1 0 0 1 169.06 44.88)" style="overflow:visible;"/>
	</g>
	<g id="Text_1_">
		<g>
			<polygon class="st9" points="192.7,105.2 185.2,110.6 188.1,119.4 197.4,119.4 200.3,110.6 			"/>
		</g>
		<g>
			<polygon class="st9" points="191.7,150.9 184.2,156.3 187.1,165.1 196.4,165.1 199.3,156.3 			"/>
		</g>
	</g>
</g>
<g id="txt">
	<g>
		<rect x="21.1" y="105.8" class="st10" width="64.5" height="30.5"/>
		<path class="st11" d="M25.6,113.2c-0.1,1-0.3,2-0.6,2.8l-0.9-0.4c0.3-0.9,0.5-1.8,0.6-2.6L25.6,113.2z M28.3,107.4
			c-0.8,1.7-1.7,3.1-2.7,4.2c0.5-0.1,1-0.2,1.4-0.3c-0.1-0.3-0.2-0.5-0.3-0.7l0.9-0.3c0.3,0.6,0.5,1.3,0.7,2.1l-0.9,0.3
			c0-0.1-0.1-0.3-0.1-0.5c-1,0.2-1.9,0.4-2.8,0.6l-0.3-0.9c0.7-0.7,1.3-1.6,1.9-2.5c-0.6,0.1-1.1,0.2-1.6,0.3l-0.2-1
			c0.7-0.8,1.3-1.9,1.8-3.3l1,0.4c-0.4,1.1-0.9,2-1.4,2.6c0.4,0,0.8-0.1,1.1-0.2c0.2-0.4,0.4-0.8,0.7-1.4L28.3,107.4z M27.1,115.4
			l-1,0.2c0-0.9-0.1-1.7-0.2-2.4l0.9-0.1C26.9,113.8,27,114.6,27.1,115.4z M28.2,115l-0.8,0.2c-0.1-0.8-0.2-1.5-0.3-2.1l0.8-0.2
			C28,113.6,28.2,114.3,28.2,115z M34.3,115c0,0.4-0.1,0.6-0.3,0.8s-0.6,0.2-1.1,0.2c-0.2,0-0.4,0-0.6,0l-0.4-1c0.4,0,0.8,0,1.2,0
			c0.1,0,0.1,0,0.2-0.1s0.1-0.1,0.1-0.1v-8h-3.9v9.3h-1v-10.3h5.9V115z M33,109.6h-3.2v-0.9h0.5c-0.1-0.5-0.3-0.9-0.5-1.3l0.9-0.2
			c0.2,0.5,0.4,1,0.5,1.6h0.2c0.2-0.4,0.4-1,0.5-1.5l0.9,0.3c-0.1,0.4-0.3,0.9-0.5,1.3H33V109.6z M33,111.7h-1.9v1.5
			c0,0,0,0.1,0.1,0.1s0.1,0.1,0.1,0.1h1.5v0.9h-1.8c-0.6,0-0.9-0.3-0.9-0.9v-1.8h-0.4v-0.9h1.3c-0.1-0.3-0.2-0.5-0.3-0.8l1-0.2
			c0.1,0.3,0.3,0.6,0.4,1H33V111.7z"/>
		<path class="st11" d="M46.6,106.7H42c-0.1,0.3-0.2,0.7-0.4,1h4v6h-5.7l0.6,0.6c-1,0.7-2.2,1.3-3.6,1.7l-0.6-0.9
			c1.3-0.3,2.4-0.8,3.4-1.5h-2.3v-6h3.1c0.1-0.3,0.3-0.6,0.4-1h-4.7v-1h10.4V106.7z M44.5,109.5v-0.8h-6v0.8H44.5z M44.5,111.2v-0.8
			h-6v0.8H44.5z M44.5,112.8v-0.8h-6v0.8H44.5z M46.6,115.2l-0.6,0.8c-0.9-0.4-2.2-0.9-3.7-1.2L43,114
			C44.4,114.3,45.7,114.7,46.6,115.2z"/>
		<path class="st11" d="M50.4,112.3c-0.4,1.4-0.8,2.6-1.4,3.8l-0.9-0.6c0.6-1.2,1-2.4,1.4-3.8L50.4,112.3z M50.5,110l-0.7,0.8
			c-0.6-0.6-1.1-1.1-1.6-1.5l0.7-0.8C49.5,109,50,109.5,50.5,110z M50.4,107l-0.8,0.8c-0.4-0.5-0.9-1-1.4-1.5l0.8-0.8
			C49.5,105.9,50,106.4,50.4,107z M55.7,110.8l-0.5,0.8c-0.2-0.1-0.4-0.3-0.7-0.4v0.6h-1v0.6h1.8v0.8h-1.8v1.5
			c0.6-0.1,1.2-0.2,2-0.3l0,0.9c-1.8,0.3-3.5,0.6-5,0.7l-0.3-0.9c0.7-0.1,1.5-0.2,2.2-0.3v-1.6h-1.7v-0.8h1.7v-0.6h-0.9v-0.4
			c-0.4,0.3-0.8,0.5-1.1,0.7l-0.6-0.7c1.2-0.8,2.2-1.5,2.7-2.3l0.9,0.3c0,0.1-0.1,0.1-0.1,0.2C54.4,110,55.1,110.4,55.7,110.8z
			 M55.5,105.8c0,1.8-0.1,2.8-0.2,3.2s-0.5,0.5-1,0.4l-0.2-0.8h0.3c0.1,0,0.1,0,0.1-0.1s0.1-0.3,0.1-0.7s0-0.8,0-1.2h-0.3
			c-0.1,1.1-0.3,2-0.7,2.7l-0.8-0.4c0.1-0.1,0.1-0.3,0.2-0.4l-0.5,0.4c-0.1-0.1-0.1-0.2-0.1-0.2c-0.5,0.3-1,0.6-1.6,0.8l-0.4-0.8
			c0.2-0.1,0.3-0.2,0.3-0.4v-2.1c0.5-0.1,1.1-0.4,1.8-0.8l0.4,0.8c-0.4,0.2-0.8,0.4-1.3,0.6v1.4c0.1-0.1,0.3-0.1,0.5-0.3
			c-0.1-0.2-0.2-0.3-0.3-0.5l0.7-0.4c0.2,0.3,0.4,0.7,0.6,1.2c0.2-0.6,0.3-1.1,0.3-1.7h-0.4v-0.8H55.5z M52.3,114.5l-0.8,0.4
			c-0.1-0.3-0.3-0.7-0.6-1l0.7-0.4C51.9,113.7,52.1,114.1,52.3,114.5z M54.2,111c-0.4-0.3-0.8-0.5-1.3-0.7c-0.2,0.3-0.5,0.5-0.7,0.7
			H54.2z M55.2,113.7c-0.1,0.3-0.3,0.5-0.5,0.8l-0.8-0.3c0.2-0.3,0.4-0.5,0.5-0.8L55.2,113.7z M56.8,113.8h-0.9v-7.5h0.9V113.8z
			 M58.4,114.7c0,0.4-0.1,0.7-0.2,0.9S57.6,116,57,116c-0.2,0-0.4,0-0.6,0l-0.3-1l1.1,0c0,0,0.1,0,0.1-0.1s0.1-0.1,0.1-0.1v-9.2h1
			V114.7z"/>
		<path class="st11" d="M70.6,114.4c-0.1,0.4-0.2,0.8-0.3,1s-0.3,0.4-0.5,0.5s-0.7,0.1-1.4,0.1c-1,0-1.6,0-1.9-0.1s-0.4-0.3-0.4-0.7
			v-0.8h-1.4c-0.2,0.5-0.5,0.9-1,1.2s-1.5,0.5-3.1,0.6l-0.4-0.9c1.1,0,1.9-0.1,2.4-0.2s0.8-0.3,0.9-0.6h-1.9v-4h7.5v4h-2v0.5
			c0,0.1,0,0.2,0.1,0.3s0.4,0.1,0.9,0.1c0.6,0,1,0,1.2-0.1s0.3-0.4,0.3-1L70.6,114.4z M65.3,106.3h-1.5v0.5H65v1.8h-1.2v0.5h1.5v0.7
			h-4.7v-4.3h4.7V106.3z M62.8,106.9v-0.5h-1.1v0.5H62.8z M64,108v-0.5h-2.4v0.5H64z M62.8,109.2v-0.5h-1.1v0.5H62.8z M68.1,111.5
			v-0.4h-5.3v0.4H68.1z M68.1,112.6v-0.4h-5.3v0.4H68.1z M68.1,113.7v-0.4h-5.3v0.4H68.1z M70.5,106.7h-3.7
			c-0.3,0.4-0.6,0.8-0.9,1.1l-0.7-0.6c0.5-0.4,0.9-1,1.2-1.8l0.9,0.3c0,0.1-0.1,0.3-0.1,0.4h3.4V106.7z M70.3,109.9h-4.7v-1.9h4.7
			V109.9z M67,109.3v-0.6h-0.5v0.6H67z M69.9,107.7h-3.3v-0.6h3.3V107.7z M68.2,109.3v-0.6h-0.4v0.6H68.2z M69.3,109.3v-0.6h-0.4
			v0.6H69.3z"/>
		<path class="st11" d="M82.8,112.3l-0.5,1c-0.1,0-0.3-0.1-0.5-0.1v2.9h-1v-0.6H79v0.6h-1v-3.7h2c-0.8-0.5-1.4-1.1-1.8-1.6h-1.4
			c-0.5,0.6-1.2,1.1-2,1.6h2.2v3.7h-1v-0.6h-1.8v0.6h-1v-2.9c-0.1,0.1-0.3,0.1-0.4,0.1l-0.5-0.9c1.3-0.4,2.3-1,3.2-1.6h-3v-0.9h3.9
			c0.2-0.2,0.3-0.5,0.5-0.8l1.1,0.1c-0.1,0.2-0.2,0.4-0.4,0.7H80c-0.2-0.1-0.4-0.3-0.7-0.4l0.8-0.5c0.3,0.2,0.6,0.4,0.9,0.6
			l-0.5,0.3h1.9v0.9h-3C80.3,111.5,81.4,112,82.8,112.3z M76.8,108.9h-3.9v-3.1h3.9V108.9z M75.8,107.9v-1.3H74v1.3H75.8z
			 M75.9,114.5v-1.3h-1.8v1.3H75.9z M81.9,108.9h-4v-3.1h4V108.9z M80.9,107.9v-1.3H79v1.3H80.9z M80.8,114.5v-1.3H79v1.3H80.8z"/>
	</g>
	<g>
		<g>
			<path class="st12" d="M188.2,60.7h-1.3v2.2c0.3-0.2,0.7-0.4,1.1-0.7l0.1,0.6c-0.4,0.3-0.8,0.6-1.2,0.8v4.2c0,0.2-0.1,0.3-0.2,0.4
				s-0.2,0.2-0.3,0.2s-0.4,0.1-0.8,0.1c-0.2,0-0.4,0-0.5,0l-0.2-0.6c0.1,0,0.5,0,1.1,0c0.1,0,0.1,0,0.2-0.1s0.1-0.1,0.1-0.2V64
				c-0.4,0.3-0.8,0.5-1.5,0.8l-0.2-0.6c0.7-0.4,1.3-0.7,1.7-1v-2.5h-1.6v-0.6h1.6V58h0.6v2.1h1.3V60.7z M195.1,67.8l-0.2,0.6h-1.6
				c-1,0-1.9-0.1-2.5-0.3s-1.2-0.7-1.6-1.4c-0.3,0.8-0.7,1.4-1.1,1.8l-0.5-0.4c0.9-1,1.4-2.2,1.4-3.6l0.6,0.1c0,0.4-0.1,0.9-0.2,1.3
				c0.4,0.9,1,1.4,1.7,1.6v-3.7H188v-0.6h6.8v0.6h-3v1.4h2.6v0.6h-2.6v1.8c0.4,0.1,0.8,0.1,1.4,0.1H195.1z M194.1,62.3h-5.2v-4h5.2
				V62.3z M193.5,60v-1.1h-4V60H193.5z M193.5,61.7v-1.2h-4v1.2H193.5z"/>
			<path class="st12" d="M200,63.5c-1,1.7-2.1,3-3.1,3.9l-0.5-0.5c1-0.9,2-2.1,3-3.8L200,63.5z M207,61.8h-4.9v6.7h-0.6v-6.7h-4.9
				v-0.6H207V61.8z M205.7,58.9h-7.9v-0.6h7.9V58.9z M207,67.1l-0.5,0.3c-0.8-1.4-1.8-2.7-2.9-3.8l0.6-0.4
				C205.5,64.7,206.4,66,207,67.1z"/>
			<path class="st12" d="M212.2,59.9h-3.7v-0.6h1.6c-0.1-0.4-0.3-0.8-0.5-1.1l0.5-0.2c0.3,0.5,0.5,0.9,0.6,1.3h1.5V59.9z M212,61.6
				h-3.2V61h3.2V61.6z M212,63.3h-3.2v-0.6h3.2V63.3z M211.8,68.2h-0.6v-0.6h-1.6v0.9H209v-4h2.8V68.2z M211.2,67v-1.9h-1.6V67
				H211.2z M213.5,64.6c-0.3,1.3-0.6,2.3-0.9,2.9l-0.6-0.2c0.4-0.8,0.7-1.8,0.9-2.8L213.5,64.6z M218.5,58.3c0,0.9-0.1,1.7-0.2,2.6
				s-0.1,1.3-0.2,1.5s-0.1,0.3-0.3,0.4s-0.3,0.2-0.5,0.3s-0.6,0.1-1.2,0l-0.2-0.6c0.4,0,0.7,0,0.8,0c0.4,0,0.7-0.1,0.8-0.3
				s0.2-1.3,0.3-3.2h-1.6c-0.2,2.4-1.3,4-3.4,4.6l-0.4-0.5c0.9-0.3,1.7-0.8,2.2-1.4c-0.4-0.5-0.9-0.9-1.5-1.3l0.4-0.4
				c0.5,0.3,1,0.7,1.4,1.2c0.4-0.6,0.6-1.4,0.6-2.3h-3v-0.6H218.5z M217.3,66.2c0,0.8-0.1,1.4-0.2,1.6s-0.3,0.4-0.4,0.5
				s-0.6,0.1-1.1,0.1c-0.5,0-0.9-0.1-1.1-0.2s-0.3-0.4-0.3-0.8v-2.9h0.6v2.9c0,0.1,0.1,0.2,0.2,0.3s0.4,0.1,0.9,0.1
				c0.4,0,0.6-0.1,0.7-0.2s0.2-0.7,0.3-1.6L217.3,66.2z M216.6,64.8l-0.4,0.4c-0.4-0.6-0.9-1.1-1.4-1.6l0.4-0.4
				C215.8,63.7,216.2,64.3,216.6,64.8z M218.9,67.1l-0.6,0.3c-0.2-0.9-0.5-1.8-0.9-2.8l0.5-0.2C218.4,65.5,218.8,66.4,218.9,67.1z"
				/>
			<path class="st12" d="M224.1,59.8h-3.6v-0.6h1.7c-0.1-0.3-0.2-0.6-0.4-1.1l0.5-0.2c0.2,0.5,0.4,1,0.5,1.3h1.3V59.8z M223.8,61.5
				h-3V61h3V61.5z M223.8,63.4h-3v-0.6h3V63.4z M223.7,68.3h-0.6v-0.7h-1.7v1h-0.6v-4h2.9V68.3z M223.1,67v-1.8h-1.7V67H223.1z
				 M227.2,58.9c0,0.1-0.2,0.6-0.7,1.5s-1.1,1.7-2.1,2.5l-0.5-0.4c0.6-0.6,1.1-1.1,1.5-1.5c-0.3-0.3-0.7-0.6-1.1-0.9l0.4-0.4
				c0.3,0.2,0.6,0.4,1,0.8c0.3-0.6,0.6-1.1,0.8-1.6h-2.2v-0.6h2.7V58.9z M230.7,68.3h-6.6v-0.6h1.9c-0.1-0.3-0.3-0.9-0.6-1.7
				l0.4-0.4h-1v-2.5h4.8v2.5h-0.8l0.4,0.4c-0.2,0.8-0.5,1.3-0.7,1.7h2V68.3z M229.1,65v-1.3h-3.5V65H229.1z M228.9,62.2h-2.9v-0.6
				h2.9V62.2z M228.8,65.6H226c0.2,0.6,0.5,1.3,0.7,2.1h1.4C228.3,67.2,228.6,66.5,228.8,65.6z M230.9,62.4l-0.4,0.5
				c-1.5-1.2-2.5-2.7-2.9-4.5l0.5-0.3c0.1,0.5,0.3,0.9,0.3,1.1c0.3-0.2,0.7-0.6,1-0.9l0.4,0.4c-0.3,0.3-0.7,0.7-1.2,1.1
				c0.2,0.3,0.3,0.6,0.4,0.8c0.3-0.2,0.7-0.6,1.1-1.1l0.4,0.3c-0.4,0.5-0.8,0.9-1.2,1.2C229.8,61.5,230.3,61.9,230.9,62.4z"/>
		</g>
	</g>
	<g>
		<g>
			<path class="st12" d="M215.3,109.4h-6.2c-0.4,0.9-1,1.7-1.6,2.5v6h-0.7v-5.2c-0.6,0.6-1.2,1.1-1.7,1.4l-0.2-0.6
				c1.5-1.2,2.7-2.5,3.5-4.2h-3.5v-0.6h3.8c0.2-0.4,0.4-0.8,0.6-1.4l0.6,0.2c-0.2,0.5-0.4,0.9-0.6,1.2h5.9V109.4z M215.3,114.7h-3
				v2.4c0,0.2-0.1,0.4-0.2,0.5s-0.2,0.3-0.4,0.3s-0.5,0.1-1.1,0.1c-0.3,0-0.6,0-0.9,0l-0.3-0.6c0.3,0,0.6,0,1,0c0.6,0,1,0,1.1-0.1
				s0.2-0.1,0.2-0.2v-2.3h-3.6v-0.6h3.6v-0.9c0.6-0.4,1.2-0.9,1.9-1.6h-4.7V111h5.6v0.6c-0.8,0.8-1.5,1.4-2.2,1.8v0.6h3V114.7z"/>
			<path class="st12" d="M222.5,108.2h-1v9.8h-0.6v-2.5c-1,0.4-2.3,0.7-3.9,1.1l-0.2-0.6l1.1-0.2v-7.6h-1.1v-0.6h5.7V108.2z
				 M220.9,110.1v-1.9h-2.4v1.9H220.9z M220.9,112.6v-1.9h-2.4v1.9H220.9z M220.9,114.9v-1.6h-2.4v2.4
				C219.2,115.4,220,115.2,220.9,114.9z M227.3,117.5l-0.4,0.5c-0.8-0.7-1.5-1.4-2.1-2.2c-0.7,0.9-1.5,1.6-2.3,2.2l-0.4-0.5
				c0.8-0.6,1.6-1.3,2.3-2.3c-1-1.7-1.6-3.7-1.8-6h-0.4v-0.6h4.6c0,2.6-0.6,4.8-1.7,6.6c0.1,0.3,0.5,0.7,0.9,1.2
				S227,117.2,227.3,117.5z M226.2,109.3h-2.9c0.1,2,0.6,3.8,1.5,5.4C225.6,113.1,226.1,111.3,226.2,109.3z"/>
			<path class="st12" d="M232.5,112.6l-0.4,0.5c-0.2-0.4-0.5-0.8-0.9-1.3v6.1h-0.6v-6.1c-0.4,1.1-0.9,2-1.4,2.8l-0.4-0.5
				c0.7-1.1,1.3-2.4,1.8-3.8h-1.6v-0.6h1.7v-2.3h0.6v2.3h1.1v0.6h-1.1v0.7C231.7,111.6,232.2,112.1,232.5,112.6z M239.3,117.4h-5.6
				v0.5h-0.6v-4c-0.3,0.3-0.6,0.6-0.9,0.9l-0.4-0.5c0.8-0.6,1.5-1.5,2-2.4l0.6,0.2c-0.1,0.2-0.3,0.5-0.4,0.7h2.1
				c-0.1-0.1-0.2-0.3-0.3-0.5l0.6-0.3c0.2,0.2,0.3,0.5,0.5,0.7h2.2v0.5h-2.5v0.8h2.2v0.5h-2.2v0.8h2.2v0.5h-2.2v0.9h2.8V117.4z
				 M235.2,109.4h-0.6v-0.5h-2.2v-0.6h2.2v-0.8h0.6V109.4z M235.4,111.7h-2.6v-2h2.6V111.7z M234.8,111.2v-0.9h-1.5v0.9H234.8z
				 M235.9,114v-0.8h-2.2v0.8H235.9z M235.9,115.4v-0.8h-2.2v0.8H235.9z M235.9,116.9V116h-2.2v0.9H235.9z M238.8,111.7h-2.6v-2h2.6
				V111.7z M239.2,108.8h-2.1v0.5h-0.6v-1.9h0.6v0.8h2.1V108.8z M238.3,111.2v-0.9h-1.5v0.9H238.3z"/>
			<path class="st12" d="M245.2,113l-0.4,0.5c-0.5-0.7-1-1.3-1.4-1.7v6.1h-0.6v-6c-0.5,1.2-1.1,2.2-1.7,3l-0.4-0.5
				c0.8-1,1.5-2.4,2.1-4.1h-1.9v-0.6h1.9v-2.4h0.6v2.4h1.4v0.6h-1.4v0.6C244.1,111.7,244.7,112.3,245.2,113z M251.3,117.5l-0.4,0.5
				c-1.3-0.6-2.4-1.2-3.2-2c-0.9,0.9-2,1.5-3.3,1.9l-0.4-0.6c1.4-0.4,2.5-1,3.3-1.8c-0.8-1.1-1.3-2.5-1.6-4.2l0.6-0.1
				c0.3,1.6,0.7,2.9,1.4,3.8c0.6-1,0.9-2.6,1-4.8h-3.3v-0.6h3.4c0-0.8,0-1.5,0-2.2h0.6c0,1,0,1.7,0,2.2h1.8v0.6h-1.9
				c0,2.4-0.4,4.2-1.1,5.3C248.9,116.3,250,117,251.3,117.5z"/>
			<path class="st12" d="M262.3,114h-2.6v2.6H259V114h-2.6v-0.8h2.6v-2.6h0.8v2.6h2.6V114z"/>
			<path class="st12" d="M215.3,130.7h-10.4v-0.6h4.9v-1h-4.3v-0.6h4.3v-1h-3.7v-3.5h3.7v-0.9h-4.6v-0.6h4.6v-1
				c-1.1,0.1-2.4,0.1-3.8,0.1l-0.2-0.5c3.3,0,6.1-0.2,8.5-0.6l0.3,0.5c-0.9,0.2-2.3,0.4-4.2,0.5v1.1h4.7v0.6h-4.7v1h3.7v3.5h-3.7v1
				h4.4v0.6h-4.4v1h4.9V130.7z M209.8,125.5v-0.9h-3.1v0.9H209.8z M209.8,127v-0.9h-3.1v0.9H209.8z M213.5,125.5v-0.9h-3.1v0.9
				H213.5z M213.5,127v-0.9h-3.1v0.9H213.5z"/>
			<path class="st12" d="M218.6,127.5c-0.4,1-0.8,1.8-1.4,2.5l-0.5-0.4c0.4-0.5,0.9-1.3,1.3-2.4L218.6,127.5z M222.3,126.6h-2.4v4.4
				h-0.6v-4.4h-2.4V126h2.4v-1.2h-2.3v-0.6h1.5c-0.1-0.4-0.3-1-0.6-1.8l0.4-0.3H217v-0.6h2.2c-0.1-0.3-0.3-0.6-0.5-0.9l0.6-0.3
				c0.2,0.3,0.4,0.6,0.6,1.1h2.1v0.6h-1l0.4,0.3c-0.1,0.4-0.4,1-0.7,1.8h1.4v0.6h-2.3v1.2h2.4V126.6z M220.9,122.1h-2.5
				c0.3,0.8,0.5,1.5,0.7,2.1h1C220.4,123.5,220.7,122.8,220.9,122.1z M221.9,128.9l-0.6,0.3c-0.2-0.5-0.5-1.1-0.8-1.7l0.5-0.3
				C221.4,127.7,221.7,128.3,221.9,128.9z M227.2,124.9h-1.3v6.1h-0.6v-6.1h-1.8c0,2.7-0.5,4.7-1.5,6.1l-0.5-0.4
				c0.5-0.8,0.9-1.6,1.1-2.4s0.3-1.9,0.3-3.2v-3.6c1.5-0.2,2.7-0.5,3.7-1l0.5,0.5c-1.1,0.5-2.3,0.8-3.6,1v2.3h3.7V124.9z"/>
			<path class="st12" d="M239.3,126.9l-0.2,0.5h-4.2c-1.4,0-2.4-0.1-2.9-0.3s-1-0.4-1.3-0.7c-0.4,0.4-0.9,0.8-1.4,1.1l-0.4-0.5
				c1-0.6,1.7-1.3,2.2-2.2h-1.9v-0.6c0.6-0.5,1.2-1,1.7-1.5h-1.9v-0.6h2.6v0.6c-0.5,0.5-1.1,1-1.6,1.5h1.6v0.6
				c-0.2,0.4-0.4,0.8-0.6,1.1c0.3,0.3,0.7,0.5,1.2,0.6s1.5,0.2,2.9,0.2H239.3z M239.2,128.8H237v1.2c0,0.3-0.1,0.5-0.3,0.7
				s-0.6,0.2-1.1,0.2h-0.8l-0.2-0.6c0.8,0,1.3,0,1.5,0s0.3-0.1,0.3-0.3v-1.3h-7.5v-0.6h7.5v-0.4h0.6v0.4h2.2V128.8z M231.2,121.7
				l-0.4,0.4c-0.5-0.4-1-0.8-1.7-1.3l0.5-0.4C230.2,120.8,230.8,121.2,231.2,121.7z M233.4,130l-0.4,0.5c-0.5-0.3-1.1-0.6-1.9-0.9
				l0.4-0.5C232.1,129.3,232.7,129.6,233.4,130z M239.2,121.9h-3.3c-0.1,0.3-0.3,0.5-0.4,0.6h3v3.7h-6.1v-3.7h2.4
				c0.2-0.2,0.3-0.4,0.4-0.6h-3.5v-0.5h7.4V121.9z M234.4,120.9l-0.5,0.3c-0.2-0.2-0.5-0.4-0.8-0.5l0.5-0.3
				C233.9,120.5,234.2,120.7,234.4,120.9z M238,123.6V123h-4.8v0.6H238z M238,124.6V124h-4.8v0.6H238z M238,125.7v-0.6h-4.8v0.6H238
				z M238,120.7c-0.3,0.2-0.5,0.4-0.9,0.5l-0.5-0.4c0.3-0.1,0.6-0.3,0.9-0.5L238,120.7z"/>
			<path class="st12" d="M250.7,130c0,0.7-0.3,1-1,1H248l-0.2-0.6h2c0.1,0,0.1,0,0.2-0.1s0.1-0.1,0.1-0.2v-7.4H242v8.3h-0.6V122h2.3
				c0.4-0.6,0.8-1.1,1-1.7l0.6,0.1c-0.2,0.5-0.5,1-0.9,1.5h6.3V130z M248.2,128.6h-4.5v-4.3h4.5V128.6z M247.6,128v-3h-3.2v3H247.6z
				"/>
			<path class="st12" d="M262.7,126.7c0,2.5-1.1,3.8-3.4,3.8c-2.2,0-3.3-1.2-3.3-3.7v-5.6h1v5.5c0,1.9,0.8,2.8,2.4,2.8
				c1.5,0,2.3-0.9,2.3-2.7v-5.6h1V126.7z"/>
			<path class="st12" d="M271.4,130.3h-1.2l-1.5-2.6c-0.3-0.5-0.6-0.9-0.9-1.1s-0.6-0.3-0.9-0.3H266v3.9h-1v-9.1h2.7
				c0.8,0,1.5,0.2,2,0.6s0.7,1,0.7,1.8c0,1.3-0.7,2.1-2,2.4v0c0.3,0.1,0.5,0.3,0.6,0.4s0.4,0.5,0.7,1L271.4,130.3z M266,122.2v3.3
				h1.5c0.6,0,1-0.2,1.3-0.5s0.5-0.8,0.5-1.3c0-0.5-0.2-0.9-0.5-1.2s-0.8-0.4-1.4-0.4H266z"/>
			<path class="st12" d="M277.3,130.3h-4.7v-9.1h1v8.2h3.7V130.3z"/>
		</g>
	</g>
	<g>
		<rect x="394.1" y="88" class="st10" width="56.5" height="41"/>
		<path class="st13" d="M403.8,97.5v-5.9c0-0.5,0-1.1,0.1-1.8h0c-0.1,0.5-0.2,0.8-0.3,1l-2.8,6.7h-0.9l-2.8-6.6
			c-0.1-0.2-0.2-0.5-0.3-1h0c0,0.5,0.1,1.2,0.1,2v5.7h-1.3v-9.1h2l2.5,6c0.2,0.5,0.3,0.9,0.4,1.2h0c0.1-0.2,0.2-0.6,0.4-1.2l2.5-6
			h1.9v9.1H403.8z"/>
		<path class="st13" d="M407.2,88.8c0-0.2,0.1-0.4,0.2-0.6s0.4-0.2,0.6-0.2c0.2,0,0.4,0.1,0.6,0.2s0.2,0.3,0.2,0.6s-0.1,0.4-0.2,0.6
			s-0.4,0.2-0.6,0.2s-0.4-0.1-0.6-0.2S407.2,89.1,407.2,88.8z M407.3,97.5v-6.5h1.4v6.5H407.3z"/>
		<path class="st13" d="M415.2,97.3c-0.5,0.3-1.1,0.4-1.8,0.4c-0.9,0-1.7-0.3-2.3-0.9s-0.9-1.4-0.9-2.3c0-1.1,0.3-1.9,0.9-2.6
			s1.5-1,2.5-1c0.6,0,1.2,0.1,1.6,0.3v1.3c-0.5-0.3-1-0.5-1.5-0.5c-0.6,0-1.1,0.2-1.5,0.6s-0.6,1-0.6,1.7c0,0.7,0.2,1.2,0.6,1.6
			s0.9,0.6,1.5,0.6c0.5,0,1.1-0.2,1.5-0.5V97.3z"/>
		<path class="st13" d="M420.4,92.4c-0.2-0.1-0.5-0.2-0.8-0.2c-0.4,0-0.8,0.2-1.1,0.6s-0.4,0.9-0.4,1.6v3.2h-1.4v-6.5h1.4v1.3h0
			c0.3-0.9,0.9-1.4,1.7-1.4c0.2,0,0.4,0,0.6,0.1V92.4z"/>
		<path class="st13" d="M420.8,94.4c0-1.1,0.3-1.9,0.9-2.5s1.4-0.9,2.5-0.9c1,0,1.8,0.3,2.3,0.9s0.9,1.4,0.9,2.4
			c0,1-0.3,1.9-0.9,2.5s-1.4,0.9-2.4,0.9c-1,0-1.8-0.3-2.4-0.9S420.8,95.4,420.8,94.4z M422.2,94.3c0,0.7,0.2,1.3,0.5,1.7
			s0.8,0.6,1.4,0.6c1.2,0,1.9-0.8,1.9-2.3c0-0.7-0.2-1.3-0.5-1.7s-0.8-0.6-1.4-0.6s-1.1,0.2-1.4,0.6S422.2,93.6,422.2,94.3z"/>
		<path class="st13" d="M428.7,96c0.6,0.4,1.2,0.6,1.9,0.6c0.9,0,1.3-0.3,1.3-0.8c0-0.2-0.1-0.4-0.3-0.5s-0.6-0.3-1.2-0.6
			c-0.7-0.3-1.1-0.5-1.3-0.8s-0.3-0.6-0.3-1.1c0-0.6,0.3-1.1,0.8-1.4s1.1-0.5,1.9-0.5c0.6,0,1.1,0.1,1.6,0.3v1.2
			c-0.5-0.3-1-0.5-1.7-0.5c-0.3,0-0.6,0.1-0.8,0.2s-0.3,0.3-0.3,0.6c0,0.2,0.1,0.4,0.2,0.5s0.5,0.3,1.1,0.5c0.7,0.3,1.2,0.5,1.4,0.8
			s0.4,0.7,0.4,1.1c0,0.6-0.3,1.1-0.8,1.4s-1.2,0.5-2,0.5c-0.7,0-1.3-0.1-1.8-0.4V96z"/>
		<path class="st13" d="M434.2,94.4c0-1.1,0.3-1.9,0.9-2.5s1.4-0.9,2.5-0.9c1,0,1.8,0.3,2.3,0.9s0.9,1.4,0.9,2.4
			c0,1-0.3,1.9-0.9,2.5s-1.4,0.9-2.4,0.9c-1,0-1.8-0.3-2.4-0.9S434.2,95.4,434.2,94.4z M435.6,94.3c0,0.7,0.2,1.3,0.5,1.7
			s0.8,0.6,1.4,0.6c1.2,0,1.9-0.8,1.9-2.3c0-0.7-0.2-1.3-0.5-1.7s-0.8-0.6-1.4-0.6s-1.1,0.2-1.4,0.6S435.6,93.6,435.6,94.3z"/>
		<path class="st13" d="M445.7,89.1c-0.2-0.1-0.5-0.2-0.7-0.2c-0.7,0-1,0.4-1,1.3v0.9h1.5v1.1h-1.5v5.4h-1.4v-5.4h-1.1v-1.1h1.1v-1
			c0-0.7,0.2-1.3,0.6-1.7s1-0.6,1.6-0.6c0.3,0,0.6,0,0.8,0.1V89.1z"/>
		<path class="st13" d="M450,97.5c-0.3,0.1-0.6,0.2-1.1,0.2c-1.2,0-1.8-0.7-1.8-2v-3.5H446v-1.1h1.1v-1.5l1.4-0.4v1.9h1.6v1.1h-1.6
			v3.3c0,0.4,0.1,0.7,0.2,0.9s0.4,0.3,0.7,0.3c0.2,0,0.5-0.1,0.7-0.2V97.5z"/>
		<path class="st13" d="M409.7,107.5c-0.4,0.5-1,1-1.6,1.5v2.9c0,0.4-0.1,0.7-0.3,0.8s-0.4,0.3-0.8,0.3s-1,0.1-2.1,0.1l-0.3-1
			c0.3,0,0.7,0,1,0c0.7,0,1.1,0,1.2-0.1s0.1-0.1,0.1-0.3v-2.1c-1.6,1.2-4.1,2.3-7.4,3.3l-0.5-0.9c2.3-0.6,4.6-1.5,6.9-2.6
			c-2,0.2-4.2,0.4-6.6,0.6l-0.3-1c0.1,0,0.5,0,1.2,0v-5.3h1.5c0.3-0.3,0.5-0.6,0.8-1.1l1.1,0.2c-0.2,0.3-0.4,0.6-0.6,0.8h4.8v4.1
			c0.3-0.2,0.6-0.6,1-1L409.7,107.5z M407.1,105.3v-0.8h-5.5v0.8H407.1z M407.1,106.9v-0.8h-5.5v0.8H407.1z M407.1,108.4v-0.6h-5.5
			v1.1C403.4,108.8,405.2,108.6,407.1,108.4z"/>
		<path class="st13" d="M415.5,103c-0.3,0.8-0.8,1.7-1.5,2.6s-1.4,1.7-2.2,2.2l-0.7-0.8c1.5-1,2.7-2.5,3.5-4.5L415.5,103z
			 M419.9,107c0,1.1,0,2.2-0.1,3.3s-0.2,1.8-0.3,2s-0.3,0.5-0.5,0.6s-0.5,0.2-0.8,0.2c-0.7,0-1.3,0-1.5,0l-0.4-1.1
			c0.6,0,1.1,0.1,1.8,0.1c0.1,0,0.3,0,0.4-0.1s0.2-0.6,0.3-1.5s0.1-1.7,0.1-2.5h-2.6c-0.3,2.4-1.6,4.1-3.8,5.2l-0.8-0.8
			c0.8-0.3,1.6-0.9,2.3-1.6s1.1-1.7,1.2-2.8h-1.9V107H419.9z M421.7,107.1l-0.7,0.9c-1.5-1.3-2.5-2.6-3-4.1H417v-1h1.8
			C419.2,104.5,420.2,105.9,421.7,107.1z"/>
		<path class="st13" d="M426.7,104.7h-3.4v-1h1.3c-0.1-0.3-0.2-0.6-0.4-0.9l1.1-0.3c0.1,0.2,0.3,0.6,0.5,1.2h0.9V104.7z
			 M426.4,112.9h-1v-0.5h-0.9v0.7h-1V109h2.9V112.9z M426.4,108.2h-2.9v-0.9h2.9V108.2z M426.4,106.4h-2.9v-0.9h2.9V106.4z
			 M425.4,111.4V110h-0.9v1.4H425.4z M433.8,111c0,0.4-0.1,0.9-0.3,1.3s-0.3,0.7-0.5,0.8s-0.3,0.1-0.4,0.1c-0.5,0-0.9-0.5-1.1-1.4
			c-0.5,0.6-1,1-1.4,1.3l-0.7-0.7c0.3-0.2,0.5-0.4,0.8-0.7h-3v-4.4h3.2v4.2c0.3-0.3,0.6-0.6,0.8-0.9c-0.1-1.1-0.2-2.4-0.2-3.8h-4.2
			V106h0.9c-0.1-0.5-0.2-0.9-0.4-1.4H427v-0.9h1.3c-0.1-0.2-0.2-0.5-0.4-0.8l1.1-0.3c0.2,0.3,0.3,0.7,0.4,1.1h1.2v0.9h-0.3
			c-0.1,0.5-0.2,0.9-0.4,1.4h1c0-1.7,0-2.8,0-3.3l1,0c0,0.9-0.1,2-0.1,3.3h1.7v0.9H432c0,1,0,1.7,0.1,2.3c0.2-0.5,0.4-1.1,0.6-1.9
			l0.9,0.4c-0.4,1.4-0.8,2.4-1.3,3.2c0.1,0.5,0.2,0.9,0.4,1.1c0.1-0.2,0.3-0.7,0.3-1.5L433.8,111z M429.4,109.2v-0.8h-1.3v0.8H429.4
			z M429.4,110.9V110h-1.3v0.9H429.4z M429.3,104.6h-1c0.1,0.4,0.3,0.9,0.4,1.4h0.3C429.1,105.5,429.3,105,429.3,104.6z
			 M433.7,105.3l-0.9,0.4c-0.1-0.7-0.3-1.4-0.6-2.2l0.8-0.4C433.3,103.7,433.5,104.4,433.7,105.3z"/>
		<path class="st13" d="M441.1,108.1c-0.1,2.4-0.2,3.9-0.5,4.3s-0.7,0.7-1.4,0.7c-0.3,0-0.6,0-1,0l-0.3-1c0.7,0,1.1,0,1.4,0
			c0.3,0,0.5-0.2,0.6-0.6s0.1-1.2,0.2-2.4h-2.3c-0.3,1.8-0.9,3.1-1.8,4l-0.8-0.7c1.2-1.2,1.8-3.1,1.8-5.7h-1v-4h5.2v4H438
			c0,0.5,0,0.9-0.1,1.3H441.1z M440,105.8v-1.9h-3v1.9H440z M443.1,111h-1.1v-7.5h1.1V111z M445.4,111.7c0,0.6-0.1,0.9-0.3,1.1
			s-0.6,0.3-1,0.3c-0.6,0-1,0-1.3,0l-0.3-1c0.4,0,0.9,0,1.5,0c0.1,0,0.2,0,0.3-0.1s0.1-0.2,0.1-0.3v-9h1.1V111.7z"/>
		<path class="st13" d="M421.6,124.4H417v3.7h-1.1v-3.7h-4.7v-1.1h4.7v-4.3h-4.4V118h9.9v1.1H417v4.3h4.7V124.4z M414.6,122.5
			l-1,0.5c-0.3-0.9-0.9-1.8-1.5-2.8l1-0.5C413.6,120.5,414.2,121.4,414.6,122.5z M420.9,120.1c-0.5,1.1-1.1,2.1-1.7,2.8l-1-0.5
			c0.6-0.7,1.1-1.6,1.7-2.8L420.9,120.1z"/>
		<path class="st13" d="M433.8,122l-0.9,0.7c-0.2-0.4-0.5-0.7-0.7-1.1c-3.1,0.4-5.9,0.6-8.6,0.7l-0.3-1c1.1-0.4,2.4-1.6,3.7-3.8
			l1.2,0.2c-0.8,1.3-1.7,2.4-2.8,3.4c1.6-0.1,3.5-0.2,5.9-0.5c-0.5-0.5-1.1-1.1-1.8-1.7l0.9-0.7C431.9,119.6,433,120.8,433.8,122z
			 M432.7,128.1h-1.1v-0.5h-6.3v0.5h-1.1v-5h8.5V128.1z M431.6,126.6v-2.3h-6.3v2.3H431.6z"/>
	</g>
	<g>
		<g>
			<path class="st11" d="M392,24.3h-1.5l-0.8-2.4h-3.6l-0.8,2.4h-1.5l3.4-9.1h1.6L392,24.3z M389.2,20.7l-1.3-3.6
				c0-0.1-0.1-0.4-0.1-0.7h0c0,0.3-0.1,0.5-0.1,0.7l-1.3,3.6H389.2z"/>
			<path class="st11" d="M392.8,22.4c0.7,0.6,1.5,0.8,2.5,0.8c1.2,0,1.8-0.4,1.8-1.2c0-0.2-0.1-0.5-0.2-0.6s-0.3-0.4-0.5-0.5
				s-0.7-0.4-1.3-0.7c-0.8-0.4-1.4-0.8-1.7-1.2s-0.5-0.9-0.5-1.4c0-0.8,0.3-1.4,0.9-1.8s1.4-0.7,2.4-0.7c0.9,0,1.6,0.1,2.1,0.3v1.4
				c-0.6-0.4-1.3-0.6-2.1-0.6c-0.5,0-1,0.1-1.3,0.3s-0.5,0.5-0.5,0.9c0,0.3,0.1,0.6,0.4,0.8s0.7,0.5,1.5,0.9
				c0.9,0.4,1.5,0.8,1.9,1.3s0.5,0.9,0.5,1.5c0,0.8-0.3,1.4-0.9,1.9s-1.4,0.7-2.5,0.7c-0.4,0-0.8,0-1.3-0.1s-0.8-0.2-1.1-0.4V22.4z"
				/>
			<path class="st11" d="M401.6,20.9v3.3h-1.4v-9.1h2.7c1,0,1.8,0.2,2.4,0.7s0.8,1.2,0.8,2.1c0,0.9-0.3,1.6-1,2.2s-1.5,0.8-2.4,0.8
				H401.6z M401.6,16.4v3.4h1c1.4,0,2-0.6,2-1.7c0-1.1-0.7-1.7-2-1.7H401.6z"/>
			<path class="st11" d="M405.2,23.6c0-0.2,0.1-0.4,0.3-0.6s0.4-0.2,0.6-0.2c0.2,0,0.4,0.1,0.6,0.2s0.3,0.4,0.3,0.6
				c0,0.2-0.1,0.4-0.2,0.6s-0.4,0.2-0.6,0.2c-0.2,0-0.4-0.1-0.6-0.2S405.2,23.8,405.2,23.6z"/>
			<path class="st11" d="M416.3,24.3h-1.6l-4.3-6.7c-0.2-0.2-0.3-0.5-0.4-0.6h0c0,0.2,0.1,0.7,0.1,1.3v6h-1.4v-9.1h1.7l4.2,6.6
				c0.2,0.3,0.3,0.5,0.4,0.7h0c0-0.3-0.1-0.7-0.1-1.3v-5.9h1.4V24.3z"/>
			<path class="st11" d="M423.6,24.3h-5v-9.1h4.8v1.2H420v2.7h3.2v1.2H420v2.8h3.6V24.3z"/>
			<path class="st11" d="M431,16.4h-2.6v7.9H427v-7.9h-2.6v-1.2h6.6V16.4z"/>
			<path class="st11" d="M446.5,15.2l-2.5,9.1h-1.6l-1.7-6.4c-0.1-0.3-0.1-0.6-0.1-1h0c0,0.4-0.1,0.7-0.2,0.9l-1.8,6.4H437l-2.6-9.1
				h1.5l1.7,6.6c0.1,0.3,0.1,0.6,0.1,1h0c0-0.3,0.1-0.6,0.2-1l1.9-6.6h1.4l1.8,6.7c0.1,0.2,0.1,0.5,0.2,0.9h0c0-0.3,0.1-0.6,0.2-0.9
				l1.6-6.7H446.5z"/>
			<path class="st11" d="M452.8,21.4h-4.5c0.1,1.3,0.7,2,2,2c0.7,0,1.4-0.2,2-0.6v1.1c-0.6,0.4-1.3,0.6-2.3,0.6
				c-1,0-1.7-0.3-2.3-0.9s-0.8-1.4-0.8-2.5c0-1,0.3-1.8,0.9-2.5s1.3-1,2.2-1c0.9,0,1.6,0.3,2,0.8s0.7,1.3,0.7,2.3V21.4z M451.4,20.4
				c0-0.6-0.1-1-0.4-1.3s-0.6-0.4-1.1-0.4c-0.4,0-0.8,0.2-1.1,0.5s-0.5,0.7-0.6,1.3H451.4z"/>
			<path class="st11" d="M455.6,23.4v0.9h-1.4v-9.6h1.4v4.2h0c0.5-0.8,1.2-1.2,2.2-1.2c0.8,0,1.5,0.3,1.9,0.9s0.7,1.4,0.7,2.3
				c0,1.1-0.3,1.9-0.8,2.6s-1.2,1-2.1,1C456.7,24.4,456,24.1,455.6,23.4L455.6,23.4z M455.6,21.6c0,0.5,0.2,0.9,0.5,1.2
				s0.7,0.5,1.2,0.5c0.6,0,1-0.2,1.3-0.7s0.5-1,0.5-1.8c0-0.7-0.1-1.2-0.4-1.5s-0.7-0.6-1.2-0.6s-0.9,0.2-1.3,0.6s-0.5,0.9-0.5,1.4
				V21.6z"/>
			<path class="st11" d="M409.5,30.4h-8.7v2.5c0.6-0.6,1.2-1.4,1.6-2.4l1,0.2c-0.2,0.5-0.5,1-0.8,1.5V36h-1v-2.5l-0.4,0.4l-0.4-1
				v2.5c0,1.4-0.3,2.7-0.9,3.8l-0.9-0.7c0.5-0.9,0.7-2.2,0.7-3.7v-5.5h4.2c-0.1-0.1-0.2-0.3-0.3-0.6l1.2-0.2
				c0.2,0.3,0.3,0.5,0.4,0.8h4.3V30.4z M402.7,36.7c-0.3,0.8-0.7,1.6-1.2,2.3l-0.9-0.6c0.5-0.7,0.9-1.4,1.1-2.1L402.7,36.7z
				 M409.4,36h-5.9v-2.4c-0.1,0.1-0.2,0.2-0.3,0.3l-0.4-1c0.7-0.7,1.2-1.5,1.6-2.4l1,0.3c-0.1,0.2-0.2,0.4-0.3,0.6h1.2
				c-0.1-0.2-0.2-0.4-0.3-0.6l1.1-0.2c0.1,0.2,0.3,0.5,0.4,0.8h1.9v0.8h-2.1v0.5h2v0.7h-2v0.5h2v0.8h-2v0.5h2.2V36z M407.7,37.8
				c-0.1,0.9-0.5,1.4-1.2,1.4l-2.4,0c-0.6,0-1-0.3-1-0.9v-1.8h1V38c0,0.1,0,0.2,0.1,0.2s0.4,0.1,0.9,0.1c0.8,0,1.2,0,1.3-0.1
				s0.1-0.2,0.2-0.3s0.1-0.3,0.1-0.4L407.7,37.8z M406.2,32.7v-0.5h-1.6l-0.1,0.1v0.4H406.2z M406.2,33.9v-0.5h-1.7v0.5H406.2z
				 M406.2,35.2v-0.5h-1.7v0.5H406.2z M406.5,37.4l-0.9,0.4c-0.2-0.4-0.5-0.8-0.9-1.3l0.9-0.4C405.9,36.5,406.2,36.9,406.5,37.4z
				 M409.6,38.3l-0.9,0.5c-0.4-0.7-0.8-1.3-1.4-2l0.9-0.5C408.6,36.8,409.1,37.4,409.6,38.3z"/>
			<path class="st11" d="M420.9,38.1c0,0.3-0.1,0.6-0.4,0.8s-0.6,0.4-1.2,0.4c-0.3,0-0.5,0-0.8,0l-0.3-1.1l1.3,0
				c0.1,0,0.2,0,0.3-0.1s0.1-0.2,0.1-0.3v-2.2h-3V39h-1v-3.4H413c-0.1,1.5-0.5,2.8-1.1,3.7l-0.9-0.6c0.3-0.5,0.6-1.2,0.8-2
				s0.3-1.6,0.3-2.4v-5.3h8.9V38.1z M415.9,31.8v-1.7h-2.8v1.7H415.9z M415.9,34.6v-1.8h-2.8v1.8H415.9z M419.9,31.8v-1.7h-3v1.7
				H419.9z M419.9,34.6v-1.8h-3v1.8H419.9z"/>
			<path class="st11" d="M427.3,34.8l-0.7,0.7c-0.2-0.4-0.4-0.8-0.7-1.2v5h-1v-4.3c-0.3,0.6-0.7,1.3-1.2,2l-0.6-1
				c0.7-0.8,1.3-1.9,1.8-3.2h-1.7v-1h1.8v-1.5c-0.6,0.1-1,0.2-1.3,0.2l-0.4-0.9c1.4-0.1,2.6-0.4,3.5-0.8l0.5,0.9
				c-0.4,0.2-0.8,0.3-1.2,0.4v1.7h1.3v1h-1.3v0.3C426.4,33.6,426.9,34.2,427.3,34.8z M433.5,39.1h-6.8v-1h2.9v-1.5h-2.5v-1h2.5v-1.2
				c-1,0.1-1.7,0.1-2.2,0.1l-0.4-0.9c2.3-0.1,4.2-0.3,5.8-0.6l0.4,0.9c-0.9,0.2-1.8,0.4-2.6,0.4v1.3h2.5v1h-2.5v1.5h2.8V39.1z
				 M432.9,32.7h-5.3v-3.6h5.3V32.7z M431.8,31.7V30h-3.1v1.6H431.8z"/>
			<path class="st11" d="M445.5,36.7c-0.1,1.7-0.6,2.6-1.5,2.6c-0.7,0-1.4-0.7-1.9-2.1s-0.8-3.2-0.9-5.5h-6.1v-1h6.1
				c0-0.8-0.1-1.5,0-2h1.1c0,0.5,0,1.1,0,2h3.2v1h-3.2c0,2.3,0.3,3.9,0.7,4.9s0.8,1.5,1,1.5c0.2,0,0.4-0.7,0.5-2.1L445.5,36.7z
				 M441.1,37.4c-2.2,0.6-4.1,0.9-5.6,1.1l-0.2-1c0.7-0.1,1.5-0.2,2.3-0.4V34h-1.9v-1h5.1v1h-2.1v2.9c1-0.2,1.8-0.4,2.4-0.6
				L441.1,37.4z M445.1,29.9l-0.8,0.7c-0.5-0.5-1-0.8-1.5-1l0.8-0.7C444.3,29.2,444.8,29.5,445.1,29.9z"/>
		</g>
	</g>
	<g>
		<path class="st12" d="M191.8,10.4h-1V6.7c0-1.4-0.5-2.1-1.5-2.1c-0.5,0-1,0.2-1.3,0.6s-0.5,0.9-0.5,1.5v3.7h-1V0.8h1V5h0
			c0.5-0.8,1.2-1.2,2.1-1.2c1.5,0,2.2,0.9,2.2,2.6V10.4z"/>
		<path class="st12" d="M196.6,10.3c-0.2,0.1-0.6,0.2-0.9,0.2c-1.1,0-1.7-0.6-1.7-1.9V4.8h-1.1V3.9h1.1V2.3l1-0.3v1.9h1.6v0.8H195
			v3.7c0,0.4,0.1,0.8,0.2,0.9s0.4,0.3,0.7,0.3c0.3,0,0.5-0.1,0.7-0.2V10.3z"/>
		<path class="st12" d="M200.9,10.3c-0.2,0.1-0.6,0.2-0.9,0.2c-1.1,0-1.7-0.6-1.7-1.9V4.8h-1.1V3.9h1.1V2.3l1-0.3v1.9h1.6v0.8h-1.6
			v3.7c0,0.4,0.1,0.8,0.2,0.9s0.4,0.3,0.7,0.3c0.3,0,0.5-0.1,0.7-0.2V10.3z"/>
		<path class="st12" d="M203.2,9.5v3.9h-1V3.9h1v1.1h0c0.5-0.9,1.3-1.3,2.2-1.3c0.8,0,1.5,0.3,2,0.9s0.7,1.4,0.7,2.3
			c0,1.1-0.3,1.9-0.8,2.6s-1.3,1-2.2,1C204.3,10.6,203.7,10.2,203.2,9.5L203.2,9.5z M203.2,7.8c0,0.5,0.2,1,0.5,1.4s0.8,0.6,1.3,0.6
			c0.6,0,1.1-0.2,1.5-0.7s0.5-1.2,0.5-2c0-0.7-0.2-1.3-0.5-1.7s-0.8-0.6-1.4-0.6c-0.6,0-1.1,0.2-1.5,0.6s-0.6,1-0.6,1.6V7.8z"/>
		<path class="st12" d="M209.3,9.1c0.6,0.4,1.2,0.6,1.9,0.6c0.9,0,1.4-0.3,1.4-0.9c0-0.3-0.1-0.5-0.3-0.7s-0.6-0.4-1.2-0.6
			c-0.7-0.3-1.2-0.6-1.4-0.8s-0.3-0.6-0.3-1c0-0.6,0.2-1,0.7-1.3s1.1-0.5,1.7-0.5c0.6,0,1.1,0.1,1.5,0.3v1c-0.5-0.3-1-0.5-1.6-0.5
			c-0.4,0-0.7,0.1-0.9,0.3s-0.4,0.4-0.4,0.7s0.1,0.5,0.2,0.6s0.5,0.3,1.1,0.6c0.7,0.3,1.2,0.6,1.5,0.9s0.4,0.6,0.4,1.1
			c0,0.6-0.2,1-0.7,1.4s-1.1,0.5-1.8,0.5c-0.7,0-1.2-0.1-1.7-0.4V9.1z"/>
		<path class="st12" d="M214.8,4.5c0-0.2,0.1-0.4,0.2-0.5s0.3-0.2,0.5-0.2c0.2,0,0.3,0.1,0.5,0.2s0.2,0.3,0.2,0.5s-0.1,0.4-0.2,0.5
			s-0.3,0.2-0.5,0.2c-0.2,0-0.3-0.1-0.5-0.2S214.8,4.7,214.8,4.5z M214.8,9.9c0-0.2,0.1-0.4,0.2-0.5s0.3-0.2,0.5-0.2
			c0.2,0,0.3,0.1,0.5,0.2s0.2,0.3,0.2,0.5c0,0.2-0.1,0.3-0.2,0.5s-0.3,0.2-0.5,0.2c-0.2,0-0.3-0.1-0.5-0.2S214.8,10.1,214.8,9.9z"/>
		<path class="st12" d="M221.9,1.3l-4.4,10.6h-0.9l4.3-10.6H221.9z"/>
		<path class="st12" d="M226.8,1.3l-4.4,10.6h-0.9l4.3-10.6H226.8z"/>
		<path class="st12" d="M232.7,3.9l-3,7.6c-0.5,1.3-1.3,2-2.2,2c-0.2,0-0.5,0-0.6-0.1v-0.9c0.2,0.1,0.4,0.1,0.6,0.1
			c0.5,0,0.9-0.3,1.2-0.9l0.5-1.3l-2.5-6.5h1.1l1.8,5.1c0,0.1,0.1,0.2,0.1,0.5h0c0-0.1,0.1-0.2,0.1-0.5l1.9-5.1H232.7z"/>
		<path class="st12" d="M233.3,7.3c0-1.1,0.3-1.9,0.9-2.5s1.4-0.9,2.4-0.9c1,0,1.7,0.3,2.2,0.9s0.8,1.4,0.8,2.5c0,1-0.3,1.8-0.9,2.5
			s-1.4,0.9-2.3,0.9c-0.9,0-1.7-0.3-2.3-0.9S233.3,8.3,233.3,7.3z M234.3,7.2c0,0.8,0.2,1.4,0.6,1.8s0.9,0.7,1.6,0.7
			c0.7,0,1.2-0.2,1.6-0.7s0.6-1.1,0.6-1.9c0-0.8-0.2-1.5-0.6-1.9s-0.9-0.7-1.6-0.7c-0.7,0-1.2,0.2-1.6,0.7S234.3,6.4,234.3,7.2z"/>
		<path class="st12" d="M246.4,10.4h-1v-1h0c-0.4,0.8-1.1,1.2-2,1.2c-1.5,0-2.3-0.9-2.3-2.8V3.9h1v3.7c0,1.4,0.5,2.1,1.6,2.1
			c0.5,0,1-0.2,1.3-0.6s0.5-0.9,0.5-1.5V3.9h1V10.4z"/>
		<path class="st12" d="M251.8,4.9c-0.2-0.1-0.4-0.2-0.8-0.2c-0.5,0-0.8,0.2-1.1,0.7s-0.4,1-0.4,1.7v3.3h-1V3.9h1v1.3h0
			c0.1-0.5,0.4-0.8,0.7-1.1s0.6-0.4,1-0.4c0.3,0,0.5,0,0.6,0.1V4.9z"/>
		<path class="st12" d="M252.5,9.1c0.6,0.4,1.2,0.6,1.9,0.6c0.9,0,1.4-0.3,1.4-0.9c0-0.3-0.1-0.5-0.3-0.7s-0.6-0.4-1.2-0.6
			c-0.7-0.3-1.2-0.6-1.4-0.8s-0.3-0.6-0.3-1c0-0.6,0.2-1,0.7-1.3s1.1-0.5,1.7-0.5c0.6,0,1.1,0.1,1.5,0.3v1c-0.5-0.3-1-0.5-1.6-0.5
			c-0.4,0-0.7,0.1-0.9,0.3s-0.4,0.4-0.4,0.7s0.1,0.5,0.2,0.6s0.5,0.3,1.1,0.6c0.7,0.3,1.2,0.6,1.5,0.9s0.4,0.6,0.4,1.1
			c0,0.6-0.2,1-0.7,1.4s-1.1,0.5-1.8,0.5c-0.7,0-1.2-0.1-1.7-0.4V9.1z"/>
		<path class="st12" d="M258.2,1.6c0-0.2,0.1-0.3,0.2-0.5s0.3-0.2,0.4-0.2c0.2,0,0.3,0.1,0.5,0.2s0.2,0.3,0.2,0.5
			c0,0.2-0.1,0.3-0.2,0.5s-0.3,0.2-0.5,0.2s-0.3-0.1-0.5-0.2S258.2,1.8,258.2,1.6z M258.3,10.4V3.9h1v6.5H258.3z"/>
		<path class="st12" d="M264.3,10.3c-0.2,0.1-0.6,0.2-0.9,0.2c-1.1,0-1.7-0.6-1.7-1.9V4.8h-1.1V3.9h1.1V2.3l1-0.3v1.9h1.6v0.8h-1.6
			v3.7c0,0.4,0.1,0.8,0.2,0.9s0.4,0.3,0.7,0.3c0.3,0,0.5-0.1,0.7-0.2V10.3z"/>
		<path class="st12" d="M270.7,7.4h-4.6c0,0.7,0.2,1.3,0.6,1.7s0.9,0.6,1.5,0.6c0.7,0,1.4-0.2,2-0.7v0.9c-0.6,0.4-1.3,0.6-2.3,0.6
			c-0.9,0-1.6-0.3-2.1-0.9S265,8.3,265,7.2c0-1,0.3-1.8,0.8-2.4s1.3-1,2.1-1c0.8,0,1.5,0.3,1.9,0.8s0.7,1.3,0.7,2.3V7.4z M269.6,6.5
			c0-0.6-0.2-1.1-0.4-1.4s-0.7-0.5-1.2-0.5c-0.5,0-0.9,0.2-1.2,0.5s-0.6,0.8-0.7,1.4H269.6z"/>
		<path class="st12" d="M271.8,9.9c0-0.2,0.1-0.4,0.2-0.5s0.3-0.2,0.5-0.2c0.2,0,0.3,0.1,0.5,0.2s0.2,0.3,0.2,0.5
			c0,0.2-0.1,0.3-0.2,0.5s-0.3,0.2-0.5,0.2c-0.2,0-0.3-0.1-0.5-0.2S271.8,10.1,271.8,9.9z"/>
		<path class="st12" d="M279.2,10.1c-0.5,0.3-1.1,0.5-1.8,0.5c-0.9,0-1.7-0.3-2.2-0.9s-0.8-1.4-0.8-2.3c0-1.1,0.3-1.9,0.9-2.6
			s1.4-1,2.4-1c0.6,0,1.1,0.1,1.5,0.3v1c-0.5-0.3-1-0.5-1.6-0.5c-0.7,0-1.2,0.2-1.6,0.7s-0.6,1.1-0.6,1.9c0,0.8,0.2,1.4,0.6,1.8
			s0.9,0.7,1.6,0.7c0.6,0,1.1-0.2,1.6-0.6V10.1z"/>
		<path class="st12" d="M280.3,7.3c0-1.1,0.3-1.9,0.9-2.5s1.4-0.9,2.4-0.9c1,0,1.7,0.3,2.2,0.9s0.8,1.4,0.8,2.5c0,1-0.3,1.8-0.9,2.5
			s-1.4,0.9-2.3,0.9c-0.9,0-1.7-0.3-2.3-0.9S280.3,8.3,280.3,7.3z M281.3,7.2c0,0.8,0.2,1.4,0.6,1.8s0.9,0.7,1.6,0.7
			c0.7,0,1.2-0.2,1.6-0.7s0.6-1.1,0.6-1.9c0-0.8-0.2-1.5-0.6-1.9s-0.9-0.7-1.6-0.7c-0.7,0-1.2,0.2-1.6,0.7S281.3,6.4,281.3,7.2z"/>
		<path class="st12" d="M297.4,10.4h-1V6.7c0-0.8-0.1-1.3-0.3-1.6s-0.6-0.5-1.1-0.5c-0.4,0-0.8,0.2-1.1,0.6s-0.5,0.9-0.5,1.5v3.7h-1
			V6.6c0-1.3-0.5-1.9-1.5-1.9c-0.5,0-0.8,0.2-1.1,0.6s-0.5,0.9-0.5,1.5v3.7h-1V3.9h1v1h0c0.5-0.8,1.1-1.2,2-1.2
			c0.4,0,0.8,0.1,1.1,0.4s0.6,0.6,0.7,1c0.5-0.9,1.2-1.4,2.2-1.4c1.4,0,2.1,0.9,2.1,2.6V10.4z"/>
	</g>
	<g>
		<path class="st12" d="M196.8,39.5h-10.4V39h4.9v-1h-4.3v-0.6h4.3v-1h-3.7v-3.5h3.7V32h-4.6v-0.6h4.6v-1c-1.1,0.1-2.4,0.1-3.8,0.1
			l-0.2-0.5c3.3,0,6.1-0.2,8.5-0.6l0.3,0.5c-0.9,0.2-2.3,0.4-4.2,0.5v1.1h4.7V32h-4.7v1h3.7v3.5h-3.7v1h4.4V38h-4.4v1h4.9V39.5z
			 M191.2,34.4v-0.9h-3.1v0.9H191.2z M191.2,35.9V35h-3.1v0.9H191.2z M195,34.4v-0.9h-3.1v0.9H195z M195,35.9V35h-3.1v0.9H195z"/>
		<path class="st12" d="M200.1,36.4c-0.4,1-0.8,1.8-1.4,2.5l-0.5-0.4c0.4-0.5,0.9-1.3,1.3-2.4L200.1,36.4z M203.8,35.4h-2.4v4.4
			h-0.6v-4.4h-2.4v-0.6h2.4v-1.2h-2.3v-0.6h1.5c-0.1-0.4-0.3-1-0.6-1.8l0.4-0.3h-1.2v-0.6h2.2c-0.1-0.3-0.3-0.6-0.5-0.9l0.6-0.3
			c0.2,0.3,0.4,0.6,0.6,1.1h2.1V31h-1l0.4,0.3c-0.1,0.4-0.4,1-0.7,1.8h1.4v0.6h-2.3v1.2h2.4V35.4z M202.4,31h-2.5
			c0.3,0.8,0.5,1.5,0.7,2.1h1C201.9,32.4,202.2,31.7,202.4,31z M203.4,37.7l-0.6,0.3c-0.2-0.5-0.5-1.1-0.8-1.7l0.5-0.3
			C202.9,36.6,203.2,37.2,203.4,37.7z M208.7,33.8h-1.3v6.1h-0.6v-6.1H205c0,2.7-0.5,4.7-1.5,6.1l-0.5-0.4c0.5-0.8,0.9-1.6,1.1-2.4
			s0.3-1.9,0.3-3.2v-3.6c1.5-0.2,2.7-0.5,3.7-1l0.5,0.5c-1.1,0.5-2.3,0.8-3.6,1v2.3h3.7V33.8z"/>
		<path class="st12" d="M220.8,35.8l-0.2,0.5h-4.2c-1.4,0-2.4-0.1-2.9-0.3s-1-0.4-1.3-0.7c-0.4,0.4-0.9,0.8-1.4,1.1l-0.4-0.5
			c1-0.6,1.7-1.3,2.2-2.2h-1.9v-0.6c0.6-0.5,1.2-1,1.7-1.5h-1.9v-0.6h2.6v0.6c-0.5,0.5-1.1,1-1.6,1.5h1.6v0.6
			c-0.2,0.4-0.4,0.8-0.6,1.1c0.3,0.3,0.7,0.5,1.2,0.6s1.5,0.2,2.9,0.2H220.8z M220.7,37.7h-2.2v1.2c0,0.3-0.1,0.5-0.3,0.7
			s-0.6,0.2-1.1,0.2h-0.8l-0.2-0.6c0.8,0,1.3,0,1.5,0s0.3-0.1,0.3-0.3v-1.3h-7.5v-0.6h7.5v-0.4h0.6v0.4h2.2V37.7z M212.8,30.6
			l-0.4,0.4c-0.5-0.4-1-0.8-1.7-1.3l0.5-0.4C211.7,29.7,212.3,30.1,212.8,30.6z M214.9,38.9l-0.4,0.5c-0.5-0.3-1.1-0.6-1.9-0.9
			l0.4-0.5C213.6,38.2,214.2,38.5,214.9,38.9z M220.7,30.8h-3.3c-0.1,0.3-0.3,0.5-0.4,0.6h3v3.7H214v-3.7h2.4
			c0.2-0.2,0.3-0.4,0.4-0.6h-3.5v-0.5h7.4V30.8z M215.9,29.8l-0.5,0.3c-0.2-0.2-0.5-0.4-0.8-0.5l0.5-0.3
			C215.4,29.4,215.7,29.6,215.9,29.8z M219.5,32.5v-0.6h-4.8v0.6H219.5z M219.5,33.5v-0.6h-4.8v0.6H219.5z M219.5,34.6V34h-4.8v0.6
			H219.5z M219.5,29.5c-0.3,0.2-0.5,0.4-0.9,0.5l-0.5-0.4c0.3-0.1,0.6-0.3,0.9-0.5L219.5,29.5z"/>
		<path class="st12" d="M232.2,38.9c0,0.7-0.3,1-1,1h-1.7l-0.2-0.6h2c0.1,0,0.1,0,0.2-0.1s0.1-0.1,0.1-0.2v-7.4h-8.1v8.3h-0.6v-8.9
			h2.3c0.4-0.6,0.8-1.1,1-1.7l0.6,0.1c-0.2,0.5-0.5,1-0.9,1.5h6.3V38.9z M229.8,37.5h-4.5v-4.3h4.5V37.5z M229.1,36.9v-3h-3.2v3
			H229.1z"/>
	</g>
	<g>
		<path class="st12" d="M215.4,154.5h-6.2c-0.4,0.9-1,1.7-1.6,2.5v6h-0.7v-5.2c-0.6,0.6-1.2,1.1-1.7,1.4l-0.2-0.6
			c1.5-1.2,2.7-2.5,3.5-4.2h-3.5v-0.6h3.8c0.2-0.4,0.4-0.8,0.6-1.4l0.6,0.2c-0.2,0.5-0.4,0.9-0.6,1.2h5.9V154.5z M215.4,159.8h-3
			v2.4c0,0.2-0.1,0.4-0.2,0.5s-0.2,0.3-0.4,0.3s-0.5,0.1-1.1,0.1c-0.3,0-0.6,0-0.9,0l-0.3-0.6c0.3,0,0.6,0,1,0c0.6,0,1,0,1.1-0.1
			s0.2-0.1,0.2-0.2v-2.3h-3.6v-0.6h3.6v-0.9c0.6-0.4,1.2-0.9,1.9-1.6H209v-0.6h5.6v0.6c-0.8,0.8-1.5,1.4-2.2,1.8v0.6h3V159.8z"/>
		<path class="st12" d="M222.5,153.3h-1v9.8h-0.6v-2.5c-1,0.4-2.3,0.7-3.9,1.1l-0.2-0.6l1.1-0.2v-7.6h-1.1v-0.6h5.7V153.3z
			 M220.9,155.2v-1.9h-2.4v1.9H220.9z M220.9,157.7v-1.9h-2.4v1.9H220.9z M220.9,160v-1.6h-2.4v2.4C219.2,160.5,220,160.3,220.9,160
			z M227.3,162.6l-0.4,0.5c-0.8-0.7-1.5-1.4-2.1-2.2c-0.7,0.9-1.5,1.6-2.3,2.2l-0.4-0.5c0.8-0.6,1.6-1.3,2.3-2.3
			c-1-1.7-1.6-3.7-1.8-6h-0.4v-0.6h4.6c0,2.6-0.6,4.8-1.7,6.6c0.1,0.3,0.5,0.7,0.9,1.2S227,162.3,227.3,162.6z M226.2,154.4h-2.9
			c0.1,2,0.6,3.8,1.5,5.4C225.6,158.2,226.1,156.5,226.2,154.4z"/>
		<path class="st12" d="M232.5,157.7l-0.4,0.5c-0.2-0.4-0.5-0.8-0.9-1.3v6.1h-0.6V157c-0.4,1.1-0.9,2-1.4,2.8l-0.4-0.5
			c0.7-1.1,1.3-2.4,1.8-3.8h-1.6v-0.6h1.7v-2.3h0.6v2.3h1.1v0.6h-1.1v0.7C231.7,156.7,232.2,157.2,232.5,157.7z M239.2,162.5h-5.6
			v0.5h-0.6v-4c-0.3,0.3-0.6,0.6-0.9,0.9l-0.4-0.5c0.8-0.6,1.5-1.5,2-2.4l0.6,0.2c-0.1,0.2-0.3,0.5-0.4,0.7h2.1
			c-0.1-0.1-0.2-0.3-0.3-0.5l0.6-0.3c0.2,0.2,0.3,0.5,0.5,0.7h2.2v0.5h-2.5v0.8h2.2v0.5h-2.2v0.8h2.2v0.5h-2.2v0.9h2.8V162.5z
			 M235.1,154.5h-0.6V154h-2.2v-0.6h2.2v-0.8h0.6V154.5z M235.4,156.8h-2.6v-2h2.6V156.8z M234.8,156.3v-0.9h-1.5v0.9H234.8z
			 M235.9,159.2v-0.8h-2.2v0.8H235.9z M235.9,160.5v-0.8h-2.2v0.8H235.9z M235.9,162v-0.9h-2.2v0.9H235.9z M238.8,156.8h-2.6v-2h2.6
			V156.8z M239.2,154h-2.1v0.5h-0.6v-1.9h0.6v0.8h2.1V154z M238.2,156.3v-0.9h-1.5v0.9H238.2z"/>
		<path class="st12" d="M245.1,158.1l-0.4,0.5c-0.5-0.7-1-1.3-1.4-1.7v6.1h-0.6v-6c-0.5,1.2-1.1,2.2-1.7,3l-0.4-0.5
			c0.8-1,1.5-2.4,2.1-4.1h-1.9v-0.6h1.9v-2.4h0.6v2.4h1.4v0.6h-1.4v0.6C244,156.8,244.6,157.5,245.1,158.1z M251.2,162.6l-0.4,0.5
			c-1.3-0.6-2.4-1.2-3.2-2c-0.9,0.9-2,1.5-3.3,1.9l-0.4-0.6c1.4-0.4,2.5-1,3.3-1.8c-0.8-1.1-1.3-2.5-1.6-4.2l0.6-0.1
			c0.3,1.6,0.7,2.9,1.4,3.8c0.6-1,0.9-2.6,1-4.8h-3.3v-0.6h3.4c0-0.8,0-1.5,0-2.2h0.6c0,1,0,1.7,0,2.2h1.8v0.6h-1.9
			c0,2.4-0.4,4.2-1.1,5.3C248.8,161.4,249.9,162.1,251.2,162.6z"/>
	</g>
</g>
</svg>
