<?xml version="1.0" encoding="utf-8"?>
<!-- Generator: Adobe Illustrator 23.0.1, SVG Export Plug-In . SVG Version: 6.00 Build 0)  -->
<svg version="1.1" xmlns="http://www.w3.org/2000/svg" xmlns:xlink="http://www.w3.org/1999/xlink" x="0px" y="0px"
	 viewBox="0 0 474.7 206.7" style="enable-background:new 0 0 474.7 206.7;" xml:space="preserve">
<style type="text/css">
	.st0{fill:#505050;}
	.st1{fill:#FFFFFF;}
	.st2{display:none;}
	.st3{display:inline;}
	.st4{fill:#EBEBEB;}
	.st5{fill:#0072C6;}
	.st6{fill:#D2D2D2;}
	.st7{fill:none;stroke:#000000;stroke-miterlimit:10;}
	.st8{fill:#EBEBEB;stroke:#000000;stroke-width:0.75;stroke-miterlimit:10;}
	.st9{fill:#80BCEB;}
	.st10{fill:#414042;}
	.st11{fill:#AAD2F2;}
	.st12{fill:#054B16;}
	.st13{fill:#FFFFFF;fill-opacity:0.15;}
	.st14{fill:#1E1E1E;}
	.st15{fill:none;}
	.st16{stroke:#000000;stroke-width:5.000000e-02;stroke-miterlimit:10;}
	.st17{fill:#1E1E1E;stroke:#1E1E1E;stroke-width:6.000000e-02;stroke-miterlimit:10;}
	.st18{fill:#FFFFFF;stroke:#FFFFFF;stroke-width:5.000000e-02;stroke-miterlimit:10;}
	.st19{fill:#0072C6;stroke:#0072C6;stroke-width:5.000000e-02;stroke-miterlimit:10;}
</style>
<symbol  id="New_Symbol_41" viewBox="-10 -10 20 20">
	<circle class="st0" cx="0" cy="0" r="10"/>
	<path class="st1" d="M1.2-4.2v8.6h-1.4v-6.9C-0.4-2.3-0.7-2.1-1-2c-0.3,0.1-0.7,0.2-1,0.3v-1.2l0.6-0.2l0.6-0.3l0.6-0.3
		C0.1-3.9,0.4-4,0.6-4.2H1.2z"/>
</symbol>
<symbol  id="New_Symbol_42" viewBox="-10 -10 20 20">
	<circle class="st0" cx="0" cy="0" r="10"/>
	<path class="st1" d="M2.5,4.4h-5.3V3.8c0-0.3,0-0.5,0.1-0.8c0.1-0.2,0.2-0.4,0.3-0.7c0.1-0.2,0.3-0.4,0.4-0.6
		c0.2-0.2,0.4-0.4,0.5-0.5l0.6-0.5c0.2-0.1,0.4-0.3,0.6-0.5S0.1,0,0.3-0.2c0.1-0.1,0.3-0.3,0.4-0.4C0.8-0.8,0.9-1,0.9-1.1
		C1-1.3,1-1.5,1-1.7c0-0.2,0-0.4-0.1-0.6C0.8-2.4,0.7-2.6,0.6-2.7C0.5-2.8,0.3-2.9,0.2-2.9C0-3-0.2-3-0.4-3c-0.4,0-0.7,0.1-1.1,0.2
		c-0.4,0.2-0.7,0.4-1,0.7v-1.3c0.2-0.1,0.3-0.2,0.5-0.3c0.2-0.1,0.4-0.2,0.6-0.2C-1.2-4-1-4-0.8-4.1c0.2,0,0.4,0,0.7,0
		c0.3,0,0.7,0,1,0.1c0.3,0.1,0.6,0.2,0.8,0.4C1.9-3.3,2.1-3,2.2-2.8c0.1,0.3,0.2,0.7,0.2,1c0,0.3,0,0.6-0.1,0.9
		C2.2-0.6,2-0.3,1.9-0.1C1.7,0.2,1.5,0.4,1.3,0.6C1.1,0.8,0.9,1,0.6,1.2l-0.7,0.5c-0.2,0.2-0.4,0.4-0.6,0.5C-0.8,2.4-1,2.6-1.1,2.8
		c-0.1,0.1-0.2,0.3-0.2,0.5l0,0h3.8V4.4z"/>
</symbol>
<symbol  id="New_Symbol_43" viewBox="-10 -10 20 20">
	<circle class="st0" cx="0" cy="0" r="10"/>
	<path class="st1" d="M-2.6,4.1V2.8c0.5,0.4,1.2,0.7,1.8,0.6c0.5,0,0.9-0.1,1.3-0.4c0.3-0.2,0.5-0.6,0.5-1c0-0.9-0.7-1.4-2.2-1.4
		h-0.7v-1.1h0.6c1.3,0,1.9-0.4,1.9-1.4S0.3-3-0.7-3c-0.6,0-1.1,0.2-1.6,0.6v-1.2C-1.7-4-1-4.1-0.3-4.1c0.6,0,1.3,0.2,1.8,0.6
		c0.4,0.3,0.7,0.9,0.7,1.4c0.1,1-0.7,1.9-1.7,2.1l0,0c0.5,0,1,0.3,1.4,0.6C2.3,1,2.5,1.5,2.5,2.1c0,0.7-0.3,1.4-0.9,1.8
		C1,4.4,0.2,4.6-0.6,4.6C-1.3,4.6-2,4.5-2.6,4.1z"/>
</symbol>
<symbol  id="New_Symbol_44" viewBox="-10 -10 20 20">
	<circle class="st0" cx="0" cy="0" r="10"/>
	<path class="st1" d="M2-4v5.4h1.3v1.1H2v1.9H0.6V2.6h-3.8V1.4c0.3-0.4,0.7-0.8,1-1.3c0.4-0.4,0.7-0.9,1-1.4s0.6-0.9,0.9-1.4
		S0.4-3.5,0.6-4L2-4z M0.7,1.4v-3.5c-0.4,0.7-0.8,1.4-1.3,2C-1,0.5-1.4,1-1.8,1.4L0.7,1.4z"/>
</symbol>
<symbol  id="New_Symbol_45" viewBox="-10 -10 20 20">
	<circle class="st0" cx="0" cy="0" r="10"/>
	<path class="st1" d="M-2.4,4.2V2.9c0.5,0.3,1.1,0.5,1.7,0.6c0.5,0,1-0.1,1.4-0.4C1,2.8,1.2,2.3,1.1,1.9C1.2,1.5,1,1,0.6,0.8
		c-0.5-0.3-1-0.4-1.5-0.4c-0.2,0-0.7,0-1.4,0.1L-2-4h4.1v1.2h-3L-1-0.7c0.3,0,0.5,0,0.7,0C0.5-0.8,1.2-0.5,1.8,0
		c0.5,0.5,0.7,1.2,0.7,1.9c0,0.8-0.3,1.5-0.8,2C1,4.4,0.2,4.6-0.6,4.6C-1.2,4.6-1.9,4.5-2.4,4.2z"/>
</symbol>
<symbol  id="New_Symbol_46" viewBox="-10 -10 20 20">
	<circle class="st0" cx="0" cy="0" r="10"/>
	<path class="st1" d="M2.9,1.7c0,0.4-0.1,0.8-0.2,1.1C2.6,3.2,2.4,3.5,2.1,3.8C1.9,4,1.6,4.2,1.2,4.4C0.9,4.5,0.5,4.6,0.1,4.6
		c-0.4,0-0.8-0.1-1.2-0.2c-0.4-0.2-0.7-0.4-0.9-0.7c-0.3-0.4-0.4-0.8-0.6-1.2c-0.1-0.5-0.2-1.1-0.2-1.7c0-0.7,0-1.4,0.2-2.1
		c0.2-0.5,0.4-1.1,0.8-1.5C-1.4-3.3-1-3.6-0.6-3.8C-0.1-4,0.4-4.1,0.9-4.1c0.3,0,0.6,0,0.9,0.1C1.9-4,2.1-4,2.3-3.9v1.2
		C2.1-2.8,1.9-2.8,1.7-2.9C1.4-3,1.2-3,0.9-3C0.6-3,0.3-2.9,0-2.8c-0.3,0.1-0.5,0.3-0.7,0.6c-0.2,0.3-0.4,0.6-0.5,1
		C-1.3-0.8-1.4-0.4-1.4,0l0,0c0.2-0.3,0.4-0.5,0.7-0.6c0.4-0.2,0.7-0.2,1.1-0.2c0.3,0,0.7,0.1,1,0.2C1.8-0.6,2-0.4,2.3-0.2
		c0.2,0.2,0.4,0.5,0.5,0.8C2.9,1,2.9,1.4,2.9,1.7z M1.5,1.8c0-0.2,0-0.4-0.1-0.7C1.4,1,1.3,0.8,1.2,0.7C1,0.5,0.9,0.4,0.7,0.3
		C0.5,0.2,0.3,0.2,0.1,0.2c-0.2,0-0.4,0-0.6,0.1C-0.7,0.4-0.8,0.5-1,0.7C-1.1,0.8-1.2,1-1.2,1.1c-0.1,0.2-0.1,0.4-0.1,0.5
		c0,0.2,0,0.4,0.1,0.6c0,0.2,0.1,0.4,0.3,0.6C-0.9,3-0.7,3.2-0.5,3.3c0.2,0.1,0.4,0.2,0.6,0.2c0.2,0,0.4,0,0.6-0.1
		C0.9,3.3,1,3.1,1.2,3c0.1-0.2,0.2-0.3,0.3-0.5C1.5,2.3,1.5,2.1,1.5,1.8z"/>
</symbol>
<g id="src" class="st2">
	<g id="Shapes" class="st3">
		<rect class="st1" width="474.7" height="206.7"/>
		<rect y="10.4" class="st4" width="105" height="155"/>
		<rect x="369.7" y="10.4" class="st5" width="105" height="115"/>
		<rect x="369.7" y="130.4" class="st6" width="105" height="70"/>
		<g>
			<line class="st7" x1="105" y1="15.4" x2="364.2" y2="15.4"/>
			<polygon points="363.1,19.1 369.5,15.4 363.1,11.7 			"/>
		</g>
		<g>
			<line class="st7" x1="110.4" y1="45.3" x2="369.5" y2="45.3"/>
			<polygon points="111.5,49 105,45.3 111.5,41.5 			"/>
		</g>
		<g>
			<line class="st7" x1="105" y1="74.9" x2="364.2" y2="74.9"/>
			<polygon points="363.1,78.7 369.5,74.9 363.1,71.2 			"/>
		</g>
		<g>
			<line class="st7" x1="110.4" y1="105.2" x2="369.5" y2="105.2"/>
			<polygon points="111.5,108.9 105,105.2 111.5,101.4 			"/>
		</g>
		<g>
			<line class="st7" x1="105" y1="154.5" x2="364.2" y2="154.5"/>
			<polygon points="363.1,158.2 369.5,154.5 363.1,150.7 			"/>
		</g>
		<g>
			<path class="st7" d="M369.5,195.4l-308.4-0.8c-5.5,0-10-4.5-10-10v-13.9"/>
			<polygon points="54.8,171.9 51.1,165.4 47.4,171.9 			"/>
		</g>
		<polygon class="st8" points="192.6,25.8 185,31.3 187.9,40.1 197.2,40.1 200.1,31.3 		"/>
		<polygon class="st8" points="192.6,86 185,91.4 187.9,100.2 197.2,100.2 200.1,91.4 		"/>
		
			<use xlink:href="#New_Symbol_46"  width="20" height="20" x="-10" y="-10" transform="matrix(1 0 0 1 168.91 195.41)" style="overflow:visible;"/>
		<g>
			<g>
				<path class="st9" d="M87.9,44.9v50.3h-70V44.9c0-2.4,1.9-4.4,4.4-4.4c0,0,0,0,0,0h61.3C85.9,40.6,87.9,42.5,87.9,44.9z"/>
				<circle cx="24.4" cy="46" r="2.2"/>
				<circle class="st10" cx="31" cy="46" r="2.2"/>
				<circle class="st10" cx="37.5" cy="46" r="2.2"/>
				<path class="st11" d="M87.9,44.9v42.7l-4.4-4.4l-2.2-27.3L55,54.8L40.8,40.6h42.7C85.9,40.6,87.9,42.5,87.9,44.9z"/>
				<rect x="21.1" y="50.4" class="st12" width="63.4" height="41.6"/>
				<path class="st1" d="M69.1,57.7H26.4v-2.1h42.7V57.7z"/>
				<polygon class="st13" points="84.6,50.4 84.6,84.3 50.7,50.4 				"/>
				<path class="st1" d="M78,58.5l-0.6-1.4c0-0.1-0.1-0.2-0.1-0.3c0-0.1,0-0.2,0-0.2l0,0c0,0.1,0,0.1,0,0.2c0,0.1,0,0.2-0.1,0.3
					l-0.6,1.3h-1.9l1.5-2.5l-1.4-2.5h1.8l0.5,1.3c0,0.2,0.1,0.3,0.1,0.5l0,0c0-0.2,0.1-0.3,0.1-0.5l0.6-1.3h1.7L78.3,56l1.5,2.5
					L78,58.5z"/>
			</g>
			<g>
				<path class="st1" d="M49.2,76.1c0.1,2.1-0.5,4.1-1.8,5.7c-1.2,1.4-3,2.1-4.8,2c-0.8,0-1.6-0.1-2.3-0.3v-3.2
					c0.6,0.4,1.4,0.6,2.1,0.6c2.3,0,3.4-1.8,3.4-5.3V62.8h3.4L49.2,76.1z"/>
				<path class="st1" d="M52.3,82.6v-3.5c0.3,0.3,0.7,0.6,1.1,0.8c0.4,0.2,0.9,0.4,1.4,0.6c0.5,0.2,1,0.3,1.5,0.4
					c0.4,0.1,0.9,0.1,1.3,0.1c1.1,0.1,2.2-0.2,3.2-0.7c0.7-0.5,1.1-1.3,1.1-2.1c0-0.4-0.1-0.9-0.3-1.3c-0.3-0.4-0.6-0.7-1-1
					c-0.5-0.3-1-0.6-1.5-0.9c-0.6-0.3-1.2-0.6-1.8-0.9s-1.3-0.8-2-1.1c-0.6-0.4-1.1-0.8-1.6-1.3c-0.4-0.5-0.8-1-1-1.6
					c-0.3-0.6-0.4-1.3-0.4-2c0-0.9,0.2-1.8,0.7-2.5c0.4-0.7,1-1.3,1.7-1.8c0.8-0.5,1.6-0.8,2.4-1c0.9-0.2,1.8-0.3,2.8-0.3
					c1.6-0.1,3.2,0.2,4.7,0.7v3.4c-1.3-0.9-2.9-1.3-4.5-1.3c-0.5,0-1,0.1-1.5,0.2c-0.5,0.1-0.9,0.2-1.4,0.5c-0.4,0.2-0.7,0.5-1,0.8
					c-0.2,0.3-0.4,0.7-0.4,1.2c0,0.4,0.1,0.8,0.3,1.2c0.2,0.4,0.5,0.7,0.8,0.9c0.4,0.3,0.9,0.6,1.3,0.8c0.5,0.3,1.2,0.6,1.8,0.9
					s1.4,0.8,2,1.2c0.6,0.4,1.2,0.9,1.7,1.4c0.5,0.5,0.9,1,1.2,1.7c0.3,0.7,0.4,1.4,0.4,2.1c0.1,1.8-0.8,3.5-2.3,4.4
					c-0.8,0.5-1.6,0.8-2.5,1c-1,0.2-2,0.3-3,0.3c-0.3,0-0.8,0-1.3-0.1s-1-0.1-1.5-0.2s-1-0.2-1.5-0.4C53,83,52.6,82.8,52.3,82.6z"/>
			</g>
		</g>
	</g>
	<g id="Text" class="st3">
		<g>
			<path class="st14" d="M28.3,111.7c0.1,0.9-0.2,1.8-0.8,2.6c-0.6,0.6-1.4,1-2.3,0.9c-0.4,0-0.9-0.1-1.3-0.2v-1.8
				c0.3,0.2,0.7,0.4,1.1,0.4c0.9,0,1.3-0.6,1.3-1.9v-5h1.9L28.3,111.7z"/>
			<path class="st14" d="M34.9,115.1h-1.8v-0.9l0,0c-0.4,0.6-1,1-1.8,1c-0.5,0-1-0.2-1.4-0.5c-0.3-0.4-0.5-0.8-0.5-1.3
				c0-1.2,0.7-1.8,2.1-2l1.6-0.2c0-0.7-0.4-1-1.1-1c-0.7,0-1.4,0.2-2,0.6v-1.4c0.3-0.2,0.7-0.3,1.1-0.3c0.4-0.1,0.8-0.2,1.2-0.2
				c1.2-0.2,2.4,0.7,2.6,1.9c0,0.2,0,0.4,0,0.6L34.9,115.1z M33.1,112.6v-0.4l-1.1,0.1c-0.6,0.1-0.9,0.4-0.9,0.8
				c0,0.2,0.1,0.4,0.2,0.5c0.2,0.1,0.4,0.2,0.6,0.2c0.3,0,0.6-0.1,0.8-0.4C33,113.3,33.1,112.9,33.1,112.6z"/>
			<path class="st14" d="M41.9,109.1l-2.2,6h-2.1l-2.1-6h2l1,3.7c0.1,0.3,0.2,0.7,0.2,1.1l0,0c0-0.3,0.1-0.7,0.2-1l1.2-3.8H41.9z"/>
			<path class="st14" d="M47.6,115.1h-1.8v-0.9l0,0c-0.4,0.6-1.1,1-1.8,1c-0.5,0-1-0.2-1.4-0.5c-0.3-0.4-0.5-0.8-0.5-1.3
				c0-1.2,0.7-1.8,2.1-2l1.6-0.2c0-0.7-0.4-1-1.1-1c-0.7,0-1.4,0.2-2,0.6v-1.4c0.3-0.2,0.7-0.3,1.1-0.3c0.4-0.1,0.7-0.1,1.1-0.2
				c1.2-0.2,2.4,0.7,2.6,1.9c0,0.2,0,0.4,0,0.6L47.6,115.1z M45.9,112.6v-0.4l-1.1,0.1c-0.6,0.1-0.9,0.3-0.9,0.8
				c0,0.2,0.1,0.4,0.2,0.5c0.2,0.1,0.4,0.2,0.6,0.2c0.3,0,0.6-0.1,0.8-0.4C45.8,113.3,45.9,112.9,45.9,112.6z"/>
			<path class="st14" d="M48.9,114.7v-1.9c0.3,0.3,0.7,0.5,1.1,0.7c0.4,0.1,0.8,0.2,1.2,0.2c0.2,0,0.4,0,0.6-0.1
				c0.2,0,0.3-0.1,0.4-0.2c0.1-0.1,0.2-0.2,0.3-0.3c0.1-0.1,0.1-0.2,0.1-0.3c0-0.2-0.1-0.3-0.2-0.4c-0.1-0.1-0.2-0.3-0.4-0.4
				c-0.2-0.1-0.4-0.2-0.6-0.3c-0.2-0.1-0.5-0.2-0.7-0.3c-0.6-0.2-1.1-0.6-1.5-1c-0.3-0.4-0.5-0.9-0.5-1.4c0-0.4,0.1-0.8,0.3-1.1
				c0.2-0.3,0.4-0.6,0.7-0.8c0.3-0.2,0.7-0.4,1.1-0.4c0.4-0.1,0.8-0.1,1.3-0.1c0.4,0,0.8,0,1.2,0.1c0.3,0,0.6,0.1,0.9,0.2v1.8
				c-0.1-0.1-0.3-0.2-0.5-0.3c-0.2-0.1-0.3-0.1-0.5-0.2c-0.2,0-0.4-0.1-0.5-0.1h-0.5c-0.2,0-0.4,0-0.6,0.1c-0.2,0-0.3,0.1-0.4,0.2
				c-0.1,0.1-0.2,0.2-0.3,0.3c-0.1,0.1-0.1,0.2-0.1,0.3c0,0.1,0,0.3,0.1,0.4c0.1,0.1,0.2,0.2,0.3,0.3c0.2,0.1,0.3,0.2,0.5,0.3
				l0.7,0.3c0.3,0.1,0.6,0.3,0.9,0.4c0.3,0.1,0.5,0.3,0.7,0.5c0.2,0.2,0.3,0.4,0.4,0.7c0.1,0.3,0.2,0.6,0.2,0.9
				c0,0.4-0.1,0.8-0.3,1.2c-0.2,0.3-0.4,0.6-0.7,0.8c-0.3,0.2-0.7,0.4-1.1,0.4c-0.4,0.1-0.9,0.1-1.3,0.1c-0.4,0-0.9,0-1.3-0.1
				C49.6,115,49.2,114.9,48.9,114.7z"/>
			<path class="st14" d="M60.4,114.8c-0.6,0.3-1.2,0.4-1.8,0.4c-0.8,0-1.6-0.3-2.2-0.8c-0.6-0.6-0.9-1.4-0.9-2.2
				c0-0.9,0.3-1.8,0.9-2.4c0.7-0.6,1.5-0.9,2.5-0.9c0.5,0,1.1,0.1,1.5,0.3v1.6c-0.4-0.3-0.8-0.4-1.3-0.4c-0.5,0-0.9,0.1-1.3,0.5
				c-0.3,0.3-0.5,0.8-0.5,1.3c0,0.5,0.1,0.9,0.5,1.3c0.3,0.3,0.8,0.5,1.2,0.4c0.5,0,1-0.2,1.3-0.4L60.4,114.8z"/>
			<path class="st14" d="M65.6,110.7c-0.2-0.1-0.5-0.2-0.8-0.2c-0.4,0-0.7,0.1-0.9,0.4c-0.2,0.4-0.4,0.8-0.3,1.2v2.9h-1.9v-6h1.9
				v1.1l0,0c0.2-0.7,0.9-1.2,1.6-1.2c0.2,0,0.3,0,0.5,0.1V110.7z"/>
			<path class="st14" d="M67.4,108.1c-0.3,0-0.6-0.1-0.8-0.3c-0.2-0.2-0.3-0.4-0.3-0.7c0-0.3,0.1-0.5,0.3-0.7
				c0.2-0.2,0.5-0.3,0.8-0.3c0.3,0,0.6,0.1,0.8,0.3c0.2,0.2,0.3,0.4,0.3,0.7c0,0.3-0.1,0.5-0.3,0.7C67.9,108,67.7,108.1,67.4,108.1z
				 M68.3,115.1h-1.9v-6h1.9V115.1z"/>
			<path class="st14" d="M71.7,114.3L71.7,114.3v3.5h-1.9V109h1.8v0.9l0,0c0.7-1.1,2.2-1.4,3.3-0.6c0.2,0.1,0.3,0.2,0.5,0.4
				c0.5,0.6,0.7,1.4,0.6,2.2c0,0.9-0.2,1.7-0.7,2.4c-0.5,0.6-1.2,0.9-2,0.9C72.7,115.2,72.1,114.9,71.7,114.3z M71.7,111.9v0.5
				c0,0.4,0.1,0.7,0.3,1c0.2,0.3,0.5,0.4,0.9,0.4c0.4,0,0.8-0.2,1-0.5c0.3-0.4,0.4-0.9,0.3-1.4c0-1.1-0.4-1.6-1.2-1.6
				c-0.4,0-0.7,0.2-0.9,0.4C71.8,111.1,71.7,111.5,71.7,111.9L71.7,111.9z"/>
			<path class="st14" d="M80.9,115c-0.4,0.2-0.8,0.2-1.2,0.2c-1.3,0-2-0.7-2-2v-2.7h-1v-1.4h1v-1.3l1.8-0.5v1.8h1.3v1.4h-1.3v2.4
				c0,0.6,0.3,0.9,0.7,0.9c0.2,0,0.4-0.1,0.6-0.2L80.9,115z"/>
			<path class="st14" d="M42.1,129.1v-1.9c0.3,0.3,0.7,0.5,1.1,0.7c0.4,0.1,0.8,0.2,1.2,0.2c0.2,0,0.4,0,0.6-0.1
				c0.2,0,0.3-0.1,0.5-0.2c0.1-0.1,0.2-0.2,0.3-0.3c0.1-0.1,0.1-0.2,0.1-0.3c0-0.2,0-0.3-0.1-0.4c-0.1-0.1-0.2-0.3-0.4-0.4
				c-0.2-0.1-0.4-0.2-0.6-0.3c-0.2-0.1-0.5-0.2-0.7-0.3c-0.6-0.2-1.1-0.6-1.5-1c-0.3-0.4-0.5-0.9-0.5-1.4c0-0.4,0.1-0.8,0.3-1.1
				c0.2-0.3,0.4-0.6,0.7-0.8c0.3-0.2,0.6-0.4,1-0.4c0.4-0.1,0.8-0.1,1.3-0.1c0.4,0,0.8,0,1.2,0.1c0.3,0,0.6,0.1,0.9,0.2v1.8
				c-0.1-0.1-0.3-0.2-0.5-0.3c-0.2-0.1-0.3-0.1-0.5-0.2c-0.2,0-0.3-0.1-0.5-0.1h-0.5c-0.2,0-0.4,0-0.6,0.1c-0.2,0-0.3,0.1-0.5,0.2
				c-0.1,0.1-0.2,0.2-0.3,0.3c-0.1,0.1-0.1,0.2-0.1,0.3c0,0.1,0,0.3,0.1,0.4c0.1,0.1,0.2,0.2,0.3,0.3c0.2,0.1,0.3,0.2,0.5,0.3
				c0.2,0.1,0.4,0.2,0.7,0.3c0.3,0.1,0.6,0.3,0.9,0.4c0.3,0.1,0.5,0.3,0.7,0.5c0.2,0.2,0.3,0.4,0.4,0.7c0.1,0.3,0.2,0.6,0.2,0.9
				c0,0.4-0.1,0.8-0.3,1.2c-0.2,0.3-0.4,0.6-0.7,0.8c-0.3,0.2-0.7,0.4-1.1,0.4c-0.4,0.1-0.8,0.1-1.3,0.1c-0.4,0-0.9,0-1.3-0.1
				C42.8,129.4,42.4,129.3,42.1,129.1z"/>
			<path class="st14" d="M51.1,126.6v2.9h-1.9V121h3c2.1,0,3.2,0.9,3.2,2.7c0,0.8-0.3,1.5-0.9,2c-0.7,0.6-1.6,0.8-2.4,0.8
				L51.1,126.6z M51.1,122.5v2.6h0.8c1,0,1.5-0.4,1.5-1.3s-0.5-1.3-1.5-1.3H51.1z"/>
			<path class="st14" d="M63.4,129.4h-2.1l-0.6-1.9h-3l-0.6,1.9h-2l3.1-8.4h2.3L63.4,129.4z M60.3,126.1l-0.9-2.8
				c-0.1-0.2-0.1-0.5-0.1-0.8l0,0c0,0.2-0.1,0.5-0.2,0.7l-0.9,2.8H60.3z"/>
		</g>
		<g>
			<path class="st14" d="M185.1,10.1V8.9c0.1,0.1,0.3,0.2,0.5,0.3c0.4,0.2,0.8,0.3,1.2,0.4c0.2,0,0.4,0.1,0.6,0.1
				c0.5,0,0.9-0.1,1.4-0.3c0.3-0.2,0.5-0.6,0.4-1c0-0.2,0-0.4-0.1-0.6c-0.1-0.2-0.2-0.3-0.4-0.5c-0.2-0.2-0.4-0.3-0.6-0.4l-0.8-0.4
				c-0.3-0.2-0.6-0.3-0.8-0.4c-0.2-0.1-0.5-0.3-0.7-0.5c-0.2-0.2-0.3-0.4-0.4-0.6c-0.1-0.3-0.2-0.5-0.2-0.8c0-0.4,0.1-0.7,0.3-1
				c0.2-0.3,0.4-0.5,0.7-0.7c0.3-0.2,0.6-0.3,0.9-0.4c1-0.2,2-0.2,2.9,0.2v1.1c-0.6-0.4-1.2-0.5-1.9-0.5c-0.2,0-0.4,0-0.6,0.1
				c-0.2,0-0.4,0.1-0.6,0.2c-0.2,0.1-0.3,0.2-0.4,0.4c-0.1,0.2-0.2,0.4-0.2,0.6c0,0.2,0,0.4,0.1,0.6c0.1,0.2,0.2,0.3,0.4,0.4
				c0.2,0.1,0.4,0.3,0.6,0.4c0.2,0.1,0.5,0.3,0.8,0.4s0.6,0.3,0.9,0.5c0.3,0.1,0.5,0.3,0.7,0.5c0.2,0.2,0.4,0.4,0.5,0.7
				c0.1,0.3,0.2,0.5,0.2,0.8c0,0.4-0.1,0.7-0.2,1.1c-0.2,0.3-0.4,0.5-0.7,0.7c-0.3,0.2-0.6,0.3-1,0.4c-0.4,0.1-0.8,0.1-1.1,0.1h-0.5
				c-0.2,0-0.4-0.1-0.6-0.1c-0.2,0-0.4-0.1-0.6-0.1C185.3,10.2,185.2,10.2,185.1,10.1z"/>
			<path class="st14" d="M192,2.9c-0.2,0-0.3-0.1-0.4-0.2c-0.1-0.1-0.2-0.3-0.2-0.5c0-0.2,0.1-0.3,0.2-0.4c0.1-0.1,0.3-0.2,0.4-0.2
				c0.2,0,0.3,0.1,0.4,0.2c0.1,0.1,0.2,0.3,0.2,0.4c0,0.2-0.1,0.3-0.2,0.4C192.3,2.8,192.2,2.9,192,2.9z M192.5,10.4h-1v-6h1V10.4z"
				/>
			<path class="st14" d="M199.5,9.9c0,2.2-1.1,3.3-3.2,3.3c-0.7,0-1.4-0.1-2-0.4v-1c0.6,0.3,1.2,0.5,1.9,0.6c1.5,0,2.2-0.8,2.2-2.4
				V9.4l0,0c-0.7,1.1-2.2,1.5-3.3,0.8c-0.2-0.1-0.4-0.3-0.5-0.4c-0.5-0.6-0.7-1.4-0.6-2.2c0-0.9,0.2-1.7,0.7-2.4
				c0.5-0.6,1.2-0.9,2-0.9c0.7,0,1.4,0.4,1.8,1l0,0V4.4h1L199.5,9.9z M198.5,7.7V6.8c0-0.5-0.2-0.9-0.5-1.2
				c-0.3-0.3-0.8-0.5-1.2-0.5c-0.5,0-1.1,0.2-1.4,0.6c-0.3,0.5-0.5,1.2-0.4,1.8c0,0.6,0.1,1.1,0.5,1.6c0.3,0.4,0.8,0.6,1.3,0.6
				c0.5,0,0.9-0.2,1.2-0.6C198.4,8.8,198.6,8.2,198.5,7.7L198.5,7.7z"/>
			<path class="st14" d="M206.3,10.4h-1V7c0-1.3-0.5-1.9-1.4-1.9c-0.5,0-0.9,0.2-1.2,0.5c-0.3,0.4-0.5,0.9-0.4,1.4v3.4h-1v-6h1v1
				l0,0c0.4-0.7,1.2-1.2,2-1.1c0.6,0,1.1,0.2,1.5,0.6c0.4,0.5,0.6,1.2,0.5,1.8L206.3,10.4z"/>
			<path class="st14" d="M211.9,2.9c-0.2,0-0.3-0.1-0.4-0.2c-0.1-0.1-0.2-0.3-0.2-0.5c0-0.2,0.1-0.3,0.2-0.4
				c0.1-0.1,0.3-0.2,0.4-0.2c0.2,0,0.3,0.1,0.4,0.2c0.1,0.1,0.2,0.3,0.2,0.4c0,0.2-0.1,0.3-0.2,0.4C212.2,2.8,212.1,2.9,211.9,2.9z
				 M212.4,10.4h-1v-6h1V10.4z"/>
			<path class="st14" d="M219.2,10.4h-1V7c0-1.3-0.5-1.9-1.4-1.9c-0.5,0-0.9,0.2-1.2,0.5c-0.3,0.4-0.5,0.9-0.4,1.4v3.4h-1v-6h1v1
				l0,0c0.4-0.7,1.2-1.2,2-1.1c0.6,0,1.1,0.2,1.5,0.6c0.4,0.5,0.6,1.2,0.5,1.8L219.2,10.4z"/>
		</g>
		<g>
			<path class="st14" d="M207.1,38.2h-1v-8.4h1V38.2z"/>
			<path class="st14" d="M209.2,38.2v-8.4h2.3c3,0,4.4,1.4,4.4,4.1c0.1,1.2-0.4,2.3-1.2,3.2c-0.9,0.8-2.1,1.2-3.3,1.2L209.2,38.2z
				 M210.2,30.6v6.6h1.3c0.9,0.1,1.9-0.3,2.6-0.9c0.6-0.7,1-1.6,0.9-2.5c0-2.1-1.1-3.2-3.4-3.2L210.2,30.6z"/>
			<path class="st14" d="M225.8,30.6h-2.4v7.5h-1v-7.5H220v-0.9h5.8L225.8,30.6z"/>
			<path class="st14" d="M228.7,38.3c-0.8,0-1.6-0.3-2.1-0.8c-0.5-0.6-0.8-1.4-0.8-2.2c-0.1-0.9,0.2-1.7,0.8-2.4
				c0.6-0.6,1.4-0.9,2.2-0.8c0.8,0,1.6,0.3,2.1,0.8c0.5,0.6,0.8,1.5,0.8,2.3c0,0.8-0.2,1.7-0.8,2.3C230.3,38,229.5,38.3,228.7,38.3z
				 M228.8,32.8c-0.6,0-1.1,0.2-1.5,0.6c-0.4,0.5-0.6,1.1-0.5,1.7c0,0.6,0.2,1.2,0.5,1.7c0.4,0.4,0.9,0.6,1.5,0.6
				c0.5,0,1.1-0.2,1.4-0.6c0.4-0.5,0.5-1.1,0.5-1.7c0-0.6-0.1-1.2-0.5-1.7C229.8,33,229.3,32.8,228.8,32.8z"/>
			<path class="st14" d="M238.1,38.2h-1.4l-2.6-2.9l0,0v2.9h-1v-8.9h1v5.6l0,0l2.5-2.7h1.3l-2.8,2.9L238.1,38.2z"/>
			<path class="st14" d="M243.6,35.4h-4.2c0,0.6,0.2,1.1,0.5,1.5c0.4,0.4,0.9,0.6,1.4,0.5c0.7,0,1.3-0.2,1.9-0.7v0.9
				c-0.6,0.4-1.3,0.6-2.1,0.6c-0.8,0-1.5-0.3-2-0.8c-0.5-0.7-0.8-1.5-0.7-2.3c0-0.8,0.2-1.6,0.8-2.3c0.5-0.6,1.2-0.9,2-0.9
				c0.7,0,1.4,0.2,1.8,0.8c0.5,0.6,0.7,1.4,0.6,2.1L243.6,35.4z M242.6,34.6c0-0.5-0.1-0.9-0.4-1.3c-0.3-0.3-0.7-0.5-1.1-0.5
				c-0.4,0-0.9,0.2-1.1,0.5c-0.3,0.3-0.5,0.8-0.6,1.3H242.6z"/>
			<path class="st14" d="M250.1,38.2h-1v-3.4c0-1.3-0.5-1.9-1.4-1.9c-0.5,0-0.9,0.2-1.2,0.5c-0.3,0.4-0.5,0.9-0.5,1.4v3.4h-1v-6h1v1
				l0,0c0.4-0.7,1.2-1.2,2-1.1c0.6,0,1.1,0.2,1.5,0.6c0.4,0.5,0.6,1.2,0.5,1.8L250.1,38.2z"/>
		</g>
		<g>
			<path class="st1" d="M405.2,56.7h-1.9v-5c0-0.5,0-1.1,0.1-1.8h0c-0.1,0.4-0.2,0.8-0.3,1.1l-2,5.7h-1.5l-2-5.7
				c-0.1-0.4-0.2-0.8-0.3-1.2l0,0c0,0.8,0.1,1.6,0.1,2.2v4.7h-1.7v-8.4h2.8l1.7,5c0.1,0.4,0.2,0.8,0.3,1.2l0,0
				c0.1-0.4,0.2-0.8,0.3-1.2l1.7-5h2.7L405.2,56.7z"/>
			<path class="st1" d="M407.8,49.7c-0.3,0-0.6-0.1-0.8-0.3c-0.2-0.2-0.3-0.4-0.3-0.7c0-0.3,0.1-0.5,0.3-0.7
				c0.2-0.2,0.5-0.3,0.8-0.3c0.3,0,0.6,0.1,0.8,0.3c0.2,0.2,0.3,0.4,0.3,0.7c0,0.3-0.1,0.5-0.3,0.7
				C408.3,49.7,408.1,49.8,407.8,49.7z M408.7,56.7h-1.9v-6h1.9V56.7z"/>
			<path class="st1" d="M414.8,56.5c-0.6,0.3-1.2,0.4-1.8,0.4c-0.8,0-1.6-0.3-2.2-0.8c-0.6-0.6-0.9-1.4-0.9-2.2
				c0-0.9,0.3-1.8,0.9-2.4c0.7-0.6,1.5-0.9,2.5-0.9c0.5,0,1.1,0.1,1.5,0.3v1.6c-0.4-0.3-0.8-0.4-1.3-0.4c-0.5,0-0.9,0.1-1.3,0.5
				c-0.3,0.3-0.5,0.8-0.5,1.3c0,0.5,0.1,0.9,0.4,1.3c0.3,0.3,0.8,0.5,1.2,0.5c0.5,0,1-0.2,1.4-0.4V56.5z"/>
			<path class="st1" d="M420,52.4c-0.2-0.1-0.5-0.2-0.8-0.2c-0.4,0-0.7,0.1-0.9,0.4c-0.2,0.4-0.4,0.8-0.3,1.2v2.9h-1.9v-6h1.9v1.1
				l0,0c0.2-0.7,0.8-1.2,1.6-1.2c0.2,0,0.3,0,0.5,0.1L420,52.4z"/>
			<path class="st1" d="M423.8,56.8c-0.9,0.1-1.7-0.3-2.4-0.8c-1.2-1.3-1.2-3.3,0-4.6c0.7-0.6,1.5-0.9,2.4-0.8
				c0.9,0,1.7,0.3,2.3,0.8c0.6,0.6,0.9,1.4,0.9,2.2c0.1,0.9-0.2,1.7-0.8,2.4C425.5,56.6,424.7,56.9,423.8,56.8z M423.8,52
				c-0.4,0-0.8,0.2-1,0.5c-0.3,0.4-0.4,0.8-0.4,1.3c0,1.2,0.5,1.7,1.4,1.7s1.3-0.6,1.3-1.8S424.8,52,423.8,52L423.8,52z"/>
			<path class="st1" d="M427.9,56.5V55c0.3,0.2,0.6,0.3,0.9,0.4c0.3,0.1,0.6,0.1,0.9,0.1c0.3,0,0.5,0,0.8-0.1
				c0.2-0.1,0.3-0.2,0.3-0.4c0-0.1,0-0.2-0.1-0.3c-0.1-0.1-0.2-0.2-0.3-0.2c-0.1-0.1-0.3-0.1-0.5-0.2c-0.2,0-0.3-0.1-0.5-0.2
				c-0.2-0.1-0.4-0.2-0.6-0.3c-0.2-0.1-0.3-0.2-0.5-0.4c-0.1-0.1-0.2-0.3-0.3-0.5c-0.1-0.2-0.1-0.4-0.1-0.6c0-0.3,0.1-0.6,0.2-0.9
				c0.1-0.2,0.3-0.5,0.6-0.6c0.3-0.2,0.5-0.3,0.8-0.3c0.3-0.1,0.7-0.1,1-0.1c0.3,0,0.5,0,0.8,0.1c0.3,0,0.5,0.1,0.8,0.2v1.4
				c-0.2-0.1-0.5-0.2-0.8-0.3c-0.3-0.1-0.5-0.1-0.8-0.1c-0.1,0-0.2,0-0.4,0c-0.1,0-0.2,0.1-0.3,0.1c-0.1,0-0.1,0.1-0.2,0.2
				c0,0.1-0.1,0.1-0.1,0.2c0,0.1,0,0.2,0.1,0.3c0.1,0.1,0.2,0.2,0.3,0.2c0.1,0.1,0.2,0.1,0.4,0.2l0.4,0.1c0.2,0.1,0.5,0.2,0.7,0.3
				c0.2,0.1,0.4,0.2,0.5,0.4c0.1,0.1,0.3,0.3,0.3,0.5c0.3,0.8,0,1.7-0.7,2.2c-0.3,0.2-0.6,0.3-0.9,0.3c-0.3,0.1-0.7,0.1-1,0.1
				C429.2,56.8,428.6,56.7,427.9,56.5z"/>
			<path class="st1" d="M436.5,56.8c-0.9,0.1-1.7-0.3-2.4-0.8c-1.2-1.3-1.2-3.3,0-4.6c0.7-0.6,1.5-0.9,2.4-0.8
				c0.9-0.1,1.7,0.3,2.3,0.8c0.6,0.6,0.9,1.4,0.9,2.2c0,0.9-0.3,1.7-0.9,2.4C438.2,56.6,437.4,56.9,436.5,56.8z M436.5,52
				c-0.4,0-0.8,0.2-1,0.5c-0.3,0.4-0.4,0.8-0.4,1.3c0,1.2,0.5,1.7,1.4,1.7s1.3-0.6,1.3-1.8S437.5,52,436.5,52L436.5,52z"/>
			<path class="st1" d="M444.9,49.2c-0.2-0.1-0.4-0.1-0.7-0.1c-0.6,0-0.9,0.3-0.9,1v0.6h1.4v1.4h-1.4v4.6h-1.9V52h-1v-1.4h1v-0.8
				c0-0.6,0.2-1.2,0.7-1.7c0.5-0.4,1.1-0.7,1.8-0.6c0.3,0,0.6,0,0.9,0.1V49.2z"/>
			<path class="st1" d="M449.4,56.6c-0.4,0.2-0.8,0.2-1.2,0.2c-1.3,0-2-0.7-2-2V52h-1v-1.4h1v-1.3l1.8-0.5v1.8h1.4V52h-1.4v2.4
				c0,0.6,0.3,0.9,0.8,0.9c0.2,0,0.4-0.1,0.6-0.2V56.6z"/>
			<path class="st1" d="M401.8,64.1c-0.3,0-0.6-0.1-0.8-0.3c-0.2-0.2-0.3-0.4-0.3-0.7c0-0.3,0.1-0.5,0.3-0.7
				c0.2-0.2,0.5-0.3,0.8-0.3c0.3,0,0.6,0.1,0.8,0.3c0.2,0.2,0.3,0.4,0.3,0.7c0,0.3-0.1,0.5-0.3,0.7
				C402.4,64.1,402.1,64.2,401.8,64.1z M402.7,71.1h-1.9v-6h1.9V71.1z"/>
			<path class="st1" d="M410.2,71.1h-1.9v-0.8l0,0c-0.4,0.6-1.1,1-1.9,1c-0.7,0-1.4-0.3-1.8-0.8c-0.5-0.6-0.7-1.4-0.7-2.2
				c0-0.9,0.2-1.7,0.8-2.4c0.5-0.6,1.2-0.9,2-0.9c0.7-0.1,1.3,0.3,1.6,0.8l0,0v-3.6h1.9L410.2,71.1z M408.4,68.2v-0.4
				c0-0.4-0.1-0.7-0.3-1c-0.4-0.5-1.2-0.5-1.7-0.1c-0.1,0.1-0.1,0.1-0.2,0.2c-0.2,0.4-0.4,0.9-0.3,1.3c0,0.4,0.1,0.9,0.3,1.2
				c0.2,0.3,0.6,0.4,0.9,0.4c0.4,0,0.7-0.2,0.9-0.4C408.2,69,408.4,68.6,408.4,68.2L408.4,68.2z"/>
			<path class="st1" d="M417.1,68.6h-3.9c0.1,0.9,0.6,1.3,1.6,1.3c0.6,0,1.2-0.1,1.7-0.5v1.3c-0.7,0.3-1.4,0.5-2.2,0.4
				c-1.5,0.2-2.9-1-3.1-2.5c0-0.2,0-0.4,0-0.6c0-0.9,0.3-1.7,0.9-2.4c0.6-0.6,1.3-0.9,2.1-0.9c0.7,0,1.5,0.2,2,0.8
				c0.5,0.6,0.8,1.3,0.7,2.1L417.1,68.6z M415.4,67.5c0-0.9-0.3-1.3-1-1.3c-0.3,0-0.6,0.1-0.8,0.4c-0.2,0.3-0.4,0.6-0.4,0.9H415.4z"
				/>
			<path class="st1" d="M424.1,71.1h-1.9v-3.3c0-0.9-0.3-1.4-1-1.4c-0.3,0-0.6,0.1-0.8,0.4c-0.2,0.3-0.3,0.6-0.3,0.9v3.4h-1.8v-6
				h1.9v1l0,0c0.4-0.7,1.1-1.1,1.9-1.1c1.3,0,2,0.8,2,2.5L424.1,71.1z"/>
			<path class="st1" d="M429.1,71c-0.4,0.2-0.8,0.2-1.2,0.2c-1.3,0-2-0.7-2-2v-2.8h-1v-1.4h1v-1.3l1.8-0.5v1.8h1.4v1.4h-1.4v2.4
				c0,0.6,0.3,0.9,0.8,0.9c0.2,0,0.4-0.1,0.6-0.2V71z"/>
			<path class="st1" d="M431.2,64.1c-0.3,0-0.6-0.1-0.8-0.3c-0.2-0.2-0.3-0.4-0.3-0.7c0-0.3,0.1-0.5,0.3-0.7c0.5-0.3,1.1-0.3,1.5,0
				c0.2,0.2,0.3,0.4,0.3,0.7c0,0.3-0.1,0.5-0.3,0.7C431.7,64.1,431.5,64.2,431.2,64.1z M432.1,71.1h-1.9v-6h1.9V71.1z"/>
			<path class="st1" d="M437.2,71c-0.4,0.2-0.8,0.2-1.2,0.2c-1.3,0-2-0.7-2-2v-2.8h-1v-1.4h1v-1.3l1.8-0.5v1.8h1.4v1.4h-1.4v2.4
				c0,0.6,0.3,0.9,0.8,0.9c0.2,0,0.4-0.1,0.6-0.2V71z"/>
			<path class="st1" d="M444.2,65.1l-2.4,6.5c-0.6,1.6-1.5,2.3-2.6,2.3c-0.4,0-0.8,0-1.1-0.2v-1.5c0.2,0.1,0.5,0.2,0.8,0.2
				c0.4,0,0.9-0.3,1-0.7l0.3-0.7l-2.4-6h2l1.1,3.7c0.1,0.3,0.1,0.5,0.2,0.8l0,0c0-0.3,0.1-0.5,0.2-0.8l1.1-3.7L444.2,65.1z"/>
			<path class="st1" d="M399.9,84.8L399.9,84.8v3.5H398v-8.8h1.9v0.9l0,0c0.7-1.1,2.2-1.4,3.3-0.7c0.2,0.1,0.3,0.2,0.5,0.4
				c0.5,0.6,0.7,1.4,0.6,2.2c0,0.9-0.2,1.7-0.7,2.4c-0.5,0.6-1.2,0.9-2,0.9C400.8,85.6,400.2,85.3,399.9,84.8z M399.8,82.3v0.5
				c0,0.4,0.1,0.7,0.3,1c0.2,0.3,0.5,0.4,0.9,0.4c0.4,0,0.8-0.2,1-0.5c0.3-0.4,0.4-0.9,0.4-1.4c0-1-0.4-1.6-1.2-1.6
				c-0.4,0-0.7,0.1-0.9,0.4C400,81.5,399.8,81.9,399.8,82.3z"/>
			<path class="st1" d="M407.4,85.5h-1.9v-8.9h1.9V85.5z"/>
			<path class="st1" d="M413.9,85.5h-1.8v-0.9l0,0c-0.4,0.6-1,1-1.8,1c-0.5,0-1-0.2-1.4-0.5c-0.3-0.4-0.5-0.8-0.5-1.3
				c0-1.2,0.7-1.8,2.1-2l1.6-0.2c0-0.7-0.4-1-1.1-1c-0.7,0-1.4,0.2-2,0.6v-1.4c0.3-0.2,0.7-0.3,1.1-0.4c0.4-0.1,0.8-0.1,1.2-0.2
				c1.2-0.2,2.4,0.7,2.6,1.9c0,0.2,0,0.4,0,0.6L413.9,85.5z M412.2,83v-0.4l-1.1,0.1c-0.6,0.1-0.9,0.3-0.9,0.8
				c0,0.2,0.1,0.4,0.2,0.5c0.2,0.1,0.4,0.2,0.6,0.2c0.3,0,0.6-0.1,0.9-0.4C412.1,83.7,412.2,83.4,412.2,83z"/>
			<path class="st1" d="M418.9,85.4c-0.4,0.2-0.8,0.2-1.2,0.2c-1.3,0-2-0.7-2-2v-2.8h-1v-1.4h1v-1.3l1.9-0.5v1.8h1.3v1.4h-1.3v2.4
				c0,0.6,0.2,0.9,0.7,0.9c0.2,0,0.4-0.1,0.6-0.2L418.9,85.4z"/>
			<path class="st1" d="M424,78c-0.2-0.1-0.4-0.1-0.7-0.1c-0.6,0-0.9,0.3-0.9,1v0.6h1.4v1.4h-1.4v4.6h-1.9v-4.7h-1v-1.4h1v-0.8
				c0-0.6,0.2-1.2,0.7-1.7c0.5-0.4,1.2-0.7,1.8-0.6c0.3,0,0.6,0,0.9,0.1V78z"/>
			<path class="st1" d="M427.6,85.6c-0.9,0-1.7-0.3-2.4-0.8c-1.2-1.3-1.2-3.3,0-4.6c0.7-0.6,1.5-0.9,2.4-0.8
				c0.9-0.1,1.7,0.3,2.3,0.8c0.6,0.6,0.9,1.4,0.9,2.2c0,0.9-0.3,1.7-0.9,2.4C429.3,85.4,428.5,85.7,427.6,85.6z M427.7,80.8
				c-0.4,0-0.8,0.2-1,0.4c-0.3,0.4-0.4,0.8-0.4,1.3c0,1.2,0.5,1.7,1.4,1.7s1.3-0.6,1.3-1.8S428.6,80.8,427.7,80.8L427.7,80.8z"/>
			<path class="st1" d="M436,81.2c-0.2-0.1-0.5-0.2-0.8-0.2c-0.4,0-0.7,0.1-0.9,0.4c-0.2,0.4-0.4,0.8-0.3,1.2v2.9h-1.9v-6h1.9v1.1
				l0,0c0.2-0.7,0.8-1.2,1.6-1.2c0.2,0,0.3,0,0.5,0.1L436,81.2z"/>
			<path class="st1" d="M446.4,85.5h-1.9v-3.4c0-0.9-0.3-1.3-1-1.3c-0.3,0-0.6,0.1-0.7,0.4c-0.2,0.3-0.3,0.6-0.3,1v3.4h-1.8V82
				c0-0.8-0.3-1.3-0.9-1.3c-0.3,0-0.6,0.1-0.8,0.4c-0.2,0.3-0.3,0.6-0.3,1v3.3h-1.9v-6h1.9v0.9l0,0c0.2-0.3,0.5-0.6,0.8-0.8
				c0.3-0.2,0.7-0.3,1.1-0.3c0.8,0,1.5,0.4,1.7,1.1c0.4-0.7,1.2-1.1,2-1.1c1.3,0,2,0.8,2,2.4L446.4,85.5z"/>
		</g>
		<g>
			<path class="st5" d="M405.2,161.6h-1.9v-5c0-0.5,0-1.1,0.1-1.8h0c-0.1,0.4-0.2,0.7-0.3,1.1l-2,5.7h-1.5l-2-5.6
				c-0.1-0.2-0.1-0.6-0.3-1.2l0,0c0,0.8,0.1,1.6,0.1,2.2v4.6h-1.7v-8.4h2.8l1.7,5c0.1,0.4,0.2,0.8,0.3,1.2l0,0
				c0.1-0.4,0.2-0.8,0.3-1.2l1.7-5h2.7L405.2,161.6z"/>
			<path class="st5" d="M407.8,154.6c-0.3,0-0.6-0.1-0.8-0.3c-0.2-0.2-0.3-0.4-0.3-0.7c0-0.3,0.1-0.5,0.3-0.7
				c0.2-0.2,0.5-0.3,0.8-0.3c0.3,0,0.6,0.1,0.8,0.3c0.2,0.2,0.3,0.4,0.3,0.7c0,0.3-0.1,0.5-0.3,0.7
				C408.3,154.6,408.1,154.7,407.8,154.6z M408.7,161.6h-1.9v-6h1.9V161.6z"/>
			<path class="st5" d="M414.8,161.4c-0.6,0.3-1.2,0.4-1.8,0.4c-0.8,0-1.6-0.3-2.2-0.8c-0.6-0.6-0.9-1.4-0.9-2.2
				c0-0.9,0.3-1.8,0.9-2.4c0.7-0.6,1.5-0.9,2.5-0.9c0.5,0,1.1,0.1,1.5,0.3v1.6c-0.4-0.3-0.8-0.4-1.3-0.4c-0.5,0-0.9,0.1-1.3,0.5
				c-0.3,0.3-0.5,0.8-0.5,1.3c0,0.5,0.1,0.9,0.5,1.3c0.3,0.3,0.8,0.5,1.2,0.4c0.5,0,1-0.2,1.4-0.4L414.8,161.4z"/>
			<path class="st5" d="M420,157.3c-0.2-0.1-0.5-0.2-0.8-0.2c-0.4,0-0.7,0.2-0.9,0.4c-0.2,0.4-0.4,0.8-0.3,1.2v2.9h-1.9v-6h1.9v1.1
				l0,0c0.2-0.7,0.8-1.2,1.6-1.2c0.2,0,0.3,0,0.5,0.1L420,157.3z"/>
			<path class="st5" d="M423.8,161.8c-0.9,0-1.7-0.3-2.4-0.8c-1.2-1.3-1.2-3.3,0-4.6c0.7-0.6,1.5-0.9,2.4-0.8c0.9,0,1.7,0.3,2.3,0.8
				c0.6,0.6,0.9,1.4,0.9,2.2c0,0.9-0.3,1.7-0.9,2.4C425.5,161.5,424.7,161.8,423.8,161.8z M423.8,156.9c-0.4,0-0.8,0.2-1,0.4
				c-0.3,0.4-0.4,0.8-0.4,1.3c0,1.1,0.5,1.7,1.4,1.7s1.3-0.6,1.3-1.8S424.8,156.9,423.8,156.9L423.8,156.9z"/>
			<path class="st5" d="M427.9,161.4v-1.5c0.3,0.2,0.6,0.3,0.9,0.4c0.3,0.1,0.6,0.1,0.9,0.1c0.3,0,0.5,0,0.8-0.1
				c0.2-0.1,0.3-0.2,0.3-0.4c0-0.1,0-0.2-0.1-0.3c-0.1-0.1-0.2-0.2-0.3-0.2c-0.1-0.1-0.3-0.1-0.5-0.2l-0.5-0.2
				c-0.2-0.1-0.4-0.2-0.6-0.3c-0.2-0.1-0.3-0.2-0.5-0.4c-0.1-0.1-0.2-0.3-0.3-0.5c-0.1-0.2-0.1-0.4-0.1-0.6c0-0.3,0.1-0.6,0.2-0.9
				c0.1-0.2,0.3-0.4,0.6-0.6c0.3-0.2,0.5-0.3,0.8-0.3c0.3-0.1,0.7-0.1,1-0.1c0.3,0,0.5,0,0.8,0.1c0.3,0,0.5,0.1,0.8,0.2v1.4
				c-0.2-0.1-0.5-0.2-0.8-0.3c-0.3-0.1-0.5-0.1-0.8-0.1c-0.1,0-0.2,0-0.4,0c-0.1,0-0.2,0-0.3,0.1c-0.1,0-0.1,0.1-0.2,0.2
				c0,0.1-0.1,0.1-0.1,0.2c0,0.1,0,0.2,0.1,0.3c0.1,0.1,0.2,0.2,0.3,0.2c0.1,0.1,0.2,0.1,0.4,0.1l0.4,0.1c0.2,0.1,0.5,0.2,0.7,0.3
				c0.2,0.1,0.4,0.2,0.5,0.4c0.1,0.1,0.3,0.3,0.3,0.5c0.1,0.2,0.1,0.4,0.1,0.7c0,0.3-0.1,0.6-0.2,0.9c-0.2,0.3-0.4,0.5-0.6,0.6
				c-0.3,0.2-0.6,0.3-0.9,0.4c-0.3,0.1-0.7,0.1-1,0.1C429.2,161.7,428.5,161.6,427.9,161.4z"/>
			<path class="st5" d="M436.5,161.8c-0.9,0-1.7-0.3-2.4-0.8c-1.2-1.3-1.2-3.3,0-4.6c0.7-0.6,1.5-0.9,2.4-0.8
				c0.9-0.1,1.7,0.3,2.3,0.8c0.6,0.6,0.9,1.4,0.9,2.2c0,0.9-0.3,1.7-0.9,2.4C438.2,161.5,437.4,161.8,436.5,161.8z M436.5,156.9
				c-0.4,0-0.8,0.2-1,0.4c-0.3,0.4-0.4,0.8-0.4,1.3c0,1.1,0.5,1.7,1.4,1.7s1.3-0.6,1.3-1.8S437.5,156.9,436.5,156.9L436.5,156.9z"/>
			<path class="st5" d="M444.9,154.1c-0.2-0.1-0.4-0.1-0.7-0.1c-0.6,0-0.9,0.3-0.9,1v0.6h1.4v1.4h-1.4v4.6h-1.9V157h-1v-1.4h1v-0.7
				c0-0.6,0.2-1.2,0.7-1.6c0.5-0.4,1.1-0.7,1.8-0.6c0.3,0,0.6,0,0.9,0.1V154.1z"/>
			<path class="st5" d="M449.4,161.5c-0.4,0.2-0.8,0.2-1.2,0.2c-1.3,0-2-0.7-2-2V157h-1v-1.4h1v-1.3l1.8-0.5v1.8h1.4v1.4h-1.4v2.4
				c0,0.6,0.3,0.9,0.8,0.9c0.2,0,0.4-0.1,0.6-0.2V161.5z"/>
			<path class="st5" d="M401.5,175.4c-0.9,0.5-2,0.7-3.1,0.7c-1.2,0.1-2.3-0.3-3.2-1.1c-0.8-0.8-1.2-1.9-1.2-3.1
				c0-1.2,0.4-2.4,1.3-3.2c0.9-0.9,2.1-1.3,3.4-1.3c0.8,0,1.6,0.1,2.4,0.4v1.8c-0.7-0.4-1.6-0.6-2.4-0.6c-0.7,0-1.4,0.3-1.9,0.8
				c-0.5,0.5-0.8,1.3-0.7,2c0,0.7,0.2,1.4,0.7,2c0.5,0.5,1.1,0.7,1.8,0.7c0.4,0,0.7,0,1.1-0.2v-1.6h-1.7v-1.5h3.6V175.4z"/>
			<path class="st5" d="M406.9,171.7c-0.2-0.1-0.5-0.2-0.8-0.2c-0.4,0-0.7,0.1-1,0.4c-0.2,0.4-0.4,0.8-0.3,1.2v2.9H403v-6h1.9v1.1
				l0,0c0.2-0.7,0.8-1.2,1.6-1.2c0.2,0,0.3,0,0.5,0.1L406.9,171.7z"/>
			<path class="st5" d="M412.7,176h-1.8v-0.9l0,0c-0.4,0.6-1,1-1.8,1c-0.5,0-1-0.2-1.4-0.5c-0.3-0.4-0.5-0.8-0.5-1.3
				c0-1.2,0.7-1.8,2.1-2l1.6-0.2c0-0.7-0.4-1-1.1-1c-0.7,0-1.4,0.2-2,0.6v-1.4c0.3-0.2,0.7-0.3,1.1-0.4c0.4-0.1,0.8-0.1,1.2-0.1
				c1.2-0.2,2.4,0.7,2.6,1.9c0,0.2,0,0.4,0,0.6L412.7,176z M410.9,173.6v-0.4l-1.1,0.1c-0.6,0.1-0.9,0.4-0.9,0.8
				c0,0.2,0.1,0.4,0.2,0.5c0.2,0.1,0.4,0.2,0.6,0.2c0.3,0,0.6-0.1,0.9-0.4C410.8,174.2,410.9,173.9,410.9,173.6L410.9,173.6z"/>
			<path class="st5" d="M416,175.3L416,175.3v3.5h-1.9V170h1.9v0.9l0,0c0.7-1.1,2.2-1.4,3.3-0.6c0.2,0.1,0.3,0.2,0.5,0.4
				c0.5,0.6,0.7,1.4,0.6,2.2c0,0.9-0.2,1.7-0.7,2.4c-0.5,0.6-1.2,0.9-2,0.9C417,176.2,416.4,175.8,416,175.3z M415.9,172.8v0.5
				c0,0.4,0.1,0.7,0.3,1c0.2,0.3,0.5,0.4,0.9,0.4c0.4,0,0.8-0.2,1-0.5c0.3-0.4,0.4-0.9,0.3-1.4c0-1.1-0.4-1.6-1.2-1.6
				c-0.4,0-0.7,0.2-0.9,0.4C416.1,172,416,172.4,415.9,172.8L415.9,172.8z"/>
			<path class="st5" d="M427.4,176h-1.9v-3.4c0-0.9-0.3-1.3-1-1.3c-0.3,0-0.6,0.1-0.8,0.4c-0.2,0.3-0.3,0.6-0.3,0.9v3.4h-1.8v-8.9
				h1.9v3.8l0,0c0.4-0.6,1.1-1,1.9-1c1.3,0,2,0.8,2,2.5L427.4,176z"/>
			<path class="st5" d="M439.7,176h-2.1l-0.6-1.9h-3l-0.6,1.9h-2l3.1-8.4h2.2L439.7,176z M436.6,172.7l-0.9-2.8
				c-0.1-0.2-0.1-0.5-0.1-0.8h0c0,0.2-0.1,0.5-0.1,0.7l-0.9,2.9H436.6z"/>
			<path class="st5" d="M442.5,173.1v2.9h-1.9v-8.4h3c2.1,0,3.2,0.9,3.2,2.7c0,0.8-0.3,1.5-0.9,2.1c-0.7,0.5-1.6,0.8-2.4,0.8H442.5z
				 M442.5,169.1v2.6h0.7c1,0,1.5-0.4,1.5-1.3s-0.5-1.3-1.5-1.3L442.5,169.1z"/>
			<path class="st5" d="M449.8,176h-1.9v-8.4h1.9V176z"/>
		</g>
		
			<use xlink:href="#New_Symbol_41"  width="20" height="20" x="-10" y="-10" transform="matrix(1 0 0 1 168.91 15.41)" style="overflow:visible;"/>
		
			<use xlink:href="#New_Symbol_42"  width="20" height="20" x="-10" y="-10" transform="matrix(1 0 0 1 168.91 45.29)" style="overflow:visible;"/>
		<g>
			<path class="st14" d="M192,69.3h-1.1L190,67h-3.6l-0.8,2.4h-1.1l3.2-8.4h1L192,69.3z M189.7,66.1l-1.3-3.6
				c-0.1-0.2-0.1-0.4-0.1-0.6l0,0c0,0.2-0.1,0.4-0.1,0.6l-1.3,3.6H189.7z"/>
			<path class="st14" d="M197.1,69c-0.5,0.3-1.1,0.4-1.6,0.4c-0.8,0-1.5-0.3-2.1-0.8c-0.5-0.6-0.8-1.4-0.8-2.2
				c0-0.9,0.3-1.7,0.9-2.4c0.6-0.6,1.4-0.9,2.3-0.9c0.5,0,1,0.1,1.4,0.3v1c-0.4-0.3-0.9-0.5-1.4-0.5c-0.6,0-1.1,0.2-1.5,0.7
				c-0.4,0.5-0.6,1.1-0.6,1.7c0,0.6,0.2,1.2,0.6,1.7c0.4,0.4,0.9,0.6,1.5,0.6c0.5,0,1.1-0.2,1.5-0.5L197.1,69z"/>
			<path class="st14" d="M203.5,72.1h-1v-3.8l0,0c-0.4,0.8-1.2,1.2-2.1,1.2c-0.7,0-1.4-0.3-1.8-0.8c-0.5-0.6-0.7-1.4-0.7-2.2
				c0-0.9,0.2-1.7,0.8-2.4c0.5-0.6,1.2-0.9,2-0.9c0.7,0,1.4,0.3,1.8,1l0,0v-0.8h1L203.5,72.1z M202.5,66.6v-0.9
				c0-0.5-0.2-0.9-0.5-1.3c-0.3-0.3-0.8-0.5-1.2-0.5c-0.5,0-1,0.2-1.4,0.6c-0.4,0.5-0.5,1.2-0.5,1.8c0,0.6,0.1,1.2,0.5,1.6
				c0.3,0.4,0.8,0.6,1.3,0.6c0.5,0,1-0.2,1.3-0.6C202.4,67.7,202.6,67.2,202.5,66.6L202.5,66.6z"/>
			<path class="st14" d="M210.2,69.3h-1v-0.9l0,0c-0.4,0.7-1.1,1.1-1.9,1.1c-1.4,0-2.1-0.8-2.1-2.6v-3.6h1v3.4
				c0,1.3,0.5,1.9,1.4,1.9c0.4,0,0.9-0.2,1.2-0.5c0.3-0.4,0.5-0.9,0.4-1.4v-3.5h1L210.2,69.3z"/>
			<path class="st14" d="M212.6,61.8c-0.3,0-0.6-0.3-0.6-0.6c0-0.2,0.1-0.3,0.2-0.5c0.1-0.1,0.3-0.2,0.4-0.2c0.2,0,0.3,0.1,0.4,0.2
				c0.1,0.1,0.2,0.3,0.2,0.5c0,0.2-0.1,0.3-0.2,0.4C212.9,61.7,212.7,61.8,212.6,61.8z M213,69.3h-1v-6h1V69.3z"/>
			<path class="st14" d="M218,64.3c-0.2-0.1-0.5-0.2-0.7-0.2c-0.4,0-0.8,0.2-1,0.6c-0.3,0.5-0.5,1-0.4,1.6v3.1h-1v-6h1v1.2l0,0
				c0.1-0.4,0.3-0.7,0.6-1c0.3-0.2,0.6-0.4,1-0.4c0.2,0,0.4,0,0.6,0.1L218,64.3z"/>
			<path class="st14" d="M223.9,66.6h-4.2c0,0.6,0.2,1.1,0.5,1.5c0.4,0.4,0.9,0.6,1.4,0.6c0.7,0,1.3-0.2,1.9-0.7v0.9
				c-0.6,0.4-1.3,0.6-2.1,0.6c-0.8,0-1.5-0.3-2-0.8c-0.5-0.7-0.8-1.5-0.7-2.3c0-0.8,0.2-1.6,0.8-2.3c0.5-0.6,1.2-0.9,2-0.9
				c0.7,0,1.4,0.2,1.8,0.8c0.5,0.6,0.7,1.4,0.6,2.1L223.9,66.6z M222.9,65.7c0-0.5-0.1-0.9-0.4-1.3c-0.3-0.3-0.7-0.5-1.1-0.5
				c-0.4,0-0.9,0.2-1.2,0.5c-0.3,0.3-0.5,0.8-0.6,1.3L222.9,65.7z"/>
			<path class="st14" d="M231.4,69.3c-0.3,0.1-0.6,0.2-0.9,0.2c-1,0-1.6-0.6-1.6-1.8v-3.6h-1v-0.8h1v-1.5l1-0.3v1.8h1.5v0.8h-1.5
				v3.4c0,0.3,0,0.6,0.2,0.9c0.2,0.2,0.4,0.3,0.7,0.3c0.2,0,0.4-0.1,0.6-0.2L231.4,69.3z"/>
			<path class="st14" d="M235,69.5c-0.8,0-1.6-0.3-2.1-0.8c-0.5-0.6-0.8-1.4-0.8-2.2c-0.1-0.9,0.2-1.7,0.8-2.4
				c0.6-0.6,1.4-0.9,2.2-0.8c0.8,0,1.6,0.3,2.1,0.8c0.5,0.6,0.8,1.5,0.8,2.3c0,0.8-0.2,1.7-0.8,2.3C236.6,69.2,235.8,69.5,235,69.5z
				 M235.1,64c-0.6,0-1.1,0.2-1.5,0.6c-0.4,0.5-0.6,1.1-0.5,1.7c0,0.6,0.2,1.2,0.5,1.7c0.4,0.4,0.9,0.6,1.5,0.6
				c0.5,0,1.1-0.2,1.4-0.6c0.4-0.5,0.5-1.1,0.5-1.7c0-0.6-0.1-1.2-0.5-1.7C236.2,64.2,235.6,64,235.1,64z"/>
			<path class="st14" d="M244.5,69.3h-1.4l-2.6-2.9l0,0v2.9h-1v-8.9h1v5.6l0,0l2.5-2.7h1.3l-2.8,2.9L244.5,69.3z"/>
			<path class="st14" d="M250,66.6h-4.2c0,0.6,0.2,1.1,0.5,1.5c0.4,0.4,0.9,0.6,1.4,0.6c0.7,0,1.3-0.2,1.9-0.7v0.9
				c-0.6,0.4-1.3,0.6-2.1,0.6c-0.8,0-1.5-0.3-2-0.8c-0.5-0.7-0.8-1.5-0.7-2.3c0-0.8,0.2-1.6,0.8-2.3c0.5-0.6,1.2-0.9,2-0.9
				c0.7,0,1.4,0.2,1.8,0.8c0.5,0.6,0.7,1.4,0.6,2.1L250,66.6z M249,65.7c0-0.5-0.1-0.9-0.4-1.3c-0.3-0.3-0.7-0.5-1.1-0.5
				c-0.4,0-0.9,0.2-1.2,0.5c-0.3,0.3-0.5,0.8-0.6,1.3L249,65.7z"/>
			<path class="st14" d="M256.4,69.3h-1v-3.4c0-1.3-0.5-1.9-1.4-1.9c-0.5,0-0.9,0.2-1.2,0.5c-0.3,0.4-0.5,0.9-0.5,1.4v3.4h-1v-6h1v1
				l0,0c0.4-0.7,1.2-1.2,2-1.1c0.6,0,1.1,0.2,1.5,0.6c0.4,0.5,0.6,1.2,0.5,1.8L256.4,69.3z"/>
		</g>
		<g>
			<path class="st14" d="M212.6,98.2h-1.1l-0.9-2.4h-3.6l-0.8,2.4h-1.1l3.2-8.4h1L212.6,98.2z M210.3,95l-1.3-3.6
				c-0.1-0.2-0.1-0.4-0.1-0.6l0,0c0,0.2-0.1,0.4-0.1,0.6l-1.4,3.6H210.3z"/>
			<path class="st14" d="M217.7,97.9c-0.5,0.3-1.1,0.4-1.6,0.4c-0.8,0-1.5-0.3-2.1-0.8c-0.5-0.6-0.8-1.4-0.8-2.2
				c0-0.9,0.3-1.7,0.8-2.3c0.6-0.6,1.4-0.9,2.3-0.9c0.5,0,1,0.1,1.4,0.3v1c-0.4-0.3-0.9-0.5-1.4-0.5c-0.6,0-1.1,0.2-1.5,0.7
				c-0.4,0.5-0.6,1.1-0.6,1.7c0,0.6,0.2,1.2,0.6,1.7c0.4,0.4,0.9,0.6,1.5,0.6c0.5,0,1.1-0.2,1.5-0.5L217.7,97.9z"/>
			<path class="st14" d="M223.1,97.9c-0.5,0.3-1.1,0.4-1.6,0.4c-0.8,0-1.5-0.3-2.1-0.8c-0.5-0.6-0.8-1.4-0.8-2.2
				c0-0.9,0.3-1.7,0.9-2.4c0.6-0.6,1.4-0.9,2.3-0.9c0.5,0,1,0.1,1.4,0.3v1c-0.4-0.3-0.9-0.5-1.4-0.5c-0.6,0-1.1,0.2-1.5,0.7
				c-0.4,0.5-0.6,1.1-0.6,1.7c0,0.6,0.2,1.2,0.6,1.7c0.4,0.4,0.9,0.6,1.5,0.6c0.5,0,1.1-0.2,1.5-0.5L223.1,97.9z"/>
			<path class="st14" d="M229.2,95.4H225c0,0.6,0.2,1.1,0.5,1.5c0.4,0.4,0.9,0.6,1.4,0.6c0.7,0,1.3-0.2,1.9-0.7v0.9
				c-0.6,0.4-1.3,0.6-2.1,0.6c-0.8,0-1.5-0.3-2-0.8c-1-1.4-0.9-3.2,0.1-4.5c0.5-0.6,1.2-0.9,2-0.9c0.7,0,1.4,0.2,1.8,0.8
				c0.5,0.6,0.7,1.4,0.6,2.1L229.2,95.4z M228.2,94.6c0-0.5-0.1-0.9-0.4-1.3c-0.3-0.3-0.7-0.5-1.1-0.5c-0.4,0-0.9,0.2-1.1,0.5
				c-0.3,0.3-0.5,0.8-0.6,1.3H228.2z"/>
			<path class="st14" d="M230.3,98v-1c0.5,0.4,1.1,0.6,1.7,0.6c0.8,0,1.3-0.3,1.3-0.8c0-0.1,0-0.3-0.1-0.4c-0.1-0.1-0.2-0.2-0.3-0.3
				c-0.1-0.1-0.3-0.2-0.4-0.2l-0.5-0.2c-0.3-0.1-0.5-0.2-0.7-0.3c-0.2-0.1-0.4-0.2-0.5-0.4c-0.1-0.1-0.2-0.3-0.3-0.5
				c-0.1-0.2-0.1-0.4-0.1-0.6c0-0.3,0.1-0.5,0.2-0.8c0.1-0.2,0.3-0.4,0.5-0.5c0.2-0.2,0.5-0.3,0.7-0.3c0.3-0.1,0.6-0.1,0.9-0.1
				c0.5,0,1,0.1,1.4,0.3v1c-0.5-0.3-1-0.4-1.5-0.4c-0.2,0-0.3,0-0.5,0.1c-0.1,0-0.3,0.1-0.4,0.2c-0.1,0.1-0.2,0.2-0.2,0.3
				c-0.1,0.1-0.1,0.2-0.1,0.3c0,0.1,0,0.3,0.1,0.4c0.1,0.1,0.1,0.2,0.3,0.3c0.1,0.1,0.3,0.2,0.4,0.2l0.5,0.2
				c0.2,0.1,0.5,0.2,0.7,0.3c0.2,0.1,0.4,0.2,0.5,0.4c0.1,0.1,0.3,0.3,0.4,0.5c0.1,0.2,0.1,0.4,0.1,0.6c0,0.3-0.1,0.5-0.2,0.8
				c-0.1,0.2-0.3,0.4-0.5,0.5c-0.2,0.1-0.5,0.3-0.8,0.3c-0.3,0.1-0.6,0.1-0.9,0.1C231.4,98.4,230.8,98.3,230.3,98z"/>
			<path class="st14" d="M235.4,98v-1c0.5,0.4,1.1,0.6,1.7,0.6c0.8,0,1.3-0.3,1.3-0.8c0-0.1,0-0.3-0.1-0.4c-0.1-0.1-0.2-0.2-0.3-0.3
				c-0.1-0.1-0.3-0.2-0.4-0.2l-0.5-0.2c-0.3-0.1-0.5-0.2-0.7-0.3c-0.2-0.1-0.4-0.2-0.5-0.4c-0.1-0.1-0.2-0.3-0.3-0.5
				c-0.1-0.2-0.1-0.4-0.1-0.6c0-0.3,0.1-0.5,0.2-0.8c0.1-0.2,0.3-0.4,0.5-0.5c0.2-0.2,0.5-0.3,0.7-0.3c0.3-0.1,0.6-0.1,0.9-0.1
				c0.5,0,1,0.1,1.4,0.3v1c-0.5-0.3-1-0.4-1.5-0.4c-0.2,0-0.3,0-0.5,0.1c-0.1,0-0.3,0.1-0.4,0.2c-0.1,0.1-0.2,0.2-0.2,0.3
				c-0.1,0.1-0.1,0.2-0.1,0.3c0,0.1,0,0.3,0.1,0.4c0.1,0.1,0.1,0.2,0.3,0.3c0.1,0.1,0.3,0.2,0.4,0.2l0.5,0.2
				c0.2,0.1,0.5,0.2,0.7,0.3c0.2,0.1,0.4,0.2,0.5,0.4c0.3,0.3,0.5,0.7,0.5,1.1c0,0.3-0.1,0.5-0.2,0.8c-0.1,0.2-0.3,0.4-0.5,0.5
				c-0.2,0.1-0.5,0.3-0.8,0.3c-0.3,0.1-0.6,0.1-0.9,0.1C236.4,98.4,235.9,98.3,235.4,98z"/>
			<path class="st14" d="M246.9,98.2c-0.3,0.1-0.6,0.2-0.9,0.2c-1.1,0-1.6-0.6-1.6-1.8V93h-1v-0.8h1v-1.4l1-0.3v1.8h1.5V93h-1.5v3.4
				c0,0.3,0,0.6,0.2,0.9c0.2,0.2,0.4,0.3,0.7,0.3c0.2,0,0.4-0.1,0.6-0.2L246.9,98.2z"/>
			<path class="st14" d="M250.6,98.3c-0.8,0-1.6-0.3-2.1-0.8c-0.5-0.6-0.8-1.4-0.8-2.2c-0.1-0.9,0.2-1.7,0.8-2.4
				c0.6-0.6,1.4-0.9,2.2-0.8c0.8,0,1.5,0.3,2.1,0.8c0.5,0.6,0.8,1.5,0.8,2.3c0,0.8-0.2,1.7-0.8,2.3
				C252.2,98.1,251.4,98.4,250.6,98.3z M250.7,92.9c-0.6,0-1.1,0.2-1.5,0.6c-0.4,0.5-0.6,1.1-0.5,1.7c0,0.6,0.2,1.2,0.6,1.7
				c0.4,0.4,0.9,0.6,1.5,0.6c0.5,0,1.1-0.2,1.4-0.6c0.4-0.5,0.5-1.1,0.5-1.7c0-0.6-0.1-1.2-0.5-1.7
				C251.7,93.1,251.2,92.8,250.7,92.9z"/>
			<path class="st14" d="M260,98.2h-1.3l-2.7-2.9l0,0v2.9h-1v-8.9h1V95l0,0l2.5-2.8h1.3l-2.8,2.8L260,98.2z"/>
			<path class="st14" d="M265.5,95.4h-4.2c0,0.6,0.2,1.1,0.5,1.5c0.4,0.4,0.9,0.6,1.4,0.6c0.7,0,1.3-0.2,1.9-0.7v0.9
				c-0.6,0.4-1.4,0.6-2.1,0.6c-0.8,0-1.5-0.3-2-0.8c-1-1.4-1-3.2,0.1-4.6c0.5-0.6,1.2-0.9,2-0.9c0.7,0,1.4,0.2,1.8,0.8
				c0.5,0.6,0.7,1.4,0.6,2.1L265.5,95.4z M264.5,94.6c0-0.5-0.1-0.9-0.4-1.3c-0.3-0.3-0.7-0.5-1.1-0.5c-0.4,0-0.9,0.2-1.2,0.5
				c-0.3,0.4-0.5,0.8-0.6,1.3H264.5z"/>
			<path class="st14" d="M272,98.2h-1v-3.4c0-1.3-0.5-1.9-1.4-1.9c-0.5,0-0.9,0.2-1.2,0.5c-0.3,0.4-0.5,0.9-0.5,1.4v3.4h-1v-6h1v1
				l0,0c0.4-0.7,1.2-1.2,2-1.1c0.6,0,1.1,0.2,1.5,0.6c0.4,0.5,0.6,1.2,0.5,1.8L272,98.2z"/>
		</g>
		<g>
			<polygon class="st8" points="192.6,133.8 185,139.2 187.9,148 197.2,148 200.1,139.2 			"/>
			<g>
				<g>
					<path class="st14" d="M213,147.2h-1.1l-0.9-2.4h-3.6l-0.8,2.4h-1.1l3.2-8.4h1L213,147.2z M210.7,144l-1.3-3.6
						c-0.1-0.2-0.1-0.4-0.1-0.6l0,0c0,0.2-0.1,0.4-0.1,0.6l-1.4,3.6L210.7,144z"/>
					<path class="st14" d="M218,147c-0.5,0.3-1.1,0.4-1.6,0.4c-0.8,0-1.5-0.3-2.1-0.8c-0.5-0.6-0.8-1.4-0.8-2.2
						c0-0.9,0.3-1.7,0.9-2.4c0.6-0.6,1.4-0.9,2.3-0.9c0.5,0,1,0.1,1.4,0.3v1c-0.4-0.3-0.9-0.5-1.4-0.5c-0.6,0-1.1,0.2-1.5,0.7
						c-0.4,0.5-0.6,1.1-0.6,1.7c0,0.6,0.2,1.2,0.6,1.7c0.4,0.4,0.9,0.6,1.5,0.6c0.5,0,1.1-0.2,1.5-0.6V147z"/>
					<path class="st14" d="M223.4,147c-0.5,0.3-1.1,0.4-1.6,0.4c-0.8,0-1.5-0.3-2.1-0.8c-0.5-0.6-0.8-1.4-0.8-2.2
						c0-0.9,0.3-1.7,0.9-2.4c0.6-0.6,1.4-0.9,2.3-0.9c0.5,0,1,0.1,1.4,0.3v1c-0.4-0.3-0.9-0.5-1.4-0.5c-0.6,0-1.1,0.2-1.5,0.7
						c-0.4,0.5-0.6,1.1-0.6,1.7c0,0.6,0.2,1.2,0.6,1.7c0.4,0.4,0.9,0.6,1.5,0.6c0.5,0,1.1-0.2,1.5-0.5L223.4,147z"/>
					<path class="st14" d="M229.6,144.5h-4.2c0,0.6,0.2,1.1,0.5,1.6c0.4,0.4,0.9,0.6,1.4,0.5c0.7,0,1.3-0.2,1.9-0.7v0.9
						c-0.6,0.4-1.4,0.6-2.1,0.6c-0.8,0-1.5-0.3-2-0.8c-0.5-0.7-0.8-1.5-0.7-2.3c0-0.8,0.2-1.6,0.8-2.3c0.5-0.6,1.2-0.9,2-0.9
						c0.7,0,1.4,0.2,1.8,0.8c0.5,0.6,0.7,1.4,0.6,2.1L229.6,144.5z M228.6,143.7c0-0.5-0.1-0.9-0.4-1.3c-0.3-0.3-0.7-0.5-1.1-0.5
						c-0.4,0-0.8,0.2-1.1,0.5c-0.3,0.4-0.5,0.8-0.6,1.3L228.6,143.7z"/>
					<path class="st14" d="M230.6,147v-1c0.5,0.4,1.1,0.6,1.7,0.6c0.8,0,1.3-0.3,1.3-0.8c0-0.1,0-0.3-0.1-0.4
						c-0.1-0.1-0.2-0.2-0.3-0.3c-0.1-0.1-0.3-0.2-0.4-0.2l-0.5-0.2c-0.2-0.1-0.5-0.2-0.7-0.3c-0.2-0.1-0.4-0.2-0.5-0.4
						c-0.1-0.1-0.2-0.3-0.3-0.5c-0.1-0.2-0.1-0.4-0.1-0.6c0-0.3,0.1-0.5,0.2-0.7c0.1-0.2,0.3-0.4,0.5-0.6c0.2-0.1,0.5-0.3,0.7-0.3
						c0.3-0.1,0.6-0.1,0.9-0.1c0.5,0,1,0.1,1.4,0.3v1c-0.5-0.3-1-0.4-1.5-0.4c-0.2,0-0.3,0-0.5,0.1c-0.1,0-0.3,0.1-0.4,0.2
						c-0.1,0.1-0.2,0.2-0.2,0.3c-0.1,0.1-0.1,0.2-0.1,0.3c0,0.1,0,0.3,0.1,0.4c0.1,0.1,0.1,0.2,0.3,0.3c0.1,0.1,0.3,0.2,0.4,0.2
						l0.5,0.2c0.2,0.1,0.5,0.2,0.7,0.3c0.2,0.1,0.4,0.2,0.5,0.4c0.1,0.1,0.3,0.3,0.3,0.5c0.1,0.2,0.1,0.4,0.1,0.6
						c0,0.3-0.1,0.5-0.2,0.8c-0.1,0.2-0.3,0.4-0.5,0.5c-0.2,0.2-0.5,0.3-0.8,0.3c-0.3,0.1-0.6,0.1-0.9,0.1
						C231.7,147.4,231.1,147.3,230.6,147z"/>
					<path class="st14" d="M235.7,147v-1c0.5,0.4,1.1,0.6,1.7,0.6c0.9,0,1.3-0.3,1.3-0.8c0-0.1,0-0.3-0.1-0.4
						c-0.1-0.1-0.2-0.2-0.3-0.3c-0.1-0.1-0.3-0.2-0.4-0.2l-0.5-0.2c-0.2-0.1-0.5-0.2-0.7-0.3c-0.2-0.1-0.4-0.2-0.5-0.4
						c-0.1-0.1-0.2-0.3-0.3-0.5c-0.1-0.2-0.1-0.4-0.1-0.6c0-0.3,0.1-0.5,0.2-0.7c0.1-0.2,0.3-0.4,0.5-0.6c0.2-0.1,0.5-0.3,0.7-0.3
						c0.7-0.2,1.5-0.1,2.3,0.2v1c-0.5-0.3-1-0.4-1.5-0.4c-0.2,0-0.3,0-0.5,0.1c-0.1,0-0.3,0.1-0.4,0.2c-0.1,0.1-0.2,0.2-0.2,0.3
						c-0.1,0.1-0.1,0.2-0.1,0.3c0,0.1,0,0.3,0.1,0.4c0.1,0.1,0.1,0.2,0.2,0.3c0.1,0.1,0.3,0.2,0.4,0.2l0.5,0.2
						c0.2,0.1,0.5,0.2,0.7,0.3c0.2,0.1,0.4,0.2,0.5,0.4c0.1,0.1,0.3,0.3,0.3,0.5c0.1,0.2,0.1,0.4,0.1,0.6c0,0.3-0.1,0.5-0.2,0.8
						c-0.1,0.2-0.3,0.4-0.5,0.5c-0.2,0.2-0.5,0.3-0.8,0.3c-0.3,0.1-0.6,0.1-0.9,0.1C236.8,147.4,236.2,147.3,235.7,147z"/>
					<path class="st14" d="M247.3,147.2c-0.3,0.1-0.6,0.2-0.9,0.2c-1.1,0-1.6-0.6-1.6-1.8V142h-1v-0.8h1v-1.5l1-0.3v1.8h1.5v0.8
						h-1.5v3.4c0,0.3,0,0.6,0.2,0.9c0.2,0.2,0.4,0.3,0.7,0.3c0.2,0,0.4-0.1,0.6-0.2L247.3,147.2z"/>
					<path class="st14" d="M250.9,147.4c-0.8,0-1.6-0.3-2.1-0.8c-0.5-0.6-0.8-1.4-0.8-2.2c0-0.9,0.2-1.7,0.8-2.4
						c0.6-0.6,1.4-0.9,2.2-0.9c0.8,0,1.5,0.3,2.1,0.8c0.5,0.6,0.8,1.5,0.8,2.3c0,0.8-0.3,1.7-0.8,2.3
						C252.5,147.1,251.7,147.4,250.9,147.4z M251,141.9c-0.6,0-1.1,0.2-1.5,0.6c-0.4,0.5-0.6,1.1-0.5,1.7c0,0.6,0.2,1.2,0.6,1.7
						c0.4,0.4,0.9,0.6,1.5,0.6c0.5,0,1.1-0.2,1.4-0.6c0.7-1.1,0.7-2.4,0-3.4C252.1,142.1,251.5,141.9,251,141.9z"/>
					<path class="st14" d="M260.4,147.2H259l-2.6-2.9l0,0v2.9h-1v-8.9h1v5.7l0,0l2.5-2.8h1.3l-2.8,2.9L260.4,147.2z"/>
					<path class="st14" d="M265.9,144.5h-4.2c0,0.6,0.2,1.1,0.5,1.6c0.4,0.4,0.9,0.6,1.4,0.5c0.7,0,1.3-0.2,1.9-0.7v0.9
						c-0.6,0.4-1.4,0.6-2.1,0.6c-0.8,0-1.5-0.3-2-0.8c-0.5-0.6-0.8-1.5-0.7-2.3c0-0.8,0.3-1.6,0.8-2.3c0.5-0.6,1.2-0.9,2-0.9
						c0.7,0,1.4,0.2,1.8,0.8c0.5,0.6,0.7,1.4,0.6,2.1L265.9,144.5z M264.9,143.7c0-0.5-0.1-0.9-0.4-1.3c-0.3-0.3-0.7-0.5-1.1-0.5
						c-0.4,0-0.9,0.2-1.1,0.5c-0.3,0.3-0.5,0.8-0.6,1.3L264.9,143.7z"/>
					<path class="st14" d="M272.3,147.2h-1v-3.4c0-1.3-0.5-1.9-1.4-1.9c-0.5,0-0.9,0.2-1.2,0.5c-0.3,0.4-0.5,0.9-0.5,1.4v3.4h-1v-6
						h1v1l0,0c0.4-0.7,1.2-1.2,2-1.1c0.6,0,1.1,0.2,1.5,0.6c0.4,0.5,0.6,1.2,0.5,1.8L272.3,147.2z"/>
				</g>
				<g>
					<path class="st14" d="M212.8,133h-1v-3.8h-4.4v3.8h-1v-8.4h1v3.7h4.4v-3.7h1V133z"/>
					<path class="st14" d="M219.8,125.5h-2.4v7.5h-1v-7.5H214v-0.9h5.8L219.8,125.5z"/>
					<path class="st14" d="M226.4,125.5H224v7.5h-1v-7.5h-2.4v-0.9h5.8V125.5z"/>
					<path class="st14" d="M228.6,129.8v3.2h-1v-8.4h2.3c0.8-0.1,1.5,0.2,2.1,0.7c0.5,0.5,0.8,1.2,0.7,1.8c0,0.8-0.3,1.5-0.8,2
						c-0.6,0.5-1.4,0.8-2.2,0.8L228.6,129.8z M228.6,125.5v3.5h1c0.6,0,1.1-0.1,1.6-0.5c0.4-0.3,0.6-0.8,0.5-1.3
						c0-1.1-0.7-1.7-2-1.7L228.6,125.5z"/>
					<path class="st14" d="M243.9,132.4c-0.9,0.5-1.8,0.7-2.8,0.7c-1.1,0-2.1-0.4-2.9-1.2c-0.8-0.8-1.2-1.9-1.1-3.1
						c0-1.2,0.4-2.3,1.2-3.2c0.8-0.8,2-1.3,3.1-1.3c0.8,0,1.6,0.1,2.3,0.4v1.1c-0.7-0.4-1.6-0.7-2.4-0.7c-0.9,0-1.7,0.3-2.3,1
						c-1.2,1.5-1.2,3.5-0.1,5c0.6,0.6,1.4,1,2.3,0.9c0.6,0,1.2-0.1,1.7-0.4v-2.4h-1.8v-0.9h2.8L243.9,132.4z"/>
					<path class="st14" d="M250.2,133h-4.4v-8.4h4.3v0.9h-3.3v2.8h3v0.9h-3v2.9h3.5V133z"/>
					<path class="st14" d="M256.9,125.5h-2.4v7.5h-1v-7.5h-2.4v-0.9h5.8L256.9,125.5z"/>
					<path class="st14" d="M267.3,129.9h-2.4v2.4h-0.8v-2.4h-2.4v-0.8h2.4v-2.4h0.8v2.4h2.4V129.9z"/>
				</g>
			</g>
		</g>
		
			<use xlink:href="#New_Symbol_45"  width="20" height="20" x="-10" y="-10" transform="matrix(1 0 0 1 168.91 155.21)" style="overflow:visible;"/>
		
			<use xlink:href="#New_Symbol_44"  width="20" height="20" x="-10" y="-10" transform="matrix(1 0 0 1 168.91 105.67)" style="overflow:visible;"/>
		
			<use xlink:href="#New_Symbol_43"  width="20" height="20" x="-10" y="-10" transform="matrix(1 0 0 1 168.91 74.93)" style="overflow:visible;"/>
		<g>
			<path class="st14" d="M191.8,190.2h-1v-3.8h-4.4v3.8h-1v-8.4h1v3.7h4.4v-3.7h1V190.2z"/>
			<path class="st14" d="M198.8,182.7h-2.4v7.5h-1v-7.5H193v-0.9h5.8L198.8,182.7z"/>
			<path class="st14" d="M205.4,182.7H203v7.5h-1v-7.5h-2.4v-0.9h5.8L205.4,182.7z"/>
			<path class="st14" d="M207.6,187v3.2h-1v-8.4h2.4c0.8-0.1,1.5,0.2,2.1,0.7c0.5,0.5,0.8,1.2,0.7,1.9c0,0.8-0.3,1.5-0.8,2
				c-0.6,0.5-1.4,0.8-2.2,0.8L207.6,187z M207.6,182.7v3.4h1c0.6,0,1.1-0.1,1.6-0.5c0.4-0.3,0.6-0.8,0.5-1.3c0-1.1-0.7-1.7-2-1.7
				H207.6z"/>
			<path class="st14" d="M219.6,185.2c-0.2-0.1-0.5-0.2-0.7-0.2c-0.4,0-0.8,0.2-1,0.6c-0.3,0.5-0.4,1-0.4,1.6v3.1h-1v-6h1v1.2l0,0
				c0.1-0.4,0.3-0.7,0.6-1c0.3-0.2,0.6-0.4,0.9-0.4c0.2,0,0.4,0,0.6,0.1L219.6,185.2z"/>
			<path class="st14" d="M225.5,187.4h-4.2c0,0.6,0.2,1.1,0.5,1.5c0.4,0.4,0.9,0.6,1.4,0.6c0.7,0,1.3-0.2,1.9-0.7v0.9
				c-0.6,0.4-1.3,0.6-2.1,0.6c-0.8,0-1.5-0.3-2-0.8c-0.5-0.6-0.8-1.5-0.7-2.3c0-0.8,0.3-1.6,0.8-2.3c0.5-0.6,1.2-0.9,2-0.9
				c0.7,0,1.4,0.2,1.8,0.8c0.5,0.6,0.7,1.4,0.6,2.1L225.5,187.4z M224.5,186.6c0-0.5-0.1-0.9-0.4-1.3c-0.3-0.3-0.7-0.5-1.1-0.5
				c-0.4,0-0.9,0.2-1.1,0.5c-0.3,0.3-0.5,0.8-0.6,1.3L224.5,186.6z"/>
			<path class="st14" d="M226.6,190v-1c0.5,0.4,1.1,0.6,1.7,0.6c0.8,0,1.3-0.3,1.3-0.8c0-0.1,0-0.3-0.1-0.4
				c-0.1-0.1-0.2-0.2-0.3-0.3c-0.1-0.1-0.3-0.2-0.4-0.2l-0.5-0.2l-0.7-0.3c-0.2-0.1-0.4-0.2-0.5-0.4c-0.1-0.1-0.2-0.3-0.3-0.5
				c-0.1-0.2-0.1-0.4-0.1-0.6c0-0.3,0.1-0.5,0.2-0.8c0.1-0.2,0.3-0.4,0.5-0.5c0.2-0.2,0.5-0.3,0.7-0.3c0.3-0.1,0.6-0.1,0.9-0.1
				c0.5,0,1,0.1,1.4,0.3v1c-0.5-0.3-1-0.4-1.5-0.4c-0.2,0-0.3,0-0.5,0.1c-0.1,0-0.3,0.1-0.4,0.2c-0.1,0.1-0.2,0.2-0.2,0.3
				c-0.1,0.1-0.1,0.2-0.1,0.3c0,0.1,0,0.3,0.1,0.4c0.1,0.1,0.1,0.2,0.3,0.3c0.1,0.1,0.3,0.2,0.4,0.2l0.5,0.2
				c0.2,0.1,0.5,0.2,0.7,0.3c0.2,0.1,0.4,0.2,0.5,0.4c0.3,0.3,0.5,0.7,0.5,1.1c0,0.3-0.1,0.5-0.2,0.8c-0.1,0.2-0.3,0.4-0.5,0.6
				c-0.2,0.1-0.5,0.3-0.8,0.3c-0.3,0.1-0.6,0.1-0.9,0.1C227.6,190.4,227.1,190.3,226.6,190z"/>
			<path class="st14" d="M232.9,189.3L232.9,189.3v3.7h-1v-8.8h1v1l0,0c0.4-0.8,1.2-1.2,2.1-1.2c0.7,0,1.4,0.3,1.8,0.8
				c0.5,0.6,0.7,1.4,0.6,2.2c0,0.9-0.2,1.7-0.7,2.4c-0.5,0.6-1.2,0.9-2,0.9C234,190.4,233.3,190,232.9,189.3z M232.9,186.9v0.8
				c0,0.5,0.2,0.9,0.5,1.3c0.3,0.3,0.8,0.5,1.2,0.5c0.5,0,1.1-0.2,1.4-0.7c0.4-0.5,0.5-1.2,0.5-1.9c0-0.6-0.1-1.1-0.5-1.6
				c-0.3-0.4-0.8-0.6-1.3-0.6c-0.5,0-1,0.2-1.4,0.6C233.1,185.9,232.9,186.4,232.9,186.9L232.9,186.9z"/>
			<path class="st14" d="M241.5,190.4c-0.8,0-1.6-0.3-2.1-0.8c-0.5-0.6-0.8-1.4-0.8-2.2c-0.1-0.9,0.2-1.7,0.8-2.4
				c0.6-0.6,1.4-0.9,2.2-0.9c0.8,0,1.5,0.3,2.1,0.8c0.5,0.6,0.8,1.5,0.8,2.3c0,0.8-0.2,1.7-0.8,2.3
				C243.1,190.1,242.3,190.4,241.5,190.4z M241.6,184.9c-0.6,0-1.1,0.2-1.5,0.6c-0.4,0.5-0.6,1.1-0.5,1.7c0,0.6,0.2,1.2,0.5,1.7
				c0.4,0.4,0.9,0.6,1.5,0.6c0.5,0,1.1-0.2,1.4-0.6c0.4-0.5,0.5-1.1,0.5-1.7c0-0.6-0.1-1.2-0.5-1.7
				C242.7,185.1,242.1,184.8,241.6,184.9L241.6,184.9z"/>
			<path class="st14" d="M251,190.2h-1v-3.4c0-1.3-0.5-1.9-1.4-1.9c-0.5,0-0.9,0.2-1.2,0.6c-0.3,0.4-0.5,0.9-0.5,1.4v3.4h-1v-6h1v1
				l0,0c0.4-0.7,1.2-1.2,2-1.1c0.6,0,1.1,0.2,1.5,0.6c0.4,0.5,0.6,1.2,0.5,1.8L251,190.2z"/>
			<path class="st14" d="M252.4,190v-1c0.5,0.4,1.1,0.6,1.7,0.6c0.8,0,1.3-0.3,1.3-0.8c0-0.1,0-0.3-0.1-0.4
				c-0.1-0.1-0.2-0.2-0.3-0.3c-0.1-0.1-0.3-0.2-0.4-0.2l-0.5-0.2l-0.7-0.3c-0.2-0.1-0.4-0.2-0.5-0.4c-0.1-0.1-0.2-0.3-0.3-0.5
				c-0.1-0.2-0.1-0.4-0.1-0.6c0-0.3,0.1-0.5,0.2-0.8c0.1-0.2,0.3-0.4,0.5-0.5c0.2-0.2,0.5-0.3,0.7-0.3c0.3-0.1,0.6-0.1,0.9-0.1
				c0.5,0,1,0.1,1.4,0.3v1c-0.5-0.3-1-0.4-1.5-0.4c-0.2,0-0.3,0-0.5,0.1c-0.1,0-0.3,0.1-0.4,0.2c-0.1,0.1-0.2,0.2-0.2,0.3
				c-0.1,0.1-0.1,0.2-0.1,0.3c0,0.1,0,0.3,0.1,0.4c0.1,0.1,0.1,0.2,0.3,0.3c0.1,0.1,0.3,0.2,0.4,0.2l0.5,0.2
				c0.2,0.1,0.5,0.2,0.7,0.3c0.2,0.1,0.4,0.2,0.5,0.4c0.1,0.1,0.3,0.3,0.3,0.5c0.1,0.2,0.1,0.4,0.1,0.6c0,0.3-0.1,0.5-0.2,0.8
				c-0.1,0.2-0.3,0.4-0.5,0.6c-0.2,0.1-0.5,0.3-0.8,0.3c-0.3,0.1-0.6,0.1-0.9,0.1C253.4,190.4,252.9,190.3,252.4,190z"/>
			<path class="st14" d="M262.6,187.4h-4.2c0,0.6,0.2,1.1,0.5,1.5c0.4,0.4,0.9,0.6,1.4,0.6c0.7,0,1.3-0.2,1.9-0.7v0.9
				c-0.6,0.4-1.3,0.6-2.1,0.6c-0.8,0-1.5-0.3-2-0.8c-1-1.4-1-3.2,0.1-4.6c0.5-0.6,1.2-0.9,2-0.9c0.7,0,1.4,0.2,1.8,0.8
				c0.5,0.6,0.7,1.4,0.6,2.1L262.6,187.4z M261.6,186.6c0-0.5-0.1-0.9-0.4-1.3c-0.3-0.3-0.7-0.5-1.1-0.5c-0.4,0-0.9,0.2-1.2,0.5
				c-0.3,0.4-0.5,0.8-0.6,1.3L261.6,186.6z"/>
		</g>
	</g>
</g>
<g id="bg">
	<g id="Shapes_1_">
		<rect class="st1" width="474.7" height="206.7"/>
		<rect y="10.4" class="st4" width="105" height="155"/>
		<rect x="369.7" y="10.4" class="st5" width="105" height="115"/>
		<rect x="369.7" y="130.4" class="st6" width="105" height="70"/>
		<g>
			<line class="st7" x1="105" y1="15.4" x2="364.2" y2="15.4"/>
			<polygon points="363.1,19.1 369.5,15.4 363.1,11.7 			"/>
		</g>
		<g>
			<line class="st7" x1="110.4" y1="45.3" x2="369.5" y2="45.3"/>
			<polygon points="111.5,49 105,45.3 111.5,41.5 			"/>
		</g>
		<g>
			<line class="st7" x1="105" y1="74.9" x2="364.2" y2="74.9"/>
			<polygon points="363.1,78.7 369.5,74.9 363.1,71.2 			"/>
		</g>
		<g>
			<line class="st7" x1="110.4" y1="105.2" x2="369.5" y2="105.2"/>
			<polygon points="111.5,108.9 105,105.2 111.5,101.4 			"/>
		</g>
		<g>
			<line class="st7" x1="105" y1="154.5" x2="364.2" y2="154.5"/>
			<polygon points="363.1,158.2 369.5,154.5 363.1,150.7 			"/>
		</g>
		<g>
			<path class="st7" d="M369.5,195.4l-308.4-0.8c-5.5,0-10-4.5-10-10v-13.9"/>
			<polygon points="54.8,171.9 51.1,165.4 47.4,171.9 			"/>
		</g>
		<polygon class="st8" points="192.6,25.8 185,31.3 187.9,40.1 197.2,40.1 200.1,31.3 		"/>
		<polygon class="st8" points="192.6,86 185,91.4 187.9,100.2 197.2,100.2 200.1,91.4 		"/>
		
			<use xlink:href="#New_Symbol_46"  width="20" height="20" x="-10" y="-10" transform="matrix(1 0 0 1 168.91 195.41)" style="overflow:visible;"/>
		<g>
			<g>
				<path class="st9" d="M87.9,44.9v50.3h-70V44.9c0-2.4,1.9-4.4,4.4-4.4c0,0,0,0,0,0h61.3C85.9,40.6,87.9,42.5,87.9,44.9z"/>
				<circle cx="24.4" cy="46" r="2.2"/>
				<circle class="st10" cx="31" cy="46" r="2.2"/>
				<circle class="st10" cx="37.5" cy="46" r="2.2"/>
				<path class="st11" d="M87.9,44.9v42.7l-4.4-4.4l-2.2-27.3L55,54.8L40.8,40.6h42.7C85.9,40.6,87.9,42.5,87.9,44.9z"/>
				<rect x="21.1" y="50.4" class="st12" width="63.4" height="41.6"/>
				<path class="st1" d="M69.1,57.7H26.4v-2.1h42.7V57.7z"/>
				<polygon class="st13" points="84.6,50.4 84.6,84.3 50.7,50.4 				"/>
				<path class="st1" d="M78,58.5l-0.6-1.4c0-0.1-0.1-0.2-0.1-0.3c0-0.1,0-0.2,0-0.2l0,0c0,0.1,0,0.1,0,0.2c0,0.1,0,0.2-0.1,0.3
					l-0.6,1.3h-1.9l1.5-2.5l-1.4-2.5h1.8l0.5,1.3c0,0.2,0.1,0.3,0.1,0.5l0,0c0-0.2,0.1-0.3,0.1-0.5l0.6-1.3h1.7L78.3,56l1.5,2.5
					L78,58.5z"/>
			</g>
			<g>
				<path class="st1" d="M49.2,76.1c0.1,2.1-0.5,4.1-1.8,5.7c-1.2,1.4-3,2.1-4.8,2c-0.8,0-1.6-0.1-2.3-0.3v-3.2
					c0.6,0.4,1.4,0.6,2.1,0.6c2.3,0,3.4-1.8,3.4-5.3V62.8h3.4L49.2,76.1z"/>
				<path class="st1" d="M52.3,82.6v-3.5c0.3,0.3,0.7,0.6,1.1,0.8c0.4,0.2,0.9,0.4,1.4,0.6c0.5,0.2,1,0.3,1.5,0.4
					c0.4,0.1,0.9,0.1,1.3,0.1c1.1,0.1,2.2-0.2,3.2-0.7c0.7-0.5,1.1-1.3,1.1-2.1c0-0.4-0.1-0.9-0.3-1.3c-0.3-0.4-0.6-0.7-1-1
					c-0.5-0.3-1-0.6-1.5-0.9c-0.6-0.3-1.2-0.6-1.8-0.9s-1.3-0.8-2-1.1c-0.6-0.4-1.1-0.8-1.6-1.3c-0.4-0.5-0.8-1-1-1.6
					c-0.3-0.6-0.4-1.3-0.4-2c0-0.9,0.2-1.8,0.7-2.5c0.4-0.7,1-1.3,1.7-1.8c0.8-0.5,1.6-0.8,2.4-1c0.9-0.2,1.8-0.3,2.8-0.3
					c1.6-0.1,3.2,0.2,4.7,0.7v3.4c-1.3-0.9-2.9-1.3-4.5-1.3c-0.5,0-1,0.1-1.5,0.2c-0.5,0.1-0.9,0.2-1.4,0.5c-0.4,0.2-0.7,0.5-1,0.8
					c-0.2,0.3-0.4,0.7-0.4,1.2c0,0.4,0.1,0.8,0.3,1.2c0.2,0.4,0.5,0.7,0.8,0.9c0.4,0.3,0.9,0.6,1.3,0.8c0.5,0.3,1.2,0.6,1.8,0.9
					s1.4,0.8,2,1.2c0.6,0.4,1.2,0.9,1.7,1.4c0.5,0.5,0.9,1,1.2,1.7c0.3,0.7,0.4,1.4,0.4,2.1c0.1,1.8-0.8,3.5-2.3,4.4
					c-0.8,0.5-1.6,0.8-2.5,1c-1,0.2-2,0.3-3,0.3c-0.3,0-0.8,0-1.3-0.1s-1-0.1-1.5-0.2s-1-0.2-1.5-0.4C53,83,52.6,82.8,52.3,82.6z"/>
			</g>
		</g>
	</g>
	<g id="Text_1_">
		
			<use xlink:href="#New_Symbol_41"  width="20" height="20" x="-10" y="-10" transform="matrix(1 0 0 1 168.91 15.41)" style="overflow:visible;"/>
		
			<use xlink:href="#New_Symbol_42"  width="20" height="20" x="-10" y="-10" transform="matrix(1 0 0 1 168.91 45.29)" style="overflow:visible;"/>
		
			<use xlink:href="#New_Symbol_45"  width="20" height="20" x="-10" y="-10" transform="matrix(1 0 0 1 168.91 155.21)" style="overflow:visible;"/>
		
			<use xlink:href="#New_Symbol_44"  width="20" height="20" x="-10" y="-10" transform="matrix(1 0 0 1 168.91 105.67)" style="overflow:visible;"/>
		
			<use xlink:href="#New_Symbol_43"  width="20" height="20" x="-10" y="-10" transform="matrix(1 0 0 1 168.91 74.93)" style="overflow:visible;"/>
	</g>
	<polygon class="st8" points="192.6,133.8 185,139.2 187.9,148 197.2,148 200.1,139.2 	"/>
</g>
<g id="txt">
	<g>
		<rect x="20.1" y="105.8" class="st15" width="64.5" height="30.5"/>
		<path class="st16" d="M27.3,112c0,1.1-0.2,2-0.7,2.6s-1.2,0.9-2,0.9c-0.4,0-0.7-0.1-1-0.2V114c0.3,0.2,0.6,0.3,1,0.3
			c0.9,0,1.4-0.8,1.4-2.3v-5.7h1.4V112z"/>
		<path class="st16" d="M29.3,109.3c0.7-0.4,1.4-0.6,2.3-0.6c1.6,0,2.5,0.8,2.5,2.5v4.1h-1.3v-1h0c-0.4,0.8-1.1,1.1-2,1.1
			c-0.6,0-1.1-0.2-1.5-0.5s-0.5-0.8-0.5-1.4c0-1.2,0.7-1.9,2.2-2.1l1.9-0.3c0-1-0.4-1.4-1.3-1.4c-0.8,0-1.5,0.3-2.1,0.8V109.3z
			 M31.3,112.4c-0.5,0.1-0.8,0.2-1,0.4s-0.3,0.4-0.3,0.8c0,0.3,0.1,0.5,0.3,0.7s0.5,0.3,0.8,0.3c0.5,0,0.8-0.2,1.1-0.5
			s0.5-0.7,0.5-1.2v-0.6L31.3,112.4z"/>
		<path class="st16" d="M41.4,108.9l-2.5,6.5h-1.5l-2.4-6.5h1.5l1.5,4.5c0.1,0.4,0.2,0.7,0.2,1h0c0-0.3,0.1-0.6,0.2-1l1.5-4.5H41.4z
			"/>
		<path class="st16" d="M42.3,109.3c0.7-0.4,1.4-0.6,2.3-0.6c1.6,0,2.5,0.8,2.5,2.5v4.1h-1.3v-1h0c-0.4,0.8-1.1,1.1-2,1.1
			c-0.6,0-1.1-0.2-1.5-0.5s-0.5-0.8-0.5-1.4c0-1.2,0.7-1.9,2.2-2.1l1.9-0.3c0-1-0.4-1.4-1.3-1.4c-0.8,0-1.5,0.3-2.1,0.8V109.3z
			 M44.3,112.4c-0.5,0.1-0.8,0.2-1,0.4s-0.3,0.4-0.3,0.8c0,0.3,0.1,0.5,0.3,0.7s0.5,0.3,0.8,0.3c0.5,0,0.8-0.2,1.1-0.5
			s0.5-0.7,0.5-1.2v-0.6L44.3,112.4z"/>
		<path class="st16" d="M48.6,113.5c0.7,0.6,1.5,0.8,2.5,0.8c1.2,0,1.8-0.4,1.8-1.2c0-0.2-0.1-0.5-0.2-0.6s-0.3-0.4-0.5-0.5
			s-0.7-0.4-1.3-0.7c-0.8-0.4-1.4-0.8-1.7-1.2s-0.5-0.9-0.5-1.4c0-0.8,0.3-1.4,0.9-1.8s1.4-0.7,2.4-0.7c0.9,0,1.6,0.1,2.1,0.3v1.4
			c-0.6-0.4-1.3-0.6-2.1-0.6c-0.5,0-1,0.1-1.3,0.3s-0.5,0.5-0.5,0.9c0,0.3,0.1,0.6,0.4,0.8s0.7,0.5,1.5,0.9c0.9,0.4,1.5,0.8,1.9,1.3
			s0.5,0.9,0.5,1.5c0,0.8-0.3,1.4-0.9,1.9s-1.4,0.7-2.5,0.7c-0.4,0-0.8,0-1.3-0.1s-0.8-0.2-1.1-0.4V113.5z"/>
		<path class="st16" d="M60.5,115.1c-0.5,0.3-1.1,0.4-1.8,0.4c-0.9,0-1.7-0.3-2.3-0.9s-0.9-1.4-0.9-2.3c0-1.1,0.3-1.9,0.9-2.6
			s1.5-1,2.5-1c0.6,0,1.2,0.1,1.6,0.3v1.3c-0.5-0.3-1-0.5-1.5-0.5c-0.6,0-1.1,0.2-1.5,0.6s-0.6,1-0.6,1.7c0,0.7,0.2,1.2,0.6,1.6
			s0.9,0.6,1.5,0.6c0.5,0,1.1-0.2,1.5-0.5V115.1z"/>
		<path class="st16" d="M65.6,110.2c-0.2-0.1-0.5-0.2-0.8-0.2c-0.4,0-0.8,0.2-1.1,0.6s-0.4,0.9-0.4,1.6v3.2H62v-6.5h1.4v1.3h0
			c0.3-0.9,0.9-1.4,1.7-1.4c0.2,0,0.4,0,0.6,0.1V110.2z"/>
		<path class="st16" d="M66.5,106.7c0-0.2,0.1-0.4,0.2-0.6s0.4-0.2,0.6-0.2c0.2,0,0.4,0.1,0.6,0.2s0.2,0.3,0.2,0.6s-0.1,0.4-0.2,0.6
			s-0.4,0.2-0.6,0.2s-0.4-0.1-0.6-0.2S66.5,106.9,66.5,106.7z M66.7,115.4v-6.5h1.4v6.5H66.7z"/>
		<path class="st16" d="M71.4,114.5v3.9H70v-9.5h1.4v1.1h0c0.5-0.8,1.2-1.2,2.2-1.2c0.8,0,1.5,0.3,1.9,0.9s0.7,1.4,0.7,2.3
			c0,1.1-0.3,1.9-0.8,2.6s-1.3,1-2.2,1C72.5,115.5,71.8,115.2,71.4,114.5L71.4,114.5z M71.4,112.7c0,0.5,0.2,0.9,0.5,1.3
			s0.7,0.5,1.2,0.5c0.6,0,1-0.2,1.3-0.7s0.5-1,0.5-1.8c0-0.7-0.1-1.2-0.4-1.5s-0.7-0.5-1.2-0.5s-1,0.2-1.3,0.6s-0.5,0.9-0.5,1.5
			V112.7z"/>
		<path class="st16" d="M81.1,115.3c-0.3,0.1-0.6,0.2-1.1,0.2c-1.2,0-1.8-0.7-1.8-2V110H77v-1.1h1.1v-1.5l1.4-0.4v1.9h1.6v1.1h-1.6
			v3.3c0,0.4,0.1,0.7,0.2,0.9s0.4,0.3,0.7,0.3c0.2,0,0.5-0.1,0.7-0.2V115.3z"/>
		<path class="st16" d="M42,127.9c0.7,0.6,1.5,0.8,2.5,0.8c1.2,0,1.8-0.4,1.8-1.2c0-0.2-0.1-0.5-0.2-0.6s-0.3-0.4-0.5-0.5
			s-0.7-0.4-1.3-0.7c-0.8-0.4-1.4-0.8-1.7-1.2s-0.5-0.9-0.5-1.4c0-0.8,0.3-1.4,0.9-1.8s1.4-0.7,2.4-0.7c0.9,0,1.6,0.1,2.1,0.3v1.4
			c-0.6-0.4-1.3-0.6-2.1-0.6c-0.5,0-1,0.1-1.3,0.3s-0.5,0.5-0.5,0.9c0,0.3,0.1,0.6,0.4,0.8s0.7,0.5,1.5,0.9c0.9,0.4,1.5,0.8,1.9,1.3
			s0.5,0.9,0.5,1.5c0,0.8-0.3,1.4-0.9,1.9s-1.4,0.7-2.5,0.7c-0.4,0-0.8,0-1.3-0.1s-0.8-0.2-1.1-0.4V127.9z"/>
		<path class="st16" d="M50.9,126.5v3.3h-1.4v-9.1h2.7c1,0,1.8,0.2,2.4,0.7s0.8,1.2,0.8,2.1c0,0.9-0.3,1.6-1,2.2s-1.5,0.8-2.4,0.8
			H50.9z M50.9,121.9v3.4h1c1.4,0,2-0.6,2-1.7c0-1.1-0.7-1.7-2-1.7H50.9z"/>
		<path class="st16" d="M63.3,129.8h-1.5l-0.8-2.4h-3.6l-0.8,2.4h-1.5l3.4-9.1h1.6L63.3,129.8z M60.5,126.3l-1.3-3.6
			c0-0.1-0.1-0.4-0.1-0.7h0c0,0.3-0.1,0.5-0.1,0.7l-1.3,3.6H60.5z"/>
	</g>
	<g>
		<g>
			<path class="st17" d="M213.5,133.8h-1v-4.2h-4.8v4.2h-1v-9.1h1v4h4.8v-4h1V133.8z"/>
			<path class="st17" d="M221.1,125.6h-2.6v8.2h-1v-8.2h-2.6v-0.9h6.2V125.6z"/>
			<path class="st17" d="M228,125.6h-2.6v8.2h-1v-8.2h-2.6v-0.9h6.2V125.6z"/>
			<path class="st17" d="M230.4,130.3v3.4h-1v-9.1h2.4c0.9,0,1.7,0.2,2.2,0.7s0.8,1.1,0.8,2c0,0.9-0.3,1.6-0.9,2.2s-1.4,0.8-2.3,0.8
				H230.4z M230.4,125.6v3.8h1.1c0.7,0,1.3-0.2,1.7-0.5s0.6-0.8,0.6-1.4c0-1.2-0.7-1.8-2.2-1.8H230.4z"/>
			<path class="st17" d="M246.2,133.1c-0.9,0.5-1.9,0.8-3,0.8c-1.3,0-2.3-0.4-3.1-1.3s-1.2-1.9-1.2-3.3c0-1.4,0.4-2.5,1.3-3.5
				s2-1.4,3.4-1.4c1,0,1.8,0.2,2.5,0.5v1.1c-0.7-0.5-1.6-0.7-2.6-0.7c-1,0-1.9,0.4-2.5,1.1s-1,1.6-1,2.8c0,1.2,0.3,2.1,0.9,2.7
				s1.4,1,2.5,1c0.7,0,1.4-0.1,1.9-0.4V130h-2V129h3V133.1z"/>
			<path class="st17" d="M253,133.8h-4.8v-9.1h4.6v0.9h-3.6v3.1h3.3v0.9h-3.3v3.2h3.8V133.8z"/>
			<path class="st17" d="M260,125.6h-2.6v8.2h-1v-8.2h-2.6v-0.9h6.2V125.6z"/>
			<path class="st17" d="M270.5,130.4H268v2.6h-0.8v-2.6h-2.6v-0.8h2.6V127h0.8v2.6h2.6V130.4z"/>
			<path class="st17" d="M216.8,140h-6.2c-0.4,0.9-1,1.7-1.6,2.5v6h-0.7v-5.2c-0.6,0.6-1.2,1.1-1.7,1.4l-0.2-0.6
				c1.5-1.2,2.7-2.5,3.5-4.2h-3.5v-0.6h3.8c0.2-0.4,0.4-0.8,0.6-1.4l0.6,0.2c-0.2,0.5-0.4,0.9-0.6,1.2h5.9V140z M216.8,145.3h-3v2.4
				c0,0.2-0.1,0.4-0.2,0.5s-0.2,0.3-0.4,0.3s-0.5,0.1-1.1,0.1c-0.3,0-0.6,0-0.9,0l-0.3-0.6c0.3,0,0.6,0,1,0c0.6,0,1,0,1.1-0.1
				s0.2-0.1,0.2-0.2v-2.3h-3.6v-0.6h3.6v-0.9c0.6-0.4,1.2-0.9,1.9-1.6h-4.7v-0.6h5.6v0.6c-0.8,0.8-1.5,1.4-2.2,1.8v0.6h3V145.3z"/>
			<path class="st17" d="M223.9,138.8h-1v9.8h-0.6v-2.5c-1,0.4-2.3,0.7-3.9,1.1l-0.2-0.6l1.1-0.2v-7.6h-1.1v-0.6h5.7V138.8z
				 M222.3,140.7v-1.9h-2.4v1.9H222.3z M222.3,143.2v-1.9h-2.4v1.9H222.3z M222.3,145.5v-1.6h-2.4v2.4
				C220.6,146.1,221.4,145.8,222.3,145.5z M228.7,148.1l-0.4,0.5c-0.8-0.7-1.5-1.4-2.1-2.2c-0.7,0.9-1.5,1.6-2.3,2.2l-0.4-0.5
				c0.8-0.6,1.6-1.3,2.3-2.3c-1-1.7-1.6-3.7-1.8-6h-0.4v-0.6h4.6c0,2.6-0.6,4.8-1.7,6.6c0.1,0.3,0.5,0.7,0.9,1.2
				S228.4,147.9,228.7,148.1z M227.6,139.9h-2.9c0.1,2,0.6,3.8,1.5,5.4C227,143.8,227.5,142,227.6,139.9z"/>
			<path class="st17" d="M233.9,143.2l-0.4,0.5c-0.2-0.4-0.5-0.8-0.9-1.3v6.1H232v-6.1c-0.4,1.1-0.9,2-1.4,2.8l-0.4-0.5
				c0.7-1.1,1.3-2.4,1.8-3.8h-1.6v-0.6h1.7v-2.3h0.6v2.3h1.1v0.6h-1.1v0.7C233.1,142.2,233.6,142.8,233.9,143.2z M240.6,148h-5.6
				v0.5h-0.6v-4c-0.3,0.3-0.6,0.6-0.9,0.9l-0.4-0.5c0.8-0.6,1.5-1.5,2-2.4l0.6,0.2c-0.1,0.2-0.3,0.5-0.4,0.7h2.1
				c-0.1-0.1-0.2-0.3-0.3-0.5l0.6-0.3c0.2,0.2,0.3,0.5,0.5,0.7h2.2v0.5h-2.5v0.8h2.2v0.5h-2.2v0.8h2.2v0.5h-2.2v0.9h2.8V148z
				 M236.5,140h-0.6v-0.5h-2.2v-0.6h2.2v-0.8h0.6V140z M236.8,142.3h-2.6v-2h2.6V142.3z M236.2,141.8v-0.9h-1.5v0.9H236.2z
				 M237.3,144.7v-0.8h-2.2v0.8H237.3z M237.3,146v-0.8h-2.2v0.8H237.3z M237.3,147.5v-0.9h-2.2v0.9H237.3z M240.2,142.3h-2.6v-2
				h2.6V142.3z M240.6,139.5h-2.1v0.5h-0.6v-1.9h0.6v0.8h2.1V139.5z M239.6,141.8v-0.9h-1.5v0.9H239.6z"/>
			<path class="st17" d="M246.5,143.6l-0.4,0.5c-0.5-0.7-1-1.3-1.4-1.7v6.1h-0.6v-6c-0.5,1.2-1.1,2.2-1.7,3l-0.4-0.5
				c0.8-1,1.5-2.4,2.1-4.1h-1.9v-0.6h1.9V138h0.6v2.4h1.4v0.6h-1.4v0.6C245.4,142.3,246,143,246.5,143.6z M252.6,148.1l-0.4,0.5
				c-1.3-0.6-2.4-1.2-3.2-2c-0.9,0.9-2,1.5-3.3,1.9l-0.4-0.6c1.4-0.4,2.5-1,3.3-1.8c-0.8-1.1-1.3-2.5-1.6-4.2l0.6-0.1
				c0.3,1.6,0.7,2.9,1.4,3.8c0.6-1,0.9-2.6,1-4.8h-3.3v-0.6h3.4c0-0.8,0-1.5,0-2.2h0.6c0,1,0,1.7,0,2.2h1.8v0.6h-1.9
				c0,2.4-0.4,4.2-1.1,5.3C250.2,146.9,251.3,147.6,252.6,148.1z"/>
		</g>
	</g>
	<g>
		<rect x="394.3" y="47.3" class="st15" width="58.1" height="39.9"/>
		<path class="st18" d="M404.7,56.9v-5.9c0-0.5,0-1.1,0.1-1.8h0c-0.1,0.5-0.2,0.8-0.3,1l-2.8,6.7h-0.9l-2.8-6.6
			c-0.1-0.2-0.2-0.5-0.3-1h0c0,0.5,0.1,1.2,0.1,2v5.7h-1.3v-9.1h2l2.5,6c0.2,0.5,0.3,0.9,0.4,1.2h0c0.1-0.2,0.2-0.6,0.4-1.2l2.5-6
			h1.9v9.1H404.7z"/>
		<path class="st18" d="M408.1,48.2c0-0.2,0.1-0.4,0.2-0.6s0.4-0.2,0.6-0.2c0.2,0,0.4,0.1,0.6,0.2s0.2,0.3,0.2,0.6s-0.1,0.4-0.2,0.6
			s-0.4,0.2-0.6,0.2s-0.4-0.1-0.6-0.2S408.1,48.4,408.1,48.2z M408.2,56.9v-6.5h1.4v6.5H408.2z"/>
		<path class="st18" d="M416.1,56.6c-0.5,0.3-1.1,0.4-1.8,0.4c-0.9,0-1.7-0.3-2.3-0.9s-0.9-1.4-0.9-2.3c0-1.1,0.3-1.9,0.9-2.6
			s1.5-1,2.5-1c0.6,0,1.2,0.1,1.6,0.3v1.3c-0.5-0.3-1-0.5-1.5-0.5c-0.6,0-1.1,0.2-1.5,0.6s-0.6,1-0.6,1.7c0,0.7,0.2,1.2,0.6,1.6
			s0.9,0.6,1.5,0.6c0.5,0,1.1-0.2,1.5-0.5V56.6z"/>
		<path class="st18" d="M421.3,51.8c-0.2-0.1-0.5-0.2-0.8-0.2c-0.4,0-0.8,0.2-1.1,0.6S419,53,419,53.7v3.2h-1.4v-6.5h1.4v1.3h0
			c0.3-0.9,0.9-1.4,1.7-1.4c0.2,0,0.4,0,0.6,0.1V51.8z"/>
		<path class="st18" d="M421.7,53.7c0-1.1,0.3-1.9,0.9-2.5s1.4-0.9,2.5-0.9c1,0,1.8,0.3,2.3,0.9s0.9,1.4,0.9,2.4
			c0,1-0.3,1.9-0.9,2.5s-1.4,0.9-2.4,0.9c-1,0-1.8-0.3-2.4-0.9S421.7,54.8,421.7,53.7z M423.1,53.7c0,0.7,0.2,1.3,0.5,1.7
			s0.8,0.6,1.4,0.6c1.2,0,1.9-0.8,1.9-2.3c0-0.7-0.2-1.3-0.5-1.7s-0.8-0.6-1.4-0.6s-1.1,0.2-1.4,0.6S423.1,53,423.1,53.7z"/>
		<path class="st18" d="M429.5,55.4c0.6,0.4,1.2,0.6,1.9,0.6c0.9,0,1.3-0.3,1.3-0.8c0-0.2-0.1-0.4-0.3-0.5s-0.6-0.3-1.2-0.6
			c-0.7-0.3-1.1-0.5-1.3-0.8s-0.3-0.6-0.3-1.1c0-0.6,0.3-1.1,0.8-1.4s1.1-0.5,1.9-0.5c0.6,0,1.1,0.1,1.6,0.3v1.2
			c-0.5-0.3-1-0.5-1.7-0.5c-0.3,0-0.6,0.1-0.8,0.2s-0.3,0.3-0.3,0.6c0,0.2,0.1,0.4,0.2,0.5s0.5,0.3,1.1,0.5c0.7,0.3,1.2,0.5,1.4,0.8
			s0.4,0.7,0.4,1.1c0,0.6-0.3,1.1-0.8,1.4s-1.2,0.5-2,0.5c-0.7,0-1.3-0.1-1.8-0.4V55.4z"/>
		<path class="st18" d="M435.1,53.7c0-1.1,0.3-1.9,0.9-2.5s1.4-0.9,2.5-0.9c1,0,1.8,0.3,2.3,0.9s0.9,1.4,0.9,2.4
			c0,1-0.3,1.9-0.9,2.5s-1.4,0.9-2.4,0.9c-1,0-1.8-0.3-2.4-0.9S435.1,54.8,435.1,53.7z M436.5,53.7c0,0.7,0.2,1.3,0.5,1.7
			s0.8,0.6,1.4,0.6c1.2,0,1.9-0.8,1.9-2.3c0-0.7-0.2-1.3-0.5-1.7s-0.8-0.6-1.4-0.6s-1.1,0.2-1.4,0.6S436.5,53,436.5,53.7z"/>
		<path class="st18" d="M446.6,48.5c-0.2-0.1-0.5-0.2-0.7-0.2c-0.7,0-1,0.4-1,1.3v0.9h1.5v1.1h-1.5v5.4h-1.4v-5.4h-1.1v-1.1h1.1v-1
			c0-0.7,0.2-1.3,0.6-1.7s1-0.6,1.6-0.6c0.3,0,0.6,0,0.8,0.1V48.5z"/>
		<path class="st18" d="M450.9,56.9c-0.3,0.1-0.6,0.2-1.1,0.2c-1.2,0-1.8-0.7-1.8-2v-3.5h-1.1v-1.1h1.1v-1.5l1.4-0.4v1.9h1.6v1.1
			h-1.6v3.3c0,0.4,0.1,0.7,0.2,0.9s0.4,0.3,0.7,0.3c0.2,0,0.5-0.1,0.7-0.2V56.9z"/>
		<path class="st18" d="M410.6,66.3c-0.4,0.5-1,1-1.6,1.5v2.9c0,0.4-0.1,0.7-0.3,0.8s-0.4,0.3-0.8,0.3s-1,0.1-2.1,0.1l-0.3-1
			c0.3,0,0.7,0,1,0c0.7,0,1.1,0,1.2-0.1s0.1-0.1,0.1-0.3v-2.1c-1.6,1.2-4.1,2.3-7.4,3.3l-0.5-0.9c2.3-0.6,4.6-1.5,6.9-2.6
			c-2,0.2-4.2,0.4-6.6,0.6l-0.3-1c0.1,0,0.5,0,1.2,0v-5.3h1.5c0.3-0.3,0.5-0.6,0.8-1.1l1.1,0.2c-0.2,0.3-0.4,0.6-0.6,0.8h4.8v4.1
			c0.3-0.2,0.6-0.6,1-1L410.6,66.3z M408,64.1v-0.8h-5.5v0.8H408z M408,65.7v-0.8h-5.5v0.8H408z M408,67.2v-0.6h-5.5v1.1
			C404.3,67.6,406.1,67.4,408,67.2z"/>
		<path class="st18" d="M416.4,61.8c-0.3,0.8-0.8,1.7-1.5,2.6s-1.4,1.7-2.2,2.2l-0.7-0.8c1.5-1,2.7-2.5,3.5-4.5L416.4,61.8z
			 M420.8,65.8c0,1.1,0,2.2-0.1,3.3s-0.2,1.8-0.3,2s-0.3,0.5-0.5,0.6s-0.5,0.2-0.8,0.2c-0.7,0-1.3,0-1.5,0l-0.4-1.1
			c0.6,0,1.1,0.1,1.8,0.1c0.1,0,0.3,0,0.4-0.1s0.2-0.6,0.3-1.5s0.1-1.7,0.1-2.5H417c-0.3,2.4-1.6,4.1-3.8,5.2l-0.8-0.8
			c0.8-0.3,1.6-0.9,2.3-1.6s1.1-1.7,1.2-2.8H414v-1.1H420.8z M422.6,65.8l-0.7,0.9c-1.5-1.3-2.5-2.6-3-4.1h-1.1v-1h1.8
			C420.1,63.3,421.1,64.7,422.6,65.8z"/>
		<path class="st18" d="M427.6,63.4h-3.4v-1h1.3c-0.1-0.3-0.2-0.6-0.4-0.9l1.1-0.3c0.1,0.2,0.3,0.6,0.5,1.2h0.9V63.4z M427.3,71.7
			h-1v-0.5h-0.9v0.7h-1v-4.1h2.9V71.7z M427.3,67h-2.9V66h2.9V67z M427.3,65.2h-2.9v-0.9h2.9V65.2z M426.3,70.2v-1.4h-0.9v1.4H426.3
			z M434.7,69.8c0,0.4-0.1,0.9-0.3,1.3s-0.3,0.7-0.5,0.8s-0.3,0.1-0.4,0.1c-0.5,0-0.9-0.5-1.1-1.4c-0.5,0.6-1,1-1.4,1.3l-0.7-0.7
			c0.3-0.2,0.5-0.4,0.8-0.7h-3v-4.4h3.2v4.2c0.3-0.3,0.6-0.6,0.8-0.9c-0.1-1.1-0.2-2.4-0.2-3.8h-4.2v-0.9h0.9
			c-0.1-0.5-0.2-0.9-0.4-1.4h-0.3v-0.9h1.3c-0.1-0.2-0.2-0.5-0.4-0.8l1.1-0.3c0.2,0.3,0.3,0.7,0.4,1.1h1.2v0.9h-0.3
			c-0.1,0.5-0.2,0.9-0.4,1.4h1c0-1.7,0-2.8,0-3.3l1,0c0,0.9-0.1,2-0.1,3.3h1.7v0.9h-1.7c0,1,0,1.7,0.1,2.3c0.2-0.5,0.4-1.1,0.6-1.9
			l0.9,0.4c-0.4,1.4-0.8,2.4-1.3,3.2c0.1,0.5,0.2,0.9,0.4,1.1c0.1-0.2,0.3-0.7,0.3-1.5L434.7,69.8z M430.3,67.9v-0.8H429v0.8H430.3z
			 M430.3,69.7v-0.9H429v0.9H430.3z M430.2,63.4h-1c0.1,0.4,0.3,0.9,0.4,1.4h0.3C430,64.3,430.2,63.8,430.2,63.4z M434.6,64.1
			l-0.9,0.4c-0.1-0.7-0.3-1.4-0.6-2.2l0.8-0.4C434.2,62.5,434.4,63.2,434.6,64.1z"/>
		<path class="st18" d="M442,66.9c-0.1,2.4-0.2,3.9-0.5,4.3s-0.7,0.7-1.4,0.7c-0.3,0-0.6,0-1,0l-0.3-1c0.7,0,1.1,0,1.4,0
			c0.3,0,0.5-0.2,0.6-0.6s0.1-1.2,0.2-2.4h-2.3c-0.3,1.8-0.9,3.1-1.8,4l-0.8-0.7c1.2-1.2,1.8-3.1,1.8-5.7h-1v-4h5.2v4h-3.1
			c0,0.5,0,0.9-0.1,1.3H442z M440.9,64.6v-1.9h-3v1.9H440.9z M444,69.8H443v-7.5h1.1V69.8z M446.3,70.5c0,0.6-0.1,0.9-0.3,1.1
			s-0.6,0.3-1,0.3c-0.6,0-1,0-1.3,0l-0.3-1c0.4,0,0.9,0,1.5,0c0.1,0,0.2,0,0.3-0.1s0.1-0.2,0.1-0.3v-9h1.1V70.5z"/>
		<path class="st18" d="M422.5,82.6h-4.7v3.7h-1.1v-3.7h-4.7v-1.1h4.7v-4.3h-4.4v-1.1h9.9v1.1h-4.4v4.3h4.7V82.6z M415.5,80.6
			l-1,0.5c-0.3-0.9-0.9-1.8-1.5-2.8l1-0.5C414.5,78.6,415.1,79.6,415.5,80.6z M421.8,78.3c-0.5,1.1-1.1,2.1-1.7,2.8l-1-0.5
			c0.6-0.7,1.1-1.6,1.7-2.8L421.8,78.3z"/>
		<path class="st18" d="M434.7,80.2l-0.9,0.7c-0.2-0.4-0.5-0.7-0.7-1.1c-3.1,0.4-5.9,0.6-8.6,0.7l-0.3-1c1.1-0.4,2.4-1.6,3.7-3.8
			l1.2,0.2c-0.8,1.3-1.7,2.4-2.8,3.4c1.6-0.1,3.5-0.2,5.9-0.5c-0.5-0.5-1.1-1.1-1.8-1.7l0.9-0.7C432.8,77.8,433.9,79,434.7,80.2z
			 M433.6,86.3h-1.1v-0.5h-6.3v0.5h-1.1v-5h8.5V86.3z M432.5,84.7v-2.3h-6.3v2.3H432.5z"/>
	</g>
	<g>
		<rect x="375.5" y="152.4" class="st15" width="94" height="30.5"/>
		<path class="st19" d="M404,161.9v-5.9c0-0.5,0-1.1,0.1-1.8h0c-0.1,0.5-0.2,0.8-0.3,1l-2.8,6.7h-0.9l-2.8-6.6
			c-0.1-0.2-0.2-0.5-0.3-1h0c0,0.5,0.1,1.2,0.1,2v5.7h-1.3v-9.1h2l2.5,6c0.2,0.5,0.3,0.9,0.4,1.2h0c0.1-0.2,0.2-0.6,0.4-1.2l2.5-6
			h1.9v9.1H404z"/>
		<path class="st19" d="M407.3,153.2c0-0.2,0.1-0.4,0.2-0.6s0.4-0.2,0.6-0.2c0.2,0,0.4,0.1,0.6,0.2s0.2,0.3,0.2,0.6
			s-0.1,0.4-0.2,0.6s-0.4,0.2-0.6,0.2s-0.4-0.1-0.6-0.2S407.3,153.5,407.3,153.2z M407.5,161.9v-6.5h1.4v6.5H407.5z"/>
		<path class="st19" d="M415.4,161.7c-0.5,0.3-1.1,0.4-1.8,0.4c-0.9,0-1.7-0.3-2.3-0.9s-0.9-1.4-0.9-2.3c0-1.1,0.3-1.9,0.9-2.6
			s1.5-1,2.5-1c0.6,0,1.2,0.1,1.6,0.3v1.3c-0.5-0.3-1-0.5-1.5-0.5c-0.6,0-1.1,0.2-1.5,0.6s-0.6,1-0.6,1.7c0,0.7,0.2,1.2,0.6,1.6
			s0.9,0.6,1.5,0.6c0.5,0,1.1-0.2,1.5-0.5V161.7z"/>
		<path class="st19" d="M420.5,156.8c-0.2-0.1-0.5-0.2-0.8-0.2c-0.4,0-0.8,0.2-1.1,0.6s-0.4,0.9-0.4,1.6v3.2h-1.4v-6.5h1.4v1.3h0
			c0.3-0.9,0.9-1.4,1.7-1.4c0.2,0,0.4,0,0.6,0.1V156.8z"/>
		<path class="st19" d="M421,158.8c0-1.1,0.3-1.9,0.9-2.5s1.4-0.9,2.5-0.9c1,0,1.8,0.3,2.3,0.9s0.9,1.4,0.9,2.4c0,1-0.3,1.9-0.9,2.5
			s-1.4,0.9-2.4,0.9c-1,0-1.8-0.3-2.4-0.9S421,159.8,421,158.8z M422.4,158.7c0,0.7,0.2,1.3,0.5,1.7s0.8,0.6,1.4,0.6
			c1.2,0,1.9-0.8,1.9-2.3c0-0.7-0.2-1.3-0.5-1.7s-0.8-0.6-1.4-0.6s-1.1,0.2-1.4,0.6S422.4,158,422.4,158.7z"/>
		<path class="st19" d="M428.8,160.4c0.6,0.4,1.2,0.6,1.9,0.6c0.9,0,1.3-0.3,1.3-0.8c0-0.2-0.1-0.4-0.3-0.5s-0.6-0.3-1.2-0.6
			c-0.7-0.3-1.1-0.5-1.3-0.8s-0.3-0.6-0.3-1.1c0-0.6,0.3-1.1,0.8-1.4s1.1-0.5,1.9-0.5c0.6,0,1.1,0.1,1.6,0.3v1.2
			c-0.5-0.3-1-0.5-1.7-0.5c-0.3,0-0.6,0.1-0.8,0.2s-0.3,0.3-0.3,0.6c0,0.2,0.1,0.4,0.2,0.5s0.5,0.3,1.1,0.5c0.7,0.3,1.2,0.5,1.4,0.8
			s0.4,0.7,0.4,1.1c0,0.6-0.3,1.1-0.8,1.4s-1.2,0.5-2,0.5c-0.7,0-1.3-0.1-1.8-0.4V160.4z"/>
		<path class="st19" d="M434.4,158.8c0-1.1,0.3-1.9,0.9-2.5s1.4-0.9,2.5-0.9c1,0,1.8,0.3,2.3,0.9s0.9,1.4,0.9,2.4
			c0,1-0.3,1.9-0.9,2.5s-1.4,0.9-2.4,0.9c-1,0-1.8-0.3-2.4-0.9S434.4,159.8,434.4,158.8z M435.8,158.7c0,0.7,0.2,1.3,0.5,1.7
			s0.8,0.6,1.4,0.6c1.2,0,1.9-0.8,1.9-2.3c0-0.7-0.2-1.3-0.5-1.7s-0.8-0.6-1.4-0.6s-1.1,0.2-1.4,0.6S435.8,158,435.8,158.7z"/>
		<path class="st19" d="M445.8,153.5c-0.2-0.1-0.5-0.2-0.7-0.2c-0.7,0-1,0.4-1,1.3v0.9h1.5v1.1h-1.5v5.4h-1.4v-5.4h-1.1v-1.1h1.1v-1
			c0-0.7,0.2-1.3,0.6-1.7s1-0.6,1.6-0.6c0.3,0,0.6,0,0.8,0.1V153.5z"/>
		<path class="st19" d="M450.2,161.9c-0.3,0.1-0.6,0.2-1.1,0.2c-1.2,0-1.8-0.7-1.8-2v-3.5h-1.1v-1.1h1.1v-1.5l1.4-0.4v1.9h1.6v1.1
			h-1.6v3.3c0,0.4,0.1,0.7,0.2,0.9s0.4,0.3,0.7,0.3c0.2,0,0.5-0.1,0.7-0.2V161.9z"/>
		<path class="st19" d="M401.5,175.7c-0.9,0.5-2,0.8-3.1,0.8c-1.4,0-2.4-0.4-3.3-1.2s-1.2-1.9-1.2-3.3c0-1.4,0.5-2.6,1.4-3.5
			s2.1-1.4,3.5-1.4c1,0,1.8,0.2,2.5,0.5v1.4c-0.7-0.4-1.6-0.7-2.6-0.7c-1,0-1.7,0.3-2.3,1s-0.9,1.5-0.9,2.5c0,1.1,0.3,1.9,0.8,2.5
			s1.3,0.9,2.3,0.9c0.6,0,1.2-0.1,1.6-0.4v-2.3h-1.9v-1.2h3.3V175.7z"/>
		<path class="st19" d="M407,171.2c-0.2-0.1-0.5-0.2-0.8-0.2c-0.4,0-0.8,0.2-1.1,0.6s-0.4,0.9-0.4,1.6v3.2h-1.4v-6.5h1.4v1.3h0
			c0.3-0.9,0.9-1.4,1.7-1.4c0.2,0,0.4,0,0.6,0.1V171.2z"/>
		<path class="st19" d="M408.2,170.3c0.7-0.4,1.4-0.6,2.3-0.6c1.6,0,2.5,0.8,2.5,2.5v4.1h-1.3v-1h0c-0.4,0.8-1.1,1.1-2,1.1
			c-0.6,0-1.1-0.2-1.5-0.5s-0.5-0.8-0.5-1.4c0-1.2,0.7-1.9,2.2-2.1l1.9-0.3c0-1-0.4-1.4-1.3-1.4c-0.8,0-1.5,0.3-2.1,0.8V170.3z
			 M410.2,173.3c-0.5,0.1-0.8,0.2-1,0.4s-0.3,0.4-0.3,0.8c0,0.3,0.1,0.5,0.3,0.7s0.5,0.3,0.8,0.3c0.5,0,0.8-0.2,1.1-0.5
			s0.5-0.7,0.5-1.2v-0.6L410.2,173.3z"/>
		<path class="st19" d="M416.1,175.5v3.9h-1.4v-9.5h1.4v1.1h0c0.5-0.8,1.2-1.2,2.2-1.2c0.8,0,1.5,0.3,1.9,0.9s0.7,1.4,0.7,2.3
			c0,1.1-0.3,1.9-0.8,2.6s-1.3,1-2.2,1C417.2,176.5,416.6,176.2,416.1,175.5L416.1,175.5z M416.1,173.6c0,0.5,0.2,0.9,0.5,1.3
			s0.7,0.5,1.2,0.5c0.6,0,1-0.2,1.3-0.7s0.5-1,0.5-1.8c0-0.7-0.1-1.2-0.4-1.5s-0.7-0.5-1.2-0.5s-1,0.2-1.3,0.6s-0.5,0.9-0.5,1.5
			V173.6z"/>
		<path class="st19" d="M428.2,176.3h-1.4v-3.7c0-1.2-0.4-1.8-1.3-1.8c-0.5,0-0.8,0.2-1.1,0.5s-0.5,0.8-0.5,1.3v3.7h-1.4v-9.6h1.4
			v4.1h0c0.5-0.8,1.2-1.2,2.1-1.2c1.5,0,2.2,0.9,2.2,2.6V176.3z"/>
		<path class="st19" d="M440.5,176.3H439l-0.8-2.4h-3.6l-0.8,2.4h-1.5l3.4-9.1h1.6L440.5,176.3z M437.7,172.8l-1.3-3.6
			c0-0.1-0.1-0.4-0.1-0.7h0c0,0.3-0.1,0.5-0.1,0.7l-1.3,3.6H437.7z"/>
		<path class="st19" d="M443.2,173v3.3h-1.4v-9.1h2.7c1,0,1.8,0.2,2.4,0.7s0.8,1.2,0.8,2.1c0,0.9-0.3,1.6-1,2.2s-1.5,0.8-2.4,0.8
			H443.2z M443.2,168.4v3.4h1c1.4,0,2-0.6,2-1.7c0-1.1-0.7-1.7-2-1.7H443.2z"/>
		<path class="st19" d="M450.7,168.4L450.7,168.4v6.8v0v1.1h-1.4v-1.1v0v-6.8v0v-1.1h1.4V168.4z"/>
	</g>
	<g>
		<path class="st17" d="M190.2,1.4c-1.1,1.8-2.6,3.1-4.5,4l-0.4-0.5c0.8-0.3,1.5-0.8,2.3-1.3c-0.3-0.4-0.8-0.7-1.3-1.1l0.4-0.5
			c0.5,0.4,1,0.8,1.4,1.2c0.5-0.5,1-1.1,1.5-1.8h-3.1V0.8h3.8V1.4z M195.4,10.8h-9.9v-0.6h3.4c-0.2-0.6-0.5-1.1-0.8-1.5l0.4-0.4h-1
			V5.6h5.8v2.7h-1l0.4,0.3c-0.1,0.3-0.3,0.8-0.7,1.6h3.4V10.8z M192.8,7.7V6.2h-4.6v1.5H192.8z M192.7,4.5h-4.4V3.9h4.4V4.5z
			 M192.2,8.3h-3.5c0.3,0.6,0.6,1.2,0.9,1.9h1.8C191.6,9.7,191.9,9.1,192.2,8.3z M195.7,4.9l-0.4,0.5c-2.2-1.1-3.7-2.7-4.6-4.7
			l0.6-0.3c0.2,0.5,0.5,1,0.8,1.4c0.5-0.5,1-0.9,1.3-1.4l0.6,0.3c-0.5,0.6-1,1.1-1.5,1.5c0.2,0.3,0.5,0.6,0.8,0.9
			c0.5-0.3,0.9-0.8,1.5-1.5l0.5,0.3c-0.5,0.6-1,1.1-1.5,1.6C194.1,4,194.8,4.4,195.7,4.9z"/>
		<path class="st17" d="M207.6,10.5l-0.4,0.6c-2.3-1.8-3.8-4.2-4.6-7.1c-1,3-2.7,5.3-5,7l-0.5-0.5c0.8-0.5,1.5-1.1,2.1-1.8
			s1.1-1.4,1.6-2.2s0.8-1.6,1.1-2.5s0.4-1.4,0.4-1.6l-0.1-0.9h-1.1V0.8h1.8C202.9,4.7,204.5,8,207.6,10.5z"/>
	</g>
	<g>
		<path class="st17" d="M209.1,30.1h-3.3v-0.6h1.6c-0.1-0.4-0.3-0.8-0.5-1.1l0.6-0.2c0.3,0.5,0.4,1,0.5,1.3h1.1V30.1z M208.8,31.8
			H206v-0.6h2.8V31.8z M208.8,33.6H206V33h2.8V33.6z M208.8,38.5h-0.6v-0.6h-1.5v0.9h-0.6v-4h2.7V38.5z M208.2,37.2v-1.9h-1.5v1.9
			H208.2z M216.2,36.5c0,0.3-0.1,0.7-0.2,1.2s-0.3,0.8-0.4,0.9s-0.3,0.1-0.4,0.1c-0.4,0-0.8-0.6-1.2-1.7c-0.6,0.6-1.2,1.2-1.8,1.5
			l-0.4-0.4c0.9-0.6,1.6-1.2,2.1-1.8c-0.2-1.1-0.3-2.4-0.3-4h-4.4v-0.6h1.1c-0.1-0.5-0.2-1.1-0.5-1.8h-0.4v-0.6h1.5
			c-0.1-0.3-0.2-0.6-0.4-0.9l0.5-0.2c0.2,0.4,0.4,0.8,0.5,1.1h1.5v0.6h-0.5c-0.1,0.6-0.3,1.2-0.4,1.8h1.4c0-1.4,0-2.6,0-3.5h0.6
			c0,1.3,0,2.5,0,3.5h2.1v0.6h-2.1c0,1.4,0.1,2.5,0.2,3.3c0.4-0.7,0.7-1.5,1-2.6l0.5,0.3c-0.3,1.1-0.7,2.2-1.4,3.2
			c0.1,0.3,0.2,0.6,0.3,1s0.3,0.6,0.4,0.6c0,0,0.1,0,0.1-0.1s0.1-0.2,0.2-0.6s0.1-0.7,0.2-1.1L216.2,36.5z M212.6,37.1h-3v-3.9h3
			V37.1z M212,34.8v-1.1h-1.8v1.1H212z M212,36.5v-1.1h-1.8v1.1H212z M212,29.9h-1.5c0.2,0.6,0.3,1.2,0.4,1.8h0.7
			C211.7,31.1,211.9,30.5,212,29.9z M215.9,30.9l-0.5,0.2c-0.2-0.7-0.4-1.2-0.7-1.7l0.5-0.2C215.4,29.7,215.7,30.2,215.9,30.9z"/>
		<path class="st17" d="M223.5,33.9c0,0.9,0,1.7,0,2.5s-0.1,1.3-0.1,1.5s-0.1,0.4-0.3,0.5s-0.3,0.2-0.4,0.3s-0.5,0.1-0.9,0.1
			c-0.2,0-0.5,0-0.8,0l-0.2-0.6l1.5,0c0.3,0,0.5-0.1,0.6-0.4s0.2-1.3,0.1-3.2h-2.8c-0.3,1.7-0.9,3.1-2.1,4.2l-0.4-0.5
			c1.4-1.3,2.1-3.3,2-6.1h-1.1v-3.6h4.9v3.6h-3.2c0,0.6,0,1.2-0.1,1.8H223.5z M222.9,31.5v-2.4h-3.7v2.4H222.9z M225.5,36.5h-0.6
			v-7.4h0.6V36.5z M227.9,37.8c0,0.6-0.3,0.9-1,0.9l-1.6,0l-0.3-0.6l1.9,0c0.1,0,0.1,0,0.2-0.1s0.1-0.2,0.1-0.3v-9.4h0.6V37.8z"/>
		<path class="st17" d="M233.8,29.4h-1.6c-0.2,1.1-0.5,2.1-0.8,3h2.1v5h-0.7v-0.5h-1.3v0.8h-0.6v-4.3c-0.4,0.6-0.6,1-0.7,1.1
			l-0.5-0.5c1-1.3,1.6-2.8,1.8-4.6h-1.6v-0.6h3.8V29.4z M232.8,36.3V33h-1.3v3.3H232.8z M234.9,35.4c-0.1,1.1-0.4,2.2-0.7,3
			l-0.6-0.2c0.3-0.7,0.5-1.7,0.7-2.9L234.9,35.4z M240,29.1h-2.4v1.2h2v0.6h-2v1.2h2v0.6h-2v1.4h2.3c0,1.2-0.1,2.1-0.1,2.8
			s-0.2,1.1-0.3,1.3s-0.3,0.3-0.5,0.4s-0.7,0.1-1.3,0.1l-0.2-0.6c0.7,0,1.1,0,1.2,0s0.2-0.1,0.3-0.2s0.2-0.6,0.3-1.5
			s0.1-1.4,0.1-1.7h-4.9v-6.1h5.6V29.1z M237,30.3v-1.2h-2v1.2H237z M237,32.1v-1.2h-2v1.2H237z M237,34.1v-1.4h-2v1.4H237z
			 M236.2,38.1l-0.6,0.1c0-0.2,0-0.4,0-0.6c0-0.7-0.1-1.3-0.2-2l0.6-0.1C236.2,36.6,236.2,37.4,236.2,38.1z M237.6,37.3l-0.6,0.2
			c-0.1-0.7-0.2-1.3-0.5-1.9l0.6-0.1C237.3,36.1,237.5,36.7,237.6,37.3z M238.7,36.9l-0.5,0.2c-0.1-0.7-0.3-1.2-0.5-1.6l0.5-0.2
			C238.4,35.7,238.5,36.2,238.7,36.9z"/>
		<path class="st17" d="M245.4,33.4l-0.4,0.5c-0.2-0.4-0.5-0.8-0.9-1.3v6.1h-0.6v-6.1c-0.4,1.1-0.9,2-1.4,2.8l-0.4-0.5
			c0.7-1.1,1.3-2.4,1.8-3.8h-1.6v-0.6h1.7v-2.3h0.6v2.3h1.1v0.6h-1.1v0.7C244.7,32.4,245.1,33,245.4,33.4z M252.2,38.2h-5.6v0.5H246
			v-4c-0.3,0.3-0.6,0.6-0.9,0.9l-0.4-0.5c0.8-0.6,1.5-1.5,2-2.4l0.6,0.2c-0.1,0.2-0.3,0.5-0.4,0.7h2.1c-0.1-0.1-0.2-0.3-0.3-0.5
			l0.6-0.3c0.2,0.2,0.3,0.5,0.5,0.7h2.2v0.5h-2.5v0.8h2.2v0.5h-2.2v0.8h2.2v0.5h-2.2v0.9h2.8V38.2z M248.1,30.2h-0.6v-0.5h-2.2v-0.6
			h2.2v-0.8h0.6V30.2z M248.3,32.5h-2.6v-2h2.6V32.5z M247.8,32v-0.9h-1.5V32H247.8z M248.8,34.9v-0.8h-2.2v0.8H248.8z M248.8,36.2
			v-0.8h-2.2v0.8H248.8z M248.8,37.7v-0.9h-2.2v0.9H248.8z M251.7,32.5h-2.6v-2h2.6V32.5z M252.2,29.7H250v0.5h-0.6v-1.9h0.6v0.8
			h2.1V29.7z M251.2,32v-0.9h-1.5V32H251.2z"/>
		<path class="st17" d="M258.1,33.8l-0.4,0.5c-0.5-0.7-1-1.3-1.4-1.7v6.1h-0.6v-6c-0.5,1.2-1.1,2.2-1.7,3l-0.4-0.5
			c0.8-1,1.5-2.4,2.1-4.1h-1.9v-0.6h1.9v-2.4h0.6v2.4h1.4v0.6h-1.4v0.6C257.1,32.5,257.6,33.2,258.1,33.8z M264.3,38.3l-0.4,0.5
			c-1.3-0.6-2.4-1.2-3.2-2c-0.9,0.9-2,1.5-3.3,1.9l-0.4-0.6c1.4-0.4,2.5-1,3.3-1.8c-0.8-1.1-1.3-2.5-1.6-4.2l0.6-0.1
			c0.3,1.6,0.7,2.9,1.4,3.8c0.6-1,0.9-2.6,1-4.8h-3.3v-0.6h3.4c0-0.8,0-1.5,0-2.2h0.6c0,1,0,1.7,0,2.2h1.8v0.6h-1.9
			c0,2.4-0.4,4.2-1.1,5.3C261.9,37.1,262.9,37.8,264.3,38.3z"/>
	</g>
	<g>
		<path class="st17" d="M190.9,60.2h-1V70h-0.6v-2.5c-1,0.4-2.3,0.7-3.9,1.1l-0.2-0.6l1.1-0.2v-7.6h-1.1v-0.6h5.7V60.2z M189.3,62.1
			v-1.9h-2.4v1.9H189.3z M189.3,64.6v-1.9h-2.4v1.9H189.3z M189.3,66.9v-1.6h-2.4v2.4C187.6,67.4,188.4,67.2,189.3,66.9z
			 M195.7,69.5l-0.4,0.5c-0.8-0.7-1.5-1.4-2.1-2.2c-0.7,0.9-1.5,1.6-2.3,2.2l-0.4-0.5c0.8-0.6,1.6-1.3,2.3-2.3c-1-1.7-1.6-3.7-1.8-6
			h-0.4v-0.6h4.6c0,2.6-0.6,4.8-1.7,6.6c0.1,0.3,0.5,0.7,0.9,1.2S195.4,69.2,195.7,69.5z M194.6,61.3h-2.9c0.1,2,0.6,3.8,1.5,5.4
			C194,65.1,194.5,63.3,194.6,61.3z"/>
		<path class="st17" d="M200.2,62.2c-0.2,0.4-0.5,1-0.9,1.7v6h-0.6v-5.1c-0.4,0.5-0.8,1-1.2,1.3l-0.4-0.5c1.1-1,2-2.2,2.6-3.6
			L200.2,62.2z M200.1,59.7c-0.7,1.2-1.5,2.1-2.5,2.7l-0.4-0.5c0.9-0.5,1.7-1.3,2.4-2.5L200.1,59.7z M207.6,66.6h-1.5V69
			c0,0.3-0.1,0.6-0.3,0.7s-0.6,0.2-1.3,0.2c-0.2,0-0.5,0-0.7,0l-0.2-0.6c0.2,0,0.5,0,0.8,0c0.5,0,0.9,0,1-0.1s0.1-0.2,0.1-0.3v-2.3
			h-5.3V66h5.3v-1.2h-5.1v-0.6h6.9v0.6h-1.2V66h1.5V66.6z M206.8,63.4H201v-3.7h5.8V63.4z M203.2,68.7l-0.6,0.3
			c-0.2-0.5-0.7-1.2-1.3-1.9l0.5-0.3C202.4,67.5,202.8,68.1,203.2,68.7z M206.2,61.3v-1h-4.6v1H206.2z M206.2,62.8v-1h-4.6v1H206.2z
			"/>
		<path class="st17" d="M212.7,64.6l-0.4,0.5c-0.2-0.4-0.5-0.8-0.9-1.3v6.1h-0.6v-6.1c-0.4,1.1-0.9,2-1.4,2.8l-0.4-0.5
			c0.7-1.1,1.3-2.4,1.8-3.8h-1.6v-0.6h1.7v-2.3h0.6v2.3h1.1v0.6h-1.1V63C212,63.6,212.4,64.1,212.7,64.6z M219.5,69.4h-5.6v0.5h-0.6
			v-4c-0.3,0.3-0.6,0.6-0.9,0.9l-0.4-0.5c0.8-0.6,1.5-1.5,2-2.4l0.6,0.2c-0.1,0.2-0.3,0.5-0.4,0.7h2.1c-0.1-0.1-0.2-0.3-0.3-0.5
			l0.6-0.3c0.2,0.2,0.3,0.5,0.5,0.7h2.2v0.5h-2.5V66h2.2v0.5h-2.2v0.8h2.2V68h-2.2v0.9h2.8V69.4z M215.4,61.4h-0.6v-0.5h-2.2v-0.6
			h2.2v-0.8h0.6V61.4z M215.6,63.7H213v-2h2.6V63.7z M215.1,63.1v-0.9h-1.5v0.9H215.1z M216.1,66v-0.8h-2.2V66H216.1z M216.1,67.4
			v-0.8h-2.2v0.8H216.1z M216.1,68.9V68h-2.2v0.9H216.1z M219,63.7h-2.6v-2h2.6V63.7z M219.5,60.8h-2.1v0.5h-0.6v-1.9h0.6v0.8h2.1
			V60.8z M218.5,63.1v-0.9H217v0.9H218.5z"/>
		<path class="st17" d="M225.3,65l-0.4,0.5c-0.5-0.7-1-1.3-1.4-1.7V70H223v-6c-0.5,1.2-1.1,2.2-1.7,3l-0.4-0.5
			c0.8-1,1.5-2.4,2.1-4.1h-1.9v-0.6h1.9v-2.4h0.6v2.4h1.4v0.6h-1.4V63C224.3,63.7,224.9,64.3,225.3,65z M231.5,69.5l-0.4,0.5
			c-1.3-0.6-2.4-1.2-3.2-2c-0.9,0.9-2,1.5-3.3,1.9l-0.4-0.6c1.4-0.4,2.5-1,3.3-1.8c-0.8-1.1-1.3-2.5-1.6-4.2l0.6-0.1
			c0.3,1.6,0.7,2.9,1.4,3.8c0.6-1,0.9-2.6,1-4.8h-3.3v-0.6h3.4c0-0.8,0-1.5,0-2.2h0.6c0,1,0,1.7,0,2.2h1.8v0.6h-1.9
			c0,2.4-0.4,4.2-1.1,5.3C229.1,68.3,230.1,69,231.5,69.5z"/>
	</g>
	<g>
		<path class="st17" d="M216.2,90.3H210c-0.4,0.9-1,1.7-1.6,2.5v6h-0.7v-5.2c-0.6,0.6-1.2,1.1-1.7,1.4l-0.2-0.6
			c1.5-1.2,2.7-2.5,3.5-4.2h-3.5v-0.6h3.8c0.2-0.4,0.4-0.8,0.6-1.4l0.6,0.2c-0.2,0.5-0.4,0.9-0.6,1.2h5.9V90.3z M216.2,95.6h-3v2.4
			c0,0.2-0.1,0.4-0.2,0.5s-0.2,0.3-0.4,0.3s-0.5,0.1-1.1,0.1c-0.3,0-0.6,0-0.9,0l-0.3-0.6c0.3,0,0.6,0,1,0c0.6,0,1,0,1.1-0.1
			s0.2-0.1,0.2-0.2v-2.3H209v-0.6h3.6V94c0.6-0.4,1.2-0.9,1.9-1.6h-4.7v-0.6h5.6v0.6c-0.8,0.8-1.5,1.4-2.2,1.8v0.6h3V95.6z"/>
		<path class="st17" d="M223.3,89.1h-1v9.8h-0.6v-2.5c-1,0.4-2.3,0.7-3.9,1.1l-0.2-0.6l1.1-0.2v-7.6h-1.1v-0.6h5.7V89.1z M221.7,91
			v-1.9h-2.4V91H221.7z M221.7,93.5v-1.9h-2.4v1.9H221.7z M221.7,95.8v-1.6h-2.4v2.4C220,96.3,220.8,96.1,221.7,95.8z M228.1,98.4
			l-0.4,0.5c-0.8-0.7-1.5-1.4-2.1-2.2c-0.7,0.9-1.5,1.6-2.3,2.2l-0.4-0.5c0.8-0.6,1.6-1.3,2.3-2.3c-1-1.7-1.6-3.7-1.8-6H223v-0.6
			h4.6c0,2.6-0.6,4.8-1.7,6.6c0.1,0.3,0.5,0.7,0.9,1.2S227.8,98.1,228.1,98.4z M227,90.1h-2.9c0.1,2,0.6,3.8,1.5,5.4
			C226.4,94,226.9,92.2,227,90.1z"/>
		<path class="st17" d="M233.3,93.5l-0.4,0.5c-0.2-0.4-0.5-0.8-0.9-1.3v6.1h-0.6v-6.1c-0.4,1.1-0.9,2-1.4,2.8l-0.4-0.5
			c0.7-1.1,1.3-2.4,1.8-3.8h-1.6v-0.6h1.7v-2.3h0.6v2.3h1.1v0.6h-1.1v0.7C232.5,92.5,233,93,233.3,93.5z M240,98.3h-5.6v0.5h-0.6v-4
			c-0.3,0.3-0.6,0.6-0.9,0.9l-0.4-0.5c0.8-0.6,1.5-1.5,2-2.4l0.6,0.2c-0.1,0.2-0.3,0.5-0.4,0.7h2.1c-0.1-0.1-0.2-0.3-0.3-0.5
			l0.6-0.3c0.2,0.2,0.3,0.5,0.5,0.7h2.2v0.5h-2.5v0.8h2.2v0.5h-2.2v0.8h2.2v0.5h-2.2v0.9h2.8V98.3z M235.9,90.3h-0.6v-0.5h-2.2v-0.6
			h2.2v-0.8h0.6V90.3z M236.2,92.6h-2.6v-2h2.6V92.6z M235.6,92v-0.9h-1.5V92H235.6z M236.7,94.9v-0.8h-2.2v0.8H236.7z M236.7,96.3
			v-0.8h-2.2v0.8H236.7z M236.7,97.7v-0.9h-2.2v0.9H236.7z M239.6,92.6H237v-2h2.6V92.6z M240,89.7h-2.1v0.5h-0.6v-1.9h0.6v0.8h2.1
			V89.7z M239,92v-0.9h-1.5V92H239z"/>
		<path class="st17" d="M245.9,93.9l-0.4,0.5c-0.5-0.7-1-1.3-1.4-1.7v6.1h-0.6v-6c-0.5,1.2-1.1,2.2-1.7,3l-0.4-0.5
			c0.8-1,1.5-2.4,2.1-4.1h-1.9v-0.6h1.9v-2.4h0.6v2.4h1.4v0.6h-1.4v0.6C244.8,92.6,245.4,93.2,245.9,93.9z M252,98.4l-0.4,0.5
			c-1.3-0.6-2.4-1.2-3.2-2c-0.9,0.9-2,1.5-3.3,1.9l-0.4-0.6c1.4-0.4,2.5-1,3.3-1.8c-0.8-1.1-1.3-2.5-1.6-4.2l0.6-0.1
			c0.3,1.6,0.7,2.9,1.4,3.8c0.6-1,0.9-2.6,1-4.8h-3.3v-0.6h3.4c0-0.8,0-1.5,0-2.2h0.6c0,1,0,1.7,0,2.2h1.8v0.6h-1.9
			c0,2.4-0.4,4.2-1.1,5.3C249.6,97.2,250.7,97.8,252,98.4z"/>
	</g>
	<g>
		<path class="st17" d="M192.4,190.2h-1V186h-4.8v4.2h-1v-9.1h1v4h4.8v-4h1V190.2z"/>
		<path class="st17" d="M200,182h-2.6v8.2h-1V182h-2.6v-0.9h6.2V182z"/>
		<path class="st17" d="M207,182h-2.6v8.2h-1V182h-2.6v-0.9h6.2V182z"/>
		<path class="st17" d="M209.4,186.7v3.4h-1v-9.1h2.4c0.9,0,1.7,0.2,2.2,0.7s0.8,1.1,0.8,2c0,0.9-0.3,1.6-0.9,2.2s-1.4,0.8-2.3,0.8
			H209.4z M209.4,182v3.8h1.1c0.7,0,1.3-0.2,1.7-0.5s0.6-0.8,0.6-1.4c0-1.2-0.7-1.8-2.2-1.8H209.4z"/>
		<path class="st17" d="M228.1,190.8h-0.7v-1h-8.1v1h-0.7v-10.2h9.4V190.8z M227.4,189.1v-7.9h-8.1v7.9H227.4z M225.6,187.3h-4.6
			v-4.3h4.6V187.3z M225,186.6v-3h-3.3v3H225z"/>
		<path class="st17" d="M240.4,181.7h-8.9v3.5c0,2.2-0.3,4-0.9,5.7l-0.5-0.4c0.6-1.5,0.9-3.3,0.9-5.2v-4h4.5
			c-0.2-0.3-0.3-0.5-0.5-0.8l0.6-0.1c0.2,0.3,0.4,0.6,0.5,0.9h4.3V181.7z M233.6,188.2c-0.4,0.9-0.8,1.6-1.4,2.3l-0.5-0.4
			c0.5-0.6,1-1.3,1.3-2.2L233.6,188.2z M234.3,182.2c-0.1,0.5-0.4,1-0.7,1.6v3.8h-0.6v-2.9c-0.2,0.2-0.4,0.5-0.7,0.9l-0.4-0.5
			c1-1,1.6-2,1.9-3.1L234.3,182.2z M240.3,187.4H235v-3c-0.2,0.3-0.5,0.6-0.8,1l-0.4-0.5c0.9-1.1,1.6-2,2-2.9l0.5,0.2
			c-0.1,0.3-0.3,0.6-0.4,0.9h1.8c-0.1-0.2-0.2-0.4-0.5-0.8l0.6-0.2c0.2,0.2,0.4,0.6,0.5,1h1.9v0.6H238v0.7h2v0.6h-2v0.8h2v0.6h-2
			v0.7h2.2V187.4z M238.7,189.3c0,0.4-0.1,0.7-0.2,0.9s-0.3,0.3-0.5,0.4s-0.8,0.1-1.8,0.1c-0.7,0-1.1,0-1.3-0.1s-0.3-0.1-0.4-0.3
			s-0.2-0.4-0.2-0.7v-1.7h0.6v1.8c0,0.2,0.1,0.3,0.2,0.3s0.5,0.1,1.2,0.1c0.8,0,1.2,0,1.3-0.1s0.2-0.1,0.3-0.3s0.1-0.4,0.1-0.8
			L238.7,189.3z M237.5,184.3v-0.7h-1.9v0.7H237.5z M237.5,185.6v-0.8h-1.9v0.8H237.5z M237.5,186.9v-0.7h-1.9v0.7H237.5z
			 M237.3,189l-0.5,0.3c-0.4-0.5-0.7-0.9-1-1.2l0.5-0.4C236.7,188.1,237,188.5,237.3,189z M240.6,190.1l-0.5,0.3
			c-0.4-0.8-0.9-1.5-1.5-2.1l0.5-0.3C239.7,188.6,240.2,189.3,240.6,190.1z"/>
	</g>
</g>
</svg>
