<svg xmlns="http://www.w3.org/2000/svg" xmlns:xlink="http://www.w3.org/1999/xlink" viewBox="0 0 245.1 263.9"><defs><clipPath id="a" transform="translate(-8.8)"><rect x="62" y="176.5" width="54" height="54" fill="none"/></clipPath></defs><title>OJ104327268</title><rect width="245" height="263.87" fill="#fff"/><rect x="70.3" width="104.7" height="90" fill="#0072c6"/><path d="M62.3,100.3h-.6V83.2a1.8,1.8,0,0,1,1.7-1.7h9.7v.6H63.4a1,1,0,0,0-1.1,1.1h0v17.1Z" transform="translate(-8.8)"/><path d="M90.3,100.3h-.5V83.2a1.1,1.1,0,0,0-1.1-1.1H73.1v-.5H88.7a1.6,1.6,0,0,1,1.6,1.6Z" transform="translate(-8.8)"/><polygon points="63.4 98.8 55.3 98.8 55.3 83.7 62.6 83.7 62.6 84.3 55.8 84.3 55.8 98.2 63.4 98.2 63.4 98.8"/><polygon points="79.2 98.8 74 98.8 74 98.2 78.7 98.2 78.7 84.3 72 84.3 72 83.7 79.2 83.7 79.2 98.8"/><path d="M94.4,103.2H86.3v-.6h8.1a1,1,0,0,0,1.1-1.1v-.9H86.3v-.5H96v1.4A1.7,1.7,0,0,1,94.4,103.2Z" transform="translate(-8.8)"/><path d="M72,103.2H57.6a1.7,1.7,0,0,1-1.6-1.7v-1.4H72.2v.5H56.5v.9a1.1,1.1,0,0,0,1.1,1.1H72Z" transform="translate(-8.8)"/><rect x="72.4" y="83.7" width="5.5" height="0.53"/><rect x="56.6" y="83.7" width="15.5" height="0.53"/><path d="M79.6,102.6H79V97.5A1.5,1.5,0,0,0,77.5,96,1.5,1.5,0,0,0,76,97.5h0v5.1h-.5V97.5a2,2,0,0,1,2-2,2.1,2.1,0,0,1,2.1,2Z" transform="translate(-8.8)"/><path d="M83.1,102.6h-.5V98.9a1.5,1.5,0,0,0-1.5-1.5,1.5,1.5,0,0,0-1.5,1.5h0v3.7H79V98.9a2,2,0,0,1,2.1-2,2,2,0,0,1,2,2Z" transform="translate(-8.8)"/><path d="M86.6,112.8h-.5V100.3a1.5,1.5,0,1,0-3,0h0v2.3h-.5v-2.3a2,2,0,1,1,4,0Z" transform="translate(-8.8)"/><path d="M86.6,114.3H71.8l-6.4-6.5a2.6,2.6,0,1,1,3.7-3.7l2.8,2.6V91a2,2,0,0,1,2-2A2,2,0,0,1,76,91v9.7h-.6V91a1.5,1.5,0,0,0-1.5-1.5A1.5,1.5,0,0,0,72.4,91h0v16.9l-3.6-3.6a2.2,2.2,0,0,0-3-.1,2.1,2.1,0,0,0-.2,3h.2l6.4,6.5H86.1v-7.1h.5Z" transform="translate(-8.8)"/><g clip-path="url(#a)"><path d="M111.9,182.4H66.1a3.2,3.2,0,0,0-3.2,3.3v28.1a3.2,3.2,0,0,0,3.2,3.2h45.8a3.3,3.3,0,0,0,3.3-3.2V185.7A3.4,3.4,0,0,0,111.9,182.4Z" transform="translate(-8.8)" fill="#fff"/></g><g clip-path="url(#a)"><path d="M115.2,185.4v8.9H62.8v-8.9a3.1,3.1,0,0,1,2.9-3h46.6A3.1,3.1,0,0,1,115.2,185.4Z" transform="translate(-8.8)" fill="#e5e5e5"/></g><g clip-path="url(#a)"><path d="M111.9,181.6H66.1a4.1,4.1,0,0,0-4.1,4.1v28.1a4.1,4.1,0,0,0,4.1,4.1h22l-.3,5H78l-2.5,1.7h27l-2.5-1.7H90.2l-.3-5h22a4.2,4.2,0,0,0,4.1-4.1V185.6A4.1,4.1,0,0,0,111.9,181.6Zm2.4,32.2a2.4,2.4,0,0,1-2.4,2.4H66.1a2.4,2.4,0,0,1-2.4-2.4V185.7a2.4,2.4,0,0,1,2.4-2.4h45.8a2.4,2.4,0,0,1,2.4,2.4v28.1Z" transform="translate(-8.8)" fill="#3c3c41"/></g><ellipse cx="53.4" cy="217.9" rx="18.5" ry="18.5" fill="#ebebeb"/><path d="M62.2,237.3a19.5,19.5,0,1,1,19.5-19.5A19.5,19.5,0,0,1,62.2,237.3Zm0-36.9a17.5,17.5,0,1,0,17.5,17.5A17.5,17.5,0,0,0,62.2,200.4Z" transform="translate(-8.8)" fill="#3c3c41"/><path d="M67.2,208.9a5,5,0,0,1-5,5.1,5.1,5.1,0,1,1,0-10.1,5,5,0,0,1,5,5" transform="translate(-8.8)" fill="#75757a"/><polygon points="57.1 215.7 53.4 220.9 49.8 215.7 44.4 215.7 44.4 228.4 62.4 228.4 62.4 215.7 57.1 215.7" fill="#75757a"/><path d="M57.2,208.9a5.1,5.1,0,0,0,4.9,5.1l1.3-9.9a2.5,2.5,0,0,0-1.2-.2,5,5,0,0,0-5,5" transform="translate(-8.8)" fill="#fff" opacity="0.2" style="isolation:isolate"/><polygon points="49.8 215.7 44.4 215.7 44.4 228.4 51.5 228.4 52.6 219.7 49.8 215.7" fill="#fff" opacity="0.2" style="isolation:isolate"/><line x1="67.2" y1="181.5" x2="67.2" y2="119.9" fill="none" stroke="#000" stroke-miterlimit="10"/><polygon points="71 121 67.2 114.5 63.5 121 71 121"/><line x1="99.6" y1="176.2" x2="99.6" y2="90" fill="none" stroke="#000" stroke-miterlimit="10"/><polygon points="103.3 175.1 99.6 181.5 95.8 175.1 103.3 175.1"/><rect x="184.7" y="190.4" width="58" height="31.27" fill="#fff"/><path d="M253.9,183.3a1.1,1.1,0,0,0-1.1-1.1H192.2a1.1,1.1,0,0,0-1.1,1.1v37.8a1.1,1.1,0,0,0,1.1,1.1h60.6a1.1,1.1,0,0,0,1.1-1.1Zm-54.1,6h-3.2v-3.2h3.2Zm6.2,0h-3.1v-3.2H206Zm6.3,0h-3.1v-3.2h3.1Zm-18.8,2.3h58v28.3h-58V191.6Z" transform="translate(-8.8)" fill="#0072c6"/><path d="M198.5,208.7a14.9,14.9,0,0,0-11.9-5.9,15.4,15.4,0,0,0-9.1,3.1,15,15,0,0,0,9.1,26.9,14.7,14.7,0,0,0,9.1-3.1A14.9,14.9,0,0,0,198.5,208.7Zm.7,12.5-2.3-1.8a2.7,2.7,0,0,0-.3-2.7,2.8,2.8,0,0,0-3.7-.6l-4.2-4.1a15.2,15.2,0,0,1,8.1-2.2l.2.2A13,13,0,0,1,199.2,221.2Zm-8.2,3.6a1.9,1.9,0,0,0-.5-1,2.5,2.5,0,0,0-3.4-.7,20.9,20.9,0,0,1-3.5-2.3l-.3-.2a4.2,4.2,0,0,0-.6-3.9h-.1a3,3,0,0,0,.8-.8,20.6,20.6,0,0,1,3.5-2.7h-.1l5,4.2a2.8,2.8,0,0,0,.3,2.8,2.8,2.8,0,0,0,3.9.6l.2-.2,2.6,1.8a11.1,11.1,0,0,1-1.4,2.9A13.5,13.5,0,0,1,191,224.8Zm4-16.9a13.8,13.8,0,0,0-8.7,1.6c-1.2-1.2-2.4-2.6-3.7-4.1a13.4,13.4,0,0,1,4-.6A13.2,13.2,0,0,1,195,207.9Zm-16.4-.4,2.2-1.4a24.5,24.5,0,0,0,3.6,4.5,19.9,19.9,0,0,0-3.6,3.1l-1.3,1.5a3.9,3.9,0,0,0-1.8.4,10.3,10.3,0,0,1-1.4-5.7A13.1,13.1,0,0,1,178.6,207.5Zm-3.8,4.8a9.3,9.3,0,0,0,1.2,5,3.8,3.8,0,0,0,.4,4.2h0a27,27,0,0,0-.6,3.6A13,13,0,0,1,174.8,212.3Zm19.7,15.9a12.4,12.4,0,0,1-7.9,2.7,13.1,13.1,0,0,1-8.4-3,16,16,0,0,1,.7-4.9,3.8,3.8,0,0,0,2.9-.6l.3.2a19.9,19.9,0,0,0,3.8,2.4,2.2,2.2,0,0,0,.5,1.9,2.6,2.6,0,0,0,3.6.5,1.3,1.3,0,0,0,.6-.7,26.3,26.3,0,0,0,5.1.5Z" transform="translate(-8.8)"/><line x1="107.2" y1="191.5" x2="176.9" y2="191.5" fill="none" stroke="#000" stroke-miterlimit="10"/><polygon points="175.8 195.3 182.2 191.5 175.8 187.8 175.8 195.3"/><polygon points="99.3 146.3 90.8 152.5 94 162.5 104.6 162.5 107.9 152.5 99.3 146.3" fill="#ebebeb" stroke="#000" stroke-miterlimit="10" stroke-width="0.75"/><polygon points="132.4 181.7 123.8 187.9 127.1 197.9 137.7 197.9 140.9 187.9 132.4 181.7" fill="#ebebeb" stroke="#000" stroke-miterlimit="10" stroke-width="0.75"/><path d="M30.9,81.1l.6.3h-.1a10,10,0,0,1-4.5,4.8l-.5-.6a8.9,8.9,0,0,0,4-3.9H27v-.7h3.9Zm3,7.8.9.3h-.2l-.8,1.5h3.5v.7H26.7v-.7H30a5.6,5.6,0,0,0-.7-1.6l.7-.3a9.7,9.7,0,0,1,.8,1.9H33a11.1,11.1,0,0,0,.9-1.9H28.7V85.8h6.6v3.1Zm-6.5-6.6,1.7,1.3-.5.5A7.5,7.5,0,0,0,27,82.8Zm2,4.2v1.7h5.1V86.5Zm.3-1.6v-.7h4.5v.7ZM36,81.4h-.2l-1.7,1.4.8,1a13.3,13.3,0,0,0,1.7-1.6l.7.6a.1.1,0,0,1-.2,0l-1.7,1.4a8.5,8.5,0,0,0,2.1,1.4,1.5,1.5,0,0,0-.5.6,10.2,10.2,0,0,1-4.9-5.3l.7-.2.9,1.6,1.6-1.5Z" transform="translate(-8.8)" fill="#1e1e1e" stroke="#1e1e1e" stroke-miterlimit="10" stroke-width="0.06"/><path d="M43.6,81.4h.8a10.7,10.7,0,0,0,5.1,9.7,2,2,0,0,0-.6.7,11.2,11.2,0,0,1-5-7,10.5,10.5,0,0,1-4.9,7l-.7-.6c2.7-1.4,4.2-4,5-7.5l.5.2a11.1,11.1,0,0,1-.2-1.7H40.5v-.8Z" transform="translate(-8.8)" fill="#1e1e1e" stroke="#1e1e1e" stroke-miterlimit="10" stroke-width="0.06"/><path d="M31.1,104.6h-.3a15.8,15.8,0,0,1-3.7,1.6,1.7,1.7,0,0,0-.6-.6,16.7,16.7,0,0,0,3.8-1.6Zm-3-7h3.1l.3-1.1H26.7v-.7H37.2v.7H32.4c-.1.4-.3.8-.4,1.1h4v6.2H28.1Zm7,1.9V98.3H28.9v1.2Zm0,1.8v-1.2H28.9v1.2Zm0,1.9v-1.3H28.9v1.3Zm1.6,3.1a29,29,0,0,0-3.8-1.6l.5-.5a22.1,22.1,0,0,1,4,1.6Z" transform="translate(-8.8)" fill="#1e1e1e" stroke="#1e1e1e" stroke-miterlimit="10" stroke-width="0.06"/><path d="M49.3,96.8H44.2l-.5,1.6h5v7.9h-.8v-.6h-8v.6h-.8V98.4h3.8c.1-.5.3-1.1.4-1.6H38.5V96H49.3Zm-9.4,2.3v5.8h2V99.1Zm5.1,1.5V99.1H42.6v1.5Zm0,2.1v-1.5H42.6v1.5Zm-2.4.7v1.5H45v-1.5Zm5.3,1.5V99.1H45.8v5.8Z" transform="translate(-8.8)" fill="#1e1e1e" stroke="#1e1e1e" stroke-miterlimit="10" stroke-width="0.06"/><path d="M67.2,241.6a11.5,11.5,0,0,1-1.5,2l-.4-.7a17.3,17.3,0,0,0,3-5.4l.9.3H69c-.4.9-.7,1.7-1.1,2.5h0v8h-.7Zm9.1,2.5H73.1a4.9,4.9,0,0,1-.8,2.3,11.4,11.4,0,0,0,4.6,1.4l-.6.8a10.4,10.4,0,0,1-4.4-1.6,7.6,7.6,0,0,1-3,1.6c0-.2-.3-.5-.4-.7a4.9,4.9,0,0,0,2.7-1.4,8.6,8.6,0,0,1-1.4-1.8l.8-.3a4.2,4.2,0,0,0,1.1,1.5,4.3,4.3,0,0,0,.6-1.8h-3v-3.3h3v-1.3H68.9v-.7h3.4v-1.3h.8v1.1h3.6v.7H73.1v1.3h3.2Zm-6.3-.7h2.3v-1.9H70Zm5.5-1.9H73.1v1.9h2.4Z" transform="translate(-8.8)" fill="#1e1e1e" stroke="#1e1e1e" stroke-miterlimit="10" stroke-width="0.06"/><path d="M87.7,238.3v9.1c0,1.1-.5,1.1-2.8,1.1a2.6,2.6,0,0,0-.3-.8h1.3c.9,0,1,0,1-.3v-2.6H83.5v3.6h-.8v-3.6H79.5a7.8,7.8,0,0,1-1.5,3.8,1.5,1.5,0,0,0-.6-.5c1.3-1.6,1.4-3.7,1.4-5.4v-4.4Zm-8.1,4.4V244h3.1v-2.1H79.6Zm3.1-3.7H79.6v2.2h3.1Zm4.2,2.2V239H83.5v2.2ZM83.5,244h3.4v-2.1H83.5Z" transform="translate(-8.8)" fill="#1e1e1e" stroke="#1e1e1e" stroke-miterlimit="10" stroke-width="0.06"/><path d="M100.4,242.1H95.8l-2.1,1.3h5v5.1h-.8v-.4H93v.4h-.8v-4.3l-2.4,1.1-.5-.7a24.1,24.1,0,0,0,5.1-2.5H89.5v-.7h4.3v-1.6H90.6v-.7h3.2v-1.7h.8v1.5h3.1v.4l1.4-1.6.9.5h-.4a16.4,16.4,0,0,1-2.9,3h3.7Zm-2.5,3.3v-1.3H93v1.3Zm-4.9,2h4.9v-1.3H93Zm1.6-6h.9l1.9-1.6H94.6Z" transform="translate(-8.8)" fill="#1e1e1e" stroke="#1e1e1e" stroke-miterlimit="10" stroke-width="0.06"/><path d="M103.1,239.4a15.2,15.2,0,0,0,.6-2l1,.2-.2.2c-.2.4-.4,1.1-.6,1.6h2v7.2h-3.3v1h-.8v-8.2Zm2,3.2v-2.4h-2.5v2.4Zm-2.5,3.2h2.5v-2.5h-2.5Zm9.1-6.3h.4v.3c-.2,5.8-.4,7.7-.8,8.3s-.6.4-1.5.4h-1.4a2.4,2.4,0,0,0-.2-.8h1.9l.5-.2c.4-.4.5-2.3.7-7.4h-3.4a10.5,10.5,0,0,1-1.4,2.8l-.6-.6a12.8,12.8,0,0,0,2-5l1,.2c0,.1-.1.2-.3.1a11.6,11.6,0,0,1-.4,1.8Zm-3.4,2.5a11.1,11.1,0,0,1,1.6,3l-.7.3a14.8,14.8,0,0,0-1.6-3Z" transform="translate(-8.8)" fill="#1e1e1e" stroke="#1e1e1e" stroke-miterlimit="10" stroke-width="0.06"/><path d="M71.9,254.8a8.1,8.1,0,0,1,1.8,1.2l-.5.6a9.3,9.3,0,0,0-1.8-1.3Zm-.3,7.2,1.5-3.9.6.4c-.4,1.2-.9,2.7-1.3,3.6s.1.1.1.2h0Zm.6-10.4a5.9,5.9,0,0,1,1.7,1.3l-.5.6a8.5,8.5,0,0,0-1.7-1.4Zm6.6.3h.5v.3c0,2.2-.1,3-.3,3.2s-.3.4-1.2.3-.1-.5-.2-.6h.9a12.7,12.7,0,0,0,.2-2.5h-.9a4.4,4.4,0,0,1-1.2,3.1h.6c0,.1,0,.1-.2.1a15.3,15.3,0,0,1,2.3,1.7l-.4.5a11.4,11.4,0,0,0-2.3-1.7,7.1,7.1,0,0,1-1.2,1.3h2.8v.6H76.9v.8h2v.6h-2v1.7h.9l-.4-.2a7.5,7.5,0,0,0,.6-1.3l.7.3c0,.1-.1.1-.2.1l-.6,1.1,1.3-.2v.6l-4.8.6c0,.1-.1.1-.2.1l-.3-.7,2.3-.3v-1.7H74.3V259h1.9v-.8h-1v-.4l-.9.7-.5-.5a8.5,8.5,0,0,0,2.4-2.2l-.2.2-.4-.5.7-.4-.2-.3-1.9.7v.2l-.4-.7.6-.2V252l.5.2,1.2-.8.6.5Zm-3.6,9.4a12.1,12.1,0,0,0-.5-1.4h.5a6.9,6.9,0,0,1,.5,1.3Zm-.3-6.7,1-.3a4.1,4.1,0,0,0-.5-.9l.5-.2a6.4,6.4,0,0,1,.8,1.4,6.5,6.5,0,0,0,.6-2.1h-.7V252h-.2l-1.5.7Zm5.7-1.6-.2.2v6.5h-.7v-6.8Zm.9-1.6h.7v9.9c0,.9-.4,1-2.1,1l-.3-.7h.9c.7,0,.8,0,.8-.3Z" transform="translate(-8.8)" fill="#1e1e1e" stroke="#1e1e1e" stroke-miterlimit="10" stroke-width="0.06"/><path d="M90.6,261.4c0,.3.1.3.6.3h2c.5,0,.6-.1.6-1.1l.7.2c-.1,1.3-.3,1.6-1.2,1.6H91.2c-1.1,0-1.4-.2-1.4-1v-.9H87.9c-.4,1.2-1.3,1.7-4.1,2a3.3,3.3,0,0,0-.3-.6c2.3-.2,3.2-.5,3.6-1.4H85.3v-3.9h7.4v3.9H90.6Zm-1.7-5.9v.5H84v-4.1h4.9v.5H86.8v.6h1.7v1.8H86.8v.7Zm-2.8-3.1H84.7v.6h1.4Zm1.7,1.9v-.7H84.7v.7Zm-3.1.5v.7h1.4v-.7Zm1.4,2.3v.6h5.8v-.6Zm0,1.1v.6h5.8v-.6Zm0,1.1v.7h5.8v-.7Zm8.4-6.6H90.4a5.7,5.7,0,0,1-1.1,1.6l-.6-.5a5.7,5.7,0,0,0,1.5-2.4h.7l-.2.6h3.8ZM89.6,256v-1.8h4.5V256Zm.6-1.3v.8h.7v-.8Zm.1-1.5h3.5v.6H90.3Zm1.1,1.5v.8h.8v-.8Zm1.3,0v.8h.8v-.8Z" transform="translate(-8.8)" fill="#1e1e1e" stroke="#1e1e1e" stroke-miterlimit="10" stroke-width="0.06"/><path d="M106.4,257h-3.5a9.1,9.1,0,0,0,3.8,1.9l-.5.7-.9-.3v3.2h-.7v-.4h-2.4v.5h-.7v-4h2.4a6.4,6.4,0,0,1-2-1.6H100a11.6,11.6,0,0,1-2.1,1.6h2.4v3.9h-.7v-.4H97.3v.5h-.8v-3.3l-.8.3a1.5,1.5,0,0,0-.5-.6,10.8,10.8,0,0,0,3.7-2H95.5v-.8h4.1l.6-.9H96.4v-3.4h3.9V255l.9.2a.2.2,0,0,1-.2.2,5.6,5.6,0,0,1-.5.8h5.8Zm-6.9-2.4v-2H97.1v2Zm.1,6.8v-2.1H97.3v2.1Zm6-9.5v3.4h-4v-3.4Zm-3.4,9.5h2.4v-2.1h-2.4Zm2.6-6.8v-2h-2.4v2Z" transform="translate(-8.8)" fill="#1e1e1e" stroke="#1e1e1e" stroke-miterlimit="10" stroke-width="0.06"/><path d="M209.7,238.7l-2.4,8.4h-1.1l-1.7-6.1a2.9,2.9,0,0,1-.2-.9h0a2.9,2.9,0,0,1-.2.9l-1.7,6.1h-1.1l-2.5-8.4h1.1l1.8,6.5c0,.2.1.5.1.8h0c.1-.2.1-.5.2-.8l1.9-6.5h.9l1.8,6.5a1.9,1.9,0,0,1,.1.8h.1a2.5,2.5,0,0,1,.1-.8l1.7-6.5Z" transform="translate(-8.8)" fill="#1e1e1e" stroke="#1e1e1e" stroke-miterlimit="10" stroke-width="0.06"/><path d="M215.1,244.4h-4.2a2.3,2.3,0,0,0,.5,1.5,1.8,1.8,0,0,0,1.4.6,3.4,3.4,0,0,0,1.9-.7v.9a3.3,3.3,0,0,1-2.1.6,2.8,2.8,0,0,1-2-.8,3.5,3.5,0,0,1-.7-2.3,3,3,0,0,1,.8-2.3,2.5,2.5,0,0,1,1.9-.9,2.2,2.2,0,0,1,1.9.8,3.3,3.3,0,0,1,.6,2.1Zm-1-.8a1.7,1.7,0,0,0-.4-1.3,1.3,1.3,0,0,0-1.1-.5,1.6,1.6,0,0,0-1.1.5,2.3,2.3,0,0,0-.6,1.3Z" transform="translate(-8.8)" fill="#1e1e1e" stroke="#1e1e1e" stroke-miterlimit="10" stroke-width="0.06"/><path d="M217.5,246.3h0v.8h-1v-8.9h1v4h0a2.2,2.2,0,0,1,2.1-1.2,2.5,2.5,0,0,1,1.8.8,4.4,4.4,0,0,1-.1,4.6,2.5,2.5,0,0,1-2,.9A2.1,2.1,0,0,1,217.5,246.3Zm0-2.5v.9a1.6,1.6,0,0,0,.4,1.2,1.8,1.8,0,0,0,1.3.6,1.6,1.6,0,0,0,1.3-.7,2.9,2.9,0,0,0,.5-1.9,2.2,2.2,0,0,0-.4-1.5,1.7,1.7,0,0,0-2.6,0A1.9,1.9,0,0,0,217.5,243.8Z" transform="translate(-8.8)" fill="#1e1e1e" stroke="#1e1e1e" stroke-miterlimit="10" stroke-width="0.06"/><path d="M227.7,241.8a10,10,0,0,0,2.3-3l.8.3h-.2l-.8,1.3h.1v3.8h-.7v-3.3l-1,1.1-.5-.4c0,1.9-.1,4.5-1.1,6.2l-.6-.4a14.5,14.5,0,0,0,1-6.1V238h4.6v-1h.9v.8h4.7v.7h-9.5Zm2.2,3.7a3.9,3.9,0,0,1-1.4,2.3l-.6-.4a4.3,4.3,0,0,0,1.4-2.1Zm1.6-1.3v-3l-.8.9-.6-.4a8.8,8.8,0,0,0,2-2.9l.9.3h-.3l-.4.7h1.5a5.4,5.4,0,0,0,.5-1.1l.8.3h-.2a2.5,2.5,0,0,1-.4.7h2.3v.5h-2.3v.7h2v.5h-2v.8h2v.5h-2v.7H237v.6Zm-.1,2.9c0,.2.1.3.6.3h2c.4,0,.5-.1.5-1.1l.7.3c-.1,1.2-.3,1.5-1.2,1.5h-2c-1.1,0-1.3-.3-1.3-1v-1.8h.7Zm.4-2.8,2.1,1.2-.5.6a10.7,10.7,0,0,0-2.1-1.3Zm1.9-3.2v-.7h-1.6v.7Zm0,1.3v-.8h-1.6v.8Zm0,1.2v-.7h-1.6v.7Zm2.9,4.3a9.4,9.4,0,0,0-1.8-2.4l.6-.4a10,10,0,0,1,1.9,2.4Z" transform="translate(-8.8)" fill="#1e1e1e" stroke="#1e1e1e" stroke-miterlimit="10" stroke-width="0.06"/><path d="M248.3,237.9V247c0,1.1-.5,1.1-2.8,1.1a1.3,1.3,0,0,0-.3-.8h1.3c1,0,1,0,1-.3v-2.6h-3.4V248h-.8v-3.6h-3.2a6.4,6.4,0,0,1-1.5,3.8l-.6-.5c1.3-1.5,1.5-3.7,1.5-5.4v-4.4Zm-8,4.4c0,.4-.1.8-.1,1.3h3.1v-2.1h-3Zm3-3.7h-3v2.2h3Zm4.2,2.2v-2.2h-3.4v2.2Zm-3.4,2.8h3.4v-2.1h-3.4Z" transform="translate(-8.8)" fill="#1e1e1e" stroke="#1e1e1e" stroke-miterlimit="10" stroke-width="0.06"/><path d="M215.4,256.1c.4.3,1.5,1.5,1.8,1.8l-.5.6a13.1,13.1,0,0,0-1.3-1.6v5.2h-.7v-5.6A16.3,16.3,0,0,1,213,260l-.4-.8a14.2,14.2,0,0,0,1.9-3.9h-1.8v-.8h2v-2l-1.8.5-.3-.6a21.7,21.7,0,0,0,3.9-1.4l.7.6H217a5.9,5.9,0,0,1-1.6.6v2.3h1.7v.8h-1.7Zm5.3,5h3.1v.7h-7v-.7h3.1v-1.7h-2.4v-.7h2.4v-1.5h-2.7v-.7h6.3v.7h-2.8v1.5h2.5v.7h-2.5Zm2.3-9.5v3.8h-5.4v-3.8Zm-.8,3.1v-2.4h-3.8v2.4Z" transform="translate(-8.8)" fill="#1e1e1e" stroke="#1e1e1e" stroke-miterlimit="10" stroke-width="0.06"/><path d="M235.5,254.1h-3.6c.3,3.9,1.3,7.2,2.6,7.2s.5-.7.5-2.3l.8.5c-.2,2.1-.5,2.7-1.4,2.7s-3-3.8-3.3-8.1h-6.4v-.8H231v-2.2h1.1c0,.1-.1.2-.3.2a12.7,12.7,0,0,0,.1,2h3.6Zm-7.3,2.7v3.5l2.7-.6v.7c-2,.6-4.2,1.1-5.6,1.4l-.2.2-.3-1,2.6-.5v-3.7h-2.3V256h5.4v.8Zm5-5.7a5.5,5.5,0,0,1,1.8,1.5l-.5.5a14.5,14.5,0,0,0-1.8-1.6Z" transform="translate(-8.8)" fill="#1e1e1e" stroke="#1e1e1e" stroke-miterlimit="10" stroke-width="0.06"/><path d="M114.2,32.8h-1.9v-5c0-.6.1-1.2.1-1.8h0a5.3,5.3,0,0,1-.3,1.1l-2,5.7h-1.5l-2-5.7a3,3,0,0,1-.3-1.1h0v6.8h-1.7V24.4h2.8l1.7,5,.3,1.2h0l.4-1.2,1.7-5h2.7Z" transform="translate(-8.8)" fill="#fff" stroke="#fff" stroke-miterlimit="10" stroke-width="0.05"/><path d="M116.9,25.8a1.1,1.1,0,0,1-.8-.2,1,1,0,0,1,0-1.4,1.1,1.1,0,0,1,.8-.3,1,1,0,0,1,.7,1.7A.8.8,0,0,1,116.9,25.8Zm.9,7h-1.9v-6h1.9Z" transform="translate(-8.8)" fill="#fff" stroke="#fff" stroke-miterlimit="10" stroke-width="0.05"/><path d="M123.9,32.6a4.2,4.2,0,0,1-1.8.3,3,3,0,0,1-2.3-.8,3.3,3.3,0,0,1-.8-2.2,3.1,3.1,0,0,1,3.3-3.3,3,3,0,0,1,1.6.3v1.6a2,2,0,0,0-1.3-.4,1.8,1.8,0,0,0-1.3,3,1.6,1.6,0,0,0,1.2.4,2.5,2.5,0,0,0,1.4-.4Z" transform="translate(-8.8)" fill="#fff" stroke="#fff" stroke-miterlimit="10" stroke-width="0.05"/><path d="M129,28.5a1.1,1.1,0,0,0-.8-.2,1,1,0,0,0-.9.4,2.1,2.1,0,0,0-.4,1.2v2.9h-1.8v-6h1.8v1.1h.1a1.6,1.6,0,0,1,1.6-1.2h.4Z" transform="translate(-8.8)" fill="#fff" stroke="#fff" stroke-miterlimit="10" stroke-width="0.05"/><path d="M132.7,32.9a3.2,3.2,0,0,1-2.4-.8,3.4,3.4,0,0,1-.8-2.3,2.9,2.9,0,0,1,.9-2.3,3.2,3.2,0,0,1,2.4-.9,3,3,0,0,1,2.3.9,2.8,2.8,0,0,1,.9,2.2,3.2,3.2,0,0,1-.9,2.4A3.2,3.2,0,0,1,132.7,32.9Zm0-4.8a1.3,1.3,0,0,0-1,.4,2.2,2.2,0,0,0-.4,1.3c0,1.1.5,1.7,1.4,1.7s1.4-.6,1.4-1.8S133.6,28.1,132.7,28.1Z" transform="translate(-8.8)" fill="#fff" stroke="#fff" stroke-miterlimit="10" stroke-width="0.05"/><path d="M136.8,32.6V31.1a1.8,1.8,0,0,0,.9.4l.8.2.8-.2c.2,0,.3-.2.3-.4a.4.4,0,0,0-.1-.3l-.4-.2h-.4l-.5-.2-.6-.3-.5-.3c-.1-.2-.2-.3-.2-.5a1.3,1.3,0,0,1-.1-.6c0-.4,0-.7.2-.9a.9.9,0,0,1,.6-.6,1.1,1.1,0,0,1,.8-.3l1-.2h.8l.8.2v1.4l-.7-.3h-1.5c0,.1-.1.1-.2.2v.2a.4.4,0,0,0,.1.3l.3.2h.3l.4.2.7.3.5.3.4.5c0,.2.1.4.1.7a1.6,1.6,0,0,1-.3.9,1.7,1.7,0,0,1-.6.6,1.9,1.9,0,0,1-.9.3h-1A4.8,4.8,0,0,1,136.8,32.6Z" transform="translate(-8.8)" fill="#fff" stroke="#fff" stroke-miterlimit="10" stroke-width="0.05"/><path d="M145.3,32.9a3.2,3.2,0,0,1-2.4-.8,3.4,3.4,0,0,1-.8-2.3,2.9,2.9,0,0,1,.9-2.3,3.2,3.2,0,0,1,2.4-.9,2.9,2.9,0,0,1,2.3.9,2.8,2.8,0,0,1,.9,2.2,3.2,3.2,0,0,1-.9,2.4A3.2,3.2,0,0,1,145.3,32.9Zm0-4.8a1.3,1.3,0,0,0-1,.4,2.3,2.3,0,0,0-.3,1.3c0,1.1.4,1.7,1.4,1.7s1.3-.6,1.3-1.8S146.2,28.1,145.3,28.1Z" transform="translate(-8.8)" fill="#fff" stroke="#fff" stroke-miterlimit="10" stroke-width="0.05"/><path d="M153.5,25.3h-.7c-.6,0-.9.3-.9,1v.6h1.4v1.4h-1.4v4.6h-1.8V28.2h-1V26.8h1V26a2,2,0,0,1,.7-1.6,2.4,2.4,0,0,1,1.8-.6h.9Z" transform="translate(-8.8)" fill="#fff" stroke="#fff" stroke-miterlimit="10" stroke-width="0.05"/><path d="M158,32.7c-.2.2-.6.2-1.2.2s-1.9-.6-1.9-2V28.2h-1V26.8h1V25.5l1.8-.5v1.8H158v1.4h-1.3v2.4c0,.6.2.9.7.9h.6Z" transform="translate(-8.8)" fill="#fff" stroke="#fff" stroke-miterlimit="10" stroke-width="0.05"/><path d="M118.3,42.2a7.8,7.8,0,0,1-1.6,1.5v2.9a2,2,0,0,1-.2.9,1.1,1.1,0,0,1-.8.3h-2.1l-.3-1h2.2a.2.2,0,0,0,.2-.2V44.5a26.8,26.8,0,0,1-7.5,3.3l-.5-1a37,37,0,0,0,7-2.6l-6.6.5-.3-1h1.3V38.3h1.4a3.9,3.9,0,0,0,.8-1l1.2.2-.6.8h4.8v4.1a4.1,4.1,0,0,0,1-.9ZM115.7,40v-.7h-5.5V40Zm0,1.7v-.8h-5.5v.8Zm0,1.4v-.5h-5.5v1C111.9,43.5,113.8,43.4,115.7,43.1Z" transform="translate(-8.8)" fill="#fff" stroke="#fff" stroke-miterlimit="10" stroke-width="0.05"/><path d="M124.1,37.8a10.1,10.1,0,0,1-1.5,2.6,11.2,11.2,0,0,1-2.1,2.2l-.8-.7a10.6,10.6,0,0,0,3.5-4.5Zm4.4,3.9c0,1.2-.1,2.3-.2,3.4a10.5,10.5,0,0,1-.3,2l-.5.6-.8.2h-1.6l-.3-1.1h2.1q.3-.1.3-1.5a22.6,22.6,0,0,0,.1-2.5h-2.6a6.4,6.4,0,0,1-3.8,5.2l-.7-.8a6.9,6.9,0,0,0,2.2-1.7,4.2,4.2,0,0,0,1.2-2.7h-1.9V41.7Zm1.8.1-.7.9a10.7,10.7,0,0,1-2.9-4.1h-1.1V37.5h1.7A8.1,8.1,0,0,0,130.3,41.8Z" transform="translate(-8.8)" fill="#fff" stroke="#fff" stroke-miterlimit="10" stroke-width="0.05"/><path d="M135.3,39.4h-3.5v-.9h1.3a3.2,3.2,0,0,0-.3-.9l1-.3a5.2,5.2,0,0,1,.5,1.2h1Zm-.3,8.3h-1v-.6h-.9v.8h-1V43.8H135Zm0-4.8h-2.9V42H135Zm0-1.7h-2.9v-.9H135Zm-1,5V44.7h-.9v1.5Zm8.4-.4-.3,1.3c-.2.4-.3.7-.5.8h-.4c-.5,0-.9-.4-1.2-1.3a15.6,15.6,0,0,1-1.3,1.3l-.8-.7.9-.7h-3V42.2H139v4.2a3.9,3.9,0,0,0,.8-1c-.1-1.1-.2-2.3-.2-3.7h-4.2v-.9h.9a8.3,8.3,0,0,0-.4-1.5h-.3v-.9h1.3a4.1,4.1,0,0,0-.3-.8l1-.2a9.3,9.3,0,0,1,.5,1h1.1v.9H139a8.8,8.8,0,0,1-.5,1.5h1.1V37.5h1c0,.8-.1,1.9-.1,3.3h1.8v.9h-1.7V44a4.7,4.7,0,0,0,.6-1.9l1,.4a9.6,9.6,0,0,1-1.4,3.2,2.3,2.3,0,0,0,.4,1.1,6.1,6.1,0,0,0,.3-1.5ZM138,43.9v-.8h-1.3v.8Zm0,1.8v-.9h-1.3v.9Zm-.1-6.4h-1a15.5,15.5,0,0,1,.4,1.5h.2A4.2,4.2,0,0,0,137.9,39.3Zm4.4.8-.9.3a10.4,10.4,0,0,0-.6-2.2l.8-.4A10.5,10.5,0,0,1,142.3,40.1Z" transform="translate(-8.8)" fill="#fff" stroke="#fff" stroke-miterlimit="10" stroke-width="0.05"/><path d="M149.7,42.9a14.4,14.4,0,0,1-.4,4.3,1.6,1.6,0,0,1-1.5.7h-1l-.3-1h1.3a.5.5,0,0,0,.6-.6,9.6,9.6,0,0,0,.2-2.4h-2.2a6.9,6.9,0,0,1-1.9,4.1l-.8-.7a8.1,8.1,0,0,0,1.8-5.7h-1v-4h5.2v4h-3.1c0,.5-.1.9-.1,1.3Zm-1.1-2.4V38.6h-3v1.9Zm3.1,5.2h-1V38.3h1Zm2.3.8a1.2,1.2,0,0,1-.4,1.1,1.2,1.2,0,0,1-.9.3h-1.3l-.4-1h1.8a.4.4,0,0,0,.1-.3v-9H154Z" transform="translate(-8.8)" fill="#fff" stroke="#fff" stroke-miterlimit="10" stroke-width="0.05"/><path d="M130.2,58.7h-4.7v3.7h-1V58.7h-4.7V57.6h4.7V53.3h-4.4v-1H130v1h-4.5v4.3h4.7Zm-7-2-1,.5a16.4,16.4,0,0,0-1.6-2.8l1.1-.6A26.4,26.4,0,0,1,123.2,56.7Zm6.3-2.3a14.8,14.8,0,0,1-1.7,2.8l-1-.5a20.3,20.3,0,0,0,1.7-2.8Z" transform="translate(-8.8)" fill="#fff" stroke="#fff" stroke-miterlimit="10" stroke-width="0.05"/><path d="M142.4,56.3l-1,.7a6.1,6.1,0,0,0-.7-1l-8.6.6-.2-1c1.1-.4,2.4-1.6,3.7-3.8l1.2.3a18.1,18.1,0,0,1-2.8,3.4l5.9-.5a14.5,14.5,0,0,0-1.8-1.6l.9-.8A18.8,18.8,0,0,1,142.4,56.3Zm-1.1,6.1h-1.1v-.5h-6.3v.5h-1.1v-5h8.5Zm-1.1-1.6V58.5h-6.3v2.3Z" transform="translate(-8.8)" fill="#fff" stroke="#fff" stroke-miterlimit="10" stroke-width="0.05"/></svg>