<svg xmlns="http://www.w3.org/2000/svg" xmlns:xlink="http://www.w3.org/1999/xlink" viewBox="0 0 433 302.1"><defs><symbol id="a" viewBox="0 0 21 20"><circle cx="10.5" cy="10" r="10" fill="#505050"/><path d="M13,14.4H7.7v-.7a2.2,2.2,0,0,1,.1-.8l.3-.7c.1-.2.3-.2.5-.4l.5-.5.6-.5.6-.5.5-.5.4-.5.3-.5c.1-.2,0-.3,0-.5a1.3,1.3,0,0,0-.1-.6l-.3-.4c-.2-.2-.2-.2-.4-.2h-.6l-1,.2a3,3,0,0,0-1,.7V6.6l.5-.3.5-.2.6-.2h.7l1,.2a2,2,0,0,1,.8.4,1.8,1.8,0,0,1,.5.7,3,3,0,0,1,.2,1,2.8,2.8,0,0,1-.1.9,3.6,3.6,0,0,1-.4.9l-.6.6c-.3.2-.4.5-.7.7l-.7.5-.6.5-.4.5a.8.8,0,0,0-.2.5H13v1.2Z" fill="#fff"/></symbol><symbol id="b" viewBox="0 0 21 20"><circle cx="10.5" cy="10" r="10" fill="#505050"/><path d="M11.7,5.8v8.6H10.3V7.5L9.5,8a2.9,2.9,0,0,1-1,.3V7.1l.7-.2.6-.3.7-.3.6-.5Z" fill="#fff"/></symbol><symbol id="c" viewBox="0 0 21 20"><circle cx="10.5" cy="10" r="10" fill="#505050"/><path d="M7.9,14.1V12.8a3.1,3.1,0,0,0,1.9.6,1.7,1.7,0,0,0,1.3-.4,1.4,1.4,0,0,0,.5-1c0-1-.7-1.4-2.2-1.4H8.8V9.5h.6c1.3,0,1.9-.4,1.9-1.4S10.8,7,9.8,7a2.5,2.5,0,0,0-1.6.6V6.4a4.2,4.2,0,0,1,2-.5,2.6,2.6,0,0,1,1.8.6A1.8,1.8,0,0,1,12.7,8,2,2,0,0,1,11,10h0a2.6,2.6,0,0,1,1.4.6A2.2,2.2,0,0,1,13,12a2,2,0,0,1-.9,1.8,3.9,3.9,0,0,1-2.2.8A3.7,3.7,0,0,1,7.9,14.1Z" fill="#fff"/></symbol><symbol id="d" viewBox="0 0 21 20"><circle cx="10.5" cy="10" r="10" fill="#505050"/><path d="M8.1,14.2V12.9a2.7,2.7,0,0,0,1.7.6,2.9,2.9,0,0,0,1.4-.4,1.2,1.2,0,0,0,.5-1.2,1.1,1.1,0,0,0-.6-1.1,3.3,3.3,0,0,0-1.5-.4H8.2L8.5,6h4.1V7.2h-3V9.3h.7a2.8,2.8,0,0,1,2.1.7,2.3,2.3,0,0,1,.7,1.8,2.8,2.8,0,0,1-.8,2,3.2,3.2,0,0,1-2.3.8A3,3,0,0,1,8.1,14.2Z" fill="#fff"/></symbol><symbol id="e" viewBox="0 0 21 20"><circle cx="10.5" cy="10" r="10" fill="#505050"/><path d="M12.5,6v5.4h1.3v1.1H12.5v1.8H11.1V12.5H7.3V11.4l1.1-1.3,1-1.4.9-1.4A9.1,9.1,0,0,0,11.1,6Zm-1.4,5.5V8a17.4,17.4,0,0,1-1.3,2,8.5,8.5,0,0,1-1.1,1.4Z" fill="#fff"/></symbol></defs><title>OJ104327284</title><rect width="433" height="299.7" fill="#fff"/><rect x="149.4" y="41" width="220.7" height="17.5" fill="#ebebeb"/><rect x="251.9" y="37.5" width="46.3" height="24.9" fill="#fff"/><path d="M300,31.8a.8.8,0,0,0-.8-.8H250.9a.8.8,0,0,0-.8.8V62a.8.8,0,0,0,.8.8h48.3a.8.8,0,0,0,.8-.8Zm-43.1,4.8h-2.5V34.1h2.5Zm5,0h-2.5V34.1h2.5Zm5,0h-2.5V34.1h2.5Zm-15,1.8h46.3V60.9H251.9V38.4Z" fill="#0072c6"/><circle cx="239" cy="46.9" r="18.5" fill="#ebebeb"/><path d="M239,66.3a19.5,19.5,0,1,1,19.5-19.5A19.5,19.5,0,0,1,239,66.3Zm0-36.9a17.5,17.5,0,1,0,17.5,17.5A17.5,17.5,0,0,0,239,29.4Z" fill="#3c3c41"/><path d="M244,38a5,5,0,0,1-10,0,5.1,5.1,0,0,1,5-5,5,5,0,0,1,5,5" fill="#75757a"/><polygon points="242.6 44.8 238.9 49.9 235.3 44.8 230 44.8 230 57.4 248 57.4 248 44.8 242.6 44.8" fill="#75757a"/><path d="M234,38a5,5,0,0,0,4.9,5l1.3-9.9a2.5,2.5,0,0,0-1.2-.2,5,5,0,0,0-5,5.1" fill="#fff" opacity="0.2" style="isolation:isolate"/><polygon points="235.3 44.8 230 44.8 230 57.4 237 57.4 238.1 48.7 235.3 44.8" fill="#fff" opacity="0.2" style="isolation:isolate"/><rect y="217.8" width="96" height="55" fill="#fff"/><rect y="217.8" width="96" height="55" fill="#50e6ff" opacity="0.65" style="isolation:isolate"/><rect x="210.3" y="217.8" width="95" height="55" fill="#fff"/><rect x="210.3" y="217.8" width="95" height="55" fill="#50e6ff" opacity="0.65" style="isolation:isolate"/><rect x="221" y="227.8" width="75" height="35" fill="#3c3c41"/><circle cx="273.5" cy="197.4" r="4.6" fill="#50e6ff" stroke="#0072c6" stroke-miterlimit="10" stroke-width="0.75"/><line x1="273.5" y1="202.3" x2="273.5" y2="217.8" fill="none" stroke="#000"/><path d="M165.3,64.2v87.6a7.8,7.8,0,0,0,4.7,6.8l89.7,34.3" fill="none" stroke="#000" stroke-miterlimit="10"/><polygon points="161.5 65.3 165.3 58.8 169 65.3 161.5 65.3"/><polygon points="257.2 196 264.6 194.8 259.9 189 257.2 196"/><path d="M351.4,58.8v93a9,9,0,0,1-4.5,7.3l-62,31.3" fill="none" stroke="#000" stroke-miterlimit="10"/><polygon points="284.3 186.5 280.2 192.8 287.6 193.2 284.3 186.5"/><path d="M220.9,64.2v86.1a11.1,11.1,0,0,0,4,8l39.1,29.2" fill="none" stroke="#000" stroke-miterlimit="10"/><polygon points="217.2 65.3 220.9 58.8 224.7 65.3 217.2 65.3"/><polygon points="261 189.8 268.4 190.6 265.4 183.8 261 189.8"/><line x1="273.5" y1="68.7" x2="273.5" y2="184.3" fill="none" stroke="#000" stroke-miterlimit="10"/><polygon points="269.8 69.8 273.5 63.3 277.2 69.8 269.8 69.8"/><polygon points="269.8 183.2 273.5 189.7 277.2 183.2 269.8 183.2"/><use width="21" height="20" transform="translate(210.5 91.2)" xlink:href="#a"/><use width="21" height="20" transform="translate(154.8 91.2)" xlink:href="#b"/><use width="21" height="20" transform="translate(263 91.2)" xlink:href="#c"/><use width="21" height="20" transform="translate(340.9 91.2)" xlink:href="#d"/><rect x="217.7" y="117.6" width="6.8" height="15.7" fill="#fff"/><polygon points="319.4 163.8 310.8 170 314.1 180 324.7 180 328 170 319.4 163.8" fill="#50e6ff" stroke="#0072c6" stroke-miterlimit="10" stroke-width="0.75"/><path d="M221,231.7H77.5c-7.2,0-13,4.1-13,9.1s5.8,9.1,13,9.1H215.7" fill="none" stroke="#000" stroke-miterlimit="10"/><polygon points="214.5 253.7 221 250 214.5 246.2 214.5 253.7"/><rect x="29.5" y="233" width="37" height="19.9" fill="#fff"/><path d="M68,228.4a.7.7,0,0,0-.7-.7H28.7a.7.7,0,0,0-.7.7v24.2a.7.7,0,0,0,.7.7H67.4a.7.7,0,0,0,.7-.7V228.4Zm-34.5,3.9h-2v-2h2Zm4,0h-2v-2h2Zm4,0h-2v-2h2Zm-12,1.5h37v18h-37Z" fill="#001f50"/><use width="21" height="20" transform="translate(142.8 224.9)" xlink:href="#e"/><rect x="73.6" y="88.6" width="80.4" height="43.5" fill="none"/><rect x="231.1" y="0.9" width="80.4" height="43.5" fill="none"/><rect x="115.8" y="258.6" width="75" height="43.5" fill="none"/><rect x="221" y="233.1" width="75" height="43.5" fill="none"/><path d="M5.6,209.2l-.4.5a14.1,14.1,0,0,0-1.4-1.8v5.5H3.2v-5.5a11.9,11.9,0,0,1-1.8,2.9l-.4-.5a16.6,16.6,0,0,0,2.2-3.8H1.1v-.6H3.2v-1.8l-1.6.3-.3-.6a13.3,13.3,0,0,0,3.7-.9l.3.5-1.5.5v2H5.5v.6H3.8v.6A12.6,12.6,0,0,1,5.6,209.2Zm5.9,3.9H5v-.6H6.1v-9.3h4.4v9.3h1Zm-1.6-6.9v-2.4H6.7v2.4Zm0,3.1v-2.5H6.7v2.5Zm0,3.2v-2.6H6.7v2.6Z" stroke="#000" stroke-miterlimit="10" stroke-width="0.1"/><path d="M23,212.5a.7.7,0,0,1-.4.7,4.2,4.2,0,0,1-1.6.2h-.5l-.2-.7h1.9c.1,0,.1-.1.1-.2v-2.9H18.9v3.5h-.6v-3.5H14.9a8.9,8.9,0,0,1-1.3,3.8l-.5-.4a7.8,7.8,0,0,0,1.2-4.4v-5.5H23ZM18.3,206v-2.2H14.9V206Zm0,3v-2.4H14.9V209Zm4-3v-2.2H18.9V206Zm0,3v-2.4H18.9V209Z" stroke="#000" stroke-miterlimit="10" stroke-width="0.1"/><path d="M35,203.5a37.2,37.2,0,0,1-7.7.9V206H35v3.8H27.2a6.7,6.7,0,0,1-1.7,3.7l-.5-.6a3.9,3.9,0,0,0,1.3-2.1,13.9,13.9,0,0,0,.4-4.2v-2.8a44.3,44.3,0,0,0,8-.8Zm-.7,5.7v-2.6h-7v2.6Z" stroke="#000" stroke-miterlimit="10" stroke-width="0.1"/><path d="M47.4,212.8H46.3l-1-2.6H41.4l-.9,2.6H39.4l3.5-9.1h1ZM45,209.3l-1.5-3.9a3.5,3.5,0,0,1-.1-.6h0c-.1.2-.1.4-.2.6l-1.4,3.9Z" stroke="#000" stroke-miterlimit="10" stroke-width="0.1"/><path d="M215.5,209.2l-.4.5a8.6,8.6,0,0,0-1.4-1.8v5.5h-.6v-5.5a11.9,11.9,0,0,1-1.8,2.9l-.4-.5a16.6,16.6,0,0,0,2.2-3.8H211v-.6h2.1v-1.8l-1.6.3-.2-.6a15.4,15.4,0,0,0,3.7-.9l.3.5-1.6.5v2h1.7v.6h-1.7v.6A12.6,12.6,0,0,1,215.5,209.2Zm5.9,3.9h-6.5v-.6H216v-9.3h4.5v9.3h.9Zm-1.6-6.9v-2.4h-3.2v2.4Zm0,3.1v-2.5h-3.2v2.5Zm0,3.2v-2.6h-3.2v2.6Z" stroke="#000" stroke-miterlimit="10" stroke-width="0.1"/><path d="M232.9,212.5c0,.4-.1.6-.4.7a4,4,0,0,1-1.5.2h-.6l-.2-.7h1.9c.1,0,.1-.1.1-.2v-2.9h-3.4v3.5h-.6v-3.5h-3.4a7.8,7.8,0,0,1-1.3,3.8l-.5-.4a7.8,7.8,0,0,0,1.2-4.4v-5.5h8.7Zm-4.7-6.5v-2.2h-3.4V206Zm0,3v-2.4h-3.4V209Zm4-3v-2.2h-3.4V206Zm0,3v-2.4h-3.4V209Z" stroke="#000" stroke-miterlimit="10" stroke-width="0.1"/><path d="M244.9,203.5a36.5,36.5,0,0,1-7.7.9V206h7.7v3.8h-7.8a6.7,6.7,0,0,1-1.7,3.7l-.5-.6a3.9,3.9,0,0,0,1.3-2.1,13.9,13.9,0,0,0,.4-4.2v-2.8a44.3,44.3,0,0,0,8-.8Zm-.6,5.7v-2.6h-7.1v2.6Z" stroke="#000" stroke-miterlimit="10" stroke-width="0.1"/><path d="M250.4,212.8v-9.1h2.5a2.4,2.4,0,0,1,1.8.6,1.8,1.8,0,0,1,.7,1.5,2,2,0,0,1-.4,1.3,1.8,1.8,0,0,1-1.1.8h0a1.7,1.7,0,0,1,1.4.6,2.1,2.1,0,0,1,.6,1.6,2.5,2.5,0,0,1-.9,1.9,3.2,3.2,0,0,1-2,.7Zm1-8.2v3h1.1a2.1,2.1,0,0,0,1.4-.4,1.7,1.7,0,0,0,.5-1.2c0-.9-.6-1.4-1.8-1.4Zm0,3.9v3.4h1.4a2.1,2.1,0,0,0,1.5-.5,1.3,1.3,0,0,0,.5-1.2c0-1.1-.7-1.7-2.2-1.7Z" stroke="#000" stroke-miterlimit="10" stroke-width="0.1"/><path d="M290.3,204.6l-1.2.5v3.7c0,.7-.3,1-.9,1h-.9l-.2-.6h1.3c.1,0,.1-.1.1-.2v-3.6l-1.4.5-.2-.6,1.6-.5V202h-1.6v-.6h1.6v-2.1h.6v2.1h1v.6h-1v2.4l1-.4Zm7.1,4.7-.3.5-3.1-1.4a13.5,13.5,0,0,1-3.5,1.4l-.5-.5a12.1,12.1,0,0,0,3.4-1.3,6.4,6.4,0,0,1-1.9-2.2H291v-.6h5.5v.6a5.6,5.6,0,0,1-1.9,2.2A18.2,18.2,0,0,0,297.4,209.3Zm-.3-4.5h-.6v-1.2h-5.3v1.2h-.6V203h6.5Zm-.4-5a20.8,20.8,0,0,1-5.8.8l-.3-.6a19.6,19.6,0,0,0,5.7-.8Zm-4.5,2.6-.6.2a6.4,6.4,0,0,0-.8-1.4l.5-.3A6,6,0,0,1,292.2,202.4Zm3.6,3.4h-3.6a4.5,4.5,0,0,0,1.8,1.8A5.2,5.2,0,0,0,295.8,205.8Zm-1.3-3.4-.6.2-.6-1.5.5-.2A5.2,5.2,0,0,1,294.5,202.4Zm2.5-1.5a7.7,7.7,0,0,1-1,1.8l-.6-.3a10.6,10.6,0,0,0,1-1.7Z" stroke="#000" stroke-miterlimit="10" stroke-width="0.1"/><path d="M302.6,204.5l-.4.4-.9-1.2v6.1h-.6v-6.1a14.6,14.6,0,0,1-1.4,2.8l-.4-.5a14.6,14.6,0,0,0,1.7-3.8h-1.5v-.6h1.6v-2.3h.6v2.3h1.1v.6h-1.1v.6A8.6,8.6,0,0,1,302.6,204.5Zm6.8,4.7h-5.6v.6h-.6v-4l-.9.8-.4-.5a6.8,6.8,0,0,0,2-2.4l.6.2a4.3,4.3,0,0,1-.4.7h2.1l-.3-.5.5-.3a3.5,3.5,0,0,1,.5.8h2.2v.5h-2.5v.8h2.2v.5h-2.2v.9h2.2v.5h-2.2v.9h2.8Zm-4.1-8h-.6v-.5h-2.2v-.6h2.2v-.8h.6Zm.2,2.3h-2.6v-1.9h2.6Zm-.5-.5v-.9h-1.5v.9Zm1,2.9v-.8h-2.2v.8Zm0,1.4v-.9h-2.2v.9Zm0,1.4v-.9h-2.2v.9Zm2.9-5.2h-2.6v-1.9h2.6Zm.5-2.8h-2.2v.5h-.6v-1.9h.6v.8h2.2Zm-1,2.3v-.9h-1.5v.9Z" stroke="#000" stroke-miterlimit="10" stroke-width="0.1"/><path d="M314.7,201.8h-.8l.4.4c-.1,1.2-.3,3.1-.7,5.7l.9-.3v.6a24.9,24.9,0,0,1-3.5,1.1v-.7l.9-.2a48.4,48.4,0,0,0-.4-6.3l.5-.3H311v-.6h1.6a7,7,0,0,0-.6-1.7l.6-.2c.2.5.4,1.2.6,1.9h1.5Zm-1,0H312a48.8,48.8,0,0,1,.4,6.4h.6A53.6,53.6,0,0,0,313.7,201.8Zm7.7,1.9h-3.2a7.8,7.8,0,0,1-.5,1.4h3.2V209c0,.5-.3.8-1,.8h-.3l-.2-.6h.5c.3,0,.4-.1.4-.4v-3.1h-1.1v3.7h-.6v-3.7h-1.2v3.7h-.5v-3.7h-1.2v4.1h-.6v-4.7h2c.2-.4.3-.9.5-1.4h-3v-.5h6.8Zm-.6-1.7h-5.5v-2.1h.6v1.5h1.8v-2.1h.6v2.1h1.8v-1.5h.7Z" stroke="#000" stroke-miterlimit="10" stroke-width="0.1"/><path d="M324.2,207.4a9.6,9.6,0,0,1-.8,2.4l-.5-.3a14.3,14.3,0,0,0,.8-2.2Zm4-.4h-5.3v-.6h2.4v-1.2h-2v-.6h2v-1h-2v-4h4.5v4h-1.9v1h2v.6h-2v1.2h2.3Zm-2.9-3.9v-3h-1.4v3Zm-.3-.7-.4.2c-.1-.6-.3-1.1-.4-1.7l.4-.2A5.9,5.9,0,0,1,325,202.4Zm.4,7.2h-.6v-.5a11,11,0,0,0-.2-1.8h.6A15,15,0,0,1,325.4,209.6Zm1.4-.3-.6.2a5.2,5.2,0,0,0-.4-2.1h.6A11.8,11.8,0,0,1,326.8,209.3Zm.4-6.2v-3h-1.3v3Zm-.1-2.3c-.2.7-.3,1.3-.5,1.8l-.5-.2a5.9,5.9,0,0,0,.4-1.7Zm1.1,8.2-.5.2-.6-1.9h.5A7.6,7.6,0,0,1,328.2,209Zm5.2-7.1h-2.5v2.4h2v5.5h-.6v-1h-3v1h-.6v-5.5h1.5v-5h.7v2h2.5Zm-1.1,6.3v-3.3h-3v3.3Z" stroke="#000" stroke-miterlimit="10" stroke-width="0.1"/><path d="M296.9,105.8a.9.9,0,0,1-.5.8h-2.2l-.2-.6h1.9a.3.3,0,0,0,.3-.3V97.1h-8v9.6h-.6V96.5h9.3Zm-1.7-6.6h-6v-.6h6Zm-.6,5.1h-4.7v-3.6h4.7Zm-.7-.7v-2.3h-3.4v2.3Z" stroke="#000" stroke-miterlimit="10" stroke-width="0.1"/><path d="M300.8,104.3a7,7,0,0,1-1.3,1.9l-.5-.4a8.3,8.3,0,0,0,1.3-1.8Zm8.4-5H299.1v-.6h3.1l-.5-1.1h-2v-.5h4.1l-.5-.7.6-.3a8.6,8.6,0,0,1,.7,1h4.1v.5h-2l-.5,1.1h3Zm-1.3,4.2h-7.5v-3.4h7.5Zm-.7-2v-.8H301v.8Zm0,1.4v-.8H301v.8ZM307,105a5,5,0,0,1-.3,1.2l-.5.4h-3.7l-.4-.2a4.3,4.3,0,0,1-.1-.5v-1.7h.6v1.7a.2.2,0,0,0,.2.2h3.1c.1-.1.3-.2.3-.4a2.2,2.2,0,0,0,.1-.9Zm-1-7.4h-3.6c.1.3.3.7.4,1.1h2.7Zm-.8,7.4-.6.3a5.1,5.1,0,0,0-.8-1.3l.5-.2A12.5,12.5,0,0,1,305.2,105Zm4.2.9-.6.4a6.9,6.9,0,0,0-1.4-2.1l.5-.3A11.5,11.5,0,0,1,309.4,105.9Z" stroke="#000" stroke-miterlimit="10" stroke-width="0.1"/><path d="M367.7,96.5c-.1.3-.2.8-.4,1.3l-.2.8v8.2h-.7v-6.6a7.6,7.6,0,0,1-.9,1.8l-.3-.7a18,18,0,0,0,1.9-5Zm8,8.1H374v1.3a1.9,1.9,0,0,1-.2.7,1.4,1.4,0,0,1-1.1.3H372l-.3-.6h1.5a.2.2,0,0,0,.2-.2v-1.4h-5.8v-.5h5.8v-.7h.6v.7h1.7Zm.1-1.3-.4.3c-.2-.1-.3-.3-.5-.6l-7,.4v-.5l3.4-.2v-.8h-2.8V98.6h2.8v-.9h-3.3v-.5h3.3v-.9h.7v.9h3.5v.5h-3.5v.9h3v3.3h-.4A7.9,7.9,0,0,1,375.8,103.3Zm-4.5,2.7-.4.4a15,15,0,0,0-2.2-1.1l.5-.5A11.3,11.3,0,0,1,371.3,106Zm-.1-6.1v-.8H369v.8Zm0,1.4v-.8H369v.8Zm3.1-1.4v-.8h-2.4v.8Zm0,1.4v-.8h-2.4v.8Zm0,1.2-.5-.5h-1.9v.8Z" stroke="#000" stroke-miterlimit="10" stroke-width="0.1"/><path d="M387.2,106.8h-.7v-1h-8.1v1h-.6V96.6h9.4Zm-.7-1.6v-8h-8.1v8Zm-1.8-1.9h-4.5V99h4.5Zm-.6-.6V99.6h-3.3v3.1Z" stroke="#000" stroke-miterlimit="10" stroke-width="0.1"/><path d="M393,101.5l-.5.5a7.7,7.7,0,0,0-.9-1.3v6.1H391v-6a8.6,8.6,0,0,1-1.4,2.7l-.4-.4a15.5,15.5,0,0,0,1.8-3.9h-1.6v-.5H391V96.3h.6v2.4h1.1v.5h-1.1v.7Zm6.7,4.8h-5.6v.5h-.6v-4l-.9.9-.4-.5a7.8,7.8,0,0,0,2-2.4l.6.2-.4.6h2.1l-.3-.4.5-.3.5.7h2.2v.5h-2.5v.8h2.3v.6h-2.3v.8h2.3v.6h-2.3v.9h2.8Zm-4.1-8H395v-.5h-2.2v-.6H395v-.8h.6Zm.2,2.3h-2.5v-2h2.5Zm-.5-.5v-1h-1.5v1Zm1,2.8v-.8h-2.2v.8Zm0,1.4v-.8h-2.2v.8Zm0,1.5v-.9h-2.2v.9Zm3-5.2h-2.7v-2h2.7Zm.4-2.8h-2.1v.5h-.7V96.4h.7v.8h2.1Zm-1,2.3v-1h-1.5v1Z" stroke="#000" stroke-miterlimit="10" stroke-width="0.1"/><path d="M405.7,101.9l-.4.5-1.4-1.6v6.1h-.6v-6a13.9,13.9,0,0,1-1.7,3l-.5-.5a12.2,12.2,0,0,0,2.2-4.1h-1.9v-.6h1.9V96.3h.6v2.4h1.4v.6h-1.4v.6Zm6.1,4.5-.4.5a10.8,10.8,0,0,1-3.2-1.9,7.8,7.8,0,0,1-3.3,1.9l-.4-.6a7.5,7.5,0,0,0,3.3-1.8,9,9,0,0,1-1.6-4.2h.7a8.9,8.9,0,0,0,1.3,3.8,9.7,9.7,0,0,0,1-4.9h-3.4v-.6h3.4V96.3h.7a12.2,12.2,0,0,1-.1,2.2h1.9v.6h-1.9a10.9,10.9,0,0,1-1.1,5.4A8.2,8.2,0,0,0,411.8,106.4Z" stroke="#000" stroke-miterlimit="10" stroke-width="0.1"/><path d="M210.2,125.9a22.6,22.6,0,0,1-.4,2.9h-.5a20.3,20.3,0,0,0,.4-2.9Zm3.4-5.9h-1.3v1.1h1.1v.6h-1.1v1.1h1.1v.6h-1.1v1.2h1.1v3.7a4.1,4.1,0,0,1-.3,1l-.5.3h-.9l-.2-.6h.7a.5.5,0,0,0,.5-.3,8,8,0,0,0,.2-2.3,4.1,4.1,0,0,0-.1-1.2h-2.9v-5.8h3.7Zm-2.6,8.6h-.5v-2.8h.4c.1,1.1.1,1.8.1,2.1Zm.7-7.5V120h-1.2v1.1Zm0,1.7v-1.1h-1.2v1.1Zm0,1.8v-1.2h-1.2v1.2Zm.2,3.6h-.5a15.2,15.2,0,0,0-.2-2.3h.4A7.8,7.8,0,0,1,211.9,128.2Zm.8-.7h-.4c-.1-.4-.2-1.1-.4-1.9h.4C212.4,125.9,212.5,126.5,212.7,127.5Zm7.1-5.5-.3.5a8,8,0,0,1-2.9-2.6,13.1,13.1,0,0,1-2.7,2.5l-.4-.5a8,8,0,0,0,2.9-2.9l.7.2-.2.2A9.1,9.1,0,0,0,219.8,122Zm-3.3,6.5-.5.4a3.1,3.1,0,0,0-.8-1,12.5,12.5,0,0,1-1.2,1.7l-.5-.3a7.3,7.3,0,0,0,1.6-3l.6.2a3.4,3.4,0,0,1-.3.8Zm-.2-2.5H214v-2.8h2.3Zm-.6-.5v-1.8h-1.1v1.8Zm2.5-3.2H215v-.5h3.2Zm1.6,6.9-.5.4a5.1,5.1,0,0,0-1.4-1.5l-1.1,1.6-.5-.4a8.7,8.7,0,0,0,1.7-3l.6.2-.5,1A9,9,0,0,1,219.8,129.2Zm-.5-3.2h-2.4v-2.8h2.4Zm-.6-.5v-1.8h-1.2v1.8Z" stroke="#000" stroke-miterlimit="10" stroke-width="0.1"/><path d="M224.9,120.9h-3.6v-.6H223l-.4-1.1.5-.2.5,1.3h1.3Zm-.2,1.7h-3.1V122h3.1Zm0,1.8h-3.1v-.6h3.1Zm-.1,4.9H224v-.7h-1.7v1h-.6v-4h2.9ZM224,128v-1.8h-1.7V128Zm4.1-8.1a4.1,4.1,0,0,1-.7,1.5,7.6,7.6,0,0,1-2,2.5l-.5-.4a5.3,5.3,0,0,0,1.5-1.5l-1.1-.9.4-.4,1,.8a7.9,7.9,0,0,0,.8-1.6h-2.2v-.5h2.8Zm3.5,9.4H225v-.6h2l-.6-1.7.4-.4h-.9v-2.5h4.7v2.5h-.8l.4.4a8,8,0,0,1-.6,1.7h2ZM230,126v-1.3h-3.5V126Zm-.3-2.8h-2.9v-.5h2.9Zm0,3.4h-2.8c.2.6.5,1.3.7,2.1H229Zm2.1-3.2-.4.5a7.4,7.4,0,0,1-2.9-4.5l.5-.3a5.3,5.3,0,0,0,.3,1.1,2.8,2.8,0,0,0,1-.9l.4.3a3.3,3.3,0,0,1-1.2,1.1,2.8,2.8,0,0,0,.5.8,5.7,5.7,0,0,0,1-1.1l.5.3-1.2,1.3A6.7,6.7,0,0,0,231.8,123.4Z" stroke="#000" stroke-miterlimit="10" stroke-width="0.1"/><path d="M35.2,259.3H26.3v3.5a16.6,16.6,0,0,1-.9,5.7l-.5-.5a16.2,16.2,0,0,0,.8-5.2v-4h4.5a3.5,3.5,0,0,0-.5-.8h.6a2,2,0,0,1,.6.9h4.3Zm-6.8,6.5a9.1,9.1,0,0,1-1.5,2.3l-.4-.4a9.1,9.1,0,0,0,1.3-2.2Zm.6-6a9.8,9.8,0,0,1-.7,1.6v3.7h-.6v-2.9a3.2,3.2,0,0,1-.8.9l-.4-.5a7.2,7.2,0,0,0,2-3.1Zm6,5.2H29.7v-3l-.8,1-.4-.5a8.9,8.9,0,0,0,2-2.9l.6.2a5.6,5.6,0,0,0-.5.8h1.8a5.4,5.4,0,0,0-.4-.8l.6-.2.5,1H35v.6H32.8v.7h2v.5h-2v.8h2v.5h-2v.8H35Zm-1.5,1.9a2,2,0,0,1-.2.9.9.9,0,0,1-.6.4h-3c-.2,0-.3-.1-.4-.3a.8.8,0,0,1-.2-.6v-1.8h.6v1.8a.5.5,0,0,0,.2.4h2.6l.3-.3a5.4,5.4,0,0,0,.1-.8Zm-1.3-5v-.7H30.3v.7Zm0,1.3v-.8H30.3v.8Zm0,1.3v-.8H30.3v.8Zm-.1,2.1-.5.4a7.5,7.5,0,0,0-1.1-1.3l.6-.3A6.3,6.3,0,0,1,32.1,266.6Zm3.3,1.1-.6.3a11,11,0,0,0-1.4-2.1l.5-.4A10.7,10.7,0,0,1,35.4,267.7Z" fill="#001f50" stroke="#001f50" stroke-miterlimit="10" stroke-width="0.1"/><path d="M46.8,267.5a.7.7,0,0,1-.4.7,4.2,4.2,0,0,1-1.6.2h-.5l-.2-.7H46c.1,0,.1-.1.1-.2v-2.9H42.7v3.5h-.6v-3.5H38.7a8.9,8.9,0,0,1-1.3,3.8l-.5-.4a7.8,7.8,0,0,0,1.2-4.4v-5.5h8.7ZM42.1,261v-2.2H38.7V261Zm0,3v-2.4H38.7V264Zm4-3v-2.2H42.7V261Zm0,3v-2.4H42.7V264Z" fill="#001f50" stroke="#001f50" stroke-miterlimit="10" stroke-width="0.1"/><path d="M52.9,263.9l-.4.4a13,13,0,0,0-1-1.5v5.6h-.6v-5.6a13.3,13.3,0,0,1-1.7,3l-.4-.5a14.3,14.3,0,0,0,2-3.9H48.9v-.6h2v-1.7l-1.5.2-.3-.6a10,10,0,0,0,3.4-.8l.4.6-1.4.4v1.9h1.4v.6H51.5v.5A10.7,10.7,0,0,1,52.9,263.9Zm6.4,4.2H52.5v-.6h3.1v-1.8H53v-.6h2.6v-1.8l-2.3.2-.3-.6a29.6,29.6,0,0,0,5.7-.7l.4.6-2.8.5v1.8h2.5v.6H56.3v1.8h3Zm-.8-6.6H53.4v-3.2h5.1Zm-.6-.6v-2H54v2Z" fill="#001f50" stroke="#001f50" stroke-miterlimit="10" stroke-width="0.1"/><path d="M71.3,265.8c-.3,1.8-.9,2.7-1.5,2.7h-.5a3.2,3.2,0,0,1-.6-.8,4.7,4.7,0,0,1-.8-1.4,10.9,10.9,0,0,1-.5-2.5c-.1-1-.1-2.1-.2-3.1H60.9v-.7h6.3a16.4,16.4,0,0,1-.1-2h.6c0,.9.1,1.6.1,2h3.5v.7H67.8a24.8,24.8,0,0,0,.3,3.3A8.2,8.2,0,0,0,69,267c.4.6.6.9.8.9s.4-.3.5-.9.3-1.1.4-1.5Zm-4.4.5-5.5,1.2-.2-.6,2.5-.5v-3.5H61.6v-.6h4.9v.6H64.3v3.4l2.6-.6Zm3.8-6.9-.5.3-1.3-1.3.5-.4A6,6,0,0,1,70.7,259.4Z" fill="#001f50" stroke="#001f50" stroke-miterlimit="10" stroke-width="0.1"/><path d="M115.1,261.6l-.8,1.4v5.8h-.6v-5l-1.2,1.2-.4-.5a13.1,13.1,0,0,0,2.5-3.2Zm.1-3a8.1,8.1,0,0,1-2.6,2.6l-.4-.5a8.5,8.5,0,0,0,2.5-2.5Zm7.4,9.4-.2.7h-3.8a3.1,3.1,0,0,1-1-.5,3.2,3.2,0,0,1-1-1,8.5,8.5,0,0,1-1,1.8l-.5-.3a8.3,8.3,0,0,0,1.4-4.8h.6a9.8,9.8,0,0,1-.3,2.6,3.4,3.4,0,0,0,1.9,1.5v-4.7h.7v1.5H122v.6h-2.6v2.7Zm-4-6.2-.4.4-.9-1.5a8.6,8.6,0,0,1-1.5,2.2l-.5-.4a8.4,8.4,0,0,0,2.1-4.2h.6a8.4,8.4,0,0,1-.5,1.7A7.1,7.1,0,0,1,118.6,261.8Zm3.9.7-.5.4a13.9,13.9,0,0,0-1.5-2.2,9.9,9.9,0,0,1-1.3,2l-.4-.4a9.9,9.9,0,0,0,1.9-4l.6.2a11.5,11.5,0,0,1-.6,1.7A10.8,10.8,0,0,1,122.5,262.5Z" fill="#1e1e1e" stroke="#1e1e1e" stroke-miterlimit="10" stroke-width="0.1"/><path d="M134.4,259.8h-8.8v3.4a14.5,14.5,0,0,1-1,5.7l-.5-.5a13.8,13.8,0,0,0,.9-5.2v-4h4.5l-.5-.8h.6a3.5,3.5,0,0,1,.6.9h4.2Zm-6.8,6.4a5.9,5.9,0,0,1-1.4,2.3l-.5-.4A5.7,5.7,0,0,0,127,266Zm.7-6a7.1,7.1,0,0,1-.7,1.6v3.7H127v-2.9l-.8.9-.4-.5a8.7,8.7,0,0,0,2-3Zm6,5.2H129v-3l-.8,1-.4-.5a10.8,10.8,0,0,0,2-2.9l.5.2-.4.8h1.8l-.5-.8h.6l.6.9h1.9v.6h-2.2v.7h2v.5h-2v.8h2v.5h-2v.8h2.2Zm-1.6,1.9a2,2,0,0,1-.2.9,1,1,0,0,1-.5.4h-3c-.2,0-.3-.1-.4-.3a.8.8,0,0,1-.2-.6V266h.6v1.7a.5.5,0,0,0,.2.4h2.5c.2-.1.3-.1.3-.3s.1-.4.1-.8Zm-1.2-5v-.7h-1.9v.7Zm0,1.3v-.8h-1.9v.8Zm0,1.3v-.8h-1.9v.8Zm-.1,2.1-.6.4a14.7,14.7,0,0,0-1-1.3l.5-.3A13.1,13.1,0,0,1,131.4,267Zm3.2,1.1-.5.3a8,8,0,0,0-1.5-2.1l.6-.3A15.3,15.3,0,0,1,134.6,268.1Z" fill="#1e1e1e" stroke="#1e1e1e" stroke-miterlimit="10" stroke-width="0.1"/><path d="M146,267.9c0,.4-.1.6-.3.7a5.1,5.1,0,0,1-1.6.2h-.5l-.2-.7h1.8a.2.2,0,0,0,.2-.2V265H142v3.5h-.7V265h-3.4a9,9,0,0,1-1.2,3.8l-.6-.4a7.8,7.8,0,0,0,1.2-4.4v-5.5H146Zm-4.7-6.5v-2.2H138v2.2Zm0,3V262H138v2.4Zm4.1-3v-2.2H142v2.2Zm0,3V262H142v2.4Z" fill="#1e1e1e" stroke="#1e1e1e" stroke-miterlimit="10" stroke-width="0.1"/><path d="M152.2,264.3l-.4.4-1.1-1.5v5.6h-.6v-5.6a13.5,13.5,0,0,1-1.6,3l-.4-.5a19.4,19.4,0,0,0,2-3.8h-2v-.6h2v-1.8l-1.4.3-.4-.6a13.6,13.6,0,0,0,3.5-.9l.4.6-1.5.4v2h1.5v.6h-1.5v.5A6.7,6.7,0,0,1,152.2,264.3Zm6.4,4.2h-6.8v-.6h3.1v-1.8h-2.7v-.6h2.7v-1.7h-2.4l-.3-.6a29.6,29.6,0,0,0,5.7-.7l.5.6-2.9.5v1.8h2.6v.6h-2.6v1.8h3.1Zm-.8-6.6h-5.1v-3.2h5.1Zm-.6-.6v-2h-3.9v2Z" fill="#1e1e1e" stroke="#1e1e1e" stroke-miterlimit="10" stroke-width="0.1"/><path d="M170.6,266.2c-.4,1.8-.9,2.7-1.6,2.7h-.4a3,3,0,0,1-.7-.8,9.1,9.1,0,0,1-.7-1.4,10.9,10.9,0,0,1-.5-2.5c-.1-1-.2-2.1-.2-3.1h-6.3v-.7h6.2v-2h.6v2h3.5v.7h-3.4a24.8,24.8,0,0,0,.3,3.3,6.5,6.5,0,0,0,.8,3.1c.4.6.7.9.8.9s.4-.3.6-.9.3-1.1.4-1.5Zm-4.5.5-5.4,1.2-.2-.6,2.5-.5v-3.5h-2.2v-.6h5v.6h-2.2v3.4l2.5-.6Zm3.9-6.9-.5.3a7.5,7.5,0,0,0-1.4-1.2l.5-.5A6.2,6.2,0,0,1,170,259.8Z" fill="#1e1e1e" stroke="#1e1e1e" stroke-miterlimit="10" stroke-width="0.1"/><path d="M182.6,268l-.2.7h-5l-1.8-.4a5.4,5.4,0,0,1-1.6-1,8,8,0,0,1-1.6,1.6l-.4-.4a12.9,12.9,0,0,0,1.6-1.7,8.9,8.9,0,0,1-1.2-2.4l.6-.2a4.6,4.6,0,0,0,.9,2,7.4,7.4,0,0,0,.7-3.1h-2.2v-.5a31.5,31.5,0,0,0,2.2-3.3h-2.4v-.6h3.1v.6a22.2,22.2,0,0,1-2.1,3.2h2.1a9.3,9.3,0,0,1-1,4.2,3.8,3.8,0,0,0,1.3.9l1.5.5h5.5Zm-.1-6.5h-.9v1.7h-2.7v1h3v.6h-3v1h3.4v.6h-3.4v1.2h-.6v-1.2h-3v-.6h3v-1h-2.5v-.6h2.5v-1H176v-.6h2.3v-1.1h-3v-.6h3v-1H176v-.6h2.3v-.9h.6v.9h2.7v1.6h.9Zm-1.5-.6v-1h-2.1v1Zm0,1.7v-1.1h-2.1v1.1Z" fill="#1e1e1e" stroke="#1e1e1e" stroke-miterlimit="10" stroke-width="0.1"/><path d="M194.6,268.5H184.2v-.6h3.3a24.6,24.6,0,0,0-1.7-6.3l.4-.2h-1.6v-.6h4.7a11.5,11.5,0,0,0-1-2.3l.6-.2a11.2,11.2,0,0,1,1.1,2.5h4.2v.6h-1.6l.4.3c-.6,2.4-1.2,4.5-1.8,6.2h3.4Zm-2.2-7.1h-5.9a31.8,31.8,0,0,1,1.6,6.5h2.4A43.6,43.6,0,0,0,192.4,261.4Z" fill="#1e1e1e" stroke="#1e1e1e" stroke-miterlimit="10" stroke-width="0.1"/><path d="M134.2,281.3a.8.8,0,0,1-.2.6,1.2,1.2,0,0,1-.9.3h-.9l-.2-.6h1.5c.1,0,.1-.1.1-.3v-3.1h-2.1a10.8,10.8,0,0,1-.9,4.1l-.5-.4a13.3,13.3,0,0,0,.9-5.3V272h3.2Zm-.6-3.8v-2.2h-2v2.2Zm0-2.8v-2.1h-2v2.1Zm7.1,7-.4.6a12.7,12.7,0,0,1-2.1-1.5,8.5,8.5,0,0,1-1.7,1.4l-.5-.4a10.3,10.3,0,0,0,1.8-1.4,10.3,10.3,0,0,1-1.7-3.8h-.3v5.6h-.6V272h5.1a9.6,9.6,0,0,1-.3,2.5,1.1,1.1,0,0,1-.6.7h-1.7l-.2-.6h1.7c.1,0,.2-.2.3-.4s.1-.7.2-1.6h-3.9V276h4.3a6.7,6.7,0,0,1-1.5,4.3A6.4,6.4,0,0,0,140.7,281.7Zm-1.2-5.1h-2.8a10.2,10.2,0,0,0,1.5,3.3A7,7,0,0,0,139.5,276.6Z" fill="#1e1e1e" stroke="#1e1e1e" stroke-miterlimit="10" stroke-width="0.1"/><path d="M146.7,275.6a5.8,5.8,0,0,1-.9,2.8l-.5-.5a3.6,3.6,0,0,0,.7-1.7h-1.1v5.3a.8.8,0,0,1-.2.4q-.1.3-.9.3h-.6l-.3-.7H144c.1,0,.2,0,.2-.1V277a14.9,14.9,0,0,1-1.8,3.4l-.4-.5a14,14,0,0,0,1.9-3.7h-1.9v-.6h2.7a7.7,7.7,0,0,0-1.9-1.6l.5-.4,1.1.8a10.2,10.2,0,0,0,1.3-1.8h-3.2V272h3.9v.6a10.2,10.2,0,0,1-1.6,2.2l.4.5-.3.3Zm5.2,2.7c-.1.9-.1,1.6-.2,2.2s-.2,1.1-.4,1.2l-.4.4h-1.5l-.3-.6h1.6c.1,0,.1-.1.2-.2s.1-.3.2-.8.1-.9.1-1.6h-2a4.2,4.2,0,0,1-3,3.3l-.4-.4a6.7,6.7,0,0,0,1.8-1.1,3.6,3.6,0,0,0,1-1.8h-1.9v-.6h2.1c0-.3.1-.7.1-1.2h.6c0,.3-.1.6-.1,1.1Zm.7-1.4-.4.5a7.1,7.1,0,0,1-2.6-1.3,7.6,7.6,0,0,1-2.3,1.3l-.4-.5a6.5,6.5,0,0,0,2.2-1.1,9.4,9.4,0,0,1-1-1.4l.5-.3a6.4,6.4,0,0,0,1,1.3,4.1,4.1,0,0,0,1.3-2h-2.6a6.9,6.9,0,0,1-1.4,1.5l-.4-.4a10.5,10.5,0,0,0,2.2-2.8l.6.2a2.4,2.4,0,0,1-.6.9h3.7v.6h-.9a4.5,4.5,0,0,1-1.4,2.3A8.2,8.2,0,0,0,152.6,276.9Z" fill="#1e1e1e" stroke="#1e1e1e" stroke-miterlimit="10" stroke-width="0.1"/><path d="M164.5,281.9H154.1v-.6H159V278h-3.9v-.6H159v-2.9h-4.5v-.6h4.7a6.2,6.2,0,0,0-1.1-2l.6-.3a10.1,10.1,0,0,1,1.2,2.3h4.2v.6h-4.4v2.9h3.8v.6h-3.8v3.3h4.8Z" fill="#1e1e1e" stroke="#1e1e1e" stroke-miterlimit="10" stroke-width="0.1"/><path d="M169.8,281.4a1.4,1.4,0,0,1-.2.6l-.7.2h-.5v-.6h.9v-1.7l-1.6.8v-.3a12.1,12.1,0,0,1-.8,1.9l-.5-.3a5.4,5.4,0,0,0,.8-3v-2.4h2.8Zm.8-5.1H170v-.7h-3.2v.7h-.6v-1.2h.7V272h3.3v3.1h.4Zm-1-2.8v-.9h-2.2v2.5h.8v-1.6Zm-.4,5.6V277h-1.6v.7l1.4.6-.2.5-1.2-.5c0,.7-.1,1.3-.1,1.7A7,7,0,0,0,169.2,279.1Zm.4-4V274h-.9v1.1Zm6.9,6.9h-6v-.6h1.9a11.2,11.2,0,0,0-.5-1.3h-.6v-1.9h4.6v1.9h-.7a8.1,8.1,0,0,1-.6,1.3h1.9Zm0-4.5h-5.7v-.6h5.7Zm-.3-1.4h-5.1v-3.4h1.6v-1h.5v1h1v-1h.5v1h1.5Zm-3.5-2v-.9h-1v.9Zm0,1.5v-1h-1v1Zm2.6,4v-.9h-3.4v.9Zm-.8.5h-1.9l.4,1.3h1A11.2,11.2,0,0,0,174.5,280.1Zm-.3-6v-.9h-1v.9Zm0,1.5v-1h-1v1Zm1.5-1.5v-.9h-1v.9Zm0,1.5v-1h-1v1Z" fill="#1e1e1e" stroke="#1e1e1e" stroke-miterlimit="10" stroke-width="0.1"/><path d="M253.6,10.9l-.4.6a11.1,11.1,0,0,1-4.7-4.1v4.7h-.7V7.4a16.3,16.3,0,0,1-4.5,4.1l-.4-.5a14.6,14.6,0,0,0,4.9-4.6v-3h-4.7V2.8h4.7V1.6h.7V2.8h4.8v.6h-4.8V6.3A9,9,0,0,0,250.6,9,9.5,9.5,0,0,0,253.6,10.9Zm-6.8-3.8-.5.4a8.1,8.1,0,0,0-1.2-1.4A6.7,6.7,0,0,1,243.5,8l-.5-.4A6.8,6.8,0,0,0,245.3,4l.6.2c-.1.4-.3.8-.5,1.4A9.6,9.6,0,0,1,246.8,7.1Zm6.2.3-.3.6-1.8-1.8a6.6,6.6,0,0,1-.9,1.5l-.5-.4A7.9,7.9,0,0,0,251,4.1h.6c-.2.5-.3,1-.5,1.4A17.3,17.3,0,0,1,253,7.4Z" fill="#1e1e1e" stroke="#1e1e1e" stroke-miterlimit="10" stroke-width="0.1"/><path d="M264.3,12.1h-.6v-.8h-7v.8h-.6V3h3.3a10.1,10.1,0,0,0,.7-1.5l.6.2L260.1,3h4.2Zm-.6-6.7V3.6h-7V5.4Zm0,2.5V6h-7V7.9Zm0,2.7v-2h-7v2Z" fill="#1e1e1e" stroke="#1e1e1e" stroke-miterlimit="10" stroke-width="0.1"/><path d="M271.5,7.9l-.4.5a8.6,8.6,0,0,0-1.4-1.8v5.6h-.6V6.6a11.9,11.9,0,0,1-1.8,2.9l-.4-.5a16.6,16.6,0,0,0,2.2-3.8H267V4.6h2.1V2.8l-1.6.3-.2-.6a15.4,15.4,0,0,0,3.7-.9l.3.5-1.6.6V4.6h1.7v.6h-1.7v.6A12.6,12.6,0,0,1,271.5,7.9Zm5.9,3.9h-6.5v-.6H272V1.9h4.5v9.3h.9Zm-1.6-6.9V2.5h-3.2V4.9Zm0,3.1V5.6h-3.2V8Zm0,3.2V8.6h-3.2v2.6Z" fill="#1e1e1e" stroke="#1e1e1e" stroke-miterlimit="10" stroke-width="0.1"/><path d="M288.9,11.2c0,.4-.1.6-.4.7a4,4,0,0,1-1.5.2h-.6l-.2-.7h1.9c.1,0,.1-.1.1-.2V8.3h-3.4v3.5h-.6V8.3h-3.4a7.8,7.8,0,0,1-1.3,3.8l-.5-.4a7.8,7.8,0,0,0,1.2-4.4V1.8h8.7Zm-4.7-6.5V2.5h-3.4V4.7Zm0,3V5.3h-3.4V7.7Zm4-3V2.5h-3.4V4.7Zm0,3V5.3h-3.4V7.7Z" fill="#1e1e1e" stroke="#1e1e1e" stroke-miterlimit="10" stroke-width="0.1"/><path d="M300.9,2.2a36.5,36.5,0,0,1-7.7.9V4.7h7.7V8.5h-7.8a6.4,6.4,0,0,1-1.7,3.7l-.5-.5a4.6,4.6,0,0,0,1.3-2.2,13.9,13.9,0,0,0,.4-4.2V2.5a44.3,44.3,0,0,0,8-.8Zm-.6,5.7V5.3h-7.1V7.9Z" fill="#1e1e1e" stroke="#1e1e1e" stroke-miterlimit="10" stroke-width="0.1"/><path d="M244.2,24.9V15.8h2.5a2.4,2.4,0,0,1,1.8.6,1.8,1.8,0,0,1,.7,1.5,2,2,0,0,1-.4,1.3,2,2,0,0,1-1.1.9h0a1.7,1.7,0,0,1,1.4.7,1.9,1.9,0,0,1,.6,1.5,2.6,2.6,0,0,1-.8,1.9,3.1,3.1,0,0,1-2.1.7Zm1-8.2v3h1.1a2,2,0,0,0,1.4-.4,1.7,1.7,0,0,0,.5-1.2c0-.9-.6-1.4-1.8-1.4Zm0,3.9V24h1.5a2,2,0,0,0,1.4-.5,1.3,1.3,0,0,0,.5-1.2c0-1.1-.7-1.7-2.2-1.7Z" fill="#1e1e1e" stroke="#1e1e1e" stroke-miterlimit="10" stroke-width="0.1"/><path d="M258.3,25.3h-.6V24.2h-2.6v1.3h-.6V17h1.1a10.9,10.9,0,0,0,.9-2.1l.6.2-.8,1.9h2Zm-.6-5.1V17.6h-2.6v2.6Zm0,3.4V20.8h-2.6v2.8Zm6.6-6.6c0,1.8-.1,3.5-.2,5a19.9,19.9,0,0,1-.4,2.7,1,1,0,0,1-.5.6,2.9,2.9,0,0,1-1.2.2h-.9l-.2-.6h1.7l.3-.2c.2-.1.2-.2.3-.3s.1-.6.2-1.4a24.6,24.6,0,0,1,.2-2.6,25.3,25.3,0,0,1,.1-2.8h-3.2c-.4.8-.9,1.6-1.4,2.4l-.5-.4a13,13,0,0,0,2.2-4.6l.6.2-.6,1.8Zm-2.2,5.4-.5.3a15,15,0,0,0-1.7-2.8l.5-.3A11.7,11.7,0,0,1,262.1,22.4Z" fill="#1e1e1e" stroke="#1e1e1e" stroke-miterlimit="10" stroke-width="0.1"/><path d="M269.1,15.2l-.4,1.3-.4.8v8.3h-.6V18.5l-1.3,1.9-.3-.6a17.3,17.3,0,0,0,2.5-4.8Zm7.5,1.7h-3.5v1.4H276v3.1h-3a3.9,3.9,0,0,1-.6,2.3,11.6,11.6,0,0,0,4.2,1.2l-.2.6a10.4,10.4,0,0,1-4.3-1.3,5.3,5.3,0,0,1-3,1.4l-.3-.6a4.5,4.5,0,0,0,2.7-1.1,13.5,13.5,0,0,1-1.7-1.7l.5-.3,1.6,1.5a4.8,4.8,0,0,0,.5-2h-3V18.3h3.1V16.9h-3.4v-.6h3.4V15.1h.6v1.2h3.5Zm-4.2,2h-2.3v1.9h2.3Zm3,1.9V18.9h-2.3v1.9Z" fill="#1e1e1e" stroke="#1e1e1e" stroke-miterlimit="10" stroke-width="0.1"/><path d="M288.1,24.6a.7.7,0,0,1-.4.7,4.2,4.2,0,0,1-1.6.2h-.5l-.2-.7h1.9c.1,0,.1-.1.1-.2V21.7H284v3.5h-.6V21.7H280a7.8,7.8,0,0,1-1.3,3.8l-.5-.4a7.8,7.8,0,0,0,1.2-4.4V15.2h8.7Zm-4.7-6.5V15.9H280v2.2Zm0,3V18.7H280v2.4Zm4-3V15.9H284v2.2Zm0,3V18.7H284v2.4Z" fill="#1e1e1e" stroke="#1e1e1e" stroke-miterlimit="10" stroke-width="0.1"/><path d="M300.6,19.1h-4l-2,1.4h4.6v5h-.6v-.6h-5.4v.6h-.6v-4l-2.1.8-.3-.6a17,17,0,0,0,5.4-2.6h-5.4v-.6h4.5V16.8h-3.4v-.6h3.4V15h.6v1.2h2.4v.6h-2.4v1.7h1.1a21.2,21.2,0,0,0,3-3l.4.4a15.5,15.5,0,0,1-2.5,2.6h3.3Zm-2,3.3V21.1h-5.4v1.2Zm0,1.9V23h-5.4v1.3Z" fill="#1e1e1e" stroke="#1e1e1e" stroke-miterlimit="10" stroke-width="0.1"/><path d="M99.3,89.8H90.5v3.4a14.5,14.5,0,0,1-1,5.7l-.5-.5a13.8,13.8,0,0,0,.9-5.2v-4h4.5a3.5,3.5,0,0,1-.5-.8h.6a1.9,1.9,0,0,1,.5.9h4.3Zm-6.8,6.4a7.4,7.4,0,0,1-1.4,2.3l-.5-.4A5.7,5.7,0,0,0,91.9,96Zm.7-6a7.9,7.9,0,0,1-.8,1.6v3.7h-.6V92.6a2.8,2.8,0,0,1-.7.9l-.4-.5a7.2,7.2,0,0,0,1.9-3Zm6,5.2H93.9v-3l-.8,1-.4-.5a13.8,13.8,0,0,0,2-2.9l.5.2a3,3,0,0,1-.4.8h1.8l-.5-.8h.6a3.5,3.5,0,0,1,.6.9h1.9v.6H97v.7h2v.5H97v.8h2v.5H97v.8h2.2Zm-1.6,1.9a2,2,0,0,1-.2.9,1,1,0,0,1-.5.4h-3a.5.5,0,0,1-.5-.3c-.1-.1-.1-.3-.1-.6V96h.6v1.7a.5.5,0,0,0,.2.4h2.5c.1-.1.3-.1.3-.3s.1-.4.1-.8Zm-1.2-5v-.7H94.5v.7Zm0,1.3v-.8H94.5v.8Zm0,1.3v-.8H94.5v.8ZM96.3,97l-.6.4a7.3,7.3,0,0,0-1-1.3l.5-.3A13.1,13.1,0,0,1,96.3,97Zm3.2,1.1-.5.3a8,8,0,0,0-1.5-2.1l.6-.3A15.3,15.3,0,0,1,99.5,98.1Z" fill="#1e1e1e" stroke="#1e1e1e" stroke-miterlimit="10" stroke-width="0.1"/><path d="M110.9,97.9c0,.4-.1.6-.4.7a4,4,0,0,1-1.5.2h-.6l-.2-.7h1.9c.1,0,.1-.1.1-.2V95h-3.3v3.5h-.7V95h-3.4a7.8,7.8,0,0,1-1.3,3.8l-.5-.4a7.8,7.8,0,0,0,1.2-4.4V88.5h8.7Zm-4.7-6.5V89.2h-3.4v2.2Zm0,3V92h-3.4v2.4Zm4-3V89.2h-3.3v2.2Zm0,3V92h-3.3v2.4Z" fill="#1e1e1e" stroke="#1e1e1e" stroke-miterlimit="10" stroke-width="0.1"/><path d="M117.1,94.3l-.5.4a13,13,0,0,0-1-1.5v5.6H115V93.2a13.3,13.3,0,0,1-1.7,3l-.4-.5a15.2,15.2,0,0,0,2-3.8H113v-.6h2V89.5l-1.5.3-.3-.6a12.8,12.8,0,0,0,3.4-.9l.4.6-1.4.4v2H117v.6h-1.4v.5A14.9,14.9,0,0,1,117.1,94.3Zm6.3,4.2h-6.7v-.6h3V96.1h-2.6v-.6h2.6V93.8h-2.3l-.3-.6a29.6,29.6,0,0,0,5.7-.7l.4.6-2.8.5v1.8H123v.6h-2.6v1.8h3Zm-.8-6.6h-5.1V88.7h5.1Zm-.6-.6v-2h-3.9v2Z" fill="#1e1e1e" stroke="#1e1e1e" stroke-miterlimit="10" stroke-width="0.1"/><path d="M135.4,96.2q-.6,2.7-1.5,2.7h-.5a3,3,0,0,1-.7-.8,9.1,9.1,0,0,1-.7-1.4,10.9,10.9,0,0,1-.5-2.5c-.1-1-.2-2.1-.2-3.1H125v-.7h6.2v-2h.6a10.4,10.4,0,0,0,.1,2h3.5V91h-3.5a24.8,24.8,0,0,0,.3,3.3,7.9,7.9,0,0,0,.8,3.1q.6.9.9.9c.2,0,.3-.3.5-.9s.3-1.1.4-1.5Zm-4.5.5-5.4,1.2-.2-.6,2.5-.5V93.3h-2.1v-.6h4.9v.6h-2.2v3.4l2.5-.6Zm3.9-6.9-.5.3L133,88.9l.5-.5A9.2,9.2,0,0,1,134.8,89.8Z" fill="#1e1e1e" stroke="#1e1e1e" stroke-miterlimit="10" stroke-width="0.1"/><path d="M141.1,98.6h-.6V97.5h-2.6v1.3h-.6V90.3h1.1a7.1,7.1,0,0,0,.8-2.1l.6.2a16.4,16.4,0,0,1-.8,1.9h2.1Zm-.6-5.1V90.9h-2.6v2.6Zm0,3.4V94.1h-2.6v2.8Zm6.6-6.6c-.1,1.8-.1,3.5-.3,5a7.1,7.1,0,0,1-.4,2.7.9.9,0,0,1-.4.6l-1.2.2h-1l-.2-.6h1.8l.3-.2.2-.3a5.8,5.8,0,0,0,.2-1.4,21.1,21.1,0,0,0,.2-2.6,27.2,27.2,0,0,0,.1-2.8h-3.1a15.8,15.8,0,0,1-1.5,2.4l-.4-.4a15,15,0,0,0,2.2-4.6l.6.2a13.4,13.4,0,0,1-.7,1.8Zm-2.2,5.4-.5.3a16.1,16.1,0,0,0-1.8-2.8l.6-.3A16.1,16.1,0,0,1,144.9,95.7Z" fill="#1e1e1e" stroke="#1e1e1e" stroke-miterlimit="10" stroke-width="0.1"/><path d="M99.5,108.5H96.7a8.6,8.6,0,0,1-1.4,1.8,29.9,29.9,0,0,1,4,1.4l-.4.5a26,26,0,0,0-4.2-1.5,10.1,10.1,0,0,1-5.3,1.5l-.3-.6a12.1,12.1,0,0,0,4.8-1.1l-3.2-.7,1.4-1.3H89v-.6h3.6a5.3,5.3,0,0,0,.9-1.1l.7.2-.7.9h2.8a2.6,2.6,0,0,1,.3-.7h.6a3.9,3.9,0,0,1-.2.6h2.5Zm-.1-5.9H96v1.2h2.7v2.8H89.9v-2.8h2.7v-1.2H89.2V102H99.4ZM92.6,106v-1.6H90.5V106Zm3.3,2.5h-3l-.9.9,2.6.7A6.5,6.5,0,0,0,95.9,108.5Zm-.6-4.7v-1.2H93.2v1.2Zm0,2.2v-1.6H93.2V106Zm2.8,0v-1.6H96V106Z" fill="#1e1e1e" stroke="#1e1e1e" stroke-miterlimit="10" stroke-width="0.1"/><path d="M105.2,108.3a20.4,20.4,0,0,1-3.9,3l-.3-.6a17.5,17.5,0,0,0,3.8-3Zm6.2,2.4-.4.6a8.8,8.8,0,0,1-4.4-3.8v3.8a.8.8,0,0,1-.4.7l-1.3.2h-.7l-.3-.7h1.9v-7.1h-4.8v-.6h4.8v-2h.7v2h4.8v.6h-4.8v1.8a6.9,6.9,0,0,0,.6,1.3,11.3,11.3,0,0,0,2.9-2.3l.5.5a16.5,16.5,0,0,1-3,2.3A8,8,0,0,0,111.4,110.7Zm-7.2-3.6-.4.5a13.4,13.4,0,0,0-2.1-2l.4-.5A10.2,10.2,0,0,1,104.2,107.1Zm5.9-4.2-.5.5a7.4,7.4,0,0,0-1.6-1.2l.4-.4Z" fill="#1e1e1e" stroke="#1e1e1e" stroke-miterlimit="10" stroke-width="0.1"/><path d="M116.7,106.9l-.5.5a7.7,7.7,0,0,0-.9-1.3v6.1h-.6v-6.1a12.2,12.2,0,0,1-1.3,2.8l-.5-.5a12.1,12.1,0,0,0,1.8-3.8h-1.6V104h1.6v-2.3h.6V104h1.1v.6h-1.1v.7Zm6.7,4.8h-5.5v.5h-.7v-4l-.9.9-.4-.5a8.2,8.2,0,0,0,2-2.5l.6.2a1.6,1.6,0,0,1-.4.7h2.1l-.3-.5.5-.2a1.8,1.8,0,0,1,.5.7h2.2v.5h-2.5v.8h2.3v.5h-2.3v.9h2.3v.5h-2.3v.9h2.8Zm-4.1-8.1h-.6v-.5h-2.2v-.5h2.2v-.9h.6Zm.3,2.3H117V104h2.6Zm-.6-.5v-.9h-1.5v.9Zm1,2.9v-.8h-2.1v.8Zm0,1.4v-.9h-2.1v.9Zm0,1.4v-.9h-2.1v.9Zm3-5.2h-2.6V104H123Zm.4-2.8h-2.1v.5h-.6v-1.9h.6v.9h2.1Zm-1,2.3v-.9h-1.5v.9Z" fill="#1e1e1e" stroke="#1e1e1e" stroke-miterlimit="10" stroke-width="0.1"/><path d="M129.4,107.3l-.4.5-1.4-1.7v6.1H127v-6a12.7,12.7,0,0,1-1.7,3.1l-.5-.5a13.2,13.2,0,0,0,2.2-4.1h-1.9V104H127v-2.3h.6V104H129v.7h-1.4v.6A11.2,11.2,0,0,1,129.4,107.3Zm6.1,4.5-.4.5a11,11,0,0,1-3.2-2,7.9,7.9,0,0,1-3.3,2l-.4-.6a7.5,7.5,0,0,0,3.3-1.8,10,10,0,0,1-1.6-4.2h.6a9.9,9.9,0,0,0,1.4,3.7c.6-.9.9-2.5,1-4.8h-3.4v-.6h3.4v-2.2h.7c0,1-.1,1.7-.1,2.2h1.9v.6h-1.9c0,2.4-.4,4.2-1.2,5.3A9.8,9.8,0,0,0,135.5,111.8Z" fill="#1e1e1e" stroke="#1e1e1e" stroke-miterlimit="10" stroke-width="0.1"/><path d="M251.4,242.4a.8.8,0,0,1-.2.6q-.1.3-.9.3h-.8l-.2-.6h1.4c.1,0,.1-.1.1-.3v-3.1h-2a16.8,16.8,0,0,1-.9,4.1l-.5-.4a13.3,13.3,0,0,0,.9-5.3v-4.5h3.1Zm-.6-3.8v-2.2h-1.9v2.2Zm0-2.8v-2.1h-1.9v2.1Zm7.1,7-.4.6a11.5,11.5,0,0,1-2-1.5,10.3,10.3,0,0,1-1.8,1.4l-.4-.4,1.8-1.4a8.9,8.9,0,0,1-1.7-3.8H253v5.6h-.5V233.1h5.1a18.3,18.3,0,0,1-.3,2.5,1,1,0,0,1-.7.7H255l-.2-.6h1.6c.2,0,.3-.2.3-.4a4.2,4.2,0,0,0,.2-1.6H253v3.4h4.4a8.1,8.1,0,0,1-1.5,4.3A6,6,0,0,0,257.9,242.8Zm-1.2-5.1H254a7.2,7.2,0,0,0,1.5,3.3A8.1,8.1,0,0,0,256.7,237.7Z" fill="#fff" stroke="#fff" stroke-miterlimit="10" stroke-width="0.1"/><path d="M264,236.7a5.9,5.9,0,0,1-1,2.8l-.4-.5a8.7,8.7,0,0,0,.7-1.7h-1.1v5.3a.8.8,0,0,1-.2.4,1.3,1.3,0,0,1-1,.3h-.5l-.4-.7h1.4v-4.5a14.9,14.9,0,0,1-1.8,3.4l-.5-.5a13.9,13.9,0,0,0,2-3.7h-1.9v-.6H262a9.3,9.3,0,0,0-1.8-1.6l.4-.4,1.1.8a6.8,6.8,0,0,0,1.3-1.8h-3.2v-.6h3.9v.6a14.3,14.3,0,0,1-1.5,2.2l.4.5-.4.3Zm5.1,2.7a12.7,12.7,0,0,1-.2,2.2,3.1,3.1,0,0,1-.3,1.2l-.4.4h-1.5l-.3-.6H268v-.2c.1-.1.1-.3.2-.8s.1-.9.2-1.6h-2a4.5,4.5,0,0,1-3,3.3l-.5-.5a4,4,0,0,0,1.8-1,3.8,3.8,0,0,0,1.1-1.8H264v-.6h2a4.1,4.1,0,0,0,.1-1.2h.6a4.9,4.9,0,0,1-.1,1.1Zm.7-1.4-.3.5a7.1,7.1,0,0,1-2.6-1.3,8.9,8.9,0,0,1-2.3,1.3l-.4-.5a6,6,0,0,0,2.2-1.2,4.2,4.2,0,0,1-1.1-1.3l.6-.3a4.1,4.1,0,0,0,1,1.3,5.6,5.6,0,0,0,1.2-2h-2.5a6.9,6.9,0,0,1-1.4,1.5l-.5-.4a10.8,10.8,0,0,0,2.3-2.8l.6.2-.6.9h3.6v.6h-.8a5.3,5.3,0,0,1-1.4,2.3A6.8,6.8,0,0,0,269.8,238Z" fill="#fff" stroke="#fff" stroke-miterlimit="10" stroke-width="0.1"/><path d="M257.8,256.4H247.3v-.6h5v-3.3h-4v-.6h4V249h-4.5v-.6h4.7a8.7,8.7,0,0,0-1.2-2l.6-.3a8.4,8.4,0,0,1,1.2,2.3h4.3v.6h-4.5v2.9h3.9v.6h-3.9v3.3h4.9Z" fill="#fff" stroke="#fff" stroke-miterlimit="10" stroke-width="0.1"/><path d="M263.1,255.9a1.4,1.4,0,0,1-.2.6l-.7.2h-.5l-.2-.6h1v-1.7a7.8,7.8,0,0,1-1.6.8l-.2-.3a6.8,6.8,0,0,1-.8,1.9l-.5-.3a5.5,5.5,0,0,0,.9-3V251h2.8Zm.8-5.1h-.6v-.7h-3.2v.7h-.6v-1.2h.6v-3.1h3.3v3.1h.5Zm-1-2.8v-.9h-2.2v2.5h.7V248Zm-.4,5.6v-2.1h-1.7v.7l1.5.6-.3.5-1.2-.5a8.1,8.1,0,0,1-.1,1.7A7.6,7.6,0,0,0,262.5,253.6Zm.4-4v-1.1H262v1.1Zm6.9,6.9h-6v-.6h1.8a9.3,9.3,0,0,0-.4-1.3h-.6v-1.9h4.5v1.9h-.7l-.5,1.3h1.9Zm-.1-4.5H264v-.6h5.7Zm-.2-1.4h-5.1v-3.4h1.5v-1h.5v1h1v-1h.6v1h1.5Zm-3.6-2v-.9h-1v.9Zm0,1.5v-1h-1v1Zm2.6,4v-.9h-3.3v.9Zm-.7.5h-2l.4,1.3h1.1C267.5,255.4,267.6,255,267.8,254.6Zm-.4-6v-.9h-1v.9Zm0,1.5v-1h-1v1Zm1.5-1.5v-.9H268v.9Zm0,1.5v-1H268v1Z" fill="#fff" stroke="#fff" stroke-miterlimit="10" stroke-width="0.1"/></svg>