<?xml version="1.0" encoding="utf-8"?>
<!-- Generator: Adobe Illustrator 23.0.1, SVG Export Plug-In . SVG Version: 6.00 Build 0)  -->
<svg version="1.1" xmlns="http://www.w3.org/2000/svg" xmlns:xlink="http://www.w3.org/1999/xlink" x="0px" y="0px"
	 viewBox="0 0 475.7 151.4" style="enable-background:new 0 0 475.7 151.4;" xml:space="preserve">
<style type="text/css">
	.st0{fill:#505050;}
	.st1{fill:#FFFFFF;}
	.st2{display:none;}
	.st3{display:inline;}
	.st4{fill:#EBEBEB;}
	.st5{fill:#0072C6;}
	.st6{fill:#D2D2D2;}
	.st7{fill:#1A1A1F;}
	.st8{fill:#009EE1;}
	.st9{fill:#0078DB;}
	.st10{fill:none;stroke:#000000;stroke-miterlimit:10;}
	.st11{fill:#EBEBEB;stroke:#000000;stroke-width:0.75;stroke-miterlimit:10;}
	.st12{fill:#1E1E1E;}
	.st13{fill:none;}
	.st14{stroke:#000000;stroke-width:5.000000e-02;stroke-miterlimit:10;}
	.st15{fill:#1E1E1E;stroke:#1E1E1E;stroke-width:6.000000e-02;stroke-miterlimit:10;}
	.st16{fill:#FFFFFF;stroke:#FFFFFF;stroke-width:5.000000e-02;stroke-miterlimit:10;}
	.st17{fill:#0072C6;stroke:#0072C6;stroke-width:5.000000e-02;stroke-miterlimit:10;}
</style>
<symbol  id="New_Symbol_41" viewBox="-10 -10 20 20">
	<circle class="st0" cx="0" cy="0" r="10"/>
	<path class="st1" d="M1.2-4.2v8.6h-1.4v-6.9C-0.4-2.3-0.7-2.1-1-2c-0.3,0.1-0.7,0.2-1,0.3v-1.2l0.6-0.2l0.6-0.3l0.6-0.3
		C0.1-3.9,0.4-4,0.6-4.2H1.2z"/>
</symbol>
<symbol  id="New_Symbol_42" viewBox="-10 -10 20 20">
	<circle class="st0" cx="0" cy="0" r="10"/>
	<path class="st1" d="M2.5,4.4h-5.3V3.8c0-0.3,0-0.5,0.1-0.8c0.1-0.2,0.2-0.4,0.3-0.7c0.1-0.2,0.3-0.4,0.4-0.6
		c0.2-0.2,0.4-0.4,0.5-0.5l0.6-0.5c0.2-0.1,0.4-0.3,0.6-0.5S0.1,0,0.3-0.2c0.1-0.1,0.3-0.3,0.4-0.4C0.8-0.8,0.9-1,0.9-1.1
		C1-1.3,1-1.5,1-1.7c0-0.2,0-0.4-0.1-0.6C0.8-2.4,0.7-2.6,0.6-2.7C0.5-2.8,0.3-2.9,0.2-2.9C0-3-0.2-3-0.4-3c-0.4,0-0.7,0.1-1.1,0.2
		c-0.4,0.2-0.7,0.4-1,0.7v-1.3c0.2-0.1,0.3-0.2,0.5-0.3c0.2-0.1,0.4-0.2,0.6-0.2C-1.2-4-1-4-0.8-4.1c0.2,0,0.4,0,0.7,0
		c0.3,0,0.7,0,1,0.1c0.3,0.1,0.6,0.2,0.8,0.4C1.9-3.3,2.1-3,2.2-2.8c0.1,0.3,0.2,0.7,0.2,1c0,0.3,0,0.6-0.1,0.9
		C2.2-0.6,2-0.3,1.9-0.1C1.7,0.2,1.5,0.4,1.3,0.6C1.1,0.8,0.9,1,0.6,1.2l-0.7,0.5c-0.2,0.2-0.4,0.4-0.6,0.5C-0.8,2.4-1,2.6-1.1,2.8
		c-0.1,0.1-0.2,0.3-0.2,0.5l0,0h3.8V4.4z"/>
</symbol>
<symbol  id="New_Symbol_43" viewBox="-10 -10 20 20">
	<circle class="st0" cx="0" cy="0" r="10"/>
	<path class="st1" d="M-2.6,4.1V2.8c0.5,0.4,1.2,0.7,1.8,0.6c0.5,0,0.9-0.1,1.3-0.4c0.3-0.2,0.5-0.6,0.5-1c0-0.9-0.7-1.4-2.2-1.4
		h-0.7v-1.1h0.6c1.3,0,1.9-0.4,1.9-1.4S0.3-3-0.7-3c-0.6,0-1.1,0.2-1.6,0.6v-1.2C-1.7-4-1-4.1-0.3-4.1c0.6,0,1.3,0.2,1.8,0.6
		c0.4,0.3,0.7,0.9,0.7,1.4c0.1,1-0.7,1.9-1.7,2.1l0,0c0.5,0,1,0.3,1.4,0.6C2.3,1,2.5,1.5,2.5,2.1c0,0.7-0.3,1.4-0.9,1.8
		C1,4.4,0.2,4.6-0.6,4.6C-1.3,4.6-2,4.5-2.6,4.1z"/>
</symbol>
<symbol  id="New_Symbol_44" viewBox="-10 -10 20 20">
	<circle class="st0" cx="0" cy="0" r="10"/>
	<path class="st1" d="M2-4v5.4h1.3v1.1H2v1.9H0.6V2.6h-3.8V1.4c0.3-0.4,0.7-0.8,1-1.3c0.4-0.4,0.7-0.9,1-1.4s0.6-0.9,0.9-1.4
		S0.4-3.5,0.6-4L2-4z M0.7,1.4v-3.5c-0.4,0.7-0.8,1.4-1.3,2C-1,0.5-1.4,1-1.8,1.4L0.7,1.4z"/>
</symbol>
<g id="src" class="st2">
	<g id="Shapes" class="st3">
		<rect class="st1" width="475.7" height="151.4"/>
		<rect y="0.7" class="st4" width="105" height="150"/>
		<rect x="371" y="0.7" class="st5" width="104.7" height="90"/>
		<rect x="371" y="95.7" class="st6" width="104.7" height="55"/>
		<g>
			<g>
				<path class="st7" d="M18.5,29.2c0-0.8,0.7-1.5,1.5-1.5c0,0,0,0,0,0H83c0.8,0,1.5,0.7,1.5,1.5v37.2c0,0.8-0.7,1.5-1.5,1.5H20.1
					c-0.8,0-1.5-0.7-1.5-1.5L18.5,29.2z M15.1,27.4v40.7c0,1.8,1.5,3.3,3.3,3.3c0,0,0,0,0,0h66.3c1.8,0,3.3-1.4,3.3-3.3c0,0,0,0,0,0
					V27.4c0-1.8-1.5-3.3-3.3-3.3c0,0,0,0,0,0H18.4C16.5,24.1,15.1,25.6,15.1,27.4C15.1,27.4,15.1,27.4,15.1,27.4z"/>
				<path class="st7" d="M12.4,74.9h78.3c0.5,0,0.9,0.4,0.9,0.9c0,0,0,0,0,0v2.6c0,0.5-0.4,0.9-0.9,0.9c0,0,0,0,0,0H12.4
					c-0.5,0-0.9-0.4-0.9-0.9c0,0,0,0,0,0v-2.6C11.5,75.3,11.9,74.9,12.4,74.9C12.4,74.9,12.4,74.9,12.4,74.9z"/>
				<path class="st1" d="M42.6,76.4h17.8c0.1,0,0.3,0.1,0.3,0.3v0.7c0,0.1-0.1,0.3-0.3,0.3H42.6c-0.1,0-0.3-0.1-0.3-0.3v-0.7
					C42.3,76.6,42.5,76.4,42.6,76.4z"/>
			</g>
			<g>
				<path class="st8" d="M58.4,51.5l0.7-1.6l-0.2-0.2l-1.5-1.3v-1.3l1.7-1.5l-0.7-1.7h-0.3l-2,0.1l-0.9-0.9l0.1-2.3l-1.6-0.7
					l-0.2,0.2l-1.3,1.5h-1.3l-1.5-1.7l-1.7,0.7v0.3l0.1,2l-1,0.9l-2.3-0.1L44,45.5l0.2,0.2l1.5,1.3v1.3L44,49.9l0.7,1.7h0.3l2-0.1
					l0.9,1l-0.1,2.3l1.6,0.7l0.2-0.2l1.3-1.5h1.3l1.5,1.7l1.7-0.7v-0.3l-0.1-2l1-0.9L58.4,51.5z M50.1,51.1
					c-1.9-0.8-2.7-2.9-1.9-4.8s2.9-2.7,4.8-1.9c1.9,0.8,2.7,2.9,1.9,4.8l0,0C54.1,51,52,51.9,50.1,51.1L50.1,51.1"/>
				<path class="st8" d="M51.5,65c-9.6,0-17.3-7.8-17.3-17.3s7.8-17.3,17.3-17.3s17.3,7.8,17.3,17.3c0,0,0,0,0,0
					C68.8,57.3,61.1,65,51.5,65z M51.5,34.5c-7.3,0-13.1,5.9-13.1,13.1c0,7.3,5.9,13.1,13.1,13.1c7.2,0,13.1-5.9,13.1-13.1
					C64.7,40.5,58.8,34.6,51.5,34.5C51.5,34.6,51.5,34.6,51.5,34.5L51.5,34.5z"/>
				<path class="st8" d="M51.5,65c-9.6,0-17.3-7.8-17.3-17.3s7.8-17.3,17.3-17.3s17.3,7.8,17.3,17.3c0,0,0,0,0,0
					C68.8,57.3,61.1,65,51.5,65z M51.5,34.5c-7.3,0-13.1,5.9-13.1,13.1c0,7.3,5.9,13.1,13.1,13.1c7.2,0,13.1-5.9,13.1-13.1
					C64.7,40.5,58.8,34.6,51.5,34.5C51.5,34.6,51.5,34.6,51.5,34.5L51.5,34.5z"/>
				<path class="st8" d="M51.5,65c-9.6,0-17.3-7.8-17.3-17.3s7.8-17.3,17.3-17.3s17.3,7.8,17.3,17.3c0,0,0,0,0,0
					C68.8,57.3,61.1,65,51.5,65z M51.5,34.5c-7.3,0-13.1,5.9-13.1,13.1c0,7.3,5.9,13.1,13.1,13.1c7.2,0,13.1-5.9,13.1-13.1
					C64.7,40.5,58.8,34.6,51.5,34.5C51.5,34.6,51.5,34.6,51.5,34.5L51.5,34.5z"/>
				<path class="st9" d="M51.5,65.9c-10,0-18.1-8.1-18.1-18.2s8.1-18.1,18.2-18.1c10,0,18.1,8.1,18.1,18.1
					C69.7,57.8,61.5,65.9,51.5,65.9z M51.5,30.3c-9.6,0-17.4,7.8-17.4,17.5s7.8,17.4,17.5,17.4c9.6,0,17.4-7.8,17.4-17.5
					C69,38.1,61.2,30.3,51.5,30.3C51.5,30.3,51.5,30.3,51.5,30.3z"/>
				<path class="st9" d="M51.5,65.9c-10,0-18.1-8.1-18.1-18.2s8.1-18.1,18.2-18.1c10,0,18.1,8.1,18.1,18.1
					C69.7,57.8,61.5,65.9,51.5,65.9z M51.5,30.3c-9.6,0-17.4,7.8-17.4,17.5s7.8,17.4,17.5,17.4c9.6,0,17.4-7.8,17.4-17.5
					C69,38.1,61.2,30.3,51.5,30.3C51.5,30.3,51.5,30.3,51.5,30.3z"/>
				<path class="st9" d="M51.5,66.2C41.3,66.2,33,58,33,47.7c0-10.2,8.3-18.5,18.5-18.5S70,37.5,70,47.7c0,0,0,0,0,0
					C70,57.9,61.7,66.2,51.5,66.2z M51.5,30.6c-9.4,0-17.1,7.7-17.1,17.1s7.7,17.1,17.1,17.1s17.1-7.7,17.1-17.1S61,30.6,51.5,30.6
					L51.5,30.6z"/>
			</g>
		</g>
		<g>
			<line class="st10" x1="104.9" y1="14.6" x2="365.5" y2="14.6"/>
			<polygon points="364.4,18.3 370.9,14.6 364.4,10.8 			"/>
		</g>
		<g>
			<line class="st10" x1="110.3" y1="44.5" x2="370.9" y2="44.5"/>
			<polygon points="111.4,48.2 104.9,44.5 111.4,40.7 			"/>
		</g>
		<g>
			<line class="st10" x1="104.9" y1="103.9" x2="365.5" y2="103.9"/>
			<polygon points="364.4,107.6 370.9,103.9 364.4,100.1 			"/>
		</g>
		<g>
			<line class="st10" x1="110.3" y1="140" x2="370.9" y2="140"/>
			<polygon points="111.4,143.8 105,140 111.4,136.3 			"/>
		</g>
		
			<use xlink:href="#New_Symbol_44"  width="20" height="20" x="-10" y="-10" transform="matrix(1 0 0 1 164.14 139.57)" style="overflow:visible;"/>
		
			<use xlink:href="#New_Symbol_43"  width="20" height="20" x="-10" y="-10" transform="matrix(1 0 0 1 164.14 103.88)" style="overflow:visible;"/>
		
			<use xlink:href="#New_Symbol_42"  width="20" height="20" x="-10" y="-10" transform="matrix(1 0 0 1 164.14 44.45)" style="overflow:visible;"/>
		
			<use xlink:href="#New_Symbol_41"  width="20" height="20" x="-10" y="-10" transform="matrix(1 0 0 1 164.14 14.57)" style="overflow:visible;"/>
		<polygon class="st11" points="187.1,26.6 179.5,32 182.4,40.8 191.8,40.8 194.6,32 		"/>
	</g>
	<g id="Text" class="st3">
		<g>
			<path class="st12" d="M186.7,9.6h-1.1l-0.9-2.4h-3.6l-0.8,2.4h-1.1l3.2-8.4h1L186.7,9.6z M184.4,6.3l-1.3-3.6
				c-0.1-0.2-0.1-0.4-0.1-0.6l0,0c0,0.2-0.1,0.4-0.1,0.6l-1.3,3.6H184.4z"/>
			<path class="st12" d="M191.8,9.3c-0.5,0.3-1.1,0.4-1.6,0.4c-0.8,0-1.5-0.3-2.1-0.8c-0.5-0.6-0.8-1.4-0.8-2.2
				c0-0.9,0.3-1.7,0.9-2.4c0.6-0.6,1.4-0.9,2.3-0.9c0.5,0,1,0.1,1.4,0.3v1c-0.4-0.3-0.9-0.5-1.4-0.5c-0.6,0-1.1,0.2-1.5,0.7
				c-0.4,0.5-0.6,1.1-0.6,1.7c0,0.6,0.2,1.2,0.6,1.7c0.4,0.4,0.9,0.6,1.5,0.6c0.5,0,1.1-0.2,1.5-0.5V9.3z"/>
			<path class="st12" d="M198.2,12.3h-1V8.5l0,0c-0.4,0.8-1.2,1.2-2.1,1.2c-0.7,0-1.4-0.3-1.8-0.8c-0.5-0.6-0.7-1.4-0.7-2.2
				c0-0.9,0.2-1.7,0.8-2.4c0.5-0.6,1.2-0.9,2-0.9c0.7,0,1.4,0.3,1.8,1l0,0V3.6h1L198.2,12.3z M197.2,6.9V6c0-0.5-0.2-0.9-0.5-1.2
				c-0.3-0.3-0.8-0.5-1.2-0.5c-0.5,0-1,0.2-1.4,0.6c-0.4,0.5-0.5,1.2-0.5,1.8c0,0.6,0.1,1.2,0.5,1.6c0.3,0.4,0.8,0.6,1.3,0.6
				c0.5,0,1-0.2,1.3-0.6C197.1,7.9,197.3,7.4,197.2,6.9L197.2,6.9z"/>
			<path class="st12" d="M204.9,9.6h-1v-1l0,0c-0.4,0.7-1.1,1.1-1.9,1.1c-1.4,0-2.1-0.9-2.1-2.6V3.6h1V7c0,1.3,0.5,1.9,1.4,1.9
				c0.4,0,0.9-0.2,1.2-0.5C203.9,8,204,7.5,204,7V3.6h1L204.9,9.6z"/>
			<path class="st12" d="M207.3,2c-0.2,0-0.3-0.1-0.4-0.2c-0.1-0.1-0.2-0.3-0.2-0.5c0-0.2,0.1-0.3,0.2-0.4c0.1-0.1,0.3-0.2,0.4-0.2
				c0.2,0,0.3,0.1,0.4,0.2c0.1,0.1,0.2,0.3,0.2,0.4c0,0.2-0.1,0.3-0.2,0.4C207.6,2,207.4,2,207.3,2z M207.7,9.6h-1v-6h1V9.6z"/>
			<path class="st12" d="M212.7,4.5c-0.2-0.1-0.5-0.2-0.7-0.2c-0.4,0-0.8,0.2-1,0.6c-0.3,0.5-0.5,1-0.4,1.6v3.1h-1v-6h1v1.2l0,0
				c0.1-0.4,0.3-0.7,0.6-1c0.3-0.2,0.6-0.4,1-0.4c0.2,0,0.4,0,0.6,0.1L212.7,4.5z"/>
			<path class="st12" d="M218.6,6.8h-4.2c0,0.6,0.2,1.1,0.5,1.5c0.4,0.4,0.9,0.6,1.4,0.5c0.7,0,1.3-0.2,1.9-0.7v0.9
				c-0.6,0.4-1.4,0.6-2.1,0.6c-0.8,0-1.5-0.3-2-0.8c-0.5-0.7-0.8-1.5-0.7-2.3c0-0.8,0.2-1.6,0.8-2.3c0.5-0.6,1.2-0.9,2-0.9
				c0.7,0,1.4,0.2,1.8,0.8c0.5,0.6,0.7,1.4,0.6,2.1L218.6,6.8z M217.6,6c0-0.5-0.1-0.9-0.4-1.3c-0.3-0.3-0.7-0.5-1.1-0.5
				c-0.4,0-0.9,0.2-1.2,0.5c-0.3,0.4-0.5,0.8-0.6,1.3L217.6,6z"/>
			<path class="st12" d="M226.1,9.5c-0.3,0.1-0.6,0.2-0.9,0.2c-1.1,0-1.6-0.6-1.6-1.8V4.4h-1V3.6h1V2.1l1-0.3v1.8h1.5v0.8h-1.5v3.4
				c0,0.3,0,0.6,0.2,0.9c0.2,0.2,0.4,0.3,0.7,0.3c0.2,0,0.4-0.1,0.6-0.2L226.1,9.5z"/>
			<path class="st12" d="M229.7,9.7c-0.8,0-1.6-0.3-2.1-0.8c-0.5-0.6-0.8-1.4-0.8-2.2c-0.1-0.9,0.2-1.7,0.8-2.4
				c0.6-0.6,1.4-0.9,2.2-0.8c0.8,0,1.6,0.3,2.1,0.8c0.5,0.6,0.8,1.5,0.8,2.3c0,0.8-0.3,1.7-0.8,2.3C231.3,9.4,230.6,9.7,229.7,9.7z
				 M229.8,4.2c-0.6,0-1.1,0.2-1.5,0.6c-0.4,0.5-0.6,1.1-0.5,1.7c0,0.6,0.2,1.2,0.5,1.7c0.4,0.4,0.9,0.6,1.5,0.6
				c0.5,0,1.1-0.2,1.4-0.6c0.4-0.5,0.5-1.1,0.5-1.7c0-0.6-0.1-1.2-0.5-1.7C230.9,4.4,230.4,4.2,229.8,4.2L229.8,4.2z"/>
			<path class="st12" d="M239.2,9.6h-1.3l-2.7-2.9l0,0v2.9h-1V0.7h1v5.6l0,0l2.5-2.8h1.3l-2.8,2.9L239.2,9.6z"/>
			<path class="st12" d="M244.7,6.8h-4.2c0,0.6,0.2,1.1,0.5,1.5c0.4,0.4,0.9,0.6,1.4,0.5c0.7,0,1.3-0.2,1.9-0.7v0.9
				c-0.6,0.4-1.4,0.6-2.1,0.6c-0.8,0-1.5-0.3-2-0.8c-0.5-0.7-0.8-1.5-0.7-2.3c0-0.8,0.2-1.6,0.8-2.3c0.5-0.6,1.2-0.9,2-0.9
				c0.7,0,1.4,0.2,1.8,0.8c0.5,0.6,0.7,1.4,0.6,2.1L244.7,6.8z M243.7,6c0-0.5-0.1-0.9-0.4-1.3c-0.3-0.3-0.7-0.5-1.1-0.5
				c-0.4,0-0.9,0.2-1.2,0.5c-0.3,0.4-0.5,0.8-0.6,1.3L243.7,6z"/>
			<path class="st12" d="M251.1,9.6h-1V6.2c0-1.3-0.5-1.9-1.4-1.9c-0.5,0-0.9,0.2-1.2,0.5c-0.3,0.4-0.5,0.9-0.5,1.4v3.4h-1v-6h1v1
				l0,0c0.4-0.7,1.2-1.2,2-1.1c0.6,0,1.1,0.2,1.5,0.6c0.4,0.5,0.6,1.2,0.5,1.8L251.1,9.6z"/>
		</g>
		<g>
			<path class="st12" d="M205.6,38.3h-1.1l-0.9-2.4h-3.6l-0.8,2.4h-1.1l3.2-8.4h1L205.6,38.3z M203.3,35.1l-1.3-3.6
				c-0.1-0.2-0.1-0.4-0.1-0.6l0,0c0,0.2-0.1,0.4-0.1,0.6l-1.3,3.6H203.3z"/>
			<path class="st12" d="M210.7,38c-0.5,0.3-1.1,0.4-1.6,0.4c-0.8,0-1.5-0.3-2.1-0.8c-0.5-0.6-0.8-1.4-0.8-2.2
				c0-0.9,0.3-1.7,0.9-2.4c0.6-0.6,1.4-0.9,2.3-0.9c0.5,0,1,0.1,1.4,0.3v1c-0.4-0.3-0.9-0.5-1.4-0.5c-0.6,0-1.1,0.2-1.5,0.7
				c-0.4,0.5-0.6,1.1-0.6,1.7c0,0.6,0.2,1.2,0.6,1.7c0.4,0.4,0.9,0.6,1.5,0.6c0.5,0,1.1-0.2,1.5-0.5L210.7,38z"/>
			<path class="st12" d="M216.1,38c-0.5,0.3-1.1,0.4-1.6,0.4c-0.8,0-1.5-0.3-2.1-0.8c-0.5-0.6-0.8-1.4-0.8-2.2
				c0-0.9,0.3-1.7,0.8-2.4c0.6-0.6,1.4-0.9,2.3-0.9c0.5,0,1,0.1,1.4,0.3v1c-0.4-0.3-0.9-0.5-1.4-0.5c-0.6,0-1.1,0.2-1.5,0.7
				c-0.4,0.5-0.6,1.1-0.6,1.7c0,0.6,0.2,1.2,0.6,1.7c0.4,0.4,0.9,0.6,1.5,0.6c0.5,0,1.1-0.2,1.5-0.5L216.1,38z"/>
			<path class="st12" d="M222.3,35.5H218c0,0.6,0.2,1.1,0.5,1.5c0.4,0.4,0.9,0.6,1.4,0.5c0.7,0,1.3-0.2,1.9-0.7v0.9
				c-0.6,0.4-1.3,0.6-2.1,0.6c-0.8,0-1.5-0.3-2-0.8c-0.5-0.7-0.8-1.5-0.7-2.3c0-0.8,0.2-1.6,0.8-2.3c0.5-0.6,1.2-0.9,2-0.9
				c0.7,0,1.4,0.2,1.8,0.8c0.5,0.6,0.7,1.4,0.6,2.1L222.3,35.5z M221.3,34.7c0-0.5-0.1-0.9-0.4-1.3c-0.3-0.3-0.7-0.5-1.1-0.5
				c-0.4,0-0.9,0.2-1.2,0.5c-0.3,0.3-0.5,0.8-0.6,1.3H221.3z"/>
			<path class="st12" d="M223.3,38.1v-1c0.5,0.4,1.1,0.6,1.7,0.6c0.9,0,1.3-0.3,1.3-0.8c0-0.1,0-0.3-0.1-0.4
				c-0.1-0.1-0.2-0.2-0.3-0.3c-0.1-0.1-0.3-0.2-0.4-0.2l-0.5-0.2c-0.3-0.1-0.5-0.2-0.7-0.3c-0.2-0.1-0.4-0.2-0.5-0.4
				c-0.1-0.1-0.2-0.3-0.3-0.5c-0.1-0.2-0.1-0.4-0.1-0.6c0-0.3,0.1-0.5,0.2-0.8c0.1-0.2,0.3-0.4,0.5-0.5c0.2-0.2,0.5-0.3,0.7-0.3
				c0.3-0.1,0.6-0.1,0.9-0.1c0.5,0,1,0.1,1.4,0.3v1c-0.5-0.3-1-0.5-1.5-0.5c-0.2,0-0.3,0-0.5,0c-0.1,0-0.3,0.1-0.4,0.2
				c-0.1,0.1-0.2,0.2-0.2,0.3c-0.1,0.1-0.1,0.2-0.1,0.3c0,0.1,0,0.3,0.1,0.4c0.1,0.1,0.1,0.2,0.3,0.3c0.1,0.1,0.3,0.2,0.4,0.2
				l0.5,0.2c0.3,0.1,0.5,0.2,0.7,0.3c0.2,0.1,0.4,0.2,0.5,0.4c0.1,0.1,0.3,0.3,0.3,0.5c0.1,0.2,0.1,0.4,0.1,0.6
				c0,0.3-0.1,0.5-0.2,0.8c-0.1,0.2-0.3,0.4-0.5,0.5c-0.2,0.1-0.5,0.3-0.8,0.3c-0.3,0.1-0.6,0.1-0.9,0.1
				C224.4,38.4,223.8,38.3,223.3,38.1z"/>
			<path class="st12" d="M228.4,38.1v-1c0.5,0.4,1.1,0.6,1.7,0.6c0.8,0,1.3-0.3,1.3-0.8c0-0.1,0-0.3-0.1-0.4
				c-0.1-0.1-0.2-0.2-0.3-0.3c-0.1-0.1-0.3-0.2-0.4-0.2l-0.5-0.2c-0.3-0.1-0.5-0.2-0.7-0.3c-0.2-0.1-0.4-0.2-0.5-0.4
				c-0.1-0.1-0.2-0.3-0.3-0.5c-0.1-0.2-0.1-0.4-0.1-0.6c0-0.3,0.1-0.5,0.2-0.8c0.1-0.2,0.3-0.4,0.5-0.5c0.2-0.2,0.5-0.3,0.7-0.3
				c0.3-0.1,0.6-0.1,0.9-0.1c0.5,0,1,0.1,1.4,0.3v1c-0.5-0.3-1-0.5-1.5-0.5c-0.2,0-0.3,0-0.5,0.1c-0.1,0-0.3,0.1-0.4,0.2
				c-0.1,0.1-0.2,0.2-0.2,0.3c-0.1,0.1-0.1,0.2-0.1,0.3c0,0.1,0,0.3,0.1,0.4c0.1,0.1,0.1,0.2,0.3,0.3c0.1,0.1,0.3,0.2,0.4,0.2
				l0.5,0.2c0.3,0.1,0.5,0.2,0.7,0.3c0.2,0.1,0.4,0.2,0.5,0.4c0.1,0.1,0.3,0.3,0.4,0.5c0.1,0.2,0.1,0.4,0.1,0.6
				c0,0.3-0.1,0.5-0.2,0.8c-0.1,0.2-0.3,0.4-0.5,0.5c-0.2,0.1-0.5,0.3-0.8,0.3c-0.3,0.1-0.6,0.1-0.9,0.1
				C229.5,38.5,228.9,38.3,228.4,38.1z"/>
			<path class="st12" d="M239.9,38.2c-0.3,0.1-0.6,0.2-0.9,0.2c-1.1,0-1.6-0.6-1.6-1.8v-3.6h-1v-0.8h1v-1.5l1-0.3v1.8h1.5v0.8h-1.5
				v3.4c0,0.3,0,0.6,0.2,0.9c0.2,0.2,0.4,0.3,0.7,0.3c0.2,0,0.4-0.1,0.6-0.2L239.9,38.2z"/>
			<path class="st12" d="M243.6,38.4c-0.8,0-1.6-0.3-2.1-0.8c-0.5-0.6-0.8-1.4-0.8-2.2c0-0.9,0.2-1.7,0.8-2.4
				c0.6-0.6,1.4-0.9,2.2-0.8c0.8,0,1.6,0.3,2.1,0.8c0.5,0.6,0.8,1.5,0.8,2.3c0,0.8-0.2,1.7-0.8,2.3
				C245.2,38.2,244.4,38.5,243.6,38.4z M243.7,33c-0.6,0-1.1,0.2-1.5,0.6c-0.4,0.5-0.6,1.1-0.5,1.7c0,0.6,0.2,1.2,0.5,1.7
				c0.4,0.4,0.9,0.6,1.5,0.6c0.5,0,1.1-0.2,1.4-0.6c0.4-0.5,0.5-1.1,0.5-1.7c0-0.6-0.1-1.2-0.5-1.7C244.7,33.2,244.2,33,243.7,33
				L243.7,33z"/>
			<path class="st12" d="M253.1,38.3h-1.4l-2.6-2.9l0,0v2.9h-1v-8.9h1V35l0,0l2.5-2.7h1.3l-2.8,2.9L253.1,38.3z"/>
			<path class="st12" d="M258.6,35.5h-4.2c0,0.6,0.2,1.1,0.5,1.5c0.4,0.4,0.9,0.6,1.4,0.5c0.7,0,1.3-0.2,1.9-0.7v0.9
				c-0.6,0.4-1.3,0.6-2.1,0.6c-0.8,0-1.5-0.3-2-0.8c-0.5-0.7-0.8-1.5-0.7-2.3c0-0.8,0.2-1.6,0.8-2.3c0.5-0.6,1.2-0.9,2-0.9
				c0.7,0,1.4,0.2,1.8,0.8c0.5,0.6,0.7,1.4,0.6,2.1L258.6,35.5z M257.6,34.7c0-0.5-0.1-0.9-0.4-1.3c-0.3-0.3-0.7-0.5-1.1-0.5
				c-0.4,0-0.9,0.2-1.1,0.5c-0.3,0.3-0.5,0.8-0.6,1.3H257.6z"/>
			<path class="st12" d="M265,38.3h-1v-3.4c0-1.3-0.5-1.9-1.4-1.9c-0.5,0-0.9,0.2-1.2,0.5c-0.3,0.4-0.5,0.9-0.5,1.4v3.4h-1v-6h1v1
				l0,0c0.4-0.7,1.2-1.2,2-1.1c0.6,0,1.1,0.2,1.5,0.6c0.4,0.5,0.6,1.2,0.5,1.8L265,38.3z"/>
		</g>
		<g>
			<path class="st12" d="M186.5,134.5h-1v-3.8h-4.4v3.8h-1v-8.4h1v3.7h4.4v-3.7h1V134.5z"/>
			<path class="st12" d="M193.6,127h-2.4v7.5h-1V127h-2.4v-0.9h5.8L193.6,127z"/>
			<path class="st12" d="M200.1,127h-2.4v7.5h-1V127h-2.4v-0.9h5.8L200.1,127z"/>
			<path class="st12" d="M202.3,131.4v3.2h-1v-8.4h2.3c0.8-0.1,1.5,0.2,2.1,0.7c0.5,0.5,0.8,1.2,0.7,1.8c0,0.8-0.3,1.5-0.8,2
				c-0.6,0.5-1.4,0.8-2.2,0.8L202.3,131.4z M202.3,127v3.4h1c0.6,0,1.1-0.1,1.6-0.5c0.4-0.3,0.6-0.8,0.5-1.3c0-1.1-0.7-1.7-2-1.7
				H202.3z"/>
			<path class="st12" d="M214.4,129.5c-0.2-0.1-0.5-0.2-0.7-0.2c-0.4,0-0.8,0.2-1,0.6c-0.3,0.5-0.4,1-0.4,1.6v3.1h-1v-6h1v1.2l0,0
				c0.1-0.4,0.3-0.7,0.6-1c0.3-0.2,0.6-0.3,0.9-0.4c0.2,0,0.4,0,0.6,0.1L214.4,129.5z"/>
			<path class="st12" d="M220.2,131.8H216c0,0.6,0.2,1.1,0.5,1.6c0.4,0.4,0.9,0.6,1.4,0.6c0.7,0,1.3-0.2,1.9-0.7v0.9
				c-0.6,0.4-1.4,0.6-2.1,0.6c-0.8,0-1.5-0.3-2-0.8c-0.5-0.7-0.8-1.5-0.7-2.3c0-0.8,0.3-1.7,0.8-2.3c0.5-0.6,1.2-0.9,2-0.9
				c0.7,0,1.4,0.2,1.8,0.8c0.5,0.6,0.7,1.4,0.6,2.1L220.2,131.8z M219.2,130.9c0-0.5-0.1-0.9-0.4-1.3c-0.3-0.3-0.7-0.5-1.1-0.5
				c-0.4,0-0.9,0.2-1.1,0.5c-0.3,0.4-0.5,0.8-0.6,1.3L219.2,130.9z"/>
			<path class="st12" d="M221.3,134.3v-1c0.5,0.4,1.1,0.6,1.7,0.6c0.8,0,1.3-0.3,1.3-0.9c0-0.1,0-0.3-0.1-0.4
				c-0.1-0.1-0.2-0.2-0.3-0.3c-0.1-0.1-0.3-0.2-0.4-0.2l-0.5-0.2c-0.2-0.1-0.5-0.2-0.7-0.3c-0.2-0.1-0.4-0.2-0.5-0.4
				c-0.1-0.1-0.2-0.3-0.3-0.5c-0.1-0.2-0.1-0.4-0.1-0.6c0-0.3,0.1-0.5,0.2-0.8c0.1-0.2,0.3-0.4,0.5-0.5c0.2-0.2,0.5-0.3,0.7-0.3
				c0.7-0.2,1.5-0.1,2.2,0.2v1c-0.5-0.3-1-0.4-1.5-0.4c-0.2,0-0.3,0-0.5,0.1c-0.1,0-0.3,0.1-0.4,0.2c-0.1,0.1-0.2,0.2-0.2,0.3
				c-0.1,0.1-0.1,0.2-0.1,0.4c0,0.3,0.1,0.5,0.3,0.7c0.1,0.1,0.3,0.2,0.4,0.2l0.5,0.2c0.2,0.1,0.5,0.2,0.7,0.3
				c0.2,0.1,0.4,0.2,0.5,0.4c0.3,0.3,0.5,0.7,0.5,1.1c0,0.3-0.1,0.5-0.2,0.8c-0.1,0.2-0.3,0.4-0.5,0.6c-0.2,0.1-0.5,0.3-0.8,0.3
				c-0.3,0.1-0.6,0.1-0.9,0.1C222.4,134.7,221.8,134.6,221.3,134.3z"/>
			<path class="st12" d="M227.6,133.7L227.6,133.7v3.6h-1v-8.8h1v1.1l0,0c0.4-0.8,1.2-1.2,2.1-1.2c0.7,0,1.4,0.3,1.8,0.8
				c0.5,0.6,0.7,1.4,0.6,2.2c0,0.9-0.2,1.7-0.7,2.4c-0.5,0.6-1.2,0.9-2,0.9C228.7,134.7,228,134.3,227.6,133.7z M227.6,131.2v0.8
				c0,0.5,0.2,0.9,0.5,1.3c0.7,0.7,1.8,0.7,2.4,0c0.1-0.1,0.1-0.1,0.2-0.2c0.4-0.6,0.5-1.2,0.5-1.9c0-0.6-0.1-1.1-0.5-1.6
				c-0.3-0.4-0.8-0.6-1.3-0.6c-0.5,0-1,0.2-1.4,0.6C227.8,130.2,227.6,130.7,227.6,131.2L227.6,131.2z"/>
			<path class="st12" d="M236.2,134.7c-0.8,0-1.6-0.3-2.1-0.8c-0.6-0.6-0.8-1.4-0.8-2.2c0-0.9,0.3-1.7,0.8-2.4
				c0.6-0.6,1.4-0.9,2.2-0.9c0.8,0,1.6,0.3,2.1,0.8c0.5,0.6,0.8,1.5,0.8,2.3c0,0.8-0.2,1.7-0.8,2.3
				C237.8,134.4,237,134.7,236.2,134.7z M236.3,129.2c-0.6,0-1.1,0.2-1.5,0.6c-0.4,0.5-0.6,1.1-0.5,1.7c0,0.6,0.2,1.2,0.5,1.7
				c0.4,0.4,0.9,0.6,1.5,0.6c0.5,0,1.1-0.2,1.4-0.6c0.4-0.5,0.5-1.1,0.5-1.7c0-0.6-0.1-1.2-0.5-1.7
				C237.4,129.4,236.8,129.2,236.3,129.2L236.3,129.2z"/>
			<path class="st12" d="M245.7,134.5h-1v-3.4c0-1.3-0.5-1.9-1.4-1.9c-0.5,0-0.9,0.2-1.2,0.5c-0.3,0.4-0.5,0.9-0.5,1.4v3.4h-1v-6h1
				v1l0,0c0.4-0.7,1.2-1.2,2-1.1c0.6,0,1.1,0.2,1.5,0.6c0.4,0.5,0.6,1.2,0.5,1.8L245.7,134.5z"/>
			<path class="st12" d="M247.1,134.3v-1c0.5,0.4,1.1,0.6,1.7,0.6c0.8,0,1.3-0.3,1.3-0.9c0-0.1,0-0.3-0.1-0.4
				c-0.1-0.1-0.2-0.2-0.3-0.3c-0.1-0.1-0.3-0.2-0.4-0.2l-0.5-0.2c-0.2-0.1-0.5-0.2-0.7-0.3c-0.2-0.1-0.4-0.2-0.5-0.4
				c-0.1-0.1-0.2-0.3-0.3-0.5c-0.1-0.2-0.1-0.4-0.1-0.6c0-0.3,0.1-0.5,0.2-0.8c0.1-0.2,0.3-0.4,0.5-0.5c0.2-0.2,0.5-0.3,0.7-0.3
				c0.3-0.1,0.6-0.1,0.9-0.1c0.5,0,1,0.1,1.4,0.3v1c-0.5-0.3-1-0.4-1.5-0.4c-0.2,0-0.3,0-0.5,0.1c-0.1,0-0.3,0.1-0.4,0.2
				c-0.1,0.1-0.2,0.2-0.2,0.3c-0.1,0.1-0.1,0.2-0.1,0.4c0,0.3,0.1,0.5,0.3,0.7c0.1,0.1,0.3,0.2,0.4,0.2l0.5,0.2
				c0.2,0.1,0.5,0.2,0.7,0.3c0.2,0.1,0.4,0.2,0.5,0.4c0.1,0.1,0.3,0.3,0.3,0.5c0.1,0.2,0.1,0.4,0.1,0.6c0,0.3-0.1,0.5-0.2,0.8
				c-0.1,0.2-0.3,0.4-0.5,0.6c-0.2,0.1-0.5,0.3-0.8,0.3c-0.3,0.1-0.6,0.1-0.9,0.1C248.1,134.7,247.6,134.6,247.1,134.3z"/>
			<path class="st12" d="M257.3,131.8h-4.2c0,0.6,0.2,1.1,0.5,1.6c0.4,0.4,0.9,0.6,1.4,0.6c0.7,0,1.3-0.2,1.9-0.7v0.9
				c-0.6,0.4-1.4,0.6-2.1,0.6c-0.8,0-1.5-0.3-2-0.8c-1-1.4-1-3.2,0.1-4.6c0.5-0.6,1.2-0.9,2-0.9c0.7,0,1.4,0.2,1.8,0.8
				c0.5,0.6,0.7,1.4,0.6,2.1L257.3,131.8z M256.3,130.9c0-0.5-0.1-0.9-0.4-1.3c-0.3-0.3-0.7-0.5-1.1-0.5c-0.4,0-0.9,0.2-1.1,0.5
				c-0.3,0.3-0.5,0.8-0.6,1.3H256.3z"/>
		</g>
		<g>
			<path class="st5" d="M404.9,118.3H403v-5c0-0.5,0-1.1,0.1-1.8l0,0c-0.1,0.4-0.2,0.7-0.3,1.1l-2,5.7h-1.5l-2-5.7
				c0-0.2-0.1-0.5-0.3-1.2h0c0,0.8,0.1,1.6,0.1,2.2v4.7h-1.7v-8.4h2.8l1.7,5c0.1,0.4,0.2,0.8,0.3,1.2l0,0c0.1-0.5,0.2-0.9,0.3-1.2
				l1.7-5h2.7L404.9,118.3z"/>
			<path class="st5" d="M407.5,111.3c-0.3,0-0.6-0.1-0.8-0.3c-0.2-0.2-0.3-0.4-0.3-0.7c0-0.3,0.1-0.5,0.3-0.7
				c0.2-0.2,0.5-0.3,0.8-0.3c0.3,0,0.6,0.1,0.8,0.3c0.2,0.2,0.3,0.4,0.3,0.7c0,0.3-0.1,0.5-0.3,0.7
				C408,111.2,407.8,111.3,407.5,111.3z M408.4,118.3h-1.9v-6h1.9V118.3z"/>
			<path class="st5" d="M414.5,118c-0.6,0.3-1.2,0.4-1.8,0.4c-0.8,0-1.6-0.3-2.2-0.8c-0.6-0.6-0.9-1.4-0.9-2.2
				c0-0.9,0.3-1.8,0.9-2.4c0.7-0.6,1.6-0.9,2.5-0.9c0.5,0,1.1,0.1,1.5,0.3v1.7c-0.4-0.3-0.8-0.4-1.3-0.4c-1,0.1-1.8,0.9-1.7,1.9
				c0,0.4,0.2,0.8,0.4,1.1c0.3,0.3,0.8,0.5,1.2,0.4c0.5,0,1-0.2,1.4-0.4V118z"/>
			<path class="st5" d="M419.7,113.9c-0.2-0.1-0.5-0.2-0.8-0.2c-0.4,0-0.7,0.2-1,0.4c-0.2,0.4-0.4,0.8-0.3,1.2v2.9h-1.9v-6h1.9v1.1
				l0,0c0.2-0.7,0.8-1.2,1.6-1.2c0.2,0,0.3,0,0.5,0.1L419.7,113.9z"/>
			<path class="st5" d="M423.5,118.4c-0.9,0-1.7-0.3-2.4-0.8c-1.2-1.3-1.2-3.3,0-4.6c0.7-0.6,1.5-0.9,2.4-0.8
				c0.9-0.1,1.7,0.3,2.3,0.8c0.6,0.6,0.9,1.4,0.9,2.2c0,0.9-0.3,1.7-0.9,2.4C425.2,118.1,424.4,118.4,423.5,118.4z M423.5,113.5
				c-0.4,0-0.8,0.2-1,0.4c-0.3,0.4-0.4,0.8-0.4,1.3c0,1.2,0.5,1.7,1.4,1.7s1.3-0.6,1.3-1.8S424.4,113.5,423.5,113.5z"/>
			<path class="st5" d="M427.6,118.1v-1.5c0.3,0.2,0.6,0.3,0.9,0.4c0.3,0.1,0.6,0.1,0.9,0.1c0.3,0,0.5,0,0.8-0.1
				c0.2-0.1,0.3-0.2,0.3-0.4c0-0.1,0-0.2-0.1-0.3c-0.1-0.1-0.2-0.1-0.3-0.2l-0.4-0.2l-0.5-0.2c-0.2-0.1-0.4-0.2-0.6-0.3
				c-0.2-0.1-0.3-0.2-0.5-0.4c-0.1-0.1-0.2-0.3-0.3-0.5c-0.1-0.2-0.1-0.4-0.1-0.6c0-0.3,0.1-0.6,0.2-0.9c0.1-0.2,0.3-0.4,0.6-0.6
				c0.3-0.2,0.5-0.3,0.8-0.3c0.3-0.1,0.7-0.1,1-0.1c0.3,0,0.5,0,0.8,0.1c0.3,0,0.5,0.1,0.8,0.2v1.4c-0.2-0.1-0.5-0.2-0.8-0.3
				c-0.3-0.1-0.5-0.1-0.8-0.1c-0.1,0-0.2,0-0.3,0c-0.1,0-0.2,0.1-0.3,0.1c-0.1,0-0.1,0.1-0.2,0.2c0,0.1-0.1,0.1-0.1,0.2
				c0,0.1,0,0.2,0.1,0.3c0.1,0.1,0.2,0.2,0.3,0.2l0.4,0.2l0.4,0.1c0.2,0.1,0.5,0.2,0.7,0.3c0.2,0.1,0.4,0.2,0.5,0.4
				c0.1,0.1,0.3,0.3,0.3,0.5c0.1,0.2,0.1,0.4,0.1,0.7c0,0.3-0.1,0.6-0.2,0.9c-0.1,0.3-0.4,0.5-0.6,0.6c-0.3,0.2-0.6,0.3-0.9,0.3
				c-0.3,0.1-0.7,0.1-1,0.1C428.9,118.4,428.2,118.3,427.6,118.1z"/>
			<path class="st5" d="M436.2,118.4c-0.9,0-1.7-0.3-2.4-0.8c-1.2-1.3-1.2-3.3,0-4.6c0.7-0.6,1.5-0.9,2.4-0.8c0.9,0,1.7,0.3,2.4,0.8
				c0.6,0.6,0.9,1.4,0.9,2.2c0,0.9-0.3,1.7-0.9,2.4C437.9,118.1,437.1,118.4,436.2,118.4z M436.3,113.5c-0.4,0-0.8,0.2-1,0.4
				c-0.3,0.4-0.4,0.8-0.4,1.3c0,1.2,0.5,1.7,1.4,1.7s1.3-0.6,1.3-1.8S437.1,113.5,436.3,113.5z"/>
			<path class="st5" d="M444.5,110.8c-0.2-0.1-0.5-0.1-0.7-0.1c-0.6,0-0.9,0.3-0.9,1v0.6h1.4v1.4H443v4.6h-1.9v-4.6h-1v-1.4h1v-0.8
				c0-0.6,0.2-1.2,0.7-1.7c0.5-0.4,1.2-0.7,1.8-0.6c0.3,0,0.6,0,0.9,0.1L444.5,110.8z"/>
			<path class="st5" d="M449.1,118.2c-0.4,0.2-0.8,0.2-1.2,0.2c-1,0.1-1.9-0.5-2-1.5c0-0.2,0-0.3,0-0.5v-2.8h-1v-1.4h1V111l1.9-0.5
				v1.8h1.3v1.4h-1.3v2.3c0,0.6,0.3,0.9,0.7,0.9c0.2,0,0.4-0.1,0.6-0.2L449.1,118.2z"/>
			<path class="st5" d="M401.2,132.1c-0.9,0.5-2,0.7-3.1,0.7c-1.2,0.1-2.3-0.3-3.2-1.1c-0.8-0.8-1.2-1.9-1.2-3.1
				c0-1.2,0.4-2.4,1.3-3.2c0.9-0.9,2.1-1.3,3.4-1.3c0.8,0,1.6,0.1,2.4,0.4v1.8c-0.7-0.4-1.6-0.6-2.4-0.6c-0.7,0-1.4,0.2-1.9,0.8
				c-0.5,0.5-0.8,1.3-0.8,2c0,0.7,0.2,1.4,0.7,2c0.5,0.5,1.1,0.7,1.8,0.7c0.4,0,0.7-0.1,1.1-0.2v-1.6h-1.7v-1.5h3.6L401.2,132.1z"/>
			<path class="st5" d="M406.6,128.3c-0.2-0.1-0.5-0.2-0.8-0.2c-0.4,0-0.7,0.2-0.9,0.4c-0.2,0.3-0.4,0.8-0.3,1.2v2.9h-1.9v-6h1.9
				v1.1l0,0c0.2-0.7,0.8-1.2,1.6-1.2c0.2,0,0.3,0,0.5,0.1L406.6,128.3z"/>
			<path class="st5" d="M412.4,132.6h-1.8v-0.9l0,0c-0.4,0.6-1.1,1-1.8,1c-0.5,0-1-0.1-1.4-0.5c-0.3-0.3-0.5-0.8-0.5-1.3
				c0-1.2,0.7-1.8,2.1-2l1.6-0.2c0-0.6-0.4-1-1.1-1c-0.7,0-1.4,0.2-2,0.6V127c0.3-0.2,0.7-0.3,1-0.3c0.4-0.1,0.8-0.1,1.2-0.2
				c1.2-0.2,2.4,0.7,2.6,1.9c0,0.2,0,0.4,0,0.6L412.4,132.6z M410.6,130.2v-0.4l-1.1,0.1c-0.6,0.1-0.9,0.3-0.9,0.8
				c0,0.2,0.1,0.4,0.2,0.5c0.2,0.1,0.4,0.2,0.6,0.2c0.3,0,0.6-0.1,0.9-0.4C410.5,130.9,410.6,130.5,410.6,130.2L410.6,130.2z"/>
			<path class="st5" d="M415.7,132L415.7,132v3.5h-1.9v-8.8h1.9v0.9l0,0c0.7-1.1,2.2-1.4,3.3-0.6c0.2,0.1,0.3,0.2,0.5,0.4
				c0.5,0.6,0.7,1.4,0.6,2.2c0,0.9-0.2,1.7-0.7,2.4c-0.5,0.6-1.2,0.9-2,0.9C416.7,132.9,416.1,132.5,415.7,132z M415.7,129.5v0.5
				c0,0.4,0.1,0.7,0.3,1c0.2,0.3,0.5,0.4,0.9,0.4c0.4,0,0.8-0.2,1-0.5c0.3-0.4,0.4-0.9,0.4-1.4c0-1.1-0.4-1.6-1.2-1.6
				c-0.4,0-0.7,0.1-0.9,0.4C415.8,128.7,415.6,129.1,415.7,129.5L415.7,129.5z"/>
			<path class="st5" d="M427,132.6h-1.8v-3.4c0-0.9-0.3-1.3-1-1.3c-0.3,0-0.6,0.1-0.8,0.4c-0.2,0.3-0.3,0.6-0.3,0.9v3.4h-1.9v-8.9
				h1.9v3.8l0,0c0.4-0.6,1.1-1,1.8-1c1.3,0,2,0.8,2,2.5L427,132.6z"/>
			<path class="st5" d="M439.4,132.6h-2.1l-0.6-1.9h-3l-0.6,1.9h-2l3-8.4h2.3L439.4,132.6z M436.3,129.3l-0.9-2.8
				c-0.1-0.2-0.1-0.5-0.1-0.8h0c0,0.3-0.1,0.5-0.1,0.7l-0.9,2.8H436.3z"/>
			<path class="st5" d="M442.2,129.8v2.9h-1.9v-8.4h3c2.1,0,3.2,0.9,3.2,2.7c0,0.8-0.3,1.5-0.9,2c-0.7,0.5-1.6,0.8-2.4,0.8
				L442.2,129.8z M442.2,125.8v2.6h0.8c1,0,1.5-0.4,1.5-1.3s-0.5-1.3-1.5-1.3L442.2,125.8z"/>
			<path class="st5" d="M449.5,132.6h-1.9v-8.4h1.9V132.6z"/>
		</g>
		<g>
			<path class="st12" d="M26.4,99.4c-0.3,0-0.6-0.1-0.8-0.3c-0.2-0.2-0.3-0.4-0.3-0.7c0-0.3,0.1-0.5,0.3-0.7
				c0.2-0.2,0.5-0.3,0.8-0.3c0.3,0,0.6,0.1,0.8,0.3c0.2,0.2,0.3,0.4,0.3,0.7c0,0.3-0.1,0.5-0.3,0.7C27,99.3,26.7,99.4,26.4,99.4z"/>
			<path class="st12" d="M36.6,99.2h-1.9L31.3,94c-0.2-0.3-0.3-0.5-0.4-0.7l0,0c0,0.3,0,0.8,0,1.4v4.6h-1.8v-8.4h2l3.4,5.1
				c0.2,0.2,0.3,0.5,0.4,0.7l0,0c0-0.4,0-0.8,0-1.2v-4.7h1.8L36.6,99.2z"/>
			<path class="st12" d="M43.5,99.2h-5v-8.4h4.8v1.5h-3v1.9h2.8v1.5h-2.8v1.9h3.1L43.5,99.2z"/>
			<path class="st12" d="M50.8,92.4h-2.4v6.9h-1.9v-6.9h-2.4v-1.5h6.7V92.4z"/>
			<path class="st12" d="M61.3,98.9c-0.8,0.3-1.6,0.5-2.4,0.4c-1.1,0.1-2.2-0.4-3-1.1c-0.8-0.8-1.1-1.9-1.1-3c0-1.2,0.4-2.4,1.3-3.3
				c0.9-0.8,2-1.3,3.2-1.3c0.7,0,1.4,0.1,2.1,0.3v1.8c-0.6-0.3-1.3-0.5-1.9-0.5c-0.7,0-1.4,0.2-1.9,0.8c-1,1.2-1,2.8,0,4
				c0.5,0.5,1.2,0.8,1.8,0.7c0.7,0,1.4-0.2,2-0.5L61.3,98.9z"/>
			<path class="st12" d="M65.3,99.4c-0.9,0-1.7-0.3-2.3-0.8c-1.2-1.3-1.2-3.3,0-4.6c0.7-0.6,1.5-0.9,2.4-0.8c0.9,0,1.7,0.3,2.3,0.8
				c0.6,0.6,0.9,1.4,0.8,2.2c0,0.9-0.3,1.7-0.9,2.4C67.1,99.1,66.2,99.4,65.3,99.4z M65.3,94.5c-0.4,0-0.8,0.2-1,0.4
				c-0.3,0.4-0.4,0.8-0.3,1.3c0,1.2,0.5,1.7,1.4,1.7s1.3-0.6,1.3-1.8S66.3,94.5,65.3,94.5L65.3,94.5z"/>
			<path class="st12" d="M73.7,94.9c-0.2-0.1-0.5-0.2-0.8-0.2c-0.4,0-0.7,0.1-0.9,0.4c-0.2,0.4-0.4,0.8-0.3,1.2v2.9h-1.8v-6h1.8v1.1
				l0,0c0.2-0.7,0.8-1.2,1.6-1.2c0.2,0,0.3,0,0.5,0.1L73.7,94.9z"/>
			<path class="st12" d="M80,96.8h-3.9c0.1,0.9,0.6,1.3,1.7,1.3c0.6,0,1.2-0.1,1.7-0.5v1.3c-0.7,0.3-1.4,0.5-2.2,0.4
				c-0.8,0.1-1.7-0.2-2.3-0.8c-0.6-0.6-0.8-1.4-0.8-2.3c0-0.9,0.3-1.7,0.9-2.3c0.6-0.6,1.3-0.9,2.1-0.9c0.7,0,1.5,0.2,2,0.8
				c0.5,0.6,0.7,1.3,0.7,2.1V96.8z M78.3,95.6c0-0.9-0.3-1.3-1-1.3c-0.3,0-0.6,0.1-0.8,0.4c-0.2,0.3-0.4,0.6-0.4,0.9H78.3z"/>
			<path class="st12" d="M16.6,113.6v-8.4h3c3,0,4.5,1.4,4.5,4.1c0.1,1.2-0.4,2.3-1.2,3.1c-0.9,0.8-2.1,1.2-3.3,1.2H16.6z
				 M18.5,106.8v5.3h0.9c0.7,0,1.4-0.2,1.9-0.7c0.5-0.5,0.7-1.3,0.7-2c0-0.7-0.2-1.4-0.7-1.9c-0.5-0.5-1.2-0.7-2-0.7L18.5,106.8z"/>
			<path class="st12" d="M30.7,111.2h-3.9c0.1,0.9,0.6,1.3,1.6,1.3c0.6,0,1.2-0.1,1.7-0.5v1.3c-0.7,0.3-1.4,0.5-2.2,0.4
				c-1.5,0.2-2.9-1-3.1-2.5c0-0.2,0-0.4,0-0.5c0-0.9,0.3-1.7,0.9-2.4c0.6-0.6,1.3-0.9,2.1-0.9c0.7,0,1.5,0.2,2,0.8
				c0.5,0.6,0.8,1.3,0.7,2.1L30.7,111.2z M28.9,110c0-0.9-0.4-1.3-1-1.3c-0.3,0-0.6,0.1-0.8,0.4c-0.2,0.3-0.4,0.6-0.4,0.9H28.9z"/>
			<path class="st12" d="M31.5,113.5V112c0.3,0.2,0.6,0.3,0.9,0.4c0.3,0.1,0.6,0.1,0.8,0.1c0.3,0,0.5,0,0.8-0.1
				c0.2-0.1,0.3-0.2,0.3-0.4c0-0.1,0-0.2-0.1-0.3c-0.1-0.1-0.2-0.2-0.3-0.2c-0.1-0.1-0.3-0.1-0.4-0.2c-0.2,0-0.3-0.1-0.5-0.2
				c-0.2-0.1-0.4-0.2-0.6-0.3c-0.2-0.1-0.3-0.2-0.5-0.4c-0.1-0.1-0.2-0.3-0.3-0.5c-0.1-0.2-0.1-0.4-0.1-0.6c0-0.3,0.1-0.6,0.2-0.9
				c0.1-0.2,0.3-0.5,0.6-0.6c0.3-0.2,0.5-0.3,0.8-0.3c0.3-0.1,0.7-0.1,1-0.1c0.3,0,0.5,0,0.8,0.1c0.3,0,0.5,0.1,0.8,0.2v1.4
				c-0.2-0.1-0.5-0.2-0.8-0.3c-0.3-0.1-0.5-0.1-0.8-0.1c-0.1,0-0.2,0-0.3,0c-0.1,0-0.2,0.1-0.3,0.1c-0.1,0-0.1,0.1-0.2,0.2
				c0,0.1-0.1,0.1-0.1,0.2c0,0.1,0,0.2,0.1,0.3c0.1,0.1,0.2,0.2,0.3,0.2c0.1,0.1,0.2,0.1,0.4,0.2l0.4,0.1c0.2,0.1,0.4,0.2,0.7,0.3
				c0.2,0.1,0.4,0.2,0.5,0.4c0.1,0.1,0.3,0.3,0.3,0.5c0.2,0.5,0.1,1.1-0.1,1.6c-0.2,0.2-0.4,0.5-0.6,0.6c-0.3,0.2-0.6,0.3-0.9,0.3
				c-0.3,0.1-0.7,0.1-1,0.1C32.8,113.8,32.1,113.7,31.5,113.5z"/>
			<path class="st12" d="M43.3,113.6H41l-1.9-3l0,0v3h-1.8v-8.9h1.8v5.7l0,0l1.8-2.8h2.2l-2.1,2.8L43.3,113.6z"/>
			<path class="st12" d="M47.8,113.6c-0.4,0.2-0.8,0.2-1.2,0.2c-1.3,0-2-0.7-2-2V109h-1v-1.4h1v-1.3l1.8-0.5v1.8h1.3v1.4h-1.3v2.4
				c0,0.6,0.3,0.9,0.7,0.9c0.2,0,0.4-0.1,0.6-0.2L47.8,113.6z"/>
			<path class="st12" d="M51.7,113.8c-0.9,0-1.7-0.3-2.4-0.8c-1.2-1.3-1.2-3.3,0-4.6c0.7-0.6,1.5-0.9,2.4-0.8c0.9,0,1.7,0.3,2.3,0.8
				c0.6,0.6,0.9,1.4,0.8,2.2c0,0.9-0.3,1.7-0.9,2.4C53.5,113.5,52.6,113.8,51.7,113.8z M51.7,108.9c-0.4,0-0.8,0.2-1,0.4
				c-0.3,0.4-0.4,0.8-0.4,1.3c0,1.2,0.5,1.7,1.4,1.7s1.3-0.6,1.3-1.8S52.7,108.9,51.7,108.9L51.7,108.9z"/>
			<path class="st12" d="M58.1,112.9L58.1,112.9v3.5h-1.9v-8.8h1.8v0.9l0,0c0.7-1.1,2.2-1.4,3.3-0.7c0.2,0.1,0.3,0.2,0.5,0.4
				c0.5,0.6,0.7,1.4,0.6,2.2c0,0.9-0.2,1.7-0.7,2.4c-0.5,0.6-1.2,0.9-2,0.9C59,113.8,58.4,113.5,58.1,112.9z M58,110.5v0.5
				c0,0.4,0.1,0.7,0.3,1c0.2,0.3,0.5,0.4,0.9,0.4c0.4,0,0.8-0.2,1-0.5c0.3-0.4,0.4-0.9,0.3-1.4c0-1-0.4-1.6-1.2-1.6
				c-0.4,0-0.7,0.1-0.9,0.4C58.1,109.7,58,110.1,58,110.5z"/>
			<path class="st12" d="M74.5,113.6h-2.1l-0.6-1.9h-3l-0.6,1.9h-2l3.1-8.4h2.2L74.5,113.6z M71.4,110.3l-0.9-2.8
				c-0.1-0.2-0.1-0.5-0.1-0.8h-0.1c0,0.2-0.1,0.5-0.2,0.7l-0.9,2.8H71.4z"/>
			<path class="st12" d="M77.3,112.9L77.3,112.9v3.5h-1.9v-8.8h1.8v0.9l0,0c0.7-1.1,2.2-1.4,3.3-0.6c0.2,0.1,0.3,0.2,0.5,0.4
				c0.5,0.6,0.7,1.4,0.6,2.2c0,0.9-0.2,1.7-0.7,2.4c-0.5,0.6-1.2,0.9-2,0.9C78.2,113.8,77.6,113.5,77.3,112.9z M77.3,110.5v0.5
				c0,0.4,0.1,0.7,0.3,1c0.2,0.3,0.5,0.4,0.9,0.4c0.4,0,0.8-0.2,1-0.5c0.3-0.4,0.4-0.9,0.3-1.4c0-1-0.4-1.6-1.2-1.6
				c-0.4,0-0.7,0.1-0.9,0.4C77.4,109.7,77.2,110.1,77.3,110.5L77.3,110.5z"/>
			<path class="st12" d="M84.7,112.9L84.7,112.9v3.5h-1.9v-8.8h1.9v0.9l0,0c0.7-1.1,2.2-1.4,3.3-0.6c0.2,0.1,0.3,0.2,0.5,0.4
				c0.4,0.6,0.7,1.4,0.6,2.2c0,0.9-0.2,1.7-0.7,2.4c-0.5,0.6-1.2,0.9-2,0.9C85.7,113.8,85.1,113.5,84.7,112.9z M84.7,110.5v0.5
				c0,0.4,0.1,0.7,0.3,1c0.2,0.3,0.5,0.4,0.9,0.4c0.4,0,0.8-0.2,1-0.5c0.3-0.4,0.4-0.9,0.3-1.4c0-1-0.4-1.6-1.2-1.6
				c-0.4,0-0.7,0.1-0.9,0.4C84.8,109.7,84.7,110.1,84.7,110.5L84.7,110.5z"/>
			<path class="st12" d="M8.5,130H7c-1.3-1.4-1.9-3.2-1.9-5.1c0-1.9,0.6-3.8,1.9-5.2h1.5c-1.2,1.5-1.8,3.3-1.8,5.2
				C6.7,126.7,7.3,128.5,8.5,130z"/>
			<path class="st12" d="M17,128h-1.9l-3.5-5.3c-0.2-0.2-0.3-0.5-0.4-0.7l0,0c0,0.3,0,0.8,0,1.4v4.6H9.5v-8.4h2l3.3,5.1
				c0.1,0.2,0.3,0.5,0.4,0.7l0,0c0-0.4-0.1-0.8-0.1-1.2v-4.6H17L17,128z"/>
			<path class="st12" d="M21.6,128.2c-0.9,0-1.7-0.3-2.4-0.8c-1.2-1.3-1.2-3.3,0-4.6c0.7-0.6,1.5-0.9,2.4-0.8c0.9,0,1.7,0.3,2.3,0.8
				c0.6,0.6,0.9,1.4,0.9,2.2c0,0.9-0.3,1.7-0.9,2.4C23.3,127.9,22.5,128.2,21.6,128.2z M21.6,123.3c-0.4,0-0.8,0.2-1,0.4
				c-0.3,0.4-0.4,0.8-0.4,1.3c0,1.2,0.5,1.7,1.4,1.7s1.4-0.6,1.4-1.8S22.5,123.3,21.6,123.3L21.6,123.3z"/>
			<path class="st12" d="M31.9,128H30v-3.3c0-0.9-0.3-1.4-1-1.4c-0.3,0-0.6,0.1-0.8,0.4c-0.2,0.3-0.3,0.6-0.3,0.9v3.4h-1.8v-6h1.9v1
				l0,0c0.4-0.7,1.1-1.1,1.9-1.1c1.3,0,2,0.8,2,2.5L31.9,128z"/>
			<path class="st12" d="M36.5,125.5h-3.2v-1.3h3.2V125.5z"/>
			<path class="st12" d="M38.9,121.1c-0.3,0-0.6-0.1-0.8-0.3c-0.2-0.2-0.3-0.4-0.3-0.7c0-0.3,0.1-0.5,0.3-0.7c0.4-0.4,1.1-0.4,1.5,0
				c0.2,0.2,0.3,0.4,0.3,0.7c0,0.3-0.1,0.5-0.3,0.7C39.4,121,39.2,121.1,38.9,121.1z M39.8,128h-1.8v-6h1.8V128z"/>
			<path class="st12" d="M47.1,128h-1.8v-3.3c0-0.9-0.3-1.4-1-1.4c-0.3,0-0.6,0.1-0.8,0.4c-0.2,0.3-0.3,0.6-0.3,0.9v3.4h-1.8v-6h1.8
				v1l0,0c0.4-0.7,1.1-1.1,1.9-1.1c1.3,0,2,0.8,2,2.5L47.1,128z"/>
			<path class="st12" d="M52.1,128c-0.4,0.2-0.8,0.2-1.2,0.2c-1.3,0-2-0.7-2-2v-2.8H48V122h1v-1.3l1.8-0.5v1.8h1.3v1.4h-1.4v2.4
				c0,0.6,0.2,0.9,0.7,0.9c0.2,0,0.4-0.1,0.6-0.2V128z"/>
			<path class="st12" d="M58.6,125.6h-3.9c0.1,0.9,0.6,1.3,1.7,1.3c0.6,0,1.2-0.2,1.7-0.5v1.3c-0.7,0.3-1.4,0.5-2.2,0.4
				c-0.8,0.1-1.7-0.2-2.3-0.8c-0.6-0.6-0.8-1.4-0.8-2.3c0-0.9,0.3-1.7,0.9-2.4c0.6-0.6,1.3-0.9,2.1-0.9c0.7,0,1.5,0.2,2,0.8
				c0.5,0.6,0.8,1.3,0.7,2.1L58.6,125.6z M56.8,124.4c0-0.9-0.3-1.3-1-1.3c-0.3,0-0.6,0.1-0.8,0.4c-0.2,0.3-0.4,0.6-0.4,0.9H56.8z"
				/>
			<path class="st12" d="M63.7,123.7c-0.2-0.1-0.5-0.2-0.8-0.2c-0.4,0-0.7,0.1-0.9,0.4c-0.2,0.4-0.4,0.8-0.3,1.2v2.8h-1.9v-6h1.8
				v1.1l0,0c0.2-0.7,0.8-1.2,1.6-1.2c0.2,0,0.3,0,0.5,0.1L63.7,123.7z"/>
			<path class="st12" d="M69.4,128h-1.8v-0.9l0,0c-0.4,0.6-1.1,1-1.8,1c-0.5,0-1-0.1-1.4-0.5c-0.3-0.4-0.5-0.8-0.5-1.3
				c0-1.2,0.7-1.8,2.1-2l1.6-0.2c0-0.7-0.3-1-1.1-1c-0.7,0-1.4,0.2-2,0.6v-1.4c0.3-0.2,0.7-0.3,1.1-0.4c0.4-0.1,0.8-0.1,1.2-0.2
				c1.2-0.2,2.4,0.7,2.6,1.9c0,0.2,0,0.4,0,0.6L69.4,128z M67.7,125.6v-0.4l-1.1,0.1c-0.6,0.1-0.9,0.3-0.9,0.8
				c0,0.2,0.1,0.4,0.2,0.5c0.2,0.1,0.4,0.2,0.6,0.2c0.3,0,0.6-0.1,0.8-0.4C67.6,126.2,67.7,125.9,67.7,125.6L67.7,125.6z"/>
			<path class="st12" d="M75.4,127.8c-0.6,0.3-1.2,0.4-1.8,0.4c-0.8,0-1.6-0.3-2.2-0.8c-0.6-0.6-0.9-1.4-0.9-2.2
				c0-0.9,0.3-1.8,0.9-2.4c0.7-0.6,1.5-0.9,2.4-0.9c0.5,0,1.1,0.1,1.5,0.3v1.6c-0.4-0.3-0.8-0.4-1.3-0.4c-0.5,0-0.9,0.1-1.3,0.5
				c-0.3,0.3-0.5,0.8-0.5,1.3c0,0.5,0.1,0.9,0.4,1.3c0.3,0.3,0.8,0.5,1.2,0.5c0.5,0,1-0.2,1.3-0.4L75.4,127.8z"/>
			<path class="st12" d="M80.4,128c-0.4,0.2-0.8,0.2-1.2,0.2c-1.3,0-2-0.7-2-2v-2.8h-1V122h1v-1.3l1.8-0.5v1.8h1.3v1.4H79v2.4
				c0,0.6,0.3,0.9,0.7,0.9c0.2,0,0.4-0.1,0.6-0.2L80.4,128z"/>
			<path class="st12" d="M82.4,121.1c-0.3,0-0.6-0.1-0.8-0.3c-0.2-0.2-0.3-0.4-0.3-0.7c0-0.3,0.1-0.5,0.3-0.7c0.4-0.4,1.1-0.4,1.5,0
				c0.2,0.2,0.3,0.4,0.3,0.7c0,0.3-0.1,0.5-0.3,0.7C83,121,82.7,121.1,82.4,121.1z M83.3,128h-1.8v-6h1.8V128z"/>
			<path class="st12" d="M90.6,122l-2.2,6h-2.1l-2.1-6h2l1,3.7c0.1,0.3,0.2,0.7,0.2,1.1l0,0c0-0.3,0.1-0.7,0.2-1l1.1-3.8H90.6z"/>
			<path class="st12" d="M96.6,125.6h-3.9c0.1,0.9,0.6,1.3,1.7,1.3c0.6,0,1.2-0.1,1.7-0.5v1.3c-0.7,0.3-1.4,0.5-2.2,0.4
				c-1.5,0.2-2.9-0.9-3.1-2.5c0-0.2,0-0.4,0-0.6c0-0.9,0.3-1.7,0.9-2.4c0.6-0.6,1.3-0.9,2.1-0.9c0.7,0,1.5,0.2,2,0.8
				c0.5,0.6,0.8,1.3,0.7,2.1L96.6,125.6z M94.9,124.4c0-0.9-0.3-1.3-1-1.3c-0.3,0-0.6,0.1-0.8,0.4c-0.2,0.3-0.4,0.6-0.4,0.9H94.9z"
				/>
			<path class="st12" d="M98.1,130h-1.5c1.2-1.5,1.8-3.3,1.8-5.1c0-1.9-0.6-3.7-1.8-5.2h1.5c1.2,1.4,1.9,3.3,1.9,5.2
				C100.1,126.8,99.4,128.6,98.1,130z"/>
		</g>
		<g>
			<path class="st1" d="M406.2,34h-1.9v-5c0-0.5,0-1.1,0.1-1.8h0c-0.1,0.4-0.2,0.8-0.3,1.1l-2,5.7h-1.5l-2-5.6
				c-0.1-0.2-0.1-0.5-0.3-1.2l0,0c0,0.8,0.1,1.6,0.1,2.2V34h-1.7v-8.4h2.8l1.7,5c0.1,0.4,0.2,0.8,0.3,1.2l0,0
				c0.1-0.4,0.2-0.8,0.3-1.2l1.7-5h2.7L406.2,34z"/>
			<path class="st1" d="M408.8,27.1c-0.3,0-0.6-0.1-0.8-0.3c-0.2-0.2-0.3-0.4-0.3-0.7c0-0.3,0.1-0.5,0.3-0.7
				c0.2-0.2,0.5-0.3,0.8-0.3c0.3,0,0.6,0.1,0.8,0.3c0.2,0.2,0.3,0.4,0.3,0.7c0,0.3-0.1,0.5-0.3,0.7C409.3,27,409.1,27.1,408.8,27.1z
				 M409.7,34.1h-1.9V28h1.9V34.1z"/>
			<path class="st1" d="M415.8,33.8c-0.6,0.3-1.2,0.4-1.8,0.4c-0.8,0-1.6-0.3-2.2-0.8c-0.6-0.6-0.9-1.4-0.9-2.2
				c0-0.9,0.3-1.8,0.9-2.4c0.7-0.6,1.5-0.9,2.5-0.9c0.5,0,1.1,0.1,1.5,0.3v1.6c-0.4-0.3-0.8-0.4-1.3-0.4c-0.5,0-0.9,0.1-1.3,0.5
				c-0.3,0.3-0.5,0.8-0.5,1.3c0,0.5,0.1,0.9,0.5,1.3c0.3,0.3,0.8,0.5,1.2,0.5c0.5,0,1-0.2,1.4-0.4L415.8,33.8z"/>
			<path class="st1" d="M421,29.7c-0.2-0.1-0.5-0.2-0.8-0.2c-0.4,0-0.7,0.2-0.9,0.4c-0.2,0.4-0.4,0.8-0.3,1.2V34h-1.9v-6h1.9v1.1
				l0,0c0.2-0.7,0.8-1.2,1.6-1.2c0.2,0,0.3,0,0.5,0.1V29.7z"/>
			<path class="st1" d="M424.8,34.2c-0.9,0-1.7-0.3-2.4-0.8c-0.6-0.6-0.9-1.4-0.9-2.3c-0.1-0.9,0.3-1.7,0.9-2.3
				c0.7-0.6,1.5-0.9,2.4-0.9c0.9,0,1.7,0.3,2.3,0.9c0.6,0.6,0.9,1.4,0.9,2.2c0,0.9-0.3,1.7-0.9,2.4
				C426.6,33.9,425.7,34.2,424.8,34.2z M424.8,29.3c-0.4,0-0.8,0.2-1,0.5c-0.3,0.4-0.4,0.8-0.4,1.3c0,1.1,0.5,1.7,1.4,1.7
				s1.3-0.6,1.3-1.8S425.8,29.3,424.8,29.3L424.8,29.3z"/>
			<path class="st1" d="M428.9,33.8v-1.5c0.3,0.2,0.6,0.3,0.9,0.4c0.3,0.1,0.6,0.1,0.9,0.1c0.3,0,0.5,0,0.8-0.1
				c0.2-0.1,0.3-0.2,0.3-0.4c0-0.1,0-0.2-0.1-0.3c-0.1-0.1-0.2-0.2-0.3-0.2c-0.1-0.1-0.3-0.1-0.4-0.1l-0.5-0.2
				c-0.2-0.1-0.4-0.2-0.6-0.3c-0.2-0.1-0.3-0.2-0.5-0.4c-0.1-0.1-0.2-0.3-0.3-0.5c-0.1-0.2-0.1-0.4-0.1-0.6c0-0.3,0.1-0.6,0.2-0.9
				c0.2-0.2,0.4-0.4,0.6-0.6c0.3-0.2,0.5-0.3,0.8-0.3c0.6-0.1,1.2-0.1,1.8,0c0.3,0,0.5,0.1,0.8,0.2v1.4c-0.2-0.1-0.5-0.2-0.8-0.3
				c-0.3-0.1-0.5-0.1-0.8-0.1c-0.1,0-0.2,0-0.4,0c-0.1,0-0.2,0-0.3,0.1c-0.1,0-0.1,0.1-0.2,0.2c0,0.1-0.1,0.1-0.1,0.2
				c0,0.1,0,0.2,0.1,0.3c0.1,0.1,0.2,0.2,0.3,0.2c0.1,0.1,0.2,0.1,0.4,0.1l0.4,0.1c0.2,0.1,0.5,0.2,0.7,0.3c0.2,0.1,0.4,0.2,0.5,0.4
				c0.1,0.1,0.3,0.3,0.3,0.5c0.1,0.2,0.1,0.4,0.1,0.7c0,0.3-0.1,0.6-0.2,0.9c-0.2,0.2-0.4,0.5-0.6,0.6c-0.3,0.2-0.6,0.3-0.9,0.3
				c-0.3,0.1-0.7,0.1-1,0.1C430.2,34.2,429.5,34.1,428.9,33.8z"/>
			<path class="st1" d="M437.5,34.2c-0.9,0-1.7-0.3-2.4-0.8c-0.6-0.6-0.9-1.4-0.9-2.3c-0.1-0.9,0.3-1.7,0.9-2.3
				c0.7-0.6,1.5-0.9,2.4-0.9c0.9-0.1,1.7,0.3,2.3,0.9c0.6,0.6,0.9,1.4,0.9,2.2c0,0.9-0.3,1.7-0.9,2.4
				C439.3,33.9,438.4,34.2,437.5,34.2z M437.5,29.3c-0.4,0-0.8,0.2-1,0.5c-0.3,0.4-0.4,0.8-0.4,1.3c0,1.1,0.5,1.7,1.4,1.7
				s1.3-0.6,1.3-1.8S438.5,29.3,437.5,29.3L437.5,29.3z"/>
			<path class="st1" d="M445.9,26.5c-0.2-0.1-0.4-0.1-0.7-0.1c-0.6,0-0.9,0.3-0.9,1V28h1.4v1.4h-1.4V34h-1.8v-4.6h-1V28h1v-0.7
				c0-0.6,0.2-1.2,0.7-1.7c0.5-0.4,1.1-0.7,1.8-0.6c0.3,0,0.6,0,0.9,0.1L445.9,26.5z"/>
			<path class="st1" d="M450.4,33.9c-0.4,0.2-0.8,0.2-1.2,0.2c-1.3,0-2-0.7-2-2v-2.8h-1V28h1v-1.3l1.8-0.5V28h1.4v1.4h-1.4v2.4
				c0,0.6,0.3,0.9,0.8,0.9c0.2,0,0.4-0.1,0.6-0.2V33.9z"/>
			<path class="st1" d="M402.8,41.5c-0.3,0-0.6-0.1-0.8-0.3c-0.2-0.2-0.3-0.4-0.3-0.7c0-0.3,0.1-0.5,0.3-0.7
				c0.2-0.2,0.5-0.3,0.8-0.3c0.3,0,0.6,0.1,0.8,0.3c0.2,0.2,0.3,0.4,0.3,0.7c0,0.3-0.1,0.5-0.3,0.7
				C403.4,41.4,403.1,41.5,402.8,41.5z M403.7,48.4h-1.9v-6h1.9V48.4z"/>
			<path class="st1" d="M411.2,48.4h-1.9v-0.8l0,0c-0.4,0.6-1.1,1-1.9,1c-0.7,0-1.4-0.3-1.8-0.8c-0.5-0.6-0.7-1.4-0.7-2.2
				c0-0.9,0.2-1.7,0.8-2.4c0.5-0.6,1.2-0.9,2-0.9c0.7-0.1,1.3,0.3,1.6,0.8l0,0v-3.6h1.9L411.2,48.4z M409.4,45.5V45
				c0-0.4-0.1-0.7-0.3-1c-0.2-0.3-0.5-0.4-0.9-0.4c-0.4,0-0.8,0.2-1,0.5c-0.2,0.4-0.4,0.9-0.3,1.3c0,0.4,0.1,0.9,0.3,1.2
				c0.4,0.5,1.2,0.6,1.7,0.2c0.1-0.1,0.1-0.1,0.2-0.2C409.2,46.3,409.4,45.9,409.4,45.5L409.4,45.5z"/>
			<path class="st1" d="M418.1,45.9h-3.9c0.1,0.9,0.6,1.3,1.6,1.3c0.6,0,1.2-0.1,1.7-0.5v1.3c-0.7,0.3-1.4,0.5-2.2,0.5
				c-1.5,0.2-2.9-1-3.1-2.5c0-0.2,0-0.4,0-0.6c0-0.9,0.3-1.7,0.9-2.4c0.6-0.6,1.3-0.9,2.1-0.9c0.7,0,1.5,0.2,2,0.8
				c0.5,0.6,0.8,1.3,0.7,2.1L418.1,45.9z M416.4,44.8c0-0.9-0.3-1.3-1-1.3c-0.3,0-0.6,0.1-0.8,0.4c-0.2,0.3-0.4,0.6-0.4,0.9
				L416.4,44.8z"/>
			<path class="st1" d="M425.1,48.4h-1.9v-3.3c0-0.9-0.3-1.4-1-1.4c-0.3,0-0.6,0.1-0.8,0.4c-0.2,0.3-0.3,0.6-0.3,0.9v3.4h-1.8v-6
				h1.9v1l0,0c0.4-0.7,1.1-1.1,1.9-1.1c1.3,0,2,0.8,2,2.5L425.1,48.4z"/>
			<path class="st1" d="M430.1,48.3c-0.4,0.2-0.8,0.2-1.2,0.2c-1.3,0-2-0.7-2-2v-2.8h-1v-1.4h1v-1.3l1.8-0.5v1.8h1.4v1.4h-1.4v2.4
				c0,0.6,0.3,0.9,0.8,0.9c0.2,0,0.4-0.1,0.6-0.2V48.3z"/>
			<path class="st1" d="M432.2,41.5c-0.3,0-0.6-0.1-0.8-0.3c-0.2-0.2-0.3-0.4-0.3-0.7c0-0.3,0.1-0.5,0.3-0.7
				c0.2-0.2,0.5-0.3,0.8-0.3c0.3,0,0.6,0.1,0.8,0.3c0.2,0.2,0.3,0.4,0.3,0.7c0,0.3-0.1,0.5-0.3,0.7
				C432.7,41.4,432.5,41.5,432.2,41.5z M433.1,48.4h-1.9v-6h1.9V48.4z"/>
			<path class="st1" d="M438.2,48.3c-0.4,0.2-0.8,0.2-1.2,0.2c-1.3,0-2-0.7-2-2v-2.8h-1v-1.4h1v-1.3l1.8-0.5v1.8h1.4v1.4h-1.4v2.4
				c0,0.6,0.3,0.9,0.8,0.9c0.2,0,0.4-0.1,0.6-0.2V48.3z"/>
			<path class="st1" d="M445.2,42.4l-2.4,6.5c-0.6,1.6-1.5,2.3-2.6,2.3c-0.4,0-0.8,0-1.1-0.2v-1.5c0.2,0.1,0.5,0.2,0.8,0.2
				c0.4,0,0.9-0.3,1-0.7l0.3-0.7l-2.4-6h2l1.1,3.7c0.1,0.3,0.1,0.5,0.2,0.8l0,0c0-0.3,0.1-0.5,0.2-0.8l1.1-3.7L445.2,42.4z"/>
			<path class="st1" d="M400.9,62.1L400.9,62.1v3.5H399v-8.8h1.9v0.9l0,0c0.7-1.1,2.2-1.4,3.3-0.6c0.2,0.1,0.3,0.2,0.5,0.4
				c0.5,0.6,0.7,1.4,0.6,2.2c0,0.9-0.2,1.7-0.7,2.4c-0.5,0.6-1.2,0.9-2,0.9C401.8,63,401.2,62.6,400.9,62.1z M400.8,59.7v0.5
				c0,0.4,0.1,0.7,0.3,1c0.2,0.3,0.5,0.4,0.9,0.4c0.4,0,0.8-0.2,1-0.5c0.3-0.4,0.4-0.9,0.4-1.4c0-1-0.4-1.6-1.2-1.6
				c-0.4,0-0.7,0.2-0.9,0.4C401,58.8,400.8,59.2,400.8,59.7L400.8,59.7z"/>
			<path class="st1" d="M408.4,62.8h-1.9v-8.9h1.9V62.8z"/>
			<path class="st1" d="M414.9,62.8h-1.8V62l0,0c-0.4,0.6-1,1-1.8,1c-0.5,0-1-0.2-1.4-0.5c-0.3-0.4-0.5-0.8-0.5-1.3
				c0-1.2,0.7-1.8,2.1-2l1.6-0.2c0-0.7-0.4-1-1.1-1c-0.7,0-1.4,0.2-2,0.6v-1.4c0.3-0.2,0.7-0.3,1.1-0.3c0.4-0.1,0.8-0.2,1.2-0.2
				c1.2-0.2,2.4,0.7,2.6,1.9c0,0.2,0,0.4,0,0.6L414.9,62.8z M413.2,60.4V60l-1.1,0.1c-0.6,0.1-0.9,0.4-0.9,0.8
				c0,0.2,0.1,0.4,0.2,0.5c0.2,0.1,0.4,0.2,0.6,0.2c0.3,0,0.6-0.1,0.9-0.4C413.1,61.1,413.2,60.7,413.2,60.4z"/>
			<path class="st1" d="M419.9,62.7c-0.4,0.2-0.8,0.2-1.2,0.2c-1.3,0-2-0.7-2-2v-2.8h-1v-1.4h1v-1.3l1.9-0.5v1.8h1.3v1.4h-1.3v2.4
				c0,0.6,0.2,0.9,0.7,0.9c0.2,0,0.4-0.1,0.6-0.2L419.9,62.7z"/>
			<path class="st1" d="M425,55.3c-0.2-0.1-0.4-0.1-0.7-0.1c-0.6,0-0.9,0.3-0.9,1v0.6h1.4v1.4h-1.4v4.6h-1.9v-4.7h-1v-1.4h1v-0.7
				c0-0.6,0.2-1.2,0.7-1.7c0.5-0.4,1.2-0.7,1.8-0.6c0.3,0,0.6,0,0.9,0.1V55.3z"/>
			<path class="st1" d="M428.6,63c-0.9,0-1.7-0.3-2.4-0.8c-1.2-1.3-1.2-3.3,0-4.6c0.7-0.6,1.5-0.9,2.4-0.8c0.9-0.1,1.7,0.3,2.3,0.8
				c0.6,0.6,0.9,1.4,0.9,2.2c0,0.9-0.3,1.7-0.9,2.4C430.3,62.7,429.5,63,428.6,63z M428.7,58.1c-0.4,0-0.8,0.2-1,0.5
				c-0.3,0.4-0.4,0.8-0.4,1.3c0,1.2,0.5,1.7,1.4,1.7s1.3-0.6,1.3-1.8S429.6,58.1,428.7,58.1L428.7,58.1z"/>
			<path class="st1" d="M437,58.5c-0.2-0.1-0.5-0.2-0.8-0.2c-0.4,0-0.7,0.1-0.9,0.4c-0.2,0.4-0.4,0.8-0.3,1.2v2.9h-1.9v-6h1.9v1.1
				l0,0c0.2-0.7,0.8-1.2,1.6-1.2c0.2,0,0.3,0,0.5,0.1L437,58.5z"/>
			<path class="st1" d="M447.4,62.8h-1.9v-3.4c0-0.9-0.3-1.3-1-1.3c-0.3,0-0.6,0.1-0.7,0.4c-0.2,0.3-0.3,0.6-0.3,1v3.4h-1.8v-3.5
				c0-0.8-0.3-1.3-0.9-1.3c-0.3,0-0.6,0.1-0.8,0.4c-0.2,0.3-0.3,0.6-0.3,1v3.3h-1.9v-6h1.9v0.9l0,0c0.2-0.3,0.5-0.6,0.8-0.8
				c0.3-0.2,0.7-0.3,1.1-0.3c0.8,0,1.5,0.4,1.7,1.1c0.4-0.7,1.2-1.1,2-1.1c1.3,0,2,0.8,2,2.4L447.4,62.8z"/>
		</g>
		<g>
			<polygon class="st11" points="187.1,85.1 179.5,90.6 182.4,99.4 191.8,99.4 194.6,90.6 			"/>
			<g>
				<g>
					<path class="st12" d="M207.5,98.6h-1.1l-0.9-2.4h-3.6l-0.8,2.4H200l3.2-8.4h1L207.5,98.6z M205.2,95.3l-1.3-3.6
						c-0.1-0.2-0.1-0.4-0.1-0.6l0,0c0,0.2-0.1,0.4-0.1,0.6l-1.3,3.6H205.2z"/>
					<path class="st12" d="M212.5,98.3c-0.5,0.3-1.1,0.4-1.6,0.4c-0.8,0-1.5-0.3-2.1-0.8c-0.5-0.6-0.8-1.4-0.8-2.2
						c0-0.9,0.3-1.7,0.9-2.4c0.6-0.6,1.4-0.9,2.3-0.9c0.5,0,1,0.1,1.4,0.3v1c-0.4-0.3-0.9-0.5-1.4-0.5c-0.6,0-1.1,0.2-1.5,0.7
						c-0.4,0.5-0.6,1.1-0.6,1.7c0,0.6,0.2,1.2,0.6,1.7c0.4,0.4,0.9,0.6,1.5,0.6c0.5,0,1.1-0.2,1.5-0.5L212.5,98.3z"/>
					<path class="st12" d="M218,98.3c-0.5,0.3-1.1,0.4-1.6,0.4c-0.8,0-1.5-0.3-2.1-0.8c-0.5-0.6-0.8-1.4-0.8-2.2
						c0-0.9,0.3-1.7,0.9-2.4c0.6-0.6,1.4-0.9,2.3-0.9c0.5,0,1,0.1,1.4,0.3v1c-0.4-0.3-0.9-0.5-1.4-0.5c-0.6,0-1.1,0.2-1.5,0.7
						c-0.4,0.5-0.6,1.1-0.6,1.7c0,0.6,0.1,1.2,0.5,1.6c0.4,0.4,0.9,0.6,1.5,0.6c0.5,0,1.1-0.2,1.5-0.5L218,98.3z"/>
					<path class="st12" d="M224.1,95.8h-4.2c0,0.6,0.2,1.1,0.5,1.5c0.4,0.4,0.9,0.6,1.4,0.6c0.7,0,1.3-0.2,1.9-0.7v0.9
						c-0.6,0.4-1.3,0.6-2.1,0.6c-0.8,0-1.5-0.3-2-0.8c-1-1.4-1-3.2,0.1-4.6c0.5-0.6,1.2-0.9,2-0.9c0.7,0,1.4,0.2,1.8,0.8
						c0.5,0.6,0.7,1.4,0.6,2.1L224.1,95.8z M223.1,95c0-0.5-0.1-0.9-0.4-1.3c-0.3-0.3-0.7-0.5-1.1-0.5c-0.4,0-0.9,0.2-1.2,0.5
						c-0.3,0.3-0.5,0.8-0.6,1.3L223.1,95z"/>
					<path class="st12" d="M225.2,98.4v-1c0.5,0.4,1.1,0.6,1.7,0.6c0.8,0,1.3-0.3,1.3-0.8c0-0.1,0-0.3-0.1-0.4
						c-0.1-0.1-0.2-0.2-0.3-0.3c-0.1-0.1-0.3-0.2-0.4-0.2l-0.5-0.2c-0.3-0.1-0.5-0.2-0.7-0.3c-0.2-0.1-0.4-0.2-0.5-0.4
						c-0.1-0.1-0.2-0.3-0.3-0.5c-0.1-0.2-0.1-0.4-0.1-0.6c0-0.3,0.1-0.5,0.2-0.8c0.1-0.2,0.3-0.4,0.5-0.5c0.2-0.2,0.5-0.3,0.7-0.3
						c0.3-0.1,0.6-0.1,0.9-0.1c0.5,0,1,0.1,1.4,0.3v1c-0.5-0.3-1-0.4-1.5-0.4c-0.2,0-0.3,0-0.5,0.1c-0.1,0-0.3,0.1-0.4,0.2
						c-0.1,0.1-0.2,0.2-0.2,0.3c-0.1,0.1-0.1,0.2-0.1,0.3c0,0.1,0,0.3,0.1,0.4c0.1,0.1,0.1,0.2,0.3,0.3c0.1,0.1,0.3,0.2,0.4,0.2
						l0.5,0.2c0.3,0.1,0.5,0.2,0.7,0.3c0.2,0.1,0.4,0.2,0.5,0.4c0.1,0.1,0.3,0.3,0.4,0.5c0.1,0.2,0.1,0.4,0.1,0.6
						c0,0.3-0.1,0.5-0.2,0.8c-0.1,0.2-0.3,0.4-0.5,0.6c-0.2,0.1-0.5,0.3-0.8,0.3c-0.3,0.1-0.6,0.1-0.9,0.1
						C226.2,98.8,225.7,98.6,225.2,98.4z"/>
					<path class="st12" d="M230.3,98.4v-1c0.5,0.4,1.1,0.6,1.7,0.6c0.8,0,1.3-0.3,1.3-0.8c0-0.1,0-0.3-0.1-0.4
						c-0.1-0.1-0.2-0.2-0.3-0.3c-0.1-0.1-0.3-0.2-0.4-0.2l-0.5-0.2l-0.7-0.3c-0.2-0.1-0.4-0.2-0.5-0.4c-0.1-0.1-0.2-0.3-0.3-0.5
						c-0.1-0.2-0.1-0.4-0.1-0.6c0-0.3,0.1-0.5,0.2-0.8c0.1-0.2,0.3-0.4,0.5-0.5c0.2-0.2,0.5-0.3,0.7-0.3c0.3-0.1,0.6-0.1,0.9-0.1
						c0.5,0,1,0.1,1.4,0.3v1c-0.5-0.3-1-0.4-1.5-0.4c-0.2,0-0.3,0-0.5,0.1c-0.1,0-0.3,0.1-0.4,0.2c-0.1,0.1-0.2,0.2-0.2,0.3
						c-0.1,0.1-0.1,0.2-0.1,0.3c0,0.1,0,0.3,0.1,0.4c0.1,0.1,0.1,0.2,0.3,0.3c0.1,0.1,0.3,0.2,0.4,0.2l0.5,0.2
						c0.3,0.1,0.5,0.2,0.7,0.3c0.2,0.1,0.4,0.2,0.5,0.4c0.1,0.1,0.3,0.3,0.4,0.5c0.1,0.2,0.1,0.4,0.1,0.6c0,0.3-0.1,0.5-0.2,0.8
						c-0.1,0.2-0.3,0.4-0.5,0.6c-0.2,0.1-0.5,0.3-0.8,0.3c-0.3,0.1-0.6,0.1-0.9,0.1C231.3,98.8,230.8,98.6,230.3,98.4z"/>
					<path class="st12" d="M241.8,98.5c-0.3,0.1-0.6,0.2-0.9,0.2c-1.1,0-1.6-0.6-1.6-1.8v-3.5h-1v-0.8h1v-1.5l1-0.3v1.8h1.5v0.8
						h-1.5v3.4c0,0.3,0,0.6,0.2,0.9c0.2,0.2,0.4,0.3,0.7,0.3c0.2,0,0.4-0.1,0.6-0.2L241.8,98.5z"/>
					<path class="st12" d="M245.4,98.7c-0.8,0-1.6-0.3-2.1-0.8c-0.5-0.6-0.8-1.4-0.8-2.2c-0.1-0.9,0.2-1.7,0.8-2.4
						c0.6-0.6,1.4-0.9,2.2-0.8c0.8,0,1.6,0.3,2.1,0.8c0.5,0.6,0.8,1.5,0.8,2.3c0,0.8-0.2,1.7-0.8,2.3
						C247.1,98.4,246.3,98.8,245.4,98.7z M245.5,93.2c-0.6,0-1.1,0.2-1.5,0.6c-0.4,0.5-0.6,1.1-0.5,1.7c0,0.6,0.2,1.2,0.5,1.7
						c0.4,0.4,0.9,0.6,1.5,0.6c0.6,0,1.1-0.2,1.5-0.6c0.4-0.5,0.5-1.1,0.5-1.7c0-0.6-0.1-1.2-0.5-1.7
						C246.6,93.4,246.1,93.2,245.5,93.2z"/>
					<path class="st12" d="M254.9,98.6h-1.3l-2.6-2.9l0,0v2.9h-1v-8.9h1v5.6l0,0l2.5-2.7h1.3l-2.8,2.9L254.9,98.6z"/>
					<path class="st12" d="M260.4,95.8h-4.2c0,0.6,0.2,1.1,0.5,1.5c0.4,0.4,0.9,0.6,1.4,0.6c0.7,0,1.3-0.2,1.9-0.7v0.9
						c-0.6,0.4-1.3,0.6-2.1,0.6c-0.8,0-1.5-0.3-2-0.8c-0.5-0.7-0.8-1.5-0.7-2.3c0-0.8,0.2-1.6,0.8-2.3c0.5-0.6,1.2-0.9,2-0.9
						c0.7,0,1.4,0.2,1.8,0.8c0.5,0.6,0.7,1.4,0.6,2.1L260.4,95.8z M259.4,95c0-0.5-0.1-0.9-0.4-1.3c-0.3-0.3-0.7-0.5-1.1-0.5
						c-0.4,0-0.9,0.2-1.2,0.5c-0.3,0.4-0.5,0.8-0.6,1.3H259.4z"/>
					<path class="st12" d="M266.9,98.6h-1v-3.4c0-1.3-0.5-1.9-1.4-1.9c-0.5,0-0.9,0.2-1.2,0.6c-0.3,0.4-0.5,0.9-0.5,1.4v3.4h-1v-6h1
						v1l0,0c0.4-0.7,1.2-1.2,2-1.1c0.6,0,1.1,0.2,1.5,0.6c0.4,0.5,0.6,1.2,0.5,1.8L266.9,98.6z"/>
				</g>
				<g>
					<path class="st12" d="M207.3,84.4h-1v-3.8H202v3.8h-1V76h1v3.7h4.4V76h1L207.3,84.4z"/>
					<path class="st12" d="M214.3,76.9h-2.4v7.5h-1v-7.5h-2.4V76h5.8V76.9z"/>
					<path class="st12" d="M220.9,76.9h-2.4v7.5h-1v-7.5h-2.4V76h5.8L220.9,76.9z"/>
					<path class="st12" d="M223.1,81.2v3.2h-1V76h2.3c0.7,0,1.5,0.2,2.1,0.7c0.5,0.5,0.8,1.2,0.8,1.9c0,0.8-0.3,1.5-0.8,2
						c-0.6,0.5-1.4,0.8-2.2,0.8L223.1,81.2z M223.1,76.9v3.4h1c0.6,0,1.1-0.1,1.6-0.5c0.4-0.3,0.6-0.8,0.5-1.3c0-1.1-0.6-1.7-2-1.7
						H223.1z"/>
					<path class="st12" d="M238.4,83.8c-0.9,0.5-1.8,0.7-2.8,0.7c-1.1,0-2.1-0.4-2.9-1.2c-0.8-0.8-1.2-1.9-1.1-3.1
						c0-1.2,0.4-2.3,1.2-3.2c0.8-0.8,2-1.3,3.2-1.3c0.8,0,1.6,0.1,2.3,0.4v1.1c-0.7-0.4-1.6-0.7-2.4-0.6c-0.9,0-1.7,0.3-2.3,1
						c-0.6,0.7-0.9,1.6-0.9,2.5c-0.1,0.9,0.2,1.8,0.8,2.5c0.6,0.6,1.4,1,2.3,0.9c0.6,0,1.2-0.1,1.7-0.4v-2.4h-1.9V80h2.8L238.4,83.8
						z"/>
					<path class="st12" d="M244.8,84.4h-4.5V76h4.3v0.9h-3.3v2.8h3v0.9h-3v2.9h3.5V84.4z"/>
					<path class="st12" d="M251.4,76.9H249v7.5h-1v-7.5h-2.4V76h5.8L251.4,76.9z"/>
					<path class="st12" d="M261.8,81.3h-2.4v2.4h-0.8v-2.4h-2.4v-0.8h2.4v-2.4h0.8v2.4h2.4V81.3z"/>
				</g>
			</g>
		</g>
	</g>
</g>
<g id="bg">
	<g id="Shapes_1_">
		<rect class="st1" width="475.7" height="151.4"/>
		<rect y="0.7" class="st4" width="105" height="150"/>
		<rect x="371" y="0.7" class="st5" width="104.7" height="90"/>
		<rect x="371" y="95.7" class="st6" width="104.7" height="55"/>
		<g>
			<g>
				<path class="st7" d="M18.5,29.2c0-0.8,0.7-1.5,1.5-1.5c0,0,0,0,0,0H83c0.8,0,1.5,0.7,1.5,1.5v37.2c0,0.8-0.7,1.5-1.5,1.5H20.1
					c-0.8,0-1.5-0.7-1.5-1.5L18.5,29.2z M15.1,27.4v40.7c0,1.8,1.5,3.3,3.3,3.3c0,0,0,0,0,0h66.3c1.8,0,3.3-1.4,3.3-3.3c0,0,0,0,0,0
					V27.4c0-1.8-1.5-3.3-3.3-3.3c0,0,0,0,0,0H18.4C16.5,24.1,15.1,25.6,15.1,27.4C15.1,27.4,15.1,27.4,15.1,27.4z"/>
				<path class="st7" d="M12.4,74.9h78.3c0.5,0,0.9,0.4,0.9,0.9c0,0,0,0,0,0v2.6c0,0.5-0.4,0.9-0.9,0.9c0,0,0,0,0,0H12.4
					c-0.5,0-0.9-0.4-0.9-0.9c0,0,0,0,0,0v-2.6C11.5,75.3,11.9,74.9,12.4,74.9C12.4,74.9,12.4,74.9,12.4,74.9z"/>
				<path class="st1" d="M42.6,76.4h17.8c0.1,0,0.3,0.1,0.3,0.3v0.7c0,0.1-0.1,0.3-0.3,0.3H42.6c-0.1,0-0.3-0.1-0.3-0.3v-0.7
					C42.3,76.6,42.5,76.4,42.6,76.4z"/>
			</g>
			<g>
				<path class="st8" d="M58.4,51.5l0.7-1.6l-0.2-0.2l-1.5-1.3v-1.3l1.7-1.5l-0.7-1.7h-0.3l-2,0.1l-0.9-0.9l0.1-2.3l-1.6-0.7
					l-0.2,0.2l-1.3,1.5h-1.3l-1.5-1.7l-1.7,0.7v0.3l0.1,2l-1,0.9l-2.3-0.1L44,45.5l0.2,0.2l1.5,1.3v1.3L44,49.9l0.7,1.7h0.3l2-0.1
					l0.9,1l-0.1,2.3l1.6,0.7l0.2-0.2l1.3-1.5h1.3l1.5,1.7l1.7-0.7v-0.3l-0.1-2l1-0.9L58.4,51.5z M50.1,51.1
					c-1.9-0.8-2.7-2.9-1.9-4.8s2.9-2.7,4.8-1.9c1.9,0.8,2.7,2.9,1.9,4.8l0,0C54.1,51,52,51.9,50.1,51.1L50.1,51.1"/>
				<path class="st8" d="M51.5,65c-9.6,0-17.3-7.8-17.3-17.3s7.8-17.3,17.3-17.3s17.3,7.8,17.3,17.3c0,0,0,0,0,0
					C68.8,57.3,61.1,65,51.5,65z M51.5,34.5c-7.3,0-13.1,5.9-13.1,13.1c0,7.3,5.9,13.1,13.1,13.1c7.2,0,13.1-5.9,13.1-13.1
					C64.7,40.5,58.8,34.6,51.5,34.5C51.5,34.6,51.5,34.6,51.5,34.5L51.5,34.5z"/>
				<path class="st8" d="M51.5,65c-9.6,0-17.3-7.8-17.3-17.3s7.8-17.3,17.3-17.3s17.3,7.8,17.3,17.3c0,0,0,0,0,0
					C68.8,57.3,61.1,65,51.5,65z M51.5,34.5c-7.3,0-13.1,5.9-13.1,13.1c0,7.3,5.9,13.1,13.1,13.1c7.2,0,13.1-5.9,13.1-13.1
					C64.7,40.5,58.8,34.6,51.5,34.5C51.5,34.6,51.5,34.6,51.5,34.5L51.5,34.5z"/>
				<path class="st8" d="M51.5,65c-9.6,0-17.3-7.8-17.3-17.3s7.8-17.3,17.3-17.3s17.3,7.8,17.3,17.3c0,0,0,0,0,0
					C68.8,57.3,61.1,65,51.5,65z M51.5,34.5c-7.3,0-13.1,5.9-13.1,13.1c0,7.3,5.9,13.1,13.1,13.1c7.2,0,13.1-5.9,13.1-13.1
					C64.7,40.5,58.8,34.6,51.5,34.5C51.5,34.6,51.5,34.6,51.5,34.5L51.5,34.5z"/>
				<path class="st9" d="M51.5,65.9c-10,0-18.1-8.1-18.1-18.2s8.1-18.1,18.2-18.1c10,0,18.1,8.1,18.1,18.1
					C69.7,57.8,61.5,65.9,51.5,65.9z M51.5,30.3c-9.6,0-17.4,7.8-17.4,17.5s7.8,17.4,17.5,17.4c9.6,0,17.4-7.8,17.4-17.5
					C69,38.1,61.2,30.3,51.5,30.3C51.5,30.3,51.5,30.3,51.5,30.3z"/>
				<path class="st9" d="M51.5,65.9c-10,0-18.1-8.1-18.1-18.2s8.1-18.1,18.2-18.1c10,0,18.1,8.1,18.1,18.1
					C69.7,57.8,61.5,65.9,51.5,65.9z M51.5,30.3c-9.6,0-17.4,7.8-17.4,17.5s7.8,17.4,17.5,17.4c9.6,0,17.4-7.8,17.4-17.5
					C69,38.1,61.2,30.3,51.5,30.3C51.5,30.3,51.5,30.3,51.5,30.3z"/>
				<path class="st9" d="M51.5,66.2C41.3,66.2,33,58,33,47.7c0-10.2,8.3-18.5,18.5-18.5S70,37.5,70,47.7c0,0,0,0,0,0
					C70,57.9,61.7,66.2,51.5,66.2z M51.5,30.6c-9.4,0-17.1,7.7-17.1,17.1s7.7,17.1,17.1,17.1s17.1-7.7,17.1-17.1S61,30.6,51.5,30.6
					L51.5,30.6z"/>
			</g>
		</g>
		<g>
			<line class="st10" x1="104.9" y1="14.6" x2="365.5" y2="14.6"/>
			<polygon points="364.4,18.3 370.9,14.6 364.4,10.8 			"/>
		</g>
		<g>
			<line class="st10" x1="110.3" y1="44.5" x2="370.9" y2="44.5"/>
			<polygon points="111.4,48.2 104.9,44.5 111.4,40.7 			"/>
		</g>
		<g>
			<line class="st10" x1="104.9" y1="103.9" x2="365.5" y2="103.9"/>
			<polygon points="364.4,107.6 370.9,103.9 364.4,100.1 			"/>
		</g>
		<g>
			<line class="st10" x1="110.3" y1="140" x2="370.9" y2="140"/>
			<polygon points="111.4,143.8 105,140 111.4,136.3 			"/>
		</g>
		
			<use xlink:href="#New_Symbol_44"  width="20" height="20" x="-10" y="-10" transform="matrix(1 0 0 1 164.14 139.57)" style="overflow:visible;"/>
		
			<use xlink:href="#New_Symbol_43"  width="20" height="20" x="-10" y="-10" transform="matrix(1 0 0 1 164.14 103.88)" style="overflow:visible;"/>
		
			<use xlink:href="#New_Symbol_42"  width="20" height="20" x="-10" y="-10" transform="matrix(1 0 0 1 164.14 44.45)" style="overflow:visible;"/>
		
			<use xlink:href="#New_Symbol_41"  width="20" height="20" x="-10" y="-10" transform="matrix(1 0 0 1 164.14 14.57)" style="overflow:visible;"/>
		<polygon class="st11" points="187.1,26.6 179.5,32 182.4,40.8 191.8,40.8 194.6,32 		"/>
	</g>
	<g id="Text_1_">
		<g>
			<polygon class="st11" points="187.1,85.1 179.5,90.6 182.4,99.4 191.8,99.4 194.6,90.6 			"/>
		</g>
	</g>
</g>
<g id="txt">
	<g>
		<rect x="13.5" y="90.4" class="st13" width="74.4" height="53.2"/>
		<path class="st14" d="M15.4,99.3c0-0.2,0.1-0.4,0.3-0.6s0.4-0.2,0.6-0.2c0.2,0,0.4,0.1,0.6,0.2s0.3,0.4,0.3,0.6
			c0,0.2-0.1,0.4-0.2,0.6s-0.4,0.2-0.6,0.2c-0.2,0-0.4-0.1-0.6-0.2S15.4,99.5,15.4,99.3z"/>
		<path class="st14" d="M26.6,100H25l-4.3-6.7c-0.2-0.2-0.3-0.5-0.4-0.6h0c0,0.2,0.1,0.7,0.1,1.3v6H19v-9.1h1.7l4.2,6.6
			c0.2,0.3,0.3,0.5,0.4,0.7h0c0-0.3-0.1-0.7-0.1-1.3v-5.9h1.4V100z"/>
		<path class="st14" d="M33.9,100h-5v-9.1h4.8v1.2h-3.4v2.7h3.2V96h-3.2v2.8h3.6V100z"/>
		<path class="st14" d="M41.3,92.1h-2.6v7.9h-1.4v-7.9h-2.6v-1.2h6.6V92.1z"/>
		<path class="st14" d="M51.9,99.6c-0.7,0.3-1.5,0.5-2.5,0.5c-1.3,0-2.4-0.4-3.2-1.2S45,97,45,95.6c0-1.4,0.4-2.6,1.3-3.5
			s2-1.4,3.4-1.4c0.9,0,1.6,0.1,2.2,0.4v1.4c-0.6-0.4-1.3-0.5-2.1-0.5c-1,0-1.8,0.3-2.4,1s-0.9,1.5-0.9,2.6c0,1,0.3,1.8,0.8,2.4
			s1.3,0.9,2.3,0.9c0.9,0,1.6-0.2,2.3-0.6V99.6z"/>
		<path class="st14" d="M53.1,96.8c0-1.1,0.3-1.9,0.9-2.5s1.4-0.9,2.5-0.9c1,0,1.8,0.3,2.3,0.9s0.9,1.4,0.9,2.4c0,1-0.3,1.9-0.9,2.5
			s-1.4,0.9-2.4,0.9c-1,0-1.8-0.3-2.4-0.9S53.1,97.8,53.1,96.8z M54.5,96.8c0,0.7,0.2,1.3,0.5,1.7s0.8,0.6,1.4,0.6
			c1.2,0,1.9-0.8,1.9-2.3c0-0.7-0.2-1.3-0.5-1.7s-0.8-0.6-1.4-0.6s-1.1,0.2-1.4,0.6S54.5,96,54.5,96.8z"/>
		<path class="st14" d="M64.9,94.8c-0.2-0.1-0.5-0.2-0.8-0.2c-0.4,0-0.8,0.2-1.1,0.6s-0.4,0.9-0.4,1.6v3.2h-1.4v-6.5h1.4v1.3h0
			c0.3-0.9,0.9-1.4,1.7-1.4c0.2,0,0.4,0,0.6,0.1V94.8z"/>
		<path class="st14" d="M71.2,97.1h-4.5c0.1,1.3,0.7,2,2,2c0.7,0,1.4-0.2,2-0.6v1.1c-0.6,0.4-1.3,0.6-2.3,0.6c-1,0-1.7-0.3-2.3-0.9
			s-0.8-1.4-0.8-2.5c0-1,0.3-1.8,0.9-2.5s1.3-1,2.2-1c0.9,0,1.6,0.3,2,0.8s0.7,1.3,0.7,2.3V97.1z M69.9,96.1c0-0.6-0.1-1-0.4-1.3
			s-0.6-0.4-1.1-0.4c-0.4,0-0.8,0.2-1.1,0.5s-0.5,0.7-0.6,1.3H69.9z"/>
		<path class="st14" d="M78.1,90.3l-0.7,2.4v7.8h-1V95c-0.2,0.3-0.4,0.6-0.6,0.9l-0.5-1.2c0.7-1.1,1.3-2.6,1.8-4.6L78.1,90.3z
			 M86,98.5h-1.4v1c0,0.2-0.1,0.4-0.2,0.6s-0.2,0.3-0.4,0.3s-0.5,0.1-0.9,0.1c-0.2,0-0.4,0-0.6,0l-0.4-1c0.2,0,0.4,0,0.6,0
			c0.4,0,0.6,0,0.7,0s0.2-0.1,0.2-0.2v-0.8H78v-0.9h5.5v-0.4h1.1v0.4H86V98.5z M86.1,96.8l-0.9,0.4l-0.3-0.4
			c-2.7,0.2-4.9,0.3-6.6,0.3l-0.2-0.9c1.1,0,2.2,0,3.4,0v-0.7h-3V92h3v-0.5h-3.2v-0.9h3.2V90h1v0.6h3.4v0.9h-3.4V92h2.9v3.5h-0.5
			C85.4,96,85.8,96.5,86.1,96.8z M81.7,99.7l-0.7,0.7c-0.6-0.4-1.2-0.8-1.9-1l0.7-0.8C80.6,99,81.2,99.3,81.7,99.7z M81.4,93.4v-0.5
			h-1.9v0.5H81.4z M81.4,94.7v-0.5h-1.9v0.5H81.4z M84.4,93.4v-0.5h-1.9v0.5H84.4z M84.4,94.7v-0.5h-1.9v0.5H84.4z M84.5,95.5h-2
			v0.6c0.8,0,1.4,0,1.6-0.1c-0.1-0.1-0.2-0.2-0.3-0.2L84.5,95.5z"/>
		<path class="st14" d="M17,112.2c-0.2,1.2-0.4,2.2-0.8,2.9l-0.9-0.4c0.4-0.7,0.6-1.6,0.8-2.6L17,112.2z M19.9,111.4l-0.9,0.3
			c0,0,0-0.3-0.1-0.6c-1.1,0.3-2.1,0.5-3.2,0.7l-0.2-0.8c0.7-0.6,1.4-1.4,2.2-2.5c-0.6,0.1-1.3,0.2-1.9,0.2l-0.1-0.7
			c0.9-1,1.6-2.2,2.1-3.6l1,0.4c-0.5,1.2-1.1,2.2-1.7,3c0.4,0,0.8-0.1,1.1-0.1c0.2-0.4,0.4-0.7,0.6-1.1l0.9,0.5
			c-0.8,1.5-1.7,2.7-2.5,3.6c0.5-0.1,1-0.2,1.4-0.4c-0.1-0.2-0.1-0.4-0.2-0.5l0.8-0.4C19.6,110,19.8,110.7,19.9,111.4z M18.6,114.6
			l-0.9,0.2c0-0.8-0.1-1.6-0.3-2.6l0.8-0.2C18.4,112.9,18.6,113.8,18.6,114.6z M20,113.5l-0.8,0.3c-0.1-0.7-0.3-1.3-0.5-1.7l0.8-0.3
			C19.7,112.3,19.9,112.9,20,113.5z M26.1,112.1c-0.1,1.3-0.1,1.9-0.2,2.1s-0.2,0.3-0.4,0.4s-0.6,0.2-1.2,0.2
			c-0.5,0-0.9-0.1-1.1-0.2s-0.3-0.5-0.3-1v-4c-0.4,0.1-0.7,0.1-0.9,0.1c0,0.9,0,1.6-0.1,2.2s-0.3,1.2-0.6,1.7s-0.7,1-1.3,1.5
			l-0.8-0.7c0.3-0.2,0.7-0.6,1-1s0.5-0.9,0.6-1.4s0.2-1.2,0.2-2.2L20,110l-0.2-0.8c0.7-0.8,1.2-1.7,1.7-2.6h-1.8v-1h2.2
			c0.1-0.2,0.2-0.6,0.4-1.1l1.1,0.2c-0.1,0.4-0.3,0.7-0.4,0.9h3v1h-3.4c-0.3,0.8-0.8,1.5-1.4,2.3c1-0.1,2-0.2,2.8-0.3
			c-0.1-0.2-0.4-0.5-0.6-0.8l0.8-0.6c0.8,1,1.4,1.8,1.8,2.5l-0.9,0.6c-0.2-0.4-0.4-0.7-0.6-0.9l-0.6,0.1v4.2c0,0.2,0.2,0.3,0.5,0.3
			c0.3,0,0.5-0.1,0.5-0.3s0.1-0.8,0.1-1.8L26.1,112.1z"/>
		<path class="st14" d="M38,114.7H27.6v-0.9h4.7v-1.1h-3.9v-1h3.9v-0.8h1.1v0.8h4v1h-4v1.1H38V114.7z M34,108.2h-1.4v2.4h-1v-2.4
			h-1.3c-0.1,1.1-0.6,2-1.5,2.9l-0.7-0.7c0.7-0.7,1.2-1.4,1.3-2.1h-1.5v-0.9h1.6v-1.6h-1.4v-1h5.9v1h-1.3v1.6H34V108.2z M31.5,107.2
			v-1.6h-1.2v1.6H31.5z M35.5,109.1h-1v-4.1h1V109.1z M37.6,109.9c0,0.3-0.1,0.5-0.3,0.7s-0.5,0.3-0.8,0.3h-1.5l-0.3-1
			c0.3,0,0.6,0,0.8,0c0.6,0,0.9,0,1-0.1s0.1-0.1,0.1-0.3v-5.1h1V109.9z"/>
		<path class="st14" d="M50,106.1h-8.7v2.5c0.6-0.6,1.2-1.4,1.6-2.4l1,0.2c-0.2,0.5-0.5,1-0.8,1.5v3.8h-1v-2.5l-0.4,0.4l-0.4-1v2.5
			c0,1.4-0.3,2.7-0.9,3.8l-0.9-0.7c0.5-0.9,0.7-2.2,0.7-3.7v-5.5h4.2c-0.1-0.1-0.2-0.3-0.3-0.6l1.2-0.2c0.2,0.3,0.3,0.5,0.4,0.8H50
			V106.1z M43.2,112.4c-0.3,0.8-0.7,1.6-1.2,2.3l-0.9-0.6c0.5-0.7,0.9-1.4,1.1-2.1L43.2,112.4z M49.9,111.7H44v-2.4
			c-0.1,0.1-0.2,0.2-0.3,0.3l-0.4-1c0.7-0.7,1.2-1.5,1.6-2.4l1,0.3c-0.1,0.2-0.2,0.4-0.3,0.6h1.2c-0.1-0.2-0.2-0.4-0.3-0.6l1.1-0.2
			c0.1,0.2,0.3,0.5,0.4,0.8h1.9v0.8h-2.1v0.5h2v0.7h-2v0.5h2v0.8h-2v0.5h2.2V111.7z M48.2,113.5c-0.1,0.9-0.5,1.4-1.2,1.4l-2.4,0
			c-0.6,0-1-0.3-1-0.9v-1.8h1v1.5c0,0.1,0,0.2,0.1,0.2s0.4,0.1,0.9,0.1c0.8,0,1.2,0,1.3-0.1s0.1-0.2,0.2-0.3s0.1-0.3,0.1-0.4
			L48.2,113.5z M46.7,108.4v-0.5H45L45,108v0.4H46.7z M46.7,109.6v-0.5H45v0.5H46.7z M46.7,110.9v-0.5H45v0.5H46.7z M47,113.1
			l-0.9,0.4c-0.2-0.4-0.5-0.8-0.9-1.3l0.9-0.4C46.4,112.2,46.7,112.6,47,113.1z M50.1,114l-0.9,0.5c-0.4-0.7-0.8-1.3-1.4-2l0.9-0.5
			C49.1,112.5,49.6,113.1,50.1,114z"/>
		<path class="st14" d="M61.4,113.8c0,0.3-0.1,0.6-0.4,0.8s-0.6,0.4-1.2,0.4c-0.3,0-0.5,0-0.8,0l-0.3-1.1l1.3,0c0.1,0,0.2,0,0.3-0.1
			s0.1-0.2,0.1-0.3v-2.2h-3v3.4h-1v-3.4h-2.9c-0.1,1.5-0.5,2.8-1.1,3.7l-0.9-0.6c0.3-0.5,0.6-1.2,0.8-2s0.3-1.6,0.3-2.4v-5.3h8.9
			V113.8z M56.4,107.5v-1.7h-2.8v1.7H56.4z M56.4,110.3v-1.8h-2.8v1.8H56.4z M60.4,107.5v-1.7h-3v1.7H60.4z M60.4,110.3v-1.8h-3v1.8
			H60.4z"/>
		<path class="st14" d="M67.8,110.5l-0.7,0.7c-0.2-0.4-0.4-0.8-0.7-1.2v5h-1v-4.3c-0.3,0.6-0.7,1.3-1.2,2l-0.6-1
			c0.7-0.8,1.3-1.9,1.8-3.2h-1.7v-1h1.8v-1.5c-0.6,0.1-1,0.2-1.3,0.2l-0.4-0.9c1.4-0.1,2.6-0.4,3.5-0.8l0.5,0.9
			c-0.4,0.2-0.8,0.3-1.2,0.4v1.7h1.3v1h-1.3v0.3C67,109.3,67.4,109.9,67.8,110.5z M74,114.8h-6.8v-1h2.9v-1.5h-2.5v-1h2.5v-1.2
			c-1,0.1-1.7,0.1-2.2,0.1l-0.4-0.9c2.3-0.1,4.2-0.3,5.8-0.6l0.4,0.9c-0.9,0.2-1.8,0.4-2.6,0.4v1.3h2.5v1h-2.5v1.5H74V114.8z
			 M73.4,108.4h-5.3v-3.6h5.3V108.4z M72.3,107.4v-1.6h-3.1v1.6H72.3z"/>
		<path class="st14" d="M86,112.4c-0.1,1.7-0.6,2.6-1.5,2.6c-0.7,0-1.4-0.7-1.9-2.1s-0.8-3.2-0.9-5.5h-6.1v-1h6.1c0-0.8-0.1-1.5,0-2
			h1.1c0,0.5,0,1.1,0,2H86v1h-3.2c0,2.3,0.3,3.9,0.7,4.9s0.8,1.5,1,1.5c0.2,0,0.4-0.7,0.5-2.1L86,112.4z M81.6,113.1
			c-2.2,0.6-4.1,0.9-5.6,1.1l-0.2-1c0.7-0.1,1.5-0.2,2.3-0.4v-3.2h-1.9v-1h5.1v1h-2.1v2.9c1-0.2,1.8-0.4,2.4-0.6L81.6,113.1z
			 M85.7,105.6l-0.8,0.7c-0.5-0.5-1-0.8-1.5-1l0.8-0.7C84.8,104.9,85.3,105.2,85.7,105.6z"/>
		<path class="st14" d="M25.4,130.8c-1.3-1.5-2-3.3-2-5.5c0-2.2,0.7-4,2-5.6h1.2c-1.3,1.6-2,3.5-2,5.6c0,2.1,0.7,3.9,2,5.5H25.4z"/>
		<path class="st14" d="M32.1,124.5c0,2.5-1,4.1-3.1,5l-0.6-0.9c1.4-0.5,2.2-1.3,2.4-2.4c-1.3,0.4-2.2,0.6-3,0.7l-0.3-1
			c1.5-0.3,2.7-0.6,3.5-0.9v-1h-3.1v-1H31v-1.5h-3.3v-1H31v-1.5h1.1V124.5z M38,126.7h-3.4v2.7h-1.1v-10.4h1.1v1.5h3.2v1h-3.2v1.6h3
			v1h-3v1.6H38V126.7z"/>
		<path class="st14" d="M50,129.1H39.5v-1h6.8l0.3-1.6h-5.9l1.9-6.2h-2.9v-1.1h10.2v1.1h-6.1l-0.5,1.5h5.4l-1.2,6.3H50V129.1z
			 M47.3,122.8H43l-0.8,2.6h4.6L47.3,122.8z"/>
		<path class="st14" d="M57.4,121.7H55v0.7h2.1v3.5H55v0.7h2.1v0.8H55v0.8c0.8-0.1,1.5-0.2,2.1-0.3l0,0.9c-1.7,0.3-3.6,0.5-5.5,0.7
			l-0.2-0.9l2.6-0.3v-0.9H52v-0.8h2.1v-0.7H52v-3.5h2.1v-0.7h-2.4v-0.9h2.4v-0.7c-0.5,0.1-1.1,0.1-1.9,0.2l-0.3-0.8
			c1.8-0.1,3.5-0.3,4.9-0.6l0.4,0.8c-0.6,0.1-1.3,0.3-2.2,0.4v0.8h2.3V121.7z M54.1,123.7v-0.6H53v0.6H54.1z M54.1,125.1v-0.6H53
			v0.6H54.1z M56.1,123.7v-0.6H55v0.6H56.1z M56.1,125.1v-0.6H55v0.6H56.1z M61.8,121.1c0,1.7,0,3.3-0.1,4.8s-0.1,2.4-0.2,2.7
			s-0.2,0.4-0.4,0.6s-0.5,0.2-1,0.2c-0.2,0-0.4,0-0.6,0l-0.3-1c0.3,0,0.5,0,0.7,0c0.3,0,0.6,0,0.6-0.1s0.1-0.8,0.2-2.1
			s0.1-2.7,0.1-4h-1c0,2.9-0.6,5.4-1.6,7.3l-0.9-0.5c1.1-1.9,1.6-4.2,1.5-6.8h-1v-1h1.1c0-1,0-1.7,0-2.2h1c0,0.8,0,1.5,0,2.2H61.8z"
			/>
		<path class="st14" d="M74,126.8c-0.1,1.7-0.6,2.6-1.5,2.6c-0.7,0-1.4-0.7-1.9-2.1s-0.8-3.2-0.9-5.5h-6.1v-1h6.1c0-0.8-0.1-1.5,0-2
			h1.1c0,0.5,0,1.1,0,2H74v1h-3.2c0,2.3,0.3,3.9,0.7,4.9s0.8,1.5,1,1.5c0.2,0,0.4-0.7,0.5-2.1L74,126.8z M69.6,127.5
			c-2.2,0.6-4.1,0.9-5.6,1.1l-0.2-1c0.7-0.1,1.5-0.2,2.3-0.4v-3.2h-1.9v-1h5.1v1h-2.1v2.9c1-0.2,1.8-0.4,2.4-0.6L69.6,127.5z
			 M73.7,120l-0.8,0.7c-0.5-0.5-1-0.8-1.5-1l0.8-0.7C72.8,119.3,73.3,119.6,73.7,120z"/>
		<path class="st14" d="M74.9,130.8c1.3-1.6,2-3.4,2-5.5c0-2.1-0.7-4-2-5.6H76c1.3,1.6,2,3.4,2,5.6c0,2.2-0.7,4-2,5.5H74.9z"/>
	</g>
	<g>
		<g>
			<path class="st15" d="M207.8,85.5h-1v-4.2h-4.8v4.2h-1v-9.1h1v4h4.8v-4h1V85.5z"/>
			<path class="st15" d="M215.5,77.4h-2.6v8.2h-1v-8.2h-2.6v-0.9h6.2V77.4z"/>
			<path class="st15" d="M222.4,77.4h-2.6v8.2h-1v-8.2h-2.6v-0.9h6.2V77.4z"/>
			<path class="st15" d="M224.8,82.1v3.4h-1v-9.1h2.4c0.9,0,1.7,0.2,2.2,0.7s0.8,1.1,0.8,2c0,0.9-0.3,1.6-0.9,2.2s-1.4,0.8-2.3,0.8
				H224.8z M224.8,77.4v3.8h1.1c0.7,0,1.3-0.2,1.7-0.5s0.6-0.8,0.6-1.4c0-1.2-0.7-1.8-2.2-1.8H224.8z"/>
			<path class="st15" d="M240.6,84.9c-0.9,0.5-1.9,0.8-3,0.8c-1.3,0-2.3-0.4-3.1-1.3s-1.2-1.9-1.2-3.3c0-1.4,0.4-2.5,1.3-3.5
				s2-1.4,3.4-1.4c1,0,1.8,0.2,2.5,0.5v1.1c-0.7-0.5-1.6-0.7-2.6-0.7c-1,0-1.9,0.4-2.5,1.1s-1,1.6-1,2.8c0,1.2,0.3,2.1,0.9,2.7
				s1.4,1,2.5,1c0.7,0,1.4-0.1,1.9-0.4v-2.6h-2v-0.9h3V84.9z"/>
			<path class="st15" d="M247.4,85.5h-4.8v-9.1h4.6v0.9h-3.6v3.1h3.3v0.9h-3.3v3.2h3.8V85.5z"/>
			<path class="st15" d="M254.4,77.4h-2.6v8.2h-1v-8.2h-2.6v-0.9h6.2V77.4z"/>
			<path class="st15" d="M264.9,82.2h-2.6v2.6h-0.8v-2.6H259v-0.8h2.6v-2.6h0.8v2.6h2.6V82.2z"/>
			<path class="st15" d="M211.2,91.8h-6.2c-0.4,0.9-1,1.7-1.6,2.5v6h-0.7v-5.2c-0.6,0.6-1.2,1.1-1.7,1.4l-0.2-0.6
				c1.5-1.2,2.7-2.5,3.5-4.2h-3.5v-0.6h3.8c0.2-0.4,0.4-0.8,0.6-1.4l0.6,0.2c-0.2,0.5-0.4,0.9-0.6,1.2h5.9V91.8z M211.2,97.1h-3v2.4
				c0,0.2-0.1,0.4-0.2,0.5s-0.2,0.3-0.4,0.3s-0.5,0.1-1.1,0.1c-0.3,0-0.6,0-0.9,0l-0.3-0.6c0.3,0,0.6,0,1,0c0.6,0,1,0,1.1-0.1
				s0.2-0.1,0.2-0.2v-2.3h-3.6v-0.6h3.6v-0.9c0.6-0.4,1.2-0.9,1.9-1.6h-4.7v-0.6h5.6V94c-0.8,0.8-1.5,1.4-2.2,1.8v0.6h3V97.1z"/>
			<path class="st15" d="M218.3,90.6h-1v9.8h-0.6v-2.5c-1,0.4-2.3,0.7-3.9,1.1l-0.2-0.6l1.1-0.2v-7.6h-1.1V90h5.7V90.6z M216.7,92.5
				v-1.9h-2.4v1.9H216.7z M216.7,95v-1.9h-2.4V95H216.7z M216.7,97.3v-1.6h-2.4V98C215,97.8,215.8,97.6,216.7,97.3z M223.1,99.9
				l-0.4,0.5c-0.8-0.7-1.5-1.4-2.1-2.2c-0.7,0.9-1.5,1.6-2.3,2.2l-0.4-0.5c0.8-0.6,1.6-1.3,2.3-2.3c-1-1.7-1.6-3.7-1.8-6H218v-0.6
				h4.6c0,2.6-0.6,4.8-1.7,6.6c0.1,0.3,0.5,0.7,0.9,1.2S222.8,99.7,223.1,99.9z M222,91.7H219c0.1,2,0.6,3.8,1.5,5.4
				C221.4,95.6,221.9,93.8,222,91.7z"/>
			<path class="st15" d="M228.3,95l-0.4,0.5c-0.2-0.4-0.5-0.8-0.9-1.3v6.1h-0.6v-6.1c-0.4,1.1-0.9,2-1.4,2.8l-0.4-0.5
				c0.7-1.1,1.3-2.4,1.8-3.8h-1.6v-0.6h1.7v-2.3h0.6v2.3h1.1v0.6h-1.1v0.7C227.5,94,227.9,94.5,228.3,95z M235,99.8h-5.6v0.5h-0.6
				v-4c-0.3,0.3-0.6,0.6-0.9,0.9l-0.4-0.5c0.8-0.6,1.5-1.5,2-2.4l0.6,0.2c-0.1,0.2-0.3,0.5-0.4,0.7h2.1c-0.1-0.1-0.2-0.3-0.3-0.5
				l0.6-0.3c0.2,0.2,0.3,0.5,0.5,0.7h2.2v0.5h-2.5v0.8h2.2V97h-2.2v0.8h2.2v0.5h-2.2v0.9h2.8V99.8z M230.9,91.8h-0.6v-0.5h-2.2v-0.6
				h2.2v-0.8h0.6V91.8z M231.1,94.1h-2.6v-2h2.6V94.1z M230.6,93.6v-0.9h-1.5v0.9H230.6z M231.6,96.5v-0.8h-2.2v0.8H231.6z
				 M231.6,97.8V97h-2.2v0.8H231.6z M231.6,99.3v-0.9h-2.2v0.9H231.6z M234.6,94.1H232v-2h2.6V94.1z M235,91.3h-2.1v0.5h-0.6v-1.9
				h0.6v0.8h2.1V91.3z M234,93.6v-0.9h-1.5v0.9H234z"/>
			<path class="st15" d="M240.9,95.4l-0.4,0.5c-0.5-0.7-1-1.3-1.4-1.7v6.1h-0.6v-6c-0.5,1.2-1.1,2.2-1.7,3l-0.4-0.5
				c0.8-1,1.5-2.4,2.1-4.1h-1.9v-0.6h1.9v-2.4h0.6v2.4h1.4v0.6h-1.4v0.6C239.8,94.1,240.4,94.8,240.9,95.4z M247,99.9l-0.4,0.5
				c-1.3-0.6-2.4-1.2-3.2-2c-0.9,0.9-2,1.5-3.3,1.9l-0.4-0.6c1.4-0.4,2.5-1,3.3-1.8c-0.8-1.1-1.3-2.5-1.6-4.2l0.6-0.1
				c0.3,1.6,0.7,2.9,1.4,3.8c0.6-1,0.9-2.6,1-4.8h-3.3V92h3.4c0-0.8,0-1.5,0-2.2h0.6c0,1,0,1.7,0,2.2h1.8v0.6H245
				c0,2.4-0.4,4.2-1.1,5.3C244.6,98.7,245.7,99.4,247,99.9z"/>
		</g>
	</g>
	<g>
		<rect x="394.3" y="26" class="st13" width="59.4" height="38.9"/>
		<path class="st16" d="M405.4,35.6v-5.9c0-0.5,0-1.1,0.1-1.8h0c-0.1,0.5-0.2,0.8-0.3,1l-2.8,6.7h-0.9l-2.8-6.6
			c-0.1-0.2-0.2-0.5-0.3-1h0c0,0.5,0.1,1.2,0.1,2v5.7h-1.3v-9.1h2l2.5,6c0.2,0.5,0.3,0.9,0.4,1.2h0c0.1-0.2,0.2-0.6,0.4-1.2l2.5-6
			h1.9v9.1H405.4z"/>
		<path class="st16" d="M408.7,26.9c0-0.2,0.1-0.4,0.2-0.6s0.4-0.2,0.6-0.2c0.2,0,0.4,0.1,0.6,0.2s0.2,0.3,0.2,0.6s-0.1,0.4-0.2,0.6
			s-0.4,0.2-0.6,0.2s-0.4-0.1-0.6-0.2S408.7,27.1,408.7,26.9z M408.8,35.6v-6.5h1.4v6.5H408.8z"/>
		<path class="st16" d="M416.8,35.3c-0.5,0.3-1.1,0.4-1.8,0.4c-0.9,0-1.7-0.3-2.3-0.9s-0.9-1.4-0.9-2.3c0-1.1,0.3-1.9,0.9-2.6
			s1.5-1,2.5-1c0.6,0,1.2,0.1,1.6,0.3v1.3c-0.5-0.3-1-0.5-1.5-0.5c-0.6,0-1.1,0.2-1.5,0.6s-0.6,1-0.6,1.7c0,0.7,0.2,1.2,0.6,1.6
			s0.9,0.6,1.5,0.6c0.5,0,1.1-0.2,1.5-0.5V35.3z"/>
		<path class="st16" d="M421.9,30.4c-0.2-0.1-0.5-0.2-0.8-0.2c-0.4,0-0.8,0.2-1.1,0.6s-0.4,0.9-0.4,1.6v3.2h-1.4v-6.5h1.4v1.3h0
			c0.3-0.9,0.9-1.4,1.7-1.4c0.2,0,0.4,0,0.6,0.1V30.4z"/>
		<path class="st16" d="M422.4,32.4c0-1.1,0.3-1.9,0.9-2.5s1.4-0.9,2.5-0.9c1,0,1.8,0.3,2.3,0.9s0.9,1.4,0.9,2.4
			c0,1-0.3,1.9-0.9,2.5s-1.4,0.9-2.4,0.9c-1,0-1.8-0.3-2.4-0.9S422.4,33.4,422.4,32.4z M423.8,32.4c0,0.7,0.2,1.3,0.5,1.7
			s0.8,0.6,1.4,0.6c1.2,0,1.9-0.8,1.9-2.3c0-0.7-0.2-1.3-0.5-1.7s-0.8-0.6-1.4-0.6s-1.1,0.2-1.4,0.6S423.8,31.7,423.8,32.4z"/>
		<path class="st16" d="M430.2,34.1c0.6,0.4,1.2,0.6,1.9,0.6c0.9,0,1.3-0.3,1.3-0.8c0-0.2-0.1-0.4-0.3-0.5s-0.6-0.3-1.2-0.6
			c-0.7-0.3-1.1-0.5-1.3-0.8s-0.3-0.6-0.3-1.1c0-0.6,0.3-1.1,0.8-1.4s1.1-0.5,1.9-0.5c0.6,0,1.1,0.1,1.6,0.3v1.2
			c-0.5-0.3-1-0.5-1.7-0.5c-0.3,0-0.6,0.1-0.8,0.2s-0.3,0.3-0.3,0.6c0,0.2,0.1,0.4,0.2,0.5s0.5,0.3,1.1,0.5c0.7,0.3,1.2,0.5,1.4,0.8
			s0.4,0.7,0.4,1.1c0,0.6-0.3,1.1-0.8,1.4s-1.2,0.5-2,0.5c-0.7,0-1.3-0.1-1.8-0.4V34.1z"/>
		<path class="st16" d="M435.8,32.4c0-1.1,0.3-1.9,0.9-2.5s1.4-0.9,2.5-0.9c1,0,1.8,0.3,2.3,0.9s0.9,1.4,0.9,2.4
			c0,1-0.3,1.9-0.9,2.5s-1.4,0.9-2.4,0.9c-1,0-1.8-0.3-2.4-0.9S435.8,33.4,435.8,32.4z M437.2,32.4c0,0.7,0.2,1.3,0.5,1.7
			s0.8,0.6,1.4,0.6c1.2,0,1.9-0.8,1.9-2.3c0-0.7-0.2-1.3-0.5-1.7s-0.8-0.6-1.4-0.6s-1.1,0.2-1.4,0.6S437.2,31.7,437.2,32.4z"/>
		<path class="st16" d="M447.2,27.1c-0.2-0.1-0.5-0.2-0.7-0.2c-0.7,0-1,0.4-1,1.3v0.9h1.5v1.1h-1.5v5.4h-1.4v-5.4H443v-1.1h1.1v-1
			c0-0.7,0.2-1.3,0.6-1.7s1-0.6,1.6-0.6c0.3,0,0.6,0,0.8,0.1V27.1z"/>
		<path class="st16" d="M451.6,35.5c-0.3,0.1-0.6,0.2-1.1,0.2c-1.2,0-1.8-0.7-1.8-2v-3.5h-1.1v-1.1h1.1v-1.5l1.4-0.4v1.9h1.6v1.1
			H450v3.3c0,0.4,0.1,0.7,0.2,0.9s0.4,0.3,0.7,0.3c0.2,0,0.5-0.1,0.7-0.2V35.5z"/>
		<path class="st16" d="M411.3,44.9c-0.4,0.5-1,1-1.6,1.5v2.9c0,0.4-0.1,0.7-0.3,0.8s-0.4,0.3-0.8,0.3s-1,0.1-2.1,0.1l-0.3-1
			c0.3,0,0.7,0,1,0c0.7,0,1.1,0,1.2-0.1s0.1-0.1,0.1-0.3v-2.1c-1.6,1.2-4.1,2.3-7.4,3.3l-0.5-0.9c2.3-0.6,4.6-1.5,6.9-2.6
			c-2,0.2-4.2,0.4-6.6,0.6l-0.3-1c0.1,0,0.5,0,1.2,0v-5.3h1.5c0.3-0.3,0.5-0.6,0.8-1.1l1.1,0.2c-0.2,0.3-0.4,0.6-0.6,0.8h4.8v4.1
			c0.3-0.2,0.6-0.6,1-1L411.3,44.9z M408.6,42.8V42h-5.5v0.8H408.6z M408.6,44.4v-0.8h-5.5v0.8H408.6z M408.6,45.9v-0.6h-5.5v1.1
			C404.9,46.3,406.7,46.1,408.6,45.9z"/>
		<path class="st16" d="M417.1,40.5c-0.3,0.8-0.8,1.7-1.5,2.6s-1.4,1.7-2.2,2.2l-0.7-0.8c1.5-1,2.7-2.5,3.5-4.5L417.1,40.5z
			 M421.4,44.5c0,1.1,0,2.2-0.1,3.3s-0.2,1.8-0.3,2s-0.3,0.5-0.5,0.6s-0.5,0.2-0.8,0.2c-0.7,0-1.3,0-1.5,0l-0.4-1.1
			c0.6,0,1.1,0.1,1.8,0.1c0.1,0,0.3,0,0.4-0.1s0.2-0.6,0.3-1.5s0.1-1.7,0.1-2.5h-2.6c-0.3,2.4-1.6,4.1-3.8,5.2l-0.8-0.8
			c0.8-0.3,1.6-0.9,2.3-1.6s1.1-1.7,1.2-2.8h-1.9v-1.1H421.4z M423.3,44.5l-0.7,0.9c-1.5-1.3-2.5-2.6-3-4.1h-1.1v-1h1.8
			C420.8,42,421.8,43.4,423.3,44.5z"/>
		<path class="st16" d="M428.2,42.1h-3.4v-1h1.3c-0.1-0.3-0.2-0.6-0.4-0.9l1.1-0.3c0.1,0.2,0.3,0.6,0.5,1.2h0.9V42.1z M427.9,50.4
			h-1v-0.5H426v0.7h-1v-4.1h2.9V50.4z M428,45.7h-2.9v-0.9h2.9V45.7z M428,43.9h-2.9V43h2.9V43.9z M427,48.9v-1.4H426v1.4H427z
			 M435.3,48.5c0,0.4-0.1,0.9-0.3,1.3s-0.3,0.7-0.5,0.8s-0.3,0.1-0.4,0.1c-0.5,0-0.9-0.5-1.1-1.4c-0.5,0.6-1,1-1.4,1.3l-0.7-0.7
			c0.3-0.2,0.5-0.4,0.8-0.7h-3v-4.4h3.2v4.2c0.3-0.3,0.6-0.6,0.8-0.9c-0.1-1.1-0.2-2.4-0.2-3.8h-4.2v-0.9h0.9
			c-0.1-0.5-0.2-0.9-0.4-1.4h-0.3v-0.9h1.3c-0.1-0.2-0.2-0.5-0.4-0.8l1.1-0.3c0.2,0.3,0.3,0.7,0.4,1.1h1.2v0.9h-0.3
			c-0.1,0.5-0.2,0.9-0.4,1.4h1c0-1.7,0-2.8,0-3.3l1,0c0,0.9-0.1,2-0.1,3.3h1.7v0.9h-1.7c0,1,0,1.7,0.1,2.3c0.2-0.5,0.4-1.1,0.6-1.9
			l0.9,0.4c-0.4,1.4-0.8,2.4-1.3,3.2c0.1,0.5,0.2,0.9,0.4,1.1c0.1-0.2,0.3-0.7,0.3-1.5L435.3,48.5z M431,46.6v-0.8h-1.3v0.8H431z
			 M431,48.4v-0.9h-1.3v0.9H431z M430.9,42.1h-1c0.1,0.4,0.3,0.9,0.4,1.4h0.3C430.7,43,430.8,42.5,430.9,42.1z M435.2,42.8l-0.9,0.4
			c-0.1-0.7-0.3-1.4-0.6-2.2l0.8-0.4C434.9,41.2,435.1,41.9,435.2,42.8z"/>
		<path class="st16" d="M442.7,45.6c-0.1,2.4-0.2,3.9-0.5,4.3s-0.7,0.7-1.4,0.7c-0.3,0-0.6,0-1,0l-0.3-1c0.7,0,1.1,0,1.4,0
			c0.3,0,0.5-0.2,0.6-0.6s0.1-1.2,0.2-2.4h-2.3c-0.3,1.8-0.9,3.1-1.8,4l-0.8-0.7c1.2-1.2,1.8-3.1,1.8-5.7h-1v-4h5.2v4h-3.1
			c0,0.5,0,0.9-0.1,1.3H442.7z M441.6,43.3v-1.9h-3v1.9H441.6z M444.7,48.4h-1.1V41h1.1V48.4z M446.9,49.2c0,0.6-0.1,0.9-0.3,1.1
			s-0.6,0.3-1,0.3c-0.6,0-1,0-1.3,0l-0.3-1c0.4,0,0.9,0,1.5,0c0.1,0,0.2,0,0.3-0.1s0.1-0.2,0.1-0.3v-9h1.1V49.2z"/>
		<path class="st16" d="M423.2,61.3h-4.7v3.7h-1.1v-3.7h-4.7v-1.1h4.7v-4.3h-4.4v-1.1h9.9v1.1h-4.4v4.3h4.7V61.3z M416.2,59.3
			l-1,0.5c-0.3-0.9-0.9-1.8-1.5-2.8l1-0.5C415.2,57.3,415.7,58.3,416.2,59.3z M422.4,57c-0.5,1.1-1.1,2.1-1.7,2.8l-1-0.5
			c0.6-0.7,1.1-1.6,1.7-2.8L422.4,57z"/>
		<path class="st16" d="M435.3,58.9l-0.9,0.7c-0.2-0.4-0.5-0.7-0.7-1.1c-3.1,0.4-5.9,0.6-8.6,0.7l-0.3-1c1.1-0.4,2.4-1.6,3.7-3.8
			l1.2,0.2c-0.8,1.3-1.7,2.4-2.8,3.4c1.6-0.1,3.5-0.2,5.9-0.5c-0.5-0.5-1.1-1.1-1.8-1.7l0.9-0.7C433.4,56.5,434.5,57.7,435.3,58.9z
			 M434.3,65h-1.1v-0.5h-6.3V65h-1.1v-5h8.5V65z M433.2,63.4v-2.3h-6.3v2.3H433.2z"/>
	</g>
	<g>
		<rect x="391.3" y="109.2" class="st13" width="64.5" height="30.5"/>
		<path class="st17" d="M405,118.8v-5.9c0-0.5,0-1.1,0.1-1.8h0c-0.1,0.5-0.2,0.8-0.3,1l-2.8,6.7h-0.9l-2.8-6.6
			c-0.1-0.2-0.2-0.5-0.3-1h0c0,0.5,0.1,1.2,0.1,2v5.7h-1.3v-9.1h2l2.5,6c0.2,0.5,0.3,0.9,0.4,1.2h0c0.1-0.2,0.2-0.6,0.4-1.2l2.5-6
			h1.9v9.1H405z"/>
		<path class="st17" d="M408.3,110.1c0-0.2,0.1-0.4,0.2-0.6s0.4-0.2,0.6-0.2c0.2,0,0.4,0.1,0.6,0.2s0.2,0.3,0.2,0.6
			s-0.1,0.4-0.2,0.6s-0.4,0.2-0.6,0.2s-0.4-0.1-0.6-0.2S408.3,110.3,408.3,110.1z M408.5,118.8v-6.5h1.4v6.5H408.5z"/>
		<path class="st17" d="M416.4,118.5c-0.5,0.3-1.1,0.4-1.8,0.4c-0.9,0-1.7-0.3-2.3-0.9s-0.9-1.4-0.9-2.3c0-1.1,0.3-1.9,0.9-2.6
			s1.5-1,2.5-1c0.6,0,1.2,0.1,1.6,0.3v1.3c-0.5-0.3-1-0.5-1.5-0.5c-0.6,0-1.1,0.2-1.5,0.6s-0.6,1-0.6,1.7c0,0.7,0.2,1.2,0.6,1.6
			s0.9,0.6,1.5,0.6c0.5,0,1.1-0.2,1.5-0.5V118.5z"/>
		<path class="st17" d="M421.6,113.6c-0.2-0.1-0.5-0.2-0.8-0.2c-0.4,0-0.8,0.2-1.1,0.6s-0.4,0.9-0.4,1.6v3.2h-1.4v-6.5h1.4v1.3h0
			c0.3-0.9,0.9-1.4,1.7-1.4c0.2,0,0.4,0,0.6,0.1V113.6z"/>
		<path class="st17" d="M422,115.6c0-1.1,0.3-1.9,0.9-2.5s1.4-0.9,2.5-0.9c1,0,1.8,0.3,2.3,0.9s0.9,1.4,0.9,2.4c0,1-0.3,1.9-0.9,2.5
			s-1.4,0.9-2.4,0.9c-1,0-1.8-0.3-2.4-0.9S422,116.6,422,115.6z M423.4,115.6c0,0.7,0.2,1.3,0.5,1.7s0.8,0.6,1.4,0.6
			c1.2,0,1.9-0.8,1.9-2.3c0-0.7-0.2-1.3-0.5-1.7s-0.8-0.6-1.4-0.6s-1.1,0.2-1.4,0.6S423.4,114.8,423.4,115.6z"/>
		<path class="st17" d="M429.8,117.3c0.6,0.4,1.2,0.6,1.9,0.6c0.9,0,1.3-0.3,1.3-0.8c0-0.2-0.1-0.4-0.3-0.5s-0.6-0.3-1.2-0.6
			c-0.7-0.3-1.1-0.5-1.3-0.8s-0.3-0.6-0.3-1.1c0-0.6,0.3-1.1,0.8-1.4s1.1-0.5,1.9-0.5c0.6,0,1.1,0.1,1.6,0.3v1.2
			c-0.5-0.3-1-0.5-1.7-0.5c-0.3,0-0.6,0.1-0.8,0.2s-0.3,0.3-0.3,0.6c0,0.2,0.1,0.4,0.2,0.5s0.5,0.3,1.1,0.5c0.7,0.3,1.2,0.5,1.4,0.8
			s0.4,0.7,0.4,1.1c0,0.6-0.3,1.1-0.8,1.4s-1.2,0.5-2,0.5c-0.7,0-1.3-0.1-1.8-0.4V117.3z"/>
		<path class="st17" d="M435.4,115.6c0-1.1,0.3-1.9,0.9-2.5s1.4-0.9,2.5-0.9c1,0,1.8,0.3,2.3,0.9s0.9,1.4,0.9,2.4
			c0,1-0.3,1.9-0.9,2.5s-1.4,0.9-2.4,0.9c-1,0-1.8-0.3-2.4-0.9S435.4,116.6,435.4,115.6z M436.8,115.6c0,0.7,0.2,1.3,0.5,1.7
			s0.8,0.6,1.4,0.6c1.2,0,1.9-0.8,1.9-2.3c0-0.7-0.2-1.3-0.5-1.7s-0.8-0.6-1.4-0.6s-1.1,0.2-1.4,0.6S436.8,114.8,436.8,115.6z"/>
		<path class="st17" d="M446.9,110.3c-0.2-0.1-0.5-0.2-0.7-0.2c-0.7,0-1,0.4-1,1.3v0.9h1.5v1.1h-1.5v5.4h-1.4v-5.4h-1.1v-1.1h1.1v-1
			c0-0.7,0.2-1.3,0.6-1.7s1-0.6,1.6-0.6c0.3,0,0.6,0,0.8,0.1V110.3z"/>
		<path class="st17" d="M451.2,118.7c-0.3,0.1-0.6,0.2-1.1,0.2c-1.2,0-1.8-0.7-1.8-2v-3.5h-1.1v-1.1h1.1v-1.5l1.4-0.4v1.9h1.6v1.1
			h-1.6v3.3c0,0.4,0.1,0.7,0.2,0.9s0.4,0.3,0.7,0.3c0.2,0,0.5-0.1,0.7-0.2V118.7z"/>
		<path class="st17" d="M402.5,132.7c-0.9,0.5-2,0.8-3.1,0.8c-1.4,0-2.4-0.4-3.3-1.2s-1.2-1.9-1.2-3.3c0-1.4,0.4-2.6,1.3-3.5
			s2.1-1.4,3.5-1.4c1,0,1.8,0.2,2.5,0.5v1.4c-0.7-0.4-1.6-0.7-2.6-0.7c-1,0-1.7,0.3-2.3,1s-0.9,1.5-0.9,2.5c0,1.1,0.3,1.9,0.8,2.5
			s1.3,0.9,2.3,0.9c0.6,0,1.2-0.1,1.6-0.4v-2.3h-1.9v-1.2h3.3V132.7z"/>
		<path class="st17" d="M408,128.1c-0.2-0.1-0.5-0.2-0.8-0.2c-0.4,0-0.8,0.2-1.1,0.6s-0.4,0.9-0.4,1.6v3.2h-1.4v-6.5h1.4v1.3h0
			c0.3-0.9,0.9-1.4,1.7-1.4c0.2,0,0.4,0,0.6,0.1V128.1z"/>
		<path class="st17" d="M409.2,127.2c0.7-0.4,1.4-0.6,2.3-0.6c1.6,0,2.5,0.8,2.5,2.5v4.1h-1.3v-1h0c-0.4,0.8-1.1,1.1-2,1.1
			c-0.6,0-1.1-0.2-1.5-0.5s-0.5-0.8-0.5-1.4c0-1.2,0.7-1.9,2.2-2.1l1.9-0.3c0-1-0.4-1.4-1.3-1.4c-0.8,0-1.5,0.3-2.1,0.8V127.2z
			 M411.2,130.3c-0.5,0.1-0.8,0.2-1,0.4s-0.3,0.4-0.3,0.8c0,0.3,0.1,0.5,0.3,0.7s0.5,0.3,0.8,0.3c0.5,0,0.8-0.2,1.1-0.5
			s0.5-0.7,0.5-1.2v-0.6L411.2,130.3z"/>
		<path class="st17" d="M417.1,132.4v3.9h-1.4v-9.5h1.4v1.1h0c0.5-0.8,1.2-1.2,2.2-1.2c0.8,0,1.5,0.3,1.9,0.9s0.7,1.4,0.7,2.3
			c0,1.1-0.3,1.9-0.8,2.6s-1.3,1-2.2,1C418.2,133.4,417.6,133.1,417.1,132.4L417.1,132.4z M417.1,130.5c0,0.5,0.2,0.9,0.5,1.3
			s0.7,0.5,1.2,0.5c0.6,0,1-0.2,1.3-0.7s0.5-1,0.5-1.8c0-0.7-0.1-1.2-0.4-1.5s-0.7-0.5-1.2-0.5s-1,0.2-1.3,0.6s-0.5,0.9-0.5,1.5
			V130.5z"/>
		<path class="st17" d="M429.2,133.3h-1.4v-3.7c0-1.2-0.4-1.8-1.3-1.8c-0.5,0-0.8,0.2-1.1,0.5s-0.5,0.8-0.5,1.3v3.7h-1.4v-9.6h1.4
			v4.1h0c0.5-0.8,1.2-1.2,2.1-1.2c1.5,0,2.2,0.9,2.2,2.6V133.3z"/>
		<path class="st17" d="M441.5,133.3H440l-0.8-2.4h-3.6l-0.8,2.4h-1.5l3.4-9.1h1.6L441.5,133.3z M438.8,129.7l-1.3-3.6
			c0-0.1-0.1-0.4-0.1-0.7h0c0,0.3-0.1,0.5-0.1,0.7l-1.3,3.6H438.8z"/>
		<path class="st17" d="M444.2,129.9v3.3h-1.4v-9.1h2.7c1,0,1.8,0.2,2.4,0.7s0.8,1.2,0.8,2.1c0,0.9-0.3,1.6-1,2.2s-1.5,0.8-2.4,0.8
			H444.2z M444.2,125.4v3.4h1c1.4,0,2-0.6,2-1.7c0-1.1-0.7-1.7-2-1.7H444.2z"/>
		<path class="st17" d="M451.7,125.3L451.7,125.3v6.8v0v1.1h-1.4v-1.1v0v-6.8v0v-1.1h1.4V125.3z"/>
	</g>
	<g>
		<path class="st15" d="M185.7,0.8h-1v9.8h-0.6V8.1c-1,0.4-2.3,0.7-3.9,1.1L180,8.6l1.1-0.2V0.8H180V0.2h5.7V0.8z M184.1,2.7V0.8
			h-2.4v1.9H184.1z M184.1,5.2V3.3h-2.4v1.9H184.1z M184.1,7.5V5.8h-2.4v2.4C182.4,8,183.2,7.8,184.1,7.5z M190.5,10l-0.4,0.5
			c-0.8-0.7-1.5-1.4-2.1-2.2c-0.7,0.9-1.5,1.6-2.3,2.2l-0.4-0.5c0.8-0.6,1.6-1.3,2.3-2.3c-1-1.7-1.6-3.7-1.8-6h-0.4V1.2h4.6
			c0,2.6-0.6,4.8-1.7,6.6c0.1,0.3,0.5,0.7,0.9,1.2S190.1,9.8,190.5,10z M189.4,1.8h-2.9c0.1,2,0.6,3.8,1.5,5.4
			C188.8,5.7,189.3,3.9,189.4,1.8z"/>
		<path class="st15" d="M195,2.8c-0.2,0.4-0.5,1-0.9,1.7v6h-0.6V5.3c-0.4,0.5-0.8,1-1.2,1.3l-0.4-0.5c1.1-1,2-2.2,2.6-3.6L195,2.8z
			 M194.9,0.2c-0.7,1.2-1.5,2.1-2.5,2.7L192,2.4c0.9-0.5,1.7-1.3,2.4-2.5L194.9,0.2z M202.4,7.2h-1.5v2.4c0,0.3-0.1,0.6-0.3,0.7
			s-0.6,0.2-1.3,0.2c-0.2,0-0.5,0-0.7,0l-0.2-0.6c0.2,0,0.5,0,0.8,0c0.5,0,0.9,0,1-0.1s0.1-0.2,0.1-0.3V7.2h-5.3V6.6h5.3V5.4h-5.1
			V4.9h6.9v0.6h-1.2v1.2h1.5V7.2z M201.6,4h-5.8V0.3h5.8V4z M198,9.3l-0.6,0.3c-0.2-0.5-0.7-1.2-1.3-1.9l0.5-0.3
			C197.2,8,197.6,8.7,198,9.3z M201,1.8v-1h-4.6v1H201z M201,3.4v-1h-4.6v1H201z"/>
		<path class="st15" d="M207.5,5.2l-0.4,0.5c-0.2-0.4-0.5-0.8-0.9-1.3v6.1h-0.6V4.4c-0.4,1.1-0.9,2-1.4,2.8l-0.4-0.5
			c0.7-1.1,1.3-2.4,1.8-3.8h-1.6V2.3h1.7V0h0.6v2.3h1.1v0.6h-1.1v0.7C206.8,4.2,207.2,4.7,207.5,5.2z M214.3,10h-5.6v0.5h-0.6v-4
			c-0.3,0.3-0.6,0.6-0.9,0.9l-0.4-0.5c0.8-0.6,1.5-1.5,2-2.4l0.6,0.2c-0.1,0.2-0.3,0.5-0.4,0.7h2.1c-0.1-0.1-0.2-0.3-0.3-0.5
			l0.6-0.3c0.2,0.2,0.3,0.5,0.5,0.7h2.2v0.5h-2.5v0.8h2.2v0.5h-2.2V8h2.2v0.5h-2.2v0.9h2.8V10z M210.2,2h-0.6V1.4h-2.2V0.9h2.2V0.1
			h0.6V2z M210.4,4.3h-2.6v-2h2.6V4.3z M209.9,3.7V2.8h-1.5v0.9H209.9z M210.9,6.6V5.8h-2.2v0.8H210.9z M210.9,8V7.2h-2.2V8H210.9z
			 M210.9,9.4V8.5h-2.2v0.9H210.9z M213.8,4.3h-2.6v-2h2.6V4.3z M214.3,1.4h-2.1V2h-0.6V0.1h0.6v0.8h2.1V1.4z M213.3,3.7V2.8h-1.5
			v0.9H213.3z"/>
		<path class="st15" d="M220.1,5.6l-0.4,0.5c-0.5-0.7-1-1.3-1.4-1.7v6.1h-0.6v-6c-0.5,1.2-1.1,2.2-1.7,3l-0.4-0.5
			c0.8-1,1.5-2.4,2.1-4.1h-1.9V2.4h1.9V0h0.6v2.4h1.4V3h-1.4v0.6C219.1,4.3,219.7,4.9,220.1,5.6z M226.3,10.1l-0.4,0.5
			c-1.3-0.6-2.4-1.2-3.2-2c-0.9,0.9-2,1.5-3.3,1.9L219,10c1.4-0.4,2.5-1,3.3-1.8c-0.8-1.1-1.3-2.5-1.6-4.2l0.6-0.1
			c0.3,1.6,0.7,2.9,1.4,3.8c0.6-1,0.9-2.6,1-4.8h-3.3V2.2h3.4c0-0.8,0-1.5,0-2.2h0.6c0,1,0,1.7,0,2.2h1.8v0.6h-1.9
			c0,2.4-0.4,4.2-1.1,5.3C223.9,8.9,224.9,9.5,226.3,10.1z"/>
	</g>
	<g>
		<path class="st15" d="M209.5,30.4h-6.2c-0.4,0.9-1,1.7-1.6,2.5v6H201v-5.2c-0.6,0.6-1.2,1.1-1.7,1.4l-0.2-0.6
			c1.5-1.2,2.7-2.5,3.5-4.2H199v-0.6h3.8c0.2-0.4,0.4-0.8,0.6-1.4l0.6,0.2c-0.2,0.5-0.4,0.9-0.6,1.2h5.9V30.4z M209.5,35.6h-3V38
			c0,0.2-0.1,0.4-0.2,0.5s-0.2,0.3-0.4,0.3s-0.5,0.1-1.1,0.1c-0.3,0-0.6,0-0.9,0l-0.3-0.6c0.3,0,0.6,0,1,0c0.6,0,1,0,1.1-0.1
			s0.2-0.1,0.2-0.2v-2.3h-3.6V35h3.6v-0.9c0.6-0.4,1.2-0.9,1.9-1.6h-4.7v-0.6h5.6v0.6c-0.8,0.8-1.5,1.4-2.2,1.8V35h3V35.6z"/>
		<path class="st15" d="M216.6,29.2h-1V39H215v-2.5c-1,0.4-2.3,0.7-3.9,1.1l-0.2-0.6l1.1-0.2v-7.6h-1.1v-0.6h5.7V29.2z M215,31.1
			v-1.9h-2.4v1.9H215z M215,33.6v-1.9h-2.4v1.9H215z M215,35.9v-1.6h-2.4v2.4C213.3,36.4,214.1,36.2,215,35.9z M221.4,38.4l-0.4,0.5
			c-0.8-0.7-1.5-1.4-2.1-2.2c-0.7,0.9-1.5,1.6-2.3,2.2l-0.4-0.5c0.8-0.6,1.6-1.3,2.3-2.3c-1-1.7-1.6-3.7-1.8-6h-0.4v-0.6h4.6
			c0,2.6-0.6,4.8-1.7,6.6c0.1,0.3,0.5,0.7,0.9,1.2S221.1,38.2,221.4,38.4z M220.3,30.2h-2.9c0.1,2,0.6,3.8,1.5,5.4
			C219.7,34.1,220.2,32.3,220.3,30.2z"/>
		<path class="st15" d="M226.6,33.6l-0.4,0.5c-0.2-0.4-0.5-0.8-0.9-1.3v6.1h-0.6v-6.1c-0.4,1.1-0.9,2-1.4,2.8l-0.4-0.5
			c0.7-1.1,1.3-2.4,1.8-3.8H223v-0.6h1.7v-2.3h0.6v2.3h1.1v0.6h-1.1V32C225.8,32.6,226.3,33.1,226.6,33.6z M233.3,38.4h-5.6v0.5
			h-0.6v-4c-0.3,0.3-0.6,0.6-0.9,0.9l-0.4-0.5c0.8-0.6,1.5-1.5,2-2.4l0.6,0.2c-0.1,0.2-0.3,0.5-0.4,0.7h2.1
			c-0.1-0.1-0.2-0.3-0.3-0.5l0.6-0.3c0.2,0.2,0.3,0.5,0.5,0.7h2.2v0.5h-2.5V35h2.2v0.5h-2.2v0.8h2.2v0.5h-2.2v0.9h2.8V38.4z
			 M229.2,30.4h-0.6v-0.5h-2.2v-0.6h2.2v-0.8h0.6V30.4z M229.5,32.7h-2.6v-2h2.6V32.7z M228.9,32.1v-0.9h-1.5v0.9H228.9z M230,35
			v-0.8h-2.2V35H230z M230,36.4v-0.8h-2.2v0.8H230z M230,37.8v-0.9h-2.2v0.9H230z M232.9,32.7h-2.6v-2h2.6V32.7z M233.3,29.8h-2.1
			v0.5h-0.6v-1.9h0.6v0.8h2.1V29.8z M232.3,32.1v-0.9h-1.5v0.9H232.3z"/>
		<path class="st15" d="M239.2,34l-0.4,0.5c-0.5-0.7-1-1.3-1.4-1.7v6.1h-0.6v-6c-0.5,1.2-1.1,2.2-1.7,3l-0.4-0.5
			c0.8-1,1.5-2.4,2.1-4.1h-1.9v-0.6h1.9v-2.4h0.6v2.4h1.4v0.6h-1.4V32C238.1,32.7,238.7,33.3,239.2,34z M245.3,38.5l-0.4,0.5
			c-1.3-0.6-2.4-1.2-3.2-2c-0.9,0.9-2,1.5-3.3,1.9l-0.4-0.6c1.4-0.4,2.5-1,3.3-1.8c-0.8-1.1-1.3-2.5-1.6-4.2l0.6-0.1
			c0.3,1.6,0.7,2.9,1.4,3.8c0.6-1,0.9-2.6,1-4.8h-3.3v-0.6h3.4c0-0.8,0-1.5,0-2.2h0.6c0,1,0,1.7,0,2.2h1.8v0.6h-1.9
			c0,2.4-0.4,4.2-1.1,5.3C242.9,37.3,244,37.9,245.3,38.5z"/>
	</g>
	<g>
		<path class="st15" d="M187.2,134.7h-1v-4.2h-4.8v4.2h-1v-9.1h1v4h4.8v-4h1V134.7z"/>
		<path class="st15" d="M194.8,126.5h-2.6v8.2h-1v-8.2h-2.6v-0.9h6.2V126.5z"/>
		<path class="st15" d="M201.8,126.5h-2.6v8.2h-1v-8.2h-2.6v-0.9h6.2V126.5z"/>
		<path class="st15" d="M204.2,131.2v3.4h-1v-9.1h2.4c0.9,0,1.7,0.2,2.2,0.7s0.8,1.1,0.8,2c0,0.9-0.3,1.6-0.9,2.2s-1.4,0.8-2.3,0.8
			H204.2z M204.2,126.5v3.8h1.1c0.7,0,1.3-0.2,1.7-0.5s0.6-0.8,0.6-1.4c0-1.2-0.7-1.8-2.2-1.8H204.2z"/>
		<path class="st15" d="M222.9,135.3h-0.7v-1h-8.1v1h-0.7V125h9.4V135.3z M222.2,133.6v-7.9h-8.1v7.9H222.2z M220.4,131.8h-4.6v-4.3
			h4.6V131.8z M219.8,131.1v-3h-3.3v3H219.8z"/>
		<path class="st15" d="M235.2,126.2h-8.9v3.5c0,2.2-0.3,4-0.9,5.7l-0.5-0.4c0.6-1.5,0.9-3.3,0.9-5.2v-4h4.5
			c-0.2-0.3-0.3-0.5-0.5-0.8l0.6-0.1c0.2,0.3,0.4,0.6,0.5,0.9h4.3V126.2z M228.4,132.7c-0.4,0.9-0.8,1.6-1.4,2.3l-0.5-0.4
			c0.5-0.6,1-1.3,1.3-2.2L228.4,132.7z M229.1,126.7c-0.1,0.5-0.4,1-0.7,1.6v3.8h-0.6v-2.9c-0.2,0.2-0.4,0.5-0.7,0.9l-0.4-0.5
			c1-1,1.6-2,1.9-3.1L229.1,126.7z M235.1,131.9h-5.3v-3c-0.2,0.3-0.5,0.6-0.8,1l-0.4-0.5c0.9-1.1,1.6-2,2-2.9l0.5,0.2
			c-0.1,0.3-0.3,0.6-0.4,0.9h1.8c-0.1-0.2-0.2-0.4-0.5-0.8l0.6-0.2c0.2,0.2,0.4,0.6,0.5,1h1.9v0.6h-2.2v0.7h2v0.6h-2v0.8h2v0.6h-2
			v0.7h2.2V131.9z M233.5,133.8c0,0.4-0.1,0.7-0.2,0.9s-0.3,0.3-0.5,0.4s-0.8,0.1-1.8,0.1c-0.7,0-1.1,0-1.3-0.1s-0.3-0.1-0.4-0.3
			s-0.2-0.4-0.2-0.7v-1.7h0.6v1.8c0,0.2,0.1,0.3,0.2,0.3s0.5,0.1,1.2,0.1c0.8,0,1.2,0,1.3-0.1s0.2-0.1,0.3-0.3s0.1-0.4,0.1-0.8
			L233.5,133.8z M232.2,128.8v-0.7h-1.9v0.7H232.2z M232.3,130.1v-0.8h-1.9v0.8H232.3z M232.3,131.4v-0.7h-1.9v0.7H232.3z
			 M232.1,133.5l-0.5,0.3c-0.4-0.5-0.7-0.9-1-1.2l0.5-0.4C231.5,132.6,231.8,133.1,232.1,133.5z M235.4,134.6l-0.5,0.3
			c-0.4-0.8-0.9-1.5-1.5-2.1l0.5-0.3C234.5,133.1,235,133.8,235.4,134.6z"/>
	</g>
</g>
</svg>
